{
  "version": 1,
  "schema": "patchex.arrangement.v1",
  "source_midi": "text2fx_gemini/songs/between_the_buttons/source.mid",
  "midi_format": 1,
  "source_track_count": 10,
  "ticks_per_beat": 480,
  "tempo_map": [
    {
      "tick": 0,
      "bpm": 189.000189,
      "microseconds_per_quarter": 317460
    }
  ],
  "tempo": 189.000189,
  "meter": "4/4",
  "time_signatures": [
    {
      "tick": 0,
      "numerator": 4,
      "denominator": 4
    }
  ],
  "duration": 314.866087,
  "tracks": [
    {
      "id": "fingered_bass",
      "source_track_index": 2,
      "source_name": "Fingered Bs.",
      "role": "fingered_bass",
      "channel": 0,
      "gm_program": 33,
      "gm_program_name": "Electric Bass finger",
      "note_count": 216,
      "pitch_range": [
        24,
        44
      ],
      "time_range": [
        40.526415,
        294.548647
      ],
      "notes": [
        {
          "note": 36,
          "start": 40.526415,
          "duration": 2.541664,
          "velocity": 0.826772,
          "start_tick": 61276,
          "duration_ticks": 3843,
          "channel": 0
        },
        {
          "note": 39,
          "start": 43.050883,
          "duration": 2.552246,
          "velocity": 0.732283,
          "start_tick": 65093,
          "duration_ticks": 3859,
          "channel": 0
        },
        {
          "note": 43,
          "start": 45.579319,
          "duration": 2.503966,
          "velocity": 0.779528,
          "start_tick": 68916,
          "duration_ticks": 3786,
          "channel": 0
        },
        {
          "note": 41,
          "start": 48.117677,
          "duration": 2.638225,
          "velocity": 0.866142,
          "start_tick": 72754,
          "duration_ticks": 3989,
          "channel": 0
        },
        {
          "note": 44,
          "start": 50.656034,
          "duration": 2.345236,
          "velocity": 0.897638,
          "start_tick": 76592,
          "duration_ticks": 3546,
          "channel": 0
        },
        {
          "note": 39,
          "start": 53.194391,
          "duration": 2.504627,
          "velocity": 0.866142,
          "start_tick": 80430,
          "duration_ticks": 3787,
          "channel": 0
        },
        {
          "note": 43,
          "start": 55.732748,
          "duration": 2.485447,
          "velocity": 0.84252,
          "start_tick": 84268,
          "duration_ticks": 3758,
          "channel": 0
        },
        {
          "note": 41,
          "start": 58.271106,
          "duration": 2.450394,
          "velocity": 0.92126,
          "start_tick": 88106,
          "duration_ticks": 3705,
          "channel": 0
        },
        {
          "note": 36,
          "start": 60.809463,
          "duration": 2.555553,
          "velocity": 0.826772,
          "start_tick": 91944,
          "duration_ticks": 3864,
          "channel": 0
        },
        {
          "note": 39,
          "start": 63.34782,
          "duration": 2.542987,
          "velocity": 0.732283,
          "start_tick": 95782,
          "duration_ticks": 3845,
          "channel": 0
        },
        {
          "note": 43,
          "start": 65.867659,
          "duration": 2.458331,
          "velocity": 0.779528,
          "start_tick": 99592,
          "duration_ticks": 3717,
          "channel": 0
        },
        {
          "note": 41,
          "start": 68.35972,
          "duration": 2.589945,
          "velocity": 0.866142,
          "start_tick": 103360,
          "duration_ticks": 3916,
          "channel": 0
        },
        {
          "note": 44,
          "start": 70.851781,
          "duration": 2.302246,
          "velocity": 0.897638,
          "start_tick": 107128,
          "duration_ticks": 3481,
          "channel": 0
        },
        {
          "note": 39,
          "start": 73.343842,
          "duration": 2.508595,
          "velocity": 0.866142,
          "start_tick": 110896,
          "duration_ticks": 3793,
          "channel": 0
        },
        {
          "note": 43,
          "start": 75.886829,
          "duration": 2.546955,
          "velocity": 0.84252,
          "start_tick": 114741,
          "duration_ticks": 3851,
          "channel": 0
        },
        {
          "note": 41,
          "start": 78.488017,
          "duration": 2.511241,
          "velocity": 0.92126,
          "start_tick": 118674,
          "duration_ticks": 3797,
          "channel": 0
        },
        {
          "note": 36,
          "start": 81.089205,
          "duration": 2.618384,
          "velocity": 0.826772,
          "start_tick": 122607,
          "duration_ticks": 3959,
          "channel": 0
        },
        {
          "note": 39,
          "start": 83.690393,
          "duration": 2.609124,
          "velocity": 0.732283,
          "start_tick": 126540,
          "duration_ticks": 3945,
          "channel": 0
        },
        {
          "note": 43,
          "start": 86.275707,
          "duration": 2.536373,
          "velocity": 0.779528,
          "start_tick": 130449,
          "duration_ticks": 3835,
          "channel": 0
        },
        {
          "note": 41,
          "start": 88.847133,
          "duration": 2.671955,
          "velocity": 0.866142,
          "start_tick": 134337,
          "duration_ticks": 4040,
          "channel": 0
        },
        {
          "note": 44,
          "start": 91.417898,
          "duration": 2.37632,
          "velocity": 0.897638,
          "start_tick": 138224,
          "duration_ticks": 3593,
          "channel": 0
        },
        {
          "note": 39,
          "start": 93.989324,
          "duration": 2.51058,
          "velocity": 0.866142,
          "start_tick": 142112,
          "duration_ticks": 3796,
          "channel": 0
        },
        {
          "note": 43,
          "start": 96.533634,
          "duration": 2.47222,
          "velocity": 0.84252,
          "start_tick": 145959,
          "duration_ticks": 3738,
          "channel": 0
        },
        {
          "note": 41,
          "start": 99.058102,
          "duration": 2.437828,
          "velocity": 0.92126,
          "start_tick": 149776,
          "duration_ticks": 3686,
          "channel": 0
        },
        {
          "note": 36,
          "start": 101.583232,
          "duration": 2.579363,
          "velocity": 0.84252,
          "start_tick": 153594,
          "duration_ticks": 3900,
          "channel": 0
        },
        {
          "note": 39,
          "start": 104.108362,
          "duration": 2.512564,
          "velocity": 0.88189,
          "start_tick": 157412,
          "duration_ticks": 3799,
          "channel": 0
        },
        {
          "note": 43,
          "start": 106.633491,
          "duration": 2.502643,
          "velocity": 0.84252,
          "start_tick": 161230,
          "duration_ticks": 3784,
          "channel": 0
        },
        {
          "note": 44,
          "start": 109.158621,
          "duration": 2.57341,
          "velocity": 0.76378,
          "start_tick": 165048,
          "duration_ticks": 3891,
          "channel": 0
        },
        {
          "note": 36,
          "start": 111.683751,
          "duration": 2.492722,
          "velocity": 0.88189,
          "start_tick": 168866,
          "duration_ticks": 3769,
          "channel": 0
        },
        {
          "note": 39,
          "start": 114.208881,
          "duration": 2.588622,
          "velocity": 0.84252,
          "start_tick": 172684,
          "duration_ticks": 3914,
          "channel": 0
        },
        {
          "note": 43,
          "start": 116.73401,
          "duration": 2.499336,
          "velocity": 0.84252,
          "start_tick": 176502,
          "duration_ticks": 3779,
          "channel": 0
        },
        {
          "note": 41,
          "start": 119.258479,
          "duration": 8.567452,
          "velocity": 0.874016,
          "start_tick": 180319,
          "duration_ticks": 12954,
          "channel": 0
        },
        {
          "note": 24,
          "start": 129.358998,
          "duration": 0.566798,
          "velocity": 0.795276,
          "start_tick": 195591,
          "duration_ticks": 857,
          "channel": 0
        },
        {
          "note": 24,
          "start": 129.989949,
          "duration": 0.476851,
          "velocity": 0.834646,
          "start_tick": 196545,
          "duration_ticks": 721,
          "channel": 0
        },
        {
          "note": 24,
          "start": 130.621563,
          "duration": 0.5291,
          "velocity": 0.826772,
          "start_tick": 197500,
          "duration_ticks": 800,
          "channel": 0
        },
        {
          "note": 24,
          "start": 131.252514,
          "duration": 0.554232,
          "velocity": 0.834646,
          "start_tick": 198454,
          "duration_ticks": 838,
          "channel": 0
        },
        {
          "note": 27,
          "start": 131.884127,
          "duration": 0.510582,
          "velocity": 0.84252,
          "start_tick": 199409,
          "duration_ticks": 772,
          "channel": 0
        },
        {
          "note": 27,
          "start": 132.515079,
          "duration": 0.535052,
          "velocity": 0.84252,
          "start_tick": 200363,
          "duration_ticks": 809,
          "channel": 0
        },
        {
          "note": 27,
          "start": 133.146692,
          "duration": 0.49537,
          "velocity": 0.787402,
          "start_tick": 201318,
          "duration_ticks": 749,
          "channel": 0
        },
        {
          "note": 27,
          "start": 133.777644,
          "duration": 0.535714,
          "velocity": 0.80315,
          "start_tick": 202272,
          "duration_ticks": 810,
          "channel": 0
        },
        {
          "note": 31,
          "start": 134.409257,
          "duration": 0.492063,
          "velocity": 0.874016,
          "start_tick": 203227,
          "duration_ticks": 744,
          "channel": 0
        },
        {
          "note": 31,
          "start": 135.0455,
          "duration": 0.536375,
          "velocity": 0.80315,
          "start_tick": 204189,
          "duration_ticks": 811,
          "channel": 0
        },
        {
          "note": 31,
          "start": 135.69034,
          "duration": 0.493386,
          "velocity": 0.755906,
          "start_tick": 205164,
          "duration_ticks": 746,
          "channel": 0
        },
        {
          "note": 31,
          "start": 136.335843,
          "duration": 0.537698,
          "velocity": 0.795276,
          "start_tick": 206140,
          "duration_ticks": 813,
          "channel": 0
        },
        {
          "note": 29,
          "start": 136.980683,
          "duration": 0.511243,
          "velocity": 0.937008,
          "start_tick": 207115,
          "duration_ticks": 773,
          "channel": 0
        },
        {
          "note": 29,
          "start": 137.625524,
          "duration": 0.501984,
          "velocity": 0.874016,
          "start_tick": 208090,
          "duration_ticks": 759,
          "channel": 0
        },
        {
          "note": 29,
          "start": 138.271026,
          "duration": 0.537698,
          "velocity": 0.866142,
          "start_tick": 209066,
          "duration_ticks": 813,
          "channel": 0
        },
        {
          "note": 29,
          "start": 138.915866,
          "duration": 0.497354,
          "velocity": 0.866142,
          "start_tick": 210041,
          "duration_ticks": 752,
          "channel": 0
        },
        {
          "note": 32,
          "start": 139.561368,
          "duration": 0.546957,
          "velocity": 0.88189,
          "start_tick": 211017,
          "duration_ticks": 827,
          "channel": 0
        },
        {
          "note": 32,
          "start": 140.206209,
          "duration": 0.490079,
          "velocity": 0.88189,
          "start_tick": 211992,
          "duration_ticks": 741,
          "channel": 0
        },
        {
          "note": 32,
          "start": 140.85105,
          "duration": 0.538359,
          "velocity": 0.88189,
          "start_tick": 212967,
          "duration_ticks": 814,
          "channel": 0
        },
        {
          "note": 32,
          "start": 141.496552,
          "duration": 0.573412,
          "velocity": 0.84252,
          "start_tick": 213943,
          "duration_ticks": 867,
          "channel": 0
        },
        {
          "note": 27,
          "start": 142.141392,
          "duration": 0.474867,
          "velocity": 0.897638,
          "start_tick": 214918,
          "duration_ticks": 718,
          "channel": 0
        },
        {
          "note": 27,
          "start": 142.786233,
          "duration": 0.517857,
          "velocity": 0.897638,
          "start_tick": 215893,
          "duration_ticks": 783,
          "channel": 0
        },
        {
          "note": 27,
          "start": 143.431735,
          "duration": 0.530423,
          "velocity": 0.897638,
          "start_tick": 216869,
          "duration_ticks": 802,
          "channel": 0
        },
        {
          "note": 27,
          "start": 144.076575,
          "duration": 0.512566,
          "velocity": 0.866142,
          "start_tick": 217844,
          "duration_ticks": 775,
          "channel": 0
        },
        {
          "note": 31,
          "start": 144.721416,
          "duration": 0.498015,
          "velocity": 0.92126,
          "start_tick": 218819,
          "duration_ticks": 753,
          "channel": 0
        },
        {
          "note": 31,
          "start": 145.36758,
          "duration": 0.513227,
          "velocity": 0.905512,
          "start_tick": 219796,
          "duration_ticks": 776,
          "channel": 0
        },
        {
          "note": 31,
          "start": 146.013081,
          "duration": 0.546957,
          "velocity": 0.866142,
          "start_tick": 220772,
          "duration_ticks": 827,
          "channel": 0
        },
        {
          "note": 31,
          "start": 146.659245,
          "duration": 0.527116,
          "velocity": 0.905512,
          "start_tick": 221749,
          "duration_ticks": 797,
          "channel": 0
        },
        {
          "note": 29,
          "start": 147.304747,
          "duration": 0.50992,
          "velocity": 0.92126,
          "start_tick": 222725,
          "duration_ticks": 771,
          "channel": 0
        },
        {
          "note": 29,
          "start": 147.95091,
          "duration": 0.523148,
          "velocity": 0.897638,
          "start_tick": 223702,
          "duration_ticks": 791,
          "channel": 0
        },
        {
          "note": 29,
          "start": 148.596412,
          "duration": 0.523148,
          "velocity": 0.92126,
          "start_tick": 224678,
          "duration_ticks": 791,
          "channel": 0
        },
        {
          "note": 24,
          "start": 149.888078,
          "duration": 0.580026,
          "velocity": 0.795276,
          "start_tick": 226631,
          "duration_ticks": 877,
          "channel": 0
        },
        {
          "note": 24,
          "start": 150.534241,
          "duration": 0.487433,
          "velocity": 0.834646,
          "start_tick": 227608,
          "duration_ticks": 737,
          "channel": 0
        },
        {
          "note": 24,
          "start": 151.179743,
          "duration": 0.541666,
          "velocity": 0.826772,
          "start_tick": 228584,
          "duration_ticks": 819,
          "channel": 0
        },
        {
          "note": 24,
          "start": 151.825906,
          "duration": 0.566798,
          "velocity": 0.834646,
          "start_tick": 229561,
          "duration_ticks": 857,
          "channel": 0
        },
        {
          "note": 27,
          "start": 152.471408,
          "duration": 0.523148,
          "velocity": 0.84252,
          "start_tick": 230537,
          "duration_ticks": 791,
          "channel": 0
        },
        {
          "note": 27,
          "start": 153.117572,
          "duration": 0.546957,
          "velocity": 0.84252,
          "start_tick": 231514,
          "duration_ticks": 827,
          "channel": 0
        },
        {
          "note": 27,
          "start": 153.763735,
          "duration": 0.507275,
          "velocity": 0.787402,
          "start_tick": 232491,
          "duration_ticks": 767,
          "channel": 0
        },
        {
          "note": 27,
          "start": 154.409237,
          "duration": 0.54828,
          "velocity": 0.80315,
          "start_tick": 233467,
          "duration_ticks": 829,
          "channel": 0
        },
        {
          "note": 31,
          "start": 155.0554,
          "duration": 0.498015,
          "velocity": 0.874016,
          "start_tick": 234444,
          "duration_ticks": 753,
          "channel": 0
        },
        {
          "note": 31,
          "start": 155.696934,
          "duration": 0.533068,
          "velocity": 0.80315,
          "start_tick": 235414,
          "duration_ticks": 806,
          "channel": 0
        },
        {
          "note": 31,
          "start": 156.337807,
          "duration": 0.490079,
          "velocity": 0.755906,
          "start_tick": 236383,
          "duration_ticks": 741,
          "channel": 0
        },
        {
          "note": 31,
          "start": 156.97934,
          "duration": 0.534391,
          "velocity": 0.795276,
          "start_tick": 237353,
          "duration_ticks": 808,
          "channel": 0
        },
        {
          "note": 29,
          "start": 157.620213,
          "duration": 0.507936,
          "velocity": 0.937008,
          "start_tick": 238322,
          "duration_ticks": 768,
          "channel": 0
        },
        {
          "note": 29,
          "start": 158.261085,
          "duration": 0.498677,
          "velocity": 0.874016,
          "start_tick": 239291,
          "duration_ticks": 754,
          "channel": 0
        },
        {
          "note": 29,
          "start": 158.902619,
          "duration": 0.53373,
          "velocity": 0.866142,
          "start_tick": 240261,
          "duration_ticks": 807,
          "channel": 0
        },
        {
          "note": 29,
          "start": 159.543491,
          "duration": 0.494047,
          "velocity": 0.866142,
          "start_tick": 241230,
          "duration_ticks": 747,
          "channel": 0
        },
        {
          "note": 32,
          "start": 160.184364,
          "duration": 0.54365,
          "velocity": 0.88189,
          "start_tick": 242199,
          "duration_ticks": 822,
          "channel": 0
        },
        {
          "note": 32,
          "start": 160.825897,
          "duration": 0.486772,
          "velocity": 0.88189,
          "start_tick": 243169,
          "duration_ticks": 736,
          "channel": 0
        },
        {
          "note": 32,
          "start": 161.46677,
          "duration": 0.535052,
          "velocity": 0.88189,
          "start_tick": 244138,
          "duration_ticks": 809,
          "channel": 0
        },
        {
          "note": 32,
          "start": 162.107642,
          "duration": 0.570105,
          "velocity": 0.84252,
          "start_tick": 245107,
          "duration_ticks": 862,
          "channel": 0
        },
        {
          "note": 27,
          "start": 162.749176,
          "duration": 0.47156,
          "velocity": 0.897638,
          "start_tick": 246077,
          "duration_ticks": 713,
          "channel": 0
        },
        {
          "note": 27,
          "start": 163.390048,
          "duration": 0.513888,
          "velocity": 0.897638,
          "start_tick": 247046,
          "duration_ticks": 777,
          "channel": 0
        },
        {
          "note": 27,
          "start": 164.030921,
          "duration": 0.527777,
          "velocity": 0.897638,
          "start_tick": 248015,
          "duration_ticks": 798,
          "channel": 0
        },
        {
          "note": 27,
          "start": 164.672454,
          "duration": 0.509259,
          "velocity": 0.866142,
          "start_tick": 248985,
          "duration_ticks": 770,
          "channel": 0
        },
        {
          "note": 31,
          "start": 165.312004,
          "duration": 0.484788,
          "velocity": 0.92126,
          "start_tick": 249952,
          "duration_ticks": 733,
          "channel": 0
        },
        {
          "note": 31,
          "start": 165.94031,
          "duration": 0.5,
          "velocity": 0.905512,
          "start_tick": 250902,
          "duration_ticks": 756,
          "channel": 0
        },
        {
          "note": 31,
          "start": 166.569278,
          "duration": 0.533068,
          "velocity": 0.866142,
          "start_tick": 251853,
          "duration_ticks": 806,
          "channel": 0
        },
        {
          "note": 31,
          "start": 167.198246,
          "duration": 0.513888,
          "velocity": 0.905512,
          "start_tick": 252804,
          "duration_ticks": 777,
          "channel": 0
        },
        {
          "note": 29,
          "start": 167.827213,
          "duration": 0.496693,
          "velocity": 0.92126,
          "start_tick": 253755,
          "duration_ticks": 751,
          "channel": 0
        },
        {
          "note": 29,
          "start": 168.456181,
          "duration": 0.50992,
          "velocity": 0.897638,
          "start_tick": 254706,
          "duration_ticks": 771,
          "channel": 0
        },
        {
          "note": 29,
          "start": 169.085148,
          "duration": 0.509259,
          "velocity": 0.92126,
          "start_tick": 255657,
          "duration_ticks": 770,
          "channel": 0
        },
        {
          "note": 29,
          "start": 169.714116,
          "duration": 0.467592,
          "velocity": 0.937008,
          "start_tick": 256608,
          "duration_ticks": 707,
          "channel": 0
        },
        {
          "note": 24,
          "start": 170.343084,
          "duration": 2.515209,
          "velocity": 0.874016,
          "start_tick": 257559,
          "duration_ticks": 3803,
          "channel": 0
        },
        {
          "note": 27,
          "start": 172.858954,
          "duration": 2.484125,
          "velocity": 0.88189,
          "start_tick": 261363,
          "duration_ticks": 3756,
          "channel": 0
        },
        {
          "note": 31,
          "start": 175.374163,
          "duration": 2.487431,
          "velocity": 0.905512,
          "start_tick": 265166,
          "duration_ticks": 3761,
          "channel": 0
        },
        {
          "note": 29,
          "start": 177.890034,
          "duration": 2.531744,
          "velocity": 0.937008,
          "start_tick": 268970,
          "duration_ticks": 3828,
          "channel": 0
        },
        {
          "note": 32,
          "start": 180.405904,
          "duration": 2.500659,
          "velocity": 0.866142,
          "start_tick": 272774,
          "duration_ticks": 3781,
          "channel": 0
        },
        {
          "note": 27,
          "start": 182.921113,
          "duration": 2.478834,
          "velocity": 0.929134,
          "start_tick": 276577,
          "duration_ticks": 3748,
          "channel": 0
        },
        {
          "note": 31,
          "start": 185.442936,
          "duration": 2.568119,
          "velocity": 0.905512,
          "start_tick": 280390,
          "duration_ticks": 3883,
          "channel": 0
        },
        {
          "note": 29,
          "start": 187.995844,
          "duration": 2.519839,
          "velocity": 1.0,
          "start_tick": 284250,
          "duration_ticks": 3810,
          "channel": 0
        },
        {
          "note": 24,
          "start": 190.549413,
          "duration": 2.552246,
          "velocity": 0.874016,
          "start_tick": 288111,
          "duration_ticks": 3859,
          "channel": 0
        },
        {
          "note": 27,
          "start": 193.10232,
          "duration": 2.521823,
          "velocity": 0.88189,
          "start_tick": 291971,
          "duration_ticks": 3813,
          "channel": 0
        },
        {
          "note": 31,
          "start": 195.655889,
          "duration": 2.524468,
          "velocity": 0.905512,
          "start_tick": 295832,
          "duration_ticks": 3817,
          "channel": 0
        },
        {
          "note": 29,
          "start": 198.208797,
          "duration": 2.570103,
          "velocity": 0.937008,
          "start_tick": 299692,
          "duration_ticks": 3886,
          "channel": 0
        },
        {
          "note": 32,
          "start": 200.762365,
          "duration": 2.538357,
          "velocity": 0.866142,
          "start_tick": 303553,
          "duration_ticks": 3838,
          "channel": 0
        },
        {
          "note": 27,
          "start": 203.315273,
          "duration": 2.499998,
          "velocity": 0.929134,
          "start_tick": 307413,
          "duration_ticks": 3780,
          "channel": 0
        },
        {
          "note": 31,
          "start": 205.856937,
          "duration": 2.527114,
          "velocity": 0.905512,
          "start_tick": 311256,
          "duration_ticks": 3821,
          "channel": 0
        },
        {
          "note": 29,
          "start": 208.368839,
          "duration": 1.884257,
          "velocity": 1.0,
          "start_tick": 315054,
          "duration_ticks": 2849,
          "channel": 0
        },
        {
          "note": 24,
          "start": 210.880741,
          "duration": 0.564153,
          "velocity": 0.795276,
          "start_tick": 318852,
          "duration_ticks": 853,
          "channel": 0
        },
        {
          "note": 24,
          "start": 211.509048,
          "duration": 0.474206,
          "velocity": 0.834646,
          "start_tick": 319802,
          "duration_ticks": 717,
          "channel": 0
        },
        {
          "note": 24,
          "start": 212.136693,
          "duration": 0.527116,
          "velocity": 0.826772,
          "start_tick": 320751,
          "duration_ticks": 797,
          "channel": 0
        },
        {
          "note": 24,
          "start": 212.764999,
          "duration": 0.551587,
          "velocity": 0.834646,
          "start_tick": 321701,
          "duration_ticks": 834,
          "channel": 0
        },
        {
          "note": 27,
          "start": 213.393305,
          "duration": 0.507936,
          "velocity": 0.84252,
          "start_tick": 322651,
          "duration_ticks": 768,
          "channel": 0
        },
        {
          "note": 27,
          "start": 214.02095,
          "duration": 0.531745,
          "velocity": 0.84252,
          "start_tick": 323600,
          "duration_ticks": 804,
          "channel": 0
        },
        {
          "note": 27,
          "start": 214.649256,
          "duration": 0.492724,
          "velocity": 0.787402,
          "start_tick": 324550,
          "duration_ticks": 745,
          "channel": 0
        },
        {
          "note": 27,
          "start": 215.276901,
          "duration": 0.533068,
          "velocity": 0.80315,
          "start_tick": 325499,
          "duration_ticks": 806,
          "channel": 0
        },
        {
          "note": 31,
          "start": 215.905207,
          "duration": 0.486772,
          "velocity": 0.874016,
          "start_tick": 326449,
          "duration_ticks": 736,
          "channel": 0
        },
        {
          "note": 31,
          "start": 216.532852,
          "duration": 0.521825,
          "velocity": 0.80315,
          "start_tick": 327398,
          "duration_ticks": 789,
          "channel": 0
        },
        {
          "note": 31,
          "start": 217.161158,
          "duration": 0.480158,
          "velocity": 0.755906,
          "start_tick": 328348,
          "duration_ticks": 726,
          "channel": 0
        },
        {
          "note": 31,
          "start": 217.788803,
          "duration": 0.523809,
          "velocity": 0.795276,
          "start_tick": 329297,
          "duration_ticks": 792,
          "channel": 0
        },
        {
          "note": 29,
          "start": 218.41711,
          "duration": 0.497354,
          "velocity": 0.937008,
          "start_tick": 330247,
          "duration_ticks": 752,
          "channel": 0
        },
        {
          "note": 29,
          "start": 219.044755,
          "duration": 0.488756,
          "velocity": 0.874016,
          "start_tick": 331196,
          "duration_ticks": 739,
          "channel": 0
        },
        {
          "note": 29,
          "start": 219.673061,
          "duration": 0.523148,
          "velocity": 0.866142,
          "start_tick": 332146,
          "duration_ticks": 791,
          "channel": 0
        },
        {
          "note": 29,
          "start": 220.300706,
          "duration": 0.484127,
          "velocity": 0.866142,
          "start_tick": 333095,
          "duration_ticks": 732,
          "channel": 0
        },
        {
          "note": 32,
          "start": 220.929012,
          "duration": 0.532407,
          "velocity": 0.88189,
          "start_tick": 334045,
          "duration_ticks": 805,
          "channel": 0
        },
        {
          "note": 32,
          "start": 221.556657,
          "duration": 0.476851,
          "velocity": 0.88189,
          "start_tick": 334994,
          "duration_ticks": 721,
          "channel": 0
        },
        {
          "note": 32,
          "start": 222.184963,
          "duration": 0.523809,
          "velocity": 0.88189,
          "start_tick": 335944,
          "duration_ticks": 792,
          "channel": 0
        },
        {
          "note": 32,
          "start": 222.812608,
          "duration": 0.558862,
          "velocity": 0.84252,
          "start_tick": 336893,
          "duration_ticks": 845,
          "channel": 0
        },
        {
          "note": 27,
          "start": 223.440914,
          "duration": 0.462301,
          "velocity": 0.897638,
          "start_tick": 337843,
          "duration_ticks": 699,
          "channel": 0
        },
        {
          "note": 27,
          "start": 224.068559,
          "duration": 0.503968,
          "velocity": 0.897638,
          "start_tick": 338792,
          "duration_ticks": 762,
          "channel": 0
        },
        {
          "note": 27,
          "start": 224.696865,
          "duration": 0.520502,
          "velocity": 0.897638,
          "start_tick": 339742,
          "duration_ticks": 787,
          "channel": 0
        },
        {
          "note": 27,
          "start": 225.329801,
          "duration": 0.505291,
          "velocity": 0.866142,
          "start_tick": 340699,
          "duration_ticks": 764,
          "channel": 0
        },
        {
          "note": 31,
          "start": 225.966044,
          "duration": 0.490079,
          "velocity": 0.92126,
          "start_tick": 341661,
          "duration_ticks": 741,
          "channel": 0
        },
        {
          "note": 31,
          "start": 226.601625,
          "duration": 0.505952,
          "velocity": 0.905512,
          "start_tick": 342622,
          "duration_ticks": 765,
          "channel": 0
        },
        {
          "note": 31,
          "start": 227.237868,
          "duration": 0.539021,
          "velocity": 0.866142,
          "start_tick": 343584,
          "duration_ticks": 815,
          "channel": 0
        },
        {
          "note": 31,
          "start": 227.874111,
          "duration": 0.519179,
          "velocity": 0.905512,
          "start_tick": 344546,
          "duration_ticks": 785,
          "channel": 0
        },
        {
          "note": 29,
          "start": 228.510354,
          "duration": 0.501984,
          "velocity": 0.92126,
          "start_tick": 345508,
          "duration_ticks": 759,
          "channel": 0
        },
        {
          "note": 29,
          "start": 229.145935,
          "duration": 0.515873,
          "velocity": 0.897638,
          "start_tick": 346469,
          "duration_ticks": 780,
          "channel": 0
        },
        {
          "note": 29,
          "start": 229.782178,
          "duration": 0.515211,
          "velocity": 0.92126,
          "start_tick": 347431,
          "duration_ticks": 779,
          "channel": 0
        },
        {
          "note": 29,
          "start": 230.41842,
          "duration": 0.472883,
          "velocity": 0.937008,
          "start_tick": 348393,
          "duration_ticks": 715,
          "channel": 0
        },
        {
          "note": 24,
          "start": 231.054663,
          "duration": 0.570767,
          "velocity": 0.795276,
          "start_tick": 349355,
          "duration_ticks": 863,
          "channel": 0
        },
        {
          "note": 24,
          "start": 231.690906,
          "duration": 0.480158,
          "velocity": 0.834646,
          "start_tick": 350317,
          "duration_ticks": 726,
          "channel": 0
        },
        {
          "note": 24,
          "start": 232.326487,
          "duration": 0.53373,
          "velocity": 0.826772,
          "start_tick": 351278,
          "duration_ticks": 807,
          "channel": 0
        },
        {
          "note": 24,
          "start": 232.96273,
          "duration": 0.558862,
          "velocity": 0.834646,
          "start_tick": 352240,
          "duration_ticks": 845,
          "channel": 0
        },
        {
          "note": 27,
          "start": 233.598973,
          "duration": 0.51455,
          "velocity": 0.84252,
          "start_tick": 353202,
          "duration_ticks": 778,
          "channel": 0
        },
        {
          "note": 27,
          "start": 234.235216,
          "duration": 0.538359,
          "velocity": 0.84252,
          "start_tick": 354164,
          "duration_ticks": 814,
          "channel": 0
        },
        {
          "note": 27,
          "start": 234.870797,
          "duration": 0.5,
          "velocity": 0.787402,
          "start_tick": 355125,
          "duration_ticks": 756,
          "channel": 0
        },
        {
          "note": 27,
          "start": 235.50704,
          "duration": 0.540343,
          "velocity": 0.80315,
          "start_tick": 356087,
          "duration_ticks": 817,
          "channel": 0
        },
        {
          "note": 31,
          "start": 236.143282,
          "duration": 0.493386,
          "velocity": 0.874016,
          "start_tick": 357049,
          "duration_ticks": 746,
          "channel": 0
        },
        {
          "note": 31,
          "start": 236.779525,
          "duration": 0.528439,
          "velocity": 0.80315,
          "start_tick": 358011,
          "duration_ticks": 799,
          "channel": 0
        },
        {
          "note": 31,
          "start": 237.415768,
          "duration": 0.486111,
          "velocity": 0.755906,
          "start_tick": 358973,
          "duration_ticks": 735,
          "channel": 0
        },
        {
          "note": 31,
          "start": 238.051349,
          "duration": 0.531084,
          "velocity": 0.795276,
          "start_tick": 359934,
          "duration_ticks": 803,
          "channel": 0
        },
        {
          "note": 29,
          "start": 238.687592,
          "duration": 0.504629,
          "velocity": 0.937008,
          "start_tick": 360896,
          "duration_ticks": 763,
          "channel": 0
        },
        {
          "note": 29,
          "start": 239.323835,
          "duration": 0.494709,
          "velocity": 0.874016,
          "start_tick": 361858,
          "duration_ticks": 748,
          "channel": 0
        },
        {
          "note": 29,
          "start": 239.960078,
          "duration": 0.529761,
          "velocity": 0.866142,
          "start_tick": 362820,
          "duration_ticks": 801,
          "channel": 0
        },
        {
          "note": 29,
          "start": 240.595659,
          "duration": 0.49074,
          "velocity": 0.866142,
          "start_tick": 363781,
          "duration_ticks": 742,
          "channel": 0
        },
        {
          "note": 32,
          "start": 241.231902,
          "duration": 0.539682,
          "velocity": 0.88189,
          "start_tick": 364743,
          "duration_ticks": 816,
          "channel": 0
        },
        {
          "note": 32,
          "start": 241.868144,
          "duration": 0.482804,
          "velocity": 0.88189,
          "start_tick": 365705,
          "duration_ticks": 730,
          "channel": 0
        },
        {
          "note": 32,
          "start": 242.504387,
          "duration": 0.530423,
          "velocity": 0.88189,
          "start_tick": 366667,
          "duration_ticks": 802,
          "channel": 0
        },
        {
          "note": 32,
          "start": 243.14063,
          "duration": 0.565476,
          "velocity": 0.84252,
          "start_tick": 367629,
          "duration_ticks": 855,
          "channel": 0
        },
        {
          "note": 27,
          "start": 243.776211,
          "duration": 0.468915,
          "velocity": 0.897638,
          "start_tick": 368590,
          "duration_ticks": 709,
          "channel": 0
        },
        {
          "note": 27,
          "start": 244.412454,
          "duration": 0.510582,
          "velocity": 0.897638,
          "start_tick": 369552,
          "duration_ticks": 772,
          "channel": 0
        },
        {
          "note": 27,
          "start": 245.048697,
          "duration": 0.521825,
          "velocity": 0.897638,
          "start_tick": 370514,
          "duration_ticks": 789,
          "channel": 0
        },
        {
          "note": 27,
          "start": 245.682294,
          "duration": 0.504629,
          "velocity": 0.866142,
          "start_tick": 371472,
          "duration_ticks": 763,
          "channel": 0
        },
        {
          "note": 31,
          "start": 246.316553,
          "duration": 0.488756,
          "velocity": 0.92126,
          "start_tick": 372431,
          "duration_ticks": 739,
          "channel": 0
        },
        {
          "note": 31,
          "start": 246.950811,
          "duration": 0.503968,
          "velocity": 0.905512,
          "start_tick": 373390,
          "duration_ticks": 762,
          "channel": 0
        },
        {
          "note": 31,
          "start": 247.58507,
          "duration": 0.537036,
          "velocity": 0.866142,
          "start_tick": 374349,
          "duration_ticks": 812,
          "channel": 0
        },
        {
          "note": 31,
          "start": 248.219328,
          "duration": 0.517857,
          "velocity": 0.905512,
          "start_tick": 375308,
          "duration_ticks": 783,
          "channel": 0
        },
        {
          "note": 29,
          "start": 248.853587,
          "duration": 0.500661,
          "velocity": 0.92126,
          "start_tick": 376267,
          "duration_ticks": 757,
          "channel": 0
        },
        {
          "note": 29,
          "start": 249.487846,
          "duration": 0.513888,
          "velocity": 0.897638,
          "start_tick": 377226,
          "duration_ticks": 777,
          "channel": 0
        },
        {
          "note": 29,
          "start": 250.122104,
          "duration": 0.513227,
          "velocity": 0.92126,
          "start_tick": 378185,
          "duration_ticks": 776,
          "channel": 0
        },
        {
          "note": 29,
          "start": 250.755702,
          "duration": 0.472222,
          "velocity": 0.937008,
          "start_tick": 379143,
          "duration_ticks": 714,
          "channel": 0
        },
        {
          "note": 24,
          "start": 251.38996,
          "duration": 0.569444,
          "velocity": 0.795276,
          "start_tick": 380102,
          "duration_ticks": 861,
          "channel": 0
        },
        {
          "note": 24,
          "start": 252.024219,
          "duration": 0.478836,
          "velocity": 0.834646,
          "start_tick": 381061,
          "duration_ticks": 724,
          "channel": 0
        },
        {
          "note": 24,
          "start": 252.658478,
          "duration": 0.531745,
          "velocity": 0.826772,
          "start_tick": 382020,
          "duration_ticks": 804,
          "channel": 0
        },
        {
          "note": 24,
          "start": 253.292736,
          "duration": 0.556878,
          "velocity": 0.834646,
          "start_tick": 382979,
          "duration_ticks": 842,
          "channel": 0
        },
        {
          "note": 27,
          "start": 253.926995,
          "duration": 0.513227,
          "velocity": 0.84252,
          "start_tick": 383938,
          "duration_ticks": 776,
          "channel": 0
        },
        {
          "note": 27,
          "start": 254.561253,
          "duration": 0.537036,
          "velocity": 0.84252,
          "start_tick": 384897,
          "duration_ticks": 812,
          "channel": 0
        },
        {
          "note": 27,
          "start": 255.195512,
          "duration": 0.498015,
          "velocity": 0.787402,
          "start_tick": 385856,
          "duration_ticks": 753,
          "channel": 0
        },
        {
          "note": 27,
          "start": 255.829109,
          "duration": 0.539021,
          "velocity": 0.80315,
          "start_tick": 386814,
          "duration_ticks": 815,
          "channel": 0
        },
        {
          "note": 31,
          "start": 256.463368,
          "duration": 0.492063,
          "velocity": 0.874016,
          "start_tick": 387773,
          "duration_ticks": 744,
          "channel": 0
        },
        {
          "note": 31,
          "start": 257.097626,
          "duration": 0.527116,
          "velocity": 0.80315,
          "start_tick": 388732,
          "duration_ticks": 797,
          "channel": 0
        },
        {
          "note": 31,
          "start": 257.731885,
          "duration": 0.484788,
          "velocity": 0.755906,
          "start_tick": 389691,
          "duration_ticks": 733,
          "channel": 0
        },
        {
          "note": 31,
          "start": 258.366144,
          "duration": 0.5291,
          "velocity": 0.795276,
          "start_tick": 390650,
          "duration_ticks": 800,
          "channel": 0
        },
        {
          "note": 29,
          "start": 259.000402,
          "duration": 0.502645,
          "velocity": 0.937008,
          "start_tick": 391609,
          "duration_ticks": 760,
          "channel": 0
        },
        {
          "note": 29,
          "start": 259.634661,
          "duration": 0.493386,
          "velocity": 0.874016,
          "start_tick": 392568,
          "duration_ticks": 746,
          "channel": 0
        },
        {
          "note": 29,
          "start": 260.26892,
          "duration": 0.528439,
          "velocity": 0.866142,
          "start_tick": 393527,
          "duration_ticks": 799,
          "channel": 0
        },
        {
          "note": 29,
          "start": 260.902517,
          "duration": 0.489418,
          "velocity": 0.866142,
          "start_tick": 394485,
          "duration_ticks": 740,
          "channel": 0
        },
        {
          "note": 32,
          "start": 261.536775,
          "duration": 0.537698,
          "velocity": 0.88189,
          "start_tick": 395444,
          "duration_ticks": 813,
          "channel": 0
        },
        {
          "note": 32,
          "start": 262.171034,
          "duration": 0.481481,
          "velocity": 0.88189,
          "start_tick": 396403,
          "duration_ticks": 728,
          "channel": 0
        },
        {
          "note": 32,
          "start": 262.805293,
          "duration": 0.5291,
          "velocity": 0.88189,
          "start_tick": 397362,
          "duration_ticks": 800,
          "channel": 0
        },
        {
          "note": 32,
          "start": 263.439551,
          "duration": 0.564153,
          "velocity": 0.84252,
          "start_tick": 398321,
          "duration_ticks": 853,
          "channel": 0
        },
        {
          "note": 27,
          "start": 264.07381,
          "duration": 0.466931,
          "velocity": 0.897638,
          "start_tick": 399280,
          "duration_ticks": 706,
          "channel": 0
        },
        {
          "note": 27,
          "start": 264.708069,
          "duration": 0.508597,
          "velocity": 0.897638,
          "start_tick": 400239,
          "duration_ticks": 769,
          "channel": 0
        },
        {
          "note": 27,
          "start": 265.342327,
          "duration": 0.522486,
          "velocity": 0.897638,
          "start_tick": 401198,
          "duration_ticks": 790,
          "channel": 0
        },
        {
          "note": 27,
          "start": 265.977247,
          "duration": 0.504629,
          "velocity": 0.866142,
          "start_tick": 402158,
          "duration_ticks": 763,
          "channel": 0
        },
        {
          "note": 31,
          "start": 266.612167,
          "duration": 0.489417,
          "velocity": 0.92126,
          "start_tick": 403118,
          "duration_ticks": 740,
          "channel": 0
        },
        {
          "note": 31,
          "start": 267.247087,
          "duration": 0.504629,
          "velocity": 0.905512,
          "start_tick": 404078,
          "duration_ticks": 763,
          "channel": 0
        },
        {
          "note": 31,
          "start": 267.882007,
          "duration": 0.537698,
          "velocity": 0.866142,
          "start_tick": 405038,
          "duration_ticks": 813,
          "channel": 0
        },
        {
          "note": 31,
          "start": 268.516927,
          "duration": 0.518518,
          "velocity": 0.905512,
          "start_tick": 405998,
          "duration_ticks": 784,
          "channel": 0
        },
        {
          "note": 29,
          "start": 269.151847,
          "duration": 0.501322,
          "velocity": 0.92126,
          "start_tick": 406958,
          "duration_ticks": 758,
          "channel": 0
        },
        {
          "note": 29,
          "start": 269.786767,
          "duration": 0.51455,
          "velocity": 0.897638,
          "start_tick": 407918,
          "duration_ticks": 778,
          "channel": 0
        },
        {
          "note": 29,
          "start": 270.421687,
          "duration": 0.513888,
          "velocity": 0.92126,
          "start_tick": 408878,
          "duration_ticks": 777,
          "channel": 0
        },
        {
          "note": 29,
          "start": 271.056607,
          "duration": 0.472222,
          "velocity": 0.937008,
          "start_tick": 409838,
          "duration_ticks": 714,
          "channel": 0
        },
        {
          "note": 36,
          "start": 271.691527,
          "duration": 2.55886,
          "velocity": 0.952756,
          "start_tick": 410798,
          "duration_ticks": 3869,
          "channel": 0
        },
        {
          "note": 39,
          "start": 274.231207,
          "duration": 2.537696,
          "velocity": 0.88189,
          "start_tick": 414638,
          "duration_ticks": 3837,
          "channel": 0
        },
        {
          "note": 43,
          "start": 276.770887,
          "duration": 2.511241,
          "velocity": 0.88189,
          "start_tick": 418478,
          "duration_ticks": 3797,
          "channel": 0
        },
        {
          "note": 41,
          "start": 279.310567,
          "duration": 2.492722,
          "velocity": 0.897638,
          "start_tick": 422318,
          "duration_ticks": 3769,
          "channel": 0
        },
        {
          "note": 44,
          "start": 281.850247,
          "duration": 2.615738,
          "velocity": 0.80315,
          "start_tick": 426158,
          "duration_ticks": 3955,
          "channel": 0
        },
        {
          "note": 39,
          "start": 284.389927,
          "duration": 2.406744,
          "velocity": 0.88189,
          "start_tick": 429998,
          "duration_ticks": 3639,
          "channel": 0
        },
        {
          "note": 43,
          "start": 286.770877,
          "duration": 2.461638,
          "velocity": 0.850394,
          "start_tick": 433598,
          "duration_ticks": 3722,
          "channel": 0
        },
        {
          "note": 41,
          "start": 289.469287,
          "duration": 2.694442,
          "velocity": 0.937008,
          "start_tick": 437678,
          "duration_ticks": 4074,
          "channel": 0
        },
        {
          "note": 24,
          "start": 291.929602,
          "duration": 2.619045,
          "velocity": 0.88189,
          "start_tick": 441398,
          "duration_ticks": 3960,
          "channel": 0
        }
      ]
    },
    {
      "id": "synth_bass_1",
      "source_track_index": 3,
      "source_name": "Synth Bass 1",
      "role": "synth_bass_1",
      "channel": 1,
      "gm_program": 38,
      "gm_program_name": "Synth Bass 1",
      "note_count": 888,
      "pitch_range": [
        32,
        43
      ],
      "time_range": [
        129.358998,
        271.610178
      ],
      "notes": [
        {
          "note": 36,
          "start": 129.358998,
          "duration": 0.074735,
          "velocity": 1.0,
          "start_tick": 195591,
          "duration_ticks": 113,
          "channel": 1
        },
        {
          "note": 36,
          "start": 129.517066,
          "duration": 0.076058,
          "velocity": 0.866142,
          "start_tick": 195830,
          "duration_ticks": 115,
          "channel": 1
        },
        {
          "note": 36,
          "start": 129.674474,
          "duration": 0.076719,
          "velocity": 0.88189,
          "start_tick": 196068,
          "duration_ticks": 116,
          "channel": 1
        },
        {
          "note": 36,
          "start": 129.832542,
          "duration": 0.078704,
          "velocity": 0.866142,
          "start_tick": 196307,
          "duration_ticks": 119,
          "channel": 1
        },
        {
          "note": 36,
          "start": 129.989949,
          "duration": 0.080026,
          "velocity": 0.874016,
          "start_tick": 196545,
          "duration_ticks": 121,
          "channel": 1
        },
        {
          "note": 36,
          "start": 130.148018,
          "duration": 0.079365,
          "velocity": 0.92126,
          "start_tick": 196784,
          "duration_ticks": 120,
          "channel": 1
        },
        {
          "note": 36,
          "start": 130.306087,
          "duration": 0.077381,
          "velocity": 0.897638,
          "start_tick": 197023,
          "duration_ticks": 117,
          "channel": 1
        },
        {
          "note": 36,
          "start": 130.463494,
          "duration": 0.078704,
          "velocity": 0.897638,
          "start_tick": 197261,
          "duration_ticks": 119,
          "channel": 1
        },
        {
          "note": 36,
          "start": 130.621563,
          "duration": 0.078704,
          "velocity": 0.905512,
          "start_tick": 197500,
          "duration_ticks": 119,
          "channel": 1
        },
        {
          "note": 36,
          "start": 130.77897,
          "duration": 0.075397,
          "velocity": 0.905512,
          "start_tick": 197738,
          "duration_ticks": 114,
          "channel": 1
        },
        {
          "note": 36,
          "start": 130.937038,
          "duration": 0.072751,
          "velocity": 0.874016,
          "start_tick": 197977,
          "duration_ticks": 110,
          "channel": 1
        },
        {
          "note": 36,
          "start": 131.095107,
          "duration": 0.068122,
          "velocity": 0.937008,
          "start_tick": 198216,
          "duration_ticks": 103,
          "channel": 1
        },
        {
          "note": 36,
          "start": 131.252514,
          "duration": 0.075397,
          "velocity": 0.968504,
          "start_tick": 198454,
          "duration_ticks": 114,
          "channel": 1
        },
        {
          "note": 36,
          "start": 131.410583,
          "duration": 0.07209,
          "velocity": 0.897638,
          "start_tick": 198693,
          "duration_ticks": 109,
          "channel": 1
        },
        {
          "note": 36,
          "start": 131.568651,
          "duration": 0.070106,
          "velocity": 0.92126,
          "start_tick": 198932,
          "duration_ticks": 106,
          "channel": 1
        },
        {
          "note": 36,
          "start": 131.726059,
          "duration": 0.079365,
          "velocity": 0.897638,
          "start_tick": 199170,
          "duration_ticks": 120,
          "channel": 1
        },
        {
          "note": 39,
          "start": 131.884127,
          "duration": 0.075397,
          "velocity": 0.929134,
          "start_tick": 199409,
          "duration_ticks": 114,
          "channel": 1
        },
        {
          "note": 39,
          "start": 132.041535,
          "duration": 0.081349,
          "velocity": 0.84252,
          "start_tick": 199647,
          "duration_ticks": 123,
          "channel": 1
        },
        {
          "note": 39,
          "start": 132.199603,
          "duration": 0.081349,
          "velocity": 0.787402,
          "start_tick": 199886,
          "duration_ticks": 123,
          "channel": 1
        },
        {
          "note": 39,
          "start": 132.357672,
          "duration": 0.08201,
          "velocity": 0.80315,
          "start_tick": 200125,
          "duration_ticks": 124,
          "channel": 1
        },
        {
          "note": 39,
          "start": 132.515079,
          "duration": 0.088624,
          "velocity": 0.80315,
          "start_tick": 200363,
          "duration_ticks": 134,
          "channel": 1
        },
        {
          "note": 39,
          "start": 132.673148,
          "duration": 0.081349,
          "velocity": 0.716535,
          "start_tick": 200602,
          "duration_ticks": 123,
          "channel": 1
        },
        {
          "note": 39,
          "start": 132.830555,
          "duration": 0.074735,
          "velocity": 0.826772,
          "start_tick": 200840,
          "duration_ticks": 113,
          "channel": 1
        },
        {
          "note": 39,
          "start": 132.988624,
          "duration": 0.072751,
          "velocity": 0.80315,
          "start_tick": 201079,
          "duration_ticks": 110,
          "channel": 1
        },
        {
          "note": 39,
          "start": 133.146692,
          "duration": 0.077381,
          "velocity": 0.748031,
          "start_tick": 201318,
          "duration_ticks": 117,
          "channel": 1
        },
        {
          "note": 39,
          "start": 133.3041,
          "duration": 0.070767,
          "velocity": 0.80315,
          "start_tick": 201556,
          "duration_ticks": 107,
          "channel": 1
        },
        {
          "note": 39,
          "start": 133.462168,
          "duration": 0.071428,
          "velocity": 0.826772,
          "start_tick": 201795,
          "duration_ticks": 108,
          "channel": 1
        },
        {
          "note": 39,
          "start": 133.620237,
          "duration": 0.076719,
          "velocity": 0.826772,
          "start_tick": 202034,
          "duration_ticks": 116,
          "channel": 1
        },
        {
          "note": 39,
          "start": 133.777644,
          "duration": 0.078704,
          "velocity": 0.76378,
          "start_tick": 202272,
          "duration_ticks": 119,
          "channel": 1
        },
        {
          "note": 39,
          "start": 133.935713,
          "duration": 0.075397,
          "velocity": 0.787402,
          "start_tick": 202511,
          "duration_ticks": 114,
          "channel": 1
        },
        {
          "note": 39,
          "start": 134.09312,
          "duration": 0.068783,
          "velocity": 0.76378,
          "start_tick": 202749,
          "duration_ticks": 104,
          "channel": 1
        },
        {
          "note": 39,
          "start": 134.251189,
          "duration": 0.083995,
          "velocity": 0.80315,
          "start_tick": 202988,
          "duration_ticks": 127,
          "channel": 1
        },
        {
          "note": 43,
          "start": 134.409257,
          "duration": 0.08664,
          "velocity": 0.968504,
          "start_tick": 203227,
          "duration_ticks": 131,
          "channel": 1
        },
        {
          "note": 43,
          "start": 134.566664,
          "duration": 0.082011,
          "velocity": 0.905512,
          "start_tick": 203465,
          "duration_ticks": 124,
          "channel": 1
        },
        {
          "note": 43,
          "start": 134.724733,
          "duration": 0.081349,
          "velocity": 0.897638,
          "start_tick": 203704,
          "duration_ticks": 123,
          "channel": 1
        },
        {
          "note": 43,
          "start": 134.884124,
          "duration": 0.084656,
          "velocity": 0.795276,
          "start_tick": 203945,
          "duration_ticks": 128,
          "channel": 1
        },
        {
          "note": 43,
          "start": 135.0455,
          "duration": 0.084656,
          "velocity": 0.84252,
          "start_tick": 204189,
          "duration_ticks": 128,
          "channel": 1
        },
        {
          "note": 43,
          "start": 135.206875,
          "duration": 0.085317,
          "velocity": 0.88189,
          "start_tick": 204433,
          "duration_ticks": 129,
          "channel": 1
        },
        {
          "note": 43,
          "start": 135.368251,
          "duration": 0.080688,
          "velocity": 0.84252,
          "start_tick": 204677,
          "duration_ticks": 122,
          "channel": 1
        },
        {
          "note": 43,
          "start": 135.528965,
          "duration": 0.078042,
          "velocity": 0.874016,
          "start_tick": 204920,
          "duration_ticks": 118,
          "channel": 1
        },
        {
          "note": 43,
          "start": 135.69034,
          "duration": 0.080026,
          "velocity": 0.874016,
          "start_tick": 205164,
          "duration_ticks": 121,
          "channel": 1
        },
        {
          "note": 43,
          "start": 135.851716,
          "duration": 0.085317,
          "velocity": 0.834646,
          "start_tick": 205408,
          "duration_ticks": 129,
          "channel": 1
        },
        {
          "note": 43,
          "start": 136.013092,
          "duration": 0.078704,
          "velocity": 0.834646,
          "start_tick": 205652,
          "duration_ticks": 119,
          "channel": 1
        },
        {
          "note": 43,
          "start": 136.174467,
          "duration": 0.083333,
          "velocity": 0.834646,
          "start_tick": 205896,
          "duration_ticks": 126,
          "channel": 1
        },
        {
          "note": 43,
          "start": 136.335843,
          "duration": 0.089947,
          "velocity": 0.779528,
          "start_tick": 206140,
          "duration_ticks": 136,
          "channel": 1
        },
        {
          "note": 43,
          "start": 136.497218,
          "duration": 0.081349,
          "velocity": 0.80315,
          "start_tick": 206384,
          "duration_ticks": 123,
          "channel": 1
        },
        {
          "note": 43,
          "start": 136.657932,
          "duration": 0.079365,
          "velocity": 0.755906,
          "start_tick": 206627,
          "duration_ticks": 120,
          "channel": 1
        },
        {
          "note": 43,
          "start": 136.819308,
          "duration": 0.088624,
          "velocity": 0.84252,
          "start_tick": 206871,
          "duration_ticks": 134,
          "channel": 1
        },
        {
          "note": 41,
          "start": 136.980683,
          "duration": 0.070767,
          "velocity": 0.968504,
          "start_tick": 207115,
          "duration_ticks": 107,
          "channel": 1
        },
        {
          "note": 41,
          "start": 137.142059,
          "duration": 0.090608,
          "velocity": 0.850394,
          "start_tick": 207359,
          "duration_ticks": 137,
          "channel": 1
        },
        {
          "note": 41,
          "start": 137.303434,
          "duration": 0.087963,
          "velocity": 0.866142,
          "start_tick": 207603,
          "duration_ticks": 133,
          "channel": 1
        },
        {
          "note": 41,
          "start": 137.46481,
          "duration": 0.083995,
          "velocity": 0.834646,
          "start_tick": 207847,
          "duration_ticks": 127,
          "channel": 1
        },
        {
          "note": 41,
          "start": 137.625524,
          "duration": 0.096561,
          "velocity": 0.84252,
          "start_tick": 208090,
          "duration_ticks": 146,
          "channel": 1
        },
        {
          "note": 41,
          "start": 137.786899,
          "duration": 0.08664,
          "velocity": 0.76378,
          "start_tick": 208334,
          "duration_ticks": 131,
          "channel": 1
        },
        {
          "note": 41,
          "start": 137.948275,
          "duration": 0.075397,
          "velocity": 0.874016,
          "start_tick": 208578,
          "duration_ticks": 114,
          "channel": 1
        },
        {
          "note": 41,
          "start": 138.10965,
          "duration": 0.078042,
          "velocity": 0.84252,
          "start_tick": 208822,
          "duration_ticks": 118,
          "channel": 1
        },
        {
          "note": 41,
          "start": 138.271026,
          "duration": 0.085979,
          "velocity": 0.826772,
          "start_tick": 209066,
          "duration_ticks": 130,
          "channel": 1
        },
        {
          "note": 41,
          "start": 138.432401,
          "duration": 0.075397,
          "velocity": 0.740157,
          "start_tick": 209310,
          "duration_ticks": 114,
          "channel": 1
        },
        {
          "note": 41,
          "start": 138.593115,
          "duration": 0.070106,
          "velocity": 0.866142,
          "start_tick": 209553,
          "duration_ticks": 106,
          "channel": 1
        },
        {
          "note": 41,
          "start": 138.754491,
          "duration": 0.07209,
          "velocity": 0.897638,
          "start_tick": 209797,
          "duration_ticks": 109,
          "channel": 1
        },
        {
          "note": 41,
          "start": 138.915866,
          "duration": 0.076058,
          "velocity": 0.874016,
          "start_tick": 210041,
          "duration_ticks": 115,
          "channel": 1
        },
        {
          "note": 41,
          "start": 139.077242,
          "duration": 0.073413,
          "velocity": 0.874016,
          "start_tick": 210285,
          "duration_ticks": 111,
          "channel": 1
        },
        {
          "note": 41,
          "start": 139.238617,
          "duration": 0.069444,
          "velocity": 0.850394,
          "start_tick": 210529,
          "duration_ticks": 105,
          "channel": 1
        },
        {
          "note": 41,
          "start": 139.399993,
          "duration": 0.08201,
          "velocity": 0.834646,
          "start_tick": 210773,
          "duration_ticks": 124,
          "channel": 1
        },
        {
          "note": 32,
          "start": 139.561368,
          "duration": 0.070767,
          "velocity": 0.952756,
          "start_tick": 211017,
          "duration_ticks": 107,
          "channel": 1
        },
        {
          "note": 32,
          "start": 139.722082,
          "duration": 0.076058,
          "velocity": 0.787402,
          "start_tick": 211260,
          "duration_ticks": 115,
          "channel": 1
        },
        {
          "note": 32,
          "start": 139.883458,
          "duration": 0.074074,
          "velocity": 0.826772,
          "start_tick": 211504,
          "duration_ticks": 112,
          "channel": 1
        },
        {
          "note": 32,
          "start": 140.044834,
          "duration": 0.076058,
          "velocity": 0.787402,
          "start_tick": 211748,
          "duration_ticks": 115,
          "channel": 1
        },
        {
          "note": 32,
          "start": 140.206209,
          "duration": 0.079365,
          "velocity": 0.80315,
          "start_tick": 211992,
          "duration_ticks": 120,
          "channel": 1
        },
        {
          "note": 32,
          "start": 140.367584,
          "duration": 0.079365,
          "velocity": 0.84252,
          "start_tick": 212236,
          "duration_ticks": 120,
          "channel": 1
        },
        {
          "note": 32,
          "start": 140.52896,
          "duration": 0.078042,
          "velocity": 0.826772,
          "start_tick": 212480,
          "duration_ticks": 118,
          "channel": 1
        },
        {
          "note": 32,
          "start": 140.689674,
          "duration": 0.078042,
          "velocity": 0.84252,
          "start_tick": 212723,
          "duration_ticks": 118,
          "channel": 1
        },
        {
          "note": 32,
          "start": 140.85105,
          "duration": 0.087963,
          "velocity": 0.787402,
          "start_tick": 212967,
          "duration_ticks": 133,
          "channel": 1
        },
        {
          "note": 32,
          "start": 141.012425,
          "duration": 0.08664,
          "velocity": 0.677165,
          "start_tick": 213211,
          "duration_ticks": 131,
          "channel": 1
        },
        {
          "note": 32,
          "start": 141.173801,
          "duration": 0.079365,
          "velocity": 0.84252,
          "start_tick": 213455,
          "duration_ticks": 120,
          "channel": 1
        },
        {
          "note": 32,
          "start": 141.335176,
          "duration": 0.079365,
          "velocity": 0.826772,
          "start_tick": 213699,
          "duration_ticks": 120,
          "channel": 1
        },
        {
          "note": 32,
          "start": 141.496552,
          "duration": 0.082672,
          "velocity": 0.80315,
          "start_tick": 213943,
          "duration_ticks": 125,
          "channel": 1
        },
        {
          "note": 32,
          "start": 141.657266,
          "duration": 0.081349,
          "velocity": 0.716535,
          "start_tick": 214186,
          "duration_ticks": 123,
          "channel": 1
        },
        {
          "note": 32,
          "start": 141.818641,
          "duration": 0.073413,
          "velocity": 0.748031,
          "start_tick": 214430,
          "duration_ticks": 111,
          "channel": 1
        },
        {
          "note": 32,
          "start": 141.980017,
          "duration": 0.082672,
          "velocity": 0.826772,
          "start_tick": 214674,
          "duration_ticks": 125,
          "channel": 1
        },
        {
          "note": 39,
          "start": 142.141392,
          "duration": 0.073413,
          "velocity": 0.929134,
          "start_tick": 214918,
          "duration_ticks": 111,
          "channel": 1
        },
        {
          "note": 39,
          "start": 142.302768,
          "duration": 0.072751,
          "velocity": 0.866142,
          "start_tick": 215162,
          "duration_ticks": 110,
          "channel": 1
        },
        {
          "note": 39,
          "start": 142.464143,
          "duration": 0.072751,
          "velocity": 0.80315,
          "start_tick": 215406,
          "duration_ticks": 110,
          "channel": 1
        },
        {
          "note": 39,
          "start": 142.624857,
          "duration": 0.066799,
          "velocity": 0.787402,
          "start_tick": 215649,
          "duration_ticks": 101,
          "channel": 1
        },
        {
          "note": 39,
          "start": 142.786233,
          "duration": 0.074735,
          "velocity": 0.826772,
          "start_tick": 215893,
          "duration_ticks": 113,
          "channel": 1
        },
        {
          "note": 39,
          "start": 142.947608,
          "duration": 0.074074,
          "velocity": 0.748031,
          "start_tick": 216137,
          "duration_ticks": 112,
          "channel": 1
        },
        {
          "note": 39,
          "start": 143.108984,
          "duration": 0.079365,
          "velocity": 0.716535,
          "start_tick": 216381,
          "duration_ticks": 120,
          "channel": 1
        },
        {
          "note": 39,
          "start": 143.270359,
          "duration": 0.074074,
          "velocity": 0.732283,
          "start_tick": 216625,
          "duration_ticks": 112,
          "channel": 1
        },
        {
          "note": 39,
          "start": 143.431735,
          "duration": 0.074735,
          "velocity": 0.76378,
          "start_tick": 216869,
          "duration_ticks": 113,
          "channel": 1
        },
        {
          "note": 39,
          "start": 143.59311,
          "duration": 0.080026,
          "velocity": 0.692913,
          "start_tick": 217113,
          "duration_ticks": 121,
          "channel": 1
        },
        {
          "note": 39,
          "start": 143.753825,
          "duration": 0.08201,
          "velocity": 0.629921,
          "start_tick": 217356,
          "duration_ticks": 124,
          "channel": 1
        },
        {
          "note": 39,
          "start": 143.9152,
          "duration": 0.085317,
          "velocity": 0.637795,
          "start_tick": 217600,
          "duration_ticks": 129,
          "channel": 1
        },
        {
          "note": 39,
          "start": 144.076575,
          "duration": 0.07672,
          "velocity": 0.669291,
          "start_tick": 217844,
          "duration_ticks": 116,
          "channel": 1
        },
        {
          "note": 39,
          "start": 144.237951,
          "duration": 0.079365,
          "velocity": 0.677165,
          "start_tick": 218088,
          "duration_ticks": 120,
          "channel": 1
        },
        {
          "note": 39,
          "start": 144.399327,
          "duration": 0.081349,
          "velocity": 0.598425,
          "start_tick": 218332,
          "duration_ticks": 123,
          "channel": 1
        },
        {
          "note": 39,
          "start": 144.560702,
          "duration": 0.076058,
          "velocity": 0.629921,
          "start_tick": 218576,
          "duration_ticks": 115,
          "channel": 1
        },
        {
          "note": 43,
          "start": 144.721416,
          "duration": 0.092593,
          "velocity": 0.905512,
          "start_tick": 218819,
          "duration_ticks": 140,
          "channel": 1
        },
        {
          "note": 43,
          "start": 144.882792,
          "duration": 0.093254,
          "velocity": 0.80315,
          "start_tick": 219063,
          "duration_ticks": 141,
          "channel": 1
        },
        {
          "note": 43,
          "start": 145.044167,
          "duration": 0.090608,
          "velocity": 0.716535,
          "start_tick": 219307,
          "duration_ticks": 137,
          "channel": 1
        },
        {
          "note": 43,
          "start": 145.205543,
          "duration": 0.108465,
          "velocity": 0.76378,
          "start_tick": 219551,
          "duration_ticks": 164,
          "channel": 1
        },
        {
          "note": 43,
          "start": 145.36758,
          "duration": 0.089286,
          "velocity": 0.598425,
          "start_tick": 219796,
          "duration_ticks": 135,
          "channel": 1
        },
        {
          "note": 43,
          "start": 145.528955,
          "duration": 0.079365,
          "velocity": 0.811024,
          "start_tick": 220040,
          "duration_ticks": 120,
          "channel": 1
        },
        {
          "note": 43,
          "start": 145.69033,
          "duration": 0.084656,
          "velocity": 0.80315,
          "start_tick": 220284,
          "duration_ticks": 128,
          "channel": 1
        },
        {
          "note": 43,
          "start": 145.851706,
          "duration": 0.08201,
          "velocity": 0.787402,
          "start_tick": 220528,
          "duration_ticks": 124,
          "channel": 1
        },
        {
          "note": 43,
          "start": 146.013081,
          "duration": 0.082672,
          "velocity": 0.80315,
          "start_tick": 220772,
          "duration_ticks": 125,
          "channel": 1
        },
        {
          "note": 43,
          "start": 146.174457,
          "duration": 0.087302,
          "velocity": 0.826772,
          "start_tick": 221016,
          "duration_ticks": 132,
          "channel": 1
        },
        {
          "note": 43,
          "start": 146.335833,
          "duration": 0.100529,
          "velocity": 0.732283,
          "start_tick": 221260,
          "duration_ticks": 152,
          "channel": 1
        },
        {
          "note": 43,
          "start": 146.497208,
          "duration": 0.090608,
          "velocity": 0.700787,
          "start_tick": 221504,
          "duration_ticks": 137,
          "channel": 1
        },
        {
          "note": 43,
          "start": 146.659245,
          "duration": 0.087301,
          "velocity": 0.740157,
          "start_tick": 221749,
          "duration_ticks": 132,
          "channel": 1
        },
        {
          "note": 43,
          "start": 146.82062,
          "duration": 0.087963,
          "velocity": 0.755906,
          "start_tick": 221993,
          "duration_ticks": 133,
          "channel": 1
        },
        {
          "note": 43,
          "start": 146.981996,
          "duration": 0.08664,
          "velocity": 0.795276,
          "start_tick": 222237,
          "duration_ticks": 131,
          "channel": 1
        },
        {
          "note": 43,
          "start": 147.143371,
          "duration": 0.085979,
          "velocity": 0.826772,
          "start_tick": 222481,
          "duration_ticks": 130,
          "channel": 1
        },
        {
          "note": 41,
          "start": 147.304747,
          "duration": 0.087301,
          "velocity": 0.905512,
          "start_tick": 222725,
          "duration_ticks": 132,
          "channel": 1
        },
        {
          "note": 41,
          "start": 147.466122,
          "duration": 0.103836,
          "velocity": 0.700787,
          "start_tick": 222969,
          "duration_ticks": 157,
          "channel": 1
        },
        {
          "note": 41,
          "start": 147.627498,
          "duration": 0.098545,
          "velocity": 0.692913,
          "start_tick": 223213,
          "duration_ticks": 149,
          "channel": 1
        },
        {
          "note": 41,
          "start": 147.789535,
          "duration": 0.09127,
          "velocity": 0.732283,
          "start_tick": 223458,
          "duration_ticks": 138,
          "channel": 1
        },
        {
          "note": 41,
          "start": 147.95091,
          "duration": 0.083333,
          "velocity": 0.80315,
          "start_tick": 223702,
          "duration_ticks": 126,
          "channel": 1
        },
        {
          "note": 41,
          "start": 148.112286,
          "duration": 0.088624,
          "velocity": 0.76378,
          "start_tick": 223946,
          "duration_ticks": 134,
          "channel": 1
        },
        {
          "note": 41,
          "start": 148.273661,
          "duration": 0.063492,
          "velocity": 0.700787,
          "start_tick": 224190,
          "duration_ticks": 96,
          "channel": 1
        },
        {
          "note": 41,
          "start": 148.435037,
          "duration": 0.078704,
          "velocity": 0.874016,
          "start_tick": 224434,
          "duration_ticks": 119,
          "channel": 1
        },
        {
          "note": 41,
          "start": 148.596412,
          "duration": 0.098545,
          "velocity": 0.716535,
          "start_tick": 224678,
          "duration_ticks": 149,
          "channel": 1
        },
        {
          "note": 41,
          "start": 148.757788,
          "duration": 0.090608,
          "velocity": 0.645669,
          "start_tick": 224922,
          "duration_ticks": 137,
          "channel": 1
        },
        {
          "note": 41,
          "start": 148.919163,
          "duration": 0.074735,
          "velocity": 0.779528,
          "start_tick": 225166,
          "duration_ticks": 113,
          "channel": 1
        },
        {
          "note": 41,
          "start": 149.0812,
          "duration": 0.087301,
          "velocity": 0.874016,
          "start_tick": 225411,
          "duration_ticks": 132,
          "channel": 1
        },
        {
          "note": 36,
          "start": 149.888078,
          "duration": 0.076719,
          "velocity": 1.0,
          "start_tick": 226631,
          "duration_ticks": 116,
          "channel": 1
        },
        {
          "note": 36,
          "start": 150.049453,
          "duration": 0.078042,
          "velocity": 0.866142,
          "start_tick": 226875,
          "duration_ticks": 118,
          "channel": 1
        },
        {
          "note": 36,
          "start": 150.21149,
          "duration": 0.078704,
          "velocity": 0.88189,
          "start_tick": 227120,
          "duration_ticks": 119,
          "channel": 1
        },
        {
          "note": 36,
          "start": 150.372865,
          "duration": 0.080688,
          "velocity": 0.866142,
          "start_tick": 227364,
          "duration_ticks": 122,
          "channel": 1
        },
        {
          "note": 36,
          "start": 150.534241,
          "duration": 0.081349,
          "velocity": 0.874016,
          "start_tick": 227608,
          "duration_ticks": 123,
          "channel": 1
        },
        {
          "note": 36,
          "start": 150.695616,
          "duration": 0.081349,
          "velocity": 0.92126,
          "start_tick": 227852,
          "duration_ticks": 123,
          "channel": 1
        },
        {
          "note": 36,
          "start": 150.856992,
          "duration": 0.079365,
          "velocity": 0.897638,
          "start_tick": 228096,
          "duration_ticks": 120,
          "channel": 1
        },
        {
          "note": 36,
          "start": 151.018368,
          "duration": 0.080026,
          "velocity": 0.897638,
          "start_tick": 228340,
          "duration_ticks": 121,
          "channel": 1
        },
        {
          "note": 36,
          "start": 151.179743,
          "duration": 0.080688,
          "velocity": 0.905512,
          "start_tick": 228584,
          "duration_ticks": 122,
          "channel": 1
        },
        {
          "note": 36,
          "start": 151.34178,
          "duration": 0.076058,
          "velocity": 0.905512,
          "start_tick": 228829,
          "duration_ticks": 115,
          "channel": 1
        },
        {
          "note": 36,
          "start": 151.503155,
          "duration": 0.074735,
          "velocity": 0.874016,
          "start_tick": 229073,
          "duration_ticks": 113,
          "channel": 1
        },
        {
          "note": 36,
          "start": 151.664531,
          "duration": 0.070106,
          "velocity": 0.937008,
          "start_tick": 229317,
          "duration_ticks": 106,
          "channel": 1
        },
        {
          "note": 36,
          "start": 151.825906,
          "duration": 0.07672,
          "velocity": 0.968504,
          "start_tick": 229561,
          "duration_ticks": 116,
          "channel": 1
        },
        {
          "note": 36,
          "start": 151.987282,
          "duration": 0.074074,
          "velocity": 0.897638,
          "start_tick": 229805,
          "duration_ticks": 112,
          "channel": 1
        },
        {
          "note": 36,
          "start": 152.148657,
          "duration": 0.07209,
          "velocity": 0.92126,
          "start_tick": 230049,
          "duration_ticks": 109,
          "channel": 1
        },
        {
          "note": 36,
          "start": 152.310033,
          "duration": 0.081349,
          "velocity": 0.897638,
          "start_tick": 230293,
          "duration_ticks": 123,
          "channel": 1
        },
        {
          "note": 39,
          "start": 152.471408,
          "duration": 0.077381,
          "velocity": 0.929134,
          "start_tick": 230537,
          "duration_ticks": 117,
          "channel": 1
        },
        {
          "note": 39,
          "start": 152.633445,
          "duration": 0.082672,
          "velocity": 0.84252,
          "start_tick": 230782,
          "duration_ticks": 125,
          "channel": 1
        },
        {
          "note": 39,
          "start": 152.794821,
          "duration": 0.083333,
          "velocity": 0.787402,
          "start_tick": 231026,
          "duration_ticks": 126,
          "channel": 1
        },
        {
          "note": 39,
          "start": 152.956196,
          "duration": 0.083995,
          "velocity": 0.80315,
          "start_tick": 231270,
          "duration_ticks": 127,
          "channel": 1
        },
        {
          "note": 39,
          "start": 153.117572,
          "duration": 0.090608,
          "velocity": 0.80315,
          "start_tick": 231514,
          "duration_ticks": 137,
          "channel": 1
        },
        {
          "note": 39,
          "start": 153.278947,
          "duration": 0.083333,
          "velocity": 0.716535,
          "start_tick": 231758,
          "duration_ticks": 126,
          "channel": 1
        },
        {
          "note": 39,
          "start": 153.440323,
          "duration": 0.076058,
          "velocity": 0.826772,
          "start_tick": 232002,
          "duration_ticks": 115,
          "channel": 1
        },
        {
          "note": 39,
          "start": 153.601698,
          "duration": 0.074735,
          "velocity": 0.80315,
          "start_tick": 232246,
          "duration_ticks": 113,
          "channel": 1
        },
        {
          "note": 39,
          "start": 153.763735,
          "duration": 0.079365,
          "velocity": 0.748031,
          "start_tick": 232491,
          "duration_ticks": 120,
          "channel": 1
        },
        {
          "note": 39,
          "start": 153.925111,
          "duration": 0.07209,
          "velocity": 0.80315,
          "start_tick": 232735,
          "duration_ticks": 109,
          "channel": 1
        },
        {
          "note": 39,
          "start": 154.086486,
          "duration": 0.073413,
          "velocity": 0.826772,
          "start_tick": 232979,
          "duration_ticks": 111,
          "channel": 1
        },
        {
          "note": 39,
          "start": 154.247862,
          "duration": 0.078704,
          "velocity": 0.826772,
          "start_tick": 233223,
          "duration_ticks": 119,
          "channel": 1
        },
        {
          "note": 39,
          "start": 154.409237,
          "duration": 0.080688,
          "velocity": 0.76378,
          "start_tick": 233467,
          "duration_ticks": 122,
          "channel": 1
        },
        {
          "note": 39,
          "start": 154.570613,
          "duration": 0.077381,
          "velocity": 0.787402,
          "start_tick": 233711,
          "duration_ticks": 117,
          "channel": 1
        },
        {
          "note": 39,
          "start": 154.731988,
          "duration": 0.070106,
          "velocity": 0.76378,
          "start_tick": 233955,
          "duration_ticks": 106,
          "channel": 1
        },
        {
          "note": 39,
          "start": 154.893364,
          "duration": 0.08664,
          "velocity": 0.80315,
          "start_tick": 234199,
          "duration_ticks": 131,
          "channel": 1
        },
        {
          "note": 43,
          "start": 155.0554,
          "duration": 0.088624,
          "velocity": 0.968504,
          "start_tick": 234444,
          "duration_ticks": 134,
          "channel": 1
        },
        {
          "note": 43,
          "start": 155.216115,
          "duration": 0.082672,
          "velocity": 0.905512,
          "start_tick": 234687,
          "duration_ticks": 125,
          "channel": 1
        },
        {
          "note": 43,
          "start": 155.376167,
          "duration": 0.082672,
          "velocity": 0.897638,
          "start_tick": 234929,
          "duration_ticks": 125,
          "channel": 1
        },
        {
          "note": 43,
          "start": 155.536881,
          "duration": 0.083995,
          "velocity": 0.795276,
          "start_tick": 235172,
          "duration_ticks": 127,
          "channel": 1
        },
        {
          "note": 43,
          "start": 155.696934,
          "duration": 0.083995,
          "velocity": 0.84252,
          "start_tick": 235414,
          "duration_ticks": 127,
          "channel": 1
        },
        {
          "note": 43,
          "start": 155.856987,
          "duration": 0.084656,
          "velocity": 0.88189,
          "start_tick": 235656,
          "duration_ticks": 128,
          "channel": 1
        },
        {
          "note": 43,
          "start": 156.017701,
          "duration": 0.080026,
          "velocity": 0.84252,
          "start_tick": 235899,
          "duration_ticks": 121,
          "channel": 1
        },
        {
          "note": 43,
          "start": 156.177754,
          "duration": 0.077381,
          "velocity": 0.874016,
          "start_tick": 236141,
          "duration_ticks": 117,
          "channel": 1
        },
        {
          "note": 43,
          "start": 156.337807,
          "duration": 0.079365,
          "velocity": 0.874016,
          "start_tick": 236383,
          "duration_ticks": 120,
          "channel": 1
        },
        {
          "note": 43,
          "start": 156.498521,
          "duration": 0.084656,
          "velocity": 0.834646,
          "start_tick": 236626,
          "duration_ticks": 128,
          "channel": 1
        },
        {
          "note": 43,
          "start": 156.658573,
          "duration": 0.078042,
          "velocity": 0.834646,
          "start_tick": 236868,
          "duration_ticks": 118,
          "channel": 1
        },
        {
          "note": 43,
          "start": 156.818626,
          "duration": 0.082672,
          "velocity": 0.834646,
          "start_tick": 237110,
          "duration_ticks": 125,
          "channel": 1
        },
        {
          "note": 43,
          "start": 156.97934,
          "duration": 0.089286,
          "velocity": 0.779528,
          "start_tick": 237353,
          "duration_ticks": 135,
          "channel": 1
        },
        {
          "note": 43,
          "start": 157.139393,
          "duration": 0.081349,
          "velocity": 0.80315,
          "start_tick": 237595,
          "duration_ticks": 123,
          "channel": 1
        },
        {
          "note": 43,
          "start": 157.299446,
          "duration": 0.078704,
          "velocity": 0.755906,
          "start_tick": 237837,
          "duration_ticks": 119,
          "channel": 1
        },
        {
          "note": 43,
          "start": 157.46016,
          "duration": 0.087963,
          "velocity": 0.84252,
          "start_tick": 238080,
          "duration_ticks": 133,
          "channel": 1
        },
        {
          "note": 41,
          "start": 157.620213,
          "duration": 0.070106,
          "velocity": 0.968504,
          "start_tick": 238322,
          "duration_ticks": 106,
          "channel": 1
        },
        {
          "note": 41,
          "start": 157.780266,
          "duration": 0.089947,
          "velocity": 0.850394,
          "start_tick": 238564,
          "duration_ticks": 136,
          "channel": 1
        },
        {
          "note": 41,
          "start": 157.94098,
          "duration": 0.087301,
          "velocity": 0.866142,
          "start_tick": 238807,
          "duration_ticks": 132,
          "channel": 1
        },
        {
          "note": 41,
          "start": 158.101032,
          "duration": 0.083333,
          "velocity": 0.834646,
          "start_tick": 239049,
          "duration_ticks": 126,
          "channel": 1
        },
        {
          "note": 41,
          "start": 158.261085,
          "duration": 0.095899,
          "velocity": 0.84252,
          "start_tick": 239291,
          "duration_ticks": 145,
          "channel": 1
        },
        {
          "note": 41,
          "start": 158.421799,
          "duration": 0.085979,
          "velocity": 0.76378,
          "start_tick": 239534,
          "duration_ticks": 130,
          "channel": 1
        },
        {
          "note": 41,
          "start": 158.581852,
          "duration": 0.074735,
          "velocity": 0.874016,
          "start_tick": 239776,
          "duration_ticks": 113,
          "channel": 1
        },
        {
          "note": 41,
          "start": 158.741905,
          "duration": 0.077381,
          "velocity": 0.84252,
          "start_tick": 240018,
          "duration_ticks": 117,
          "channel": 1
        },
        {
          "note": 41,
          "start": 158.902619,
          "duration": 0.085317,
          "velocity": 0.826772,
          "start_tick": 240261,
          "duration_ticks": 129,
          "channel": 1
        },
        {
          "note": 41,
          "start": 159.062672,
          "duration": 0.075397,
          "velocity": 0.740157,
          "start_tick": 240503,
          "duration_ticks": 114,
          "channel": 1
        },
        {
          "note": 41,
          "start": 159.222724,
          "duration": 0.069444,
          "velocity": 0.866142,
          "start_tick": 240745,
          "duration_ticks": 105,
          "channel": 1
        },
        {
          "note": 41,
          "start": 159.383439,
          "duration": 0.071428,
          "velocity": 0.897638,
          "start_tick": 240988,
          "duration_ticks": 108,
          "channel": 1
        },
        {
          "note": 41,
          "start": 159.543491,
          "duration": 0.075397,
          "velocity": 0.874016,
          "start_tick": 241230,
          "duration_ticks": 114,
          "channel": 1
        },
        {
          "note": 41,
          "start": 159.703544,
          "duration": 0.072751,
          "velocity": 0.874016,
          "start_tick": 241472,
          "duration_ticks": 110,
          "channel": 1
        },
        {
          "note": 41,
          "start": 159.864258,
          "duration": 0.069444,
          "velocity": 0.850394,
          "start_tick": 241715,
          "duration_ticks": 105,
          "channel": 1
        },
        {
          "note": 41,
          "start": 160.024311,
          "duration": 0.081349,
          "velocity": 0.834646,
          "start_tick": 241957,
          "duration_ticks": 123,
          "channel": 1
        },
        {
          "note": 32,
          "start": 160.184364,
          "duration": 0.070767,
          "velocity": 0.952756,
          "start_tick": 242199,
          "duration_ticks": 107,
          "channel": 1
        },
        {
          "note": 32,
          "start": 160.345078,
          "duration": 0.075397,
          "velocity": 0.787402,
          "start_tick": 242442,
          "duration_ticks": 114,
          "channel": 1
        },
        {
          "note": 32,
          "start": 160.505131,
          "duration": 0.073413,
          "velocity": 0.826772,
          "start_tick": 242684,
          "duration_ticks": 111,
          "channel": 1
        },
        {
          "note": 32,
          "start": 160.665183,
          "duration": 0.075397,
          "velocity": 0.787402,
          "start_tick": 242926,
          "duration_ticks": 114,
          "channel": 1
        },
        {
          "note": 32,
          "start": 160.825897,
          "duration": 0.078704,
          "velocity": 0.80315,
          "start_tick": 243169,
          "duration_ticks": 119,
          "channel": 1
        },
        {
          "note": 32,
          "start": 160.98595,
          "duration": 0.078704,
          "velocity": 0.84252,
          "start_tick": 243411,
          "duration_ticks": 119,
          "channel": 1
        },
        {
          "note": 32,
          "start": 161.146003,
          "duration": 0.078042,
          "velocity": 0.826772,
          "start_tick": 243653,
          "duration_ticks": 118,
          "channel": 1
        },
        {
          "note": 32,
          "start": 161.306717,
          "duration": 0.077381,
          "velocity": 0.84252,
          "start_tick": 243896,
          "duration_ticks": 117,
          "channel": 1
        },
        {
          "note": 32,
          "start": 161.46677,
          "duration": 0.087301,
          "velocity": 0.787402,
          "start_tick": 244138,
          "duration_ticks": 132,
          "channel": 1
        },
        {
          "note": 32,
          "start": 161.626823,
          "duration": 0.085979,
          "velocity": 0.677165,
          "start_tick": 244380,
          "duration_ticks": 130,
          "channel": 1
        },
        {
          "note": 32,
          "start": 161.787537,
          "duration": 0.078704,
          "velocity": 0.84252,
          "start_tick": 244623,
          "duration_ticks": 119,
          "channel": 1
        },
        {
          "note": 32,
          "start": 161.947589,
          "duration": 0.078704,
          "velocity": 0.826772,
          "start_tick": 244865,
          "duration_ticks": 119,
          "channel": 1
        },
        {
          "note": 32,
          "start": 162.107642,
          "duration": 0.08201,
          "velocity": 0.80315,
          "start_tick": 245107,
          "duration_ticks": 124,
          "channel": 1
        },
        {
          "note": 32,
          "start": 162.268356,
          "duration": 0.080688,
          "velocity": 0.716535,
          "start_tick": 245350,
          "duration_ticks": 122,
          "channel": 1
        },
        {
          "note": 32,
          "start": 162.428409,
          "duration": 0.072751,
          "velocity": 0.748031,
          "start_tick": 245592,
          "duration_ticks": 110,
          "channel": 1
        },
        {
          "note": 32,
          "start": 162.588462,
          "duration": 0.08201,
          "velocity": 0.826772,
          "start_tick": 245834,
          "duration_ticks": 124,
          "channel": 1
        },
        {
          "note": 39,
          "start": 162.749176,
          "duration": 0.072751,
          "velocity": 0.929134,
          "start_tick": 246077,
          "duration_ticks": 110,
          "channel": 1
        },
        {
          "note": 39,
          "start": 162.909229,
          "duration": 0.07209,
          "velocity": 0.866142,
          "start_tick": 246319,
          "duration_ticks": 109,
          "channel": 1
        },
        {
          "note": 39,
          "start": 163.069281,
          "duration": 0.072751,
          "velocity": 0.80315,
          "start_tick": 246561,
          "duration_ticks": 110,
          "channel": 1
        },
        {
          "note": 39,
          "start": 163.229996,
          "duration": 0.065476,
          "velocity": 0.787402,
          "start_tick": 246804,
          "duration_ticks": 99,
          "channel": 1
        },
        {
          "note": 39,
          "start": 163.390048,
          "duration": 0.074074,
          "velocity": 0.826772,
          "start_tick": 247046,
          "duration_ticks": 112,
          "channel": 1
        },
        {
          "note": 39,
          "start": 163.550101,
          "duration": 0.073413,
          "velocity": 0.748031,
          "start_tick": 247288,
          "duration_ticks": 111,
          "channel": 1
        },
        {
          "note": 39,
          "start": 163.710815,
          "duration": 0.078704,
          "velocity": 0.716535,
          "start_tick": 247531,
          "duration_ticks": 119,
          "channel": 1
        },
        {
          "note": 39,
          "start": 163.870868,
          "duration": 0.073413,
          "velocity": 0.732283,
          "start_tick": 247773,
          "duration_ticks": 111,
          "channel": 1
        },
        {
          "note": 39,
          "start": 164.030921,
          "duration": 0.074735,
          "velocity": 0.76378,
          "start_tick": 248015,
          "duration_ticks": 113,
          "channel": 1
        },
        {
          "note": 39,
          "start": 164.191635,
          "duration": 0.080026,
          "velocity": 0.692913,
          "start_tick": 248258,
          "duration_ticks": 121,
          "channel": 1
        },
        {
          "note": 39,
          "start": 164.351687,
          "duration": 0.081349,
          "velocity": 0.629921,
          "start_tick": 248500,
          "duration_ticks": 123,
          "channel": 1
        },
        {
          "note": 39,
          "start": 164.51174,
          "duration": 0.084656,
          "velocity": 0.637795,
          "start_tick": 248742,
          "duration_ticks": 128,
          "channel": 1
        },
        {
          "note": 39,
          "start": 164.672454,
          "duration": 0.076058,
          "velocity": 0.669291,
          "start_tick": 248985,
          "duration_ticks": 115,
          "channel": 1
        },
        {
          "note": 39,
          "start": 164.832507,
          "duration": 0.078704,
          "velocity": 0.677165,
          "start_tick": 249227,
          "duration_ticks": 119,
          "channel": 1
        },
        {
          "note": 39,
          "start": 164.99256,
          "duration": 0.080688,
          "velocity": 0.598425,
          "start_tick": 249469,
          "duration_ticks": 122,
          "channel": 1
        },
        {
          "note": 39,
          "start": 165.153274,
          "duration": 0.076058,
          "velocity": 0.629921,
          "start_tick": 249712,
          "duration_ticks": 115,
          "channel": 1
        },
        {
          "note": 43,
          "start": 165.312004,
          "duration": 0.089286,
          "velocity": 0.905512,
          "start_tick": 249952,
          "duration_ticks": 135,
          "channel": 1
        },
        {
          "note": 43,
          "start": 165.46875,
          "duration": 0.090608,
          "velocity": 0.80315,
          "start_tick": 250189,
          "duration_ticks": 137,
          "channel": 1
        },
        {
          "note": 43,
          "start": 165.626157,
          "duration": 0.087963,
          "velocity": 0.716535,
          "start_tick": 250427,
          "duration_ticks": 133,
          "channel": 1
        },
        {
          "note": 43,
          "start": 165.783564,
          "duration": 0.105159,
          "velocity": 0.76378,
          "start_tick": 250665,
          "duration_ticks": 159,
          "channel": 1
        },
        {
          "note": 43,
          "start": 165.94031,
          "duration": 0.087301,
          "velocity": 0.598425,
          "start_tick": 250902,
          "duration_ticks": 132,
          "channel": 1
        },
        {
          "note": 43,
          "start": 166.097717,
          "duration": 0.077381,
          "velocity": 0.811024,
          "start_tick": 251140,
          "duration_ticks": 117,
          "channel": 1
        },
        {
          "note": 43,
          "start": 166.255125,
          "duration": 0.082672,
          "velocity": 0.80315,
          "start_tick": 251378,
          "duration_ticks": 125,
          "channel": 1
        },
        {
          "note": 43,
          "start": 166.412532,
          "duration": 0.079365,
          "velocity": 0.787402,
          "start_tick": 251616,
          "duration_ticks": 120,
          "channel": 1
        },
        {
          "note": 43,
          "start": 166.569278,
          "duration": 0.080688,
          "velocity": 0.80315,
          "start_tick": 251853,
          "duration_ticks": 122,
          "channel": 1
        },
        {
          "note": 43,
          "start": 166.726685,
          "duration": 0.085317,
          "velocity": 0.826772,
          "start_tick": 252091,
          "duration_ticks": 129,
          "channel": 1
        },
        {
          "note": 43,
          "start": 166.884092,
          "duration": 0.097222,
          "velocity": 0.732283,
          "start_tick": 252329,
          "duration_ticks": 147,
          "channel": 1
        },
        {
          "note": 43,
          "start": 167.0415,
          "duration": 0.087301,
          "velocity": 0.700787,
          "start_tick": 252567,
          "duration_ticks": 132,
          "channel": 1
        },
        {
          "note": 43,
          "start": 167.198246,
          "duration": 0.085317,
          "velocity": 0.740157,
          "start_tick": 252804,
          "duration_ticks": 129,
          "channel": 1
        },
        {
          "note": 43,
          "start": 167.355653,
          "duration": 0.085979,
          "velocity": 0.755906,
          "start_tick": 253042,
          "duration_ticks": 130,
          "channel": 1
        },
        {
          "note": 43,
          "start": 167.51306,
          "duration": 0.084656,
          "velocity": 0.795276,
          "start_tick": 253280,
          "duration_ticks": 128,
          "channel": 1
        },
        {
          "note": 43,
          "start": 167.669806,
          "duration": 0.083995,
          "velocity": 0.826772,
          "start_tick": 253517,
          "duration_ticks": 127,
          "channel": 1
        },
        {
          "note": 41,
          "start": 167.827213,
          "duration": 0.085317,
          "velocity": 0.905512,
          "start_tick": 253755,
          "duration_ticks": 129,
          "channel": 1
        },
        {
          "note": 41,
          "start": 167.98462,
          "duration": 0.100529,
          "velocity": 0.700787,
          "start_tick": 253993,
          "duration_ticks": 152,
          "channel": 1
        },
        {
          "note": 41,
          "start": 168.142028,
          "duration": 0.095238,
          "velocity": 0.692913,
          "start_tick": 254231,
          "duration_ticks": 144,
          "channel": 1
        },
        {
          "note": 41,
          "start": 168.298774,
          "duration": 0.089286,
          "velocity": 0.732283,
          "start_tick": 254468,
          "duration_ticks": 135,
          "channel": 1
        },
        {
          "note": 41,
          "start": 168.456181,
          "duration": 0.081349,
          "velocity": 0.80315,
          "start_tick": 254706,
          "duration_ticks": 123,
          "channel": 1
        },
        {
          "note": 41,
          "start": 168.613588,
          "duration": 0.08664,
          "velocity": 0.76378,
          "start_tick": 254944,
          "duration_ticks": 131,
          "channel": 1
        },
        {
          "note": 41,
          "start": 168.770995,
          "duration": 0.061508,
          "velocity": 0.700787,
          "start_tick": 255182,
          "duration_ticks": 93,
          "channel": 1
        },
        {
          "note": 41,
          "start": 168.927741,
          "duration": 0.076719,
          "velocity": 0.874016,
          "start_tick": 255419,
          "duration_ticks": 116,
          "channel": 1
        },
        {
          "note": 41,
          "start": 169.085148,
          "duration": 0.095899,
          "velocity": 0.716535,
          "start_tick": 255657,
          "duration_ticks": 145,
          "channel": 1
        },
        {
          "note": 41,
          "start": 169.242556,
          "duration": 0.087301,
          "velocity": 0.645669,
          "start_tick": 255895,
          "duration_ticks": 132,
          "channel": 1
        },
        {
          "note": 41,
          "start": 169.399302,
          "duration": 0.072751,
          "velocity": 0.779528,
          "start_tick": 256132,
          "duration_ticks": 110,
          "channel": 1
        },
        {
          "note": 41,
          "start": 169.556709,
          "duration": 0.085317,
          "velocity": 0.874016,
          "start_tick": 256370,
          "duration_ticks": 129,
          "channel": 1
        },
        {
          "note": 41,
          "start": 169.714116,
          "duration": 0.083333,
          "velocity": 0.622047,
          "start_tick": 256608,
          "duration_ticks": 126,
          "channel": 1
        },
        {
          "note": 41,
          "start": 169.871523,
          "duration": 0.085979,
          "velocity": 0.80315,
          "start_tick": 256846,
          "duration_ticks": 130,
          "channel": 1
        },
        {
          "note": 41,
          "start": 170.028269,
          "duration": 0.075397,
          "velocity": 0.716535,
          "start_tick": 257083,
          "duration_ticks": 114,
          "channel": 1
        },
        {
          "note": 41,
          "start": 170.185676,
          "duration": 0.076719,
          "velocity": 0.874016,
          "start_tick": 257321,
          "duration_ticks": 116,
          "channel": 1
        },
        {
          "note": 36,
          "start": 170.343084,
          "duration": 0.074735,
          "velocity": 1.0,
          "start_tick": 257559,
          "duration_ticks": 113,
          "channel": 1
        },
        {
          "note": 36,
          "start": 170.500491,
          "duration": 0.075397,
          "velocity": 0.866142,
          "start_tick": 257797,
          "duration_ticks": 114,
          "channel": 1
        },
        {
          "note": 36,
          "start": 170.657237,
          "duration": 0.076719,
          "velocity": 0.88189,
          "start_tick": 258034,
          "duration_ticks": 116,
          "channel": 1
        },
        {
          "note": 36,
          "start": 170.814644,
          "duration": 0.078704,
          "velocity": 0.866142,
          "start_tick": 258272,
          "duration_ticks": 119,
          "channel": 1
        },
        {
          "note": 36,
          "start": 170.972051,
          "duration": 0.079365,
          "velocity": 0.874016,
          "start_tick": 258510,
          "duration_ticks": 120,
          "channel": 1
        },
        {
          "note": 36,
          "start": 171.129458,
          "duration": 0.078704,
          "velocity": 0.92126,
          "start_tick": 258748,
          "duration_ticks": 119,
          "channel": 1
        },
        {
          "note": 36,
          "start": 171.286204,
          "duration": 0.077381,
          "velocity": 0.897638,
          "start_tick": 258985,
          "duration_ticks": 117,
          "channel": 1
        },
        {
          "note": 36,
          "start": 171.443612,
          "duration": 0.078042,
          "velocity": 0.897638,
          "start_tick": 259223,
          "duration_ticks": 118,
          "channel": 1
        },
        {
          "note": 36,
          "start": 171.601019,
          "duration": 0.078704,
          "velocity": 0.905512,
          "start_tick": 259461,
          "duration_ticks": 119,
          "channel": 1
        },
        {
          "note": 36,
          "start": 171.757765,
          "duration": 0.074735,
          "velocity": 0.905512,
          "start_tick": 259698,
          "duration_ticks": 113,
          "channel": 1
        },
        {
          "note": 36,
          "start": 171.915172,
          "duration": 0.072751,
          "velocity": 0.874016,
          "start_tick": 259936,
          "duration_ticks": 110,
          "channel": 1
        },
        {
          "note": 36,
          "start": 172.072579,
          "duration": 0.068122,
          "velocity": 0.937008,
          "start_tick": 260174,
          "duration_ticks": 103,
          "channel": 1
        },
        {
          "note": 36,
          "start": 172.229986,
          "duration": 0.074735,
          "velocity": 0.968504,
          "start_tick": 260412,
          "duration_ticks": 113,
          "channel": 1
        },
        {
          "note": 36,
          "start": 172.386732,
          "duration": 0.07209,
          "velocity": 0.897638,
          "start_tick": 260649,
          "duration_ticks": 109,
          "channel": 1
        },
        {
          "note": 36,
          "start": 172.54414,
          "duration": 0.070106,
          "velocity": 0.92126,
          "start_tick": 260887,
          "duration_ticks": 106,
          "channel": 1
        },
        {
          "note": 36,
          "start": 172.701547,
          "duration": 0.079365,
          "velocity": 0.897638,
          "start_tick": 261125,
          "duration_ticks": 120,
          "channel": 1
        },
        {
          "note": 39,
          "start": 172.858954,
          "duration": 0.074735,
          "velocity": 0.929134,
          "start_tick": 261363,
          "duration_ticks": 113,
          "channel": 1
        },
        {
          "note": 39,
          "start": 173.0157,
          "duration": 0.080688,
          "velocity": 0.84252,
          "start_tick": 261600,
          "duration_ticks": 122,
          "channel": 1
        },
        {
          "note": 39,
          "start": 173.173107,
          "duration": 0.081349,
          "velocity": 0.787402,
          "start_tick": 261838,
          "duration_ticks": 123,
          "channel": 1
        },
        {
          "note": 39,
          "start": 173.330514,
          "duration": 0.08201,
          "velocity": 0.80315,
          "start_tick": 262076,
          "duration_ticks": 124,
          "channel": 1
        },
        {
          "note": 39,
          "start": 173.48726,
          "duration": 0.088624,
          "velocity": 0.80315,
          "start_tick": 262313,
          "duration_ticks": 134,
          "channel": 1
        },
        {
          "note": 39,
          "start": 173.644668,
          "duration": 0.081349,
          "velocity": 0.716535,
          "start_tick": 262551,
          "duration_ticks": 123,
          "channel": 1
        },
        {
          "note": 39,
          "start": 173.802075,
          "duration": 0.074074,
          "velocity": 0.826772,
          "start_tick": 262789,
          "duration_ticks": 112,
          "channel": 1
        },
        {
          "note": 39,
          "start": 173.959482,
          "duration": 0.072751,
          "velocity": 0.80315,
          "start_tick": 263027,
          "duration_ticks": 110,
          "channel": 1
        },
        {
          "note": 39,
          "start": 174.116228,
          "duration": 0.077381,
          "velocity": 0.748031,
          "start_tick": 263264,
          "duration_ticks": 117,
          "channel": 1
        },
        {
          "note": 39,
          "start": 174.273635,
          "duration": 0.070106,
          "velocity": 0.80315,
          "start_tick": 263502,
          "duration_ticks": 106,
          "channel": 1
        },
        {
          "note": 39,
          "start": 174.431042,
          "duration": 0.071429,
          "velocity": 0.826772,
          "start_tick": 263740,
          "duration_ticks": 108,
          "channel": 1
        },
        {
          "note": 39,
          "start": 174.58845,
          "duration": 0.076058,
          "velocity": 0.826772,
          "start_tick": 263978,
          "duration_ticks": 115,
          "channel": 1
        },
        {
          "note": 39,
          "start": 174.745196,
          "duration": 0.078704,
          "velocity": 0.76378,
          "start_tick": 264215,
          "duration_ticks": 119,
          "channel": 1
        },
        {
          "note": 39,
          "start": 174.902603,
          "duration": 0.075397,
          "velocity": 0.787402,
          "start_tick": 264453,
          "duration_ticks": 114,
          "channel": 1
        },
        {
          "note": 39,
          "start": 175.06001,
          "duration": 0.068122,
          "velocity": 0.76378,
          "start_tick": 264691,
          "duration_ticks": 103,
          "channel": 1
        },
        {
          "note": 39,
          "start": 175.216756,
          "duration": 0.083995,
          "velocity": 0.80315,
          "start_tick": 264928,
          "duration_ticks": 127,
          "channel": 1
        },
        {
          "note": 43,
          "start": 175.374163,
          "duration": 0.08664,
          "velocity": 0.968504,
          "start_tick": 265166,
          "duration_ticks": 131,
          "channel": 1
        },
        {
          "note": 43,
          "start": 175.53157,
          "duration": 0.081349,
          "velocity": 0.905512,
          "start_tick": 265404,
          "duration_ticks": 123,
          "channel": 1
        },
        {
          "note": 43,
          "start": 175.688978,
          "duration": 0.080688,
          "velocity": 0.897638,
          "start_tick": 265642,
          "duration_ticks": 122,
          "channel": 1
        },
        {
          "note": 43,
          "start": 175.845724,
          "duration": 0.082672,
          "velocity": 0.795276,
          "start_tick": 265879,
          "duration_ticks": 125,
          "channel": 1
        },
        {
          "note": 43,
          "start": 176.003131,
          "duration": 0.082672,
          "velocity": 0.84252,
          "start_tick": 266117,
          "duration_ticks": 125,
          "channel": 1
        },
        {
          "note": 43,
          "start": 176.160538,
          "duration": 0.083333,
          "velocity": 0.88189,
          "start_tick": 266355,
          "duration_ticks": 126,
          "channel": 1
        },
        {
          "note": 43,
          "start": 176.317945,
          "duration": 0.078042,
          "velocity": 0.84252,
          "start_tick": 266593,
          "duration_ticks": 118,
          "channel": 1
        },
        {
          "note": 43,
          "start": 176.474691,
          "duration": 0.076058,
          "velocity": 0.874016,
          "start_tick": 266830,
          "duration_ticks": 115,
          "channel": 1
        },
        {
          "note": 43,
          "start": 176.632099,
          "duration": 0.078042,
          "velocity": 0.874016,
          "start_tick": 267068,
          "duration_ticks": 118,
          "channel": 1
        },
        {
          "note": 43,
          "start": 176.789506,
          "duration": 0.083333,
          "velocity": 0.834646,
          "start_tick": 267306,
          "duration_ticks": 126,
          "channel": 1
        },
        {
          "note": 43,
          "start": 176.946252,
          "duration": 0.076719,
          "velocity": 0.834646,
          "start_tick": 267543,
          "duration_ticks": 116,
          "channel": 1
        },
        {
          "note": 43,
          "start": 177.103659,
          "duration": 0.081349,
          "velocity": 0.834646,
          "start_tick": 267781,
          "duration_ticks": 123,
          "channel": 1
        },
        {
          "note": 43,
          "start": 177.261066,
          "duration": 0.087963,
          "velocity": 0.779528,
          "start_tick": 268019,
          "duration_ticks": 133,
          "channel": 1
        },
        {
          "note": 43,
          "start": 177.418473,
          "duration": 0.080026,
          "velocity": 0.80315,
          "start_tick": 268257,
          "duration_ticks": 121,
          "channel": 1
        },
        {
          "note": 43,
          "start": 177.575219,
          "duration": 0.077381,
          "velocity": 0.755906,
          "start_tick": 268494,
          "duration_ticks": 117,
          "channel": 1
        },
        {
          "note": 43,
          "start": 177.732627,
          "duration": 0.08664,
          "velocity": 0.84252,
          "start_tick": 268732,
          "duration_ticks": 131,
          "channel": 1
        },
        {
          "note": 41,
          "start": 177.890034,
          "duration": 0.068783,
          "velocity": 0.968504,
          "start_tick": 268970,
          "duration_ticks": 104,
          "channel": 1
        },
        {
          "note": 41,
          "start": 178.047441,
          "duration": 0.087963,
          "velocity": 0.850394,
          "start_tick": 269208,
          "duration_ticks": 133,
          "channel": 1
        },
        {
          "note": 41,
          "start": 178.204187,
          "duration": 0.085979,
          "velocity": 0.866142,
          "start_tick": 269445,
          "duration_ticks": 130,
          "channel": 1
        },
        {
          "note": 41,
          "start": 178.361594,
          "duration": 0.08201,
          "velocity": 0.834646,
          "start_tick": 269683,
          "duration_ticks": 124,
          "channel": 1
        },
        {
          "note": 41,
          "start": 178.519001,
          "duration": 0.093254,
          "velocity": 0.84252,
          "start_tick": 269921,
          "duration_ticks": 141,
          "channel": 1
        },
        {
          "note": 41,
          "start": 178.675747,
          "duration": 0.084656,
          "velocity": 0.76378,
          "start_tick": 270158,
          "duration_ticks": 128,
          "channel": 1
        },
        {
          "note": 41,
          "start": 178.833155,
          "duration": 0.073413,
          "velocity": 0.874016,
          "start_tick": 270396,
          "duration_ticks": 111,
          "channel": 1
        },
        {
          "note": 41,
          "start": 178.990562,
          "duration": 0.076058,
          "velocity": 0.84252,
          "start_tick": 270634,
          "duration_ticks": 115,
          "channel": 1
        },
        {
          "note": 41,
          "start": 179.147969,
          "duration": 0.083333,
          "velocity": 0.826772,
          "start_tick": 270872,
          "duration_ticks": 126,
          "channel": 1
        },
        {
          "note": 41,
          "start": 179.304715,
          "duration": 0.074074,
          "velocity": 0.740157,
          "start_tick": 271109,
          "duration_ticks": 112,
          "channel": 1
        },
        {
          "note": 41,
          "start": 179.462122,
          "duration": 0.068122,
          "velocity": 0.866142,
          "start_tick": 271347,
          "duration_ticks": 103,
          "channel": 1
        },
        {
          "note": 41,
          "start": 179.619529,
          "duration": 0.070106,
          "velocity": 0.897638,
          "start_tick": 271585,
          "duration_ticks": 106,
          "channel": 1
        },
        {
          "note": 41,
          "start": 179.776937,
          "duration": 0.074074,
          "velocity": 0.874016,
          "start_tick": 271823,
          "duration_ticks": 112,
          "channel": 1
        },
        {
          "note": 41,
          "start": 179.933683,
          "duration": 0.071428,
          "velocity": 0.874016,
          "start_tick": 272060,
          "duration_ticks": 108,
          "channel": 1
        },
        {
          "note": 41,
          "start": 180.09109,
          "duration": 0.068122,
          "velocity": 0.850394,
          "start_tick": 272298,
          "duration_ticks": 103,
          "channel": 1
        },
        {
          "note": 41,
          "start": 180.248497,
          "duration": 0.080026,
          "velocity": 0.834646,
          "start_tick": 272536,
          "duration_ticks": 121,
          "channel": 1
        },
        {
          "note": 32,
          "start": 180.405904,
          "duration": 0.069444,
          "velocity": 0.952756,
          "start_tick": 272774,
          "duration_ticks": 105,
          "channel": 1
        },
        {
          "note": 32,
          "start": 180.56265,
          "duration": 0.074074,
          "velocity": 0.787402,
          "start_tick": 273011,
          "duration_ticks": 112,
          "channel": 1
        },
        {
          "note": 32,
          "start": 180.720057,
          "duration": 0.07209,
          "velocity": 0.826772,
          "start_tick": 273249,
          "duration_ticks": 109,
          "channel": 1
        },
        {
          "note": 32,
          "start": 180.877465,
          "duration": 0.074074,
          "velocity": 0.787402,
          "start_tick": 273487,
          "duration_ticks": 112,
          "channel": 1
        },
        {
          "note": 32,
          "start": 181.034211,
          "duration": 0.077381,
          "velocity": 0.80315,
          "start_tick": 273724,
          "duration_ticks": 117,
          "channel": 1
        },
        {
          "note": 32,
          "start": 181.191618,
          "duration": 0.077381,
          "velocity": 0.84252,
          "start_tick": 273962,
          "duration_ticks": 117,
          "channel": 1
        },
        {
          "note": 32,
          "start": 181.349025,
          "duration": 0.076719,
          "velocity": 0.826772,
          "start_tick": 274200,
          "duration_ticks": 116,
          "channel": 1
        },
        {
          "note": 32,
          "start": 181.506432,
          "duration": 0.076058,
          "velocity": 0.84252,
          "start_tick": 274438,
          "duration_ticks": 115,
          "channel": 1
        },
        {
          "note": 32,
          "start": 181.663178,
          "duration": 0.085979,
          "velocity": 0.787402,
          "start_tick": 274675,
          "duration_ticks": 130,
          "channel": 1
        },
        {
          "note": 32,
          "start": 181.820585,
          "duration": 0.084656,
          "velocity": 0.677165,
          "start_tick": 274913,
          "duration_ticks": 128,
          "channel": 1
        },
        {
          "note": 32,
          "start": 181.977993,
          "duration": 0.077381,
          "velocity": 0.84252,
          "start_tick": 275151,
          "duration_ticks": 117,
          "channel": 1
        },
        {
          "note": 32,
          "start": 182.1354,
          "duration": 0.076719,
          "velocity": 0.826772,
          "start_tick": 275389,
          "duration_ticks": 116,
          "channel": 1
        },
        {
          "note": 32,
          "start": 182.292146,
          "duration": 0.080688,
          "velocity": 0.80315,
          "start_tick": 275626,
          "duration_ticks": 122,
          "channel": 1
        },
        {
          "note": 32,
          "start": 182.449553,
          "duration": 0.079365,
          "velocity": 0.716535,
          "start_tick": 275864,
          "duration_ticks": 120,
          "channel": 1
        },
        {
          "note": 32,
          "start": 182.60696,
          "duration": 0.071429,
          "velocity": 0.748031,
          "start_tick": 276102,
          "duration_ticks": 108,
          "channel": 1
        },
        {
          "note": 32,
          "start": 182.763706,
          "duration": 0.080688,
          "velocity": 0.826772,
          "start_tick": 276339,
          "duration_ticks": 122,
          "channel": 1
        },
        {
          "note": 39,
          "start": 182.921113,
          "duration": 0.071428,
          "velocity": 0.929134,
          "start_tick": 276577,
          "duration_ticks": 108,
          "channel": 1
        },
        {
          "note": 39,
          "start": 183.078521,
          "duration": 0.070767,
          "velocity": 0.866142,
          "start_tick": 276815,
          "duration_ticks": 107,
          "channel": 1
        },
        {
          "note": 39,
          "start": 183.235928,
          "duration": 0.071429,
          "velocity": 0.80315,
          "start_tick": 277053,
          "duration_ticks": 108,
          "channel": 1
        },
        {
          "note": 39,
          "start": 183.392674,
          "duration": 0.064815,
          "velocity": 0.787402,
          "start_tick": 277290,
          "duration_ticks": 98,
          "channel": 1
        },
        {
          "note": 39,
          "start": 183.550081,
          "duration": 0.072751,
          "velocity": 0.826772,
          "start_tick": 277528,
          "duration_ticks": 110,
          "channel": 1
        },
        {
          "note": 39,
          "start": 183.707488,
          "duration": 0.07209,
          "velocity": 0.748031,
          "start_tick": 277766,
          "duration_ticks": 109,
          "channel": 1
        },
        {
          "note": 39,
          "start": 183.864895,
          "duration": 0.07672,
          "velocity": 0.716535,
          "start_tick": 278004,
          "duration_ticks": 116,
          "channel": 1
        },
        {
          "note": 39,
          "start": 184.021641,
          "duration": 0.07209,
          "velocity": 0.732283,
          "start_tick": 278241,
          "duration_ticks": 109,
          "channel": 1
        },
        {
          "note": 39,
          "start": 184.179049,
          "duration": 0.073413,
          "velocity": 0.76378,
          "start_tick": 278479,
          "duration_ticks": 111,
          "channel": 1
        },
        {
          "note": 39,
          "start": 184.336456,
          "duration": 0.078704,
          "velocity": 0.692913,
          "start_tick": 278717,
          "duration_ticks": 119,
          "channel": 1
        },
        {
          "note": 39,
          "start": 184.493202,
          "duration": 0.080026,
          "velocity": 0.629921,
          "start_tick": 278954,
          "duration_ticks": 121,
          "channel": 1
        },
        {
          "note": 39,
          "start": 184.650609,
          "duration": 0.083333,
          "velocity": 0.637795,
          "start_tick": 279192,
          "duration_ticks": 126,
          "channel": 1
        },
        {
          "note": 39,
          "start": 184.808016,
          "duration": 0.074735,
          "velocity": 0.669291,
          "start_tick": 279430,
          "duration_ticks": 113,
          "channel": 1
        },
        {
          "note": 39,
          "start": 184.965424,
          "duration": 0.077381,
          "velocity": 0.677165,
          "start_tick": 279668,
          "duration_ticks": 117,
          "channel": 1
        },
        {
          "note": 39,
          "start": 185.123492,
          "duration": 0.080688,
          "velocity": 0.598425,
          "start_tick": 279907,
          "duration_ticks": 122,
          "channel": 1
        },
        {
          "note": 39,
          "start": 185.282883,
          "duration": 0.076058,
          "velocity": 0.629921,
          "start_tick": 280148,
          "duration_ticks": 115,
          "channel": 1
        },
        {
          "note": 43,
          "start": 185.442936,
          "duration": 0.090608,
          "velocity": 0.905512,
          "start_tick": 280390,
          "duration_ticks": 137,
          "channel": 1
        },
        {
          "note": 43,
          "start": 185.602328,
          "duration": 0.091931,
          "velocity": 0.80315,
          "start_tick": 280631,
          "duration_ticks": 139,
          "channel": 1
        },
        {
          "note": 43,
          "start": 185.761719,
          "duration": 0.089286,
          "velocity": 0.716535,
          "start_tick": 280872,
          "duration_ticks": 135,
          "channel": 1
        },
        {
          "note": 43,
          "start": 185.921772,
          "duration": 0.106481,
          "velocity": 0.76378,
          "start_tick": 281114,
          "duration_ticks": 161,
          "channel": 1
        },
        {
          "note": 43,
          "start": 186.081163,
          "duration": 0.088624,
          "velocity": 0.598425,
          "start_tick": 281355,
          "duration_ticks": 134,
          "channel": 1
        },
        {
          "note": 43,
          "start": 186.240555,
          "duration": 0.078704,
          "velocity": 0.811024,
          "start_tick": 281596,
          "duration_ticks": 119,
          "channel": 1
        },
        {
          "note": 43,
          "start": 186.399946,
          "duration": 0.083995,
          "velocity": 0.80315,
          "start_tick": 281837,
          "duration_ticks": 127,
          "channel": 1
        },
        {
          "note": 43,
          "start": 186.559999,
          "duration": 0.080688,
          "velocity": 0.787402,
          "start_tick": 282079,
          "duration_ticks": 122,
          "channel": 1
        },
        {
          "note": 43,
          "start": 186.71939,
          "duration": 0.08201,
          "velocity": 0.80315,
          "start_tick": 282320,
          "duration_ticks": 124,
          "channel": 1
        },
        {
          "note": 43,
          "start": 186.878781,
          "duration": 0.08664,
          "velocity": 0.826772,
          "start_tick": 282561,
          "duration_ticks": 131,
          "channel": 1
        },
        {
          "note": 43,
          "start": 187.038834,
          "duration": 0.098545,
          "velocity": 0.732283,
          "start_tick": 282803,
          "duration_ticks": 149,
          "channel": 1
        },
        {
          "note": 43,
          "start": 187.198226,
          "duration": 0.089286,
          "velocity": 0.700787,
          "start_tick": 283044,
          "duration_ticks": 135,
          "channel": 1
        },
        {
          "note": 43,
          "start": 187.357617,
          "duration": 0.08664,
          "velocity": 0.740157,
          "start_tick": 283285,
          "duration_ticks": 131,
          "channel": 1
        },
        {
          "note": 43,
          "start": 187.517008,
          "duration": 0.087301,
          "velocity": 0.755906,
          "start_tick": 283526,
          "duration_ticks": 132,
          "channel": 1
        },
        {
          "note": 43,
          "start": 187.677061,
          "duration": 0.085317,
          "velocity": 0.795276,
          "start_tick": 283768,
          "duration_ticks": 129,
          "channel": 1
        },
        {
          "note": 43,
          "start": 187.836452,
          "duration": 0.085317,
          "velocity": 0.826772,
          "start_tick": 284009,
          "duration_ticks": 129,
          "channel": 1
        },
        {
          "note": 41,
          "start": 187.995844,
          "duration": 0.08664,
          "velocity": 0.905512,
          "start_tick": 284250,
          "duration_ticks": 131,
          "channel": 1
        },
        {
          "note": 41,
          "start": 188.155897,
          "duration": 0.101852,
          "velocity": 0.700787,
          "start_tick": 284492,
          "duration_ticks": 154,
          "channel": 1
        },
        {
          "note": 41,
          "start": 188.315288,
          "duration": 0.097222,
          "velocity": 0.692913,
          "start_tick": 284733,
          "duration_ticks": 147,
          "channel": 1
        },
        {
          "note": 41,
          "start": 188.474679,
          "duration": 0.090608,
          "velocity": 0.732283,
          "start_tick": 284974,
          "duration_ticks": 137,
          "channel": 1
        },
        {
          "note": 41,
          "start": 188.634071,
          "duration": 0.082672,
          "velocity": 0.80315,
          "start_tick": 285215,
          "duration_ticks": 125,
          "channel": 1
        },
        {
          "note": 41,
          "start": 188.794123,
          "duration": 0.087301,
          "velocity": 0.76378,
          "start_tick": 285457,
          "duration_ticks": 132,
          "channel": 1
        },
        {
          "note": 41,
          "start": 188.953515,
          "duration": 0.062169,
          "velocity": 0.700787,
          "start_tick": 285698,
          "duration_ticks": 94,
          "channel": 1
        },
        {
          "note": 41,
          "start": 189.112906,
          "duration": 0.078042,
          "velocity": 0.874016,
          "start_tick": 285939,
          "duration_ticks": 118,
          "channel": 1
        },
        {
          "note": 41,
          "start": 189.272959,
          "duration": 0.096561,
          "velocity": 0.716535,
          "start_tick": 286181,
          "duration_ticks": 146,
          "channel": 1
        },
        {
          "note": 41,
          "start": 189.43235,
          "duration": 0.089286,
          "velocity": 0.645669,
          "start_tick": 286422,
          "duration_ticks": 135,
          "channel": 1
        },
        {
          "note": 41,
          "start": 189.591742,
          "duration": 0.074074,
          "velocity": 0.779528,
          "start_tick": 286663,
          "duration_ticks": 112,
          "channel": 1
        },
        {
          "note": 41,
          "start": 189.751133,
          "duration": 0.08664,
          "velocity": 0.874016,
          "start_tick": 286904,
          "duration_ticks": 131,
          "channel": 1
        },
        {
          "note": 41,
          "start": 189.911186,
          "duration": 0.083995,
          "velocity": 0.622047,
          "start_tick": 287146,
          "duration_ticks": 127,
          "channel": 1
        },
        {
          "note": 41,
          "start": 190.070577,
          "duration": 0.087963,
          "velocity": 0.80315,
          "start_tick": 287387,
          "duration_ticks": 133,
          "channel": 1
        },
        {
          "note": 41,
          "start": 190.229969,
          "duration": 0.076719,
          "velocity": 0.716535,
          "start_tick": 287628,
          "duration_ticks": 116,
          "channel": 1
        },
        {
          "note": 41,
          "start": 190.390021,
          "duration": 0.077381,
          "velocity": 0.874016,
          "start_tick": 287870,
          "duration_ticks": 117,
          "channel": 1
        },
        {
          "note": 36,
          "start": 190.549413,
          "duration": 0.075397,
          "velocity": 1.0,
          "start_tick": 288111,
          "duration_ticks": 114,
          "channel": 1
        },
        {
          "note": 36,
          "start": 190.708804,
          "duration": 0.077381,
          "velocity": 0.866142,
          "start_tick": 288352,
          "duration_ticks": 117,
          "channel": 1
        },
        {
          "note": 36,
          "start": 190.868195,
          "duration": 0.078042,
          "velocity": 0.88189,
          "start_tick": 288593,
          "duration_ticks": 118,
          "channel": 1
        },
        {
          "note": 36,
          "start": 191.028248,
          "duration": 0.079365,
          "velocity": 0.866142,
          "start_tick": 288835,
          "duration_ticks": 120,
          "channel": 1
        },
        {
          "note": 36,
          "start": 191.187639,
          "duration": 0.080688,
          "velocity": 0.874016,
          "start_tick": 289076,
          "duration_ticks": 122,
          "channel": 1
        },
        {
          "note": 36,
          "start": 191.347031,
          "duration": 0.080688,
          "velocity": 0.92126,
          "start_tick": 289317,
          "duration_ticks": 122,
          "channel": 1
        },
        {
          "note": 36,
          "start": 191.506422,
          "duration": 0.078704,
          "velocity": 0.897638,
          "start_tick": 289558,
          "duration_ticks": 119,
          "channel": 1
        },
        {
          "note": 36,
          "start": 191.666475,
          "duration": 0.078704,
          "velocity": 0.897638,
          "start_tick": 289800,
          "duration_ticks": 119,
          "channel": 1
        },
        {
          "note": 36,
          "start": 191.825866,
          "duration": 0.080026,
          "velocity": 0.905512,
          "start_tick": 290041,
          "duration_ticks": 121,
          "channel": 1
        },
        {
          "note": 36,
          "start": 191.985258,
          "duration": 0.076058,
          "velocity": 0.905512,
          "start_tick": 290282,
          "duration_ticks": 115,
          "channel": 1
        },
        {
          "note": 36,
          "start": 192.14531,
          "duration": 0.073413,
          "velocity": 0.874016,
          "start_tick": 290524,
          "duration_ticks": 111,
          "channel": 1
        },
        {
          "note": 36,
          "start": 192.304702,
          "duration": 0.068783,
          "velocity": 0.937008,
          "start_tick": 290765,
          "duration_ticks": 104,
          "channel": 1
        },
        {
          "note": 36,
          "start": 192.464093,
          "duration": 0.076058,
          "velocity": 0.968504,
          "start_tick": 291006,
          "duration_ticks": 115,
          "channel": 1
        },
        {
          "note": 36,
          "start": 192.623485,
          "duration": 0.073413,
          "velocity": 0.897638,
          "start_tick": 291247,
          "duration_ticks": 111,
          "channel": 1
        },
        {
          "note": 36,
          "start": 192.783537,
          "duration": 0.070767,
          "velocity": 0.92126,
          "start_tick": 291489,
          "duration_ticks": 107,
          "channel": 1
        },
        {
          "note": 36,
          "start": 192.942929,
          "duration": 0.080688,
          "velocity": 0.897638,
          "start_tick": 291730,
          "duration_ticks": 122,
          "channel": 1
        },
        {
          "note": 39,
          "start": 193.10232,
          "duration": 0.076719,
          "velocity": 0.929134,
          "start_tick": 291971,
          "duration_ticks": 116,
          "channel": 1
        },
        {
          "note": 39,
          "start": 193.262373,
          "duration": 0.081349,
          "velocity": 0.84252,
          "start_tick": 292213,
          "duration_ticks": 123,
          "channel": 1
        },
        {
          "note": 39,
          "start": 193.421764,
          "duration": 0.082672,
          "velocity": 0.787402,
          "start_tick": 292454,
          "duration_ticks": 125,
          "channel": 1
        },
        {
          "note": 39,
          "start": 193.581156,
          "duration": 0.083333,
          "velocity": 0.80315,
          "start_tick": 292695,
          "duration_ticks": 126,
          "channel": 1
        },
        {
          "note": 39,
          "start": 193.740547,
          "duration": 0.089947,
          "velocity": 0.80315,
          "start_tick": 292936,
          "duration_ticks": 136,
          "channel": 1
        },
        {
          "note": 39,
          "start": 193.9006,
          "duration": 0.08201,
          "velocity": 0.716535,
          "start_tick": 293178,
          "duration_ticks": 124,
          "channel": 1
        },
        {
          "note": 39,
          "start": 194.059991,
          "duration": 0.075397,
          "velocity": 0.826772,
          "start_tick": 293419,
          "duration_ticks": 114,
          "channel": 1
        },
        {
          "note": 39,
          "start": 194.219382,
          "duration": 0.074074,
          "velocity": 0.80315,
          "start_tick": 293660,
          "duration_ticks": 112,
          "channel": 1
        },
        {
          "note": 39,
          "start": 194.379435,
          "duration": 0.078042,
          "velocity": 0.748031,
          "start_tick": 293902,
          "duration_ticks": 118,
          "channel": 1
        },
        {
          "note": 39,
          "start": 194.538827,
          "duration": 0.070767,
          "velocity": 0.80315,
          "start_tick": 294143,
          "duration_ticks": 107,
          "channel": 1
        },
        {
          "note": 39,
          "start": 194.698218,
          "duration": 0.072751,
          "velocity": 0.826772,
          "start_tick": 294384,
          "duration_ticks": 110,
          "channel": 1
        },
        {
          "note": 39,
          "start": 194.857609,
          "duration": 0.078042,
          "velocity": 0.826772,
          "start_tick": 294625,
          "duration_ticks": 118,
          "channel": 1
        },
        {
          "note": 39,
          "start": 195.017662,
          "duration": 0.079365,
          "velocity": 0.76378,
          "start_tick": 294867,
          "duration_ticks": 120,
          "channel": 1
        },
        {
          "note": 39,
          "start": 195.177053,
          "duration": 0.076719,
          "velocity": 0.787402,
          "start_tick": 295108,
          "duration_ticks": 116,
          "channel": 1
        },
        {
          "note": 39,
          "start": 195.336445,
          "duration": 0.069444,
          "velocity": 0.76378,
          "start_tick": 295349,
          "duration_ticks": 105,
          "channel": 1
        },
        {
          "note": 39,
          "start": 195.496498,
          "duration": 0.084656,
          "velocity": 0.80315,
          "start_tick": 295591,
          "duration_ticks": 128,
          "channel": 1
        },
        {
          "note": 43,
          "start": 195.655889,
          "duration": 0.087963,
          "velocity": 0.968504,
          "start_tick": 295832,
          "duration_ticks": 133,
          "channel": 1
        },
        {
          "note": 43,
          "start": 195.81528,
          "duration": 0.082672,
          "velocity": 0.905512,
          "start_tick": 296073,
          "duration_ticks": 125,
          "channel": 1
        },
        {
          "note": 43,
          "start": 195.974672,
          "duration": 0.082672,
          "velocity": 0.897638,
          "start_tick": 296314,
          "duration_ticks": 125,
          "channel": 1
        },
        {
          "note": 43,
          "start": 196.134725,
          "duration": 0.083333,
          "velocity": 0.795276,
          "start_tick": 296556,
          "duration_ticks": 126,
          "channel": 1
        },
        {
          "note": 43,
          "start": 196.294116,
          "duration": 0.083995,
          "velocity": 0.84252,
          "start_tick": 296797,
          "duration_ticks": 127,
          "channel": 1
        },
        {
          "note": 43,
          "start": 196.453507,
          "duration": 0.084656,
          "velocity": 0.88189,
          "start_tick": 297038,
          "duration_ticks": 128,
          "channel": 1
        },
        {
          "note": 43,
          "start": 196.61356,
          "duration": 0.079365,
          "velocity": 0.84252,
          "start_tick": 297280,
          "duration_ticks": 120,
          "channel": 1
        },
        {
          "note": 43,
          "start": 196.772951,
          "duration": 0.076719,
          "velocity": 0.874016,
          "start_tick": 297521,
          "duration_ticks": 116,
          "channel": 1
        },
        {
          "note": 43,
          "start": 196.932343,
          "duration": 0.079365,
          "velocity": 0.874016,
          "start_tick": 297762,
          "duration_ticks": 120,
          "channel": 1
        },
        {
          "note": 43,
          "start": 197.091734,
          "duration": 0.084656,
          "velocity": 0.834646,
          "start_tick": 298003,
          "duration_ticks": 128,
          "channel": 1
        },
        {
          "note": 43,
          "start": 197.251787,
          "duration": 0.077381,
          "velocity": 0.834646,
          "start_tick": 298245,
          "duration_ticks": 117,
          "channel": 1
        },
        {
          "note": 43,
          "start": 197.411178,
          "duration": 0.082672,
          "velocity": 0.834646,
          "start_tick": 298486,
          "duration_ticks": 125,
          "channel": 1
        },
        {
          "note": 43,
          "start": 197.57057,
          "duration": 0.089286,
          "velocity": 0.779528,
          "start_tick": 298727,
          "duration_ticks": 135,
          "channel": 1
        },
        {
          "note": 43,
          "start": 197.730622,
          "duration": 0.080688,
          "velocity": 0.80315,
          "start_tick": 298969,
          "duration_ticks": 122,
          "channel": 1
        },
        {
          "note": 43,
          "start": 197.890014,
          "duration": 0.078042,
          "velocity": 0.755906,
          "start_tick": 299210,
          "duration_ticks": 118,
          "channel": 1
        },
        {
          "note": 43,
          "start": 198.049405,
          "duration": 0.087963,
          "velocity": 0.84252,
          "start_tick": 299451,
          "duration_ticks": 133,
          "channel": 1
        },
        {
          "note": 41,
          "start": 198.208797,
          "duration": 0.070106,
          "velocity": 0.968504,
          "start_tick": 299692,
          "duration_ticks": 106,
          "channel": 1
        },
        {
          "note": 41,
          "start": 198.368849,
          "duration": 0.089286,
          "velocity": 0.850394,
          "start_tick": 299934,
          "duration_ticks": 135,
          "channel": 1
        },
        {
          "note": 41,
          "start": 198.528241,
          "duration": 0.087301,
          "velocity": 0.866142,
          "start_tick": 300175,
          "duration_ticks": 132,
          "channel": 1
        },
        {
          "note": 41,
          "start": 198.687632,
          "duration": 0.083333,
          "velocity": 0.834646,
          "start_tick": 300416,
          "duration_ticks": 126,
          "channel": 1
        },
        {
          "note": 41,
          "start": 198.847685,
          "duration": 0.094577,
          "velocity": 0.84252,
          "start_tick": 300658,
          "duration_ticks": 143,
          "channel": 1
        },
        {
          "note": 41,
          "start": 199.007076,
          "duration": 0.085979,
          "velocity": 0.76378,
          "start_tick": 300899,
          "duration_ticks": 130,
          "channel": 1
        },
        {
          "note": 41,
          "start": 199.166468,
          "duration": 0.074735,
          "velocity": 0.874016,
          "start_tick": 301140,
          "duration_ticks": 113,
          "channel": 1
        },
        {
          "note": 41,
          "start": 199.325859,
          "duration": 0.077381,
          "velocity": 0.84252,
          "start_tick": 301381,
          "duration_ticks": 117,
          "channel": 1
        },
        {
          "note": 41,
          "start": 199.485912,
          "duration": 0.084656,
          "velocity": 0.826772,
          "start_tick": 301623,
          "duration_ticks": 128,
          "channel": 1
        },
        {
          "note": 41,
          "start": 199.645303,
          "duration": 0.075397,
          "velocity": 0.740157,
          "start_tick": 301864,
          "duration_ticks": 114,
          "channel": 1
        },
        {
          "note": 41,
          "start": 199.804694,
          "duration": 0.069444,
          "velocity": 0.866142,
          "start_tick": 302105,
          "duration_ticks": 105,
          "channel": 1
        },
        {
          "note": 41,
          "start": 199.964747,
          "duration": 0.070767,
          "velocity": 0.897638,
          "start_tick": 302347,
          "duration_ticks": 107,
          "channel": 1
        },
        {
          "note": 41,
          "start": 200.124138,
          "duration": 0.074735,
          "velocity": 0.874016,
          "start_tick": 302588,
          "duration_ticks": 113,
          "channel": 1
        },
        {
          "note": 41,
          "start": 200.28353,
          "duration": 0.072751,
          "velocity": 0.874016,
          "start_tick": 302829,
          "duration_ticks": 110,
          "channel": 1
        },
        {
          "note": 41,
          "start": 200.442921,
          "duration": 0.069444,
          "velocity": 0.850394,
          "start_tick": 303070,
          "duration_ticks": 105,
          "channel": 1
        },
        {
          "note": 41,
          "start": 200.602974,
          "duration": 0.080688,
          "velocity": 0.834646,
          "start_tick": 303312,
          "duration_ticks": 122,
          "channel": 1
        },
        {
          "note": 32,
          "start": 200.762365,
          "duration": 0.070106,
          "velocity": 0.952756,
          "start_tick": 303553,
          "duration_ticks": 106,
          "channel": 1
        },
        {
          "note": 32,
          "start": 200.921757,
          "duration": 0.075397,
          "velocity": 0.787402,
          "start_tick": 303794,
          "duration_ticks": 114,
          "channel": 1
        },
        {
          "note": 32,
          "start": 201.081148,
          "duration": 0.073413,
          "velocity": 0.826772,
          "start_tick": 304035,
          "duration_ticks": 111,
          "channel": 1
        },
        {
          "note": 32,
          "start": 201.241201,
          "duration": 0.074735,
          "velocity": 0.787402,
          "start_tick": 304277,
          "duration_ticks": 113,
          "channel": 1
        },
        {
          "note": 32,
          "start": 201.400592,
          "duration": 0.078704,
          "velocity": 0.80315,
          "start_tick": 304518,
          "duration_ticks": 119,
          "channel": 1
        },
        {
          "note": 32,
          "start": 201.559984,
          "duration": 0.078704,
          "velocity": 0.84252,
          "start_tick": 304759,
          "duration_ticks": 119,
          "channel": 1
        },
        {
          "note": 32,
          "start": 201.720036,
          "duration": 0.077381,
          "velocity": 0.826772,
          "start_tick": 305001,
          "duration_ticks": 117,
          "channel": 1
        },
        {
          "note": 32,
          "start": 201.879428,
          "duration": 0.077381,
          "velocity": 0.84252,
          "start_tick": 305242,
          "duration_ticks": 117,
          "channel": 1
        },
        {
          "note": 32,
          "start": 202.038819,
          "duration": 0.087301,
          "velocity": 0.787402,
          "start_tick": 305483,
          "duration_ticks": 132,
          "channel": 1
        },
        {
          "note": 32,
          "start": 202.19821,
          "duration": 0.085979,
          "velocity": 0.677165,
          "start_tick": 305724,
          "duration_ticks": 130,
          "channel": 1
        },
        {
          "note": 32,
          "start": 202.358263,
          "duration": 0.078042,
          "velocity": 0.84252,
          "start_tick": 305966,
          "duration_ticks": 118,
          "channel": 1
        },
        {
          "note": 32,
          "start": 202.517655,
          "duration": 0.078704,
          "velocity": 0.826772,
          "start_tick": 306207,
          "duration_ticks": 119,
          "channel": 1
        },
        {
          "note": 32,
          "start": 202.677046,
          "duration": 0.082011,
          "velocity": 0.80315,
          "start_tick": 306448,
          "duration_ticks": 124,
          "channel": 1
        },
        {
          "note": 32,
          "start": 202.837099,
          "duration": 0.080026,
          "velocity": 0.716535,
          "start_tick": 306690,
          "duration_ticks": 121,
          "channel": 1
        },
        {
          "note": 32,
          "start": 202.99649,
          "duration": 0.07209,
          "velocity": 0.748031,
          "start_tick": 306931,
          "duration_ticks": 109,
          "channel": 1
        },
        {
          "note": 32,
          "start": 203.155881,
          "duration": 0.08201,
          "velocity": 0.826772,
          "start_tick": 307172,
          "duration_ticks": 124,
          "channel": 1
        },
        {
          "note": 39,
          "start": 203.315273,
          "duration": 0.072751,
          "velocity": 0.929134,
          "start_tick": 307413,
          "duration_ticks": 110,
          "channel": 1
        },
        {
          "note": 39,
          "start": 203.475326,
          "duration": 0.071428,
          "velocity": 0.866142,
          "start_tick": 307655,
          "duration_ticks": 108,
          "channel": 1
        },
        {
          "note": 39,
          "start": 203.634717,
          "duration": 0.072751,
          "velocity": 0.80315,
          "start_tick": 307896,
          "duration_ticks": 110,
          "channel": 1
        },
        {
          "note": 39,
          "start": 203.794108,
          "duration": 0.066137,
          "velocity": 0.787402,
          "start_tick": 308137,
          "duration_ticks": 100,
          "channel": 1
        },
        {
          "note": 39,
          "start": 203.954161,
          "duration": 0.073413,
          "velocity": 0.826772,
          "start_tick": 308379,
          "duration_ticks": 111,
          "channel": 1
        },
        {
          "note": 39,
          "start": 204.113552,
          "duration": 0.072751,
          "velocity": 0.748031,
          "start_tick": 308620,
          "duration_ticks": 110,
          "channel": 1
        },
        {
          "note": 39,
          "start": 204.272944,
          "duration": 0.078704,
          "velocity": 0.716535,
          "start_tick": 308861,
          "duration_ticks": 119,
          "channel": 1
        },
        {
          "note": 39,
          "start": 204.432335,
          "duration": 0.073413,
          "velocity": 0.732283,
          "start_tick": 309102,
          "duration_ticks": 111,
          "channel": 1
        },
        {
          "note": 39,
          "start": 204.592388,
          "duration": 0.074074,
          "velocity": 0.76378,
          "start_tick": 309344,
          "duration_ticks": 112,
          "channel": 1
        },
        {
          "note": 39,
          "start": 204.751779,
          "duration": 0.080026,
          "velocity": 0.692913,
          "start_tick": 309585,
          "duration_ticks": 121,
          "channel": 1
        },
        {
          "note": 39,
          "start": 204.911171,
          "duration": 0.081349,
          "velocity": 0.629921,
          "start_tick": 309826,
          "duration_ticks": 123,
          "channel": 1
        },
        {
          "note": 39,
          "start": 205.071224,
          "duration": 0.083995,
          "velocity": 0.637795,
          "start_tick": 310068,
          "duration_ticks": 127,
          "channel": 1
        },
        {
          "note": 39,
          "start": 205.229292,
          "duration": 0.074735,
          "velocity": 0.669291,
          "start_tick": 310307,
          "duration_ticks": 113,
          "channel": 1
        },
        {
          "note": 39,
          "start": 205.386038,
          "duration": 0.077381,
          "velocity": 0.677165,
          "start_tick": 310544,
          "duration_ticks": 117,
          "channel": 1
        },
        {
          "note": 39,
          "start": 205.543445,
          "duration": 0.078704,
          "velocity": 0.598425,
          "start_tick": 310782,
          "duration_ticks": 119,
          "channel": 1
        },
        {
          "note": 39,
          "start": 205.700191,
          "duration": 0.074735,
          "velocity": 0.629921,
          "start_tick": 311019,
          "duration_ticks": 113,
          "channel": 1
        },
        {
          "note": 43,
          "start": 205.856937,
          "duration": 0.089947,
          "velocity": 0.905512,
          "start_tick": 311256,
          "duration_ticks": 136,
          "channel": 1
        },
        {
          "note": 43,
          "start": 206.014344,
          "duration": 0.089947,
          "velocity": 0.80315,
          "start_tick": 311494,
          "duration_ticks": 136,
          "channel": 1
        },
        {
          "note": 43,
          "start": 206.17109,
          "duration": 0.087963,
          "velocity": 0.716535,
          "start_tick": 311731,
          "duration_ticks": 133,
          "channel": 1
        },
        {
          "note": 43,
          "start": 206.328497,
          "duration": 0.105159,
          "velocity": 0.76378,
          "start_tick": 311969,
          "duration_ticks": 159,
          "channel": 1
        },
        {
          "note": 43,
          "start": 206.485243,
          "duration": 0.08664,
          "velocity": 0.598425,
          "start_tick": 312206,
          "duration_ticks": 131,
          "channel": 1
        },
        {
          "note": 43,
          "start": 206.641989,
          "duration": 0.077381,
          "velocity": 0.811024,
          "start_tick": 312443,
          "duration_ticks": 117,
          "channel": 1
        },
        {
          "note": 43,
          "start": 206.799396,
          "duration": 0.082011,
          "velocity": 0.80315,
          "start_tick": 312681,
          "duration_ticks": 124,
          "channel": 1
        },
        {
          "note": 43,
          "start": 206.956142,
          "duration": 0.080026,
          "velocity": 0.787402,
          "start_tick": 312918,
          "duration_ticks": 121,
          "channel": 1
        },
        {
          "note": 43,
          "start": 207.112888,
          "duration": 0.080688,
          "velocity": 0.80315,
          "start_tick": 313155,
          "duration_ticks": 122,
          "channel": 1
        },
        {
          "note": 43,
          "start": 207.270295,
          "duration": 0.084656,
          "velocity": 0.826772,
          "start_tick": 313393,
          "duration_ticks": 128,
          "channel": 1
        },
        {
          "note": 43,
          "start": 207.427041,
          "duration": 0.097883,
          "velocity": 0.732283,
          "start_tick": 313630,
          "duration_ticks": 148,
          "channel": 1
        },
        {
          "note": 43,
          "start": 207.584449,
          "duration": 0.087301,
          "velocity": 0.700787,
          "start_tick": 313868,
          "duration_ticks": 132,
          "channel": 1
        },
        {
          "note": 43,
          "start": 207.741194,
          "duration": 0.085317,
          "velocity": 0.740157,
          "start_tick": 314105,
          "duration_ticks": 129,
          "channel": 1
        },
        {
          "note": 43,
          "start": 207.89794,
          "duration": 0.085979,
          "velocity": 0.755906,
          "start_tick": 314342,
          "duration_ticks": 130,
          "channel": 1
        },
        {
          "note": 43,
          "start": 208.055348,
          "duration": 0.083995,
          "velocity": 0.795276,
          "start_tick": 314580,
          "duration_ticks": 127,
          "channel": 1
        },
        {
          "note": 43,
          "start": 208.212093,
          "duration": 0.083995,
          "velocity": 0.826772,
          "start_tick": 314817,
          "duration_ticks": 127,
          "channel": 1
        },
        {
          "note": 41,
          "start": 208.368839,
          "duration": 0.085317,
          "velocity": 0.905512,
          "start_tick": 315054,
          "duration_ticks": 129,
          "channel": 1
        },
        {
          "note": 41,
          "start": 208.526247,
          "duration": 0.100529,
          "velocity": 0.700787,
          "start_tick": 315292,
          "duration_ticks": 152,
          "channel": 1
        },
        {
          "note": 41,
          "start": 208.682992,
          "duration": 0.095899,
          "velocity": 0.692913,
          "start_tick": 315529,
          "duration_ticks": 145,
          "channel": 1
        },
        {
          "note": 41,
          "start": 208.8404,
          "duration": 0.088624,
          "velocity": 0.732283,
          "start_tick": 315767,
          "duration_ticks": 134,
          "channel": 1
        },
        {
          "note": 41,
          "start": 208.997145,
          "duration": 0.081349,
          "velocity": 0.80315,
          "start_tick": 316004,
          "duration_ticks": 123,
          "channel": 1
        },
        {
          "note": 41,
          "start": 209.153891,
          "duration": 0.08664,
          "velocity": 0.76378,
          "start_tick": 316241,
          "duration_ticks": 131,
          "channel": 1
        },
        {
          "note": 41,
          "start": 209.311299,
          "duration": 0.061508,
          "velocity": 0.700787,
          "start_tick": 316479,
          "duration_ticks": 93,
          "channel": 1
        },
        {
          "note": 41,
          "start": 209.468044,
          "duration": 0.076719,
          "velocity": 0.874016,
          "start_tick": 316716,
          "duration_ticks": 116,
          "channel": 1
        },
        {
          "note": 41,
          "start": 209.62479,
          "duration": 0.095899,
          "velocity": 0.716535,
          "start_tick": 316953,
          "duration_ticks": 145,
          "channel": 1
        },
        {
          "note": 41,
          "start": 209.782198,
          "duration": 0.087301,
          "velocity": 0.645669,
          "start_tick": 317191,
          "duration_ticks": 132,
          "channel": 1
        },
        {
          "note": 41,
          "start": 209.938943,
          "duration": 0.072751,
          "velocity": 0.779528,
          "start_tick": 317428,
          "duration_ticks": 110,
          "channel": 1
        },
        {
          "note": 41,
          "start": 210.096351,
          "duration": 0.084656,
          "velocity": 0.874016,
          "start_tick": 317666,
          "duration_ticks": 128,
          "channel": 1
        },
        {
          "note": 36,
          "start": 210.880741,
          "duration": 0.074735,
          "velocity": 1.0,
          "start_tick": 318852,
          "duration_ticks": 113,
          "channel": 1
        },
        {
          "note": 36,
          "start": 211.038149,
          "duration": 0.076058,
          "velocity": 0.866142,
          "start_tick": 319090,
          "duration_ticks": 115,
          "channel": 1
        },
        {
          "note": 36,
          "start": 211.194895,
          "duration": 0.07672,
          "velocity": 0.88189,
          "start_tick": 319327,
          "duration_ticks": 116,
          "channel": 1
        },
        {
          "note": 36,
          "start": 211.352302,
          "duration": 0.078042,
          "velocity": 0.866142,
          "start_tick": 319565,
          "duration_ticks": 118,
          "channel": 1
        },
        {
          "note": 36,
          "start": 211.509048,
          "duration": 0.079365,
          "velocity": 0.874016,
          "start_tick": 319802,
          "duration_ticks": 120,
          "channel": 1
        },
        {
          "note": 36,
          "start": 211.665794,
          "duration": 0.079365,
          "velocity": 0.92126,
          "start_tick": 320039,
          "duration_ticks": 120,
          "channel": 1
        },
        {
          "note": 36,
          "start": 211.823201,
          "duration": 0.076719,
          "velocity": 0.897638,
          "start_tick": 320277,
          "duration_ticks": 116,
          "channel": 1
        },
        {
          "note": 36,
          "start": 211.979947,
          "duration": 0.078042,
          "velocity": 0.897638,
          "start_tick": 320514,
          "duration_ticks": 118,
          "channel": 1
        },
        {
          "note": 36,
          "start": 212.136693,
          "duration": 0.078704,
          "velocity": 0.905512,
          "start_tick": 320751,
          "duration_ticks": 119,
          "channel": 1
        },
        {
          "note": 36,
          "start": 212.2941,
          "duration": 0.074735,
          "velocity": 0.905512,
          "start_tick": 320989,
          "duration_ticks": 113,
          "channel": 1
        },
        {
          "note": 36,
          "start": 212.450846,
          "duration": 0.072751,
          "velocity": 0.874016,
          "start_tick": 321226,
          "duration_ticks": 110,
          "channel": 1
        },
        {
          "note": 36,
          "start": 212.608253,
          "duration": 0.06746,
          "velocity": 0.937008,
          "start_tick": 321464,
          "duration_ticks": 102,
          "channel": 1
        },
        {
          "note": 36,
          "start": 212.764999,
          "duration": 0.074735,
          "velocity": 0.968504,
          "start_tick": 321701,
          "duration_ticks": 113,
          "channel": 1
        },
        {
          "note": 36,
          "start": 212.921745,
          "duration": 0.07209,
          "velocity": 0.897638,
          "start_tick": 321938,
          "duration_ticks": 109,
          "channel": 1
        },
        {
          "note": 36,
          "start": 213.079152,
          "duration": 0.070106,
          "velocity": 0.92126,
          "start_tick": 322176,
          "duration_ticks": 106,
          "channel": 1
        },
        {
          "note": 36,
          "start": 213.235898,
          "duration": 0.079365,
          "velocity": 0.897638,
          "start_tick": 322413,
          "duration_ticks": 120,
          "channel": 1
        },
        {
          "note": 39,
          "start": 213.393305,
          "duration": 0.074735,
          "velocity": 0.929134,
          "start_tick": 322651,
          "duration_ticks": 113,
          "channel": 1
        },
        {
          "note": 39,
          "start": 213.550051,
          "duration": 0.080688,
          "velocity": 0.84252,
          "start_tick": 322888,
          "duration_ticks": 122,
          "channel": 1
        },
        {
          "note": 39,
          "start": 213.706797,
          "duration": 0.081349,
          "velocity": 0.787402,
          "start_tick": 323125,
          "duration_ticks": 123,
          "channel": 1
        },
        {
          "note": 39,
          "start": 213.864204,
          "duration": 0.081349,
          "velocity": 0.80315,
          "start_tick": 323363,
          "duration_ticks": 123,
          "channel": 1
        },
        {
          "note": 39,
          "start": 214.02095,
          "duration": 0.088624,
          "velocity": 0.80315,
          "start_tick": 323600,
          "duration_ticks": 134,
          "channel": 1
        },
        {
          "note": 39,
          "start": 214.177696,
          "duration": 0.081349,
          "velocity": 0.716535,
          "start_tick": 323837,
          "duration_ticks": 123,
          "channel": 1
        },
        {
          "note": 39,
          "start": 214.335103,
          "duration": 0.074074,
          "velocity": 0.826772,
          "start_tick": 324075,
          "duration_ticks": 112,
          "channel": 1
        },
        {
          "note": 39,
          "start": 214.491849,
          "duration": 0.072751,
          "velocity": 0.80315,
          "start_tick": 324312,
          "duration_ticks": 110,
          "channel": 1
        },
        {
          "note": 39,
          "start": 214.649256,
          "duration": 0.076719,
          "velocity": 0.748031,
          "start_tick": 324550,
          "duration_ticks": 116,
          "channel": 1
        },
        {
          "note": 39,
          "start": 214.806002,
          "duration": 0.070106,
          "velocity": 0.80315,
          "start_tick": 324787,
          "duration_ticks": 106,
          "channel": 1
        },
        {
          "note": 39,
          "start": 214.962748,
          "duration": 0.071428,
          "velocity": 0.826772,
          "start_tick": 325024,
          "duration_ticks": 108,
          "channel": 1
        },
        {
          "note": 39,
          "start": 215.120155,
          "duration": 0.076058,
          "velocity": 0.826772,
          "start_tick": 325262,
          "duration_ticks": 115,
          "channel": 1
        },
        {
          "note": 39,
          "start": 215.276901,
          "duration": 0.078704,
          "velocity": 0.76378,
          "start_tick": 325499,
          "duration_ticks": 119,
          "channel": 1
        },
        {
          "note": 39,
          "start": 215.433647,
          "duration": 0.075397,
          "velocity": 0.787402,
          "start_tick": 325736,
          "duration_ticks": 114,
          "channel": 1
        },
        {
          "note": 39,
          "start": 215.591054,
          "duration": 0.068122,
          "velocity": 0.76378,
          "start_tick": 325974,
          "duration_ticks": 103,
          "channel": 1
        },
        {
          "note": 39,
          "start": 215.7478,
          "duration": 0.083995,
          "velocity": 0.80315,
          "start_tick": 326211,
          "duration_ticks": 127,
          "channel": 1
        },
        {
          "note": 43,
          "start": 215.905207,
          "duration": 0.085979,
          "velocity": 0.968504,
          "start_tick": 326449,
          "duration_ticks": 130,
          "channel": 1
        },
        {
          "note": 43,
          "start": 216.061953,
          "duration": 0.081349,
          "velocity": 0.905512,
          "start_tick": 326686,
          "duration_ticks": 123,
          "channel": 1
        },
        {
          "note": 43,
          "start": 216.218699,
          "duration": 0.081349,
          "velocity": 0.897638,
          "start_tick": 326923,
          "duration_ticks": 123,
          "channel": 1
        },
        {
          "note": 43,
          "start": 216.376106,
          "duration": 0.08201,
          "velocity": 0.795276,
          "start_tick": 327161,
          "duration_ticks": 124,
          "channel": 1
        },
        {
          "note": 43,
          "start": 216.532852,
          "duration": 0.082672,
          "velocity": 0.84252,
          "start_tick": 327398,
          "duration_ticks": 125,
          "channel": 1
        },
        {
          "note": 43,
          "start": 216.689598,
          "duration": 0.083333,
          "velocity": 0.88189,
          "start_tick": 327635,
          "duration_ticks": 126,
          "channel": 1
        },
        {
          "note": 43,
          "start": 216.847005,
          "duration": 0.078042,
          "velocity": 0.84252,
          "start_tick": 327873,
          "duration_ticks": 118,
          "channel": 1
        },
        {
          "note": 43,
          "start": 217.003751,
          "duration": 0.076058,
          "velocity": 0.874016,
          "start_tick": 328110,
          "duration_ticks": 115,
          "channel": 1
        },
        {
          "note": 43,
          "start": 217.161158,
          "duration": 0.077381,
          "velocity": 0.874016,
          "start_tick": 328348,
          "duration_ticks": 117,
          "channel": 1
        },
        {
          "note": 43,
          "start": 217.317904,
          "duration": 0.083333,
          "velocity": 0.834646,
          "start_tick": 328585,
          "duration_ticks": 126,
          "channel": 1
        },
        {
          "note": 43,
          "start": 217.47465,
          "duration": 0.076719,
          "velocity": 0.834646,
          "start_tick": 328822,
          "duration_ticks": 116,
          "channel": 1
        },
        {
          "note": 43,
          "start": 217.632058,
          "duration": 0.080688,
          "velocity": 0.834646,
          "start_tick": 329060,
          "duration_ticks": 122,
          "channel": 1
        },
        {
          "note": 43,
          "start": 217.788803,
          "duration": 0.087963,
          "velocity": 0.779528,
          "start_tick": 329297,
          "duration_ticks": 133,
          "channel": 1
        },
        {
          "note": 43,
          "start": 217.945549,
          "duration": 0.080026,
          "velocity": 0.80315,
          "start_tick": 329534,
          "duration_ticks": 121,
          "channel": 1
        },
        {
          "note": 43,
          "start": 218.102957,
          "duration": 0.077381,
          "velocity": 0.755906,
          "start_tick": 329772,
          "duration_ticks": 117,
          "channel": 1
        },
        {
          "note": 43,
          "start": 218.259702,
          "duration": 0.08664,
          "velocity": 0.84252,
          "start_tick": 330009,
          "duration_ticks": 131,
          "channel": 1
        },
        {
          "note": 41,
          "start": 218.41711,
          "duration": 0.068122,
          "velocity": 0.968504,
          "start_tick": 330247,
          "duration_ticks": 103,
          "channel": 1
        },
        {
          "note": 41,
          "start": 218.573856,
          "duration": 0.087963,
          "velocity": 0.850394,
          "start_tick": 330484,
          "duration_ticks": 133,
          "channel": 1
        },
        {
          "note": 41,
          "start": 218.730601,
          "duration": 0.085979,
          "velocity": 0.866142,
          "start_tick": 330721,
          "duration_ticks": 130,
          "channel": 1
        },
        {
          "note": 41,
          "start": 218.888009,
          "duration": 0.081349,
          "velocity": 0.834646,
          "start_tick": 330959,
          "duration_ticks": 123,
          "channel": 1
        },
        {
          "note": 41,
          "start": 219.044755,
          "duration": 0.093915,
          "velocity": 0.84252,
          "start_tick": 331196,
          "duration_ticks": 142,
          "channel": 1
        },
        {
          "note": 41,
          "start": 219.2015,
          "duration": 0.084656,
          "velocity": 0.76378,
          "start_tick": 331433,
          "duration_ticks": 128,
          "channel": 1
        },
        {
          "note": 41,
          "start": 219.358908,
          "duration": 0.073413,
          "velocity": 0.874016,
          "start_tick": 331671,
          "duration_ticks": 111,
          "channel": 1
        },
        {
          "note": 41,
          "start": 219.515654,
          "duration": 0.076058,
          "velocity": 0.84252,
          "start_tick": 331908,
          "duration_ticks": 115,
          "channel": 1
        },
        {
          "note": 41,
          "start": 219.673061,
          "duration": 0.083333,
          "velocity": 0.826772,
          "start_tick": 332146,
          "duration_ticks": 126,
          "channel": 1
        },
        {
          "note": 41,
          "start": 219.829807,
          "duration": 0.074074,
          "velocity": 0.740157,
          "start_tick": 332383,
          "duration_ticks": 112,
          "channel": 1
        },
        {
          "note": 41,
          "start": 219.986552,
          "duration": 0.068122,
          "velocity": 0.866142,
          "start_tick": 332620,
          "duration_ticks": 103,
          "channel": 1
        },
        {
          "note": 41,
          "start": 220.14396,
          "duration": 0.070106,
          "velocity": 0.897638,
          "start_tick": 332858,
          "duration_ticks": 106,
          "channel": 1
        },
        {
          "note": 41,
          "start": 220.300706,
          "duration": 0.074074,
          "velocity": 0.874016,
          "start_tick": 333095,
          "duration_ticks": 112,
          "channel": 1
        },
        {
          "note": 41,
          "start": 220.457451,
          "duration": 0.071428,
          "velocity": 0.874016,
          "start_tick": 333332,
          "duration_ticks": 108,
          "channel": 1
        },
        {
          "note": 41,
          "start": 220.614859,
          "duration": 0.068122,
          "velocity": 0.850394,
          "start_tick": 333570,
          "duration_ticks": 103,
          "channel": 1
        },
        {
          "note": 41,
          "start": 220.771605,
          "duration": 0.080026,
          "velocity": 0.834646,
          "start_tick": 333807,
          "duration_ticks": 121,
          "channel": 1
        },
        {
          "note": 32,
          "start": 220.929012,
          "duration": 0.068783,
          "velocity": 0.952756,
          "start_tick": 334045,
          "duration_ticks": 104,
          "channel": 1
        },
        {
          "note": 32,
          "start": 221.085758,
          "duration": 0.074074,
          "velocity": 0.787402,
          "start_tick": 334282,
          "duration_ticks": 112,
          "channel": 1
        },
        {
          "note": 32,
          "start": 221.242504,
          "duration": 0.07209,
          "velocity": 0.826772,
          "start_tick": 334519,
          "duration_ticks": 109,
          "channel": 1
        },
        {
          "note": 32,
          "start": 221.399911,
          "duration": 0.073413,
          "velocity": 0.787402,
          "start_tick": 334757,
          "duration_ticks": 111,
          "channel": 1
        },
        {
          "note": 32,
          "start": 221.556657,
          "duration": 0.077381,
          "velocity": 0.80315,
          "start_tick": 334994,
          "duration_ticks": 117,
          "channel": 1
        },
        {
          "note": 32,
          "start": 221.713403,
          "duration": 0.077381,
          "velocity": 0.84252,
          "start_tick": 335231,
          "duration_ticks": 117,
          "channel": 1
        },
        {
          "note": 32,
          "start": 221.87081,
          "duration": 0.076719,
          "velocity": 0.826772,
          "start_tick": 335469,
          "duration_ticks": 116,
          "channel": 1
        },
        {
          "note": 32,
          "start": 222.027556,
          "duration": 0.076058,
          "velocity": 0.84252,
          "start_tick": 335706,
          "duration_ticks": 115,
          "channel": 1
        },
        {
          "note": 32,
          "start": 222.184963,
          "duration": 0.085317,
          "velocity": 0.787402,
          "start_tick": 335944,
          "duration_ticks": 129,
          "channel": 1
        },
        {
          "note": 32,
          "start": 222.341709,
          "duration": 0.084656,
          "velocity": 0.677165,
          "start_tick": 336181,
          "duration_ticks": 128,
          "channel": 1
        },
        {
          "note": 32,
          "start": 222.498455,
          "duration": 0.077381,
          "velocity": 0.84252,
          "start_tick": 336418,
          "duration_ticks": 117,
          "channel": 1
        },
        {
          "note": 32,
          "start": 222.655862,
          "duration": 0.076719,
          "velocity": 0.826772,
          "start_tick": 336656,
          "duration_ticks": 116,
          "channel": 1
        },
        {
          "note": 32,
          "start": 222.812608,
          "duration": 0.080688,
          "velocity": 0.80315,
          "start_tick": 336893,
          "duration_ticks": 122,
          "channel": 1
        },
        {
          "note": 32,
          "start": 222.970015,
          "duration": 0.078704,
          "velocity": 0.716535,
          "start_tick": 337131,
          "duration_ticks": 119,
          "channel": 1
        },
        {
          "note": 32,
          "start": 223.126761,
          "duration": 0.071429,
          "velocity": 0.748031,
          "start_tick": 337368,
          "duration_ticks": 108,
          "channel": 1
        },
        {
          "note": 32,
          "start": 223.283507,
          "duration": 0.080688,
          "velocity": 0.826772,
          "start_tick": 337605,
          "duration_ticks": 122,
          "channel": 1
        },
        {
          "note": 39,
          "start": 223.440914,
          "duration": 0.070767,
          "velocity": 0.929134,
          "start_tick": 337843,
          "duration_ticks": 107,
          "channel": 1
        },
        {
          "note": 39,
          "start": 223.59766,
          "duration": 0.070767,
          "velocity": 0.866142,
          "start_tick": 338080,
          "duration_ticks": 107,
          "channel": 1
        },
        {
          "note": 39,
          "start": 223.754406,
          "duration": 0.071428,
          "velocity": 0.80315,
          "start_tick": 338317,
          "duration_ticks": 108,
          "channel": 1
        },
        {
          "note": 39,
          "start": 223.911813,
          "duration": 0.064815,
          "velocity": 0.787402,
          "start_tick": 338555,
          "duration_ticks": 98,
          "channel": 1
        },
        {
          "note": 39,
          "start": 224.068559,
          "duration": 0.072751,
          "velocity": 0.826772,
          "start_tick": 338792,
          "duration_ticks": 110,
          "channel": 1
        },
        {
          "note": 39,
          "start": 224.225966,
          "duration": 0.071428,
          "velocity": 0.748031,
          "start_tick": 339030,
          "duration_ticks": 108,
          "channel": 1
        },
        {
          "note": 39,
          "start": 224.382712,
          "duration": 0.077381,
          "velocity": 0.716535,
          "start_tick": 339267,
          "duration_ticks": 117,
          "channel": 1
        },
        {
          "note": 39,
          "start": 224.539458,
          "duration": 0.07209,
          "velocity": 0.732283,
          "start_tick": 339504,
          "duration_ticks": 109,
          "channel": 1
        },
        {
          "note": 39,
          "start": 224.696865,
          "duration": 0.072751,
          "velocity": 0.76378,
          "start_tick": 339742,
          "duration_ticks": 110,
          "channel": 1
        },
        {
          "note": 39,
          "start": 224.853611,
          "duration": 0.078704,
          "velocity": 0.692913,
          "start_tick": 339979,
          "duration_ticks": 119,
          "channel": 1
        },
        {
          "note": 39,
          "start": 225.01168,
          "duration": 0.080688,
          "velocity": 0.629921,
          "start_tick": 340218,
          "duration_ticks": 122,
          "channel": 1
        },
        {
          "note": 39,
          "start": 225.17041,
          "duration": 0.084656,
          "velocity": 0.637795,
          "start_tick": 340458,
          "duration_ticks": 128,
          "channel": 1
        },
        {
          "note": 39,
          "start": 225.329801,
          "duration": 0.075397,
          "velocity": 0.669291,
          "start_tick": 340699,
          "duration_ticks": 114,
          "channel": 1
        },
        {
          "note": 39,
          "start": 225.488531,
          "duration": 0.078042,
          "velocity": 0.677165,
          "start_tick": 340939,
          "duration_ticks": 118,
          "channel": 1
        },
        {
          "note": 39,
          "start": 225.647922,
          "duration": 0.080026,
          "velocity": 0.598425,
          "start_tick": 341180,
          "duration_ticks": 121,
          "channel": 1
        },
        {
          "note": 39,
          "start": 225.806653,
          "duration": 0.075397,
          "velocity": 0.629921,
          "start_tick": 341420,
          "duration_ticks": 114,
          "channel": 1
        },
        {
          "note": 43,
          "start": 225.966044,
          "duration": 0.090608,
          "velocity": 0.905512,
          "start_tick": 341661,
          "duration_ticks": 137,
          "channel": 1
        },
        {
          "note": 43,
          "start": 226.124774,
          "duration": 0.09127,
          "velocity": 0.80315,
          "start_tick": 341901,
          "duration_ticks": 138,
          "channel": 1
        },
        {
          "note": 43,
          "start": 226.283504,
          "duration": 0.089286,
          "velocity": 0.716535,
          "start_tick": 342141,
          "duration_ticks": 135,
          "channel": 1
        },
        {
          "note": 43,
          "start": 226.442895,
          "duration": 0.106481,
          "velocity": 0.76378,
          "start_tick": 342382,
          "duration_ticks": 161,
          "channel": 1
        },
        {
          "note": 43,
          "start": 226.601625,
          "duration": 0.088624,
          "velocity": 0.598425,
          "start_tick": 342622,
          "duration_ticks": 134,
          "channel": 1
        },
        {
          "note": 43,
          "start": 226.761017,
          "duration": 0.078042,
          "velocity": 0.811024,
          "start_tick": 342863,
          "duration_ticks": 118,
          "channel": 1
        },
        {
          "note": 43,
          "start": 226.919747,
          "duration": 0.083333,
          "velocity": 0.80315,
          "start_tick": 343103,
          "duration_ticks": 126,
          "channel": 1
        },
        {
          "note": 43,
          "start": 227.079138,
          "duration": 0.080688,
          "velocity": 0.787402,
          "start_tick": 343344,
          "duration_ticks": 122,
          "channel": 1
        },
        {
          "note": 43,
          "start": 227.237868,
          "duration": 0.081349,
          "velocity": 0.80315,
          "start_tick": 343584,
          "duration_ticks": 123,
          "channel": 1
        },
        {
          "note": 43,
          "start": 227.397259,
          "duration": 0.085979,
          "velocity": 0.826772,
          "start_tick": 343825,
          "duration_ticks": 130,
          "channel": 1
        },
        {
          "note": 43,
          "start": 227.555989,
          "duration": 0.098545,
          "velocity": 0.732283,
          "start_tick": 344065,
          "duration_ticks": 149,
          "channel": 1
        },
        {
          "note": 43,
          "start": 227.714719,
          "duration": 0.089286,
          "velocity": 0.700787,
          "start_tick": 344305,
          "duration_ticks": 135,
          "channel": 1
        },
        {
          "note": 43,
          "start": 227.874111,
          "duration": 0.085979,
          "velocity": 0.740157,
          "start_tick": 344546,
          "duration_ticks": 130,
          "channel": 1
        },
        {
          "note": 43,
          "start": 228.032841,
          "duration": 0.087301,
          "velocity": 0.755906,
          "start_tick": 344786,
          "duration_ticks": 132,
          "channel": 1
        },
        {
          "note": 43,
          "start": 228.192232,
          "duration": 0.085317,
          "velocity": 0.795276,
          "start_tick": 345027,
          "duration_ticks": 129,
          "channel": 1
        },
        {
          "note": 43,
          "start": 228.350962,
          "duration": 0.085317,
          "velocity": 0.826772,
          "start_tick": 345267,
          "duration_ticks": 129,
          "channel": 1
        },
        {
          "note": 41,
          "start": 228.510354,
          "duration": 0.085979,
          "velocity": 0.905512,
          "start_tick": 345508,
          "duration_ticks": 130,
          "channel": 1
        },
        {
          "note": 41,
          "start": 228.669083,
          "duration": 0.101852,
          "velocity": 0.700787,
          "start_tick": 345748,
          "duration_ticks": 154,
          "channel": 1
        },
        {
          "note": 41,
          "start": 228.828475,
          "duration": 0.096561,
          "velocity": 0.692913,
          "start_tick": 345989,
          "duration_ticks": 146,
          "channel": 1
        },
        {
          "note": 41,
          "start": 228.987205,
          "duration": 0.089947,
          "velocity": 0.732283,
          "start_tick": 346229,
          "duration_ticks": 136,
          "channel": 1
        },
        {
          "note": 41,
          "start": 229.145935,
          "duration": 0.082672,
          "velocity": 0.80315,
          "start_tick": 346469,
          "duration_ticks": 125,
          "channel": 1
        },
        {
          "note": 41,
          "start": 229.305326,
          "duration": 0.087301,
          "velocity": 0.76378,
          "start_tick": 346710,
          "duration_ticks": 132,
          "channel": 1
        },
        {
          "note": 41,
          "start": 229.464056,
          "duration": 0.062831,
          "velocity": 0.700787,
          "start_tick": 346950,
          "duration_ticks": 95,
          "channel": 1
        },
        {
          "note": 41,
          "start": 229.623448,
          "duration": 0.077381,
          "velocity": 0.874016,
          "start_tick": 347191,
          "duration_ticks": 117,
          "channel": 1
        },
        {
          "note": 41,
          "start": 229.782178,
          "duration": 0.097222,
          "velocity": 0.716535,
          "start_tick": 347431,
          "duration_ticks": 147,
          "channel": 1
        },
        {
          "note": 41,
          "start": 229.941569,
          "duration": 0.088624,
          "velocity": 0.645669,
          "start_tick": 347672,
          "duration_ticks": 134,
          "channel": 1
        },
        {
          "note": 41,
          "start": 230.100299,
          "duration": 0.073413,
          "velocity": 0.779528,
          "start_tick": 347912,
          "duration_ticks": 111,
          "channel": 1
        },
        {
          "note": 41,
          "start": 230.25969,
          "duration": 0.085979,
          "velocity": 0.874016,
          "start_tick": 348153,
          "duration_ticks": 130,
          "channel": 1
        },
        {
          "note": 41,
          "start": 230.41842,
          "duration": 0.083995,
          "velocity": 0.622047,
          "start_tick": 348393,
          "duration_ticks": 127,
          "channel": 1
        },
        {
          "note": 41,
          "start": 230.57715,
          "duration": 0.087963,
          "velocity": 0.80315,
          "start_tick": 348633,
          "duration_ticks": 133,
          "channel": 1
        },
        {
          "note": 41,
          "start": 230.736542,
          "duration": 0.076058,
          "velocity": 0.716535,
          "start_tick": 348874,
          "duration_ticks": 115,
          "channel": 1
        },
        {
          "note": 41,
          "start": 230.895272,
          "duration": 0.078042,
          "velocity": 0.874016,
          "start_tick": 349114,
          "duration_ticks": 118,
          "channel": 1
        },
        {
          "note": 36,
          "start": 231.054663,
          "duration": 0.075397,
          "velocity": 1.0,
          "start_tick": 349355,
          "duration_ticks": 114,
          "channel": 1
        },
        {
          "note": 36,
          "start": 231.213393,
          "duration": 0.076719,
          "velocity": 0.866142,
          "start_tick": 349595,
          "duration_ticks": 116,
          "channel": 1
        },
        {
          "note": 36,
          "start": 231.372784,
          "duration": 0.077381,
          "velocity": 0.88189,
          "start_tick": 349836,
          "duration_ticks": 117,
          "channel": 1
        },
        {
          "note": 36,
          "start": 231.531514,
          "duration": 0.079365,
          "velocity": 0.866142,
          "start_tick": 350076,
          "duration_ticks": 120,
          "channel": 1
        },
        {
          "note": 36,
          "start": 231.690906,
          "duration": 0.080026,
          "velocity": 0.874016,
          "start_tick": 350317,
          "duration_ticks": 121,
          "channel": 1
        },
        {
          "note": 36,
          "start": 231.849636,
          "duration": 0.080026,
          "velocity": 0.92126,
          "start_tick": 350557,
          "duration_ticks": 121,
          "channel": 1
        },
        {
          "note": 36,
          "start": 232.008366,
          "duration": 0.078704,
          "velocity": 0.897638,
          "start_tick": 350797,
          "duration_ticks": 119,
          "channel": 1
        },
        {
          "note": 36,
          "start": 232.167757,
          "duration": 0.078704,
          "velocity": 0.897638,
          "start_tick": 351038,
          "duration_ticks": 119,
          "channel": 1
        },
        {
          "note": 36,
          "start": 232.326487,
          "duration": 0.080026,
          "velocity": 0.905512,
          "start_tick": 351278,
          "duration_ticks": 121,
          "channel": 1
        },
        {
          "note": 36,
          "start": 232.485879,
          "duration": 0.075397,
          "velocity": 0.905512,
          "start_tick": 351519,
          "duration_ticks": 114,
          "channel": 1
        },
        {
          "note": 36,
          "start": 232.644609,
          "duration": 0.073413,
          "velocity": 0.874016,
          "start_tick": 351759,
          "duration_ticks": 111,
          "channel": 1
        },
        {
          "note": 36,
          "start": 232.804,
          "duration": 0.068783,
          "velocity": 0.937008,
          "start_tick": 352000,
          "duration_ticks": 104,
          "channel": 1
        },
        {
          "note": 36,
          "start": 232.96273,
          "duration": 0.075397,
          "velocity": 0.968504,
          "start_tick": 352240,
          "duration_ticks": 114,
          "channel": 1
        },
        {
          "note": 36,
          "start": 233.122121,
          "duration": 0.072751,
          "velocity": 0.897638,
          "start_tick": 352481,
          "duration_ticks": 110,
          "channel": 1
        },
        {
          "note": 36,
          "start": 233.280851,
          "duration": 0.070767,
          "velocity": 0.92126,
          "start_tick": 352721,
          "duration_ticks": 107,
          "channel": 1
        },
        {
          "note": 36,
          "start": 233.439581,
          "duration": 0.080688,
          "velocity": 0.897638,
          "start_tick": 352961,
          "duration_ticks": 122,
          "channel": 1
        },
        {
          "note": 39,
          "start": 233.598973,
          "duration": 0.076058,
          "velocity": 0.929134,
          "start_tick": 353202,
          "duration_ticks": 115,
          "channel": 1
        },
        {
          "note": 39,
          "start": 233.757703,
          "duration": 0.08201,
          "velocity": 0.84252,
          "start_tick": 353442,
          "duration_ticks": 124,
          "channel": 1
        },
        {
          "note": 39,
          "start": 233.917094,
          "duration": 0.08201,
          "velocity": 0.787402,
          "start_tick": 353683,
          "duration_ticks": 124,
          "channel": 1
        },
        {
          "note": 39,
          "start": 234.075824,
          "duration": 0.082672,
          "velocity": 0.80315,
          "start_tick": 353923,
          "duration_ticks": 125,
          "channel": 1
        },
        {
          "note": 39,
          "start": 234.235216,
          "duration": 0.089286,
          "velocity": 0.80315,
          "start_tick": 354164,
          "duration_ticks": 135,
          "channel": 1
        },
        {
          "note": 39,
          "start": 234.393946,
          "duration": 0.08201,
          "velocity": 0.716535,
          "start_tick": 354404,
          "duration_ticks": 124,
          "channel": 1
        },
        {
          "note": 39,
          "start": 234.553337,
          "duration": 0.074735,
          "velocity": 0.826772,
          "start_tick": 354645,
          "duration_ticks": 113,
          "channel": 1
        },
        {
          "note": 39,
          "start": 234.712067,
          "duration": 0.073413,
          "velocity": 0.80315,
          "start_tick": 354885,
          "duration_ticks": 111,
          "channel": 1
        },
        {
          "note": 39,
          "start": 234.870797,
          "duration": 0.078704,
          "velocity": 0.748031,
          "start_tick": 355125,
          "duration_ticks": 119,
          "channel": 1
        },
        {
          "note": 39,
          "start": 235.030188,
          "duration": 0.070767,
          "velocity": 0.80315,
          "start_tick": 355366,
          "duration_ticks": 107,
          "channel": 1
        },
        {
          "note": 39,
          "start": 235.188918,
          "duration": 0.072751,
          "velocity": 0.826772,
          "start_tick": 355606,
          "duration_ticks": 110,
          "channel": 1
        },
        {
          "note": 39,
          "start": 235.34831,
          "duration": 0.077381,
          "velocity": 0.826772,
          "start_tick": 355847,
          "duration_ticks": 117,
          "channel": 1
        },
        {
          "note": 39,
          "start": 235.50704,
          "duration": 0.079365,
          "velocity": 0.76378,
          "start_tick": 356087,
          "duration_ticks": 120,
          "channel": 1
        },
        {
          "note": 39,
          "start": 235.666431,
          "duration": 0.076058,
          "velocity": 0.787402,
          "start_tick": 356328,
          "duration_ticks": 115,
          "channel": 1
        },
        {
          "note": 39,
          "start": 235.825161,
          "duration": 0.068783,
          "velocity": 0.76378,
          "start_tick": 356568,
          "duration_ticks": 104,
          "channel": 1
        },
        {
          "note": 39,
          "start": 235.984552,
          "duration": 0.084656,
          "velocity": 0.80315,
          "start_tick": 356809,
          "duration_ticks": 128,
          "channel": 1
        },
        {
          "note": 43,
          "start": 236.143282,
          "duration": 0.087301,
          "velocity": 0.968504,
          "start_tick": 357049,
          "duration_ticks": 132,
          "channel": 1
        },
        {
          "note": 43,
          "start": 236.302012,
          "duration": 0.082672,
          "velocity": 0.905512,
          "start_tick": 357289,
          "duration_ticks": 125,
          "channel": 1
        },
        {
          "note": 43,
          "start": 236.461404,
          "duration": 0.082011,
          "velocity": 0.897638,
          "start_tick": 357530,
          "duration_ticks": 124,
          "channel": 1
        },
        {
          "note": 43,
          "start": 236.620134,
          "duration": 0.083995,
          "velocity": 0.795276,
          "start_tick": 357770,
          "duration_ticks": 127,
          "channel": 1
        },
        {
          "note": 43,
          "start": 236.779525,
          "duration": 0.083333,
          "velocity": 0.84252,
          "start_tick": 358011,
          "duration_ticks": 126,
          "channel": 1
        },
        {
          "note": 43,
          "start": 236.938255,
          "duration": 0.084656,
          "velocity": 0.88189,
          "start_tick": 358251,
          "duration_ticks": 128,
          "channel": 1
        },
        {
          "note": 43,
          "start": 237.097646,
          "duration": 0.079365,
          "velocity": 0.84252,
          "start_tick": 358492,
          "duration_ticks": 120,
          "channel": 1
        },
        {
          "note": 43,
          "start": 237.256376,
          "duration": 0.07672,
          "velocity": 0.874016,
          "start_tick": 358732,
          "duration_ticks": 116,
          "channel": 1
        },
        {
          "note": 43,
          "start": 237.415768,
          "duration": 0.078704,
          "velocity": 0.874016,
          "start_tick": 358973,
          "duration_ticks": 119,
          "channel": 1
        },
        {
          "note": 43,
          "start": 237.574498,
          "duration": 0.083995,
          "velocity": 0.834646,
          "start_tick": 359213,
          "duration_ticks": 127,
          "channel": 1
        },
        {
          "note": 43,
          "start": 237.733228,
          "duration": 0.078042,
          "velocity": 0.834646,
          "start_tick": 359453,
          "duration_ticks": 118,
          "channel": 1
        },
        {
          "note": 43,
          "start": 237.892619,
          "duration": 0.08201,
          "velocity": 0.834646,
          "start_tick": 359694,
          "duration_ticks": 124,
          "channel": 1
        },
        {
          "note": 43,
          "start": 238.051349,
          "duration": 0.089286,
          "velocity": 0.779528,
          "start_tick": 359934,
          "duration_ticks": 135,
          "channel": 1
        },
        {
          "note": 43,
          "start": 238.210741,
          "duration": 0.080688,
          "velocity": 0.80315,
          "start_tick": 360175,
          "duration_ticks": 122,
          "channel": 1
        },
        {
          "note": 43,
          "start": 238.369471,
          "duration": 0.078042,
          "velocity": 0.755906,
          "start_tick": 360415,
          "duration_ticks": 118,
          "channel": 1
        },
        {
          "note": 43,
          "start": 238.528862,
          "duration": 0.087301,
          "velocity": 0.84252,
          "start_tick": 360656,
          "duration_ticks": 132,
          "channel": 1
        },
        {
          "note": 41,
          "start": 238.687592,
          "duration": 0.069444,
          "velocity": 0.968504,
          "start_tick": 360896,
          "duration_ticks": 105,
          "channel": 1
        },
        {
          "note": 41,
          "start": 238.846983,
          "duration": 0.089286,
          "velocity": 0.850394,
          "start_tick": 361137,
          "duration_ticks": 135,
          "channel": 1
        },
        {
          "note": 41,
          "start": 239.005713,
          "duration": 0.08664,
          "velocity": 0.866142,
          "start_tick": 361377,
          "duration_ticks": 131,
          "channel": 1
        },
        {
          "note": 41,
          "start": 239.164443,
          "duration": 0.083333,
          "velocity": 0.834646,
          "start_tick": 361617,
          "duration_ticks": 126,
          "channel": 1
        },
        {
          "note": 41,
          "start": 239.323835,
          "duration": 0.094577,
          "velocity": 0.84252,
          "start_tick": 361858,
          "duration_ticks": 143,
          "channel": 1
        },
        {
          "note": 41,
          "start": 239.482565,
          "duration": 0.085979,
          "velocity": 0.76378,
          "start_tick": 362098,
          "duration_ticks": 130,
          "channel": 1
        },
        {
          "note": 41,
          "start": 239.641956,
          "duration": 0.074074,
          "velocity": 0.874016,
          "start_tick": 362339,
          "duration_ticks": 112,
          "channel": 1
        },
        {
          "note": 41,
          "start": 239.800686,
          "duration": 0.076719,
          "velocity": 0.84252,
          "start_tick": 362579,
          "duration_ticks": 116,
          "channel": 1
        },
        {
          "note": 41,
          "start": 239.960078,
          "duration": 0.084656,
          "velocity": 0.826772,
          "start_tick": 362820,
          "duration_ticks": 128,
          "channel": 1
        },
        {
          "note": 41,
          "start": 240.118808,
          "duration": 0.074735,
          "velocity": 0.740157,
          "start_tick": 363060,
          "duration_ticks": 113,
          "channel": 1
        },
        {
          "note": 41,
          "start": 240.278199,
          "duration": 0.068783,
          "velocity": 0.866142,
          "start_tick": 363301,
          "duration_ticks": 104,
          "channel": 1
        },
        {
          "note": 41,
          "start": 240.436929,
          "duration": 0.070767,
          "velocity": 0.897638,
          "start_tick": 363541,
          "duration_ticks": 107,
          "channel": 1
        },
        {
          "note": 41,
          "start": 240.595659,
          "duration": 0.075397,
          "velocity": 0.874016,
          "start_tick": 363781,
          "duration_ticks": 114,
          "channel": 1
        },
        {
          "note": 41,
          "start": 240.75505,
          "duration": 0.07209,
          "velocity": 0.874016,
          "start_tick": 364022,
          "duration_ticks": 109,
          "channel": 1
        },
        {
          "note": 41,
          "start": 240.91378,
          "duration": 0.069444,
          "velocity": 0.850394,
          "start_tick": 364262,
          "duration_ticks": 105,
          "channel": 1
        },
        {
          "note": 41,
          "start": 241.073172,
          "duration": 0.080688,
          "velocity": 0.834646,
          "start_tick": 364503,
          "duration_ticks": 122,
          "channel": 1
        },
        {
          "note": 32,
          "start": 241.231902,
          "duration": 0.070106,
          "velocity": 0.952756,
          "start_tick": 364743,
          "duration_ticks": 106,
          "channel": 1
        },
        {
          "note": 32,
          "start": 241.391293,
          "duration": 0.074735,
          "velocity": 0.787402,
          "start_tick": 364984,
          "duration_ticks": 113,
          "channel": 1
        },
        {
          "note": 32,
          "start": 241.550023,
          "duration": 0.072751,
          "velocity": 0.826772,
          "start_tick": 365224,
          "duration_ticks": 110,
          "channel": 1
        },
        {
          "note": 32,
          "start": 241.709414,
          "duration": 0.074735,
          "velocity": 0.787402,
          "start_tick": 365465,
          "duration_ticks": 113,
          "channel": 1
        },
        {
          "note": 32,
          "start": 241.868144,
          "duration": 0.078042,
          "velocity": 0.80315,
          "start_tick": 365705,
          "duration_ticks": 118,
          "channel": 1
        },
        {
          "note": 32,
          "start": 242.026874,
          "duration": 0.078704,
          "velocity": 0.84252,
          "start_tick": 365945,
          "duration_ticks": 119,
          "channel": 1
        },
        {
          "note": 32,
          "start": 242.186266,
          "duration": 0.077381,
          "velocity": 0.826772,
          "start_tick": 366186,
          "duration_ticks": 117,
          "channel": 1
        },
        {
          "note": 32,
          "start": 242.344996,
          "duration": 0.077381,
          "velocity": 0.84252,
          "start_tick": 366426,
          "duration_ticks": 117,
          "channel": 1
        },
        {
          "note": 32,
          "start": 242.504387,
          "duration": 0.08664,
          "velocity": 0.787402,
          "start_tick": 366667,
          "duration_ticks": 131,
          "channel": 1
        },
        {
          "note": 32,
          "start": 242.663117,
          "duration": 0.085979,
          "velocity": 0.677165,
          "start_tick": 366907,
          "duration_ticks": 130,
          "channel": 1
        },
        {
          "note": 32,
          "start": 242.822508,
          "duration": 0.078042,
          "velocity": 0.84252,
          "start_tick": 367148,
          "duration_ticks": 118,
          "channel": 1
        },
        {
          "note": 32,
          "start": 242.981238,
          "duration": 0.078042,
          "velocity": 0.826772,
          "start_tick": 367388,
          "duration_ticks": 118,
          "channel": 1
        },
        {
          "note": 32,
          "start": 243.14063,
          "duration": 0.081349,
          "velocity": 0.80315,
          "start_tick": 367629,
          "duration_ticks": 123,
          "channel": 1
        },
        {
          "note": 32,
          "start": 243.29936,
          "duration": 0.080026,
          "velocity": 0.716535,
          "start_tick": 367869,
          "duration_ticks": 121,
          "channel": 1
        },
        {
          "note": 32,
          "start": 243.45809,
          "duration": 0.072751,
          "velocity": 0.748031,
          "start_tick": 368109,
          "duration_ticks": 110,
          "channel": 1
        },
        {
          "note": 32,
          "start": 243.617481,
          "duration": 0.081349,
          "velocity": 0.826772,
          "start_tick": 368350,
          "duration_ticks": 123,
          "channel": 1
        },
        {
          "note": 39,
          "start": 243.776211,
          "duration": 0.072751,
          "velocity": 0.929134,
          "start_tick": 368590,
          "duration_ticks": 110,
          "channel": 1
        },
        {
          "note": 39,
          "start": 243.935603,
          "duration": 0.071428,
          "velocity": 0.866142,
          "start_tick": 368831,
          "duration_ticks": 108,
          "channel": 1
        },
        {
          "note": 39,
          "start": 244.094333,
          "duration": 0.07209,
          "velocity": 0.80315,
          "start_tick": 369071,
          "duration_ticks": 109,
          "channel": 1
        },
        {
          "note": 39,
          "start": 244.253724,
          "duration": 0.065476,
          "velocity": 0.787402,
          "start_tick": 369312,
          "duration_ticks": 99,
          "channel": 1
        },
        {
          "note": 39,
          "start": 244.412454,
          "duration": 0.073413,
          "velocity": 0.826772,
          "start_tick": 369552,
          "duration_ticks": 111,
          "channel": 1
        },
        {
          "note": 39,
          "start": 244.571845,
          "duration": 0.072751,
          "velocity": 0.748031,
          "start_tick": 369793,
          "duration_ticks": 110,
          "channel": 1
        },
        {
          "note": 39,
          "start": 244.730575,
          "duration": 0.078042,
          "velocity": 0.716535,
          "start_tick": 370033,
          "duration_ticks": 118,
          "channel": 1
        },
        {
          "note": 39,
          "start": 244.889305,
          "duration": 0.073413,
          "velocity": 0.732283,
          "start_tick": 370273,
          "duration_ticks": 111,
          "channel": 1
        },
        {
          "note": 39,
          "start": 245.048697,
          "duration": 0.073413,
          "velocity": 0.76378,
          "start_tick": 370514,
          "duration_ticks": 111,
          "channel": 1
        },
        {
          "note": 39,
          "start": 245.206765,
          "duration": 0.079365,
          "velocity": 0.692913,
          "start_tick": 370753,
          "duration_ticks": 120,
          "channel": 1
        },
        {
          "note": 39,
          "start": 245.365495,
          "duration": 0.080688,
          "velocity": 0.629921,
          "start_tick": 370993,
          "duration_ticks": 122,
          "channel": 1
        },
        {
          "note": 39,
          "start": 245.524225,
          "duration": 0.083995,
          "velocity": 0.637795,
          "start_tick": 371233,
          "duration_ticks": 127,
          "channel": 1
        },
        {
          "note": 39,
          "start": 245.682294,
          "duration": 0.075397,
          "velocity": 0.669291,
          "start_tick": 371472,
          "duration_ticks": 114,
          "channel": 1
        },
        {
          "note": 39,
          "start": 245.841024,
          "duration": 0.078042,
          "velocity": 0.677165,
          "start_tick": 371712,
          "duration_ticks": 118,
          "channel": 1
        },
        {
          "note": 39,
          "start": 245.999754,
          "duration": 0.080026,
          "velocity": 0.598425,
          "start_tick": 371952,
          "duration_ticks": 121,
          "channel": 1
        },
        {
          "note": 39,
          "start": 246.158484,
          "duration": 0.074735,
          "velocity": 0.629921,
          "start_tick": 372192,
          "duration_ticks": 113,
          "channel": 1
        },
        {
          "note": 43,
          "start": 246.316553,
          "duration": 0.090608,
          "velocity": 0.905512,
          "start_tick": 372431,
          "duration_ticks": 137,
          "channel": 1
        },
        {
          "note": 43,
          "start": 246.475283,
          "duration": 0.09127,
          "velocity": 0.80315,
          "start_tick": 372671,
          "duration_ticks": 138,
          "channel": 1
        },
        {
          "note": 43,
          "start": 246.634013,
          "duration": 0.088624,
          "velocity": 0.716535,
          "start_tick": 372911,
          "duration_ticks": 134,
          "channel": 1
        },
        {
          "note": 43,
          "start": 246.792081,
          "duration": 0.106481,
          "velocity": 0.76378,
          "start_tick": 373150,
          "duration_ticks": 161,
          "channel": 1
        },
        {
          "note": 43,
          "start": 246.950811,
          "duration": 0.087963,
          "velocity": 0.598425,
          "start_tick": 373390,
          "duration_ticks": 133,
          "channel": 1
        },
        {
          "note": 43,
          "start": 247.109541,
          "duration": 0.078042,
          "velocity": 0.811024,
          "start_tick": 373630,
          "duration_ticks": 118,
          "channel": 1
        },
        {
          "note": 43,
          "start": 247.268271,
          "duration": 0.082672,
          "velocity": 0.80315,
          "start_tick": 373870,
          "duration_ticks": 125,
          "channel": 1
        },
        {
          "note": 43,
          "start": 247.42634,
          "duration": 0.080688,
          "velocity": 0.787402,
          "start_tick": 374109,
          "duration_ticks": 122,
          "channel": 1
        },
        {
          "note": 43,
          "start": 247.58507,
          "duration": 0.081349,
          "velocity": 0.80315,
          "start_tick": 374349,
          "duration_ticks": 123,
          "channel": 1
        },
        {
          "note": 43,
          "start": 247.7438,
          "duration": 0.085979,
          "velocity": 0.826772,
          "start_tick": 374589,
          "duration_ticks": 130,
          "channel": 1
        },
        {
          "note": 43,
          "start": 247.90253,
          "duration": 0.097883,
          "velocity": 0.732283,
          "start_tick": 374829,
          "duration_ticks": 148,
          "channel": 1
        },
        {
          "note": 43,
          "start": 248.060598,
          "duration": 0.088624,
          "velocity": 0.700787,
          "start_tick": 375068,
          "duration_ticks": 134,
          "channel": 1
        },
        {
          "note": 43,
          "start": 248.219328,
          "duration": 0.085979,
          "velocity": 0.740157,
          "start_tick": 375308,
          "duration_ticks": 130,
          "channel": 1
        },
        {
          "note": 43,
          "start": 248.378059,
          "duration": 0.08664,
          "velocity": 0.755906,
          "start_tick": 375548,
          "duration_ticks": 131,
          "channel": 1
        },
        {
          "note": 43,
          "start": 248.536127,
          "duration": 0.085317,
          "velocity": 0.795276,
          "start_tick": 375787,
          "duration_ticks": 129,
          "channel": 1
        },
        {
          "note": 43,
          "start": 248.694857,
          "duration": 0.084656,
          "velocity": 0.826772,
          "start_tick": 376027,
          "duration_ticks": 128,
          "channel": 1
        },
        {
          "note": 41,
          "start": 248.853587,
          "duration": 0.085979,
          "velocity": 0.905512,
          "start_tick": 376267,
          "duration_ticks": 130,
          "channel": 1
        },
        {
          "note": 41,
          "start": 249.012317,
          "duration": 0.10119,
          "velocity": 0.700787,
          "start_tick": 376507,
          "duration_ticks": 153,
          "channel": 1
        },
        {
          "note": 41,
          "start": 249.170386,
          "duration": 0.096561,
          "velocity": 0.692913,
          "start_tick": 376746,
          "duration_ticks": 146,
          "channel": 1
        },
        {
          "note": 41,
          "start": 249.329116,
          "duration": 0.089947,
          "velocity": 0.732283,
          "start_tick": 376986,
          "duration_ticks": 136,
          "channel": 1
        },
        {
          "note": 41,
          "start": 249.487846,
          "duration": 0.08201,
          "velocity": 0.80315,
          "start_tick": 377226,
          "duration_ticks": 124,
          "channel": 1
        },
        {
          "note": 41,
          "start": 249.645914,
          "duration": 0.087302,
          "velocity": 0.76378,
          "start_tick": 377465,
          "duration_ticks": 132,
          "channel": 1
        },
        {
          "note": 41,
          "start": 249.804644,
          "duration": 0.062169,
          "velocity": 0.700787,
          "start_tick": 377705,
          "duration_ticks": 94,
          "channel": 1
        },
        {
          "note": 41,
          "start": 249.963374,
          "duration": 0.077381,
          "velocity": 0.874016,
          "start_tick": 377945,
          "duration_ticks": 117,
          "channel": 1
        },
        {
          "note": 41,
          "start": 250.122104,
          "duration": 0.095899,
          "velocity": 0.716535,
          "start_tick": 378185,
          "duration_ticks": 145,
          "channel": 1
        },
        {
          "note": 41,
          "start": 250.280173,
          "duration": 0.088624,
          "velocity": 0.645669,
          "start_tick": 378424,
          "duration_ticks": 134,
          "channel": 1
        },
        {
          "note": 41,
          "start": 250.438903,
          "duration": 0.073413,
          "velocity": 0.779528,
          "start_tick": 378664,
          "duration_ticks": 111,
          "channel": 1
        },
        {
          "note": 41,
          "start": 250.597633,
          "duration": 0.085979,
          "velocity": 0.874016,
          "start_tick": 378904,
          "duration_ticks": 130,
          "channel": 1
        },
        {
          "note": 41,
          "start": 250.755702,
          "duration": 0.083995,
          "velocity": 0.622047,
          "start_tick": 379143,
          "duration_ticks": 127,
          "channel": 1
        },
        {
          "note": 41,
          "start": 250.914432,
          "duration": 0.087301,
          "velocity": 0.80315,
          "start_tick": 379383,
          "duration_ticks": 132,
          "channel": 1
        },
        {
          "note": 41,
          "start": 251.073162,
          "duration": 0.076058,
          "velocity": 0.716535,
          "start_tick": 379623,
          "duration_ticks": 115,
          "channel": 1
        },
        {
          "note": 41,
          "start": 251.231892,
          "duration": 0.076719,
          "velocity": 0.874016,
          "start_tick": 379863,
          "duration_ticks": 116,
          "channel": 1
        },
        {
          "note": 36,
          "start": 251.38996,
          "duration": 0.075397,
          "velocity": 1.0,
          "start_tick": 380102,
          "duration_ticks": 114,
          "channel": 1
        },
        {
          "note": 36,
          "start": 251.54869,
          "duration": 0.076719,
          "velocity": 0.866142,
          "start_tick": 380342,
          "duration_ticks": 116,
          "channel": 1
        },
        {
          "note": 36,
          "start": 251.70742,
          "duration": 0.077381,
          "velocity": 0.88189,
          "start_tick": 380582,
          "duration_ticks": 117,
          "channel": 1
        },
        {
          "note": 36,
          "start": 251.865489,
          "duration": 0.079365,
          "velocity": 0.866142,
          "start_tick": 380821,
          "duration_ticks": 120,
          "channel": 1
        },
        {
          "note": 36,
          "start": 252.024219,
          "duration": 0.080026,
          "velocity": 0.874016,
          "start_tick": 381061,
          "duration_ticks": 121,
          "channel": 1
        },
        {
          "note": 36,
          "start": 252.182949,
          "duration": 0.080026,
          "velocity": 0.92126,
          "start_tick": 381301,
          "duration_ticks": 121,
          "channel": 1
        },
        {
          "note": 36,
          "start": 252.341679,
          "duration": 0.078042,
          "velocity": 0.897638,
          "start_tick": 381541,
          "duration_ticks": 118,
          "channel": 1
        },
        {
          "note": 36,
          "start": 252.499748,
          "duration": 0.078704,
          "velocity": 0.897638,
          "start_tick": 381780,
          "duration_ticks": 119,
          "channel": 1
        },
        {
          "note": 36,
          "start": 252.658478,
          "duration": 0.079365,
          "velocity": 0.905512,
          "start_tick": 382020,
          "duration_ticks": 120,
          "channel": 1
        },
        {
          "note": 36,
          "start": 252.817207,
          "duration": 0.075397,
          "velocity": 0.905512,
          "start_tick": 382260,
          "duration_ticks": 114,
          "channel": 1
        },
        {
          "note": 36,
          "start": 252.975937,
          "duration": 0.072751,
          "velocity": 0.874016,
          "start_tick": 382500,
          "duration_ticks": 110,
          "channel": 1
        },
        {
          "note": 36,
          "start": 253.134006,
          "duration": 0.068783,
          "velocity": 0.937008,
          "start_tick": 382739,
          "duration_ticks": 104,
          "channel": 1
        },
        {
          "note": 36,
          "start": 253.292736,
          "duration": 0.075397,
          "velocity": 0.968504,
          "start_tick": 382979,
          "duration_ticks": 114,
          "channel": 1
        },
        {
          "note": 36,
          "start": 253.451466,
          "duration": 0.072751,
          "velocity": 0.897638,
          "start_tick": 383219,
          "duration_ticks": 110,
          "channel": 1
        },
        {
          "note": 36,
          "start": 253.609535,
          "duration": 0.070767,
          "velocity": 0.92126,
          "start_tick": 383458,
          "duration_ticks": 107,
          "channel": 1
        },
        {
          "note": 36,
          "start": 253.768265,
          "duration": 0.080026,
          "velocity": 0.897638,
          "start_tick": 383698,
          "duration_ticks": 121,
          "channel": 1
        },
        {
          "note": 39,
          "start": 253.926995,
          "duration": 0.076058,
          "velocity": 0.929134,
          "start_tick": 383938,
          "duration_ticks": 115,
          "channel": 1
        },
        {
          "note": 39,
          "start": 254.085725,
          "duration": 0.080688,
          "velocity": 0.84252,
          "start_tick": 384178,
          "duration_ticks": 122,
          "channel": 1
        },
        {
          "note": 39,
          "start": 254.243793,
          "duration": 0.08201,
          "velocity": 0.787402,
          "start_tick": 384417,
          "duration_ticks": 124,
          "channel": 1
        },
        {
          "note": 39,
          "start": 254.402523,
          "duration": 0.082672,
          "velocity": 0.80315,
          "start_tick": 384657,
          "duration_ticks": 125,
          "channel": 1
        },
        {
          "note": 39,
          "start": 254.561253,
          "duration": 0.089286,
          "velocity": 0.80315,
          "start_tick": 384897,
          "duration_ticks": 135,
          "channel": 1
        },
        {
          "note": 39,
          "start": 254.719322,
          "duration": 0.08201,
          "velocity": 0.716535,
          "start_tick": 385136,
          "duration_ticks": 124,
          "channel": 1
        },
        {
          "note": 39,
          "start": 254.878052,
          "duration": 0.074735,
          "velocity": 0.826772,
          "start_tick": 385376,
          "duration_ticks": 113,
          "channel": 1
        },
        {
          "note": 39,
          "start": 255.036782,
          "duration": 0.073413,
          "velocity": 0.80315,
          "start_tick": 385616,
          "duration_ticks": 111,
          "channel": 1
        },
        {
          "note": 39,
          "start": 255.195512,
          "duration": 0.077381,
          "velocity": 0.748031,
          "start_tick": 385856,
          "duration_ticks": 117,
          "channel": 1
        },
        {
          "note": 39,
          "start": 255.353581,
          "duration": 0.070767,
          "velocity": 0.80315,
          "start_tick": 386095,
          "duration_ticks": 107,
          "channel": 1
        },
        {
          "note": 39,
          "start": 255.512311,
          "duration": 0.07209,
          "velocity": 0.826772,
          "start_tick": 386335,
          "duration_ticks": 109,
          "channel": 1
        },
        {
          "note": 39,
          "start": 255.671041,
          "duration": 0.077381,
          "velocity": 0.826772,
          "start_tick": 386575,
          "duration_ticks": 117,
          "channel": 1
        },
        {
          "note": 39,
          "start": 255.829109,
          "duration": 0.079365,
          "velocity": 0.76378,
          "start_tick": 386814,
          "duration_ticks": 120,
          "channel": 1
        },
        {
          "note": 39,
          "start": 255.987839,
          "duration": 0.076058,
          "velocity": 0.787402,
          "start_tick": 387054,
          "duration_ticks": 115,
          "channel": 1
        },
        {
          "note": 39,
          "start": 256.146569,
          "duration": 0.068783,
          "velocity": 0.76378,
          "start_tick": 387294,
          "duration_ticks": 104,
          "channel": 1
        },
        {
          "note": 39,
          "start": 256.305299,
          "duration": 0.083995,
          "velocity": 0.80315,
          "start_tick": 387534,
          "duration_ticks": 127,
          "channel": 1
        },
        {
          "note": 43,
          "start": 256.463368,
          "duration": 0.087301,
          "velocity": 0.968504,
          "start_tick": 387773,
          "duration_ticks": 132,
          "channel": 1
        },
        {
          "note": 43,
          "start": 256.622098,
          "duration": 0.08201,
          "velocity": 0.905512,
          "start_tick": 388013,
          "duration_ticks": 124,
          "channel": 1
        },
        {
          "note": 43,
          "start": 256.780828,
          "duration": 0.082011,
          "velocity": 0.897638,
          "start_tick": 388253,
          "duration_ticks": 124,
          "channel": 1
        },
        {
          "note": 43,
          "start": 256.939558,
          "duration": 0.082672,
          "velocity": 0.795276,
          "start_tick": 388493,
          "duration_ticks": 125,
          "channel": 1
        },
        {
          "note": 43,
          "start": 257.097626,
          "duration": 0.083333,
          "velocity": 0.84252,
          "start_tick": 388732,
          "duration_ticks": 126,
          "channel": 1
        },
        {
          "note": 43,
          "start": 257.256356,
          "duration": 0.083995,
          "velocity": 0.88189,
          "start_tick": 388972,
          "duration_ticks": 127,
          "channel": 1
        },
        {
          "note": 43,
          "start": 257.415086,
          "duration": 0.079365,
          "velocity": 0.84252,
          "start_tick": 389212,
          "duration_ticks": 120,
          "channel": 1
        },
        {
          "note": 43,
          "start": 257.573155,
          "duration": 0.076719,
          "velocity": 0.874016,
          "start_tick": 389451,
          "duration_ticks": 116,
          "channel": 1
        },
        {
          "note": 43,
          "start": 257.731885,
          "duration": 0.078704,
          "velocity": 0.874016,
          "start_tick": 389691,
          "duration_ticks": 119,
          "channel": 1
        },
        {
          "note": 43,
          "start": 257.890615,
          "duration": 0.083995,
          "velocity": 0.834646,
          "start_tick": 389931,
          "duration_ticks": 127,
          "channel": 1
        },
        {
          "note": 43,
          "start": 258.049345,
          "duration": 0.07672,
          "velocity": 0.834646,
          "start_tick": 390171,
          "duration_ticks": 116,
          "channel": 1
        },
        {
          "note": 43,
          "start": 258.207414,
          "duration": 0.082011,
          "velocity": 0.834646,
          "start_tick": 390410,
          "duration_ticks": 124,
          "channel": 1
        },
        {
          "note": 43,
          "start": 258.366144,
          "duration": 0.088624,
          "velocity": 0.779528,
          "start_tick": 390650,
          "duration_ticks": 134,
          "channel": 1
        },
        {
          "note": 43,
          "start": 258.524874,
          "duration": 0.080688,
          "velocity": 0.80315,
          "start_tick": 390890,
          "duration_ticks": 122,
          "channel": 1
        },
        {
          "note": 43,
          "start": 258.682942,
          "duration": 0.078042,
          "velocity": 0.755906,
          "start_tick": 391129,
          "duration_ticks": 118,
          "channel": 1
        },
        {
          "note": 43,
          "start": 258.841672,
          "duration": 0.087302,
          "velocity": 0.84252,
          "start_tick": 391369,
          "duration_ticks": 132,
          "channel": 1
        },
        {
          "note": 41,
          "start": 259.000402,
          "duration": 0.069444,
          "velocity": 0.968504,
          "start_tick": 391609,
          "duration_ticks": 105,
          "channel": 1
        },
        {
          "note": 41,
          "start": 259.159132,
          "duration": 0.088624,
          "velocity": 0.850394,
          "start_tick": 391849,
          "duration_ticks": 134,
          "channel": 1
        },
        {
          "note": 41,
          "start": 259.317201,
          "duration": 0.08664,
          "velocity": 0.866142,
          "start_tick": 392088,
          "duration_ticks": 131,
          "channel": 1
        },
        {
          "note": 41,
          "start": 259.475931,
          "duration": 0.082672,
          "velocity": 0.834646,
          "start_tick": 392328,
          "duration_ticks": 125,
          "channel": 1
        },
        {
          "note": 41,
          "start": 259.634661,
          "duration": 0.094577,
          "velocity": 0.84252,
          "start_tick": 392568,
          "duration_ticks": 143,
          "channel": 1
        },
        {
          "note": 41,
          "start": 259.79273,
          "duration": 0.085317,
          "velocity": 0.76378,
          "start_tick": 392807,
          "duration_ticks": 129,
          "channel": 1
        },
        {
          "note": 41,
          "start": 259.95146,
          "duration": 0.074074,
          "velocity": 0.874016,
          "start_tick": 393047,
          "duration_ticks": 112,
          "channel": 1
        },
        {
          "note": 41,
          "start": 260.11019,
          "duration": 0.07672,
          "velocity": 0.84252,
          "start_tick": 393287,
          "duration_ticks": 116,
          "channel": 1
        },
        {
          "note": 41,
          "start": 260.26892,
          "duration": 0.083995,
          "velocity": 0.826772,
          "start_tick": 393527,
          "duration_ticks": 127,
          "channel": 1
        },
        {
          "note": 41,
          "start": 260.426988,
          "duration": 0.074735,
          "velocity": 0.740157,
          "start_tick": 393766,
          "duration_ticks": 113,
          "channel": 1
        },
        {
          "note": 41,
          "start": 260.585718,
          "duration": 0.068783,
          "velocity": 0.866142,
          "start_tick": 394006,
          "duration_ticks": 104,
          "channel": 1
        },
        {
          "note": 41,
          "start": 260.744448,
          "duration": 0.070767,
          "velocity": 0.897638,
          "start_tick": 394246,
          "duration_ticks": 107,
          "channel": 1
        },
        {
          "note": 41,
          "start": 260.902517,
          "duration": 0.074735,
          "velocity": 0.874016,
          "start_tick": 394485,
          "duration_ticks": 113,
          "channel": 1
        },
        {
          "note": 41,
          "start": 261.061247,
          "duration": 0.07209,
          "velocity": 0.874016,
          "start_tick": 394725,
          "duration_ticks": 109,
          "channel": 1
        },
        {
          "note": 41,
          "start": 261.219977,
          "duration": 0.068783,
          "velocity": 0.850394,
          "start_tick": 394965,
          "duration_ticks": 104,
          "channel": 1
        },
        {
          "note": 41,
          "start": 261.378707,
          "duration": 0.080026,
          "velocity": 0.834646,
          "start_tick": 395205,
          "duration_ticks": 121,
          "channel": 1
        },
        {
          "note": 32,
          "start": 261.536775,
          "duration": 0.070106,
          "velocity": 0.952756,
          "start_tick": 395444,
          "duration_ticks": 106,
          "channel": 1
        },
        {
          "note": 32,
          "start": 261.695506,
          "duration": 0.074735,
          "velocity": 0.787402,
          "start_tick": 395684,
          "duration_ticks": 113,
          "channel": 1
        },
        {
          "note": 32,
          "start": 261.854236,
          "duration": 0.072751,
          "velocity": 0.826772,
          "start_tick": 395924,
          "duration_ticks": 110,
          "channel": 1
        },
        {
          "note": 32,
          "start": 262.012966,
          "duration": 0.074074,
          "velocity": 0.787402,
          "start_tick": 396164,
          "duration_ticks": 112,
          "channel": 1
        },
        {
          "note": 32,
          "start": 262.171034,
          "duration": 0.078042,
          "velocity": 0.80315,
          "start_tick": 396403,
          "duration_ticks": 118,
          "channel": 1
        },
        {
          "note": 32,
          "start": 262.329764,
          "duration": 0.078042,
          "velocity": 0.84252,
          "start_tick": 396643,
          "duration_ticks": 118,
          "channel": 1
        },
        {
          "note": 32,
          "start": 262.488494,
          "duration": 0.077381,
          "velocity": 0.826772,
          "start_tick": 396883,
          "duration_ticks": 117,
          "channel": 1
        },
        {
          "note": 32,
          "start": 262.646563,
          "duration": 0.07672,
          "velocity": 0.84252,
          "start_tick": 397122,
          "duration_ticks": 116,
          "channel": 1
        },
        {
          "note": 32,
          "start": 262.805293,
          "duration": 0.08664,
          "velocity": 0.787402,
          "start_tick": 397362,
          "duration_ticks": 131,
          "channel": 1
        },
        {
          "note": 32,
          "start": 262.964023,
          "duration": 0.085317,
          "velocity": 0.677165,
          "start_tick": 397602,
          "duration_ticks": 129,
          "channel": 1
        },
        {
          "note": 32,
          "start": 263.122753,
          "duration": 0.077381,
          "velocity": 0.84252,
          "start_tick": 397842,
          "duration_ticks": 117,
          "channel": 1
        },
        {
          "note": 32,
          "start": 263.280821,
          "duration": 0.078042,
          "velocity": 0.826772,
          "start_tick": 398081,
          "duration_ticks": 118,
          "channel": 1
        },
        {
          "note": 32,
          "start": 263.439551,
          "duration": 0.081349,
          "velocity": 0.80315,
          "start_tick": 398321,
          "duration_ticks": 123,
          "channel": 1
        },
        {
          "note": 32,
          "start": 263.598281,
          "duration": 0.080026,
          "velocity": 0.716535,
          "start_tick": 398561,
          "duration_ticks": 121,
          "channel": 1
        },
        {
          "note": 32,
          "start": 263.75635,
          "duration": 0.07209,
          "velocity": 0.748031,
          "start_tick": 398800,
          "duration_ticks": 109,
          "channel": 1
        },
        {
          "note": 32,
          "start": 263.91508,
          "duration": 0.081349,
          "velocity": 0.826772,
          "start_tick": 399040,
          "duration_ticks": 123,
          "channel": 1
        },
        {
          "note": 39,
          "start": 264.07381,
          "duration": 0.07209,
          "velocity": 0.929134,
          "start_tick": 399280,
          "duration_ticks": 109,
          "channel": 1
        },
        {
          "note": 39,
          "start": 264.23254,
          "duration": 0.070767,
          "velocity": 0.866142,
          "start_tick": 399520,
          "duration_ticks": 107,
          "channel": 1
        },
        {
          "note": 39,
          "start": 264.390609,
          "duration": 0.07209,
          "velocity": 0.80315,
          "start_tick": 399759,
          "duration_ticks": 109,
          "channel": 1
        },
        {
          "note": 39,
          "start": 264.549339,
          "duration": 0.065476,
          "velocity": 0.787402,
          "start_tick": 399999,
          "duration_ticks": 99,
          "channel": 1
        },
        {
          "note": 39,
          "start": 264.708069,
          "duration": 0.073413,
          "velocity": 0.826772,
          "start_tick": 400239,
          "duration_ticks": 111,
          "channel": 1
        },
        {
          "note": 39,
          "start": 264.866137,
          "duration": 0.072751,
          "velocity": 0.748031,
          "start_tick": 400478,
          "duration_ticks": 110,
          "channel": 1
        },
        {
          "note": 39,
          "start": 265.024867,
          "duration": 0.078042,
          "velocity": 0.716535,
          "start_tick": 400718,
          "duration_ticks": 118,
          "channel": 1
        },
        {
          "note": 39,
          "start": 265.183597,
          "duration": 0.072751,
          "velocity": 0.732283,
          "start_tick": 400958,
          "duration_ticks": 110,
          "channel": 1
        },
        {
          "note": 39,
          "start": 265.342327,
          "duration": 0.074074,
          "velocity": 0.76378,
          "start_tick": 401198,
          "duration_ticks": 112,
          "channel": 1
        },
        {
          "note": 39,
          "start": 265.501057,
          "duration": 0.079365,
          "velocity": 0.692913,
          "start_tick": 401438,
          "duration_ticks": 120,
          "channel": 1
        },
        {
          "note": 39,
          "start": 265.659787,
          "duration": 0.080688,
          "velocity": 0.629921,
          "start_tick": 401678,
          "duration_ticks": 122,
          "channel": 1
        },
        {
          "note": 39,
          "start": 265.818517,
          "duration": 0.083995,
          "velocity": 0.637795,
          "start_tick": 401918,
          "duration_ticks": 127,
          "channel": 1
        },
        {
          "note": 39,
          "start": 265.977247,
          "duration": 0.075397,
          "velocity": 0.669291,
          "start_tick": 402158,
          "duration_ticks": 114,
          "channel": 1
        },
        {
          "note": 39,
          "start": 266.135977,
          "duration": 0.078042,
          "velocity": 0.677165,
          "start_tick": 402398,
          "duration_ticks": 118,
          "channel": 1
        },
        {
          "note": 39,
          "start": 266.294707,
          "duration": 0.080026,
          "velocity": 0.598425,
          "start_tick": 402638,
          "duration_ticks": 121,
          "channel": 1
        },
        {
          "note": 39,
          "start": 266.453437,
          "duration": 0.075397,
          "velocity": 0.629921,
          "start_tick": 402878,
          "duration_ticks": 114,
          "channel": 1
        },
        {
          "note": 43,
          "start": 266.612167,
          "duration": 0.090608,
          "velocity": 0.905512,
          "start_tick": 403118,
          "duration_ticks": 137,
          "channel": 1
        },
        {
          "note": 43,
          "start": 266.770897,
          "duration": 0.09127,
          "velocity": 0.80315,
          "start_tick": 403358,
          "duration_ticks": 138,
          "channel": 1
        },
        {
          "note": 43,
          "start": 266.929627,
          "duration": 0.088624,
          "velocity": 0.716535,
          "start_tick": 403598,
          "duration_ticks": 134,
          "channel": 1
        },
        {
          "note": 43,
          "start": 267.088357,
          "duration": 0.106481,
          "velocity": 0.76378,
          "start_tick": 403838,
          "duration_ticks": 161,
          "channel": 1
        },
        {
          "note": 43,
          "start": 267.247087,
          "duration": 0.087963,
          "velocity": 0.598425,
          "start_tick": 404078,
          "duration_ticks": 133,
          "channel": 1
        },
        {
          "note": 43,
          "start": 267.405817,
          "duration": 0.078042,
          "velocity": 0.811024,
          "start_tick": 404318,
          "duration_ticks": 118,
          "channel": 1
        },
        {
          "note": 43,
          "start": 267.564547,
          "duration": 0.083333,
          "velocity": 0.80315,
          "start_tick": 404558,
          "duration_ticks": 126,
          "channel": 1
        },
        {
          "note": 43,
          "start": 267.723277,
          "duration": 0.080688,
          "velocity": 0.787402,
          "start_tick": 404798,
          "duration_ticks": 122,
          "channel": 1
        },
        {
          "note": 43,
          "start": 267.882007,
          "duration": 0.081349,
          "velocity": 0.80315,
          "start_tick": 405038,
          "duration_ticks": 123,
          "channel": 1
        },
        {
          "note": 43,
          "start": 268.040737,
          "duration": 0.085979,
          "velocity": 0.826772,
          "start_tick": 405278,
          "duration_ticks": 130,
          "channel": 1
        },
        {
          "note": 43,
          "start": 268.199467,
          "duration": 0.098545,
          "velocity": 0.732283,
          "start_tick": 405518,
          "duration_ticks": 149,
          "channel": 1
        },
        {
          "note": 43,
          "start": 268.358197,
          "duration": 0.088624,
          "velocity": 0.700787,
          "start_tick": 405758,
          "duration_ticks": 134,
          "channel": 1
        },
        {
          "note": 43,
          "start": 268.516927,
          "duration": 0.085979,
          "velocity": 0.740157,
          "start_tick": 405998,
          "duration_ticks": 130,
          "channel": 1
        },
        {
          "note": 43,
          "start": 268.675657,
          "duration": 0.08664,
          "velocity": 0.755906,
          "start_tick": 406238,
          "duration_ticks": 131,
          "channel": 1
        },
        {
          "note": 43,
          "start": 268.834387,
          "duration": 0.085317,
          "velocity": 0.795276,
          "start_tick": 406478,
          "duration_ticks": 129,
          "channel": 1
        },
        {
          "note": 43,
          "start": 268.993117,
          "duration": 0.084656,
          "velocity": 0.826772,
          "start_tick": 406718,
          "duration_ticks": 128,
          "channel": 1
        },
        {
          "note": 41,
          "start": 269.151847,
          "duration": 0.085979,
          "velocity": 0.905512,
          "start_tick": 406958,
          "duration_ticks": 130,
          "channel": 1
        },
        {
          "note": 41,
          "start": 269.310577,
          "duration": 0.101852,
          "velocity": 0.700787,
          "start_tick": 407198,
          "duration_ticks": 154,
          "channel": 1
        },
        {
          "note": 41,
          "start": 269.469307,
          "duration": 0.096561,
          "velocity": 0.692913,
          "start_tick": 407438,
          "duration_ticks": 146,
          "channel": 1
        },
        {
          "note": 41,
          "start": 269.628037,
          "duration": 0.089947,
          "velocity": 0.732283,
          "start_tick": 407678,
          "duration_ticks": 136,
          "channel": 1
        },
        {
          "note": 41,
          "start": 269.786767,
          "duration": 0.08201,
          "velocity": 0.80315,
          "start_tick": 407918,
          "duration_ticks": 124,
          "channel": 1
        },
        {
          "note": 41,
          "start": 269.945497,
          "duration": 0.087301,
          "velocity": 0.76378,
          "start_tick": 408158,
          "duration_ticks": 132,
          "channel": 1
        },
        {
          "note": 41,
          "start": 270.104227,
          "duration": 0.062169,
          "velocity": 0.700787,
          "start_tick": 408398,
          "duration_ticks": 94,
          "channel": 1
        },
        {
          "note": 41,
          "start": 270.262957,
          "duration": 0.077381,
          "velocity": 0.874016,
          "start_tick": 408638,
          "duration_ticks": 117,
          "channel": 1
        },
        {
          "note": 41,
          "start": 270.421687,
          "duration": 0.096561,
          "velocity": 0.716535,
          "start_tick": 408878,
          "duration_ticks": 146,
          "channel": 1
        },
        {
          "note": 41,
          "start": 270.580417,
          "duration": 0.088624,
          "velocity": 0.645669,
          "start_tick": 409118,
          "duration_ticks": 134,
          "channel": 1
        },
        {
          "note": 41,
          "start": 270.739147,
          "duration": 0.073413,
          "velocity": 0.779528,
          "start_tick": 409358,
          "duration_ticks": 111,
          "channel": 1
        },
        {
          "note": 41,
          "start": 270.897877,
          "duration": 0.085979,
          "velocity": 0.874016,
          "start_tick": 409598,
          "duration_ticks": 130,
          "channel": 1
        },
        {
          "note": 41,
          "start": 271.056607,
          "duration": 0.083995,
          "velocity": 0.622047,
          "start_tick": 409838,
          "duration_ticks": 127,
          "channel": 1
        },
        {
          "note": 41,
          "start": 271.215337,
          "duration": 0.087302,
          "velocity": 0.80315,
          "start_tick": 410078,
          "duration_ticks": 132,
          "channel": 1
        },
        {
          "note": 41,
          "start": 271.374067,
          "duration": 0.076058,
          "velocity": 0.716535,
          "start_tick": 410318,
          "duration_ticks": 115,
          "channel": 1
        },
        {
          "note": 41,
          "start": 271.532797,
          "duration": 0.077381,
          "velocity": 0.874016,
          "start_tick": 410558,
          "duration_ticks": 117,
          "channel": 1
        }
      ]
    },
    {
      "id": "electric_piano_1",
      "source_track_index": 4,
      "source_name": "E.Piano 1   ",
      "role": "electric_piano_1",
      "channel": 2,
      "gm_program": 4,
      "gm_program_name": "Electric Piano 1",
      "note_count": 453,
      "pitch_range": [
        29,
        56
      ],
      "time_range": [
        0.0,
        314.866087
      ],
      "notes": [
        {
          "note": 48,
          "start": 0.0,
          "duration": 2.579362,
          "velocity": 0.425197,
          "start_tick": 0,
          "duration_ticks": 3900,
          "channel": 2
        },
        {
          "note": 51,
          "start": 0.0,
          "duration": 2.579362,
          "velocity": 0.425197,
          "start_tick": 0,
          "duration_ticks": 3900,
          "channel": 2
        },
        {
          "note": 55,
          "start": 0.0,
          "duration": 2.579362,
          "velocity": 0.425197,
          "start_tick": 0,
          "duration_ticks": 3900,
          "channel": 2
        },
        {
          "note": 46,
          "start": 2.579362,
          "duration": 2.577378,
          "velocity": 0.425197,
          "start_tick": 3900,
          "duration_ticks": 3897,
          "channel": 2
        },
        {
          "note": 51,
          "start": 2.579362,
          "duration": 2.577378,
          "velocity": 0.425197,
          "start_tick": 3900,
          "duration_ticks": 3897,
          "channel": 2
        },
        {
          "note": 55,
          "start": 2.579362,
          "duration": 2.577378,
          "velocity": 0.425197,
          "start_tick": 3900,
          "duration_ticks": 3897,
          "channel": 2
        },
        {
          "note": 43,
          "start": 5.156741,
          "duration": 2.517855,
          "velocity": 0.425197,
          "start_tick": 7797,
          "duration_ticks": 3807,
          "channel": 2
        },
        {
          "note": 47,
          "start": 5.156741,
          "duration": 2.517855,
          "velocity": 0.425197,
          "start_tick": 7797,
          "duration_ticks": 3807,
          "channel": 2
        },
        {
          "note": 50,
          "start": 5.156741,
          "duration": 2.517855,
          "velocity": 0.425197,
          "start_tick": 7797,
          "duration_ticks": 3807,
          "channel": 2
        },
        {
          "note": 55,
          "start": 5.156741,
          "duration": 2.517855,
          "velocity": 0.425197,
          "start_tick": 7797,
          "duration_ticks": 3807,
          "channel": 2
        },
        {
          "note": 41,
          "start": 7.674595,
          "duration": 2.517855,
          "velocity": 0.425197,
          "start_tick": 11604,
          "duration_ticks": 3807,
          "channel": 2
        },
        {
          "note": 44,
          "start": 7.674595,
          "duration": 2.517855,
          "velocity": 0.425197,
          "start_tick": 11604,
          "duration_ticks": 3807,
          "channel": 2
        },
        {
          "note": 48,
          "start": 7.674595,
          "duration": 2.517855,
          "velocity": 0.425197,
          "start_tick": 11604,
          "duration_ticks": 3807,
          "channel": 2
        },
        {
          "note": 53,
          "start": 7.674595,
          "duration": 2.517855,
          "velocity": 0.425197,
          "start_tick": 11604,
          "duration_ticks": 3807,
          "channel": 2
        },
        {
          "note": 32,
          "start": 10.19245,
          "duration": 2.518516,
          "velocity": 0.425197,
          "start_tick": 15411,
          "duration_ticks": 3808,
          "channel": 2
        },
        {
          "note": 48,
          "start": 10.19245,
          "duration": 2.518516,
          "velocity": 0.425197,
          "start_tick": 15411,
          "duration_ticks": 3808,
          "channel": 2
        },
        {
          "note": 51,
          "start": 10.19245,
          "duration": 2.518516,
          "velocity": 0.425197,
          "start_tick": 15411,
          "duration_ticks": 3808,
          "channel": 2
        },
        {
          "note": 56,
          "start": 10.19245,
          "duration": 2.518516,
          "velocity": 0.425197,
          "start_tick": 15411,
          "duration_ticks": 3808,
          "channel": 2
        },
        {
          "note": 39,
          "start": 12.710966,
          "duration": 2.519839,
          "velocity": 0.425197,
          "start_tick": 19219,
          "duration_ticks": 3810,
          "channel": 2
        },
        {
          "note": 46,
          "start": 12.710966,
          "duration": 2.519839,
          "velocity": 0.425197,
          "start_tick": 19219,
          "duration_ticks": 3810,
          "channel": 2
        },
        {
          "note": 51,
          "start": 12.710966,
          "duration": 2.519839,
          "velocity": 0.425197,
          "start_tick": 19219,
          "duration_ticks": 3810,
          "channel": 2
        },
        {
          "note": 55,
          "start": 12.710966,
          "duration": 2.519839,
          "velocity": 0.425197,
          "start_tick": 19219,
          "duration_ticks": 3810,
          "channel": 2
        },
        {
          "note": 35,
          "start": 15.230805,
          "duration": 2.537696,
          "velocity": 0.425197,
          "start_tick": 23029,
          "duration_ticks": 3837,
          "channel": 2
        },
        {
          "note": 47,
          "start": 15.230805,
          "duration": 2.537696,
          "velocity": 0.425197,
          "start_tick": 23029,
          "duration_ticks": 3837,
          "channel": 2
        },
        {
          "note": 50,
          "start": 15.230805,
          "duration": 2.537696,
          "velocity": 0.425197,
          "start_tick": 23029,
          "duration_ticks": 3837,
          "channel": 2
        },
        {
          "note": 55,
          "start": 15.230805,
          "duration": 2.537696,
          "velocity": 0.425197,
          "start_tick": 23029,
          "duration_ticks": 3837,
          "channel": 2
        },
        {
          "note": 29,
          "start": 17.768501,
          "duration": 2.538357,
          "velocity": 0.425197,
          "start_tick": 26866,
          "duration_ticks": 3838,
          "channel": 2
        },
        {
          "note": 48,
          "start": 17.768501,
          "duration": 2.538357,
          "velocity": 0.425197,
          "start_tick": 26866,
          "duration_ticks": 3838,
          "channel": 2
        },
        {
          "note": 53,
          "start": 17.768501,
          "duration": 2.538357,
          "velocity": 0.425197,
          "start_tick": 26866,
          "duration_ticks": 3838,
          "channel": 2
        },
        {
          "note": 56,
          "start": 17.768501,
          "duration": 2.538357,
          "velocity": 0.425197,
          "start_tick": 26866,
          "duration_ticks": 3838,
          "channel": 2
        },
        {
          "note": 48,
          "start": 20.306858,
          "duration": 2.537696,
          "velocity": 0.425197,
          "start_tick": 30704,
          "duration_ticks": 3837,
          "channel": 2
        },
        {
          "note": 51,
          "start": 20.306858,
          "duration": 2.537696,
          "velocity": 0.425197,
          "start_tick": 30704,
          "duration_ticks": 3837,
          "channel": 2
        },
        {
          "note": 55,
          "start": 20.306858,
          "duration": 2.537696,
          "velocity": 0.425197,
          "start_tick": 30704,
          "duration_ticks": 3837,
          "channel": 2
        },
        {
          "note": 46,
          "start": 22.844554,
          "duration": 2.536373,
          "velocity": 0.425197,
          "start_tick": 34541,
          "duration_ticks": 3835,
          "channel": 2
        },
        {
          "note": 51,
          "start": 22.844554,
          "duration": 2.536373,
          "velocity": 0.425197,
          "start_tick": 34541,
          "duration_ticks": 3835,
          "channel": 2
        },
        {
          "note": 55,
          "start": 22.844554,
          "duration": 2.536373,
          "velocity": 0.425197,
          "start_tick": 34541,
          "duration_ticks": 3835,
          "channel": 2
        },
        {
          "note": 43,
          "start": 25.380927,
          "duration": 2.523807,
          "velocity": 0.425197,
          "start_tick": 38376,
          "duration_ticks": 3816,
          "channel": 2
        },
        {
          "note": 47,
          "start": 25.380927,
          "duration": 2.523807,
          "velocity": 0.425197,
          "start_tick": 38376,
          "duration_ticks": 3816,
          "channel": 2
        },
        {
          "note": 50,
          "start": 25.380927,
          "duration": 2.523807,
          "velocity": 0.425197,
          "start_tick": 38376,
          "duration_ticks": 3816,
          "channel": 2
        },
        {
          "note": 55,
          "start": 25.380927,
          "duration": 2.523807,
          "velocity": 0.425197,
          "start_tick": 38376,
          "duration_ticks": 3816,
          "channel": 2
        },
        {
          "note": 41,
          "start": 27.904734,
          "duration": 2.523807,
          "velocity": 0.425197,
          "start_tick": 42192,
          "duration_ticks": 3816,
          "channel": 2
        },
        {
          "note": 44,
          "start": 27.904734,
          "duration": 2.523807,
          "velocity": 0.425197,
          "start_tick": 42192,
          "duration_ticks": 3816,
          "channel": 2
        },
        {
          "note": 48,
          "start": 27.904734,
          "duration": 2.523807,
          "velocity": 0.425197,
          "start_tick": 42192,
          "duration_ticks": 3816,
          "channel": 2
        },
        {
          "note": 53,
          "start": 27.904734,
          "duration": 2.523807,
          "velocity": 0.425197,
          "start_tick": 42192,
          "duration_ticks": 3816,
          "channel": 2
        },
        {
          "note": 32,
          "start": 30.428541,
          "duration": 2.524468,
          "velocity": 0.425197,
          "start_tick": 46008,
          "duration_ticks": 3817,
          "channel": 2
        },
        {
          "note": 48,
          "start": 30.428541,
          "duration": 2.524468,
          "velocity": 0.425197,
          "start_tick": 46008,
          "duration_ticks": 3817,
          "channel": 2
        },
        {
          "note": 51,
          "start": 30.428541,
          "duration": 2.524468,
          "velocity": 0.425197,
          "start_tick": 46008,
          "duration_ticks": 3817,
          "channel": 2
        },
        {
          "note": 56,
          "start": 30.428541,
          "duration": 2.524468,
          "velocity": 0.425197,
          "start_tick": 46008,
          "duration_ticks": 3817,
          "channel": 2
        },
        {
          "note": 39,
          "start": 32.953009,
          "duration": 2.523807,
          "velocity": 0.425197,
          "start_tick": 49825,
          "duration_ticks": 3816,
          "channel": 2
        },
        {
          "note": 46,
          "start": 32.953009,
          "duration": 2.523807,
          "velocity": 0.425197,
          "start_tick": 49825,
          "duration_ticks": 3816,
          "channel": 2
        },
        {
          "note": 51,
          "start": 32.953009,
          "duration": 2.523807,
          "velocity": 0.425197,
          "start_tick": 49825,
          "duration_ticks": 3816,
          "channel": 2
        },
        {
          "note": 55,
          "start": 32.953009,
          "duration": 2.523807,
          "velocity": 0.425197,
          "start_tick": 49825,
          "duration_ticks": 3816,
          "channel": 2
        },
        {
          "note": 35,
          "start": 35.476816,
          "duration": 2.52513,
          "velocity": 0.425197,
          "start_tick": 53641,
          "duration_ticks": 3818,
          "channel": 2
        },
        {
          "note": 47,
          "start": 35.476816,
          "duration": 2.52513,
          "velocity": 0.425197,
          "start_tick": 53641,
          "duration_ticks": 3818,
          "channel": 2
        },
        {
          "note": 50,
          "start": 35.476816,
          "duration": 2.52513,
          "velocity": 0.425197,
          "start_tick": 53641,
          "duration_ticks": 3818,
          "channel": 2
        },
        {
          "note": 55,
          "start": 35.476816,
          "duration": 2.52513,
          "velocity": 0.425197,
          "start_tick": 53641,
          "duration_ticks": 3818,
          "channel": 2
        },
        {
          "note": 29,
          "start": 38.001946,
          "duration": 2.524468,
          "velocity": 0.425197,
          "start_tick": 57459,
          "duration_ticks": 3817,
          "channel": 2
        },
        {
          "note": 48,
          "start": 38.001946,
          "duration": 2.524468,
          "velocity": 0.425197,
          "start_tick": 57459,
          "duration_ticks": 3817,
          "channel": 2
        },
        {
          "note": 53,
          "start": 38.001946,
          "duration": 2.524468,
          "velocity": 0.425197,
          "start_tick": 57459,
          "duration_ticks": 3817,
          "channel": 2
        },
        {
          "note": 56,
          "start": 38.001946,
          "duration": 2.524468,
          "velocity": 0.425197,
          "start_tick": 57459,
          "duration_ticks": 3817,
          "channel": 2
        },
        {
          "note": 48,
          "start": 40.526415,
          "duration": 2.524468,
          "velocity": 0.425197,
          "start_tick": 61276,
          "duration_ticks": 3817,
          "channel": 2
        },
        {
          "note": 51,
          "start": 40.526415,
          "duration": 2.524468,
          "velocity": 0.425197,
          "start_tick": 61276,
          "duration_ticks": 3817,
          "channel": 2
        },
        {
          "note": 55,
          "start": 40.526415,
          "duration": 2.524468,
          "velocity": 0.425197,
          "start_tick": 61276,
          "duration_ticks": 3817,
          "channel": 2
        },
        {
          "note": 46,
          "start": 43.050883,
          "duration": 2.528437,
          "velocity": 0.425197,
          "start_tick": 65093,
          "duration_ticks": 3823,
          "channel": 2
        },
        {
          "note": 51,
          "start": 43.050883,
          "duration": 2.528437,
          "velocity": 0.425197,
          "start_tick": 65093,
          "duration_ticks": 3823,
          "channel": 2
        },
        {
          "note": 55,
          "start": 43.050883,
          "duration": 2.528437,
          "velocity": 0.425197,
          "start_tick": 65093,
          "duration_ticks": 3823,
          "channel": 2
        },
        {
          "note": 43,
          "start": 45.579319,
          "duration": 2.538357,
          "velocity": 0.425197,
          "start_tick": 68916,
          "duration_ticks": 3838,
          "channel": 2
        },
        {
          "note": 47,
          "start": 45.579319,
          "duration": 2.538357,
          "velocity": 0.425197,
          "start_tick": 68916,
          "duration_ticks": 3838,
          "channel": 2
        },
        {
          "note": 50,
          "start": 45.579319,
          "duration": 2.538357,
          "velocity": 0.425197,
          "start_tick": 68916,
          "duration_ticks": 3838,
          "channel": 2
        },
        {
          "note": 55,
          "start": 45.579319,
          "duration": 2.538357,
          "velocity": 0.425197,
          "start_tick": 68916,
          "duration_ticks": 3838,
          "channel": 2
        },
        {
          "note": 41,
          "start": 48.117677,
          "duration": 2.538357,
          "velocity": 0.425197,
          "start_tick": 72754,
          "duration_ticks": 3838,
          "channel": 2
        },
        {
          "note": 44,
          "start": 48.117677,
          "duration": 2.538357,
          "velocity": 0.425197,
          "start_tick": 72754,
          "duration_ticks": 3838,
          "channel": 2
        },
        {
          "note": 48,
          "start": 48.117677,
          "duration": 2.538357,
          "velocity": 0.425197,
          "start_tick": 72754,
          "duration_ticks": 3838,
          "channel": 2
        },
        {
          "note": 53,
          "start": 48.117677,
          "duration": 2.538357,
          "velocity": 0.425197,
          "start_tick": 72754,
          "duration_ticks": 3838,
          "channel": 2
        },
        {
          "note": 32,
          "start": 50.656034,
          "duration": 2.538357,
          "velocity": 0.425197,
          "start_tick": 76592,
          "duration_ticks": 3838,
          "channel": 2
        },
        {
          "note": 48,
          "start": 50.656034,
          "duration": 2.538357,
          "velocity": 0.425197,
          "start_tick": 76592,
          "duration_ticks": 3838,
          "channel": 2
        },
        {
          "note": 51,
          "start": 50.656034,
          "duration": 2.538357,
          "velocity": 0.425197,
          "start_tick": 76592,
          "duration_ticks": 3838,
          "channel": 2
        },
        {
          "note": 56,
          "start": 50.656034,
          "duration": 2.538357,
          "velocity": 0.425197,
          "start_tick": 76592,
          "duration_ticks": 3838,
          "channel": 2
        },
        {
          "note": 39,
          "start": 53.194391,
          "duration": 2.538357,
          "velocity": 0.425197,
          "start_tick": 80430,
          "duration_ticks": 3838,
          "channel": 2
        },
        {
          "note": 46,
          "start": 53.194391,
          "duration": 2.538357,
          "velocity": 0.425197,
          "start_tick": 80430,
          "duration_ticks": 3838,
          "channel": 2
        },
        {
          "note": 51,
          "start": 53.194391,
          "duration": 2.538357,
          "velocity": 0.425197,
          "start_tick": 80430,
          "duration_ticks": 3838,
          "channel": 2
        },
        {
          "note": 55,
          "start": 53.194391,
          "duration": 2.538357,
          "velocity": 0.425197,
          "start_tick": 80430,
          "duration_ticks": 3838,
          "channel": 2
        },
        {
          "note": 35,
          "start": 55.732748,
          "duration": 2.538357,
          "velocity": 0.425197,
          "start_tick": 84268,
          "duration_ticks": 3838,
          "channel": 2
        },
        {
          "note": 47,
          "start": 55.732748,
          "duration": 2.538357,
          "velocity": 0.425197,
          "start_tick": 84268,
          "duration_ticks": 3838,
          "channel": 2
        },
        {
          "note": 50,
          "start": 55.732748,
          "duration": 2.538357,
          "velocity": 0.425197,
          "start_tick": 84268,
          "duration_ticks": 3838,
          "channel": 2
        },
        {
          "note": 55,
          "start": 55.732748,
          "duration": 2.538357,
          "velocity": 0.425197,
          "start_tick": 84268,
          "duration_ticks": 3838,
          "channel": 2
        },
        {
          "note": 29,
          "start": 58.271106,
          "duration": 2.538357,
          "velocity": 0.425197,
          "start_tick": 88106,
          "duration_ticks": 3838,
          "channel": 2
        },
        {
          "note": 48,
          "start": 58.271106,
          "duration": 2.538357,
          "velocity": 0.425197,
          "start_tick": 88106,
          "duration_ticks": 3838,
          "channel": 2
        },
        {
          "note": 53,
          "start": 58.271106,
          "duration": 2.538357,
          "velocity": 0.425197,
          "start_tick": 88106,
          "duration_ticks": 3838,
          "channel": 2
        },
        {
          "note": 56,
          "start": 58.271106,
          "duration": 2.538357,
          "velocity": 0.425197,
          "start_tick": 88106,
          "duration_ticks": 3838,
          "channel": 2
        },
        {
          "note": 48,
          "start": 60.809463,
          "duration": 2.538357,
          "velocity": 0.425197,
          "start_tick": 91944,
          "duration_ticks": 3838,
          "channel": 2
        },
        {
          "note": 51,
          "start": 60.809463,
          "duration": 2.538357,
          "velocity": 0.425197,
          "start_tick": 91944,
          "duration_ticks": 3838,
          "channel": 2
        },
        {
          "note": 55,
          "start": 60.809463,
          "duration": 2.538357,
          "velocity": 0.425197,
          "start_tick": 91944,
          "duration_ticks": 3838,
          "channel": 2
        },
        {
          "note": 46,
          "start": 63.34782,
          "duration": 2.519839,
          "velocity": 0.425197,
          "start_tick": 95782,
          "duration_ticks": 3810,
          "channel": 2
        },
        {
          "note": 51,
          "start": 63.34782,
          "duration": 2.519839,
          "velocity": 0.425197,
          "start_tick": 95782,
          "duration_ticks": 3810,
          "channel": 2
        },
        {
          "note": 55,
          "start": 63.34782,
          "duration": 2.519839,
          "velocity": 0.425197,
          "start_tick": 95782,
          "duration_ticks": 3810,
          "channel": 2
        },
        {
          "note": 43,
          "start": 65.867659,
          "duration": 2.492061,
          "velocity": 0.425197,
          "start_tick": 99592,
          "duration_ticks": 3768,
          "channel": 2
        },
        {
          "note": 47,
          "start": 65.867659,
          "duration": 2.492061,
          "velocity": 0.425197,
          "start_tick": 99592,
          "duration_ticks": 3768,
          "channel": 2
        },
        {
          "note": 50,
          "start": 65.867659,
          "duration": 2.492061,
          "velocity": 0.425197,
          "start_tick": 99592,
          "duration_ticks": 3768,
          "channel": 2
        },
        {
          "note": 55,
          "start": 65.867659,
          "duration": 2.492061,
          "velocity": 0.425197,
          "start_tick": 99592,
          "duration_ticks": 3768,
          "channel": 2
        },
        {
          "note": 41,
          "start": 68.35972,
          "duration": 2.492061,
          "velocity": 0.425197,
          "start_tick": 103360,
          "duration_ticks": 3768,
          "channel": 2
        },
        {
          "note": 44,
          "start": 68.35972,
          "duration": 2.492061,
          "velocity": 0.425197,
          "start_tick": 103360,
          "duration_ticks": 3768,
          "channel": 2
        },
        {
          "note": 48,
          "start": 68.35972,
          "duration": 2.492061,
          "velocity": 0.425197,
          "start_tick": 103360,
          "duration_ticks": 3768,
          "channel": 2
        },
        {
          "note": 53,
          "start": 68.35972,
          "duration": 2.492061,
          "velocity": 0.425197,
          "start_tick": 103360,
          "duration_ticks": 3768,
          "channel": 2
        },
        {
          "note": 32,
          "start": 70.851781,
          "duration": 2.492061,
          "velocity": 0.425197,
          "start_tick": 107128,
          "duration_ticks": 3768,
          "channel": 2
        },
        {
          "note": 48,
          "start": 70.851781,
          "duration": 2.492061,
          "velocity": 0.425197,
          "start_tick": 107128,
          "duration_ticks": 3768,
          "channel": 2
        },
        {
          "note": 51,
          "start": 70.851781,
          "duration": 2.492061,
          "velocity": 0.425197,
          "start_tick": 107128,
          "duration_ticks": 3768,
          "channel": 2
        },
        {
          "note": 56,
          "start": 70.851781,
          "duration": 2.492061,
          "velocity": 0.425197,
          "start_tick": 107128,
          "duration_ticks": 3768,
          "channel": 2
        },
        {
          "note": 39,
          "start": 73.343842,
          "duration": 2.542987,
          "velocity": 0.425197,
          "start_tick": 110896,
          "duration_ticks": 3845,
          "channel": 2
        },
        {
          "note": 46,
          "start": 73.343842,
          "duration": 2.542987,
          "velocity": 0.425197,
          "start_tick": 110896,
          "duration_ticks": 3845,
          "channel": 2
        },
        {
          "note": 51,
          "start": 73.343842,
          "duration": 2.542987,
          "velocity": 0.425197,
          "start_tick": 110896,
          "duration_ticks": 3845,
          "channel": 2
        },
        {
          "note": 55,
          "start": 73.343842,
          "duration": 2.542987,
          "velocity": 0.425197,
          "start_tick": 110896,
          "duration_ticks": 3845,
          "channel": 2
        },
        {
          "note": 35,
          "start": 75.886829,
          "duration": 2.601188,
          "velocity": 0.425197,
          "start_tick": 114741,
          "duration_ticks": 3933,
          "channel": 2
        },
        {
          "note": 47,
          "start": 75.886829,
          "duration": 2.601188,
          "velocity": 0.425197,
          "start_tick": 114741,
          "duration_ticks": 3933,
          "channel": 2
        },
        {
          "note": 50,
          "start": 75.886829,
          "duration": 2.601188,
          "velocity": 0.425197,
          "start_tick": 114741,
          "duration_ticks": 3933,
          "channel": 2
        },
        {
          "note": 55,
          "start": 75.886829,
          "duration": 2.601188,
          "velocity": 0.425197,
          "start_tick": 114741,
          "duration_ticks": 3933,
          "channel": 2
        },
        {
          "note": 29,
          "start": 78.488017,
          "duration": 2.601188,
          "velocity": 0.425197,
          "start_tick": 118674,
          "duration_ticks": 3933,
          "channel": 2
        },
        {
          "note": 48,
          "start": 78.488017,
          "duration": 2.601188,
          "velocity": 0.425197,
          "start_tick": 118674,
          "duration_ticks": 3933,
          "channel": 2
        },
        {
          "note": 53,
          "start": 78.488017,
          "duration": 2.601188,
          "velocity": 0.425197,
          "start_tick": 118674,
          "duration_ticks": 3933,
          "channel": 2
        },
        {
          "note": 56,
          "start": 78.488017,
          "duration": 2.601188,
          "velocity": 0.425197,
          "start_tick": 118674,
          "duration_ticks": 3933,
          "channel": 2
        },
        {
          "note": 48,
          "start": 81.089205,
          "duration": 2.601188,
          "velocity": 0.425197,
          "start_tick": 122607,
          "duration_ticks": 3933,
          "channel": 2
        },
        {
          "note": 51,
          "start": 81.089205,
          "duration": 2.601188,
          "velocity": 0.425197,
          "start_tick": 122607,
          "duration_ticks": 3933,
          "channel": 2
        },
        {
          "note": 55,
          "start": 81.089205,
          "duration": 2.601188,
          "velocity": 0.425197,
          "start_tick": 122607,
          "duration_ticks": 3933,
          "channel": 2
        },
        {
          "note": 46,
          "start": 83.690393,
          "duration": 2.585315,
          "velocity": 0.425197,
          "start_tick": 126540,
          "duration_ticks": 3909,
          "channel": 2
        },
        {
          "note": 51,
          "start": 83.690393,
          "duration": 2.585315,
          "velocity": 0.425197,
          "start_tick": 126540,
          "duration_ticks": 3909,
          "channel": 2
        },
        {
          "note": 55,
          "start": 83.690393,
          "duration": 2.585315,
          "velocity": 0.425197,
          "start_tick": 126540,
          "duration_ticks": 3909,
          "channel": 2
        },
        {
          "note": 43,
          "start": 86.275707,
          "duration": 2.571426,
          "velocity": 0.425197,
          "start_tick": 130449,
          "duration_ticks": 3888,
          "channel": 2
        },
        {
          "note": 47,
          "start": 86.275707,
          "duration": 2.571426,
          "velocity": 0.425197,
          "start_tick": 130449,
          "duration_ticks": 3888,
          "channel": 2
        },
        {
          "note": 50,
          "start": 86.275707,
          "duration": 2.571426,
          "velocity": 0.425197,
          "start_tick": 130449,
          "duration_ticks": 3888,
          "channel": 2
        },
        {
          "note": 55,
          "start": 86.275707,
          "duration": 2.571426,
          "velocity": 0.425197,
          "start_tick": 130449,
          "duration_ticks": 3888,
          "channel": 2
        },
        {
          "note": 41,
          "start": 88.847133,
          "duration": 2.570765,
          "velocity": 0.425197,
          "start_tick": 134337,
          "duration_ticks": 3887,
          "channel": 2
        },
        {
          "note": 44,
          "start": 88.847133,
          "duration": 2.570765,
          "velocity": 0.425197,
          "start_tick": 134337,
          "duration_ticks": 3887,
          "channel": 2
        },
        {
          "note": 48,
          "start": 88.847133,
          "duration": 2.570765,
          "velocity": 0.425197,
          "start_tick": 134337,
          "duration_ticks": 3887,
          "channel": 2
        },
        {
          "note": 53,
          "start": 88.847133,
          "duration": 2.570765,
          "velocity": 0.425197,
          "start_tick": 134337,
          "duration_ticks": 3887,
          "channel": 2
        },
        {
          "note": 32,
          "start": 91.417898,
          "duration": 2.571426,
          "velocity": 0.425197,
          "start_tick": 138224,
          "duration_ticks": 3888,
          "channel": 2
        },
        {
          "note": 48,
          "start": 91.417898,
          "duration": 2.571426,
          "velocity": 0.425197,
          "start_tick": 138224,
          "duration_ticks": 3888,
          "channel": 2
        },
        {
          "note": 51,
          "start": 91.417898,
          "duration": 2.571426,
          "velocity": 0.425197,
          "start_tick": 138224,
          "duration_ticks": 3888,
          "channel": 2
        },
        {
          "note": 56,
          "start": 91.417898,
          "duration": 2.571426,
          "velocity": 0.425197,
          "start_tick": 138224,
          "duration_ticks": 3888,
          "channel": 2
        },
        {
          "note": 39,
          "start": 93.989324,
          "duration": 2.54431,
          "velocity": 0.425197,
          "start_tick": 142112,
          "duration_ticks": 3847,
          "channel": 2
        },
        {
          "note": 46,
          "start": 93.989324,
          "duration": 2.54431,
          "velocity": 0.425197,
          "start_tick": 142112,
          "duration_ticks": 3847,
          "channel": 2
        },
        {
          "note": 51,
          "start": 93.989324,
          "duration": 2.54431,
          "velocity": 0.425197,
          "start_tick": 142112,
          "duration_ticks": 3847,
          "channel": 2
        },
        {
          "note": 55,
          "start": 93.989324,
          "duration": 2.54431,
          "velocity": 0.425197,
          "start_tick": 142112,
          "duration_ticks": 3847,
          "channel": 2
        },
        {
          "note": 35,
          "start": 96.533634,
          "duration": 2.524468,
          "velocity": 0.425197,
          "start_tick": 145959,
          "duration_ticks": 3817,
          "channel": 2
        },
        {
          "note": 47,
          "start": 96.533634,
          "duration": 2.524468,
          "velocity": 0.425197,
          "start_tick": 145959,
          "duration_ticks": 3817,
          "channel": 2
        },
        {
          "note": 50,
          "start": 96.533634,
          "duration": 2.524468,
          "velocity": 0.425197,
          "start_tick": 145959,
          "duration_ticks": 3817,
          "channel": 2
        },
        {
          "note": 55,
          "start": 96.533634,
          "duration": 2.524468,
          "velocity": 0.425197,
          "start_tick": 145959,
          "duration_ticks": 3817,
          "channel": 2
        },
        {
          "note": 29,
          "start": 99.058102,
          "duration": 2.52513,
          "velocity": 0.425197,
          "start_tick": 149776,
          "duration_ticks": 3818,
          "channel": 2
        },
        {
          "note": 48,
          "start": 99.058102,
          "duration": 2.52513,
          "velocity": 0.425197,
          "start_tick": 149776,
          "duration_ticks": 3818,
          "channel": 2
        },
        {
          "note": 53,
          "start": 99.058102,
          "duration": 2.52513,
          "velocity": 0.425197,
          "start_tick": 149776,
          "duration_ticks": 3818,
          "channel": 2
        },
        {
          "note": 56,
          "start": 99.058102,
          "duration": 2.52513,
          "velocity": 0.425197,
          "start_tick": 149776,
          "duration_ticks": 3818,
          "channel": 2
        },
        {
          "note": 48,
          "start": 101.583232,
          "duration": 2.52513,
          "velocity": 0.425197,
          "start_tick": 153594,
          "duration_ticks": 3818,
          "channel": 2
        },
        {
          "note": 51,
          "start": 101.583232,
          "duration": 2.52513,
          "velocity": 0.425197,
          "start_tick": 153594,
          "duration_ticks": 3818,
          "channel": 2
        },
        {
          "note": 55,
          "start": 101.583232,
          "duration": 2.52513,
          "velocity": 0.425197,
          "start_tick": 153594,
          "duration_ticks": 3818,
          "channel": 2
        },
        {
          "note": 46,
          "start": 104.108362,
          "duration": 2.52513,
          "velocity": 0.425197,
          "start_tick": 157412,
          "duration_ticks": 3818,
          "channel": 2
        },
        {
          "note": 51,
          "start": 104.108362,
          "duration": 2.52513,
          "velocity": 0.425197,
          "start_tick": 157412,
          "duration_ticks": 3818,
          "channel": 2
        },
        {
          "note": 55,
          "start": 104.108362,
          "duration": 2.52513,
          "velocity": 0.425197,
          "start_tick": 157412,
          "duration_ticks": 3818,
          "channel": 2
        },
        {
          "note": 43,
          "start": 106.633491,
          "duration": 2.52513,
          "velocity": 0.425197,
          "start_tick": 161230,
          "duration_ticks": 3818,
          "channel": 2
        },
        {
          "note": 47,
          "start": 106.633491,
          "duration": 2.52513,
          "velocity": 0.425197,
          "start_tick": 161230,
          "duration_ticks": 3818,
          "channel": 2
        },
        {
          "note": 50,
          "start": 106.633491,
          "duration": 2.52513,
          "velocity": 0.425197,
          "start_tick": 161230,
          "duration_ticks": 3818,
          "channel": 2
        },
        {
          "note": 55,
          "start": 106.633491,
          "duration": 2.52513,
          "velocity": 0.425197,
          "start_tick": 161230,
          "duration_ticks": 3818,
          "channel": 2
        },
        {
          "note": 41,
          "start": 109.158621,
          "duration": 2.52513,
          "velocity": 0.425197,
          "start_tick": 165048,
          "duration_ticks": 3818,
          "channel": 2
        },
        {
          "note": 44,
          "start": 109.158621,
          "duration": 2.52513,
          "velocity": 0.425197,
          "start_tick": 165048,
          "duration_ticks": 3818,
          "channel": 2
        },
        {
          "note": 48,
          "start": 109.158621,
          "duration": 2.52513,
          "velocity": 0.425197,
          "start_tick": 165048,
          "duration_ticks": 3818,
          "channel": 2
        },
        {
          "note": 53,
          "start": 109.158621,
          "duration": 2.52513,
          "velocity": 0.425197,
          "start_tick": 165048,
          "duration_ticks": 3818,
          "channel": 2
        },
        {
          "note": 32,
          "start": 111.683751,
          "duration": 2.52513,
          "velocity": 0.425197,
          "start_tick": 168866,
          "duration_ticks": 3818,
          "channel": 2
        },
        {
          "note": 48,
          "start": 111.683751,
          "duration": 2.52513,
          "velocity": 0.425197,
          "start_tick": 168866,
          "duration_ticks": 3818,
          "channel": 2
        },
        {
          "note": 51,
          "start": 111.683751,
          "duration": 2.52513,
          "velocity": 0.425197,
          "start_tick": 168866,
          "duration_ticks": 3818,
          "channel": 2
        },
        {
          "note": 56,
          "start": 111.683751,
          "duration": 2.52513,
          "velocity": 0.425197,
          "start_tick": 168866,
          "duration_ticks": 3818,
          "channel": 2
        },
        {
          "note": 39,
          "start": 114.208881,
          "duration": 2.52513,
          "velocity": 0.425197,
          "start_tick": 172684,
          "duration_ticks": 3818,
          "channel": 2
        },
        {
          "note": 46,
          "start": 114.208881,
          "duration": 2.52513,
          "velocity": 0.425197,
          "start_tick": 172684,
          "duration_ticks": 3818,
          "channel": 2
        },
        {
          "note": 51,
          "start": 114.208881,
          "duration": 2.52513,
          "velocity": 0.425197,
          "start_tick": 172684,
          "duration_ticks": 3818,
          "channel": 2
        },
        {
          "note": 55,
          "start": 114.208881,
          "duration": 2.52513,
          "velocity": 0.425197,
          "start_tick": 172684,
          "duration_ticks": 3818,
          "channel": 2
        },
        {
          "note": 35,
          "start": 116.73401,
          "duration": 2.524468,
          "velocity": 0.425197,
          "start_tick": 176502,
          "duration_ticks": 3817,
          "channel": 2
        },
        {
          "note": 47,
          "start": 116.73401,
          "duration": 2.524468,
          "velocity": 0.425197,
          "start_tick": 176502,
          "duration_ticks": 3817,
          "channel": 2
        },
        {
          "note": 50,
          "start": 116.73401,
          "duration": 2.524468,
          "velocity": 0.425197,
          "start_tick": 176502,
          "duration_ticks": 3817,
          "channel": 2
        },
        {
          "note": 55,
          "start": 116.73401,
          "duration": 2.524468,
          "velocity": 0.425197,
          "start_tick": 176502,
          "duration_ticks": 3817,
          "channel": 2
        },
        {
          "note": 29,
          "start": 119.258479,
          "duration": 8.601182,
          "velocity": 0.425197,
          "start_tick": 180319,
          "duration_ticks": 13005,
          "channel": 2
        },
        {
          "note": 48,
          "start": 119.258479,
          "duration": 8.601182,
          "velocity": 0.425197,
          "start_tick": 180319,
          "duration_ticks": 13005,
          "channel": 2
        },
        {
          "note": 53,
          "start": 119.258479,
          "duration": 8.601182,
          "velocity": 0.425197,
          "start_tick": 180319,
          "duration_ticks": 13005,
          "channel": 2
        },
        {
          "note": 56,
          "start": 119.258479,
          "duration": 8.601182,
          "velocity": 0.425197,
          "start_tick": 180319,
          "duration_ticks": 13005,
          "channel": 2
        },
        {
          "note": 48,
          "start": 129.358998,
          "duration": 2.52513,
          "velocity": 0.425197,
          "start_tick": 195591,
          "duration_ticks": 3818,
          "channel": 2
        },
        {
          "note": 51,
          "start": 129.358998,
          "duration": 2.52513,
          "velocity": 0.425197,
          "start_tick": 195591,
          "duration_ticks": 3818,
          "channel": 2
        },
        {
          "note": 55,
          "start": 129.358998,
          "duration": 2.52513,
          "velocity": 0.425197,
          "start_tick": 195591,
          "duration_ticks": 3818,
          "channel": 2
        },
        {
          "note": 46,
          "start": 131.884127,
          "duration": 2.52513,
          "velocity": 0.425197,
          "start_tick": 199409,
          "duration_ticks": 3818,
          "channel": 2
        },
        {
          "note": 51,
          "start": 131.884127,
          "duration": 2.52513,
          "velocity": 0.425197,
          "start_tick": 199409,
          "duration_ticks": 3818,
          "channel": 2
        },
        {
          "note": 55,
          "start": 131.884127,
          "duration": 2.52513,
          "velocity": 0.425197,
          "start_tick": 199409,
          "duration_ticks": 3818,
          "channel": 2
        },
        {
          "note": 43,
          "start": 134.409257,
          "duration": 2.571426,
          "velocity": 0.425197,
          "start_tick": 203227,
          "duration_ticks": 3888,
          "channel": 2
        },
        {
          "note": 47,
          "start": 134.409257,
          "duration": 2.571426,
          "velocity": 0.425197,
          "start_tick": 203227,
          "duration_ticks": 3888,
          "channel": 2
        },
        {
          "note": 50,
          "start": 134.409257,
          "duration": 2.571426,
          "velocity": 0.425197,
          "start_tick": 203227,
          "duration_ticks": 3888,
          "channel": 2
        },
        {
          "note": 55,
          "start": 134.409257,
          "duration": 2.571426,
          "velocity": 0.425197,
          "start_tick": 203227,
          "duration_ticks": 3888,
          "channel": 2
        },
        {
          "note": 41,
          "start": 136.980683,
          "duration": 2.580685,
          "velocity": 0.425197,
          "start_tick": 207115,
          "duration_ticks": 3902,
          "channel": 2
        },
        {
          "note": 44,
          "start": 136.980683,
          "duration": 2.580685,
          "velocity": 0.425197,
          "start_tick": 207115,
          "duration_ticks": 3902,
          "channel": 2
        },
        {
          "note": 48,
          "start": 136.980683,
          "duration": 2.580685,
          "velocity": 0.425197,
          "start_tick": 207115,
          "duration_ticks": 3902,
          "channel": 2
        },
        {
          "note": 53,
          "start": 136.980683,
          "duration": 2.580685,
          "velocity": 0.425197,
          "start_tick": 207115,
          "duration_ticks": 3902,
          "channel": 2
        },
        {
          "note": 32,
          "start": 139.561368,
          "duration": 2.580024,
          "velocity": 0.425197,
          "start_tick": 211017,
          "duration_ticks": 3901,
          "channel": 2
        },
        {
          "note": 48,
          "start": 139.561368,
          "duration": 2.580024,
          "velocity": 0.425197,
          "start_tick": 211017,
          "duration_ticks": 3901,
          "channel": 2
        },
        {
          "note": 51,
          "start": 139.561368,
          "duration": 2.580024,
          "velocity": 0.425197,
          "start_tick": 211017,
          "duration_ticks": 3901,
          "channel": 2
        },
        {
          "note": 56,
          "start": 139.561368,
          "duration": 2.580024,
          "velocity": 0.425197,
          "start_tick": 211017,
          "duration_ticks": 3901,
          "channel": 2
        },
        {
          "note": 39,
          "start": 142.141392,
          "duration": 2.580024,
          "velocity": 0.425197,
          "start_tick": 214918,
          "duration_ticks": 3901,
          "channel": 2
        },
        {
          "note": 46,
          "start": 142.141392,
          "duration": 2.580024,
          "velocity": 0.425197,
          "start_tick": 214918,
          "duration_ticks": 3901,
          "channel": 2
        },
        {
          "note": 51,
          "start": 142.141392,
          "duration": 2.580024,
          "velocity": 0.425197,
          "start_tick": 214918,
          "duration_ticks": 3901,
          "channel": 2
        },
        {
          "note": 55,
          "start": 142.141392,
          "duration": 2.580024,
          "velocity": 0.425197,
          "start_tick": 214918,
          "duration_ticks": 3901,
          "channel": 2
        },
        {
          "note": 35,
          "start": 144.721416,
          "duration": 2.583331,
          "velocity": 0.425197,
          "start_tick": 218819,
          "duration_ticks": 3906,
          "channel": 2
        },
        {
          "note": 47,
          "start": 144.721416,
          "duration": 2.583331,
          "velocity": 0.425197,
          "start_tick": 218819,
          "duration_ticks": 3906,
          "channel": 2
        },
        {
          "note": 50,
          "start": 144.721416,
          "duration": 2.583331,
          "velocity": 0.425197,
          "start_tick": 218819,
          "duration_ticks": 3906,
          "channel": 2
        },
        {
          "note": 55,
          "start": 144.721416,
          "duration": 2.583331,
          "velocity": 0.425197,
          "start_tick": 218819,
          "duration_ticks": 3906,
          "channel": 2
        },
        {
          "note": 29,
          "start": 147.304747,
          "duration": 2.583331,
          "velocity": 0.425197,
          "start_tick": 222725,
          "duration_ticks": 3906,
          "channel": 2
        },
        {
          "note": 48,
          "start": 147.304747,
          "duration": 1.937829,
          "velocity": 0.425197,
          "start_tick": 222725,
          "duration_ticks": 2930,
          "channel": 2
        },
        {
          "note": 53,
          "start": 147.304747,
          "duration": 1.937829,
          "velocity": 0.425197,
          "start_tick": 222725,
          "duration_ticks": 2930,
          "channel": 2
        },
        {
          "note": 56,
          "start": 147.304747,
          "duration": 1.937829,
          "velocity": 0.425197,
          "start_tick": 222725,
          "duration_ticks": 2930,
          "channel": 2
        },
        {
          "note": 48,
          "start": 149.888078,
          "duration": 2.583331,
          "velocity": 0.425197,
          "start_tick": 226631,
          "duration_ticks": 3906,
          "channel": 2
        },
        {
          "note": 51,
          "start": 149.888078,
          "duration": 2.583331,
          "velocity": 0.425197,
          "start_tick": 226631,
          "duration_ticks": 3906,
          "channel": 2
        },
        {
          "note": 55,
          "start": 149.888078,
          "duration": 2.583331,
          "velocity": 0.425197,
          "start_tick": 226631,
          "duration_ticks": 3906,
          "channel": 2
        },
        {
          "note": 46,
          "start": 152.471408,
          "duration": 2.583992,
          "velocity": 0.425197,
          "start_tick": 230537,
          "duration_ticks": 3907,
          "channel": 2
        },
        {
          "note": 51,
          "start": 152.471408,
          "duration": 2.583992,
          "velocity": 0.425197,
          "start_tick": 230537,
          "duration_ticks": 3907,
          "channel": 2
        },
        {
          "note": 55,
          "start": 152.471408,
          "duration": 2.583992,
          "velocity": 0.425197,
          "start_tick": 230537,
          "duration_ticks": 3907,
          "channel": 2
        },
        {
          "note": 43,
          "start": 155.0554,
          "duration": 2.564812,
          "velocity": 0.425197,
          "start_tick": 234444,
          "duration_ticks": 3878,
          "channel": 2
        },
        {
          "note": 47,
          "start": 155.0554,
          "duration": 2.564812,
          "velocity": 0.425197,
          "start_tick": 234444,
          "duration_ticks": 3878,
          "channel": 2
        },
        {
          "note": 50,
          "start": 155.0554,
          "duration": 2.564812,
          "velocity": 0.425197,
          "start_tick": 234444,
          "duration_ticks": 3878,
          "channel": 2
        },
        {
          "note": 55,
          "start": 155.0554,
          "duration": 2.564812,
          "velocity": 0.425197,
          "start_tick": 234444,
          "duration_ticks": 3878,
          "channel": 2
        },
        {
          "note": 41,
          "start": 157.620213,
          "duration": 2.564151,
          "velocity": 0.425197,
          "start_tick": 238322,
          "duration_ticks": 3877,
          "channel": 2
        },
        {
          "note": 44,
          "start": 157.620213,
          "duration": 2.564151,
          "velocity": 0.425197,
          "start_tick": 238322,
          "duration_ticks": 3877,
          "channel": 2
        },
        {
          "note": 48,
          "start": 157.620213,
          "duration": 2.564151,
          "velocity": 0.425197,
          "start_tick": 238322,
          "duration_ticks": 3877,
          "channel": 2
        },
        {
          "note": 53,
          "start": 157.620213,
          "duration": 2.564151,
          "velocity": 0.425197,
          "start_tick": 238322,
          "duration_ticks": 3877,
          "channel": 2
        },
        {
          "note": 32,
          "start": 160.184364,
          "duration": 2.564812,
          "velocity": 0.425197,
          "start_tick": 242199,
          "duration_ticks": 3878,
          "channel": 2
        },
        {
          "note": 48,
          "start": 160.184364,
          "duration": 2.564812,
          "velocity": 0.425197,
          "start_tick": 242199,
          "duration_ticks": 3878,
          "channel": 2
        },
        {
          "note": 51,
          "start": 160.184364,
          "duration": 2.564812,
          "velocity": 0.425197,
          "start_tick": 242199,
          "duration_ticks": 3878,
          "channel": 2
        },
        {
          "note": 56,
          "start": 160.184364,
          "duration": 2.564812,
          "velocity": 0.425197,
          "start_tick": 242199,
          "duration_ticks": 3878,
          "channel": 2
        },
        {
          "note": 39,
          "start": 162.749176,
          "duration": 2.562828,
          "velocity": 0.425197,
          "start_tick": 246077,
          "duration_ticks": 3875,
          "channel": 2
        },
        {
          "note": 46,
          "start": 162.749176,
          "duration": 2.562828,
          "velocity": 0.425197,
          "start_tick": 246077,
          "duration_ticks": 3875,
          "channel": 2
        },
        {
          "note": 51,
          "start": 162.749176,
          "duration": 2.562828,
          "velocity": 0.425197,
          "start_tick": 246077,
          "duration_ticks": 3875,
          "channel": 2
        },
        {
          "note": 55,
          "start": 162.749176,
          "duration": 2.562828,
          "velocity": 0.425197,
          "start_tick": 246077,
          "duration_ticks": 3875,
          "channel": 2
        },
        {
          "note": 35,
          "start": 165.312004,
          "duration": 2.515209,
          "velocity": 0.425197,
          "start_tick": 249952,
          "duration_ticks": 3803,
          "channel": 2
        },
        {
          "note": 47,
          "start": 165.312004,
          "duration": 2.515209,
          "velocity": 0.425197,
          "start_tick": 249952,
          "duration_ticks": 3803,
          "channel": 2
        },
        {
          "note": 50,
          "start": 165.312004,
          "duration": 2.515209,
          "velocity": 0.425197,
          "start_tick": 249952,
          "duration_ticks": 3803,
          "channel": 2
        },
        {
          "note": 55,
          "start": 165.312004,
          "duration": 2.515209,
          "velocity": 0.425197,
          "start_tick": 249952,
          "duration_ticks": 3803,
          "channel": 2
        },
        {
          "note": 29,
          "start": 167.827213,
          "duration": 2.515871,
          "velocity": 0.425197,
          "start_tick": 253755,
          "duration_ticks": 3804,
          "channel": 2
        },
        {
          "note": 48,
          "start": 167.827213,
          "duration": 2.515871,
          "velocity": 0.425197,
          "start_tick": 253755,
          "duration_ticks": 3804,
          "channel": 2
        },
        {
          "note": 53,
          "start": 167.827213,
          "duration": 2.515871,
          "velocity": 0.425197,
          "start_tick": 253755,
          "duration_ticks": 3804,
          "channel": 2
        },
        {
          "note": 56,
          "start": 167.827213,
          "duration": 2.515871,
          "velocity": 0.425197,
          "start_tick": 253755,
          "duration_ticks": 3804,
          "channel": 2
        },
        {
          "note": 48,
          "start": 170.343084,
          "duration": 2.515871,
          "velocity": 0.425197,
          "start_tick": 257559,
          "duration_ticks": 3804,
          "channel": 2
        },
        {
          "note": 51,
          "start": 170.343084,
          "duration": 2.515871,
          "velocity": 0.425197,
          "start_tick": 257559,
          "duration_ticks": 3804,
          "channel": 2
        },
        {
          "note": 55,
          "start": 170.343084,
          "duration": 2.515871,
          "velocity": 0.425197,
          "start_tick": 257559,
          "duration_ticks": 3804,
          "channel": 2
        },
        {
          "note": 46,
          "start": 172.858954,
          "duration": 2.515209,
          "velocity": 0.425197,
          "start_tick": 261363,
          "duration_ticks": 3803,
          "channel": 2
        },
        {
          "note": 51,
          "start": 172.858954,
          "duration": 2.515209,
          "velocity": 0.425197,
          "start_tick": 261363,
          "duration_ticks": 3803,
          "channel": 2
        },
        {
          "note": 55,
          "start": 172.858954,
          "duration": 2.515209,
          "velocity": 0.425197,
          "start_tick": 261363,
          "duration_ticks": 3803,
          "channel": 2
        },
        {
          "note": 43,
          "start": 175.374163,
          "duration": 2.51587,
          "velocity": 0.425197,
          "start_tick": 265166,
          "duration_ticks": 3804,
          "channel": 2
        },
        {
          "note": 47,
          "start": 175.374163,
          "duration": 2.51587,
          "velocity": 0.425197,
          "start_tick": 265166,
          "duration_ticks": 3804,
          "channel": 2
        },
        {
          "note": 50,
          "start": 175.374163,
          "duration": 2.51587,
          "velocity": 0.425197,
          "start_tick": 265166,
          "duration_ticks": 3804,
          "channel": 2
        },
        {
          "note": 55,
          "start": 175.374163,
          "duration": 2.51587,
          "velocity": 0.425197,
          "start_tick": 265166,
          "duration_ticks": 3804,
          "channel": 2
        },
        {
          "note": 41,
          "start": 177.890034,
          "duration": 2.515871,
          "velocity": 0.425197,
          "start_tick": 268970,
          "duration_ticks": 3804,
          "channel": 2
        },
        {
          "note": 44,
          "start": 177.890034,
          "duration": 2.515871,
          "velocity": 0.425197,
          "start_tick": 268970,
          "duration_ticks": 3804,
          "channel": 2
        },
        {
          "note": 48,
          "start": 177.890034,
          "duration": 2.515871,
          "velocity": 0.425197,
          "start_tick": 268970,
          "duration_ticks": 3804,
          "channel": 2
        },
        {
          "note": 53,
          "start": 177.890034,
          "duration": 2.515871,
          "velocity": 0.425197,
          "start_tick": 268970,
          "duration_ticks": 3804,
          "channel": 2
        },
        {
          "note": 32,
          "start": 180.405904,
          "duration": 2.515209,
          "velocity": 0.425197,
          "start_tick": 272774,
          "duration_ticks": 3803,
          "channel": 2
        },
        {
          "note": 48,
          "start": 180.405904,
          "duration": 2.515209,
          "velocity": 0.425197,
          "start_tick": 272774,
          "duration_ticks": 3803,
          "channel": 2
        },
        {
          "note": 51,
          "start": 180.405904,
          "duration": 2.515209,
          "velocity": 0.425197,
          "start_tick": 272774,
          "duration_ticks": 3803,
          "channel": 2
        },
        {
          "note": 56,
          "start": 180.405904,
          "duration": 2.515209,
          "velocity": 0.425197,
          "start_tick": 272774,
          "duration_ticks": 3803,
          "channel": 2
        },
        {
          "note": 39,
          "start": 182.921113,
          "duration": 2.521823,
          "velocity": 0.425197,
          "start_tick": 276577,
          "duration_ticks": 3813,
          "channel": 2
        },
        {
          "note": 46,
          "start": 182.921113,
          "duration": 2.521823,
          "velocity": 0.425197,
          "start_tick": 276577,
          "duration_ticks": 3813,
          "channel": 2
        },
        {
          "note": 51,
          "start": 182.921113,
          "duration": 2.521823,
          "velocity": 0.425197,
          "start_tick": 276577,
          "duration_ticks": 3813,
          "channel": 2
        },
        {
          "note": 55,
          "start": 182.921113,
          "duration": 2.521823,
          "velocity": 0.425197,
          "start_tick": 276577,
          "duration_ticks": 3813,
          "channel": 2
        },
        {
          "note": 35,
          "start": 185.442936,
          "duration": 2.552908,
          "velocity": 0.425197,
          "start_tick": 280390,
          "duration_ticks": 3860,
          "channel": 2
        },
        {
          "note": 47,
          "start": 185.442936,
          "duration": 2.552908,
          "velocity": 0.425197,
          "start_tick": 280390,
          "duration_ticks": 3860,
          "channel": 2
        },
        {
          "note": 50,
          "start": 185.442936,
          "duration": 2.552908,
          "velocity": 0.425197,
          "start_tick": 280390,
          "duration_ticks": 3860,
          "channel": 2
        },
        {
          "note": 55,
          "start": 185.442936,
          "duration": 2.552908,
          "velocity": 0.425197,
          "start_tick": 280390,
          "duration_ticks": 3860,
          "channel": 2
        },
        {
          "note": 29,
          "start": 187.995844,
          "duration": 2.553569,
          "velocity": 0.425197,
          "start_tick": 284250,
          "duration_ticks": 3861,
          "channel": 2
        },
        {
          "note": 48,
          "start": 187.995844,
          "duration": 2.553569,
          "velocity": 0.425197,
          "start_tick": 284250,
          "duration_ticks": 3861,
          "channel": 2
        },
        {
          "note": 53,
          "start": 187.995844,
          "duration": 2.553569,
          "velocity": 0.425197,
          "start_tick": 284250,
          "duration_ticks": 3861,
          "channel": 2
        },
        {
          "note": 56,
          "start": 187.995844,
          "duration": 2.553569,
          "velocity": 0.425197,
          "start_tick": 284250,
          "duration_ticks": 3861,
          "channel": 2
        },
        {
          "note": 48,
          "start": 190.549413,
          "duration": 2.552908,
          "velocity": 0.425197,
          "start_tick": 288111,
          "duration_ticks": 3860,
          "channel": 2
        },
        {
          "note": 51,
          "start": 190.549413,
          "duration": 2.552908,
          "velocity": 0.425197,
          "start_tick": 288111,
          "duration_ticks": 3860,
          "channel": 2
        },
        {
          "note": 55,
          "start": 190.549413,
          "duration": 2.552908,
          "velocity": 0.425197,
          "start_tick": 288111,
          "duration_ticks": 3860,
          "channel": 2
        },
        {
          "note": 46,
          "start": 193.10232,
          "duration": 2.553569,
          "velocity": 0.425197,
          "start_tick": 291971,
          "duration_ticks": 3861,
          "channel": 2
        },
        {
          "note": 51,
          "start": 193.10232,
          "duration": 2.553569,
          "velocity": 0.425197,
          "start_tick": 291971,
          "duration_ticks": 3861,
          "channel": 2
        },
        {
          "note": 55,
          "start": 193.10232,
          "duration": 2.553569,
          "velocity": 0.425197,
          "start_tick": 291971,
          "duration_ticks": 3861,
          "channel": 2
        },
        {
          "note": 43,
          "start": 195.655889,
          "duration": 2.552908,
          "velocity": 0.425197,
          "start_tick": 295832,
          "duration_ticks": 3860,
          "channel": 2
        },
        {
          "note": 47,
          "start": 195.655889,
          "duration": 2.552908,
          "velocity": 0.425197,
          "start_tick": 295832,
          "duration_ticks": 3860,
          "channel": 2
        },
        {
          "note": 50,
          "start": 195.655889,
          "duration": 2.552908,
          "velocity": 0.425197,
          "start_tick": 295832,
          "duration_ticks": 3860,
          "channel": 2
        },
        {
          "note": 55,
          "start": 195.655889,
          "duration": 2.552908,
          "velocity": 0.425197,
          "start_tick": 295832,
          "duration_ticks": 3860,
          "channel": 2
        },
        {
          "note": 41,
          "start": 198.208797,
          "duration": 2.553569,
          "velocity": 0.425197,
          "start_tick": 299692,
          "duration_ticks": 3861,
          "channel": 2
        },
        {
          "note": 44,
          "start": 198.208797,
          "duration": 2.553569,
          "velocity": 0.425197,
          "start_tick": 299692,
          "duration_ticks": 3861,
          "channel": 2
        },
        {
          "note": 48,
          "start": 198.208797,
          "duration": 2.553569,
          "velocity": 0.425197,
          "start_tick": 299692,
          "duration_ticks": 3861,
          "channel": 2
        },
        {
          "note": 53,
          "start": 198.208797,
          "duration": 2.553569,
          "velocity": 0.425197,
          "start_tick": 299692,
          "duration_ticks": 3861,
          "channel": 2
        },
        {
          "note": 32,
          "start": 200.762365,
          "duration": 2.552908,
          "velocity": 0.425197,
          "start_tick": 303553,
          "duration_ticks": 3860,
          "channel": 2
        },
        {
          "note": 48,
          "start": 200.762365,
          "duration": 2.552908,
          "velocity": 0.425197,
          "start_tick": 303553,
          "duration_ticks": 3860,
          "channel": 2
        },
        {
          "note": 51,
          "start": 200.762365,
          "duration": 2.552908,
          "velocity": 0.425197,
          "start_tick": 303553,
          "duration_ticks": 3860,
          "channel": 2
        },
        {
          "note": 56,
          "start": 200.762365,
          "duration": 2.552908,
          "velocity": 0.425197,
          "start_tick": 303553,
          "duration_ticks": 3860,
          "channel": 2
        },
        {
          "note": 39,
          "start": 203.315273,
          "duration": 2.541664,
          "velocity": 0.425197,
          "start_tick": 307413,
          "duration_ticks": 3843,
          "channel": 2
        },
        {
          "note": 46,
          "start": 203.315273,
          "duration": 2.541664,
          "velocity": 0.425197,
          "start_tick": 307413,
          "duration_ticks": 3843,
          "channel": 2
        },
        {
          "note": 51,
          "start": 203.315273,
          "duration": 2.541664,
          "velocity": 0.425197,
          "start_tick": 307413,
          "duration_ticks": 3843,
          "channel": 2
        },
        {
          "note": 55,
          "start": 203.315273,
          "duration": 2.541664,
          "velocity": 0.425197,
          "start_tick": 307413,
          "duration_ticks": 3843,
          "channel": 2
        },
        {
          "note": 35,
          "start": 205.856937,
          "duration": 2.511902,
          "velocity": 0.425197,
          "start_tick": 311256,
          "duration_ticks": 3798,
          "channel": 2
        },
        {
          "note": 47,
          "start": 205.856937,
          "duration": 2.511902,
          "velocity": 0.425197,
          "start_tick": 311256,
          "duration_ticks": 3798,
          "channel": 2
        },
        {
          "note": 50,
          "start": 205.856937,
          "duration": 2.511902,
          "velocity": 0.425197,
          "start_tick": 311256,
          "duration_ticks": 3798,
          "channel": 2
        },
        {
          "note": 55,
          "start": 205.856937,
          "duration": 2.511902,
          "velocity": 0.425197,
          "start_tick": 311256,
          "duration_ticks": 3798,
          "channel": 2
        },
        {
          "note": 29,
          "start": 208.368839,
          "duration": 1.884257,
          "velocity": 0.425197,
          "start_tick": 315054,
          "duration_ticks": 2849,
          "channel": 2
        },
        {
          "note": 48,
          "start": 208.368839,
          "duration": 1.884257,
          "velocity": 0.425197,
          "start_tick": 315054,
          "duration_ticks": 2849,
          "channel": 2
        },
        {
          "note": 53,
          "start": 208.368839,
          "duration": 1.884257,
          "velocity": 0.425197,
          "start_tick": 315054,
          "duration_ticks": 2849,
          "channel": 2
        },
        {
          "note": 56,
          "start": 208.368839,
          "duration": 1.884257,
          "velocity": 0.425197,
          "start_tick": 315054,
          "duration_ticks": 2849,
          "channel": 2
        },
        {
          "note": 48,
          "start": 210.880741,
          "duration": 2.512564,
          "velocity": 0.425197,
          "start_tick": 318852,
          "duration_ticks": 3799,
          "channel": 2
        },
        {
          "note": 51,
          "start": 210.880741,
          "duration": 2.512564,
          "velocity": 0.425197,
          "start_tick": 318852,
          "duration_ticks": 3799,
          "channel": 2
        },
        {
          "note": 55,
          "start": 210.880741,
          "duration": 2.512564,
          "velocity": 0.425197,
          "start_tick": 318852,
          "duration_ticks": 3799,
          "channel": 2
        },
        {
          "note": 46,
          "start": 213.393305,
          "duration": 2.511902,
          "velocity": 0.425197,
          "start_tick": 322651,
          "duration_ticks": 3798,
          "channel": 2
        },
        {
          "note": 51,
          "start": 213.393305,
          "duration": 2.511902,
          "velocity": 0.425197,
          "start_tick": 322651,
          "duration_ticks": 3798,
          "channel": 2
        },
        {
          "note": 55,
          "start": 213.393305,
          "duration": 2.511902,
          "velocity": 0.425197,
          "start_tick": 322651,
          "duration_ticks": 3798,
          "channel": 2
        },
        {
          "note": 43,
          "start": 215.905207,
          "duration": 2.511902,
          "velocity": 0.425197,
          "start_tick": 326449,
          "duration_ticks": 3798,
          "channel": 2
        },
        {
          "note": 47,
          "start": 215.905207,
          "duration": 2.511902,
          "velocity": 0.425197,
          "start_tick": 326449,
          "duration_ticks": 3798,
          "channel": 2
        },
        {
          "note": 50,
          "start": 215.905207,
          "duration": 2.511902,
          "velocity": 0.425197,
          "start_tick": 326449,
          "duration_ticks": 3798,
          "channel": 2
        },
        {
          "note": 55,
          "start": 215.905207,
          "duration": 2.511902,
          "velocity": 0.425197,
          "start_tick": 326449,
          "duration_ticks": 3798,
          "channel": 2
        },
        {
          "note": 41,
          "start": 218.41711,
          "duration": 2.511902,
          "velocity": 0.425197,
          "start_tick": 330247,
          "duration_ticks": 3798,
          "channel": 2
        },
        {
          "note": 44,
          "start": 218.41711,
          "duration": 2.511902,
          "velocity": 0.425197,
          "start_tick": 330247,
          "duration_ticks": 3798,
          "channel": 2
        },
        {
          "note": 48,
          "start": 218.41711,
          "duration": 2.511902,
          "velocity": 0.425197,
          "start_tick": 330247,
          "duration_ticks": 3798,
          "channel": 2
        },
        {
          "note": 53,
          "start": 218.41711,
          "duration": 2.511902,
          "velocity": 0.425197,
          "start_tick": 330247,
          "duration_ticks": 3798,
          "channel": 2
        },
        {
          "note": 32,
          "start": 220.929012,
          "duration": 2.511902,
          "velocity": 0.425197,
          "start_tick": 334045,
          "duration_ticks": 3798,
          "channel": 2
        },
        {
          "note": 48,
          "start": 220.929012,
          "duration": 2.511902,
          "velocity": 0.425197,
          "start_tick": 334045,
          "duration_ticks": 3798,
          "channel": 2
        },
        {
          "note": 51,
          "start": 220.929012,
          "duration": 2.511902,
          "velocity": 0.425197,
          "start_tick": 334045,
          "duration_ticks": 3798,
          "channel": 2
        },
        {
          "note": 56,
          "start": 220.929012,
          "duration": 2.511902,
          "velocity": 0.425197,
          "start_tick": 334045,
          "duration_ticks": 3798,
          "channel": 2
        },
        {
          "note": 39,
          "start": 223.440914,
          "duration": 2.52513,
          "velocity": 0.425197,
          "start_tick": 337843,
          "duration_ticks": 3818,
          "channel": 2
        },
        {
          "note": 46,
          "start": 223.440914,
          "duration": 2.52513,
          "velocity": 0.425197,
          "start_tick": 337843,
          "duration_ticks": 3818,
          "channel": 2
        },
        {
          "note": 51,
          "start": 223.440914,
          "duration": 2.52513,
          "velocity": 0.425197,
          "start_tick": 337843,
          "duration_ticks": 3818,
          "channel": 2
        },
        {
          "note": 55,
          "start": 223.440914,
          "duration": 2.52513,
          "velocity": 0.425197,
          "start_tick": 337843,
          "duration_ticks": 3818,
          "channel": 2
        },
        {
          "note": 35,
          "start": 225.966044,
          "duration": 2.54431,
          "velocity": 0.425197,
          "start_tick": 341661,
          "duration_ticks": 3847,
          "channel": 2
        },
        {
          "note": 47,
          "start": 225.966044,
          "duration": 2.54431,
          "velocity": 0.425197,
          "start_tick": 341661,
          "duration_ticks": 3847,
          "channel": 2
        },
        {
          "note": 50,
          "start": 225.966044,
          "duration": 2.54431,
          "velocity": 0.425197,
          "start_tick": 341661,
          "duration_ticks": 3847,
          "channel": 2
        },
        {
          "note": 55,
          "start": 225.966044,
          "duration": 2.54431,
          "velocity": 0.425197,
          "start_tick": 341661,
          "duration_ticks": 3847,
          "channel": 2
        },
        {
          "note": 29,
          "start": 228.510354,
          "duration": 2.54431,
          "velocity": 0.425197,
          "start_tick": 345508,
          "duration_ticks": 3847,
          "channel": 2
        },
        {
          "note": 48,
          "start": 228.510354,
          "duration": 2.54431,
          "velocity": 0.425197,
          "start_tick": 345508,
          "duration_ticks": 3847,
          "channel": 2
        },
        {
          "note": 53,
          "start": 228.510354,
          "duration": 2.54431,
          "velocity": 0.425197,
          "start_tick": 345508,
          "duration_ticks": 3847,
          "channel": 2
        },
        {
          "note": 56,
          "start": 228.510354,
          "duration": 2.54431,
          "velocity": 0.425197,
          "start_tick": 345508,
          "duration_ticks": 3847,
          "channel": 2
        },
        {
          "note": 48,
          "start": 231.054663,
          "duration": 2.54431,
          "velocity": 0.425197,
          "start_tick": 349355,
          "duration_ticks": 3847,
          "channel": 2
        },
        {
          "note": 51,
          "start": 231.054663,
          "duration": 2.54431,
          "velocity": 0.425197,
          "start_tick": 349355,
          "duration_ticks": 3847,
          "channel": 2
        },
        {
          "note": 55,
          "start": 231.054663,
          "duration": 2.54431,
          "velocity": 0.425197,
          "start_tick": 349355,
          "duration_ticks": 3847,
          "channel": 2
        },
        {
          "note": 46,
          "start": 233.598973,
          "duration": 2.54431,
          "velocity": 0.425197,
          "start_tick": 353202,
          "duration_ticks": 3847,
          "channel": 2
        },
        {
          "note": 51,
          "start": 233.598973,
          "duration": 2.54431,
          "velocity": 0.425197,
          "start_tick": 353202,
          "duration_ticks": 3847,
          "channel": 2
        },
        {
          "note": 55,
          "start": 233.598973,
          "duration": 2.54431,
          "velocity": 0.425197,
          "start_tick": 353202,
          "duration_ticks": 3847,
          "channel": 2
        },
        {
          "note": 43,
          "start": 236.143282,
          "duration": 2.54431,
          "velocity": 0.425197,
          "start_tick": 357049,
          "duration_ticks": 3847,
          "channel": 2
        },
        {
          "note": 47,
          "start": 236.143282,
          "duration": 2.54431,
          "velocity": 0.425197,
          "start_tick": 357049,
          "duration_ticks": 3847,
          "channel": 2
        },
        {
          "note": 50,
          "start": 236.143282,
          "duration": 2.54431,
          "velocity": 0.425197,
          "start_tick": 357049,
          "duration_ticks": 3847,
          "channel": 2
        },
        {
          "note": 55,
          "start": 236.143282,
          "duration": 2.54431,
          "velocity": 0.425197,
          "start_tick": 357049,
          "duration_ticks": 3847,
          "channel": 2
        },
        {
          "note": 41,
          "start": 238.687592,
          "duration": 2.54431,
          "velocity": 0.425197,
          "start_tick": 360896,
          "duration_ticks": 3847,
          "channel": 2
        },
        {
          "note": 44,
          "start": 238.687592,
          "duration": 2.54431,
          "velocity": 0.425197,
          "start_tick": 360896,
          "duration_ticks": 3847,
          "channel": 2
        },
        {
          "note": 48,
          "start": 238.687592,
          "duration": 2.54431,
          "velocity": 0.425197,
          "start_tick": 360896,
          "duration_ticks": 3847,
          "channel": 2
        },
        {
          "note": 53,
          "start": 238.687592,
          "duration": 2.54431,
          "velocity": 0.425197,
          "start_tick": 360896,
          "duration_ticks": 3847,
          "channel": 2
        },
        {
          "note": 32,
          "start": 241.231902,
          "duration": 2.54431,
          "velocity": 0.425197,
          "start_tick": 364743,
          "duration_ticks": 3847,
          "channel": 2
        },
        {
          "note": 48,
          "start": 241.231902,
          "duration": 2.54431,
          "velocity": 0.425197,
          "start_tick": 364743,
          "duration_ticks": 3847,
          "channel": 2
        },
        {
          "note": 51,
          "start": 241.231902,
          "duration": 2.54431,
          "velocity": 0.425197,
          "start_tick": 364743,
          "duration_ticks": 3847,
          "channel": 2
        },
        {
          "note": 56,
          "start": 241.231902,
          "duration": 2.54431,
          "velocity": 0.425197,
          "start_tick": 364743,
          "duration_ticks": 3847,
          "channel": 2
        },
        {
          "note": 39,
          "start": 243.776211,
          "duration": 2.540341,
          "velocity": 0.425197,
          "start_tick": 368590,
          "duration_ticks": 3841,
          "channel": 2
        },
        {
          "note": 46,
          "start": 243.776211,
          "duration": 2.540341,
          "velocity": 0.425197,
          "start_tick": 368590,
          "duration_ticks": 3841,
          "channel": 2
        },
        {
          "note": 51,
          "start": 243.776211,
          "duration": 2.540341,
          "velocity": 0.425197,
          "start_tick": 368590,
          "duration_ticks": 3841,
          "channel": 2
        },
        {
          "note": 55,
          "start": 243.776211,
          "duration": 2.540341,
          "velocity": 0.425197,
          "start_tick": 368590,
          "duration_ticks": 3841,
          "channel": 2
        },
        {
          "note": 35,
          "start": 246.316553,
          "duration": 2.537034,
          "velocity": 0.425197,
          "start_tick": 372431,
          "duration_ticks": 3836,
          "channel": 2
        },
        {
          "note": 47,
          "start": 246.316553,
          "duration": 2.537034,
          "velocity": 0.425197,
          "start_tick": 372431,
          "duration_ticks": 3836,
          "channel": 2
        },
        {
          "note": 50,
          "start": 246.316553,
          "duration": 2.537034,
          "velocity": 0.425197,
          "start_tick": 372431,
          "duration_ticks": 3836,
          "channel": 2
        },
        {
          "note": 55,
          "start": 246.316553,
          "duration": 2.537034,
          "velocity": 0.425197,
          "start_tick": 372431,
          "duration_ticks": 3836,
          "channel": 2
        },
        {
          "note": 29,
          "start": 248.853587,
          "duration": 2.536373,
          "velocity": 0.425197,
          "start_tick": 376267,
          "duration_ticks": 3835,
          "channel": 2
        },
        {
          "note": 48,
          "start": 248.853587,
          "duration": 2.536373,
          "velocity": 0.425197,
          "start_tick": 376267,
          "duration_ticks": 3835,
          "channel": 2
        },
        {
          "note": 53,
          "start": 248.853587,
          "duration": 2.536373,
          "velocity": 0.425197,
          "start_tick": 376267,
          "duration_ticks": 3835,
          "channel": 2
        },
        {
          "note": 56,
          "start": 248.853587,
          "duration": 2.536373,
          "velocity": 0.425197,
          "start_tick": 376267,
          "duration_ticks": 3835,
          "channel": 2
        },
        {
          "note": 48,
          "start": 251.38996,
          "duration": 2.537035,
          "velocity": 0.425197,
          "start_tick": 380102,
          "duration_ticks": 3836,
          "channel": 2
        },
        {
          "note": 51,
          "start": 251.38996,
          "duration": 2.537035,
          "velocity": 0.425197,
          "start_tick": 380102,
          "duration_ticks": 3836,
          "channel": 2
        },
        {
          "note": 55,
          "start": 251.38996,
          "duration": 2.537035,
          "velocity": 0.425197,
          "start_tick": 380102,
          "duration_ticks": 3836,
          "channel": 2
        },
        {
          "note": 46,
          "start": 253.926995,
          "duration": 2.536373,
          "velocity": 0.425197,
          "start_tick": 383938,
          "duration_ticks": 3835,
          "channel": 2
        },
        {
          "note": 51,
          "start": 253.926995,
          "duration": 2.536373,
          "velocity": 0.425197,
          "start_tick": 383938,
          "duration_ticks": 3835,
          "channel": 2
        },
        {
          "note": 55,
          "start": 253.926995,
          "duration": 2.536373,
          "velocity": 0.425197,
          "start_tick": 383938,
          "duration_ticks": 3835,
          "channel": 2
        },
        {
          "note": 43,
          "start": 256.463368,
          "duration": 2.537035,
          "velocity": 0.425197,
          "start_tick": 387773,
          "duration_ticks": 3836,
          "channel": 2
        },
        {
          "note": 47,
          "start": 256.463368,
          "duration": 2.537035,
          "velocity": 0.425197,
          "start_tick": 387773,
          "duration_ticks": 3836,
          "channel": 2
        },
        {
          "note": 50,
          "start": 256.463368,
          "duration": 2.537035,
          "velocity": 0.425197,
          "start_tick": 387773,
          "duration_ticks": 3836,
          "channel": 2
        },
        {
          "note": 55,
          "start": 256.463368,
          "duration": 2.537035,
          "velocity": 0.425197,
          "start_tick": 387773,
          "duration_ticks": 3836,
          "channel": 2
        },
        {
          "note": 41,
          "start": 259.000402,
          "duration": 2.536373,
          "velocity": 0.425197,
          "start_tick": 391609,
          "duration_ticks": 3835,
          "channel": 2
        },
        {
          "note": 44,
          "start": 259.000402,
          "duration": 2.536373,
          "velocity": 0.425197,
          "start_tick": 391609,
          "duration_ticks": 3835,
          "channel": 2
        },
        {
          "note": 48,
          "start": 259.000402,
          "duration": 2.536373,
          "velocity": 0.425197,
          "start_tick": 391609,
          "duration_ticks": 3835,
          "channel": 2
        },
        {
          "note": 53,
          "start": 259.000402,
          "duration": 2.536373,
          "velocity": 0.425197,
          "start_tick": 391609,
          "duration_ticks": 3835,
          "channel": 2
        },
        {
          "note": 32,
          "start": 261.536775,
          "duration": 2.537035,
          "velocity": 0.425197,
          "start_tick": 395444,
          "duration_ticks": 3836,
          "channel": 2
        },
        {
          "note": 48,
          "start": 261.536775,
          "duration": 2.537035,
          "velocity": 0.425197,
          "start_tick": 395444,
          "duration_ticks": 3836,
          "channel": 2
        },
        {
          "note": 51,
          "start": 261.536775,
          "duration": 2.537035,
          "velocity": 0.425197,
          "start_tick": 395444,
          "duration_ticks": 3836,
          "channel": 2
        },
        {
          "note": 56,
          "start": 261.536775,
          "duration": 2.537035,
          "velocity": 0.425197,
          "start_tick": 395444,
          "duration_ticks": 3836,
          "channel": 2
        },
        {
          "note": 39,
          "start": 264.07381,
          "duration": 2.538357,
          "velocity": 0.425197,
          "start_tick": 399280,
          "duration_ticks": 3838,
          "channel": 2
        },
        {
          "note": 46,
          "start": 264.07381,
          "duration": 2.538357,
          "velocity": 0.425197,
          "start_tick": 399280,
          "duration_ticks": 3838,
          "channel": 2
        },
        {
          "note": 51,
          "start": 264.07381,
          "duration": 2.538357,
          "velocity": 0.425197,
          "start_tick": 399280,
          "duration_ticks": 3838,
          "channel": 2
        },
        {
          "note": 55,
          "start": 264.07381,
          "duration": 2.538357,
          "velocity": 0.425197,
          "start_tick": 399280,
          "duration_ticks": 3838,
          "channel": 2
        },
        {
          "note": 35,
          "start": 266.612167,
          "duration": 2.53968,
          "velocity": 0.425197,
          "start_tick": 403118,
          "duration_ticks": 3840,
          "channel": 2
        },
        {
          "note": 47,
          "start": 266.612167,
          "duration": 2.53968,
          "velocity": 0.425197,
          "start_tick": 403118,
          "duration_ticks": 3840,
          "channel": 2
        },
        {
          "note": 50,
          "start": 266.612167,
          "duration": 2.53968,
          "velocity": 0.425197,
          "start_tick": 403118,
          "duration_ticks": 3840,
          "channel": 2
        },
        {
          "note": 55,
          "start": 266.612167,
          "duration": 2.53968,
          "velocity": 0.425197,
          "start_tick": 403118,
          "duration_ticks": 3840,
          "channel": 2
        },
        {
          "note": 29,
          "start": 269.151847,
          "duration": 2.53968,
          "velocity": 0.425197,
          "start_tick": 406958,
          "duration_ticks": 3840,
          "channel": 2
        },
        {
          "note": 48,
          "start": 269.151847,
          "duration": 2.53968,
          "velocity": 0.425197,
          "start_tick": 406958,
          "duration_ticks": 3840,
          "channel": 2
        },
        {
          "note": 53,
          "start": 269.151847,
          "duration": 2.53968,
          "velocity": 0.425197,
          "start_tick": 406958,
          "duration_ticks": 3840,
          "channel": 2
        },
        {
          "note": 56,
          "start": 269.151847,
          "duration": 2.53968,
          "velocity": 0.425197,
          "start_tick": 406958,
          "duration_ticks": 3840,
          "channel": 2
        },
        {
          "note": 48,
          "start": 271.691527,
          "duration": 2.53968,
          "velocity": 0.425197,
          "start_tick": 410798,
          "duration_ticks": 3840,
          "channel": 2
        },
        {
          "note": 51,
          "start": 271.691527,
          "duration": 2.53968,
          "velocity": 0.425197,
          "start_tick": 410798,
          "duration_ticks": 3840,
          "channel": 2
        },
        {
          "note": 55,
          "start": 271.691527,
          "duration": 2.53968,
          "velocity": 0.425197,
          "start_tick": 410798,
          "duration_ticks": 3840,
          "channel": 2
        },
        {
          "note": 46,
          "start": 274.231207,
          "duration": 2.53968,
          "velocity": 0.425197,
          "start_tick": 414638,
          "duration_ticks": 3840,
          "channel": 2
        },
        {
          "note": 51,
          "start": 274.231207,
          "duration": 2.53968,
          "velocity": 0.425197,
          "start_tick": 414638,
          "duration_ticks": 3840,
          "channel": 2
        },
        {
          "note": 55,
          "start": 274.231207,
          "duration": 2.53968,
          "velocity": 0.425197,
          "start_tick": 414638,
          "duration_ticks": 3840,
          "channel": 2
        },
        {
          "note": 43,
          "start": 276.770887,
          "duration": 2.53968,
          "velocity": 0.425197,
          "start_tick": 418478,
          "duration_ticks": 3840,
          "channel": 2
        },
        {
          "note": 47,
          "start": 276.770887,
          "duration": 2.53968,
          "velocity": 0.425197,
          "start_tick": 418478,
          "duration_ticks": 3840,
          "channel": 2
        },
        {
          "note": 50,
          "start": 276.770887,
          "duration": 2.53968,
          "velocity": 0.425197,
          "start_tick": 418478,
          "duration_ticks": 3840,
          "channel": 2
        },
        {
          "note": 55,
          "start": 276.770887,
          "duration": 2.53968,
          "velocity": 0.425197,
          "start_tick": 418478,
          "duration_ticks": 3840,
          "channel": 2
        },
        {
          "note": 41,
          "start": 279.310567,
          "duration": 2.53968,
          "velocity": 0.425197,
          "start_tick": 422318,
          "duration_ticks": 3840,
          "channel": 2
        },
        {
          "note": 44,
          "start": 279.310567,
          "duration": 2.53968,
          "velocity": 0.425197,
          "start_tick": 422318,
          "duration_ticks": 3840,
          "channel": 2
        },
        {
          "note": 48,
          "start": 279.310567,
          "duration": 2.53968,
          "velocity": 0.425197,
          "start_tick": 422318,
          "duration_ticks": 3840,
          "channel": 2
        },
        {
          "note": 53,
          "start": 279.310567,
          "duration": 2.53968,
          "velocity": 0.425197,
          "start_tick": 422318,
          "duration_ticks": 3840,
          "channel": 2
        },
        {
          "note": 32,
          "start": 281.850247,
          "duration": 2.53968,
          "velocity": 0.425197,
          "start_tick": 426158,
          "duration_ticks": 3840,
          "channel": 2
        },
        {
          "note": 48,
          "start": 281.850247,
          "duration": 2.53968,
          "velocity": 0.425197,
          "start_tick": 426158,
          "duration_ticks": 3840,
          "channel": 2
        },
        {
          "note": 51,
          "start": 281.850247,
          "duration": 2.53968,
          "velocity": 0.425197,
          "start_tick": 426158,
          "duration_ticks": 3840,
          "channel": 2
        },
        {
          "note": 56,
          "start": 281.850247,
          "duration": 2.53968,
          "velocity": 0.425197,
          "start_tick": 426158,
          "duration_ticks": 3840,
          "channel": 2
        },
        {
          "note": 39,
          "start": 284.389927,
          "duration": 2.53968,
          "velocity": 0.425197,
          "start_tick": 429998,
          "duration_ticks": 3840,
          "channel": 2
        },
        {
          "note": 46,
          "start": 284.389927,
          "duration": 2.53968,
          "velocity": 0.425197,
          "start_tick": 429998,
          "duration_ticks": 3840,
          "channel": 2
        },
        {
          "note": 51,
          "start": 284.389927,
          "duration": 2.53968,
          "velocity": 0.425197,
          "start_tick": 429998,
          "duration_ticks": 3840,
          "channel": 2
        },
        {
          "note": 55,
          "start": 284.389927,
          "duration": 2.53968,
          "velocity": 0.425197,
          "start_tick": 429998,
          "duration_ticks": 3840,
          "channel": 2
        },
        {
          "note": 35,
          "start": 286.929607,
          "duration": 2.53968,
          "velocity": 0.425197,
          "start_tick": 433838,
          "duration_ticks": 3840,
          "channel": 2
        },
        {
          "note": 47,
          "start": 286.929607,
          "duration": 2.53968,
          "velocity": 0.425197,
          "start_tick": 433838,
          "duration_ticks": 3840,
          "channel": 2
        },
        {
          "note": 50,
          "start": 286.929607,
          "duration": 2.53968,
          "velocity": 0.425197,
          "start_tick": 433838,
          "duration_ticks": 3840,
          "channel": 2
        },
        {
          "note": 55,
          "start": 286.929607,
          "duration": 2.53968,
          "velocity": 0.425197,
          "start_tick": 433838,
          "duration_ticks": 3840,
          "channel": 2
        },
        {
          "note": 29,
          "start": 289.469287,
          "duration": 2.53968,
          "velocity": 0.425197,
          "start_tick": 437678,
          "duration_ticks": 3840,
          "channel": 2
        },
        {
          "note": 48,
          "start": 289.469287,
          "duration": 2.53968,
          "velocity": 0.425197,
          "start_tick": 437678,
          "duration_ticks": 3840,
          "channel": 2
        },
        {
          "note": 53,
          "start": 289.469287,
          "duration": 2.53968,
          "velocity": 0.425197,
          "start_tick": 437678,
          "duration_ticks": 3840,
          "channel": 2
        },
        {
          "note": 56,
          "start": 289.469287,
          "duration": 2.53968,
          "velocity": 0.425197,
          "start_tick": 437678,
          "duration_ticks": 3840,
          "channel": 2
        },
        {
          "note": 48,
          "start": 292.008967,
          "duration": 2.53968,
          "velocity": 0.425197,
          "start_tick": 441518,
          "duration_ticks": 3840,
          "channel": 2
        },
        {
          "note": 51,
          "start": 292.008967,
          "duration": 2.53968,
          "velocity": 0.425197,
          "start_tick": 441518,
          "duration_ticks": 3840,
          "channel": 2
        },
        {
          "note": 55,
          "start": 292.008967,
          "duration": 2.53968,
          "velocity": 0.425197,
          "start_tick": 441518,
          "duration_ticks": 3840,
          "channel": 2
        },
        {
          "note": 46,
          "start": 294.548647,
          "duration": 2.53968,
          "velocity": 0.425197,
          "start_tick": 445358,
          "duration_ticks": 3840,
          "channel": 2
        },
        {
          "note": 51,
          "start": 294.548647,
          "duration": 2.53968,
          "velocity": 0.425197,
          "start_tick": 445358,
          "duration_ticks": 3840,
          "channel": 2
        },
        {
          "note": 55,
          "start": 294.548647,
          "duration": 2.53968,
          "velocity": 0.425197,
          "start_tick": 445358,
          "duration_ticks": 3840,
          "channel": 2
        },
        {
          "note": 43,
          "start": 297.088327,
          "duration": 2.53968,
          "velocity": 0.425197,
          "start_tick": 449198,
          "duration_ticks": 3840,
          "channel": 2
        },
        {
          "note": 47,
          "start": 297.088327,
          "duration": 2.53968,
          "velocity": 0.425197,
          "start_tick": 449198,
          "duration_ticks": 3840,
          "channel": 2
        },
        {
          "note": 50,
          "start": 297.088327,
          "duration": 2.53968,
          "velocity": 0.425197,
          "start_tick": 449198,
          "duration_ticks": 3840,
          "channel": 2
        },
        {
          "note": 55,
          "start": 297.088327,
          "duration": 2.53968,
          "velocity": 0.425197,
          "start_tick": 449198,
          "duration_ticks": 3840,
          "channel": 2
        },
        {
          "note": 41,
          "start": 299.628007,
          "duration": 2.53968,
          "velocity": 0.425197,
          "start_tick": 453038,
          "duration_ticks": 3840,
          "channel": 2
        },
        {
          "note": 44,
          "start": 299.628007,
          "duration": 2.53968,
          "velocity": 0.425197,
          "start_tick": 453038,
          "duration_ticks": 3840,
          "channel": 2
        },
        {
          "note": 48,
          "start": 299.628007,
          "duration": 2.53968,
          "velocity": 0.425197,
          "start_tick": 453038,
          "duration_ticks": 3840,
          "channel": 2
        },
        {
          "note": 53,
          "start": 299.628007,
          "duration": 2.53968,
          "velocity": 0.425197,
          "start_tick": 453038,
          "duration_ticks": 3840,
          "channel": 2
        },
        {
          "note": 32,
          "start": 302.167687,
          "duration": 2.53968,
          "velocity": 0.425197,
          "start_tick": 456878,
          "duration_ticks": 3840,
          "channel": 2
        },
        {
          "note": 48,
          "start": 302.167687,
          "duration": 2.53968,
          "velocity": 0.425197,
          "start_tick": 456878,
          "duration_ticks": 3840,
          "channel": 2
        },
        {
          "note": 51,
          "start": 302.167687,
          "duration": 2.53968,
          "velocity": 0.425197,
          "start_tick": 456878,
          "duration_ticks": 3840,
          "channel": 2
        },
        {
          "note": 56,
          "start": 302.167687,
          "duration": 2.53968,
          "velocity": 0.425197,
          "start_tick": 456878,
          "duration_ticks": 3840,
          "channel": 2
        },
        {
          "note": 39,
          "start": 304.707367,
          "duration": 2.53968,
          "velocity": 0.425197,
          "start_tick": 460718,
          "duration_ticks": 3840,
          "channel": 2
        },
        {
          "note": 46,
          "start": 304.707367,
          "duration": 2.53968,
          "velocity": 0.425197,
          "start_tick": 460718,
          "duration_ticks": 3840,
          "channel": 2
        },
        {
          "note": 51,
          "start": 304.707367,
          "duration": 2.53968,
          "velocity": 0.425197,
          "start_tick": 460718,
          "duration_ticks": 3840,
          "channel": 2
        },
        {
          "note": 55,
          "start": 304.707367,
          "duration": 2.53968,
          "velocity": 0.425197,
          "start_tick": 460718,
          "duration_ticks": 3840,
          "channel": 2
        },
        {
          "note": 35,
          "start": 307.247047,
          "duration": 2.53968,
          "velocity": 0.425197,
          "start_tick": 464558,
          "duration_ticks": 3840,
          "channel": 2
        },
        {
          "note": 47,
          "start": 307.247047,
          "duration": 2.53968,
          "velocity": 0.425197,
          "start_tick": 464558,
          "duration_ticks": 3840,
          "channel": 2
        },
        {
          "note": 50,
          "start": 307.247047,
          "duration": 2.53968,
          "velocity": 0.425197,
          "start_tick": 464558,
          "duration_ticks": 3840,
          "channel": 2
        },
        {
          "note": 55,
          "start": 307.247047,
          "duration": 2.53968,
          "velocity": 0.425197,
          "start_tick": 464558,
          "duration_ticks": 3840,
          "channel": 2
        },
        {
          "note": 29,
          "start": 309.786727,
          "duration": 2.53968,
          "velocity": 0.425197,
          "start_tick": 468398,
          "duration_ticks": 3840,
          "channel": 2
        },
        {
          "note": 48,
          "start": 309.786727,
          "duration": 2.53968,
          "velocity": 0.425197,
          "start_tick": 468398,
          "duration_ticks": 3840,
          "channel": 2
        },
        {
          "note": 53,
          "start": 309.786727,
          "duration": 2.53968,
          "velocity": 0.425197,
          "start_tick": 468398,
          "duration_ticks": 3840,
          "channel": 2
        },
        {
          "note": 56,
          "start": 309.786727,
          "duration": 2.53968,
          "velocity": 0.425197,
          "start_tick": 468398,
          "duration_ticks": 3840,
          "channel": 2
        },
        {
          "note": 48,
          "start": 312.326407,
          "duration": 2.53968,
          "velocity": 0.425197,
          "start_tick": 472238,
          "duration_ticks": 3840,
          "channel": 2
        },
        {
          "note": 51,
          "start": 312.326407,
          "duration": 2.53968,
          "velocity": 0.425197,
          "start_tick": 472238,
          "duration_ticks": 3840,
          "channel": 2
        },
        {
          "note": 55,
          "start": 312.326407,
          "duration": 2.53968,
          "velocity": 0.425197,
          "start_tick": 472238,
          "duration_ticks": 3840,
          "channel": 2
        }
      ]
    },
    {
      "id": "square_wave",
      "source_track_index": 5,
      "source_name": "Square Wave ",
      "role": "square_wave",
      "channel": 3,
      "gm_program": 80,
      "gm_program_name": "Lead 1 square",
      "note_count": 104,
      "pitch_range": [
        58,
        63
      ],
      "time_range": [
        40.526415,
        312.27019
      ],
      "notes": [
        {
          "note": 60,
          "start": 40.526415,
          "duration": 2.368384,
          "velocity": 0.653543,
          "start_tick": 61276,
          "duration_ticks": 3581,
          "channel": 3
        },
        {
          "note": 63,
          "start": 43.050883,
          "duration": 2.349865,
          "velocity": 0.748031,
          "start_tick": 65093,
          "duration_ticks": 3553,
          "channel": 3
        },
        {
          "note": 59,
          "start": 45.579319,
          "duration": 2.439151,
          "velocity": 0.669291,
          "start_tick": 68916,
          "duration_ticks": 3688,
          "channel": 3
        },
        {
          "note": 60,
          "start": 48.117677,
          "duration": 2.404098,
          "velocity": 0.787402,
          "start_tick": 72754,
          "duration_ticks": 3635,
          "channel": 3
        },
        {
          "note": 60,
          "start": 50.656034,
          "duration": 2.419971,
          "velocity": 0.740157,
          "start_tick": 76592,
          "duration_ticks": 3659,
          "channel": 3
        },
        {
          "note": 58,
          "start": 53.194391,
          "duration": 2.345897,
          "velocity": 0.826772,
          "start_tick": 80430,
          "duration_ticks": 3547,
          "channel": 3
        },
        {
          "note": 59,
          "start": 55.732748,
          "duration": 2.464283,
          "velocity": 0.76378,
          "start_tick": 84268,
          "duration_ticks": 3726,
          "channel": 3
        },
        {
          "note": 60,
          "start": 58.271106,
          "duration": 2.48214,
          "velocity": 0.787402,
          "start_tick": 88106,
          "duration_ticks": 3753,
          "channel": 3
        },
        {
          "note": 60,
          "start": 60.809463,
          "duration": 2.38095,
          "velocity": 0.653543,
          "start_tick": 91944,
          "duration_ticks": 3600,
          "channel": 3
        },
        {
          "note": 63,
          "start": 63.34782,
          "duration": 2.343913,
          "velocity": 0.748031,
          "start_tick": 95782,
          "duration_ticks": 3544,
          "channel": 3
        },
        {
          "note": 59,
          "start": 65.867659,
          "duration": 2.394177,
          "velocity": 0.669291,
          "start_tick": 99592,
          "duration_ticks": 3620,
          "channel": 3
        },
        {
          "note": 60,
          "start": 68.35972,
          "duration": 2.359786,
          "velocity": 0.787402,
          "start_tick": 103360,
          "duration_ticks": 3568,
          "channel": 3
        },
        {
          "note": 60,
          "start": 70.851781,
          "duration": 2.375659,
          "velocity": 0.740157,
          "start_tick": 107128,
          "duration_ticks": 3592,
          "channel": 3
        },
        {
          "note": 58,
          "start": 73.343842,
          "duration": 2.345897,
          "velocity": 0.826772,
          "start_tick": 110896,
          "duration_ticks": 3547,
          "channel": 3
        },
        {
          "note": 59,
          "start": 75.886829,
          "duration": 2.52513,
          "velocity": 0.76378,
          "start_tick": 114741,
          "duration_ticks": 3818,
          "channel": 3
        },
        {
          "note": 60,
          "start": 78.488017,
          "duration": 2.543648,
          "velocity": 0.787402,
          "start_tick": 118674,
          "duration_ticks": 3846,
          "channel": 3
        },
        {
          "note": 60,
          "start": 81.089205,
          "duration": 2.439812,
          "velocity": 0.653543,
          "start_tick": 122607,
          "duration_ticks": 3689,
          "channel": 3
        },
        {
          "note": 63,
          "start": 83.690393,
          "duration": 2.403437,
          "velocity": 0.748031,
          "start_tick": 126540,
          "duration_ticks": 3634,
          "channel": 3
        },
        {
          "note": 59,
          "start": 86.275707,
          "duration": 2.470897,
          "velocity": 0.669291,
          "start_tick": 130449,
          "duration_ticks": 3736,
          "channel": 3
        },
        {
          "note": 60,
          "start": 88.847133,
          "duration": 2.435183,
          "velocity": 0.787402,
          "start_tick": 134337,
          "duration_ticks": 3682,
          "channel": 3
        },
        {
          "note": 60,
          "start": 91.417898,
          "duration": 2.451717,
          "velocity": 0.740157,
          "start_tick": 138224,
          "duration_ticks": 3707,
          "channel": 3
        },
        {
          "note": 58,
          "start": 93.989324,
          "duration": 2.352511,
          "velocity": 0.826772,
          "start_tick": 142112,
          "duration_ticks": 3557,
          "channel": 3
        },
        {
          "note": 59,
          "start": 96.533634,
          "duration": 2.451056,
          "velocity": 0.76378,
          "start_tick": 145959,
          "duration_ticks": 3706,
          "channel": 3
        },
        {
          "note": 60,
          "start": 99.058102,
          "duration": 2.469574,
          "velocity": 0.787402,
          "start_tick": 149776,
          "duration_ticks": 3734,
          "channel": 3
        },
        {
          "note": 60,
          "start": 101.583232,
          "duration": 2.369045,
          "velocity": 0.653543,
          "start_tick": 153594,
          "duration_ticks": 3582,
          "channel": 3
        },
        {
          "note": 63,
          "start": 104.108362,
          "duration": 2.34722,
          "velocity": 0.748031,
          "start_tick": 157412,
          "duration_ticks": 3549,
          "channel": 3
        },
        {
          "note": 59,
          "start": 106.633491,
          "duration": 2.426585,
          "velocity": 0.669291,
          "start_tick": 161230,
          "duration_ticks": 3669,
          "channel": 3
        },
        {
          "note": 60,
          "start": 109.158621,
          "duration": 2.391532,
          "velocity": 0.787402,
          "start_tick": 165048,
          "duration_ticks": 3616,
          "channel": 3
        },
        {
          "note": 60,
          "start": 111.683751,
          "duration": 2.407405,
          "velocity": 0.740157,
          "start_tick": 168866,
          "duration_ticks": 3640,
          "channel": 3
        },
        {
          "note": 58,
          "start": 114.208881,
          "duration": 2.333331,
          "velocity": 0.826772,
          "start_tick": 172684,
          "duration_ticks": 3528,
          "channel": 3
        },
        {
          "note": 59,
          "start": 116.73401,
          "duration": 2.451056,
          "velocity": 0.76378,
          "start_tick": 176502,
          "duration_ticks": 3706,
          "channel": 3
        },
        {
          "note": 60,
          "start": 119.258479,
          "duration": 8.522478,
          "velocity": 0.787402,
          "start_tick": 180319,
          "duration_ticks": 12886,
          "channel": 3
        },
        {
          "note": 60,
          "start": 129.358998,
          "duration": 2.368384,
          "velocity": 0.653543,
          "start_tick": 195591,
          "duration_ticks": 3581,
          "channel": 3
        },
        {
          "note": 63,
          "start": 131.884127,
          "duration": 2.346559,
          "velocity": 0.748031,
          "start_tick": 199409,
          "duration_ticks": 3548,
          "channel": 3
        },
        {
          "note": 59,
          "start": 134.409257,
          "duration": 2.470897,
          "velocity": 0.669291,
          "start_tick": 203227,
          "duration_ticks": 3736,
          "channel": 3
        },
        {
          "note": 60,
          "start": 136.980683,
          "duration": 2.443781,
          "velocity": 0.787402,
          "start_tick": 207115,
          "duration_ticks": 3695,
          "channel": 3
        },
        {
          "note": 60,
          "start": 139.561368,
          "duration": 2.459654,
          "velocity": 0.740157,
          "start_tick": 211017,
          "duration_ticks": 3719,
          "channel": 3
        },
        {
          "note": 58,
          "start": 142.141392,
          "duration": 2.384918,
          "velocity": 0.826772,
          "start_tick": 214918,
          "duration_ticks": 3606,
          "channel": 3
        },
        {
          "note": 59,
          "start": 144.721416,
          "duration": 2.507934,
          "velocity": 0.76378,
          "start_tick": 218819,
          "duration_ticks": 3792,
          "channel": 3
        },
        {
          "note": 60,
          "start": 147.304747,
          "duration": 1.937829,
          "velocity": 0.787402,
          "start_tick": 222725,
          "duration_ticks": 2930,
          "channel": 3
        },
        {
          "note": 60,
          "start": 149.888078,
          "duration": 2.423278,
          "velocity": 0.653543,
          "start_tick": 226631,
          "duration_ticks": 3664,
          "channel": 3
        },
        {
          "note": 63,
          "start": 152.471408,
          "duration": 2.401453,
          "velocity": 0.748031,
          "start_tick": 230537,
          "duration_ticks": 3631,
          "channel": 3
        },
        {
          "note": 59,
          "start": 155.0554,
          "duration": 2.464283,
          "velocity": 0.669291,
          "start_tick": 234444,
          "duration_ticks": 3726,
          "channel": 3
        },
        {
          "note": 60,
          "start": 157.620213,
          "duration": 2.428569,
          "velocity": 0.787402,
          "start_tick": 238322,
          "duration_ticks": 3672,
          "channel": 3
        },
        {
          "note": 60,
          "start": 160.184364,
          "duration": 2.445103,
          "velocity": 0.740157,
          "start_tick": 242199,
          "duration_ticks": 3697,
          "channel": 3
        },
        {
          "note": 58,
          "start": 162.749176,
          "duration": 2.369707,
          "velocity": 0.826772,
          "start_tick": 246077,
          "duration_ticks": 3583,
          "channel": 3
        },
        {
          "note": 59,
          "start": 165.312004,
          "duration": 2.441797,
          "velocity": 0.76378,
          "start_tick": 249952,
          "duration_ticks": 3692,
          "channel": 3
        },
        {
          "note": 60,
          "start": 167.827213,
          "duration": 2.460315,
          "velocity": 0.787402,
          "start_tick": 253755,
          "duration_ticks": 3720,
          "channel": 3
        },
        {
          "note": 60,
          "start": 170.343084,
          "duration": 2.359786,
          "velocity": 0.653543,
          "start_tick": 257559,
          "duration_ticks": 3568,
          "channel": 3
        },
        {
          "note": 63,
          "start": 172.858954,
          "duration": 2.337961,
          "velocity": 0.748031,
          "start_tick": 261363,
          "duration_ticks": 3535,
          "channel": 3
        },
        {
          "note": 59,
          "start": 175.374163,
          "duration": 2.417326,
          "velocity": 0.669291,
          "start_tick": 265166,
          "duration_ticks": 3655,
          "channel": 3
        },
        {
          "note": 60,
          "start": 177.890034,
          "duration": 2.382273,
          "velocity": 0.787402,
          "start_tick": 268970,
          "duration_ticks": 3602,
          "channel": 3
        },
        {
          "note": 60,
          "start": 180.405904,
          "duration": 2.398146,
          "velocity": 0.740157,
          "start_tick": 272774,
          "duration_ticks": 3626,
          "channel": 3
        },
        {
          "note": 58,
          "start": 182.921113,
          "duration": 2.32804,
          "velocity": 0.826772,
          "start_tick": 276577,
          "duration_ticks": 3520,
          "channel": 3
        },
        {
          "note": 59,
          "start": 185.442936,
          "duration": 2.478834,
          "velocity": 0.76378,
          "start_tick": 280390,
          "duration_ticks": 3748,
          "channel": 3
        },
        {
          "note": 60,
          "start": 187.995844,
          "duration": 2.496691,
          "velocity": 0.787402,
          "start_tick": 284250,
          "duration_ticks": 3775,
          "channel": 3
        },
        {
          "note": 60,
          "start": 190.549413,
          "duration": 2.394839,
          "velocity": 0.653543,
          "start_tick": 288111,
          "duration_ticks": 3621,
          "channel": 3
        },
        {
          "note": 63,
          "start": 193.10232,
          "duration": 2.373013,
          "velocity": 0.748031,
          "start_tick": 291971,
          "duration_ticks": 3588,
          "channel": 3
        },
        {
          "note": 59,
          "start": 195.655889,
          "duration": 2.453701,
          "velocity": 0.669291,
          "start_tick": 295832,
          "duration_ticks": 3710,
          "channel": 3
        },
        {
          "note": 60,
          "start": 198.208797,
          "duration": 2.418648,
          "velocity": 0.787402,
          "start_tick": 299692,
          "duration_ticks": 3657,
          "channel": 3
        },
        {
          "note": 60,
          "start": 200.762365,
          "duration": 2.434521,
          "velocity": 0.740157,
          "start_tick": 303553,
          "duration_ticks": 3681,
          "channel": 3
        },
        {
          "note": 58,
          "start": 203.315273,
          "duration": 2.351849,
          "velocity": 0.826772,
          "start_tick": 307413,
          "duration_ticks": 3556,
          "channel": 3
        },
        {
          "note": 59,
          "start": 205.856937,
          "duration": 2.439151,
          "velocity": 0.76378,
          "start_tick": 311256,
          "duration_ticks": 3688,
          "channel": 3
        },
        {
          "note": 60,
          "start": 208.368839,
          "duration": 1.884257,
          "velocity": 0.787402,
          "start_tick": 315054,
          "duration_ticks": 2849,
          "channel": 3
        },
        {
          "note": 60,
          "start": 210.880741,
          "duration": 2.356479,
          "velocity": 0.653543,
          "start_tick": 318852,
          "duration_ticks": 3563,
          "channel": 3
        },
        {
          "note": 63,
          "start": 213.393305,
          "duration": 2.334654,
          "velocity": 0.748031,
          "start_tick": 322651,
          "duration_ticks": 3530,
          "channel": 3
        },
        {
          "note": 59,
          "start": 215.905207,
          "duration": 2.413357,
          "velocity": 0.669291,
          "start_tick": 326449,
          "duration_ticks": 3649,
          "channel": 3
        },
        {
          "note": 60,
          "start": 218.41711,
          "duration": 2.378966,
          "velocity": 0.787402,
          "start_tick": 330247,
          "duration_ticks": 3597,
          "channel": 3
        },
        {
          "note": 60,
          "start": 220.929012,
          "duration": 2.394839,
          "velocity": 0.740157,
          "start_tick": 334045,
          "duration_ticks": 3621,
          "channel": 3
        },
        {
          "note": 58,
          "start": 223.440914,
          "duration": 2.332008,
          "velocity": 0.826772,
          "start_tick": 337843,
          "duration_ticks": 3526,
          "channel": 3
        },
        {
          "note": 59,
          "start": 225.966044,
          "duration": 2.470236,
          "velocity": 0.76378,
          "start_tick": 341661,
          "duration_ticks": 3735,
          "channel": 3
        },
        {
          "note": 60,
          "start": 228.510354,
          "duration": 2.488093,
          "velocity": 0.787402,
          "start_tick": 345508,
          "duration_ticks": 3762,
          "channel": 3
        },
        {
          "note": 60,
          "start": 231.054663,
          "duration": 2.386241,
          "velocity": 0.653543,
          "start_tick": 349355,
          "duration_ticks": 3608,
          "channel": 3
        },
        {
          "note": 63,
          "start": 233.598973,
          "duration": 2.365077,
          "velocity": 0.748031,
          "start_tick": 353202,
          "duration_ticks": 3576,
          "channel": 3
        },
        {
          "note": 59,
          "start": 236.143282,
          "duration": 2.445103,
          "velocity": 0.669291,
          "start_tick": 357049,
          "duration_ticks": 3697,
          "channel": 3
        },
        {
          "note": 60,
          "start": 238.687592,
          "duration": 2.410051,
          "velocity": 0.787402,
          "start_tick": 360896,
          "duration_ticks": 3644,
          "channel": 3
        },
        {
          "note": 60,
          "start": 241.231902,
          "duration": 2.425923,
          "velocity": 0.740157,
          "start_tick": 364743,
          "duration_ticks": 3668,
          "channel": 3
        },
        {
          "note": 58,
          "start": 243.776211,
          "duration": 2.348543,
          "velocity": 0.826772,
          "start_tick": 368590,
          "duration_ticks": 3551,
          "channel": 3
        },
        {
          "note": 59,
          "start": 246.316553,
          "duration": 2.46296,
          "velocity": 0.76378,
          "start_tick": 372431,
          "duration_ticks": 3724,
          "channel": 3
        },
        {
          "note": 60,
          "start": 248.853587,
          "duration": 2.480156,
          "velocity": 0.787402,
          "start_tick": 376267,
          "duration_ticks": 3750,
          "channel": 3
        },
        {
          "note": 60,
          "start": 251.38996,
          "duration": 2.379627,
          "velocity": 0.653543,
          "start_tick": 380102,
          "duration_ticks": 3598,
          "channel": 3
        },
        {
          "note": 63,
          "start": 253.926995,
          "duration": 2.357802,
          "velocity": 0.748031,
          "start_tick": 383938,
          "duration_ticks": 3565,
          "channel": 3
        },
        {
          "note": 59,
          "start": 256.463368,
          "duration": 2.437828,
          "velocity": 0.669291,
          "start_tick": 387773,
          "duration_ticks": 3686,
          "channel": 3
        },
        {
          "note": 60,
          "start": 259.000402,
          "duration": 2.402775,
          "velocity": 0.787402,
          "start_tick": 391609,
          "duration_ticks": 3633,
          "channel": 3
        },
        {
          "note": 60,
          "start": 261.536775,
          "duration": 2.418648,
          "velocity": 0.740157,
          "start_tick": 395444,
          "duration_ticks": 3657,
          "channel": 3
        },
        {
          "note": 58,
          "start": 264.07381,
          "duration": 2.345897,
          "velocity": 0.826772,
          "start_tick": 399280,
          "duration_ticks": 3547,
          "channel": 3
        },
        {
          "note": 59,
          "start": 266.612167,
          "duration": 2.465606,
          "velocity": 0.76378,
          "start_tick": 403118,
          "duration_ticks": 3728,
          "channel": 3
        },
        {
          "note": 60,
          "start": 269.151847,
          "duration": 2.483463,
          "velocity": 0.787402,
          "start_tick": 406958,
          "duration_ticks": 3755,
          "channel": 3
        },
        {
          "note": 60,
          "start": 271.691527,
          "duration": 2.382273,
          "velocity": 0.653543,
          "start_tick": 410798,
          "duration_ticks": 3602,
          "channel": 3
        },
        {
          "note": 63,
          "start": 274.231207,
          "duration": 2.360447,
          "velocity": 0.748031,
          "start_tick": 414638,
          "duration_ticks": 3569,
          "channel": 3
        },
        {
          "note": 59,
          "start": 276.770887,
          "duration": 2.440474,
          "velocity": 0.669291,
          "start_tick": 418478,
          "duration_ticks": 3690,
          "channel": 3
        },
        {
          "note": 60,
          "start": 279.310567,
          "duration": 2.405421,
          "velocity": 0.787402,
          "start_tick": 422318,
          "duration_ticks": 3637,
          "channel": 3
        },
        {
          "note": 60,
          "start": 281.850247,
          "duration": 2.421294,
          "velocity": 0.740157,
          "start_tick": 426158,
          "duration_ticks": 3661,
          "channel": 3
        },
        {
          "note": 58,
          "start": 284.389927,
          "duration": 2.34722,
          "velocity": 0.826772,
          "start_tick": 429998,
          "duration_ticks": 3549,
          "channel": 3
        },
        {
          "note": 59,
          "start": 286.929607,
          "duration": 2.465606,
          "velocity": 0.76378,
          "start_tick": 433838,
          "duration_ticks": 3728,
          "channel": 3
        },
        {
          "note": 60,
          "start": 289.469287,
          "duration": 2.483463,
          "velocity": 0.787402,
          "start_tick": 437678,
          "duration_ticks": 3755,
          "channel": 3
        },
        {
          "note": 60,
          "start": 292.008967,
          "duration": 2.382273,
          "velocity": 0.653543,
          "start_tick": 441518,
          "duration_ticks": 3602,
          "channel": 3
        },
        {
          "note": 63,
          "start": 294.548647,
          "duration": 2.360447,
          "velocity": 0.748031,
          "start_tick": 445358,
          "duration_ticks": 3569,
          "channel": 3
        },
        {
          "note": 59,
          "start": 297.088327,
          "duration": 2.440474,
          "velocity": 0.669291,
          "start_tick": 449198,
          "duration_ticks": 3690,
          "channel": 3
        },
        {
          "note": 60,
          "start": 299.628007,
          "duration": 2.405421,
          "velocity": 0.787402,
          "start_tick": 453038,
          "duration_ticks": 3637,
          "channel": 3
        },
        {
          "note": 60,
          "start": 302.167687,
          "duration": 2.421294,
          "velocity": 0.740157,
          "start_tick": 456878,
          "duration_ticks": 3661,
          "channel": 3
        },
        {
          "note": 58,
          "start": 304.707367,
          "duration": 2.34722,
          "velocity": 0.826772,
          "start_tick": 460718,
          "duration_ticks": 3549,
          "channel": 3
        },
        {
          "note": 59,
          "start": 307.247047,
          "duration": 2.465606,
          "velocity": 0.76378,
          "start_tick": 464558,
          "duration_ticks": 3728,
          "channel": 3
        },
        {
          "note": 60,
          "start": 309.786727,
          "duration": 2.483463,
          "velocity": 0.787402,
          "start_tick": 468398,
          "duration_ticks": 3755,
          "channel": 3
        }
      ]
    },
    {
      "id": "saw_wave",
      "source_track_index": 6,
      "source_name": "Saw Wave    ",
      "role": "saw_wave",
      "channel": 4,
      "gm_program": 81,
      "gm_program_name": "Lead 2 sawtooth",
      "note_count": 2560,
      "pitch_range": [
        60,
        92
      ],
      "time_range": [
        40.526415,
        312.326407
      ],
      "notes": [
        {
          "note": 60,
          "start": 40.526415,
          "duration": 0.078704,
          "velocity": 0.007874,
          "start_tick": 61276,
          "duration_ticks": 119,
          "channel": 4
        },
        {
          "note": 63,
          "start": 40.605118,
          "duration": 0.078704,
          "velocity": 0.007874,
          "start_tick": 61395,
          "duration_ticks": 119,
          "channel": 4
        },
        {
          "note": 65,
          "start": 40.683822,
          "duration": 0.079365,
          "velocity": 0.007874,
          "start_tick": 61514,
          "duration_ticks": 120,
          "channel": 4
        },
        {
          "note": 67,
          "start": 40.763187,
          "duration": 0.078704,
          "velocity": 0.007874,
          "start_tick": 61634,
          "duration_ticks": 119,
          "channel": 4
        },
        {
          "note": 63,
          "start": 40.84189,
          "duration": 0.078704,
          "velocity": 0.007874,
          "start_tick": 61753,
          "duration_ticks": 119,
          "channel": 4
        },
        {
          "note": 65,
          "start": 40.920594,
          "duration": 0.079365,
          "velocity": 0.007874,
          "start_tick": 61872,
          "duration_ticks": 120,
          "channel": 4
        },
        {
          "note": 67,
          "start": 40.999959,
          "duration": 0.078704,
          "velocity": 0.015748,
          "start_tick": 61992,
          "duration_ticks": 119,
          "channel": 4
        },
        {
          "note": 72,
          "start": 41.078663,
          "duration": 0.078704,
          "velocity": 0.015748,
          "start_tick": 62111,
          "duration_ticks": 119,
          "channel": 4
        },
        {
          "note": 67,
          "start": 41.157366,
          "duration": 0.079365,
          "velocity": 0.015748,
          "start_tick": 62230,
          "duration_ticks": 120,
          "channel": 4
        },
        {
          "note": 72,
          "start": 41.236731,
          "duration": 0.078704,
          "velocity": 0.023622,
          "start_tick": 62350,
          "duration_ticks": 119,
          "channel": 4
        },
        {
          "note": 75,
          "start": 41.315435,
          "duration": 0.078704,
          "velocity": 0.023622,
          "start_tick": 62469,
          "duration_ticks": 119,
          "channel": 4
        },
        {
          "note": 77,
          "start": 41.394138,
          "duration": 0.078704,
          "velocity": 0.023622,
          "start_tick": 62588,
          "duration_ticks": 119,
          "channel": 4
        },
        {
          "note": 75,
          "start": 41.472842,
          "duration": 0.079365,
          "velocity": 0.031496,
          "start_tick": 62707,
          "duration_ticks": 120,
          "channel": 4
        },
        {
          "note": 77,
          "start": 41.552207,
          "duration": 0.078704,
          "velocity": 0.031496,
          "start_tick": 62827,
          "duration_ticks": 119,
          "channel": 4
        },
        {
          "note": 79,
          "start": 41.630911,
          "duration": 0.078704,
          "velocity": 0.03937,
          "start_tick": 62946,
          "duration_ticks": 119,
          "channel": 4
        },
        {
          "note": 84,
          "start": 41.709614,
          "duration": 0.079365,
          "velocity": 0.03937,
          "start_tick": 63065,
          "duration_ticks": 120,
          "channel": 4
        },
        {
          "note": 79,
          "start": 41.788979,
          "duration": 0.078704,
          "velocity": 0.03937,
          "start_tick": 63185,
          "duration_ticks": 119,
          "channel": 4
        },
        {
          "note": 77,
          "start": 41.867683,
          "duration": 0.078704,
          "velocity": 0.047244,
          "start_tick": 63304,
          "duration_ticks": 119,
          "channel": 4
        },
        {
          "note": 75,
          "start": 41.946387,
          "duration": 0.078704,
          "velocity": 0.047244,
          "start_tick": 63423,
          "duration_ticks": 119,
          "channel": 4
        },
        {
          "note": 79,
          "start": 42.02509,
          "duration": 0.079365,
          "velocity": 0.047244,
          "start_tick": 63542,
          "duration_ticks": 120,
          "channel": 4
        },
        {
          "note": 77,
          "start": 42.104455,
          "duration": 0.078704,
          "velocity": 0.055118,
          "start_tick": 63662,
          "duration_ticks": 119,
          "channel": 4
        },
        {
          "note": 75,
          "start": 42.183159,
          "duration": 0.078704,
          "velocity": 0.055118,
          "start_tick": 63781,
          "duration_ticks": 119,
          "channel": 4
        },
        {
          "note": 72,
          "start": 42.261862,
          "duration": 0.079365,
          "velocity": 0.055118,
          "start_tick": 63900,
          "duration_ticks": 120,
          "channel": 4
        },
        {
          "note": 77,
          "start": 42.341228,
          "duration": 0.078704,
          "velocity": 0.062992,
          "start_tick": 64020,
          "duration_ticks": 119,
          "channel": 4
        },
        {
          "note": 75,
          "start": 42.419931,
          "duration": 0.078704,
          "velocity": 0.062992,
          "start_tick": 64139,
          "duration_ticks": 119,
          "channel": 4
        },
        {
          "note": 72,
          "start": 42.498635,
          "duration": 0.079365,
          "velocity": 0.062992,
          "start_tick": 64258,
          "duration_ticks": 120,
          "channel": 4
        },
        {
          "note": 67,
          "start": 42.578,
          "duration": 0.078704,
          "velocity": 0.070866,
          "start_tick": 64378,
          "duration_ticks": 119,
          "channel": 4
        },
        {
          "note": 65,
          "start": 42.656703,
          "duration": 0.078704,
          "velocity": 0.070866,
          "start_tick": 64497,
          "duration_ticks": 119,
          "channel": 4
        },
        {
          "note": 72,
          "start": 42.735407,
          "duration": 0.078704,
          "velocity": 0.070866,
          "start_tick": 64616,
          "duration_ticks": 119,
          "channel": 4
        },
        {
          "note": 67,
          "start": 42.814111,
          "duration": 0.079365,
          "velocity": 0.07874,
          "start_tick": 64735,
          "duration_ticks": 120,
          "channel": 4
        },
        {
          "note": 65,
          "start": 42.893476,
          "duration": 0.078704,
          "velocity": 0.07874,
          "start_tick": 64855,
          "duration_ticks": 119,
          "channel": 4
        },
        {
          "note": 60,
          "start": 42.972179,
          "duration": 0.078704,
          "velocity": 0.07874,
          "start_tick": 64974,
          "duration_ticks": 119,
          "channel": 4
        },
        {
          "note": 63,
          "start": 43.050883,
          "duration": 0.079365,
          "velocity": 0.086614,
          "start_tick": 65093,
          "duration_ticks": 120,
          "channel": 4
        },
        {
          "note": 67,
          "start": 43.130248,
          "duration": 0.078704,
          "velocity": 0.086614,
          "start_tick": 65213,
          "duration_ticks": 119,
          "channel": 4
        },
        {
          "note": 70,
          "start": 43.208951,
          "duration": 0.078704,
          "velocity": 0.086614,
          "start_tick": 65332,
          "duration_ticks": 119,
          "channel": 4
        },
        {
          "note": 75,
          "start": 43.287655,
          "duration": 0.078704,
          "velocity": 0.094488,
          "start_tick": 65451,
          "duration_ticks": 119,
          "channel": 4
        },
        {
          "note": 67,
          "start": 43.366359,
          "duration": 0.079365,
          "velocity": 0.094488,
          "start_tick": 65570,
          "duration_ticks": 120,
          "channel": 4
        },
        {
          "note": 70,
          "start": 43.445724,
          "duration": 0.078704,
          "velocity": 0.094488,
          "start_tick": 65690,
          "duration_ticks": 119,
          "channel": 4
        },
        {
          "note": 75,
          "start": 43.524427,
          "duration": 0.078704,
          "velocity": 0.102362,
          "start_tick": 65809,
          "duration_ticks": 119,
          "channel": 4
        },
        {
          "note": 79,
          "start": 43.603131,
          "duration": 0.079365,
          "velocity": 0.102362,
          "start_tick": 65928,
          "duration_ticks": 120,
          "channel": 4
        },
        {
          "note": 70,
          "start": 43.682496,
          "duration": 0.078704,
          "velocity": 0.110236,
          "start_tick": 66048,
          "duration_ticks": 119,
          "channel": 4
        },
        {
          "note": 75,
          "start": 43.7612,
          "duration": 0.078704,
          "velocity": 0.110236,
          "start_tick": 66167,
          "duration_ticks": 119,
          "channel": 4
        },
        {
          "note": 79,
          "start": 43.839903,
          "duration": 0.079365,
          "velocity": 0.110236,
          "start_tick": 66286,
          "duration_ticks": 120,
          "channel": 4
        },
        {
          "note": 82,
          "start": 43.919268,
          "duration": 0.078704,
          "velocity": 0.11811,
          "start_tick": 66406,
          "duration_ticks": 119,
          "channel": 4
        },
        {
          "note": 75,
          "start": 43.997972,
          "duration": 0.078704,
          "velocity": 0.11811,
          "start_tick": 66525,
          "duration_ticks": 119,
          "channel": 4
        },
        {
          "note": 79,
          "start": 44.076676,
          "duration": 0.078704,
          "velocity": 0.11811,
          "start_tick": 66644,
          "duration_ticks": 119,
          "channel": 4
        },
        {
          "note": 82,
          "start": 44.155379,
          "duration": 0.079365,
          "velocity": 0.125984,
          "start_tick": 66763,
          "duration_ticks": 120,
          "channel": 4
        },
        {
          "note": 87,
          "start": 44.234744,
          "duration": 0.078704,
          "velocity": 0.125984,
          "start_tick": 66883,
          "duration_ticks": 119,
          "channel": 4
        },
        {
          "note": 82,
          "start": 44.313448,
          "duration": 0.078704,
          "velocity": 0.125984,
          "start_tick": 67002,
          "duration_ticks": 119,
          "channel": 4
        },
        {
          "note": 79,
          "start": 44.392151,
          "duration": 0.079365,
          "velocity": 0.133858,
          "start_tick": 67121,
          "duration_ticks": 120,
          "channel": 4
        },
        {
          "note": 75,
          "start": 44.471516,
          "duration": 0.078704,
          "velocity": 0.133858,
          "start_tick": 67241,
          "duration_ticks": 119,
          "channel": 4
        },
        {
          "note": 70,
          "start": 44.55022,
          "duration": 0.078704,
          "velocity": 0.133858,
          "start_tick": 67360,
          "duration_ticks": 119,
          "channel": 4
        },
        {
          "note": 80,
          "start": 44.628924,
          "duration": 0.078704,
          "velocity": 0.141732,
          "start_tick": 67479,
          "duration_ticks": 119,
          "channel": 4
        },
        {
          "note": 75,
          "start": 44.707627,
          "duration": 0.079365,
          "velocity": 0.141732,
          "start_tick": 67598,
          "duration_ticks": 120,
          "channel": 4
        },
        {
          "note": 70,
          "start": 44.786992,
          "duration": 0.078704,
          "velocity": 0.141732,
          "start_tick": 67718,
          "duration_ticks": 119,
          "channel": 4
        },
        {
          "note": 67,
          "start": 44.865696,
          "duration": 0.079365,
          "velocity": 0.149606,
          "start_tick": 67837,
          "duration_ticks": 120,
          "channel": 4
        },
        {
          "note": 82,
          "start": 44.945061,
          "duration": 0.079365,
          "velocity": 0.149606,
          "start_tick": 67957,
          "duration_ticks": 120,
          "channel": 4
        },
        {
          "note": 80,
          "start": 45.024426,
          "duration": 0.079365,
          "velocity": 0.149606,
          "start_tick": 68077,
          "duration_ticks": 120,
          "channel": 4
        },
        {
          "note": 75,
          "start": 45.103791,
          "duration": 0.079365,
          "velocity": 0.15748,
          "start_tick": 68197,
          "duration_ticks": 120,
          "channel": 4
        },
        {
          "note": 70,
          "start": 45.183156,
          "duration": 0.079365,
          "velocity": 0.15748,
          "start_tick": 68317,
          "duration_ticks": 120,
          "channel": 4
        },
        {
          "note": 75,
          "start": 45.262521,
          "duration": 0.079365,
          "velocity": 0.15748,
          "start_tick": 68437,
          "duration_ticks": 120,
          "channel": 4
        },
        {
          "note": 70,
          "start": 45.341886,
          "duration": 0.079365,
          "velocity": 0.165354,
          "start_tick": 68557,
          "duration_ticks": 120,
          "channel": 4
        },
        {
          "note": 67,
          "start": 45.421251,
          "duration": 0.079365,
          "velocity": 0.165354,
          "start_tick": 68677,
          "duration_ticks": 120,
          "channel": 4
        },
        {
          "note": 63,
          "start": 45.500616,
          "duration": 0.078704,
          "velocity": 0.165354,
          "start_tick": 68797,
          "duration_ticks": 119,
          "channel": 4
        },
        {
          "note": 67,
          "start": 45.579319,
          "duration": 0.079365,
          "velocity": 0.173228,
          "start_tick": 68916,
          "duration_ticks": 120,
          "channel": 4
        },
        {
          "note": 71,
          "start": 45.658684,
          "duration": 0.079365,
          "velocity": 0.173228,
          "start_tick": 69036,
          "duration_ticks": 120,
          "channel": 4
        },
        {
          "note": 74,
          "start": 45.73805,
          "duration": 0.079365,
          "velocity": 0.181102,
          "start_tick": 69156,
          "duration_ticks": 120,
          "channel": 4
        },
        {
          "note": 79,
          "start": 45.817414,
          "duration": 0.079365,
          "velocity": 0.181102,
          "start_tick": 69276,
          "duration_ticks": 120,
          "channel": 4
        },
        {
          "note": 71,
          "start": 45.89678,
          "duration": 0.079365,
          "velocity": 0.181102,
          "start_tick": 69396,
          "duration_ticks": 120,
          "channel": 4
        },
        {
          "note": 74,
          "start": 45.976144,
          "duration": 0.079365,
          "velocity": 0.188976,
          "start_tick": 69516,
          "duration_ticks": 120,
          "channel": 4
        },
        {
          "note": 79,
          "start": 46.055509,
          "duration": 0.079365,
          "velocity": 0.188976,
          "start_tick": 69636,
          "duration_ticks": 120,
          "channel": 4
        },
        {
          "note": 83,
          "start": 46.134875,
          "duration": 0.079365,
          "velocity": 0.188976,
          "start_tick": 69756,
          "duration_ticks": 120,
          "channel": 4
        },
        {
          "note": 74,
          "start": 46.214239,
          "duration": 0.079365,
          "velocity": 0.19685,
          "start_tick": 69876,
          "duration_ticks": 120,
          "channel": 4
        },
        {
          "note": 79,
          "start": 46.293605,
          "duration": 0.079365,
          "velocity": 0.19685,
          "start_tick": 69996,
          "duration_ticks": 120,
          "channel": 4
        },
        {
          "note": 83,
          "start": 46.37297,
          "duration": 0.079365,
          "velocity": 0.19685,
          "start_tick": 70116,
          "duration_ticks": 120,
          "channel": 4
        },
        {
          "note": 86,
          "start": 46.452334,
          "duration": 0.079365,
          "velocity": 0.204724,
          "start_tick": 70236,
          "duration_ticks": 120,
          "channel": 4
        },
        {
          "note": 79,
          "start": 46.5317,
          "duration": 0.079365,
          "velocity": 0.204724,
          "start_tick": 70356,
          "duration_ticks": 120,
          "channel": 4
        },
        {
          "note": 83,
          "start": 46.611064,
          "duration": 0.079365,
          "velocity": 0.204724,
          "start_tick": 70476,
          "duration_ticks": 120,
          "channel": 4
        },
        {
          "note": 86,
          "start": 46.69043,
          "duration": 0.078704,
          "velocity": 0.212598,
          "start_tick": 70596,
          "duration_ticks": 119,
          "channel": 4
        },
        {
          "note": 91,
          "start": 46.769133,
          "duration": 0.079365,
          "velocity": 0.212598,
          "start_tick": 70715,
          "duration_ticks": 120,
          "channel": 4
        },
        {
          "note": 86,
          "start": 46.848498,
          "duration": 0.079365,
          "velocity": 0.212598,
          "start_tick": 70835,
          "duration_ticks": 120,
          "channel": 4
        },
        {
          "note": 83,
          "start": 46.927863,
          "duration": 0.079365,
          "velocity": 0.220472,
          "start_tick": 70955,
          "duration_ticks": 120,
          "channel": 4
        },
        {
          "note": 79,
          "start": 47.007228,
          "duration": 0.079365,
          "velocity": 0.220472,
          "start_tick": 71075,
          "duration_ticks": 120,
          "channel": 4
        },
        {
          "note": 74,
          "start": 47.086593,
          "duration": 0.079365,
          "velocity": 0.220472,
          "start_tick": 71195,
          "duration_ticks": 120,
          "channel": 4
        },
        {
          "note": 84,
          "start": 47.165958,
          "duration": 0.079365,
          "velocity": 0.228346,
          "start_tick": 71315,
          "duration_ticks": 120,
          "channel": 4
        },
        {
          "note": 79,
          "start": 47.245323,
          "duration": 0.079365,
          "velocity": 0.228346,
          "start_tick": 71435,
          "duration_ticks": 120,
          "channel": 4
        },
        {
          "note": 74,
          "start": 47.324688,
          "duration": 0.079365,
          "velocity": 0.228346,
          "start_tick": 71555,
          "duration_ticks": 120,
          "channel": 4
        },
        {
          "note": 71,
          "start": 47.404053,
          "duration": 0.079365,
          "velocity": 0.23622,
          "start_tick": 71675,
          "duration_ticks": 120,
          "channel": 4
        },
        {
          "note": 86,
          "start": 47.483418,
          "duration": 0.079365,
          "velocity": 0.23622,
          "start_tick": 71795,
          "duration_ticks": 120,
          "channel": 4
        },
        {
          "note": 84,
          "start": 47.562783,
          "duration": 0.079365,
          "velocity": 0.23622,
          "start_tick": 71915,
          "duration_ticks": 120,
          "channel": 4
        },
        {
          "note": 79,
          "start": 47.642148,
          "duration": 0.079365,
          "velocity": 0.244094,
          "start_tick": 72035,
          "duration_ticks": 120,
          "channel": 4
        },
        {
          "note": 74,
          "start": 47.721513,
          "duration": 0.079365,
          "velocity": 0.244094,
          "start_tick": 72155,
          "duration_ticks": 120,
          "channel": 4
        },
        {
          "note": 79,
          "start": 47.800878,
          "duration": 0.079365,
          "velocity": 0.251969,
          "start_tick": 72275,
          "duration_ticks": 120,
          "channel": 4
        },
        {
          "note": 74,
          "start": 47.880243,
          "duration": 0.079365,
          "velocity": 0.251969,
          "start_tick": 72395,
          "duration_ticks": 120,
          "channel": 4
        },
        {
          "note": 71,
          "start": 47.959608,
          "duration": 0.078704,
          "velocity": 0.251969,
          "start_tick": 72515,
          "duration_ticks": 119,
          "channel": 4
        },
        {
          "note": 67,
          "start": 48.038312,
          "duration": 0.079365,
          "velocity": 0.259843,
          "start_tick": 72634,
          "duration_ticks": 120,
          "channel": 4
        },
        {
          "note": 65,
          "start": 48.117677,
          "duration": 0.079365,
          "velocity": 0.259843,
          "start_tick": 72754,
          "duration_ticks": 120,
          "channel": 4
        },
        {
          "note": 68,
          "start": 48.197042,
          "duration": 0.079365,
          "velocity": 0.259843,
          "start_tick": 72874,
          "duration_ticks": 120,
          "channel": 4
        },
        {
          "note": 72,
          "start": 48.276407,
          "duration": 0.079365,
          "velocity": 0.267717,
          "start_tick": 72994,
          "duration_ticks": 120,
          "channel": 4
        },
        {
          "note": 77,
          "start": 48.355772,
          "duration": 0.079365,
          "velocity": 0.267717,
          "start_tick": 73114,
          "duration_ticks": 120,
          "channel": 4
        },
        {
          "note": 68,
          "start": 48.435137,
          "duration": 0.079365,
          "velocity": 0.267717,
          "start_tick": 73234,
          "duration_ticks": 120,
          "channel": 4
        },
        {
          "note": 72,
          "start": 48.514502,
          "duration": 0.079365,
          "velocity": 0.275591,
          "start_tick": 73354,
          "duration_ticks": 120,
          "channel": 4
        },
        {
          "note": 77,
          "start": 48.593867,
          "duration": 0.079365,
          "velocity": 0.275591,
          "start_tick": 73474,
          "duration_ticks": 120,
          "channel": 4
        },
        {
          "note": 80,
          "start": 48.673232,
          "duration": 0.079365,
          "velocity": 0.275591,
          "start_tick": 73594,
          "duration_ticks": 120,
          "channel": 4
        },
        {
          "note": 72,
          "start": 48.752597,
          "duration": 0.079365,
          "velocity": 0.283465,
          "start_tick": 73714,
          "duration_ticks": 120,
          "channel": 4
        },
        {
          "note": 77,
          "start": 48.831962,
          "duration": 0.079365,
          "velocity": 0.283465,
          "start_tick": 73834,
          "duration_ticks": 120,
          "channel": 4
        },
        {
          "note": 80,
          "start": 48.911327,
          "duration": 0.079365,
          "velocity": 0.283465,
          "start_tick": 73954,
          "duration_ticks": 120,
          "channel": 4
        },
        {
          "note": 84,
          "start": 48.990692,
          "duration": 0.079365,
          "velocity": 0.291339,
          "start_tick": 74074,
          "duration_ticks": 120,
          "channel": 4
        },
        {
          "note": 77,
          "start": 49.070057,
          "duration": 0.079365,
          "velocity": 0.291339,
          "start_tick": 74194,
          "duration_ticks": 120,
          "channel": 4
        },
        {
          "note": 80,
          "start": 49.149422,
          "duration": 0.078704,
          "velocity": 0.291339,
          "start_tick": 74314,
          "duration_ticks": 119,
          "channel": 4
        },
        {
          "note": 84,
          "start": 49.228125,
          "duration": 0.079365,
          "velocity": 0.299213,
          "start_tick": 74433,
          "duration_ticks": 120,
          "channel": 4
        },
        {
          "note": 89,
          "start": 49.30749,
          "duration": 0.079365,
          "velocity": 0.299213,
          "start_tick": 74553,
          "duration_ticks": 120,
          "channel": 4
        },
        {
          "note": 84,
          "start": 49.386855,
          "duration": 0.079365,
          "velocity": 0.299213,
          "start_tick": 74673,
          "duration_ticks": 120,
          "channel": 4
        },
        {
          "note": 80,
          "start": 49.46622,
          "duration": 0.079365,
          "velocity": 0.307087,
          "start_tick": 74793,
          "duration_ticks": 120,
          "channel": 4
        },
        {
          "note": 77,
          "start": 49.545585,
          "duration": 0.079365,
          "velocity": 0.307087,
          "start_tick": 74913,
          "duration_ticks": 120,
          "channel": 4
        },
        {
          "note": 72,
          "start": 49.62495,
          "duration": 0.079365,
          "velocity": 0.307087,
          "start_tick": 75033,
          "duration_ticks": 120,
          "channel": 4
        },
        {
          "note": 80,
          "start": 49.704315,
          "duration": 0.079365,
          "velocity": 0.314961,
          "start_tick": 75153,
          "duration_ticks": 120,
          "channel": 4
        },
        {
          "note": 77,
          "start": 49.78368,
          "duration": 0.079365,
          "velocity": 0.314961,
          "start_tick": 75273,
          "duration_ticks": 120,
          "channel": 4
        },
        {
          "note": 72,
          "start": 49.863045,
          "duration": 0.079365,
          "velocity": 0.322835,
          "start_tick": 75393,
          "duration_ticks": 120,
          "channel": 4
        },
        {
          "note": 68,
          "start": 49.94241,
          "duration": 0.079365,
          "velocity": 0.322835,
          "start_tick": 75513,
          "duration_ticks": 120,
          "channel": 4
        },
        {
          "note": 84,
          "start": 50.021775,
          "duration": 0.079365,
          "velocity": 0.322835,
          "start_tick": 75633,
          "duration_ticks": 120,
          "channel": 4
        },
        {
          "note": 80,
          "start": 50.10114,
          "duration": 0.079365,
          "velocity": 0.330709,
          "start_tick": 75753,
          "duration_ticks": 120,
          "channel": 4
        },
        {
          "note": 77,
          "start": 50.180505,
          "duration": 0.079365,
          "velocity": 0.330709,
          "start_tick": 75873,
          "duration_ticks": 120,
          "channel": 4
        },
        {
          "note": 72,
          "start": 50.25987,
          "duration": 0.079365,
          "velocity": 0.330709,
          "start_tick": 75993,
          "duration_ticks": 120,
          "channel": 4
        },
        {
          "note": 77,
          "start": 50.339235,
          "duration": 0.079365,
          "velocity": 0.338583,
          "start_tick": 76113,
          "duration_ticks": 120,
          "channel": 4
        },
        {
          "note": 72,
          "start": 50.4186,
          "duration": 0.078704,
          "velocity": 0.338583,
          "start_tick": 76233,
          "duration_ticks": 119,
          "channel": 4
        },
        {
          "note": 68,
          "start": 50.497304,
          "duration": 0.079365,
          "velocity": 0.338583,
          "start_tick": 76352,
          "duration_ticks": 120,
          "channel": 4
        },
        {
          "note": 65,
          "start": 50.576669,
          "duration": 0.079365,
          "velocity": 0.346457,
          "start_tick": 76472,
          "duration_ticks": 120,
          "channel": 4
        },
        {
          "note": 68,
          "start": 50.656034,
          "duration": 0.079365,
          "velocity": 0.346457,
          "start_tick": 76592,
          "duration_ticks": 120,
          "channel": 4
        },
        {
          "note": 72,
          "start": 50.735399,
          "duration": 0.079365,
          "velocity": 0.346457,
          "start_tick": 76712,
          "duration_ticks": 120,
          "channel": 4
        },
        {
          "note": 75,
          "start": 50.814764,
          "duration": 0.079365,
          "velocity": 0.354331,
          "start_tick": 76832,
          "duration_ticks": 120,
          "channel": 4
        },
        {
          "note": 80,
          "start": 50.894129,
          "duration": 0.079365,
          "velocity": 0.354331,
          "start_tick": 76952,
          "duration_ticks": 120,
          "channel": 4
        },
        {
          "note": 72,
          "start": 50.973494,
          "duration": 0.079365,
          "velocity": 0.354331,
          "start_tick": 77072,
          "duration_ticks": 120,
          "channel": 4
        },
        {
          "note": 75,
          "start": 51.052859,
          "duration": 0.079365,
          "velocity": 0.362205,
          "start_tick": 77192,
          "duration_ticks": 120,
          "channel": 4
        },
        {
          "note": 80,
          "start": 51.132224,
          "duration": 0.079365,
          "velocity": 0.362205,
          "start_tick": 77312,
          "duration_ticks": 120,
          "channel": 4
        },
        {
          "note": 84,
          "start": 51.211589,
          "duration": 0.079365,
          "velocity": 0.362205,
          "start_tick": 77432,
          "duration_ticks": 120,
          "channel": 4
        },
        {
          "note": 75,
          "start": 51.290954,
          "duration": 0.079365,
          "velocity": 0.370079,
          "start_tick": 77552,
          "duration_ticks": 120,
          "channel": 4
        },
        {
          "note": 80,
          "start": 51.370319,
          "duration": 0.079365,
          "velocity": 0.370079,
          "start_tick": 77672,
          "duration_ticks": 120,
          "channel": 4
        },
        {
          "note": 84,
          "start": 51.449684,
          "duration": 0.079365,
          "velocity": 0.370079,
          "start_tick": 77792,
          "duration_ticks": 120,
          "channel": 4
        },
        {
          "note": 87,
          "start": 51.529049,
          "duration": 0.079365,
          "velocity": 0.377953,
          "start_tick": 77912,
          "duration_ticks": 120,
          "channel": 4
        },
        {
          "note": 80,
          "start": 51.608414,
          "duration": 0.078704,
          "velocity": 0.377953,
          "start_tick": 78032,
          "duration_ticks": 119,
          "channel": 4
        },
        {
          "note": 84,
          "start": 51.687118,
          "duration": 0.079365,
          "velocity": 0.377953,
          "start_tick": 78151,
          "duration_ticks": 120,
          "channel": 4
        },
        {
          "note": 87,
          "start": 51.766483,
          "duration": 0.079365,
          "velocity": 0.385827,
          "start_tick": 78271,
          "duration_ticks": 120,
          "channel": 4
        },
        {
          "note": 92,
          "start": 51.845848,
          "duration": 0.079365,
          "velocity": 0.385827,
          "start_tick": 78391,
          "duration_ticks": 120,
          "channel": 4
        },
        {
          "note": 87,
          "start": 51.925213,
          "duration": 0.079365,
          "velocity": 0.393701,
          "start_tick": 78511,
          "duration_ticks": 120,
          "channel": 4
        },
        {
          "note": 84,
          "start": 52.004578,
          "duration": 0.079365,
          "velocity": 0.393701,
          "start_tick": 78631,
          "duration_ticks": 120,
          "channel": 4
        },
        {
          "note": 80,
          "start": 52.083943,
          "duration": 0.079365,
          "velocity": 0.393701,
          "start_tick": 78751,
          "duration_ticks": 120,
          "channel": 4
        },
        {
          "note": 75,
          "start": 52.163308,
          "duration": 0.079365,
          "velocity": 0.401575,
          "start_tick": 78871,
          "duration_ticks": 120,
          "channel": 4
        },
        {
          "note": 85,
          "start": 52.242673,
          "duration": 0.079365,
          "velocity": 0.401575,
          "start_tick": 78991,
          "duration_ticks": 120,
          "channel": 4
        },
        {
          "note": 80,
          "start": 52.322038,
          "duration": 0.079365,
          "velocity": 0.401575,
          "start_tick": 79111,
          "duration_ticks": 120,
          "channel": 4
        },
        {
          "note": 75,
          "start": 52.401403,
          "duration": 0.079365,
          "velocity": 0.409449,
          "start_tick": 79231,
          "duration_ticks": 120,
          "channel": 4
        },
        {
          "note": 72,
          "start": 52.480768,
          "duration": 0.079365,
          "velocity": 0.409449,
          "start_tick": 79351,
          "duration_ticks": 120,
          "channel": 4
        },
        {
          "note": 87,
          "start": 52.560133,
          "duration": 0.079365,
          "velocity": 0.409449,
          "start_tick": 79471,
          "duration_ticks": 120,
          "channel": 4
        },
        {
          "note": 85,
          "start": 52.639498,
          "duration": 0.079365,
          "velocity": 0.417323,
          "start_tick": 79591,
          "duration_ticks": 120,
          "channel": 4
        },
        {
          "note": 80,
          "start": 52.718863,
          "duration": 0.079365,
          "velocity": 0.417323,
          "start_tick": 79711,
          "duration_ticks": 120,
          "channel": 4
        },
        {
          "note": 75,
          "start": 52.798228,
          "duration": 0.079365,
          "velocity": 0.417323,
          "start_tick": 79831,
          "duration_ticks": 120,
          "channel": 4
        },
        {
          "note": 80,
          "start": 52.877593,
          "duration": 0.078704,
          "velocity": 0.425197,
          "start_tick": 79951,
          "duration_ticks": 119,
          "channel": 4
        },
        {
          "note": 75,
          "start": 52.956296,
          "duration": 0.079365,
          "velocity": 0.425197,
          "start_tick": 80070,
          "duration_ticks": 120,
          "channel": 4
        },
        {
          "note": 72,
          "start": 53.035661,
          "duration": 0.079365,
          "velocity": 0.425197,
          "start_tick": 80190,
          "duration_ticks": 120,
          "channel": 4
        },
        {
          "note": 68,
          "start": 53.115026,
          "duration": 0.079365,
          "velocity": 0.433071,
          "start_tick": 80310,
          "duration_ticks": 120,
          "channel": 4
        },
        {
          "note": 63,
          "start": 53.194391,
          "duration": 0.079365,
          "velocity": 0.433071,
          "start_tick": 80430,
          "duration_ticks": 120,
          "channel": 4
        },
        {
          "note": 67,
          "start": 53.273756,
          "duration": 0.079365,
          "velocity": 0.433071,
          "start_tick": 80550,
          "duration_ticks": 120,
          "channel": 4
        },
        {
          "note": 70,
          "start": 53.353121,
          "duration": 0.079365,
          "velocity": 0.440945,
          "start_tick": 80670,
          "duration_ticks": 120,
          "channel": 4
        },
        {
          "note": 75,
          "start": 53.432486,
          "duration": 0.079365,
          "velocity": 0.440945,
          "start_tick": 80790,
          "duration_ticks": 120,
          "channel": 4
        },
        {
          "note": 67,
          "start": 53.511851,
          "duration": 0.079365,
          "velocity": 0.440945,
          "start_tick": 80910,
          "duration_ticks": 120,
          "channel": 4
        },
        {
          "note": 70,
          "start": 53.591216,
          "duration": 0.079365,
          "velocity": 0.448819,
          "start_tick": 81030,
          "duration_ticks": 120,
          "channel": 4
        },
        {
          "note": 75,
          "start": 53.670581,
          "duration": 0.079365,
          "velocity": 0.448819,
          "start_tick": 81150,
          "duration_ticks": 120,
          "channel": 4
        },
        {
          "note": 79,
          "start": 53.749946,
          "duration": 0.079365,
          "velocity": 0.448819,
          "start_tick": 81270,
          "duration_ticks": 120,
          "channel": 4
        },
        {
          "note": 70,
          "start": 53.829311,
          "duration": 0.079365,
          "velocity": 0.456693,
          "start_tick": 81390,
          "duration_ticks": 120,
          "channel": 4
        },
        {
          "note": 75,
          "start": 53.908676,
          "duration": 0.079365,
          "velocity": 0.456693,
          "start_tick": 81510,
          "duration_ticks": 120,
          "channel": 4
        },
        {
          "note": 79,
          "start": 53.988041,
          "duration": 0.079365,
          "velocity": 0.456693,
          "start_tick": 81630,
          "duration_ticks": 120,
          "channel": 4
        },
        {
          "note": 82,
          "start": 54.067406,
          "duration": 0.078704,
          "velocity": 0.464567,
          "start_tick": 81750,
          "duration_ticks": 119,
          "channel": 4
        },
        {
          "note": 75,
          "start": 54.14611,
          "duration": 0.079365,
          "velocity": 0.464567,
          "start_tick": 81869,
          "duration_ticks": 120,
          "channel": 4
        },
        {
          "note": 79,
          "start": 54.225475,
          "duration": 0.079365,
          "velocity": 0.472441,
          "start_tick": 81989,
          "duration_ticks": 120,
          "channel": 4
        },
        {
          "note": 82,
          "start": 54.30484,
          "duration": 0.079365,
          "velocity": 0.472441,
          "start_tick": 82109,
          "duration_ticks": 120,
          "channel": 4
        },
        {
          "note": 87,
          "start": 54.384205,
          "duration": 0.079365,
          "velocity": 0.472441,
          "start_tick": 82229,
          "duration_ticks": 120,
          "channel": 4
        },
        {
          "note": 82,
          "start": 54.46357,
          "duration": 0.079365,
          "velocity": 0.480315,
          "start_tick": 82349,
          "duration_ticks": 120,
          "channel": 4
        },
        {
          "note": 79,
          "start": 54.542935,
          "duration": 0.079365,
          "velocity": 0.480315,
          "start_tick": 82469,
          "duration_ticks": 120,
          "channel": 4
        },
        {
          "note": 75,
          "start": 54.6223,
          "duration": 0.079365,
          "velocity": 0.480315,
          "start_tick": 82589,
          "duration_ticks": 120,
          "channel": 4
        },
        {
          "note": 70,
          "start": 54.701665,
          "duration": 0.079365,
          "velocity": 0.488189,
          "start_tick": 82709,
          "duration_ticks": 120,
          "channel": 4
        },
        {
          "note": 80,
          "start": 54.78103,
          "duration": 0.079365,
          "velocity": 0.488189,
          "start_tick": 82829,
          "duration_ticks": 120,
          "channel": 4
        },
        {
          "note": 75,
          "start": 54.860395,
          "duration": 0.079365,
          "velocity": 0.488189,
          "start_tick": 82949,
          "duration_ticks": 120,
          "channel": 4
        },
        {
          "note": 70,
          "start": 54.93976,
          "duration": 0.079365,
          "velocity": 0.496063,
          "start_tick": 83069,
          "duration_ticks": 120,
          "channel": 4
        },
        {
          "note": 67,
          "start": 55.019125,
          "duration": 0.079365,
          "velocity": 0.496063,
          "start_tick": 83189,
          "duration_ticks": 120,
          "channel": 4
        },
        {
          "note": 82,
          "start": 55.09849,
          "duration": 0.079365,
          "velocity": 0.496063,
          "start_tick": 83309,
          "duration_ticks": 120,
          "channel": 4
        },
        {
          "note": 80,
          "start": 55.177855,
          "duration": 0.079365,
          "velocity": 0.503937,
          "start_tick": 83429,
          "duration_ticks": 120,
          "channel": 4
        },
        {
          "note": 75,
          "start": 55.25722,
          "duration": 0.078704,
          "velocity": 0.503937,
          "start_tick": 83549,
          "duration_ticks": 119,
          "channel": 4
        },
        {
          "note": 70,
          "start": 55.335923,
          "duration": 0.079365,
          "velocity": 0.503937,
          "start_tick": 83668,
          "duration_ticks": 120,
          "channel": 4
        },
        {
          "note": 75,
          "start": 55.415289,
          "duration": 0.079365,
          "velocity": 0.511811,
          "start_tick": 83788,
          "duration_ticks": 120,
          "channel": 4
        },
        {
          "note": 70,
          "start": 55.494653,
          "duration": 0.079365,
          "velocity": 0.511811,
          "start_tick": 83908,
          "duration_ticks": 120,
          "channel": 4
        },
        {
          "note": 67,
          "start": 55.574019,
          "duration": 0.079365,
          "velocity": 0.511811,
          "start_tick": 84028,
          "duration_ticks": 120,
          "channel": 4
        },
        {
          "note": 63,
          "start": 55.653383,
          "duration": 0.079365,
          "velocity": 0.519685,
          "start_tick": 84148,
          "duration_ticks": 120,
          "channel": 4
        },
        {
          "note": 67,
          "start": 55.732748,
          "duration": 0.079365,
          "velocity": 0.519685,
          "start_tick": 84268,
          "duration_ticks": 120,
          "channel": 4
        },
        {
          "note": 71,
          "start": 55.812114,
          "duration": 0.079365,
          "velocity": 0.519685,
          "start_tick": 84388,
          "duration_ticks": 120,
          "channel": 4
        },
        {
          "note": 74,
          "start": 55.891478,
          "duration": 0.079365,
          "velocity": 0.527559,
          "start_tick": 84508,
          "duration_ticks": 120,
          "channel": 4
        },
        {
          "note": 79,
          "start": 55.970844,
          "duration": 0.079365,
          "velocity": 0.527559,
          "start_tick": 84628,
          "duration_ticks": 120,
          "channel": 4
        },
        {
          "note": 71,
          "start": 56.050208,
          "duration": 0.079365,
          "velocity": 0.527559,
          "start_tick": 84748,
          "duration_ticks": 120,
          "channel": 4
        },
        {
          "note": 74,
          "start": 56.129573,
          "duration": 0.079365,
          "velocity": 0.535433,
          "start_tick": 84868,
          "duration_ticks": 120,
          "channel": 4
        },
        {
          "note": 79,
          "start": 56.208939,
          "duration": 0.079365,
          "velocity": 0.535433,
          "start_tick": 84988,
          "duration_ticks": 120,
          "channel": 4
        },
        {
          "note": 83,
          "start": 56.288303,
          "duration": 0.079365,
          "velocity": 0.543307,
          "start_tick": 85108,
          "duration_ticks": 120,
          "channel": 4
        },
        {
          "note": 74,
          "start": 56.367669,
          "duration": 0.079365,
          "velocity": 0.543307,
          "start_tick": 85228,
          "duration_ticks": 120,
          "channel": 4
        },
        {
          "note": 79,
          "start": 56.447034,
          "duration": 0.079365,
          "velocity": 0.543307,
          "start_tick": 85348,
          "duration_ticks": 120,
          "channel": 4
        },
        {
          "note": 83,
          "start": 56.526398,
          "duration": 0.078704,
          "velocity": 0.551181,
          "start_tick": 85468,
          "duration_ticks": 119,
          "channel": 4
        },
        {
          "note": 86,
          "start": 56.605102,
          "duration": 0.079365,
          "velocity": 0.551181,
          "start_tick": 85587,
          "duration_ticks": 120,
          "channel": 4
        },
        {
          "note": 79,
          "start": 56.684467,
          "duration": 0.079365,
          "velocity": 0.551181,
          "start_tick": 85707,
          "duration_ticks": 120,
          "channel": 4
        },
        {
          "note": 83,
          "start": 56.763832,
          "duration": 0.079365,
          "velocity": 0.559055,
          "start_tick": 85827,
          "duration_ticks": 120,
          "channel": 4
        },
        {
          "note": 86,
          "start": 56.843197,
          "duration": 0.079365,
          "velocity": 0.559055,
          "start_tick": 85947,
          "duration_ticks": 120,
          "channel": 4
        },
        {
          "note": 91,
          "start": 56.922562,
          "duration": 0.079365,
          "velocity": 0.559055,
          "start_tick": 86067,
          "duration_ticks": 120,
          "channel": 4
        },
        {
          "note": 86,
          "start": 57.001927,
          "duration": 0.079365,
          "velocity": 0.566929,
          "start_tick": 86187,
          "duration_ticks": 120,
          "channel": 4
        },
        {
          "note": 83,
          "start": 57.081292,
          "duration": 0.079365,
          "velocity": 0.566929,
          "start_tick": 86307,
          "duration_ticks": 120,
          "channel": 4
        },
        {
          "note": 79,
          "start": 57.160657,
          "duration": 0.079365,
          "velocity": 0.566929,
          "start_tick": 86427,
          "duration_ticks": 120,
          "channel": 4
        },
        {
          "note": 74,
          "start": 57.240022,
          "duration": 0.079365,
          "velocity": 0.574803,
          "start_tick": 86547,
          "duration_ticks": 120,
          "channel": 4
        },
        {
          "note": 84,
          "start": 57.319387,
          "duration": 0.079365,
          "velocity": 0.574803,
          "start_tick": 86667,
          "duration_ticks": 120,
          "channel": 4
        },
        {
          "note": 79,
          "start": 57.398752,
          "duration": 0.079365,
          "velocity": 0.574803,
          "start_tick": 86787,
          "duration_ticks": 120,
          "channel": 4
        },
        {
          "note": 74,
          "start": 57.478117,
          "duration": 0.079365,
          "velocity": 0.582677,
          "start_tick": 86907,
          "duration_ticks": 120,
          "channel": 4
        },
        {
          "note": 71,
          "start": 57.557482,
          "duration": 0.079365,
          "velocity": 0.582677,
          "start_tick": 87027,
          "duration_ticks": 120,
          "channel": 4
        },
        {
          "note": 86,
          "start": 57.636847,
          "duration": 0.079365,
          "velocity": 0.582677,
          "start_tick": 87147,
          "duration_ticks": 120,
          "channel": 4
        },
        {
          "note": 84,
          "start": 57.716212,
          "duration": 0.078704,
          "velocity": 0.590551,
          "start_tick": 87267,
          "duration_ticks": 119,
          "channel": 4
        },
        {
          "note": 79,
          "start": 57.794916,
          "duration": 0.079365,
          "velocity": 0.590551,
          "start_tick": 87386,
          "duration_ticks": 120,
          "channel": 4
        },
        {
          "note": 74,
          "start": 57.874281,
          "duration": 0.079365,
          "velocity": 0.590551,
          "start_tick": 87506,
          "duration_ticks": 120,
          "channel": 4
        },
        {
          "note": 79,
          "start": 57.953646,
          "duration": 0.079365,
          "velocity": 0.598425,
          "start_tick": 87626,
          "duration_ticks": 120,
          "channel": 4
        },
        {
          "note": 74,
          "start": 58.033011,
          "duration": 0.079365,
          "velocity": 0.598425,
          "start_tick": 87746,
          "duration_ticks": 120,
          "channel": 4
        },
        {
          "note": 71,
          "start": 58.112376,
          "duration": 0.079365,
          "velocity": 0.598425,
          "start_tick": 87866,
          "duration_ticks": 120,
          "channel": 4
        },
        {
          "note": 67,
          "start": 58.191741,
          "duration": 0.079365,
          "velocity": 0.606299,
          "start_tick": 87986,
          "duration_ticks": 120,
          "channel": 4
        },
        {
          "note": 65,
          "start": 58.271106,
          "duration": 0.079365,
          "velocity": 0.606299,
          "start_tick": 88106,
          "duration_ticks": 120,
          "channel": 4
        },
        {
          "note": 68,
          "start": 58.350471,
          "duration": 0.079365,
          "velocity": 0.614173,
          "start_tick": 88226,
          "duration_ticks": 120,
          "channel": 4
        },
        {
          "note": 72,
          "start": 58.429836,
          "duration": 0.079365,
          "velocity": 0.614173,
          "start_tick": 88346,
          "duration_ticks": 120,
          "channel": 4
        },
        {
          "note": 77,
          "start": 58.509201,
          "duration": 0.079365,
          "velocity": 0.614173,
          "start_tick": 88466,
          "duration_ticks": 120,
          "channel": 4
        },
        {
          "note": 68,
          "start": 58.588566,
          "duration": 0.079365,
          "velocity": 0.622047,
          "start_tick": 88586,
          "duration_ticks": 120,
          "channel": 4
        },
        {
          "note": 72,
          "start": 58.667931,
          "duration": 0.079365,
          "velocity": 0.622047,
          "start_tick": 88706,
          "duration_ticks": 120,
          "channel": 4
        },
        {
          "note": 77,
          "start": 58.747296,
          "duration": 0.079365,
          "velocity": 0.622047,
          "start_tick": 88826,
          "duration_ticks": 120,
          "channel": 4
        },
        {
          "note": 80,
          "start": 58.826661,
          "duration": 0.079365,
          "velocity": 0.629921,
          "start_tick": 88946,
          "duration_ticks": 120,
          "channel": 4
        },
        {
          "note": 72,
          "start": 58.906026,
          "duration": 0.079365,
          "velocity": 0.629921,
          "start_tick": 89066,
          "duration_ticks": 120,
          "channel": 4
        },
        {
          "note": 77,
          "start": 58.985391,
          "duration": 0.078704,
          "velocity": 0.629921,
          "start_tick": 89186,
          "duration_ticks": 119,
          "channel": 4
        },
        {
          "note": 80,
          "start": 59.064094,
          "duration": 0.079365,
          "velocity": 0.637795,
          "start_tick": 89305,
          "duration_ticks": 120,
          "channel": 4
        },
        {
          "note": 84,
          "start": 59.143459,
          "duration": 0.079365,
          "velocity": 0.637795,
          "start_tick": 89425,
          "duration_ticks": 120,
          "channel": 4
        },
        {
          "note": 77,
          "start": 59.222824,
          "duration": 0.079365,
          "velocity": 0.637795,
          "start_tick": 89545,
          "duration_ticks": 120,
          "channel": 4
        },
        {
          "note": 80,
          "start": 59.302189,
          "duration": 0.079365,
          "velocity": 0.645669,
          "start_tick": 89665,
          "duration_ticks": 120,
          "channel": 4
        },
        {
          "note": 84,
          "start": 59.381554,
          "duration": 0.079365,
          "velocity": 0.645669,
          "start_tick": 89785,
          "duration_ticks": 120,
          "channel": 4
        },
        {
          "note": 89,
          "start": 59.460919,
          "duration": 0.079365,
          "velocity": 0.645669,
          "start_tick": 89905,
          "duration_ticks": 120,
          "channel": 4
        },
        {
          "note": 84,
          "start": 59.540284,
          "duration": 0.079365,
          "velocity": 0.653543,
          "start_tick": 90025,
          "duration_ticks": 120,
          "channel": 4
        },
        {
          "note": 80,
          "start": 59.619649,
          "duration": 0.079365,
          "velocity": 0.653543,
          "start_tick": 90145,
          "duration_ticks": 120,
          "channel": 4
        },
        {
          "note": 77,
          "start": 59.699014,
          "duration": 0.079365,
          "velocity": 0.653543,
          "start_tick": 90265,
          "duration_ticks": 120,
          "channel": 4
        },
        {
          "note": 72,
          "start": 59.778379,
          "duration": 0.079365,
          "velocity": 0.661417,
          "start_tick": 90385,
          "duration_ticks": 120,
          "channel": 4
        },
        {
          "note": 80,
          "start": 59.857744,
          "duration": 0.079365,
          "velocity": 0.661417,
          "start_tick": 90505,
          "duration_ticks": 120,
          "channel": 4
        },
        {
          "note": 77,
          "start": 59.937109,
          "duration": 0.079365,
          "velocity": 0.661417,
          "start_tick": 90625,
          "duration_ticks": 120,
          "channel": 4
        },
        {
          "note": 72,
          "start": 60.016474,
          "duration": 0.079365,
          "velocity": 0.669291,
          "start_tick": 90745,
          "duration_ticks": 120,
          "channel": 4
        },
        {
          "note": 68,
          "start": 60.095839,
          "duration": 0.079365,
          "velocity": 0.669291,
          "start_tick": 90865,
          "duration_ticks": 120,
          "channel": 4
        },
        {
          "note": 84,
          "start": 60.175204,
          "duration": 0.078704,
          "velocity": 0.669291,
          "start_tick": 90985,
          "duration_ticks": 119,
          "channel": 4
        },
        {
          "note": 80,
          "start": 60.253908,
          "duration": 0.079365,
          "velocity": 0.677165,
          "start_tick": 91104,
          "duration_ticks": 120,
          "channel": 4
        },
        {
          "note": 77,
          "start": 60.333273,
          "duration": 0.079365,
          "velocity": 0.677165,
          "start_tick": 91224,
          "duration_ticks": 120,
          "channel": 4
        },
        {
          "note": 72,
          "start": 60.412638,
          "duration": 0.079365,
          "velocity": 0.685039,
          "start_tick": 91344,
          "duration_ticks": 120,
          "channel": 4
        },
        {
          "note": 77,
          "start": 60.492003,
          "duration": 0.079365,
          "velocity": 0.685039,
          "start_tick": 91464,
          "duration_ticks": 120,
          "channel": 4
        },
        {
          "note": 72,
          "start": 60.571368,
          "duration": 0.079365,
          "velocity": 0.685039,
          "start_tick": 91584,
          "duration_ticks": 120,
          "channel": 4
        },
        {
          "note": 68,
          "start": 60.650733,
          "duration": 0.079365,
          "velocity": 0.692913,
          "start_tick": 91704,
          "duration_ticks": 120,
          "channel": 4
        },
        {
          "note": 65,
          "start": 60.730098,
          "duration": 0.079365,
          "velocity": 0.692913,
          "start_tick": 91824,
          "duration_ticks": 120,
          "channel": 4
        },
        {
          "note": 60,
          "start": 60.809463,
          "duration": 0.079365,
          "velocity": 0.629921,
          "start_tick": 91944,
          "duration_ticks": 120,
          "channel": 4
        },
        {
          "note": 63,
          "start": 60.888828,
          "duration": 0.079365,
          "velocity": 0.629921,
          "start_tick": 92064,
          "duration_ticks": 120,
          "channel": 4
        },
        {
          "note": 65,
          "start": 60.968193,
          "duration": 0.079365,
          "velocity": 0.629921,
          "start_tick": 92184,
          "duration_ticks": 120,
          "channel": 4
        },
        {
          "note": 67,
          "start": 61.047558,
          "duration": 0.079365,
          "velocity": 0.629921,
          "start_tick": 92304,
          "duration_ticks": 120,
          "channel": 4
        },
        {
          "note": 63,
          "start": 61.126923,
          "duration": 0.079365,
          "velocity": 0.629921,
          "start_tick": 92424,
          "duration_ticks": 120,
          "channel": 4
        },
        {
          "note": 65,
          "start": 61.206288,
          "duration": 0.079365,
          "velocity": 0.629921,
          "start_tick": 92544,
          "duration_ticks": 120,
          "channel": 4
        },
        {
          "note": 67,
          "start": 61.285653,
          "duration": 0.079365,
          "velocity": 0.629921,
          "start_tick": 92664,
          "duration_ticks": 120,
          "channel": 4
        },
        {
          "note": 72,
          "start": 61.365018,
          "duration": 0.079365,
          "velocity": 0.629921,
          "start_tick": 92784,
          "duration_ticks": 120,
          "channel": 4
        },
        {
          "note": 67,
          "start": 61.444383,
          "duration": 0.078704,
          "velocity": 0.629921,
          "start_tick": 92904,
          "duration_ticks": 119,
          "channel": 4
        },
        {
          "note": 72,
          "start": 61.523087,
          "duration": 0.079365,
          "velocity": 0.629921,
          "start_tick": 93023,
          "duration_ticks": 120,
          "channel": 4
        },
        {
          "note": 75,
          "start": 61.602452,
          "duration": 0.079365,
          "velocity": 0.629921,
          "start_tick": 93143,
          "duration_ticks": 120,
          "channel": 4
        },
        {
          "note": 77,
          "start": 61.681817,
          "duration": 0.079365,
          "velocity": 0.629921,
          "start_tick": 93263,
          "duration_ticks": 120,
          "channel": 4
        },
        {
          "note": 75,
          "start": 61.761182,
          "duration": 0.079365,
          "velocity": 0.629921,
          "start_tick": 93383,
          "duration_ticks": 120,
          "channel": 4
        },
        {
          "note": 77,
          "start": 61.840547,
          "duration": 0.079365,
          "velocity": 0.629921,
          "start_tick": 93503,
          "duration_ticks": 120,
          "channel": 4
        },
        {
          "note": 79,
          "start": 61.919912,
          "duration": 0.079365,
          "velocity": 0.629921,
          "start_tick": 93623,
          "duration_ticks": 120,
          "channel": 4
        },
        {
          "note": 84,
          "start": 61.999277,
          "duration": 0.079365,
          "velocity": 0.629921,
          "start_tick": 93743,
          "duration_ticks": 120,
          "channel": 4
        },
        {
          "note": 79,
          "start": 62.078642,
          "duration": 0.079365,
          "velocity": 0.629921,
          "start_tick": 93863,
          "duration_ticks": 120,
          "channel": 4
        },
        {
          "note": 77,
          "start": 62.158007,
          "duration": 0.079365,
          "velocity": 0.629921,
          "start_tick": 93983,
          "duration_ticks": 120,
          "channel": 4
        },
        {
          "note": 75,
          "start": 62.237372,
          "duration": 0.079365,
          "velocity": 0.629921,
          "start_tick": 94103,
          "duration_ticks": 120,
          "channel": 4
        },
        {
          "note": 79,
          "start": 62.316737,
          "duration": 0.079365,
          "velocity": 0.629921,
          "start_tick": 94223,
          "duration_ticks": 120,
          "channel": 4
        },
        {
          "note": 77,
          "start": 62.396102,
          "duration": 0.079365,
          "velocity": 0.629921,
          "start_tick": 94343,
          "duration_ticks": 120,
          "channel": 4
        },
        {
          "note": 75,
          "start": 62.475467,
          "duration": 0.079365,
          "velocity": 0.629921,
          "start_tick": 94463,
          "duration_ticks": 120,
          "channel": 4
        },
        {
          "note": 72,
          "start": 62.554832,
          "duration": 0.079365,
          "velocity": 0.629921,
          "start_tick": 94583,
          "duration_ticks": 120,
          "channel": 4
        },
        {
          "note": 77,
          "start": 62.634197,
          "duration": 0.078704,
          "velocity": 0.629921,
          "start_tick": 94703,
          "duration_ticks": 119,
          "channel": 4
        },
        {
          "note": 75,
          "start": 62.7129,
          "duration": 0.079365,
          "velocity": 0.629921,
          "start_tick": 94822,
          "duration_ticks": 120,
          "channel": 4
        },
        {
          "note": 72,
          "start": 62.792265,
          "duration": 0.079365,
          "velocity": 0.629921,
          "start_tick": 94942,
          "duration_ticks": 120,
          "channel": 4
        },
        {
          "note": 67,
          "start": 62.87163,
          "duration": 0.079365,
          "velocity": 0.629921,
          "start_tick": 95062,
          "duration_ticks": 120,
          "channel": 4
        },
        {
          "note": 65,
          "start": 62.950995,
          "duration": 0.079365,
          "velocity": 0.629921,
          "start_tick": 95182,
          "duration_ticks": 120,
          "channel": 4
        },
        {
          "note": 72,
          "start": 63.03036,
          "duration": 0.079365,
          "velocity": 0.629921,
          "start_tick": 95302,
          "duration_ticks": 120,
          "channel": 4
        },
        {
          "note": 67,
          "start": 63.109725,
          "duration": 0.079365,
          "velocity": 0.629921,
          "start_tick": 95422,
          "duration_ticks": 120,
          "channel": 4
        },
        {
          "note": 65,
          "start": 63.18909,
          "duration": 0.079365,
          "velocity": 0.629921,
          "start_tick": 95542,
          "duration_ticks": 120,
          "channel": 4
        },
        {
          "note": 60,
          "start": 63.268455,
          "duration": 0.079365,
          "velocity": 0.629921,
          "start_tick": 95662,
          "duration_ticks": 120,
          "channel": 4
        },
        {
          "note": 63,
          "start": 63.34782,
          "duration": 0.079365,
          "velocity": 0.629921,
          "start_tick": 95782,
          "duration_ticks": 120,
          "channel": 4
        },
        {
          "note": 67,
          "start": 63.427185,
          "duration": 0.079365,
          "velocity": 0.629921,
          "start_tick": 95902,
          "duration_ticks": 120,
          "channel": 4
        },
        {
          "note": 70,
          "start": 63.50655,
          "duration": 0.079365,
          "velocity": 0.629921,
          "start_tick": 96022,
          "duration_ticks": 120,
          "channel": 4
        },
        {
          "note": 75,
          "start": 63.585915,
          "duration": 0.079365,
          "velocity": 0.629921,
          "start_tick": 96142,
          "duration_ticks": 120,
          "channel": 4
        },
        {
          "note": 67,
          "start": 63.66528,
          "duration": 0.079365,
          "velocity": 0.629921,
          "start_tick": 96262,
          "duration_ticks": 120,
          "channel": 4
        },
        {
          "note": 70,
          "start": 63.744645,
          "duration": 0.079365,
          "velocity": 0.629921,
          "start_tick": 96382,
          "duration_ticks": 120,
          "channel": 4
        },
        {
          "note": 75,
          "start": 63.82401,
          "duration": 0.079365,
          "velocity": 0.629921,
          "start_tick": 96502,
          "duration_ticks": 120,
          "channel": 4
        },
        {
          "note": 79,
          "start": 63.903375,
          "duration": 0.078704,
          "velocity": 0.629921,
          "start_tick": 96622,
          "duration_ticks": 119,
          "channel": 4
        },
        {
          "note": 70,
          "start": 63.982079,
          "duration": 0.079365,
          "velocity": 0.629921,
          "start_tick": 96741,
          "duration_ticks": 120,
          "channel": 4
        },
        {
          "note": 75,
          "start": 64.061444,
          "duration": 0.079365,
          "velocity": 0.629921,
          "start_tick": 96861,
          "duration_ticks": 120,
          "channel": 4
        },
        {
          "note": 79,
          "start": 64.140809,
          "duration": 0.079365,
          "velocity": 0.629921,
          "start_tick": 96981,
          "duration_ticks": 120,
          "channel": 4
        },
        {
          "note": 82,
          "start": 64.220174,
          "duration": 0.079365,
          "velocity": 0.629921,
          "start_tick": 97101,
          "duration_ticks": 120,
          "channel": 4
        },
        {
          "note": 75,
          "start": 64.299539,
          "duration": 0.079365,
          "velocity": 0.629921,
          "start_tick": 97221,
          "duration_ticks": 120,
          "channel": 4
        },
        {
          "note": 79,
          "start": 64.378904,
          "duration": 0.079365,
          "velocity": 0.629921,
          "start_tick": 97341,
          "duration_ticks": 120,
          "channel": 4
        },
        {
          "note": 82,
          "start": 64.458269,
          "duration": 0.079365,
          "velocity": 0.629921,
          "start_tick": 97461,
          "duration_ticks": 120,
          "channel": 4
        },
        {
          "note": 87,
          "start": 64.537634,
          "duration": 0.079365,
          "velocity": 0.629921,
          "start_tick": 97581,
          "duration_ticks": 120,
          "channel": 4
        },
        {
          "note": 82,
          "start": 64.616999,
          "duration": 0.079365,
          "velocity": 0.629921,
          "start_tick": 97701,
          "duration_ticks": 120,
          "channel": 4
        },
        {
          "note": 79,
          "start": 64.696364,
          "duration": 0.079365,
          "velocity": 0.629921,
          "start_tick": 97821,
          "duration_ticks": 120,
          "channel": 4
        },
        {
          "note": 75,
          "start": 64.775729,
          "duration": 0.079365,
          "velocity": 0.629921,
          "start_tick": 97941,
          "duration_ticks": 120,
          "channel": 4
        },
        {
          "note": 70,
          "start": 64.855094,
          "duration": 0.077381,
          "velocity": 0.629921,
          "start_tick": 98061,
          "duration_ticks": 117,
          "channel": 4
        },
        {
          "note": 80,
          "start": 64.932475,
          "duration": 0.078042,
          "velocity": 0.629921,
          "start_tick": 98178,
          "duration_ticks": 118,
          "channel": 4
        },
        {
          "note": 75,
          "start": 65.010517,
          "duration": 0.078042,
          "velocity": 0.629921,
          "start_tick": 98296,
          "duration_ticks": 118,
          "channel": 4
        },
        {
          "note": 70,
          "start": 65.088559,
          "duration": 0.078042,
          "velocity": 0.629921,
          "start_tick": 98414,
          "duration_ticks": 118,
          "channel": 4
        },
        {
          "note": 67,
          "start": 65.166601,
          "duration": 0.077381,
          "velocity": 0.629921,
          "start_tick": 98532,
          "duration_ticks": 117,
          "channel": 4
        },
        {
          "note": 82,
          "start": 65.243982,
          "duration": 0.078042,
          "velocity": 0.629921,
          "start_tick": 98649,
          "duration_ticks": 118,
          "channel": 4
        },
        {
          "note": 80,
          "start": 65.322025,
          "duration": 0.078042,
          "velocity": 0.629921,
          "start_tick": 98767,
          "duration_ticks": 118,
          "channel": 4
        },
        {
          "note": 75,
          "start": 65.400067,
          "duration": 0.078042,
          "velocity": 0.629921,
          "start_tick": 98885,
          "duration_ticks": 118,
          "channel": 4
        },
        {
          "note": 70,
          "start": 65.478109,
          "duration": 0.078042,
          "velocity": 0.629921,
          "start_tick": 99003,
          "duration_ticks": 118,
          "channel": 4
        },
        {
          "note": 75,
          "start": 65.556151,
          "duration": 0.077381,
          "velocity": 0.629921,
          "start_tick": 99121,
          "duration_ticks": 117,
          "channel": 4
        },
        {
          "note": 70,
          "start": 65.633532,
          "duration": 0.078042,
          "velocity": 0.629921,
          "start_tick": 99238,
          "duration_ticks": 118,
          "channel": 4
        },
        {
          "note": 67,
          "start": 65.711574,
          "duration": 0.078042,
          "velocity": 0.629921,
          "start_tick": 99356,
          "duration_ticks": 118,
          "channel": 4
        },
        {
          "note": 63,
          "start": 65.789617,
          "duration": 0.078042,
          "velocity": 0.629921,
          "start_tick": 99474,
          "duration_ticks": 118,
          "channel": 4
        },
        {
          "note": 67,
          "start": 65.867659,
          "duration": 0.077381,
          "velocity": 0.629921,
          "start_tick": 99592,
          "duration_ticks": 117,
          "channel": 4
        },
        {
          "note": 71,
          "start": 65.94504,
          "duration": 0.078042,
          "velocity": 0.629921,
          "start_tick": 99709,
          "duration_ticks": 118,
          "channel": 4
        },
        {
          "note": 74,
          "start": 66.023082,
          "duration": 0.078042,
          "velocity": 0.629921,
          "start_tick": 99827,
          "duration_ticks": 118,
          "channel": 4
        },
        {
          "note": 79,
          "start": 66.101124,
          "duration": 0.078042,
          "velocity": 0.629921,
          "start_tick": 99945,
          "duration_ticks": 118,
          "channel": 4
        },
        {
          "note": 71,
          "start": 66.179167,
          "duration": 0.077381,
          "velocity": 0.629921,
          "start_tick": 100063,
          "duration_ticks": 117,
          "channel": 4
        },
        {
          "note": 74,
          "start": 66.256547,
          "duration": 0.078042,
          "velocity": 0.629921,
          "start_tick": 100180,
          "duration_ticks": 118,
          "channel": 4
        },
        {
          "note": 79,
          "start": 66.33459,
          "duration": 0.078042,
          "velocity": 0.629921,
          "start_tick": 100298,
          "duration_ticks": 118,
          "channel": 4
        },
        {
          "note": 83,
          "start": 66.412632,
          "duration": 0.078042,
          "velocity": 0.629921,
          "start_tick": 100416,
          "duration_ticks": 118,
          "channel": 4
        },
        {
          "note": 74,
          "start": 66.490674,
          "duration": 0.077381,
          "velocity": 0.629921,
          "start_tick": 100534,
          "duration_ticks": 117,
          "channel": 4
        },
        {
          "note": 79,
          "start": 66.568055,
          "duration": 0.078042,
          "velocity": 0.629921,
          "start_tick": 100651,
          "duration_ticks": 118,
          "channel": 4
        },
        {
          "note": 83,
          "start": 66.646097,
          "duration": 0.078042,
          "velocity": 0.629921,
          "start_tick": 100769,
          "duration_ticks": 118,
          "channel": 4
        },
        {
          "note": 86,
          "start": 66.72414,
          "duration": 0.078042,
          "velocity": 0.629921,
          "start_tick": 100887,
          "duration_ticks": 118,
          "channel": 4
        },
        {
          "note": 79,
          "start": 66.802182,
          "duration": 0.077381,
          "velocity": 0.629921,
          "start_tick": 101005,
          "duration_ticks": 117,
          "channel": 4
        },
        {
          "note": 83,
          "start": 66.879563,
          "duration": 0.078042,
          "velocity": 0.629921,
          "start_tick": 101122,
          "duration_ticks": 118,
          "channel": 4
        },
        {
          "note": 86,
          "start": 66.957605,
          "duration": 0.078042,
          "velocity": 0.629921,
          "start_tick": 101240,
          "duration_ticks": 118,
          "channel": 4
        },
        {
          "note": 91,
          "start": 67.035647,
          "duration": 0.078042,
          "velocity": 0.629921,
          "start_tick": 101358,
          "duration_ticks": 118,
          "channel": 4
        },
        {
          "note": 86,
          "start": 67.11369,
          "duration": 0.077381,
          "velocity": 0.629921,
          "start_tick": 101476,
          "duration_ticks": 117,
          "channel": 4
        },
        {
          "note": 83,
          "start": 67.19107,
          "duration": 0.078042,
          "velocity": 0.629921,
          "start_tick": 101593,
          "duration_ticks": 118,
          "channel": 4
        },
        {
          "note": 79,
          "start": 67.269113,
          "duration": 0.078042,
          "velocity": 0.629921,
          "start_tick": 101711,
          "duration_ticks": 118,
          "channel": 4
        },
        {
          "note": 74,
          "start": 67.347155,
          "duration": 0.078042,
          "velocity": 0.629921,
          "start_tick": 101829,
          "duration_ticks": 118,
          "channel": 4
        },
        {
          "note": 84,
          "start": 67.425197,
          "duration": 0.077381,
          "velocity": 0.629921,
          "start_tick": 101947,
          "duration_ticks": 117,
          "channel": 4
        },
        {
          "note": 79,
          "start": 67.502578,
          "duration": 0.078042,
          "velocity": 0.629921,
          "start_tick": 102064,
          "duration_ticks": 118,
          "channel": 4
        },
        {
          "note": 74,
          "start": 67.58062,
          "duration": 0.078042,
          "velocity": 0.629921,
          "start_tick": 102182,
          "duration_ticks": 118,
          "channel": 4
        },
        {
          "note": 71,
          "start": 67.658663,
          "duration": 0.078042,
          "velocity": 0.629921,
          "start_tick": 102300,
          "duration_ticks": 118,
          "channel": 4
        },
        {
          "note": 86,
          "start": 67.736705,
          "duration": 0.077381,
          "velocity": 0.629921,
          "start_tick": 102418,
          "duration_ticks": 117,
          "channel": 4
        },
        {
          "note": 84,
          "start": 67.814086,
          "duration": 0.078042,
          "velocity": 0.629921,
          "start_tick": 102535,
          "duration_ticks": 118,
          "channel": 4
        },
        {
          "note": 79,
          "start": 67.892128,
          "duration": 0.078042,
          "velocity": 0.629921,
          "start_tick": 102653,
          "duration_ticks": 118,
          "channel": 4
        },
        {
          "note": 74,
          "start": 67.97017,
          "duration": 0.078042,
          "velocity": 0.629921,
          "start_tick": 102771,
          "duration_ticks": 118,
          "channel": 4
        },
        {
          "note": 79,
          "start": 68.048212,
          "duration": 0.077381,
          "velocity": 0.629921,
          "start_tick": 102889,
          "duration_ticks": 117,
          "channel": 4
        },
        {
          "note": 74,
          "start": 68.125593,
          "duration": 0.078042,
          "velocity": 0.629921,
          "start_tick": 103006,
          "duration_ticks": 118,
          "channel": 4
        },
        {
          "note": 71,
          "start": 68.203636,
          "duration": 0.078042,
          "velocity": 0.629921,
          "start_tick": 103124,
          "duration_ticks": 118,
          "channel": 4
        },
        {
          "note": 67,
          "start": 68.281678,
          "duration": 0.078042,
          "velocity": 0.629921,
          "start_tick": 103242,
          "duration_ticks": 118,
          "channel": 4
        },
        {
          "note": 65,
          "start": 68.35972,
          "duration": 0.077381,
          "velocity": 0.629921,
          "start_tick": 103360,
          "duration_ticks": 117,
          "channel": 4
        },
        {
          "note": 68,
          "start": 68.437101,
          "duration": 0.078042,
          "velocity": 0.629921,
          "start_tick": 103477,
          "duration_ticks": 118,
          "channel": 4
        },
        {
          "note": 72,
          "start": 68.515143,
          "duration": 0.078042,
          "velocity": 0.629921,
          "start_tick": 103595,
          "duration_ticks": 118,
          "channel": 4
        },
        {
          "note": 77,
          "start": 68.593185,
          "duration": 0.078042,
          "velocity": 0.629921,
          "start_tick": 103713,
          "duration_ticks": 118,
          "channel": 4
        },
        {
          "note": 68,
          "start": 68.671228,
          "duration": 0.077381,
          "velocity": 0.629921,
          "start_tick": 103831,
          "duration_ticks": 117,
          "channel": 4
        },
        {
          "note": 72,
          "start": 68.748609,
          "duration": 0.078042,
          "velocity": 0.629921,
          "start_tick": 103948,
          "duration_ticks": 118,
          "channel": 4
        },
        {
          "note": 77,
          "start": 68.826651,
          "duration": 0.078042,
          "velocity": 0.629921,
          "start_tick": 104066,
          "duration_ticks": 118,
          "channel": 4
        },
        {
          "note": 80,
          "start": 68.904693,
          "duration": 0.078042,
          "velocity": 0.629921,
          "start_tick": 104184,
          "duration_ticks": 118,
          "channel": 4
        },
        {
          "note": 72,
          "start": 68.982735,
          "duration": 0.077381,
          "velocity": 0.629921,
          "start_tick": 104302,
          "duration_ticks": 117,
          "channel": 4
        },
        {
          "note": 77,
          "start": 69.060116,
          "duration": 0.078042,
          "velocity": 0.629921,
          "start_tick": 104419,
          "duration_ticks": 118,
          "channel": 4
        },
        {
          "note": 80,
          "start": 69.138158,
          "duration": 0.078042,
          "velocity": 0.629921,
          "start_tick": 104537,
          "duration_ticks": 118,
          "channel": 4
        },
        {
          "note": 84,
          "start": 69.216201,
          "duration": 0.078042,
          "velocity": 0.629921,
          "start_tick": 104655,
          "duration_ticks": 118,
          "channel": 4
        },
        {
          "note": 77,
          "start": 69.294243,
          "duration": 0.077381,
          "velocity": 0.629921,
          "start_tick": 104773,
          "duration_ticks": 117,
          "channel": 4
        },
        {
          "note": 80,
          "start": 69.371624,
          "duration": 0.078042,
          "velocity": 0.629921,
          "start_tick": 104890,
          "duration_ticks": 118,
          "channel": 4
        },
        {
          "note": 84,
          "start": 69.449666,
          "duration": 0.078042,
          "velocity": 0.629921,
          "start_tick": 105008,
          "duration_ticks": 118,
          "channel": 4
        },
        {
          "note": 89,
          "start": 69.527708,
          "duration": 0.078042,
          "velocity": 0.629921,
          "start_tick": 105126,
          "duration_ticks": 118,
          "channel": 4
        },
        {
          "note": 84,
          "start": 69.60575,
          "duration": 0.077381,
          "velocity": 0.629921,
          "start_tick": 105244,
          "duration_ticks": 117,
          "channel": 4
        },
        {
          "note": 80,
          "start": 69.683131,
          "duration": 0.078042,
          "velocity": 0.629921,
          "start_tick": 105361,
          "duration_ticks": 118,
          "channel": 4
        },
        {
          "note": 77,
          "start": 69.761174,
          "duration": 0.078042,
          "velocity": 0.629921,
          "start_tick": 105479,
          "duration_ticks": 118,
          "channel": 4
        },
        {
          "note": 72,
          "start": 69.839216,
          "duration": 0.078042,
          "velocity": 0.629921,
          "start_tick": 105597,
          "duration_ticks": 118,
          "channel": 4
        },
        {
          "note": 80,
          "start": 69.917258,
          "duration": 0.077381,
          "velocity": 0.629921,
          "start_tick": 105715,
          "duration_ticks": 117,
          "channel": 4
        },
        {
          "note": 77,
          "start": 69.994639,
          "duration": 0.078042,
          "velocity": 0.629921,
          "start_tick": 105832,
          "duration_ticks": 118,
          "channel": 4
        },
        {
          "note": 72,
          "start": 70.072681,
          "duration": 0.078042,
          "velocity": 0.629921,
          "start_tick": 105950,
          "duration_ticks": 118,
          "channel": 4
        },
        {
          "note": 68,
          "start": 70.150723,
          "duration": 0.078042,
          "velocity": 0.629921,
          "start_tick": 106068,
          "duration_ticks": 118,
          "channel": 4
        },
        {
          "note": 84,
          "start": 70.228766,
          "duration": 0.077381,
          "velocity": 0.629921,
          "start_tick": 106186,
          "duration_ticks": 117,
          "channel": 4
        },
        {
          "note": 80,
          "start": 70.306147,
          "duration": 0.078042,
          "velocity": 0.629921,
          "start_tick": 106303,
          "duration_ticks": 118,
          "channel": 4
        },
        {
          "note": 77,
          "start": 70.384189,
          "duration": 0.078042,
          "velocity": 0.629921,
          "start_tick": 106421,
          "duration_ticks": 118,
          "channel": 4
        },
        {
          "note": 72,
          "start": 70.462231,
          "duration": 0.078042,
          "velocity": 0.629921,
          "start_tick": 106539,
          "duration_ticks": 118,
          "channel": 4
        },
        {
          "note": 77,
          "start": 70.540273,
          "duration": 0.077381,
          "velocity": 0.629921,
          "start_tick": 106657,
          "duration_ticks": 117,
          "channel": 4
        },
        {
          "note": 72,
          "start": 70.617654,
          "duration": 0.078042,
          "velocity": 0.629921,
          "start_tick": 106774,
          "duration_ticks": 118,
          "channel": 4
        },
        {
          "note": 68,
          "start": 70.695696,
          "duration": 0.078042,
          "velocity": 0.629921,
          "start_tick": 106892,
          "duration_ticks": 118,
          "channel": 4
        },
        {
          "note": 65,
          "start": 70.773739,
          "duration": 0.078042,
          "velocity": 0.629921,
          "start_tick": 107010,
          "duration_ticks": 118,
          "channel": 4
        },
        {
          "note": 68,
          "start": 70.851781,
          "duration": 0.077381,
          "velocity": 0.629921,
          "start_tick": 107128,
          "duration_ticks": 117,
          "channel": 4
        },
        {
          "note": 72,
          "start": 70.929162,
          "duration": 0.078042,
          "velocity": 0.629921,
          "start_tick": 107245,
          "duration_ticks": 118,
          "channel": 4
        },
        {
          "note": 75,
          "start": 71.007204,
          "duration": 0.078042,
          "velocity": 0.629921,
          "start_tick": 107363,
          "duration_ticks": 118,
          "channel": 4
        },
        {
          "note": 80,
          "start": 71.085246,
          "duration": 0.078042,
          "velocity": 0.629921,
          "start_tick": 107481,
          "duration_ticks": 118,
          "channel": 4
        },
        {
          "note": 72,
          "start": 71.163289,
          "duration": 0.077381,
          "velocity": 0.629921,
          "start_tick": 107599,
          "duration_ticks": 117,
          "channel": 4
        },
        {
          "note": 75,
          "start": 71.240669,
          "duration": 0.078042,
          "velocity": 0.629921,
          "start_tick": 107716,
          "duration_ticks": 118,
          "channel": 4
        },
        {
          "note": 80,
          "start": 71.318712,
          "duration": 0.078042,
          "velocity": 0.629921,
          "start_tick": 107834,
          "duration_ticks": 118,
          "channel": 4
        },
        {
          "note": 84,
          "start": 71.396754,
          "duration": 0.078042,
          "velocity": 0.629921,
          "start_tick": 107952,
          "duration_ticks": 118,
          "channel": 4
        },
        {
          "note": 75,
          "start": 71.474796,
          "duration": 0.077381,
          "velocity": 0.629921,
          "start_tick": 108070,
          "duration_ticks": 117,
          "channel": 4
        },
        {
          "note": 80,
          "start": 71.552177,
          "duration": 0.078042,
          "velocity": 0.629921,
          "start_tick": 108187,
          "duration_ticks": 118,
          "channel": 4
        },
        {
          "note": 84,
          "start": 71.630219,
          "duration": 0.078042,
          "velocity": 0.629921,
          "start_tick": 108305,
          "duration_ticks": 118,
          "channel": 4
        },
        {
          "note": 87,
          "start": 71.708262,
          "duration": 0.078042,
          "velocity": 0.629921,
          "start_tick": 108423,
          "duration_ticks": 118,
          "channel": 4
        },
        {
          "note": 80,
          "start": 71.786304,
          "duration": 0.077381,
          "velocity": 0.629921,
          "start_tick": 108541,
          "duration_ticks": 117,
          "channel": 4
        },
        {
          "note": 84,
          "start": 71.863685,
          "duration": 0.078042,
          "velocity": 0.629921,
          "start_tick": 108658,
          "duration_ticks": 118,
          "channel": 4
        },
        {
          "note": 87,
          "start": 71.941727,
          "duration": 0.078042,
          "velocity": 0.629921,
          "start_tick": 108776,
          "duration_ticks": 118,
          "channel": 4
        },
        {
          "note": 92,
          "start": 72.019769,
          "duration": 0.078042,
          "velocity": 0.629921,
          "start_tick": 108894,
          "duration_ticks": 118,
          "channel": 4
        },
        {
          "note": 87,
          "start": 72.097812,
          "duration": 0.077381,
          "velocity": 0.629921,
          "start_tick": 109012,
          "duration_ticks": 117,
          "channel": 4
        },
        {
          "note": 84,
          "start": 72.175192,
          "duration": 0.078042,
          "velocity": 0.629921,
          "start_tick": 109129,
          "duration_ticks": 118,
          "channel": 4
        },
        {
          "note": 80,
          "start": 72.253235,
          "duration": 0.078042,
          "velocity": 0.629921,
          "start_tick": 109247,
          "duration_ticks": 118,
          "channel": 4
        },
        {
          "note": 75,
          "start": 72.331277,
          "duration": 0.078042,
          "velocity": 0.629921,
          "start_tick": 109365,
          "duration_ticks": 118,
          "channel": 4
        },
        {
          "note": 85,
          "start": 72.409319,
          "duration": 0.077381,
          "velocity": 0.629921,
          "start_tick": 109483,
          "duration_ticks": 117,
          "channel": 4
        },
        {
          "note": 80,
          "start": 72.4867,
          "duration": 0.078042,
          "velocity": 0.629921,
          "start_tick": 109600,
          "duration_ticks": 118,
          "channel": 4
        },
        {
          "note": 75,
          "start": 72.564742,
          "duration": 0.078042,
          "velocity": 0.629921,
          "start_tick": 109718,
          "duration_ticks": 118,
          "channel": 4
        },
        {
          "note": 72,
          "start": 72.642785,
          "duration": 0.078042,
          "velocity": 0.629921,
          "start_tick": 109836,
          "duration_ticks": 118,
          "channel": 4
        },
        {
          "note": 87,
          "start": 72.720827,
          "duration": 0.077381,
          "velocity": 0.629921,
          "start_tick": 109954,
          "duration_ticks": 117,
          "channel": 4
        },
        {
          "note": 85,
          "start": 72.798208,
          "duration": 0.078042,
          "velocity": 0.629921,
          "start_tick": 110071,
          "duration_ticks": 118,
          "channel": 4
        },
        {
          "note": 80,
          "start": 72.87625,
          "duration": 0.078042,
          "velocity": 0.629921,
          "start_tick": 110189,
          "duration_ticks": 118,
          "channel": 4
        },
        {
          "note": 75,
          "start": 72.954292,
          "duration": 0.078042,
          "velocity": 0.629921,
          "start_tick": 110307,
          "duration_ticks": 118,
          "channel": 4
        },
        {
          "note": 80,
          "start": 73.032334,
          "duration": 0.077381,
          "velocity": 0.629921,
          "start_tick": 110425,
          "duration_ticks": 117,
          "channel": 4
        },
        {
          "note": 75,
          "start": 73.109715,
          "duration": 0.078042,
          "velocity": 0.629921,
          "start_tick": 110542,
          "duration_ticks": 118,
          "channel": 4
        },
        {
          "note": 72,
          "start": 73.187758,
          "duration": 0.078042,
          "velocity": 0.629921,
          "start_tick": 110660,
          "duration_ticks": 118,
          "channel": 4
        },
        {
          "note": 68,
          "start": 73.2658,
          "duration": 0.078042,
          "velocity": 0.629921,
          "start_tick": 110778,
          "duration_ticks": 118,
          "channel": 4
        },
        {
          "note": 63,
          "start": 73.343842,
          "duration": 0.077381,
          "velocity": 0.629921,
          "start_tick": 110896,
          "duration_ticks": 117,
          "channel": 4
        },
        {
          "note": 67,
          "start": 73.421223,
          "duration": 0.078042,
          "velocity": 0.629921,
          "start_tick": 111013,
          "duration_ticks": 118,
          "channel": 4
        },
        {
          "note": 70,
          "start": 73.499265,
          "duration": 0.078042,
          "velocity": 0.629921,
          "start_tick": 111131,
          "duration_ticks": 118,
          "channel": 4
        },
        {
          "note": 75,
          "start": 73.577307,
          "duration": 0.078042,
          "velocity": 0.629921,
          "start_tick": 111249,
          "duration_ticks": 118,
          "channel": 4
        },
        {
          "note": 67,
          "start": 73.65535,
          "duration": 0.077381,
          "velocity": 0.629921,
          "start_tick": 111367,
          "duration_ticks": 117,
          "channel": 4
        },
        {
          "note": 70,
          "start": 73.732731,
          "duration": 0.078042,
          "velocity": 0.629921,
          "start_tick": 111484,
          "duration_ticks": 118,
          "channel": 4
        },
        {
          "note": 75,
          "start": 73.810773,
          "duration": 0.078042,
          "velocity": 0.629921,
          "start_tick": 111602,
          "duration_ticks": 118,
          "channel": 4
        },
        {
          "note": 79,
          "start": 73.888815,
          "duration": 0.078042,
          "velocity": 0.629921,
          "start_tick": 111720,
          "duration_ticks": 118,
          "channel": 4
        },
        {
          "note": 70,
          "start": 73.966857,
          "duration": 0.077381,
          "velocity": 0.629921,
          "start_tick": 111838,
          "duration_ticks": 117,
          "channel": 4
        },
        {
          "note": 75,
          "start": 74.044238,
          "duration": 0.078042,
          "velocity": 0.629921,
          "start_tick": 111955,
          "duration_ticks": 118,
          "channel": 4
        },
        {
          "note": 79,
          "start": 74.12228,
          "duration": 0.078042,
          "velocity": 0.629921,
          "start_tick": 112073,
          "duration_ticks": 118,
          "channel": 4
        },
        {
          "note": 82,
          "start": 74.200323,
          "duration": 0.078042,
          "velocity": 0.629921,
          "start_tick": 112191,
          "duration_ticks": 118,
          "channel": 4
        },
        {
          "note": 75,
          "start": 74.278365,
          "duration": 0.077381,
          "velocity": 0.629921,
          "start_tick": 112309,
          "duration_ticks": 117,
          "channel": 4
        },
        {
          "note": 79,
          "start": 74.355746,
          "duration": 0.078042,
          "velocity": 0.629921,
          "start_tick": 112426,
          "duration_ticks": 118,
          "channel": 4
        },
        {
          "note": 82,
          "start": 74.433788,
          "duration": 0.078042,
          "velocity": 0.629921,
          "start_tick": 112544,
          "duration_ticks": 118,
          "channel": 4
        },
        {
          "note": 87,
          "start": 74.51183,
          "duration": 0.078042,
          "velocity": 0.629921,
          "start_tick": 112662,
          "duration_ticks": 118,
          "channel": 4
        },
        {
          "note": 82,
          "start": 74.589872,
          "duration": 0.077381,
          "velocity": 0.629921,
          "start_tick": 112780,
          "duration_ticks": 117,
          "channel": 4
        },
        {
          "note": 79,
          "start": 74.667253,
          "duration": 0.081349,
          "velocity": 0.629921,
          "start_tick": 112897,
          "duration_ticks": 123,
          "channel": 4
        },
        {
          "note": 75,
          "start": 74.748603,
          "duration": 0.081349,
          "velocity": 0.629921,
          "start_tick": 113020,
          "duration_ticks": 123,
          "channel": 4
        },
        {
          "note": 70,
          "start": 74.829952,
          "duration": 0.081349,
          "velocity": 0.629921,
          "start_tick": 113143,
          "duration_ticks": 123,
          "channel": 4
        },
        {
          "note": 80,
          "start": 74.911301,
          "duration": 0.081349,
          "velocity": 0.629921,
          "start_tick": 113266,
          "duration_ticks": 123,
          "channel": 4
        },
        {
          "note": 75,
          "start": 74.99265,
          "duration": 0.081349,
          "velocity": 0.629921,
          "start_tick": 113389,
          "duration_ticks": 123,
          "channel": 4
        },
        {
          "note": 70,
          "start": 75.073999,
          "duration": 0.081349,
          "velocity": 0.629921,
          "start_tick": 113512,
          "duration_ticks": 123,
          "channel": 4
        },
        {
          "note": 67,
          "start": 75.155348,
          "duration": 0.081349,
          "velocity": 0.629921,
          "start_tick": 113635,
          "duration_ticks": 123,
          "channel": 4
        },
        {
          "note": 82,
          "start": 75.236697,
          "duration": 0.081349,
          "velocity": 0.629921,
          "start_tick": 113758,
          "duration_ticks": 123,
          "channel": 4
        },
        {
          "note": 80,
          "start": 75.318046,
          "duration": 0.081349,
          "velocity": 0.629921,
          "start_tick": 113881,
          "duration_ticks": 123,
          "channel": 4
        },
        {
          "note": 75,
          "start": 75.399395,
          "duration": 0.080688,
          "velocity": 0.629921,
          "start_tick": 114004,
          "duration_ticks": 122,
          "channel": 4
        },
        {
          "note": 70,
          "start": 75.480083,
          "duration": 0.081349,
          "velocity": 0.629921,
          "start_tick": 114126,
          "duration_ticks": 123,
          "channel": 4
        },
        {
          "note": 75,
          "start": 75.561432,
          "duration": 0.081349,
          "velocity": 0.629921,
          "start_tick": 114249,
          "duration_ticks": 123,
          "channel": 4
        },
        {
          "note": 70,
          "start": 75.642781,
          "duration": 0.081349,
          "velocity": 0.629921,
          "start_tick": 114372,
          "duration_ticks": 123,
          "channel": 4
        },
        {
          "note": 67,
          "start": 75.724131,
          "duration": 0.081349,
          "velocity": 0.629921,
          "start_tick": 114495,
          "duration_ticks": 123,
          "channel": 4
        },
        {
          "note": 63,
          "start": 75.80548,
          "duration": 0.081349,
          "velocity": 0.629921,
          "start_tick": 114618,
          "duration_ticks": 123,
          "channel": 4
        },
        {
          "note": 67,
          "start": 75.886829,
          "duration": 0.081349,
          "velocity": 0.629921,
          "start_tick": 114741,
          "duration_ticks": 123,
          "channel": 4
        },
        {
          "note": 71,
          "start": 75.968178,
          "duration": 0.081349,
          "velocity": 0.629921,
          "start_tick": 114864,
          "duration_ticks": 123,
          "channel": 4
        },
        {
          "note": 74,
          "start": 76.049527,
          "duration": 0.081349,
          "velocity": 0.629921,
          "start_tick": 114987,
          "duration_ticks": 123,
          "channel": 4
        },
        {
          "note": 79,
          "start": 76.130876,
          "duration": 0.081349,
          "velocity": 0.629921,
          "start_tick": 115110,
          "duration_ticks": 123,
          "channel": 4
        },
        {
          "note": 71,
          "start": 76.212225,
          "duration": 0.081349,
          "velocity": 0.629921,
          "start_tick": 115233,
          "duration_ticks": 123,
          "channel": 4
        },
        {
          "note": 74,
          "start": 76.293575,
          "duration": 0.080688,
          "velocity": 0.629921,
          "start_tick": 115356,
          "duration_ticks": 122,
          "channel": 4
        },
        {
          "note": 79,
          "start": 76.374262,
          "duration": 0.081349,
          "velocity": 0.629921,
          "start_tick": 115478,
          "duration_ticks": 123,
          "channel": 4
        },
        {
          "note": 83,
          "start": 76.455611,
          "duration": 0.081349,
          "velocity": 0.629921,
          "start_tick": 115601,
          "duration_ticks": 123,
          "channel": 4
        },
        {
          "note": 74,
          "start": 76.536961,
          "duration": 0.081349,
          "velocity": 0.629921,
          "start_tick": 115724,
          "duration_ticks": 123,
          "channel": 4
        },
        {
          "note": 79,
          "start": 76.61831,
          "duration": 0.081349,
          "velocity": 0.629921,
          "start_tick": 115847,
          "duration_ticks": 123,
          "channel": 4
        },
        {
          "note": 83,
          "start": 76.699659,
          "duration": 0.081349,
          "velocity": 0.629921,
          "start_tick": 115970,
          "duration_ticks": 123,
          "channel": 4
        },
        {
          "note": 86,
          "start": 76.781008,
          "duration": 0.081349,
          "velocity": 0.629921,
          "start_tick": 116093,
          "duration_ticks": 123,
          "channel": 4
        },
        {
          "note": 79,
          "start": 76.862357,
          "duration": 0.081349,
          "velocity": 0.629921,
          "start_tick": 116216,
          "duration_ticks": 123,
          "channel": 4
        },
        {
          "note": 83,
          "start": 76.943706,
          "duration": 0.081349,
          "velocity": 0.629921,
          "start_tick": 116339,
          "duration_ticks": 123,
          "channel": 4
        },
        {
          "note": 86,
          "start": 77.025055,
          "duration": 0.081349,
          "velocity": 0.629921,
          "start_tick": 116462,
          "duration_ticks": 123,
          "channel": 4
        },
        {
          "note": 91,
          "start": 77.106404,
          "duration": 0.080688,
          "velocity": 0.629921,
          "start_tick": 116585,
          "duration_ticks": 122,
          "channel": 4
        },
        {
          "note": 86,
          "start": 77.187092,
          "duration": 0.081349,
          "velocity": 0.629921,
          "start_tick": 116707,
          "duration_ticks": 123,
          "channel": 4
        },
        {
          "note": 83,
          "start": 77.268441,
          "duration": 0.081349,
          "velocity": 0.629921,
          "start_tick": 116830,
          "duration_ticks": 123,
          "channel": 4
        },
        {
          "note": 79,
          "start": 77.34979,
          "duration": 0.081349,
          "velocity": 0.629921,
          "start_tick": 116953,
          "duration_ticks": 123,
          "channel": 4
        },
        {
          "note": 74,
          "start": 77.43114,
          "duration": 0.081349,
          "velocity": 0.629921,
          "start_tick": 117076,
          "duration_ticks": 123,
          "channel": 4
        },
        {
          "note": 84,
          "start": 77.512489,
          "duration": 0.081349,
          "velocity": 0.629921,
          "start_tick": 117199,
          "duration_ticks": 123,
          "channel": 4
        },
        {
          "note": 79,
          "start": 77.593838,
          "duration": 0.081349,
          "velocity": 0.629921,
          "start_tick": 117322,
          "duration_ticks": 123,
          "channel": 4
        },
        {
          "note": 74,
          "start": 77.675187,
          "duration": 0.081349,
          "velocity": 0.629921,
          "start_tick": 117445,
          "duration_ticks": 123,
          "channel": 4
        },
        {
          "note": 71,
          "start": 77.756536,
          "duration": 0.081349,
          "velocity": 0.629921,
          "start_tick": 117568,
          "duration_ticks": 123,
          "channel": 4
        },
        {
          "note": 86,
          "start": 77.837885,
          "duration": 0.081349,
          "velocity": 0.629921,
          "start_tick": 117691,
          "duration_ticks": 123,
          "channel": 4
        },
        {
          "note": 84,
          "start": 77.919234,
          "duration": 0.080688,
          "velocity": 0.629921,
          "start_tick": 117814,
          "duration_ticks": 122,
          "channel": 4
        },
        {
          "note": 79,
          "start": 77.999922,
          "duration": 0.081349,
          "velocity": 0.629921,
          "start_tick": 117936,
          "duration_ticks": 123,
          "channel": 4
        },
        {
          "note": 74,
          "start": 78.081271,
          "duration": 0.081349,
          "velocity": 0.629921,
          "start_tick": 118059,
          "duration_ticks": 123,
          "channel": 4
        },
        {
          "note": 79,
          "start": 78.16262,
          "duration": 0.081349,
          "velocity": 0.629921,
          "start_tick": 118182,
          "duration_ticks": 123,
          "channel": 4
        },
        {
          "note": 74,
          "start": 78.243969,
          "duration": 0.081349,
          "velocity": 0.629921,
          "start_tick": 118305,
          "duration_ticks": 123,
          "channel": 4
        },
        {
          "note": 71,
          "start": 78.325318,
          "duration": 0.081349,
          "velocity": 0.629921,
          "start_tick": 118428,
          "duration_ticks": 123,
          "channel": 4
        },
        {
          "note": 67,
          "start": 78.406668,
          "duration": 0.081349,
          "velocity": 0.629921,
          "start_tick": 118551,
          "duration_ticks": 123,
          "channel": 4
        },
        {
          "note": 65,
          "start": 78.488017,
          "duration": 0.081349,
          "velocity": 0.629921,
          "start_tick": 118674,
          "duration_ticks": 123,
          "channel": 4
        },
        {
          "note": 68,
          "start": 78.569366,
          "duration": 0.081349,
          "velocity": 0.629921,
          "start_tick": 118797,
          "duration_ticks": 123,
          "channel": 4
        },
        {
          "note": 72,
          "start": 78.650715,
          "duration": 0.081349,
          "velocity": 0.629921,
          "start_tick": 118920,
          "duration_ticks": 123,
          "channel": 4
        },
        {
          "note": 77,
          "start": 78.732064,
          "duration": 0.081349,
          "velocity": 0.629921,
          "start_tick": 119043,
          "duration_ticks": 123,
          "channel": 4
        },
        {
          "note": 68,
          "start": 78.813413,
          "duration": 0.080688,
          "velocity": 0.629921,
          "start_tick": 119166,
          "duration_ticks": 122,
          "channel": 4
        },
        {
          "note": 72,
          "start": 78.894101,
          "duration": 0.081349,
          "velocity": 0.629921,
          "start_tick": 119288,
          "duration_ticks": 123,
          "channel": 4
        },
        {
          "note": 77,
          "start": 78.97545,
          "duration": 0.081349,
          "velocity": 0.629921,
          "start_tick": 119411,
          "duration_ticks": 123,
          "channel": 4
        },
        {
          "note": 80,
          "start": 79.056799,
          "duration": 0.081349,
          "velocity": 0.629921,
          "start_tick": 119534,
          "duration_ticks": 123,
          "channel": 4
        },
        {
          "note": 72,
          "start": 79.138148,
          "duration": 0.081349,
          "velocity": 0.629921,
          "start_tick": 119657,
          "duration_ticks": 123,
          "channel": 4
        },
        {
          "note": 77,
          "start": 79.219498,
          "duration": 0.081349,
          "velocity": 0.629921,
          "start_tick": 119780,
          "duration_ticks": 123,
          "channel": 4
        },
        {
          "note": 80,
          "start": 79.300847,
          "duration": 0.081349,
          "velocity": 0.629921,
          "start_tick": 119903,
          "duration_ticks": 123,
          "channel": 4
        },
        {
          "note": 84,
          "start": 79.382196,
          "duration": 0.081349,
          "velocity": 0.629921,
          "start_tick": 120026,
          "duration_ticks": 123,
          "channel": 4
        },
        {
          "note": 77,
          "start": 79.463545,
          "duration": 0.081349,
          "velocity": 0.629921,
          "start_tick": 120149,
          "duration_ticks": 123,
          "channel": 4
        },
        {
          "note": 80,
          "start": 79.544894,
          "duration": 0.081349,
          "velocity": 0.629921,
          "start_tick": 120272,
          "duration_ticks": 123,
          "channel": 4
        },
        {
          "note": 84,
          "start": 79.626243,
          "duration": 0.080688,
          "velocity": 0.629921,
          "start_tick": 120395,
          "duration_ticks": 122,
          "channel": 4
        },
        {
          "note": 89,
          "start": 79.706931,
          "duration": 0.081349,
          "velocity": 0.629921,
          "start_tick": 120517,
          "duration_ticks": 123,
          "channel": 4
        },
        {
          "note": 84,
          "start": 79.78828,
          "duration": 0.081349,
          "velocity": 0.629921,
          "start_tick": 120640,
          "duration_ticks": 123,
          "channel": 4
        },
        {
          "note": 80,
          "start": 79.869629,
          "duration": 0.081349,
          "velocity": 0.629921,
          "start_tick": 120763,
          "duration_ticks": 123,
          "channel": 4
        },
        {
          "note": 77,
          "start": 79.950978,
          "duration": 0.081349,
          "velocity": 0.629921,
          "start_tick": 120886,
          "duration_ticks": 123,
          "channel": 4
        },
        {
          "note": 72,
          "start": 80.032327,
          "duration": 0.081349,
          "velocity": 0.629921,
          "start_tick": 121009,
          "duration_ticks": 123,
          "channel": 4
        },
        {
          "note": 80,
          "start": 80.113676,
          "duration": 0.081349,
          "velocity": 0.629921,
          "start_tick": 121132,
          "duration_ticks": 123,
          "channel": 4
        },
        {
          "note": 77,
          "start": 80.195026,
          "duration": 0.081349,
          "velocity": 0.629921,
          "start_tick": 121255,
          "duration_ticks": 123,
          "channel": 4
        },
        {
          "note": 72,
          "start": 80.276375,
          "duration": 0.081349,
          "velocity": 0.629921,
          "start_tick": 121378,
          "duration_ticks": 123,
          "channel": 4
        },
        {
          "note": 68,
          "start": 80.357724,
          "duration": 0.081349,
          "velocity": 0.629921,
          "start_tick": 121501,
          "duration_ticks": 123,
          "channel": 4
        },
        {
          "note": 84,
          "start": 80.439073,
          "duration": 0.080688,
          "velocity": 0.629921,
          "start_tick": 121624,
          "duration_ticks": 122,
          "channel": 4
        },
        {
          "note": 80,
          "start": 80.519761,
          "duration": 0.081349,
          "velocity": 0.629921,
          "start_tick": 121746,
          "duration_ticks": 123,
          "channel": 4
        },
        {
          "note": 77,
          "start": 80.60111,
          "duration": 0.081349,
          "velocity": 0.629921,
          "start_tick": 121869,
          "duration_ticks": 123,
          "channel": 4
        },
        {
          "note": 72,
          "start": 80.682459,
          "duration": 0.081349,
          "velocity": 0.629921,
          "start_tick": 121992,
          "duration_ticks": 123,
          "channel": 4
        },
        {
          "note": 77,
          "start": 80.763808,
          "duration": 0.081349,
          "velocity": 0.629921,
          "start_tick": 122115,
          "duration_ticks": 123,
          "channel": 4
        },
        {
          "note": 72,
          "start": 80.845157,
          "duration": 0.081349,
          "velocity": 0.629921,
          "start_tick": 122238,
          "duration_ticks": 123,
          "channel": 4
        },
        {
          "note": 68,
          "start": 80.926506,
          "duration": 0.081349,
          "velocity": 0.629921,
          "start_tick": 122361,
          "duration_ticks": 123,
          "channel": 4
        },
        {
          "note": 65,
          "start": 81.007856,
          "duration": 0.081349,
          "velocity": 0.629921,
          "start_tick": 122484,
          "duration_ticks": 123,
          "channel": 4
        },
        {
          "note": 60,
          "start": 81.089205,
          "duration": 0.081349,
          "velocity": 0.629921,
          "start_tick": 122607,
          "duration_ticks": 123,
          "channel": 4
        },
        {
          "note": 63,
          "start": 81.170554,
          "duration": 0.081349,
          "velocity": 0.629921,
          "start_tick": 122730,
          "duration_ticks": 123,
          "channel": 4
        },
        {
          "note": 65,
          "start": 81.251903,
          "duration": 0.080688,
          "velocity": 0.629921,
          "start_tick": 122853,
          "duration_ticks": 122,
          "channel": 4
        },
        {
          "note": 67,
          "start": 81.332591,
          "duration": 0.081349,
          "velocity": 0.629921,
          "start_tick": 122975,
          "duration_ticks": 123,
          "channel": 4
        },
        {
          "note": 63,
          "start": 81.41394,
          "duration": 0.081349,
          "velocity": 0.629921,
          "start_tick": 123098,
          "duration_ticks": 123,
          "channel": 4
        },
        {
          "note": 65,
          "start": 81.495289,
          "duration": 0.081349,
          "velocity": 0.629921,
          "start_tick": 123221,
          "duration_ticks": 123,
          "channel": 4
        },
        {
          "note": 67,
          "start": 81.576638,
          "duration": 0.081349,
          "velocity": 0.629921,
          "start_tick": 123344,
          "duration_ticks": 123,
          "channel": 4
        },
        {
          "note": 72,
          "start": 81.657987,
          "duration": 0.081349,
          "velocity": 0.629921,
          "start_tick": 123467,
          "duration_ticks": 123,
          "channel": 4
        },
        {
          "note": 67,
          "start": 81.739336,
          "duration": 0.081349,
          "velocity": 0.629921,
          "start_tick": 123590,
          "duration_ticks": 123,
          "channel": 4
        },
        {
          "note": 72,
          "start": 81.820685,
          "duration": 0.081349,
          "velocity": 0.629921,
          "start_tick": 123713,
          "duration_ticks": 123,
          "channel": 4
        },
        {
          "note": 75,
          "start": 81.902034,
          "duration": 0.081349,
          "velocity": 0.629921,
          "start_tick": 123836,
          "duration_ticks": 123,
          "channel": 4
        },
        {
          "note": 77,
          "start": 81.983384,
          "duration": 0.081349,
          "velocity": 0.629921,
          "start_tick": 123959,
          "duration_ticks": 123,
          "channel": 4
        },
        {
          "note": 75,
          "start": 82.064733,
          "duration": 0.081349,
          "velocity": 0.629921,
          "start_tick": 124082,
          "duration_ticks": 123,
          "channel": 4
        },
        {
          "note": 77,
          "start": 82.146082,
          "duration": 0.080688,
          "velocity": 0.629921,
          "start_tick": 124205,
          "duration_ticks": 122,
          "channel": 4
        },
        {
          "note": 79,
          "start": 82.22677,
          "duration": 0.081349,
          "velocity": 0.629921,
          "start_tick": 124327,
          "duration_ticks": 123,
          "channel": 4
        },
        {
          "note": 84,
          "start": 82.308119,
          "duration": 0.081349,
          "velocity": 0.629921,
          "start_tick": 124450,
          "duration_ticks": 123,
          "channel": 4
        },
        {
          "note": 79,
          "start": 82.389468,
          "duration": 0.081349,
          "velocity": 0.629921,
          "start_tick": 124573,
          "duration_ticks": 123,
          "channel": 4
        },
        {
          "note": 77,
          "start": 82.470817,
          "duration": 0.081349,
          "velocity": 0.629921,
          "start_tick": 124696,
          "duration_ticks": 123,
          "channel": 4
        },
        {
          "note": 75,
          "start": 82.552166,
          "duration": 0.081349,
          "velocity": 0.629921,
          "start_tick": 124819,
          "duration_ticks": 123,
          "channel": 4
        },
        {
          "note": 79,
          "start": 82.633515,
          "duration": 0.081349,
          "velocity": 0.629921,
          "start_tick": 124942,
          "duration_ticks": 123,
          "channel": 4
        },
        {
          "note": 77,
          "start": 82.714864,
          "duration": 0.081349,
          "velocity": 0.629921,
          "start_tick": 125065,
          "duration_ticks": 123,
          "channel": 4
        },
        {
          "note": 75,
          "start": 82.796213,
          "duration": 0.081349,
          "velocity": 0.629921,
          "start_tick": 125188,
          "duration_ticks": 123,
          "channel": 4
        },
        {
          "note": 72,
          "start": 82.877563,
          "duration": 0.081349,
          "velocity": 0.629921,
          "start_tick": 125311,
          "duration_ticks": 123,
          "channel": 4
        },
        {
          "note": 77,
          "start": 82.958912,
          "duration": 0.080688,
          "velocity": 0.629921,
          "start_tick": 125434,
          "duration_ticks": 122,
          "channel": 4
        },
        {
          "note": 75,
          "start": 83.039599,
          "duration": 0.081349,
          "velocity": 0.629921,
          "start_tick": 125556,
          "duration_ticks": 123,
          "channel": 4
        },
        {
          "note": 72,
          "start": 83.120949,
          "duration": 0.081349,
          "velocity": 0.629921,
          "start_tick": 125679,
          "duration_ticks": 123,
          "channel": 4
        },
        {
          "note": 67,
          "start": 83.202298,
          "duration": 0.081349,
          "velocity": 0.629921,
          "start_tick": 125802,
          "duration_ticks": 123,
          "channel": 4
        },
        {
          "note": 65,
          "start": 83.283647,
          "duration": 0.081349,
          "velocity": 0.629921,
          "start_tick": 125925,
          "duration_ticks": 123,
          "channel": 4
        },
        {
          "note": 72,
          "start": 83.364996,
          "duration": 0.081349,
          "velocity": 0.629921,
          "start_tick": 126048,
          "duration_ticks": 123,
          "channel": 4
        },
        {
          "note": 67,
          "start": 83.446345,
          "duration": 0.081349,
          "velocity": 0.629921,
          "start_tick": 126171,
          "duration_ticks": 123,
          "channel": 4
        },
        {
          "note": 65,
          "start": 83.527694,
          "duration": 0.081349,
          "velocity": 0.629921,
          "start_tick": 126294,
          "duration_ticks": 123,
          "channel": 4
        },
        {
          "note": 60,
          "start": 83.609043,
          "duration": 0.081349,
          "velocity": 0.629921,
          "start_tick": 126417,
          "duration_ticks": 123,
          "channel": 4
        },
        {
          "note": 63,
          "start": 83.690393,
          "duration": 0.081349,
          "velocity": 0.629921,
          "start_tick": 126540,
          "duration_ticks": 123,
          "channel": 4
        },
        {
          "note": 67,
          "start": 83.771742,
          "duration": 0.080688,
          "velocity": 0.629921,
          "start_tick": 126663,
          "duration_ticks": 122,
          "channel": 4
        },
        {
          "note": 70,
          "start": 83.852429,
          "duration": 0.081349,
          "velocity": 0.629921,
          "start_tick": 126785,
          "duration_ticks": 123,
          "channel": 4
        },
        {
          "note": 75,
          "start": 83.933779,
          "duration": 0.081349,
          "velocity": 0.629921,
          "start_tick": 126908,
          "duration_ticks": 123,
          "channel": 4
        },
        {
          "note": 67,
          "start": 84.015128,
          "duration": 0.081349,
          "velocity": 0.629921,
          "start_tick": 127031,
          "duration_ticks": 123,
          "channel": 4
        },
        {
          "note": 70,
          "start": 84.096477,
          "duration": 0.081349,
          "velocity": 0.629921,
          "start_tick": 127154,
          "duration_ticks": 123,
          "channel": 4
        },
        {
          "note": 75,
          "start": 84.177826,
          "duration": 0.081349,
          "velocity": 0.629921,
          "start_tick": 127277,
          "duration_ticks": 123,
          "channel": 4
        },
        {
          "note": 79,
          "start": 84.259175,
          "duration": 0.081349,
          "velocity": 0.629921,
          "start_tick": 127400,
          "duration_ticks": 123,
          "channel": 4
        },
        {
          "note": 70,
          "start": 84.340524,
          "duration": 0.081349,
          "velocity": 0.629921,
          "start_tick": 127523,
          "duration_ticks": 123,
          "channel": 4
        },
        {
          "note": 75,
          "start": 84.421873,
          "duration": 0.081349,
          "velocity": 0.629921,
          "start_tick": 127646,
          "duration_ticks": 123,
          "channel": 4
        },
        {
          "note": 79,
          "start": 84.503222,
          "duration": 0.081349,
          "velocity": 0.629921,
          "start_tick": 127769,
          "duration_ticks": 123,
          "channel": 4
        },
        {
          "note": 82,
          "start": 84.584571,
          "duration": 0.081349,
          "velocity": 0.629921,
          "start_tick": 127892,
          "duration_ticks": 123,
          "channel": 4
        },
        {
          "note": 75,
          "start": 84.665921,
          "duration": 0.080688,
          "velocity": 0.629921,
          "start_tick": 128015,
          "duration_ticks": 122,
          "channel": 4
        },
        {
          "note": 79,
          "start": 84.746608,
          "duration": 0.081349,
          "velocity": 0.629921,
          "start_tick": 128137,
          "duration_ticks": 123,
          "channel": 4
        },
        {
          "note": 82,
          "start": 84.827957,
          "duration": 0.081349,
          "velocity": 0.629921,
          "start_tick": 128260,
          "duration_ticks": 123,
          "channel": 4
        },
        {
          "note": 87,
          "start": 84.909307,
          "duration": 0.080688,
          "velocity": 0.629921,
          "start_tick": 128383,
          "duration_ticks": 122,
          "channel": 4
        },
        {
          "note": 82,
          "start": 84.989994,
          "duration": 0.080026,
          "velocity": 0.629921,
          "start_tick": 128505,
          "duration_ticks": 121,
          "channel": 4
        },
        {
          "note": 79,
          "start": 85.070021,
          "duration": 0.080688,
          "velocity": 0.629921,
          "start_tick": 128626,
          "duration_ticks": 122,
          "channel": 4
        },
        {
          "note": 75,
          "start": 85.150708,
          "duration": 0.080026,
          "velocity": 0.629921,
          "start_tick": 128748,
          "duration_ticks": 121,
          "channel": 4
        },
        {
          "note": 70,
          "start": 85.230735,
          "duration": 0.080688,
          "velocity": 0.629921,
          "start_tick": 128869,
          "duration_ticks": 122,
          "channel": 4
        },
        {
          "note": 80,
          "start": 85.311423,
          "duration": 0.080026,
          "velocity": 0.629921,
          "start_tick": 128991,
          "duration_ticks": 121,
          "channel": 4
        },
        {
          "note": 75,
          "start": 85.391449,
          "duration": 0.080688,
          "velocity": 0.629921,
          "start_tick": 129112,
          "duration_ticks": 122,
          "channel": 4
        },
        {
          "note": 70,
          "start": 85.472137,
          "duration": 0.080026,
          "velocity": 0.629921,
          "start_tick": 129234,
          "duration_ticks": 121,
          "channel": 4
        },
        {
          "note": 67,
          "start": 85.552163,
          "duration": 0.080688,
          "velocity": 0.629921,
          "start_tick": 129355,
          "duration_ticks": 122,
          "channel": 4
        },
        {
          "note": 82,
          "start": 85.632851,
          "duration": 0.080026,
          "velocity": 0.629921,
          "start_tick": 129477,
          "duration_ticks": 121,
          "channel": 4
        },
        {
          "note": 80,
          "start": 85.712877,
          "duration": 0.080688,
          "velocity": 0.629921,
          "start_tick": 129598,
          "duration_ticks": 122,
          "channel": 4
        },
        {
          "note": 75,
          "start": 85.793565,
          "duration": 0.080026,
          "velocity": 0.629921,
          "start_tick": 129720,
          "duration_ticks": 121,
          "channel": 4
        },
        {
          "note": 70,
          "start": 85.873591,
          "duration": 0.080688,
          "velocity": 0.629921,
          "start_tick": 129841,
          "duration_ticks": 122,
          "channel": 4
        },
        {
          "note": 75,
          "start": 85.954279,
          "duration": 0.080026,
          "velocity": 0.629921,
          "start_tick": 129963,
          "duration_ticks": 121,
          "channel": 4
        },
        {
          "note": 70,
          "start": 86.034306,
          "duration": 0.080688,
          "velocity": 0.629921,
          "start_tick": 130084,
          "duration_ticks": 122,
          "channel": 4
        },
        {
          "note": 67,
          "start": 86.114993,
          "duration": 0.080026,
          "velocity": 0.629921,
          "start_tick": 130206,
          "duration_ticks": 121,
          "channel": 4
        },
        {
          "note": 63,
          "start": 86.19502,
          "duration": 0.080688,
          "velocity": 0.629921,
          "start_tick": 130327,
          "duration_ticks": 122,
          "channel": 4
        },
        {
          "note": 67,
          "start": 86.275707,
          "duration": 0.080026,
          "velocity": 0.629921,
          "start_tick": 130449,
          "duration_ticks": 121,
          "channel": 4
        },
        {
          "note": 71,
          "start": 86.355734,
          "duration": 0.080688,
          "velocity": 0.629921,
          "start_tick": 130570,
          "duration_ticks": 122,
          "channel": 4
        },
        {
          "note": 74,
          "start": 86.436421,
          "duration": 0.080026,
          "velocity": 0.629921,
          "start_tick": 130692,
          "duration_ticks": 121,
          "channel": 4
        },
        {
          "note": 79,
          "start": 86.516448,
          "duration": 0.080688,
          "velocity": 0.629921,
          "start_tick": 130813,
          "duration_ticks": 122,
          "channel": 4
        },
        {
          "note": 71,
          "start": 86.597136,
          "duration": 0.080026,
          "velocity": 0.629921,
          "start_tick": 130935,
          "duration_ticks": 121,
          "channel": 4
        },
        {
          "note": 74,
          "start": 86.677162,
          "duration": 0.080688,
          "velocity": 0.629921,
          "start_tick": 131056,
          "duration_ticks": 122,
          "channel": 4
        },
        {
          "note": 79,
          "start": 86.75785,
          "duration": 0.080026,
          "velocity": 0.629921,
          "start_tick": 131178,
          "duration_ticks": 121,
          "channel": 4
        },
        {
          "note": 83,
          "start": 86.837876,
          "duration": 0.080688,
          "velocity": 0.629921,
          "start_tick": 131299,
          "duration_ticks": 122,
          "channel": 4
        },
        {
          "note": 74,
          "start": 86.918564,
          "duration": 0.080026,
          "velocity": 0.629921,
          "start_tick": 131421,
          "duration_ticks": 121,
          "channel": 4
        },
        {
          "note": 79,
          "start": 86.99859,
          "duration": 0.080688,
          "velocity": 0.629921,
          "start_tick": 131542,
          "duration_ticks": 122,
          "channel": 4
        },
        {
          "note": 83,
          "start": 87.079278,
          "duration": 0.080026,
          "velocity": 0.629921,
          "start_tick": 131664,
          "duration_ticks": 121,
          "channel": 4
        },
        {
          "note": 86,
          "start": 87.159304,
          "duration": 0.080688,
          "velocity": 0.629921,
          "start_tick": 131785,
          "duration_ticks": 122,
          "channel": 4
        },
        {
          "note": 79,
          "start": 87.239992,
          "duration": 0.080026,
          "velocity": 0.629921,
          "start_tick": 131907,
          "duration_ticks": 121,
          "channel": 4
        },
        {
          "note": 83,
          "start": 87.320019,
          "duration": 0.080688,
          "velocity": 0.629921,
          "start_tick": 132028,
          "duration_ticks": 122,
          "channel": 4
        },
        {
          "note": 86,
          "start": 87.400706,
          "duration": 0.080026,
          "velocity": 0.629921,
          "start_tick": 132150,
          "duration_ticks": 121,
          "channel": 4
        },
        {
          "note": 91,
          "start": 87.480733,
          "duration": 0.080688,
          "velocity": 0.629921,
          "start_tick": 132271,
          "duration_ticks": 122,
          "channel": 4
        },
        {
          "note": 86,
          "start": 87.56142,
          "duration": 0.080026,
          "velocity": 0.629921,
          "start_tick": 132393,
          "duration_ticks": 121,
          "channel": 4
        },
        {
          "note": 83,
          "start": 87.641447,
          "duration": 0.080688,
          "velocity": 0.629921,
          "start_tick": 132514,
          "duration_ticks": 122,
          "channel": 4
        },
        {
          "note": 79,
          "start": 87.722134,
          "duration": 0.080026,
          "velocity": 0.629921,
          "start_tick": 132636,
          "duration_ticks": 121,
          "channel": 4
        },
        {
          "note": 74,
          "start": 87.802161,
          "duration": 0.080688,
          "velocity": 0.629921,
          "start_tick": 132757,
          "duration_ticks": 122,
          "channel": 4
        },
        {
          "note": 84,
          "start": 87.882849,
          "duration": 0.080026,
          "velocity": 0.629921,
          "start_tick": 132879,
          "duration_ticks": 121,
          "channel": 4
        },
        {
          "note": 79,
          "start": 87.962875,
          "duration": 0.080688,
          "velocity": 0.629921,
          "start_tick": 133000,
          "duration_ticks": 122,
          "channel": 4
        },
        {
          "note": 74,
          "start": 88.043563,
          "duration": 0.080026,
          "velocity": 0.629921,
          "start_tick": 133122,
          "duration_ticks": 121,
          "channel": 4
        },
        {
          "note": 71,
          "start": 88.123589,
          "duration": 0.080688,
          "velocity": 0.629921,
          "start_tick": 133243,
          "duration_ticks": 122,
          "channel": 4
        },
        {
          "note": 86,
          "start": 88.204277,
          "duration": 0.080026,
          "velocity": 0.629921,
          "start_tick": 133365,
          "duration_ticks": 121,
          "channel": 4
        },
        {
          "note": 84,
          "start": 88.284303,
          "duration": 0.080688,
          "velocity": 0.629921,
          "start_tick": 133486,
          "duration_ticks": 122,
          "channel": 4
        },
        {
          "note": 79,
          "start": 88.364991,
          "duration": 0.080026,
          "velocity": 0.629921,
          "start_tick": 133608,
          "duration_ticks": 121,
          "channel": 4
        },
        {
          "note": 74,
          "start": 88.445017,
          "duration": 0.080688,
          "velocity": 0.629921,
          "start_tick": 133729,
          "duration_ticks": 122,
          "channel": 4
        },
        {
          "note": 79,
          "start": 88.525705,
          "duration": 0.080026,
          "velocity": 0.629921,
          "start_tick": 133851,
          "duration_ticks": 121,
          "channel": 4
        },
        {
          "note": 74,
          "start": 88.605732,
          "duration": 0.080688,
          "velocity": 0.629921,
          "start_tick": 133972,
          "duration_ticks": 122,
          "channel": 4
        },
        {
          "note": 71,
          "start": 88.686419,
          "duration": 0.080026,
          "velocity": 0.629921,
          "start_tick": 134094,
          "duration_ticks": 121,
          "channel": 4
        },
        {
          "note": 67,
          "start": 88.766446,
          "duration": 0.080688,
          "velocity": 0.629921,
          "start_tick": 134215,
          "duration_ticks": 122,
          "channel": 4
        },
        {
          "note": 65,
          "start": 88.847133,
          "duration": 0.080026,
          "velocity": 0.629921,
          "start_tick": 134337,
          "duration_ticks": 121,
          "channel": 4
        },
        {
          "note": 68,
          "start": 88.92716,
          "duration": 0.080688,
          "velocity": 0.629921,
          "start_tick": 134458,
          "duration_ticks": 122,
          "channel": 4
        },
        {
          "note": 72,
          "start": 89.007847,
          "duration": 0.080026,
          "velocity": 0.629921,
          "start_tick": 134580,
          "duration_ticks": 121,
          "channel": 4
        },
        {
          "note": 77,
          "start": 89.087874,
          "duration": 0.080688,
          "velocity": 0.629921,
          "start_tick": 134701,
          "duration_ticks": 122,
          "channel": 4
        },
        {
          "note": 68,
          "start": 89.168562,
          "duration": 0.080026,
          "velocity": 0.629921,
          "start_tick": 134823,
          "duration_ticks": 121,
          "channel": 4
        },
        {
          "note": 72,
          "start": 89.248588,
          "duration": 0.080026,
          "velocity": 0.629921,
          "start_tick": 134944,
          "duration_ticks": 121,
          "channel": 4
        },
        {
          "note": 77,
          "start": 89.328614,
          "duration": 0.080688,
          "velocity": 0.629921,
          "start_tick": 135065,
          "duration_ticks": 122,
          "channel": 4
        },
        {
          "note": 80,
          "start": 89.409302,
          "duration": 0.080026,
          "velocity": 0.629921,
          "start_tick": 135187,
          "duration_ticks": 121,
          "channel": 4
        },
        {
          "note": 72,
          "start": 89.489328,
          "duration": 0.080688,
          "velocity": 0.629921,
          "start_tick": 135308,
          "duration_ticks": 122,
          "channel": 4
        },
        {
          "note": 77,
          "start": 89.570016,
          "duration": 0.080026,
          "velocity": 0.629921,
          "start_tick": 135430,
          "duration_ticks": 121,
          "channel": 4
        },
        {
          "note": 80,
          "start": 89.650043,
          "duration": 0.080688,
          "velocity": 0.629921,
          "start_tick": 135551,
          "duration_ticks": 122,
          "channel": 4
        },
        {
          "note": 84,
          "start": 89.73073,
          "duration": 0.080026,
          "velocity": 0.629921,
          "start_tick": 135673,
          "duration_ticks": 121,
          "channel": 4
        },
        {
          "note": 77,
          "start": 89.810757,
          "duration": 0.080688,
          "velocity": 0.629921,
          "start_tick": 135794,
          "duration_ticks": 122,
          "channel": 4
        },
        {
          "note": 80,
          "start": 89.891445,
          "duration": 0.080026,
          "velocity": 0.629921,
          "start_tick": 135916,
          "duration_ticks": 121,
          "channel": 4
        },
        {
          "note": 84,
          "start": 89.971471,
          "duration": 0.080688,
          "velocity": 0.629921,
          "start_tick": 136037,
          "duration_ticks": 122,
          "channel": 4
        },
        {
          "note": 89,
          "start": 90.052159,
          "duration": 0.080026,
          "velocity": 0.629921,
          "start_tick": 136159,
          "duration_ticks": 121,
          "channel": 4
        },
        {
          "note": 84,
          "start": 90.132185,
          "duration": 0.080688,
          "velocity": 0.629921,
          "start_tick": 136280,
          "duration_ticks": 122,
          "channel": 4
        },
        {
          "note": 80,
          "start": 90.212873,
          "duration": 0.080026,
          "velocity": 0.629921,
          "start_tick": 136402,
          "duration_ticks": 121,
          "channel": 4
        },
        {
          "note": 77,
          "start": 90.292899,
          "duration": 0.080688,
          "velocity": 0.629921,
          "start_tick": 136523,
          "duration_ticks": 122,
          "channel": 4
        },
        {
          "note": 72,
          "start": 90.373587,
          "duration": 0.080026,
          "velocity": 0.629921,
          "start_tick": 136645,
          "duration_ticks": 121,
          "channel": 4
        },
        {
          "note": 80,
          "start": 90.453613,
          "duration": 0.080688,
          "velocity": 0.629921,
          "start_tick": 136766,
          "duration_ticks": 122,
          "channel": 4
        },
        {
          "note": 77,
          "start": 90.534301,
          "duration": 0.080026,
          "velocity": 0.629921,
          "start_tick": 136888,
          "duration_ticks": 121,
          "channel": 4
        },
        {
          "note": 72,
          "start": 90.614327,
          "duration": 0.080688,
          "velocity": 0.629921,
          "start_tick": 137009,
          "duration_ticks": 122,
          "channel": 4
        },
        {
          "note": 68,
          "start": 90.695015,
          "duration": 0.080026,
          "velocity": 0.629921,
          "start_tick": 137131,
          "duration_ticks": 121,
          "channel": 4
        },
        {
          "note": 84,
          "start": 90.775042,
          "duration": 0.080688,
          "velocity": 0.629921,
          "start_tick": 137252,
          "duration_ticks": 122,
          "channel": 4
        },
        {
          "note": 80,
          "start": 90.855729,
          "duration": 0.080026,
          "velocity": 0.629921,
          "start_tick": 137374,
          "duration_ticks": 121,
          "channel": 4
        },
        {
          "note": 77,
          "start": 90.935756,
          "duration": 0.080688,
          "velocity": 0.629921,
          "start_tick": 137495,
          "duration_ticks": 122,
          "channel": 4
        },
        {
          "note": 72,
          "start": 91.016443,
          "duration": 0.080026,
          "velocity": 0.629921,
          "start_tick": 137617,
          "duration_ticks": 121,
          "channel": 4
        },
        {
          "note": 77,
          "start": 91.09647,
          "duration": 0.080688,
          "velocity": 0.629921,
          "start_tick": 137738,
          "duration_ticks": 122,
          "channel": 4
        },
        {
          "note": 72,
          "start": 91.177158,
          "duration": 0.080026,
          "velocity": 0.629921,
          "start_tick": 137860,
          "duration_ticks": 121,
          "channel": 4
        },
        {
          "note": 68,
          "start": 91.257184,
          "duration": 0.080688,
          "velocity": 0.629921,
          "start_tick": 137981,
          "duration_ticks": 122,
          "channel": 4
        },
        {
          "note": 65,
          "start": 91.337872,
          "duration": 0.080026,
          "velocity": 0.629921,
          "start_tick": 138103,
          "duration_ticks": 121,
          "channel": 4
        },
        {
          "note": 68,
          "start": 91.417898,
          "duration": 0.080688,
          "velocity": 0.629921,
          "start_tick": 138224,
          "duration_ticks": 122,
          "channel": 4
        },
        {
          "note": 72,
          "start": 91.498586,
          "duration": 0.080026,
          "velocity": 0.629921,
          "start_tick": 138346,
          "duration_ticks": 121,
          "channel": 4
        },
        {
          "note": 75,
          "start": 91.578612,
          "duration": 0.080688,
          "velocity": 0.629921,
          "start_tick": 138467,
          "duration_ticks": 122,
          "channel": 4
        },
        {
          "note": 80,
          "start": 91.6593,
          "duration": 0.080026,
          "velocity": 0.629921,
          "start_tick": 138589,
          "duration_ticks": 121,
          "channel": 4
        },
        {
          "note": 72,
          "start": 91.739326,
          "duration": 0.080688,
          "velocity": 0.629921,
          "start_tick": 138710,
          "duration_ticks": 122,
          "channel": 4
        },
        {
          "note": 75,
          "start": 91.820014,
          "duration": 0.080026,
          "velocity": 0.629921,
          "start_tick": 138832,
          "duration_ticks": 121,
          "channel": 4
        },
        {
          "note": 80,
          "start": 91.90004,
          "duration": 0.080688,
          "velocity": 0.629921,
          "start_tick": 138953,
          "duration_ticks": 122,
          "channel": 4
        },
        {
          "note": 84,
          "start": 91.980728,
          "duration": 0.080026,
          "velocity": 0.629921,
          "start_tick": 139075,
          "duration_ticks": 121,
          "channel": 4
        },
        {
          "note": 75,
          "start": 92.060755,
          "duration": 0.080688,
          "velocity": 0.629921,
          "start_tick": 139196,
          "duration_ticks": 122,
          "channel": 4
        },
        {
          "note": 80,
          "start": 92.141442,
          "duration": 0.080026,
          "velocity": 0.629921,
          "start_tick": 139318,
          "duration_ticks": 121,
          "channel": 4
        },
        {
          "note": 84,
          "start": 92.221469,
          "duration": 0.080688,
          "velocity": 0.629921,
          "start_tick": 139439,
          "duration_ticks": 122,
          "channel": 4
        },
        {
          "note": 87,
          "start": 92.302156,
          "duration": 0.080026,
          "velocity": 0.629921,
          "start_tick": 139561,
          "duration_ticks": 121,
          "channel": 4
        },
        {
          "note": 80,
          "start": 92.382183,
          "duration": 0.080688,
          "velocity": 0.629921,
          "start_tick": 139682,
          "duration_ticks": 122,
          "channel": 4
        },
        {
          "note": 84,
          "start": 92.46287,
          "duration": 0.080026,
          "velocity": 0.629921,
          "start_tick": 139804,
          "duration_ticks": 121,
          "channel": 4
        },
        {
          "note": 87,
          "start": 92.542897,
          "duration": 0.080688,
          "velocity": 0.629921,
          "start_tick": 139925,
          "duration_ticks": 122,
          "channel": 4
        },
        {
          "note": 92,
          "start": 92.623585,
          "duration": 0.080026,
          "velocity": 0.629921,
          "start_tick": 140047,
          "duration_ticks": 121,
          "channel": 4
        },
        {
          "note": 87,
          "start": 92.703611,
          "duration": 0.080688,
          "velocity": 0.629921,
          "start_tick": 140168,
          "duration_ticks": 122,
          "channel": 4
        },
        {
          "note": 84,
          "start": 92.784299,
          "duration": 0.080026,
          "velocity": 0.629921,
          "start_tick": 140290,
          "duration_ticks": 121,
          "channel": 4
        },
        {
          "note": 80,
          "start": 92.864325,
          "duration": 0.080688,
          "velocity": 0.629921,
          "start_tick": 140411,
          "duration_ticks": 122,
          "channel": 4
        },
        {
          "note": 75,
          "start": 92.945013,
          "duration": 0.080026,
          "velocity": 0.629921,
          "start_tick": 140533,
          "duration_ticks": 121,
          "channel": 4
        },
        {
          "note": 85,
          "start": 93.025039,
          "duration": 0.080688,
          "velocity": 0.629921,
          "start_tick": 140654,
          "duration_ticks": 122,
          "channel": 4
        },
        {
          "note": 80,
          "start": 93.105727,
          "duration": 0.080026,
          "velocity": 0.629921,
          "start_tick": 140776,
          "duration_ticks": 121,
          "channel": 4
        },
        {
          "note": 75,
          "start": 93.185753,
          "duration": 0.080688,
          "velocity": 0.629921,
          "start_tick": 140897,
          "duration_ticks": 122,
          "channel": 4
        },
        {
          "note": 72,
          "start": 93.266441,
          "duration": 0.080026,
          "velocity": 0.629921,
          "start_tick": 141019,
          "duration_ticks": 121,
          "channel": 4
        },
        {
          "note": 87,
          "start": 93.346468,
          "duration": 0.080688,
          "velocity": 0.629921,
          "start_tick": 141140,
          "duration_ticks": 122,
          "channel": 4
        },
        {
          "note": 85,
          "start": 93.427155,
          "duration": 0.080026,
          "velocity": 0.629921,
          "start_tick": 141262,
          "duration_ticks": 121,
          "channel": 4
        },
        {
          "note": 80,
          "start": 93.507182,
          "duration": 0.080688,
          "velocity": 0.629921,
          "start_tick": 141383,
          "duration_ticks": 122,
          "channel": 4
        },
        {
          "note": 75,
          "start": 93.587869,
          "duration": 0.080026,
          "velocity": 0.629921,
          "start_tick": 141505,
          "duration_ticks": 121,
          "channel": 4
        },
        {
          "note": 80,
          "start": 93.667896,
          "duration": 0.080688,
          "velocity": 0.629921,
          "start_tick": 141626,
          "duration_ticks": 122,
          "channel": 4
        },
        {
          "note": 75,
          "start": 93.748583,
          "duration": 0.080026,
          "velocity": 0.629921,
          "start_tick": 141748,
          "duration_ticks": 121,
          "channel": 4
        },
        {
          "note": 72,
          "start": 93.82861,
          "duration": 0.080688,
          "velocity": 0.629921,
          "start_tick": 141869,
          "duration_ticks": 122,
          "channel": 4
        },
        {
          "note": 68,
          "start": 93.909298,
          "duration": 0.080026,
          "velocity": 0.629921,
          "start_tick": 141991,
          "duration_ticks": 121,
          "channel": 4
        },
        {
          "note": 63,
          "start": 93.989324,
          "duration": 0.080688,
          "velocity": 0.629921,
          "start_tick": 142112,
          "duration_ticks": 122,
          "channel": 4
        },
        {
          "note": 67,
          "start": 94.070012,
          "duration": 0.080026,
          "velocity": 0.629921,
          "start_tick": 142234,
          "duration_ticks": 121,
          "channel": 4
        },
        {
          "note": 70,
          "start": 94.150038,
          "duration": 0.080688,
          "velocity": 0.629921,
          "start_tick": 142355,
          "duration_ticks": 122,
          "channel": 4
        },
        {
          "note": 75,
          "start": 94.230726,
          "duration": 0.080026,
          "velocity": 0.629921,
          "start_tick": 142477,
          "duration_ticks": 121,
          "channel": 4
        },
        {
          "note": 67,
          "start": 94.310752,
          "duration": 0.080688,
          "velocity": 0.629921,
          "start_tick": 142598,
          "duration_ticks": 122,
          "channel": 4
        },
        {
          "note": 70,
          "start": 94.39144,
          "duration": 0.080026,
          "velocity": 0.629921,
          "start_tick": 142720,
          "duration_ticks": 121,
          "channel": 4
        },
        {
          "note": 75,
          "start": 94.471466,
          "duration": 0.080688,
          "velocity": 0.629921,
          "start_tick": 142841,
          "duration_ticks": 122,
          "channel": 4
        },
        {
          "note": 79,
          "start": 94.552154,
          "duration": 0.080026,
          "velocity": 0.629921,
          "start_tick": 142963,
          "duration_ticks": 121,
          "channel": 4
        },
        {
          "note": 70,
          "start": 94.632181,
          "duration": 0.080688,
          "velocity": 0.629921,
          "start_tick": 143084,
          "duration_ticks": 122,
          "channel": 4
        },
        {
          "note": 75,
          "start": 94.712868,
          "duration": 0.080026,
          "velocity": 0.629921,
          "start_tick": 143206,
          "duration_ticks": 121,
          "channel": 4
        },
        {
          "note": 79,
          "start": 94.792895,
          "duration": 0.080688,
          "velocity": 0.629921,
          "start_tick": 143327,
          "duration_ticks": 122,
          "channel": 4
        },
        {
          "note": 82,
          "start": 94.873582,
          "duration": 0.080026,
          "velocity": 0.629921,
          "start_tick": 143449,
          "duration_ticks": 121,
          "channel": 4
        },
        {
          "note": 75,
          "start": 94.953609,
          "duration": 0.080688,
          "velocity": 0.629921,
          "start_tick": 143570,
          "duration_ticks": 122,
          "channel": 4
        },
        {
          "note": 79,
          "start": 95.034296,
          "duration": 0.078704,
          "velocity": 0.629921,
          "start_tick": 143692,
          "duration_ticks": 119,
          "channel": 4
        },
        {
          "note": 82,
          "start": 95.113,
          "duration": 0.078704,
          "velocity": 0.629921,
          "start_tick": 143811,
          "duration_ticks": 119,
          "channel": 4
        },
        {
          "note": 87,
          "start": 95.191704,
          "duration": 0.079365,
          "velocity": 0.629921,
          "start_tick": 143930,
          "duration_ticks": 120,
          "channel": 4
        },
        {
          "note": 82,
          "start": 95.271069,
          "duration": 0.078704,
          "velocity": 0.629921,
          "start_tick": 144050,
          "duration_ticks": 119,
          "channel": 4
        },
        {
          "note": 79,
          "start": 95.349772,
          "duration": 0.078704,
          "velocity": 0.629921,
          "start_tick": 144169,
          "duration_ticks": 119,
          "channel": 4
        },
        {
          "note": 75,
          "start": 95.428476,
          "duration": 0.079365,
          "velocity": 0.629921,
          "start_tick": 144288,
          "duration_ticks": 120,
          "channel": 4
        },
        {
          "note": 70,
          "start": 95.507841,
          "duration": 0.078704,
          "velocity": 0.629921,
          "start_tick": 144408,
          "duration_ticks": 119,
          "channel": 4
        },
        {
          "note": 80,
          "start": 95.586545,
          "duration": 0.078704,
          "velocity": 0.629921,
          "start_tick": 144527,
          "duration_ticks": 119,
          "channel": 4
        },
        {
          "note": 75,
          "start": 95.665248,
          "duration": 0.078704,
          "velocity": 0.629921,
          "start_tick": 144646,
          "duration_ticks": 119,
          "channel": 4
        },
        {
          "note": 70,
          "start": 95.743952,
          "duration": 0.079365,
          "velocity": 0.629921,
          "start_tick": 144765,
          "duration_ticks": 120,
          "channel": 4
        },
        {
          "note": 67,
          "start": 95.823317,
          "duration": 0.078704,
          "velocity": 0.629921,
          "start_tick": 144885,
          "duration_ticks": 119,
          "channel": 4
        },
        {
          "note": 82,
          "start": 95.902021,
          "duration": 0.078704,
          "velocity": 0.629921,
          "start_tick": 145004,
          "duration_ticks": 119,
          "channel": 4
        },
        {
          "note": 80,
          "start": 95.980724,
          "duration": 0.079365,
          "velocity": 0.629921,
          "start_tick": 145123,
          "duration_ticks": 120,
          "channel": 4
        },
        {
          "note": 75,
          "start": 96.060089,
          "duration": 0.078704,
          "velocity": 0.629921,
          "start_tick": 145243,
          "duration_ticks": 119,
          "channel": 4
        },
        {
          "note": 70,
          "start": 96.138793,
          "duration": 0.078704,
          "velocity": 0.629921,
          "start_tick": 145362,
          "duration_ticks": 119,
          "channel": 4
        },
        {
          "note": 75,
          "start": 96.217496,
          "duration": 0.079365,
          "velocity": 0.629921,
          "start_tick": 145481,
          "duration_ticks": 120,
          "channel": 4
        },
        {
          "note": 70,
          "start": 96.296861,
          "duration": 0.078704,
          "velocity": 0.629921,
          "start_tick": 145601,
          "duration_ticks": 119,
          "channel": 4
        },
        {
          "note": 67,
          "start": 96.375565,
          "duration": 0.078704,
          "velocity": 0.629921,
          "start_tick": 145720,
          "duration_ticks": 119,
          "channel": 4
        },
        {
          "note": 63,
          "start": 96.454269,
          "duration": 0.079365,
          "velocity": 0.629921,
          "start_tick": 145839,
          "duration_ticks": 120,
          "channel": 4
        },
        {
          "note": 67,
          "start": 96.533634,
          "duration": 0.078704,
          "velocity": 0.629921,
          "start_tick": 145959,
          "duration_ticks": 119,
          "channel": 4
        },
        {
          "note": 71,
          "start": 96.612337,
          "duration": 0.078704,
          "velocity": 0.629921,
          "start_tick": 146078,
          "duration_ticks": 119,
          "channel": 4
        },
        {
          "note": 74,
          "start": 96.691041,
          "duration": 0.078704,
          "velocity": 0.629921,
          "start_tick": 146197,
          "duration_ticks": 119,
          "channel": 4
        },
        {
          "note": 79,
          "start": 96.769745,
          "duration": 0.079365,
          "velocity": 0.629921,
          "start_tick": 146316,
          "duration_ticks": 120,
          "channel": 4
        },
        {
          "note": 71,
          "start": 96.849109,
          "duration": 0.078704,
          "velocity": 0.629921,
          "start_tick": 146436,
          "duration_ticks": 119,
          "channel": 4
        },
        {
          "note": 74,
          "start": 96.927813,
          "duration": 0.078704,
          "velocity": 0.629921,
          "start_tick": 146555,
          "duration_ticks": 119,
          "channel": 4
        },
        {
          "note": 79,
          "start": 97.006517,
          "duration": 0.079365,
          "velocity": 0.629921,
          "start_tick": 146674,
          "duration_ticks": 120,
          "channel": 4
        },
        {
          "note": 83,
          "start": 97.085882,
          "duration": 0.078704,
          "velocity": 0.629921,
          "start_tick": 146794,
          "duration_ticks": 119,
          "channel": 4
        },
        {
          "note": 74,
          "start": 97.164585,
          "duration": 0.078704,
          "velocity": 0.629921,
          "start_tick": 146913,
          "duration_ticks": 119,
          "channel": 4
        },
        {
          "note": 79,
          "start": 97.243289,
          "duration": 0.079365,
          "velocity": 0.629921,
          "start_tick": 147032,
          "duration_ticks": 120,
          "channel": 4
        },
        {
          "note": 83,
          "start": 97.322654,
          "duration": 0.078704,
          "velocity": 0.629921,
          "start_tick": 147152,
          "duration_ticks": 119,
          "channel": 4
        },
        {
          "note": 86,
          "start": 97.401358,
          "duration": 0.078704,
          "velocity": 0.629921,
          "start_tick": 147271,
          "duration_ticks": 119,
          "channel": 4
        },
        {
          "note": 79,
          "start": 97.480061,
          "duration": 0.079365,
          "velocity": 0.629921,
          "start_tick": 147390,
          "duration_ticks": 120,
          "channel": 4
        },
        {
          "note": 83,
          "start": 97.559426,
          "duration": 0.078704,
          "velocity": 0.629921,
          "start_tick": 147510,
          "duration_ticks": 119,
          "channel": 4
        },
        {
          "note": 86,
          "start": 97.63813,
          "duration": 0.078704,
          "velocity": 0.629921,
          "start_tick": 147629,
          "duration_ticks": 119,
          "channel": 4
        },
        {
          "note": 91,
          "start": 97.716834,
          "duration": 0.078704,
          "velocity": 0.629921,
          "start_tick": 147748,
          "duration_ticks": 119,
          "channel": 4
        },
        {
          "note": 86,
          "start": 97.795537,
          "duration": 0.079365,
          "velocity": 0.629921,
          "start_tick": 147867,
          "duration_ticks": 120,
          "channel": 4
        },
        {
          "note": 83,
          "start": 97.874902,
          "duration": 0.078704,
          "velocity": 0.629921,
          "start_tick": 147987,
          "duration_ticks": 119,
          "channel": 4
        },
        {
          "note": 79,
          "start": 97.953606,
          "duration": 0.078704,
          "velocity": 0.629921,
          "start_tick": 148106,
          "duration_ticks": 119,
          "channel": 4
        },
        {
          "note": 74,
          "start": 98.032309,
          "duration": 0.079365,
          "velocity": 0.629921,
          "start_tick": 148225,
          "duration_ticks": 120,
          "channel": 4
        },
        {
          "note": 84,
          "start": 98.111674,
          "duration": 0.078704,
          "velocity": 0.629921,
          "start_tick": 148345,
          "duration_ticks": 119,
          "channel": 4
        },
        {
          "note": 79,
          "start": 98.190378,
          "duration": 0.078704,
          "velocity": 0.629921,
          "start_tick": 148464,
          "duration_ticks": 119,
          "channel": 4
        },
        {
          "note": 74,
          "start": 98.269082,
          "duration": 0.079365,
          "velocity": 0.629921,
          "start_tick": 148583,
          "duration_ticks": 120,
          "channel": 4
        },
        {
          "note": 71,
          "start": 98.348447,
          "duration": 0.078704,
          "velocity": 0.629921,
          "start_tick": 148703,
          "duration_ticks": 119,
          "channel": 4
        },
        {
          "note": 86,
          "start": 98.42715,
          "duration": 0.078704,
          "velocity": 0.629921,
          "start_tick": 148822,
          "duration_ticks": 119,
          "channel": 4
        },
        {
          "note": 84,
          "start": 98.505854,
          "duration": 0.079365,
          "velocity": 0.629921,
          "start_tick": 148941,
          "duration_ticks": 120,
          "channel": 4
        },
        {
          "note": 79,
          "start": 98.585219,
          "duration": 0.078704,
          "velocity": 0.629921,
          "start_tick": 149061,
          "duration_ticks": 119,
          "channel": 4
        },
        {
          "note": 74,
          "start": 98.663922,
          "duration": 0.078704,
          "velocity": 0.629921,
          "start_tick": 149180,
          "duration_ticks": 119,
          "channel": 4
        },
        {
          "note": 79,
          "start": 98.742626,
          "duration": 0.079365,
          "velocity": 0.629921,
          "start_tick": 149299,
          "duration_ticks": 120,
          "channel": 4
        },
        {
          "note": 74,
          "start": 98.821991,
          "duration": 0.078704,
          "velocity": 0.629921,
          "start_tick": 149419,
          "duration_ticks": 119,
          "channel": 4
        },
        {
          "note": 71,
          "start": 98.900695,
          "duration": 0.078704,
          "velocity": 0.629921,
          "start_tick": 149538,
          "duration_ticks": 119,
          "channel": 4
        },
        {
          "note": 67,
          "start": 98.979398,
          "duration": 0.078704,
          "velocity": 0.629921,
          "start_tick": 149657,
          "duration_ticks": 119,
          "channel": 4
        },
        {
          "note": 65,
          "start": 99.058102,
          "duration": 0.079365,
          "velocity": 0.629921,
          "start_tick": 149776,
          "duration_ticks": 120,
          "channel": 4
        },
        {
          "note": 68,
          "start": 99.137467,
          "duration": 0.078704,
          "velocity": 0.629921,
          "start_tick": 149896,
          "duration_ticks": 119,
          "channel": 4
        },
        {
          "note": 72,
          "start": 99.216171,
          "duration": 0.078704,
          "velocity": 0.629921,
          "start_tick": 150015,
          "duration_ticks": 119,
          "channel": 4
        },
        {
          "note": 77,
          "start": 99.294874,
          "duration": 0.079365,
          "velocity": 0.629921,
          "start_tick": 150134,
          "duration_ticks": 120,
          "channel": 4
        },
        {
          "note": 68,
          "start": 99.374239,
          "duration": 0.078704,
          "velocity": 0.629921,
          "start_tick": 150254,
          "duration_ticks": 119,
          "channel": 4
        },
        {
          "note": 72,
          "start": 99.452943,
          "duration": 0.078704,
          "velocity": 0.629921,
          "start_tick": 150373,
          "duration_ticks": 119,
          "channel": 4
        },
        {
          "note": 77,
          "start": 99.531646,
          "duration": 0.079365,
          "velocity": 0.629921,
          "start_tick": 150492,
          "duration_ticks": 120,
          "channel": 4
        },
        {
          "note": 80,
          "start": 99.611012,
          "duration": 0.078704,
          "velocity": 0.629921,
          "start_tick": 150612,
          "duration_ticks": 119,
          "channel": 4
        },
        {
          "note": 72,
          "start": 99.689715,
          "duration": 0.078704,
          "velocity": 0.629921,
          "start_tick": 150731,
          "duration_ticks": 119,
          "channel": 4
        },
        {
          "note": 77,
          "start": 99.768419,
          "duration": 0.079365,
          "velocity": 0.629921,
          "start_tick": 150850,
          "duration_ticks": 120,
          "channel": 4
        },
        {
          "note": 80,
          "start": 99.847784,
          "duration": 0.078704,
          "velocity": 0.629921,
          "start_tick": 150970,
          "duration_ticks": 119,
          "channel": 4
        },
        {
          "note": 84,
          "start": 99.926487,
          "duration": 0.078704,
          "velocity": 0.629921,
          "start_tick": 151089,
          "duration_ticks": 119,
          "channel": 4
        },
        {
          "note": 77,
          "start": 100.005191,
          "duration": 0.078704,
          "velocity": 0.629921,
          "start_tick": 151208,
          "duration_ticks": 119,
          "channel": 4
        },
        {
          "note": 80,
          "start": 100.083895,
          "duration": 0.079365,
          "velocity": 0.629921,
          "start_tick": 151327,
          "duration_ticks": 120,
          "channel": 4
        },
        {
          "note": 84,
          "start": 100.16326,
          "duration": 0.078704,
          "velocity": 0.629921,
          "start_tick": 151447,
          "duration_ticks": 119,
          "channel": 4
        },
        {
          "note": 89,
          "start": 100.241963,
          "duration": 0.078704,
          "velocity": 0.629921,
          "start_tick": 151566,
          "duration_ticks": 119,
          "channel": 4
        },
        {
          "note": 84,
          "start": 100.320667,
          "duration": 0.079365,
          "velocity": 0.629921,
          "start_tick": 151685,
          "duration_ticks": 120,
          "channel": 4
        },
        {
          "note": 80,
          "start": 100.400032,
          "duration": 0.078704,
          "velocity": 0.629921,
          "start_tick": 151805,
          "duration_ticks": 119,
          "channel": 4
        },
        {
          "note": 77,
          "start": 100.478735,
          "duration": 0.078704,
          "velocity": 0.629921,
          "start_tick": 151924,
          "duration_ticks": 119,
          "channel": 4
        },
        {
          "note": 72,
          "start": 100.557439,
          "duration": 0.079365,
          "velocity": 0.629921,
          "start_tick": 152043,
          "duration_ticks": 120,
          "channel": 4
        },
        {
          "note": 80,
          "start": 100.636804,
          "duration": 0.078704,
          "velocity": 0.629921,
          "start_tick": 152163,
          "duration_ticks": 119,
          "channel": 4
        },
        {
          "note": 77,
          "start": 100.715508,
          "duration": 0.078704,
          "velocity": 0.629921,
          "start_tick": 152282,
          "duration_ticks": 119,
          "channel": 4
        },
        {
          "note": 72,
          "start": 100.794211,
          "duration": 0.079365,
          "velocity": 0.629921,
          "start_tick": 152401,
          "duration_ticks": 120,
          "channel": 4
        },
        {
          "note": 68,
          "start": 100.873576,
          "duration": 0.078704,
          "velocity": 0.629921,
          "start_tick": 152521,
          "duration_ticks": 119,
          "channel": 4
        },
        {
          "note": 84,
          "start": 100.95228,
          "duration": 0.078704,
          "velocity": 0.629921,
          "start_tick": 152640,
          "duration_ticks": 119,
          "channel": 4
        },
        {
          "note": 80,
          "start": 101.030984,
          "duration": 0.078704,
          "velocity": 0.629921,
          "start_tick": 152759,
          "duration_ticks": 119,
          "channel": 4
        },
        {
          "note": 77,
          "start": 101.109687,
          "duration": 0.079365,
          "velocity": 0.629921,
          "start_tick": 152878,
          "duration_ticks": 120,
          "channel": 4
        },
        {
          "note": 72,
          "start": 101.189052,
          "duration": 0.078704,
          "velocity": 0.629921,
          "start_tick": 152998,
          "duration_ticks": 119,
          "channel": 4
        },
        {
          "note": 77,
          "start": 101.267756,
          "duration": 0.078704,
          "velocity": 0.629921,
          "start_tick": 153117,
          "duration_ticks": 119,
          "channel": 4
        },
        {
          "note": 72,
          "start": 101.346459,
          "duration": 0.079365,
          "velocity": 0.629921,
          "start_tick": 153236,
          "duration_ticks": 120,
          "channel": 4
        },
        {
          "note": 68,
          "start": 101.425825,
          "duration": 0.078704,
          "velocity": 0.629921,
          "start_tick": 153356,
          "duration_ticks": 119,
          "channel": 4
        },
        {
          "note": 65,
          "start": 101.504528,
          "duration": 0.078704,
          "velocity": 0.629921,
          "start_tick": 153475,
          "duration_ticks": 119,
          "channel": 4
        },
        {
          "note": 60,
          "start": 170.343084,
          "duration": 0.078704,
          "velocity": 0.629921,
          "start_tick": 257559,
          "duration_ticks": 119,
          "channel": 4
        },
        {
          "note": 63,
          "start": 170.421787,
          "duration": 0.078704,
          "velocity": 0.629921,
          "start_tick": 257678,
          "duration_ticks": 119,
          "channel": 4
        },
        {
          "note": 65,
          "start": 170.500491,
          "duration": 0.078042,
          "velocity": 0.629921,
          "start_tick": 257797,
          "duration_ticks": 118,
          "channel": 4
        },
        {
          "note": 67,
          "start": 170.578533,
          "duration": 0.078704,
          "velocity": 0.629921,
          "start_tick": 257915,
          "duration_ticks": 119,
          "channel": 4
        },
        {
          "note": 63,
          "start": 170.657237,
          "duration": 0.078704,
          "velocity": 0.629921,
          "start_tick": 258034,
          "duration_ticks": 119,
          "channel": 4
        },
        {
          "note": 65,
          "start": 170.73594,
          "duration": 0.078704,
          "velocity": 0.629921,
          "start_tick": 258153,
          "duration_ticks": 119,
          "channel": 4
        },
        {
          "note": 67,
          "start": 170.814644,
          "duration": 0.078704,
          "velocity": 0.629921,
          "start_tick": 258272,
          "duration_ticks": 119,
          "channel": 4
        },
        {
          "note": 72,
          "start": 170.893348,
          "duration": 0.078704,
          "velocity": 0.629921,
          "start_tick": 258391,
          "duration_ticks": 119,
          "channel": 4
        },
        {
          "note": 67,
          "start": 170.972051,
          "duration": 0.078704,
          "velocity": 0.629921,
          "start_tick": 258510,
          "duration_ticks": 119,
          "channel": 4
        },
        {
          "note": 72,
          "start": 171.050755,
          "duration": 0.078704,
          "velocity": 0.629921,
          "start_tick": 258629,
          "duration_ticks": 119,
          "channel": 4
        },
        {
          "note": 75,
          "start": 171.129458,
          "duration": 0.078042,
          "velocity": 0.629921,
          "start_tick": 258748,
          "duration_ticks": 118,
          "channel": 4
        },
        {
          "note": 77,
          "start": 171.207501,
          "duration": 0.078704,
          "velocity": 0.629921,
          "start_tick": 258866,
          "duration_ticks": 119,
          "channel": 4
        },
        {
          "note": 75,
          "start": 171.286204,
          "duration": 0.078704,
          "velocity": 0.629921,
          "start_tick": 258985,
          "duration_ticks": 119,
          "channel": 4
        },
        {
          "note": 77,
          "start": 171.364908,
          "duration": 0.078704,
          "velocity": 0.629921,
          "start_tick": 259104,
          "duration_ticks": 119,
          "channel": 4
        },
        {
          "note": 79,
          "start": 171.443612,
          "duration": 0.078704,
          "velocity": 0.629921,
          "start_tick": 259223,
          "duration_ticks": 119,
          "channel": 4
        },
        {
          "note": 84,
          "start": 171.522315,
          "duration": 0.078704,
          "velocity": 0.629921,
          "start_tick": 259342,
          "duration_ticks": 119,
          "channel": 4
        },
        {
          "note": 79,
          "start": 171.601019,
          "duration": 0.078704,
          "velocity": 0.629921,
          "start_tick": 259461,
          "duration_ticks": 119,
          "channel": 4
        },
        {
          "note": 77,
          "start": 171.679722,
          "duration": 0.078042,
          "velocity": 0.629921,
          "start_tick": 259580,
          "duration_ticks": 118,
          "channel": 4
        },
        {
          "note": 75,
          "start": 171.757765,
          "duration": 0.078704,
          "velocity": 0.629921,
          "start_tick": 259698,
          "duration_ticks": 119,
          "channel": 4
        },
        {
          "note": 79,
          "start": 171.836468,
          "duration": 0.078704,
          "velocity": 0.629921,
          "start_tick": 259817,
          "duration_ticks": 119,
          "channel": 4
        },
        {
          "note": 77,
          "start": 171.915172,
          "duration": 0.078704,
          "velocity": 0.629921,
          "start_tick": 259936,
          "duration_ticks": 119,
          "channel": 4
        },
        {
          "note": 75,
          "start": 171.993876,
          "duration": 0.078704,
          "velocity": 0.629921,
          "start_tick": 260055,
          "duration_ticks": 119,
          "channel": 4
        },
        {
          "note": 72,
          "start": 172.072579,
          "duration": 0.078704,
          "velocity": 0.629921,
          "start_tick": 260174,
          "duration_ticks": 119,
          "channel": 4
        },
        {
          "note": 77,
          "start": 172.151283,
          "duration": 0.078704,
          "velocity": 0.629921,
          "start_tick": 260293,
          "duration_ticks": 119,
          "channel": 4
        },
        {
          "note": 75,
          "start": 172.229986,
          "duration": 0.078042,
          "velocity": 0.629921,
          "start_tick": 260412,
          "duration_ticks": 118,
          "channel": 4
        },
        {
          "note": 72,
          "start": 172.308029,
          "duration": 0.078704,
          "velocity": 0.629921,
          "start_tick": 260530,
          "duration_ticks": 119,
          "channel": 4
        },
        {
          "note": 67,
          "start": 172.386732,
          "duration": 0.078704,
          "velocity": 0.629921,
          "start_tick": 260649,
          "duration_ticks": 119,
          "channel": 4
        },
        {
          "note": 65,
          "start": 172.465436,
          "duration": 0.078704,
          "velocity": 0.629921,
          "start_tick": 260768,
          "duration_ticks": 119,
          "channel": 4
        },
        {
          "note": 72,
          "start": 172.54414,
          "duration": 0.078704,
          "velocity": 0.629921,
          "start_tick": 260887,
          "duration_ticks": 119,
          "channel": 4
        },
        {
          "note": 67,
          "start": 172.622843,
          "duration": 0.078704,
          "velocity": 0.629921,
          "start_tick": 261006,
          "duration_ticks": 119,
          "channel": 4
        },
        {
          "note": 65,
          "start": 172.701547,
          "duration": 0.078704,
          "velocity": 0.629921,
          "start_tick": 261125,
          "duration_ticks": 119,
          "channel": 4
        },
        {
          "note": 60,
          "start": 172.78025,
          "duration": 0.078704,
          "velocity": 0.629921,
          "start_tick": 261244,
          "duration_ticks": 119,
          "channel": 4
        },
        {
          "note": 63,
          "start": 172.858954,
          "duration": 0.078042,
          "velocity": 0.629921,
          "start_tick": 261363,
          "duration_ticks": 118,
          "channel": 4
        },
        {
          "note": 67,
          "start": 172.936996,
          "duration": 0.078704,
          "velocity": 0.629921,
          "start_tick": 261481,
          "duration_ticks": 119,
          "channel": 4
        },
        {
          "note": 70,
          "start": 173.0157,
          "duration": 0.078704,
          "velocity": 0.629921,
          "start_tick": 261600,
          "duration_ticks": 119,
          "channel": 4
        },
        {
          "note": 75,
          "start": 173.094404,
          "duration": 0.078704,
          "velocity": 0.629921,
          "start_tick": 261719,
          "duration_ticks": 119,
          "channel": 4
        },
        {
          "note": 67,
          "start": 173.173107,
          "duration": 0.078704,
          "velocity": 0.629921,
          "start_tick": 261838,
          "duration_ticks": 119,
          "channel": 4
        },
        {
          "note": 70,
          "start": 173.251811,
          "duration": 0.078704,
          "velocity": 0.629921,
          "start_tick": 261957,
          "duration_ticks": 119,
          "channel": 4
        },
        {
          "note": 75,
          "start": 173.330514,
          "duration": 0.078704,
          "velocity": 0.629921,
          "start_tick": 262076,
          "duration_ticks": 119,
          "channel": 4
        },
        {
          "note": 79,
          "start": 173.409218,
          "duration": 0.078042,
          "velocity": 0.629921,
          "start_tick": 262195,
          "duration_ticks": 118,
          "channel": 4
        },
        {
          "note": 70,
          "start": 173.48726,
          "duration": 0.078704,
          "velocity": 0.629921,
          "start_tick": 262313,
          "duration_ticks": 119,
          "channel": 4
        },
        {
          "note": 75,
          "start": 173.565964,
          "duration": 0.078704,
          "velocity": 0.629921,
          "start_tick": 262432,
          "duration_ticks": 119,
          "channel": 4
        },
        {
          "note": 79,
          "start": 173.644668,
          "duration": 0.078704,
          "velocity": 0.629921,
          "start_tick": 262551,
          "duration_ticks": 119,
          "channel": 4
        },
        {
          "note": 82,
          "start": 173.723371,
          "duration": 0.078704,
          "velocity": 0.629921,
          "start_tick": 262670,
          "duration_ticks": 119,
          "channel": 4
        },
        {
          "note": 75,
          "start": 173.802075,
          "duration": 0.078704,
          "velocity": 0.629921,
          "start_tick": 262789,
          "duration_ticks": 119,
          "channel": 4
        },
        {
          "note": 79,
          "start": 173.880778,
          "duration": 0.078704,
          "velocity": 0.629921,
          "start_tick": 262908,
          "duration_ticks": 119,
          "channel": 4
        },
        {
          "note": 82,
          "start": 173.959482,
          "duration": 0.078042,
          "velocity": 0.629921,
          "start_tick": 263027,
          "duration_ticks": 118,
          "channel": 4
        },
        {
          "note": 87,
          "start": 174.037524,
          "duration": 0.078704,
          "velocity": 0.629921,
          "start_tick": 263145,
          "duration_ticks": 119,
          "channel": 4
        },
        {
          "note": 82,
          "start": 174.116228,
          "duration": 0.078704,
          "velocity": 0.629921,
          "start_tick": 263264,
          "duration_ticks": 119,
          "channel": 4
        },
        {
          "note": 79,
          "start": 174.194932,
          "duration": 0.078704,
          "velocity": 0.629921,
          "start_tick": 263383,
          "duration_ticks": 119,
          "channel": 4
        },
        {
          "note": 75,
          "start": 174.273635,
          "duration": 0.078704,
          "velocity": 0.629921,
          "start_tick": 263502,
          "duration_ticks": 119,
          "channel": 4
        },
        {
          "note": 70,
          "start": 174.352339,
          "duration": 0.078704,
          "velocity": 0.629921,
          "start_tick": 263621,
          "duration_ticks": 119,
          "channel": 4
        },
        {
          "note": 80,
          "start": 174.431042,
          "duration": 0.078704,
          "velocity": 0.629921,
          "start_tick": 263740,
          "duration_ticks": 119,
          "channel": 4
        },
        {
          "note": 75,
          "start": 174.509746,
          "duration": 0.078704,
          "velocity": 0.629921,
          "start_tick": 263859,
          "duration_ticks": 119,
          "channel": 4
        },
        {
          "note": 70,
          "start": 174.58845,
          "duration": 0.078042,
          "velocity": 0.629921,
          "start_tick": 263978,
          "duration_ticks": 118,
          "channel": 4
        },
        {
          "note": 67,
          "start": 174.666492,
          "duration": 0.078704,
          "velocity": 0.629921,
          "start_tick": 264096,
          "duration_ticks": 119,
          "channel": 4
        },
        {
          "note": 82,
          "start": 174.745196,
          "duration": 0.078704,
          "velocity": 0.629921,
          "start_tick": 264215,
          "duration_ticks": 119,
          "channel": 4
        },
        {
          "note": 80,
          "start": 174.823899,
          "duration": 0.078704,
          "velocity": 0.629921,
          "start_tick": 264334,
          "duration_ticks": 119,
          "channel": 4
        },
        {
          "note": 75,
          "start": 174.902603,
          "duration": 0.078704,
          "velocity": 0.629921,
          "start_tick": 264453,
          "duration_ticks": 119,
          "channel": 4
        },
        {
          "note": 70,
          "start": 174.981306,
          "duration": 0.078704,
          "velocity": 0.629921,
          "start_tick": 264572,
          "duration_ticks": 119,
          "channel": 4
        },
        {
          "note": 75,
          "start": 175.06001,
          "duration": 0.078704,
          "velocity": 0.629921,
          "start_tick": 264691,
          "duration_ticks": 119,
          "channel": 4
        },
        {
          "note": 70,
          "start": 175.138714,
          "duration": 0.078042,
          "velocity": 0.629921,
          "start_tick": 264810,
          "duration_ticks": 118,
          "channel": 4
        },
        {
          "note": 67,
          "start": 175.216756,
          "duration": 0.078704,
          "velocity": 0.629921,
          "start_tick": 264928,
          "duration_ticks": 119,
          "channel": 4
        },
        {
          "note": 63,
          "start": 175.29546,
          "duration": 0.078704,
          "velocity": 0.629921,
          "start_tick": 265047,
          "duration_ticks": 119,
          "channel": 4
        },
        {
          "note": 67,
          "start": 175.374163,
          "duration": 0.078704,
          "velocity": 0.629921,
          "start_tick": 265166,
          "duration_ticks": 119,
          "channel": 4
        },
        {
          "note": 71,
          "start": 175.452867,
          "duration": 0.078704,
          "velocity": 0.629921,
          "start_tick": 265285,
          "duration_ticks": 119,
          "channel": 4
        },
        {
          "note": 74,
          "start": 175.53157,
          "duration": 0.078704,
          "velocity": 0.629921,
          "start_tick": 265404,
          "duration_ticks": 119,
          "channel": 4
        },
        {
          "note": 79,
          "start": 175.610274,
          "duration": 0.078704,
          "velocity": 0.629921,
          "start_tick": 265523,
          "duration_ticks": 119,
          "channel": 4
        },
        {
          "note": 71,
          "start": 175.688978,
          "duration": 0.078704,
          "velocity": 0.629921,
          "start_tick": 265642,
          "duration_ticks": 119,
          "channel": 4
        },
        {
          "note": 74,
          "start": 175.767681,
          "duration": 0.078042,
          "velocity": 0.629921,
          "start_tick": 265761,
          "duration_ticks": 118,
          "channel": 4
        },
        {
          "note": 79,
          "start": 175.845724,
          "duration": 0.078704,
          "velocity": 0.629921,
          "start_tick": 265879,
          "duration_ticks": 119,
          "channel": 4
        },
        {
          "note": 83,
          "start": 175.924427,
          "duration": 0.078704,
          "velocity": 0.629921,
          "start_tick": 265998,
          "duration_ticks": 119,
          "channel": 4
        },
        {
          "note": 74,
          "start": 176.003131,
          "duration": 0.078704,
          "velocity": 0.629921,
          "start_tick": 266117,
          "duration_ticks": 119,
          "channel": 4
        },
        {
          "note": 79,
          "start": 176.081835,
          "duration": 0.078704,
          "velocity": 0.629921,
          "start_tick": 266236,
          "duration_ticks": 119,
          "channel": 4
        },
        {
          "note": 83,
          "start": 176.160538,
          "duration": 0.078704,
          "velocity": 0.629921,
          "start_tick": 266355,
          "duration_ticks": 119,
          "channel": 4
        },
        {
          "note": 86,
          "start": 176.239242,
          "duration": 0.078704,
          "velocity": 0.629921,
          "start_tick": 266474,
          "duration_ticks": 119,
          "channel": 4
        },
        {
          "note": 79,
          "start": 176.317945,
          "duration": 0.078042,
          "velocity": 0.629921,
          "start_tick": 266593,
          "duration_ticks": 118,
          "channel": 4
        },
        {
          "note": 83,
          "start": 176.395988,
          "duration": 0.078704,
          "velocity": 0.629921,
          "start_tick": 266711,
          "duration_ticks": 119,
          "channel": 4
        },
        {
          "note": 86,
          "start": 176.474691,
          "duration": 0.078704,
          "velocity": 0.629921,
          "start_tick": 266830,
          "duration_ticks": 119,
          "channel": 4
        },
        {
          "note": 91,
          "start": 176.553395,
          "duration": 0.078704,
          "velocity": 0.629921,
          "start_tick": 266949,
          "duration_ticks": 119,
          "channel": 4
        },
        {
          "note": 86,
          "start": 176.632099,
          "duration": 0.078704,
          "velocity": 0.629921,
          "start_tick": 267068,
          "duration_ticks": 119,
          "channel": 4
        },
        {
          "note": 83,
          "start": 176.710802,
          "duration": 0.078704,
          "velocity": 0.629921,
          "start_tick": 267187,
          "duration_ticks": 119,
          "channel": 4
        },
        {
          "note": 79,
          "start": 176.789506,
          "duration": 0.078704,
          "velocity": 0.629921,
          "start_tick": 267306,
          "duration_ticks": 119,
          "channel": 4
        },
        {
          "note": 74,
          "start": 176.868209,
          "duration": 0.078042,
          "velocity": 0.629921,
          "start_tick": 267425,
          "duration_ticks": 118,
          "channel": 4
        },
        {
          "note": 84,
          "start": 176.946252,
          "duration": 0.078704,
          "velocity": 0.629921,
          "start_tick": 267543,
          "duration_ticks": 119,
          "channel": 4
        },
        {
          "note": 79,
          "start": 177.024955,
          "duration": 0.078704,
          "velocity": 0.629921,
          "start_tick": 267662,
          "duration_ticks": 119,
          "channel": 4
        },
        {
          "note": 74,
          "start": 177.103659,
          "duration": 0.078704,
          "velocity": 0.629921,
          "start_tick": 267781,
          "duration_ticks": 119,
          "channel": 4
        },
        {
          "note": 71,
          "start": 177.182363,
          "duration": 0.078704,
          "velocity": 0.629921,
          "start_tick": 267900,
          "duration_ticks": 119,
          "channel": 4
        },
        {
          "note": 86,
          "start": 177.261066,
          "duration": 0.078704,
          "velocity": 0.629921,
          "start_tick": 268019,
          "duration_ticks": 119,
          "channel": 4
        },
        {
          "note": 84,
          "start": 177.33977,
          "duration": 0.078704,
          "velocity": 0.629921,
          "start_tick": 268138,
          "duration_ticks": 119,
          "channel": 4
        },
        {
          "note": 79,
          "start": 177.418473,
          "duration": 0.078704,
          "velocity": 0.629921,
          "start_tick": 268257,
          "duration_ticks": 119,
          "channel": 4
        },
        {
          "note": 74,
          "start": 177.497177,
          "duration": 0.078042,
          "velocity": 0.629921,
          "start_tick": 268376,
          "duration_ticks": 118,
          "channel": 4
        },
        {
          "note": 79,
          "start": 177.575219,
          "duration": 0.078704,
          "velocity": 0.629921,
          "start_tick": 268494,
          "duration_ticks": 119,
          "channel": 4
        },
        {
          "note": 74,
          "start": 177.653923,
          "duration": 0.078704,
          "velocity": 0.629921,
          "start_tick": 268613,
          "duration_ticks": 119,
          "channel": 4
        },
        {
          "note": 71,
          "start": 177.732627,
          "duration": 0.078704,
          "velocity": 0.629921,
          "start_tick": 268732,
          "duration_ticks": 119,
          "channel": 4
        },
        {
          "note": 67,
          "start": 177.81133,
          "duration": 0.078704,
          "velocity": 0.629921,
          "start_tick": 268851,
          "duration_ticks": 119,
          "channel": 4
        },
        {
          "note": 65,
          "start": 177.890034,
          "duration": 0.078704,
          "velocity": 0.629921,
          "start_tick": 268970,
          "duration_ticks": 119,
          "channel": 4
        },
        {
          "note": 68,
          "start": 177.968737,
          "duration": 0.078704,
          "velocity": 0.629921,
          "start_tick": 269089,
          "duration_ticks": 119,
          "channel": 4
        },
        {
          "note": 72,
          "start": 178.047441,
          "duration": 0.078042,
          "velocity": 0.629921,
          "start_tick": 269208,
          "duration_ticks": 118,
          "channel": 4
        },
        {
          "note": 77,
          "start": 178.125483,
          "duration": 0.078704,
          "velocity": 0.629921,
          "start_tick": 269326,
          "duration_ticks": 119,
          "channel": 4
        },
        {
          "note": 68,
          "start": 178.204187,
          "duration": 0.078704,
          "velocity": 0.629921,
          "start_tick": 269445,
          "duration_ticks": 119,
          "channel": 4
        },
        {
          "note": 72,
          "start": 178.282891,
          "duration": 0.078704,
          "velocity": 0.629921,
          "start_tick": 269564,
          "duration_ticks": 119,
          "channel": 4
        },
        {
          "note": 77,
          "start": 178.361594,
          "duration": 0.078704,
          "velocity": 0.629921,
          "start_tick": 269683,
          "duration_ticks": 119,
          "channel": 4
        },
        {
          "note": 80,
          "start": 178.440298,
          "duration": 0.078704,
          "velocity": 0.629921,
          "start_tick": 269802,
          "duration_ticks": 119,
          "channel": 4
        },
        {
          "note": 72,
          "start": 178.519001,
          "duration": 0.078704,
          "velocity": 0.629921,
          "start_tick": 269921,
          "duration_ticks": 119,
          "channel": 4
        },
        {
          "note": 77,
          "start": 178.597705,
          "duration": 0.078042,
          "velocity": 0.629921,
          "start_tick": 270040,
          "duration_ticks": 118,
          "channel": 4
        },
        {
          "note": 80,
          "start": 178.675747,
          "duration": 0.078704,
          "velocity": 0.629921,
          "start_tick": 270158,
          "duration_ticks": 119,
          "channel": 4
        },
        {
          "note": 84,
          "start": 178.754451,
          "duration": 0.078704,
          "velocity": 0.629921,
          "start_tick": 270277,
          "duration_ticks": 119,
          "channel": 4
        },
        {
          "note": 77,
          "start": 178.833155,
          "duration": 0.078704,
          "velocity": 0.629921,
          "start_tick": 270396,
          "duration_ticks": 119,
          "channel": 4
        },
        {
          "note": 80,
          "start": 178.911858,
          "duration": 0.078704,
          "velocity": 0.629921,
          "start_tick": 270515,
          "duration_ticks": 119,
          "channel": 4
        },
        {
          "note": 84,
          "start": 178.990562,
          "duration": 0.078704,
          "velocity": 0.629921,
          "start_tick": 270634,
          "duration_ticks": 119,
          "channel": 4
        },
        {
          "note": 89,
          "start": 179.069265,
          "duration": 0.078704,
          "velocity": 0.629921,
          "start_tick": 270753,
          "duration_ticks": 119,
          "channel": 4
        },
        {
          "note": 84,
          "start": 179.147969,
          "duration": 0.078704,
          "velocity": 0.629921,
          "start_tick": 270872,
          "duration_ticks": 119,
          "channel": 4
        },
        {
          "note": 80,
          "start": 179.226673,
          "duration": 0.078042,
          "velocity": 0.629921,
          "start_tick": 270991,
          "duration_ticks": 118,
          "channel": 4
        },
        {
          "note": 77,
          "start": 179.304715,
          "duration": 0.078704,
          "velocity": 0.629921,
          "start_tick": 271109,
          "duration_ticks": 119,
          "channel": 4
        },
        {
          "note": 72,
          "start": 179.383419,
          "duration": 0.078704,
          "velocity": 0.629921,
          "start_tick": 271228,
          "duration_ticks": 119,
          "channel": 4
        },
        {
          "note": 80,
          "start": 179.462122,
          "duration": 0.078704,
          "velocity": 0.629921,
          "start_tick": 271347,
          "duration_ticks": 119,
          "channel": 4
        },
        {
          "note": 77,
          "start": 179.540826,
          "duration": 0.078704,
          "velocity": 0.629921,
          "start_tick": 271466,
          "duration_ticks": 119,
          "channel": 4
        },
        {
          "note": 72,
          "start": 179.619529,
          "duration": 0.078704,
          "velocity": 0.629921,
          "start_tick": 271585,
          "duration_ticks": 119,
          "channel": 4
        },
        {
          "note": 68,
          "start": 179.698233,
          "duration": 0.078704,
          "velocity": 0.629921,
          "start_tick": 271704,
          "duration_ticks": 119,
          "channel": 4
        },
        {
          "note": 84,
          "start": 179.776937,
          "duration": 0.078042,
          "velocity": 0.629921,
          "start_tick": 271823,
          "duration_ticks": 118,
          "channel": 4
        },
        {
          "note": 80,
          "start": 179.854979,
          "duration": 0.078704,
          "velocity": 0.629921,
          "start_tick": 271941,
          "duration_ticks": 119,
          "channel": 4
        },
        {
          "note": 77,
          "start": 179.933683,
          "duration": 0.078704,
          "velocity": 0.629921,
          "start_tick": 272060,
          "duration_ticks": 119,
          "channel": 4
        },
        {
          "note": 72,
          "start": 180.012386,
          "duration": 0.078704,
          "velocity": 0.629921,
          "start_tick": 272179,
          "duration_ticks": 119,
          "channel": 4
        },
        {
          "note": 77,
          "start": 180.09109,
          "duration": 0.078704,
          "velocity": 0.629921,
          "start_tick": 272298,
          "duration_ticks": 119,
          "channel": 4
        },
        {
          "note": 72,
          "start": 180.169793,
          "duration": 0.078704,
          "velocity": 0.629921,
          "start_tick": 272417,
          "duration_ticks": 119,
          "channel": 4
        },
        {
          "note": 68,
          "start": 180.248497,
          "duration": 0.078704,
          "velocity": 0.629921,
          "start_tick": 272536,
          "duration_ticks": 119,
          "channel": 4
        },
        {
          "note": 65,
          "start": 180.327201,
          "duration": 0.078704,
          "velocity": 0.629921,
          "start_tick": 272655,
          "duration_ticks": 119,
          "channel": 4
        },
        {
          "note": 68,
          "start": 180.405904,
          "duration": 0.078042,
          "velocity": 0.629921,
          "start_tick": 272774,
          "duration_ticks": 118,
          "channel": 4
        },
        {
          "note": 72,
          "start": 180.483947,
          "duration": 0.078704,
          "velocity": 0.629921,
          "start_tick": 272892,
          "duration_ticks": 119,
          "channel": 4
        },
        {
          "note": 75,
          "start": 180.56265,
          "duration": 0.078704,
          "velocity": 0.629921,
          "start_tick": 273011,
          "duration_ticks": 119,
          "channel": 4
        },
        {
          "note": 80,
          "start": 180.641354,
          "duration": 0.078704,
          "velocity": 0.629921,
          "start_tick": 273130,
          "duration_ticks": 119,
          "channel": 4
        },
        {
          "note": 72,
          "start": 180.720057,
          "duration": 0.078704,
          "velocity": 0.629921,
          "start_tick": 273249,
          "duration_ticks": 119,
          "channel": 4
        },
        {
          "note": 75,
          "start": 180.798761,
          "duration": 0.078704,
          "velocity": 0.629921,
          "start_tick": 273368,
          "duration_ticks": 119,
          "channel": 4
        },
        {
          "note": 80,
          "start": 180.877465,
          "duration": 0.078704,
          "velocity": 0.629921,
          "start_tick": 273487,
          "duration_ticks": 119,
          "channel": 4
        },
        {
          "note": 84,
          "start": 180.956168,
          "duration": 0.078042,
          "velocity": 0.629921,
          "start_tick": 273606,
          "duration_ticks": 118,
          "channel": 4
        },
        {
          "note": 75,
          "start": 181.034211,
          "duration": 0.078704,
          "velocity": 0.629921,
          "start_tick": 273724,
          "duration_ticks": 119,
          "channel": 4
        },
        {
          "note": 80,
          "start": 181.112914,
          "duration": 0.078704,
          "velocity": 0.629921,
          "start_tick": 273843,
          "duration_ticks": 119,
          "channel": 4
        },
        {
          "note": 84,
          "start": 181.191618,
          "duration": 0.078704,
          "velocity": 0.629921,
          "start_tick": 273962,
          "duration_ticks": 119,
          "channel": 4
        },
        {
          "note": 87,
          "start": 181.270321,
          "duration": 0.078704,
          "velocity": 0.629921,
          "start_tick": 274081,
          "duration_ticks": 119,
          "channel": 4
        },
        {
          "note": 80,
          "start": 181.349025,
          "duration": 0.078704,
          "velocity": 0.629921,
          "start_tick": 274200,
          "duration_ticks": 119,
          "channel": 4
        },
        {
          "note": 84,
          "start": 181.427729,
          "duration": 0.078704,
          "velocity": 0.629921,
          "start_tick": 274319,
          "duration_ticks": 119,
          "channel": 4
        },
        {
          "note": 87,
          "start": 181.506432,
          "duration": 0.078042,
          "velocity": 0.629921,
          "start_tick": 274438,
          "duration_ticks": 118,
          "channel": 4
        },
        {
          "note": 92,
          "start": 181.584474,
          "duration": 0.078704,
          "velocity": 0.629921,
          "start_tick": 274556,
          "duration_ticks": 119,
          "channel": 4
        },
        {
          "note": 87,
          "start": 181.663178,
          "duration": 0.078704,
          "velocity": 0.629921,
          "start_tick": 274675,
          "duration_ticks": 119,
          "channel": 4
        },
        {
          "note": 84,
          "start": 181.741882,
          "duration": 0.078704,
          "velocity": 0.629921,
          "start_tick": 274794,
          "duration_ticks": 119,
          "channel": 4
        },
        {
          "note": 80,
          "start": 181.820585,
          "duration": 0.078704,
          "velocity": 0.629921,
          "start_tick": 274913,
          "duration_ticks": 119,
          "channel": 4
        },
        {
          "note": 75,
          "start": 181.899289,
          "duration": 0.078704,
          "velocity": 0.629921,
          "start_tick": 275032,
          "duration_ticks": 119,
          "channel": 4
        },
        {
          "note": 85,
          "start": 181.977993,
          "duration": 0.078704,
          "velocity": 0.629921,
          "start_tick": 275151,
          "duration_ticks": 119,
          "channel": 4
        },
        {
          "note": 80,
          "start": 182.056696,
          "duration": 0.078704,
          "velocity": 0.629921,
          "start_tick": 275270,
          "duration_ticks": 119,
          "channel": 4
        },
        {
          "note": 75,
          "start": 182.1354,
          "duration": 0.078042,
          "velocity": 0.629921,
          "start_tick": 275389,
          "duration_ticks": 118,
          "channel": 4
        },
        {
          "note": 72,
          "start": 182.213442,
          "duration": 0.078704,
          "velocity": 0.629921,
          "start_tick": 275507,
          "duration_ticks": 119,
          "channel": 4
        },
        {
          "note": 87,
          "start": 182.292146,
          "duration": 0.078704,
          "velocity": 0.629921,
          "start_tick": 275626,
          "duration_ticks": 119,
          "channel": 4
        },
        {
          "note": 85,
          "start": 182.370849,
          "duration": 0.078704,
          "velocity": 0.629921,
          "start_tick": 275745,
          "duration_ticks": 119,
          "channel": 4
        },
        {
          "note": 80,
          "start": 182.449553,
          "duration": 0.078704,
          "velocity": 0.629921,
          "start_tick": 275864,
          "duration_ticks": 119,
          "channel": 4
        },
        {
          "note": 75,
          "start": 182.528257,
          "duration": 0.078704,
          "velocity": 0.629921,
          "start_tick": 275983,
          "duration_ticks": 119,
          "channel": 4
        },
        {
          "note": 80,
          "start": 182.60696,
          "duration": 0.078704,
          "velocity": 0.629921,
          "start_tick": 276102,
          "duration_ticks": 119,
          "channel": 4
        },
        {
          "note": 75,
          "start": 182.685664,
          "duration": 0.078042,
          "velocity": 0.629921,
          "start_tick": 276221,
          "duration_ticks": 118,
          "channel": 4
        },
        {
          "note": 72,
          "start": 182.763706,
          "duration": 0.078704,
          "velocity": 0.629921,
          "start_tick": 276339,
          "duration_ticks": 119,
          "channel": 4
        },
        {
          "note": 68,
          "start": 182.84241,
          "duration": 0.078704,
          "velocity": 0.629921,
          "start_tick": 276458,
          "duration_ticks": 119,
          "channel": 4
        },
        {
          "note": 63,
          "start": 182.921113,
          "duration": 0.078704,
          "velocity": 0.629921,
          "start_tick": 276577,
          "duration_ticks": 119,
          "channel": 4
        },
        {
          "note": 67,
          "start": 182.999817,
          "duration": 0.078704,
          "velocity": 0.629921,
          "start_tick": 276696,
          "duration_ticks": 119,
          "channel": 4
        },
        {
          "note": 70,
          "start": 183.078521,
          "duration": 0.078704,
          "velocity": 0.629921,
          "start_tick": 276815,
          "duration_ticks": 119,
          "channel": 4
        },
        {
          "note": 75,
          "start": 183.157224,
          "duration": 0.078704,
          "velocity": 0.629921,
          "start_tick": 276934,
          "duration_ticks": 119,
          "channel": 4
        },
        {
          "note": 67,
          "start": 183.235928,
          "duration": 0.078704,
          "velocity": 0.629921,
          "start_tick": 277053,
          "duration_ticks": 119,
          "channel": 4
        },
        {
          "note": 70,
          "start": 183.314631,
          "duration": 0.078042,
          "velocity": 0.629921,
          "start_tick": 277172,
          "duration_ticks": 118,
          "channel": 4
        },
        {
          "note": 75,
          "start": 183.392674,
          "duration": 0.078704,
          "velocity": 0.629921,
          "start_tick": 277290,
          "duration_ticks": 119,
          "channel": 4
        },
        {
          "note": 79,
          "start": 183.471377,
          "duration": 0.078704,
          "velocity": 0.629921,
          "start_tick": 277409,
          "duration_ticks": 119,
          "channel": 4
        },
        {
          "note": 70,
          "start": 183.550081,
          "duration": 0.078704,
          "velocity": 0.629921,
          "start_tick": 277528,
          "duration_ticks": 119,
          "channel": 4
        },
        {
          "note": 75,
          "start": 183.628785,
          "duration": 0.078704,
          "velocity": 0.629921,
          "start_tick": 277647,
          "duration_ticks": 119,
          "channel": 4
        },
        {
          "note": 79,
          "start": 183.707488,
          "duration": 0.078704,
          "velocity": 0.629921,
          "start_tick": 277766,
          "duration_ticks": 119,
          "channel": 4
        },
        {
          "note": 82,
          "start": 183.786192,
          "duration": 0.078704,
          "velocity": 0.629921,
          "start_tick": 277885,
          "duration_ticks": 119,
          "channel": 4
        },
        {
          "note": 75,
          "start": 183.864895,
          "duration": 0.078042,
          "velocity": 0.629921,
          "start_tick": 278004,
          "duration_ticks": 118,
          "channel": 4
        },
        {
          "note": 79,
          "start": 183.942938,
          "duration": 0.078704,
          "velocity": 0.629921,
          "start_tick": 278122,
          "duration_ticks": 119,
          "channel": 4
        },
        {
          "note": 82,
          "start": 184.021641,
          "duration": 0.078704,
          "velocity": 0.629921,
          "start_tick": 278241,
          "duration_ticks": 119,
          "channel": 4
        },
        {
          "note": 87,
          "start": 184.100345,
          "duration": 0.078704,
          "velocity": 0.629921,
          "start_tick": 278360,
          "duration_ticks": 119,
          "channel": 4
        },
        {
          "note": 82,
          "start": 184.179049,
          "duration": 0.078704,
          "velocity": 0.629921,
          "start_tick": 278479,
          "duration_ticks": 119,
          "channel": 4
        },
        {
          "note": 79,
          "start": 184.257752,
          "duration": 0.078704,
          "velocity": 0.629921,
          "start_tick": 278598,
          "duration_ticks": 119,
          "channel": 4
        },
        {
          "note": 75,
          "start": 184.336456,
          "duration": 0.078704,
          "velocity": 0.629921,
          "start_tick": 278717,
          "duration_ticks": 119,
          "channel": 4
        },
        {
          "note": 70,
          "start": 184.415159,
          "duration": 0.078042,
          "velocity": 0.629921,
          "start_tick": 278836,
          "duration_ticks": 118,
          "channel": 4
        },
        {
          "note": 80,
          "start": 184.493202,
          "duration": 0.078704,
          "velocity": 0.629921,
          "start_tick": 278954,
          "duration_ticks": 119,
          "channel": 4
        },
        {
          "note": 75,
          "start": 184.571905,
          "duration": 0.078704,
          "velocity": 0.629921,
          "start_tick": 279073,
          "duration_ticks": 119,
          "channel": 4
        },
        {
          "note": 70,
          "start": 184.650609,
          "duration": 0.078704,
          "velocity": 0.629921,
          "start_tick": 279192,
          "duration_ticks": 119,
          "channel": 4
        },
        {
          "note": 67,
          "start": 184.729313,
          "duration": 0.078704,
          "velocity": 0.629921,
          "start_tick": 279311,
          "duration_ticks": 119,
          "channel": 4
        },
        {
          "note": 82,
          "start": 184.808016,
          "duration": 0.078704,
          "velocity": 0.629921,
          "start_tick": 279430,
          "duration_ticks": 119,
          "channel": 4
        },
        {
          "note": 80,
          "start": 184.88672,
          "duration": 0.078704,
          "velocity": 0.629921,
          "start_tick": 279549,
          "duration_ticks": 119,
          "channel": 4
        },
        {
          "note": 75,
          "start": 184.965424,
          "duration": 0.078704,
          "velocity": 0.629921,
          "start_tick": 279668,
          "duration_ticks": 119,
          "channel": 4
        },
        {
          "note": 70,
          "start": 185.044127,
          "duration": 0.079365,
          "velocity": 0.629921,
          "start_tick": 279787,
          "duration_ticks": 120,
          "channel": 4
        },
        {
          "note": 75,
          "start": 185.123492,
          "duration": 0.080026,
          "velocity": 0.629921,
          "start_tick": 279907,
          "duration_ticks": 121,
          "channel": 4
        },
        {
          "note": 70,
          "start": 185.203519,
          "duration": 0.079365,
          "velocity": 0.629921,
          "start_tick": 280028,
          "duration_ticks": 120,
          "channel": 4
        },
        {
          "note": 67,
          "start": 185.282883,
          "duration": 0.080026,
          "velocity": 0.629921,
          "start_tick": 280148,
          "duration_ticks": 121,
          "channel": 4
        },
        {
          "note": 63,
          "start": 185.36291,
          "duration": 0.080026,
          "velocity": 0.629921,
          "start_tick": 280269,
          "duration_ticks": 121,
          "channel": 4
        },
        {
          "note": 67,
          "start": 185.442936,
          "duration": 0.079365,
          "velocity": 0.629921,
          "start_tick": 280390,
          "duration_ticks": 120,
          "channel": 4
        },
        {
          "note": 71,
          "start": 185.522301,
          "duration": 0.080026,
          "velocity": 0.629921,
          "start_tick": 280510,
          "duration_ticks": 121,
          "channel": 4
        },
        {
          "note": 74,
          "start": 185.602328,
          "duration": 0.080026,
          "velocity": 0.629921,
          "start_tick": 280631,
          "duration_ticks": 121,
          "channel": 4
        },
        {
          "note": 79,
          "start": 185.682354,
          "duration": 0.079365,
          "velocity": 0.629921,
          "start_tick": 280752,
          "duration_ticks": 120,
          "channel": 4
        },
        {
          "note": 71,
          "start": 185.761719,
          "duration": 0.080026,
          "velocity": 0.629921,
          "start_tick": 280872,
          "duration_ticks": 121,
          "channel": 4
        },
        {
          "note": 74,
          "start": 185.841745,
          "duration": 0.080026,
          "velocity": 0.629921,
          "start_tick": 280993,
          "duration_ticks": 121,
          "channel": 4
        },
        {
          "note": 79,
          "start": 185.921772,
          "duration": 0.079365,
          "velocity": 0.629921,
          "start_tick": 281114,
          "duration_ticks": 120,
          "channel": 4
        },
        {
          "note": 83,
          "start": 186.001137,
          "duration": 0.080026,
          "velocity": 0.629921,
          "start_tick": 281234,
          "duration_ticks": 121,
          "channel": 4
        },
        {
          "note": 74,
          "start": 186.081163,
          "duration": 0.080026,
          "velocity": 0.629921,
          "start_tick": 281355,
          "duration_ticks": 121,
          "channel": 4
        },
        {
          "note": 79,
          "start": 186.16119,
          "duration": 0.079365,
          "velocity": 0.629921,
          "start_tick": 281476,
          "duration_ticks": 120,
          "channel": 4
        },
        {
          "note": 83,
          "start": 186.240555,
          "duration": 0.080026,
          "velocity": 0.629921,
          "start_tick": 281596,
          "duration_ticks": 121,
          "channel": 4
        },
        {
          "note": 86,
          "start": 186.320581,
          "duration": 0.079365,
          "velocity": 0.629921,
          "start_tick": 281717,
          "duration_ticks": 120,
          "channel": 4
        },
        {
          "note": 79,
          "start": 186.399946,
          "duration": 0.080026,
          "velocity": 0.629921,
          "start_tick": 281837,
          "duration_ticks": 121,
          "channel": 4
        },
        {
          "note": 83,
          "start": 186.479972,
          "duration": 0.080026,
          "velocity": 0.629921,
          "start_tick": 281958,
          "duration_ticks": 121,
          "channel": 4
        },
        {
          "note": 86,
          "start": 186.559999,
          "duration": 0.079365,
          "velocity": 0.629921,
          "start_tick": 282079,
          "duration_ticks": 120,
          "channel": 4
        },
        {
          "note": 91,
          "start": 186.639364,
          "duration": 0.080026,
          "velocity": 0.629921,
          "start_tick": 282199,
          "duration_ticks": 121,
          "channel": 4
        },
        {
          "note": 86,
          "start": 186.71939,
          "duration": 0.080026,
          "velocity": 0.629921,
          "start_tick": 282320,
          "duration_ticks": 121,
          "channel": 4
        },
        {
          "note": 83,
          "start": 186.799416,
          "duration": 0.079365,
          "velocity": 0.629921,
          "start_tick": 282441,
          "duration_ticks": 120,
          "channel": 4
        },
        {
          "note": 79,
          "start": 186.878781,
          "duration": 0.080026,
          "velocity": 0.629921,
          "start_tick": 282561,
          "duration_ticks": 121,
          "channel": 4
        },
        {
          "note": 74,
          "start": 186.958808,
          "duration": 0.080026,
          "velocity": 0.629921,
          "start_tick": 282682,
          "duration_ticks": 121,
          "channel": 4
        },
        {
          "note": 84,
          "start": 187.038834,
          "duration": 0.079365,
          "velocity": 0.629921,
          "start_tick": 282803,
          "duration_ticks": 120,
          "channel": 4
        },
        {
          "note": 79,
          "start": 187.118199,
          "duration": 0.080026,
          "velocity": 0.629921,
          "start_tick": 282923,
          "duration_ticks": 121,
          "channel": 4
        },
        {
          "note": 74,
          "start": 187.198226,
          "duration": 0.079365,
          "velocity": 0.629921,
          "start_tick": 283044,
          "duration_ticks": 120,
          "channel": 4
        },
        {
          "note": 71,
          "start": 187.277591,
          "duration": 0.080026,
          "velocity": 0.629921,
          "start_tick": 283164,
          "duration_ticks": 121,
          "channel": 4
        },
        {
          "note": 86,
          "start": 187.357617,
          "duration": 0.080026,
          "velocity": 0.629921,
          "start_tick": 283285,
          "duration_ticks": 121,
          "channel": 4
        },
        {
          "note": 84,
          "start": 187.437643,
          "duration": 0.079365,
          "velocity": 0.629921,
          "start_tick": 283406,
          "duration_ticks": 120,
          "channel": 4
        },
        {
          "note": 79,
          "start": 187.517008,
          "duration": 0.080026,
          "velocity": 0.629921,
          "start_tick": 283526,
          "duration_ticks": 121,
          "channel": 4
        },
        {
          "note": 74,
          "start": 187.597035,
          "duration": 0.080026,
          "velocity": 0.629921,
          "start_tick": 283647,
          "duration_ticks": 121,
          "channel": 4
        },
        {
          "note": 79,
          "start": 187.677061,
          "duration": 0.079365,
          "velocity": 0.629921,
          "start_tick": 283768,
          "duration_ticks": 120,
          "channel": 4
        },
        {
          "note": 74,
          "start": 187.756426,
          "duration": 0.080026,
          "velocity": 0.629921,
          "start_tick": 283888,
          "duration_ticks": 121,
          "channel": 4
        },
        {
          "note": 71,
          "start": 187.836452,
          "duration": 0.080026,
          "velocity": 0.629921,
          "start_tick": 284009,
          "duration_ticks": 121,
          "channel": 4
        },
        {
          "note": 67,
          "start": 187.916479,
          "duration": 0.079365,
          "velocity": 0.629921,
          "start_tick": 284130,
          "duration_ticks": 120,
          "channel": 4
        },
        {
          "note": 65,
          "start": 187.995844,
          "duration": 0.080026,
          "velocity": 0.629921,
          "start_tick": 284250,
          "duration_ticks": 121,
          "channel": 4
        },
        {
          "note": 68,
          "start": 188.07587,
          "duration": 0.080026,
          "velocity": 0.629921,
          "start_tick": 284371,
          "duration_ticks": 121,
          "channel": 4
        },
        {
          "note": 72,
          "start": 188.155897,
          "duration": 0.079365,
          "velocity": 0.629921,
          "start_tick": 284492,
          "duration_ticks": 120,
          "channel": 4
        },
        {
          "note": 77,
          "start": 188.235262,
          "duration": 0.080026,
          "velocity": 0.629921,
          "start_tick": 284612,
          "duration_ticks": 121,
          "channel": 4
        },
        {
          "note": 68,
          "start": 188.315288,
          "duration": 0.079365,
          "velocity": 0.629921,
          "start_tick": 284733,
          "duration_ticks": 120,
          "channel": 4
        },
        {
          "note": 72,
          "start": 188.394653,
          "duration": 0.080026,
          "velocity": 0.629921,
          "start_tick": 284853,
          "duration_ticks": 121,
          "channel": 4
        },
        {
          "note": 77,
          "start": 188.474679,
          "duration": 0.080026,
          "velocity": 0.629921,
          "start_tick": 284974,
          "duration_ticks": 121,
          "channel": 4
        },
        {
          "note": 80,
          "start": 188.554706,
          "duration": 0.079365,
          "velocity": 0.629921,
          "start_tick": 285095,
          "duration_ticks": 120,
          "channel": 4
        },
        {
          "note": 72,
          "start": 188.634071,
          "duration": 0.080026,
          "velocity": 0.629921,
          "start_tick": 285215,
          "duration_ticks": 121,
          "channel": 4
        },
        {
          "note": 77,
          "start": 188.714097,
          "duration": 0.080026,
          "velocity": 0.629921,
          "start_tick": 285336,
          "duration_ticks": 121,
          "channel": 4
        },
        {
          "note": 80,
          "start": 188.794123,
          "duration": 0.079365,
          "velocity": 0.629921,
          "start_tick": 285457,
          "duration_ticks": 120,
          "channel": 4
        },
        {
          "note": 84,
          "start": 188.873488,
          "duration": 0.080026,
          "velocity": 0.629921,
          "start_tick": 285577,
          "duration_ticks": 121,
          "channel": 4
        },
        {
          "note": 77,
          "start": 188.953515,
          "duration": 0.080026,
          "velocity": 0.629921,
          "start_tick": 285698,
          "duration_ticks": 121,
          "channel": 4
        },
        {
          "note": 80,
          "start": 189.033541,
          "duration": 0.079365,
          "velocity": 0.629921,
          "start_tick": 285819,
          "duration_ticks": 120,
          "channel": 4
        },
        {
          "note": 84,
          "start": 189.112906,
          "duration": 0.080026,
          "velocity": 0.629921,
          "start_tick": 285939,
          "duration_ticks": 121,
          "channel": 4
        },
        {
          "note": 89,
          "start": 189.192933,
          "duration": 0.080026,
          "velocity": 0.629921,
          "start_tick": 286060,
          "duration_ticks": 121,
          "channel": 4
        },
        {
          "note": 84,
          "start": 189.272959,
          "duration": 0.079365,
          "velocity": 0.629921,
          "start_tick": 286181,
          "duration_ticks": 120,
          "channel": 4
        },
        {
          "note": 80,
          "start": 189.352324,
          "duration": 0.080026,
          "velocity": 0.629921,
          "start_tick": 286301,
          "duration_ticks": 121,
          "channel": 4
        },
        {
          "note": 77,
          "start": 189.43235,
          "duration": 0.079365,
          "velocity": 0.629921,
          "start_tick": 286422,
          "duration_ticks": 120,
          "channel": 4
        },
        {
          "note": 72,
          "start": 189.511715,
          "duration": 0.080026,
          "velocity": 0.629921,
          "start_tick": 286542,
          "duration_ticks": 121,
          "channel": 4
        },
        {
          "note": 80,
          "start": 189.591742,
          "duration": 0.080026,
          "velocity": 0.629921,
          "start_tick": 286663,
          "duration_ticks": 121,
          "channel": 4
        },
        {
          "note": 77,
          "start": 189.671768,
          "duration": 0.079365,
          "velocity": 0.629921,
          "start_tick": 286784,
          "duration_ticks": 120,
          "channel": 4
        },
        {
          "note": 72,
          "start": 189.751133,
          "duration": 0.080026,
          "velocity": 0.629921,
          "start_tick": 286904,
          "duration_ticks": 121,
          "channel": 4
        },
        {
          "note": 68,
          "start": 189.831159,
          "duration": 0.080026,
          "velocity": 0.629921,
          "start_tick": 287025,
          "duration_ticks": 121,
          "channel": 4
        },
        {
          "note": 84,
          "start": 189.911186,
          "duration": 0.079365,
          "velocity": 0.629921,
          "start_tick": 287146,
          "duration_ticks": 120,
          "channel": 4
        },
        {
          "note": 80,
          "start": 189.990551,
          "duration": 0.080026,
          "velocity": 0.629921,
          "start_tick": 287266,
          "duration_ticks": 121,
          "channel": 4
        },
        {
          "note": 77,
          "start": 190.070577,
          "duration": 0.080026,
          "velocity": 0.629921,
          "start_tick": 287387,
          "duration_ticks": 121,
          "channel": 4
        },
        {
          "note": 72,
          "start": 190.150603,
          "duration": 0.079365,
          "velocity": 0.629921,
          "start_tick": 287508,
          "duration_ticks": 120,
          "channel": 4
        },
        {
          "note": 77,
          "start": 190.229969,
          "duration": 0.080026,
          "velocity": 0.629921,
          "start_tick": 287628,
          "duration_ticks": 121,
          "channel": 4
        },
        {
          "note": 72,
          "start": 190.309995,
          "duration": 0.080026,
          "velocity": 0.629921,
          "start_tick": 287749,
          "duration_ticks": 121,
          "channel": 4
        },
        {
          "note": 68,
          "start": 190.390021,
          "duration": 0.079365,
          "velocity": 0.629921,
          "start_tick": 287870,
          "duration_ticks": 120,
          "channel": 4
        },
        {
          "note": 65,
          "start": 190.469386,
          "duration": 0.080026,
          "velocity": 0.629921,
          "start_tick": 287990,
          "duration_ticks": 121,
          "channel": 4
        },
        {
          "note": 60,
          "start": 190.549413,
          "duration": 0.079365,
          "velocity": 0.629921,
          "start_tick": 288111,
          "duration_ticks": 120,
          "channel": 4
        },
        {
          "note": 63,
          "start": 190.628778,
          "duration": 0.080026,
          "velocity": 0.629921,
          "start_tick": 288231,
          "duration_ticks": 121,
          "channel": 4
        },
        {
          "note": 65,
          "start": 190.708804,
          "duration": 0.080026,
          "velocity": 0.629921,
          "start_tick": 288352,
          "duration_ticks": 121,
          "channel": 4
        },
        {
          "note": 67,
          "start": 190.78883,
          "duration": 0.079365,
          "velocity": 0.629921,
          "start_tick": 288473,
          "duration_ticks": 120,
          "channel": 4
        },
        {
          "note": 63,
          "start": 190.868195,
          "duration": 0.080026,
          "velocity": 0.629921,
          "start_tick": 288593,
          "duration_ticks": 121,
          "channel": 4
        },
        {
          "note": 65,
          "start": 190.948222,
          "duration": 0.080026,
          "velocity": 0.629921,
          "start_tick": 288714,
          "duration_ticks": 121,
          "channel": 4
        },
        {
          "note": 67,
          "start": 191.028248,
          "duration": 0.079365,
          "velocity": 0.629921,
          "start_tick": 288835,
          "duration_ticks": 120,
          "channel": 4
        },
        {
          "note": 72,
          "start": 191.107613,
          "duration": 0.080026,
          "velocity": 0.629921,
          "start_tick": 288955,
          "duration_ticks": 121,
          "channel": 4
        },
        {
          "note": 67,
          "start": 191.187639,
          "duration": 0.080026,
          "velocity": 0.629921,
          "start_tick": 289076,
          "duration_ticks": 121,
          "channel": 4
        },
        {
          "note": 72,
          "start": 191.267666,
          "duration": 0.079365,
          "velocity": 0.629921,
          "start_tick": 289197,
          "duration_ticks": 120,
          "channel": 4
        },
        {
          "note": 75,
          "start": 191.347031,
          "duration": 0.080026,
          "velocity": 0.629921,
          "start_tick": 289317,
          "duration_ticks": 121,
          "channel": 4
        },
        {
          "note": 77,
          "start": 191.427057,
          "duration": 0.079365,
          "velocity": 0.629921,
          "start_tick": 289438,
          "duration_ticks": 120,
          "channel": 4
        },
        {
          "note": 75,
          "start": 191.506422,
          "duration": 0.080026,
          "velocity": 0.629921,
          "start_tick": 289558,
          "duration_ticks": 121,
          "channel": 4
        },
        {
          "note": 77,
          "start": 191.586449,
          "duration": 0.080026,
          "velocity": 0.629921,
          "start_tick": 289679,
          "duration_ticks": 121,
          "channel": 4
        },
        {
          "note": 79,
          "start": 191.666475,
          "duration": 0.079365,
          "velocity": 0.629921,
          "start_tick": 289800,
          "duration_ticks": 120,
          "channel": 4
        },
        {
          "note": 84,
          "start": 191.74584,
          "duration": 0.080026,
          "velocity": 0.629921,
          "start_tick": 289920,
          "duration_ticks": 121,
          "channel": 4
        },
        {
          "note": 79,
          "start": 191.825866,
          "duration": 0.080026,
          "velocity": 0.629921,
          "start_tick": 290041,
          "duration_ticks": 121,
          "channel": 4
        },
        {
          "note": 77,
          "start": 191.905893,
          "duration": 0.079365,
          "velocity": 0.629921,
          "start_tick": 290162,
          "duration_ticks": 120,
          "channel": 4
        },
        {
          "note": 75,
          "start": 191.985258,
          "duration": 0.080026,
          "velocity": 0.629921,
          "start_tick": 290282,
          "duration_ticks": 121,
          "channel": 4
        },
        {
          "note": 79,
          "start": 192.065284,
          "duration": 0.080026,
          "velocity": 0.629921,
          "start_tick": 290403,
          "duration_ticks": 121,
          "channel": 4
        },
        {
          "note": 77,
          "start": 192.14531,
          "duration": 0.079365,
          "velocity": 0.629921,
          "start_tick": 290524,
          "duration_ticks": 120,
          "channel": 4
        },
        {
          "note": 75,
          "start": 192.224675,
          "duration": 0.080026,
          "velocity": 0.629921,
          "start_tick": 290644,
          "duration_ticks": 121,
          "channel": 4
        },
        {
          "note": 72,
          "start": 192.304702,
          "duration": 0.080026,
          "velocity": 0.629921,
          "start_tick": 290765,
          "duration_ticks": 121,
          "channel": 4
        },
        {
          "note": 77,
          "start": 192.384728,
          "duration": 0.079365,
          "velocity": 0.629921,
          "start_tick": 290886,
          "duration_ticks": 120,
          "channel": 4
        },
        {
          "note": 75,
          "start": 192.464093,
          "duration": 0.080026,
          "velocity": 0.629921,
          "start_tick": 291006,
          "duration_ticks": 121,
          "channel": 4
        },
        {
          "note": 72,
          "start": 192.54412,
          "duration": 0.079365,
          "velocity": 0.629921,
          "start_tick": 291127,
          "duration_ticks": 120,
          "channel": 4
        },
        {
          "note": 67,
          "start": 192.623485,
          "duration": 0.080026,
          "velocity": 0.629921,
          "start_tick": 291247,
          "duration_ticks": 121,
          "channel": 4
        },
        {
          "note": 65,
          "start": 192.703511,
          "duration": 0.080026,
          "velocity": 0.629921,
          "start_tick": 291368,
          "duration_ticks": 121,
          "channel": 4
        },
        {
          "note": 72,
          "start": 192.783537,
          "duration": 0.079365,
          "velocity": 0.629921,
          "start_tick": 291489,
          "duration_ticks": 120,
          "channel": 4
        },
        {
          "note": 67,
          "start": 192.862902,
          "duration": 0.080026,
          "velocity": 0.629921,
          "start_tick": 291609,
          "duration_ticks": 121,
          "channel": 4
        },
        {
          "note": 65,
          "start": 192.942929,
          "duration": 0.080026,
          "velocity": 0.629921,
          "start_tick": 291730,
          "duration_ticks": 121,
          "channel": 4
        },
        {
          "note": 60,
          "start": 193.022955,
          "duration": 0.079365,
          "velocity": 0.629921,
          "start_tick": 291851,
          "duration_ticks": 120,
          "channel": 4
        },
        {
          "note": 63,
          "start": 193.10232,
          "duration": 0.080026,
          "velocity": 0.629921,
          "start_tick": 291971,
          "duration_ticks": 121,
          "channel": 4
        },
        {
          "note": 67,
          "start": 193.182346,
          "duration": 0.080026,
          "velocity": 0.629921,
          "start_tick": 292092,
          "duration_ticks": 121,
          "channel": 4
        },
        {
          "note": 70,
          "start": 193.262373,
          "duration": 0.079365,
          "velocity": 0.629921,
          "start_tick": 292213,
          "duration_ticks": 120,
          "channel": 4
        },
        {
          "note": 75,
          "start": 193.341738,
          "duration": 0.080026,
          "velocity": 0.629921,
          "start_tick": 292333,
          "duration_ticks": 121,
          "channel": 4
        },
        {
          "note": 67,
          "start": 193.421764,
          "duration": 0.080026,
          "velocity": 0.629921,
          "start_tick": 292454,
          "duration_ticks": 121,
          "channel": 4
        },
        {
          "note": 70,
          "start": 193.501791,
          "duration": 0.079365,
          "velocity": 0.629921,
          "start_tick": 292575,
          "duration_ticks": 120,
          "channel": 4
        },
        {
          "note": 75,
          "start": 193.581156,
          "duration": 0.080026,
          "velocity": 0.629921,
          "start_tick": 292695,
          "duration_ticks": 121,
          "channel": 4
        },
        {
          "note": 79,
          "start": 193.661182,
          "duration": 0.079365,
          "velocity": 0.629921,
          "start_tick": 292816,
          "duration_ticks": 120,
          "channel": 4
        },
        {
          "note": 70,
          "start": 193.740547,
          "duration": 0.080026,
          "velocity": 0.629921,
          "start_tick": 292936,
          "duration_ticks": 121,
          "channel": 4
        },
        {
          "note": 75,
          "start": 193.820573,
          "duration": 0.080026,
          "velocity": 0.629921,
          "start_tick": 293057,
          "duration_ticks": 121,
          "channel": 4
        },
        {
          "note": 79,
          "start": 193.9006,
          "duration": 0.079365,
          "velocity": 0.629921,
          "start_tick": 293178,
          "duration_ticks": 120,
          "channel": 4
        },
        {
          "note": 82,
          "start": 193.979965,
          "duration": 0.080026,
          "velocity": 0.629921,
          "start_tick": 293298,
          "duration_ticks": 121,
          "channel": 4
        },
        {
          "note": 75,
          "start": 194.059991,
          "duration": 0.080026,
          "velocity": 0.629921,
          "start_tick": 293419,
          "duration_ticks": 121,
          "channel": 4
        },
        {
          "note": 79,
          "start": 194.140017,
          "duration": 0.079365,
          "velocity": 0.629921,
          "start_tick": 293540,
          "duration_ticks": 120,
          "channel": 4
        },
        {
          "note": 82,
          "start": 194.219382,
          "duration": 0.080026,
          "velocity": 0.629921,
          "start_tick": 293660,
          "duration_ticks": 121,
          "channel": 4
        },
        {
          "note": 87,
          "start": 194.299409,
          "duration": 0.080026,
          "velocity": 0.629921,
          "start_tick": 293781,
          "duration_ticks": 121,
          "channel": 4
        },
        {
          "note": 82,
          "start": 194.379435,
          "duration": 0.079365,
          "velocity": 0.629921,
          "start_tick": 293902,
          "duration_ticks": 120,
          "channel": 4
        },
        {
          "note": 79,
          "start": 194.4588,
          "duration": 0.080026,
          "velocity": 0.629921,
          "start_tick": 294022,
          "duration_ticks": 121,
          "channel": 4
        },
        {
          "note": 75,
          "start": 194.538827,
          "duration": 0.080026,
          "velocity": 0.629921,
          "start_tick": 294143,
          "duration_ticks": 121,
          "channel": 4
        },
        {
          "note": 70,
          "start": 194.618853,
          "duration": 0.079365,
          "velocity": 0.629921,
          "start_tick": 294264,
          "duration_ticks": 120,
          "channel": 4
        },
        {
          "note": 80,
          "start": 194.698218,
          "duration": 0.080026,
          "velocity": 0.629921,
          "start_tick": 294384,
          "duration_ticks": 121,
          "channel": 4
        },
        {
          "note": 75,
          "start": 194.778244,
          "duration": 0.079365,
          "velocity": 0.629921,
          "start_tick": 294505,
          "duration_ticks": 120,
          "channel": 4
        },
        {
          "note": 70,
          "start": 194.857609,
          "duration": 0.080026,
          "velocity": 0.629921,
          "start_tick": 294625,
          "duration_ticks": 121,
          "channel": 4
        },
        {
          "note": 67,
          "start": 194.937636,
          "duration": 0.080026,
          "velocity": 0.629921,
          "start_tick": 294746,
          "duration_ticks": 121,
          "channel": 4
        },
        {
          "note": 82,
          "start": 195.017662,
          "duration": 0.079365,
          "velocity": 0.629921,
          "start_tick": 294867,
          "duration_ticks": 120,
          "channel": 4
        },
        {
          "note": 80,
          "start": 195.097027,
          "duration": 0.080026,
          "velocity": 0.629921,
          "start_tick": 294987,
          "duration_ticks": 121,
          "channel": 4
        },
        {
          "note": 75,
          "start": 195.177053,
          "duration": 0.080026,
          "velocity": 0.629921,
          "start_tick": 295108,
          "duration_ticks": 121,
          "channel": 4
        },
        {
          "note": 70,
          "start": 195.25708,
          "duration": 0.079365,
          "velocity": 0.629921,
          "start_tick": 295229,
          "duration_ticks": 120,
          "channel": 4
        },
        {
          "note": 75,
          "start": 195.336445,
          "duration": 0.080026,
          "velocity": 0.629921,
          "start_tick": 295349,
          "duration_ticks": 121,
          "channel": 4
        },
        {
          "note": 70,
          "start": 195.416471,
          "duration": 0.080026,
          "velocity": 0.629921,
          "start_tick": 295470,
          "duration_ticks": 121,
          "channel": 4
        },
        {
          "note": 67,
          "start": 195.496498,
          "duration": 0.079365,
          "velocity": 0.629921,
          "start_tick": 295591,
          "duration_ticks": 120,
          "channel": 4
        },
        {
          "note": 63,
          "start": 195.575863,
          "duration": 0.080026,
          "velocity": 0.629921,
          "start_tick": 295711,
          "duration_ticks": 121,
          "channel": 4
        },
        {
          "note": 67,
          "start": 195.655889,
          "duration": 0.080026,
          "velocity": 0.629921,
          "start_tick": 295832,
          "duration_ticks": 121,
          "channel": 4
        },
        {
          "note": 71,
          "start": 195.735915,
          "duration": 0.079365,
          "velocity": 0.629921,
          "start_tick": 295953,
          "duration_ticks": 120,
          "channel": 4
        },
        {
          "note": 74,
          "start": 195.81528,
          "duration": 0.080026,
          "velocity": 0.629921,
          "start_tick": 296073,
          "duration_ticks": 121,
          "channel": 4
        },
        {
          "note": 79,
          "start": 195.895307,
          "duration": 0.079365,
          "velocity": 0.629921,
          "start_tick": 296194,
          "duration_ticks": 120,
          "channel": 4
        },
        {
          "note": 71,
          "start": 195.974672,
          "duration": 0.080026,
          "velocity": 0.629921,
          "start_tick": 296314,
          "duration_ticks": 121,
          "channel": 4
        },
        {
          "note": 74,
          "start": 196.054698,
          "duration": 0.080026,
          "velocity": 0.629921,
          "start_tick": 296435,
          "duration_ticks": 121,
          "channel": 4
        },
        {
          "note": 79,
          "start": 196.134725,
          "duration": 0.079365,
          "velocity": 0.629921,
          "start_tick": 296556,
          "duration_ticks": 120,
          "channel": 4
        },
        {
          "note": 83,
          "start": 196.21409,
          "duration": 0.080026,
          "velocity": 0.629921,
          "start_tick": 296676,
          "duration_ticks": 121,
          "channel": 4
        },
        {
          "note": 74,
          "start": 196.294116,
          "duration": 0.080026,
          "velocity": 0.629921,
          "start_tick": 296797,
          "duration_ticks": 121,
          "channel": 4
        },
        {
          "note": 79,
          "start": 196.374142,
          "duration": 0.079365,
          "velocity": 0.629921,
          "start_tick": 296918,
          "duration_ticks": 120,
          "channel": 4
        },
        {
          "note": 83,
          "start": 196.453507,
          "duration": 0.080026,
          "velocity": 0.629921,
          "start_tick": 297038,
          "duration_ticks": 121,
          "channel": 4
        },
        {
          "note": 86,
          "start": 196.533534,
          "duration": 0.080026,
          "velocity": 0.629921,
          "start_tick": 297159,
          "duration_ticks": 121,
          "channel": 4
        },
        {
          "note": 79,
          "start": 196.61356,
          "duration": 0.079365,
          "velocity": 0.629921,
          "start_tick": 297280,
          "duration_ticks": 120,
          "channel": 4
        },
        {
          "note": 83,
          "start": 196.692925,
          "duration": 0.080026,
          "velocity": 0.629921,
          "start_tick": 297400,
          "duration_ticks": 121,
          "channel": 4
        },
        {
          "note": 86,
          "start": 196.772951,
          "duration": 0.079365,
          "velocity": 0.629921,
          "start_tick": 297521,
          "duration_ticks": 120,
          "channel": 4
        },
        {
          "note": 91,
          "start": 196.852316,
          "duration": 0.080026,
          "velocity": 0.629921,
          "start_tick": 297641,
          "duration_ticks": 121,
          "channel": 4
        },
        {
          "note": 86,
          "start": 196.932343,
          "duration": 0.080026,
          "velocity": 0.629921,
          "start_tick": 297762,
          "duration_ticks": 121,
          "channel": 4
        },
        {
          "note": 83,
          "start": 197.012369,
          "duration": 0.079365,
          "velocity": 0.629921,
          "start_tick": 297883,
          "duration_ticks": 120,
          "channel": 4
        },
        {
          "note": 79,
          "start": 197.091734,
          "duration": 0.080026,
          "velocity": 0.629921,
          "start_tick": 298003,
          "duration_ticks": 121,
          "channel": 4
        },
        {
          "note": 74,
          "start": 197.171761,
          "duration": 0.080026,
          "velocity": 0.629921,
          "start_tick": 298124,
          "duration_ticks": 121,
          "channel": 4
        },
        {
          "note": 84,
          "start": 197.251787,
          "duration": 0.079365,
          "velocity": 0.629921,
          "start_tick": 298245,
          "duration_ticks": 120,
          "channel": 4
        },
        {
          "note": 79,
          "start": 197.331152,
          "duration": 0.080026,
          "velocity": 0.629921,
          "start_tick": 298365,
          "duration_ticks": 121,
          "channel": 4
        },
        {
          "note": 74,
          "start": 197.411178,
          "duration": 0.080026,
          "velocity": 0.629921,
          "start_tick": 298486,
          "duration_ticks": 121,
          "channel": 4
        },
        {
          "note": 71,
          "start": 197.491205,
          "duration": 0.079365,
          "velocity": 0.629921,
          "start_tick": 298607,
          "duration_ticks": 120,
          "channel": 4
        },
        {
          "note": 86,
          "start": 197.57057,
          "duration": 0.080026,
          "velocity": 0.629921,
          "start_tick": 298727,
          "duration_ticks": 121,
          "channel": 4
        },
        {
          "note": 84,
          "start": 197.650596,
          "duration": 0.080026,
          "velocity": 0.629921,
          "start_tick": 298848,
          "duration_ticks": 121,
          "channel": 4
        },
        {
          "note": 79,
          "start": 197.730622,
          "duration": 0.079365,
          "velocity": 0.629921,
          "start_tick": 298969,
          "duration_ticks": 120,
          "channel": 4
        },
        {
          "note": 74,
          "start": 197.809987,
          "duration": 0.080026,
          "velocity": 0.629921,
          "start_tick": 299089,
          "duration_ticks": 121,
          "channel": 4
        },
        {
          "note": 79,
          "start": 197.890014,
          "duration": 0.079365,
          "velocity": 0.629921,
          "start_tick": 299210,
          "duration_ticks": 120,
          "channel": 4
        },
        {
          "note": 74,
          "start": 197.969379,
          "duration": 0.080026,
          "velocity": 0.629921,
          "start_tick": 299330,
          "duration_ticks": 121,
          "channel": 4
        },
        {
          "note": 71,
          "start": 198.049405,
          "duration": 0.080026,
          "velocity": 0.629921,
          "start_tick": 299451,
          "duration_ticks": 121,
          "channel": 4
        },
        {
          "note": 67,
          "start": 198.129432,
          "duration": 0.079365,
          "velocity": 0.629921,
          "start_tick": 299572,
          "duration_ticks": 120,
          "channel": 4
        },
        {
          "note": 65,
          "start": 198.208797,
          "duration": 0.080026,
          "velocity": 0.629921,
          "start_tick": 299692,
          "duration_ticks": 121,
          "channel": 4
        },
        {
          "note": 68,
          "start": 198.288823,
          "duration": 0.080026,
          "velocity": 0.629921,
          "start_tick": 299813,
          "duration_ticks": 121,
          "channel": 4
        },
        {
          "note": 72,
          "start": 198.368849,
          "duration": 0.079365,
          "velocity": 0.629921,
          "start_tick": 299934,
          "duration_ticks": 120,
          "channel": 4
        },
        {
          "note": 77,
          "start": 198.448214,
          "duration": 0.080026,
          "velocity": 0.629921,
          "start_tick": 300054,
          "duration_ticks": 121,
          "channel": 4
        },
        {
          "note": 68,
          "start": 198.528241,
          "duration": 0.080026,
          "velocity": 0.629921,
          "start_tick": 300175,
          "duration_ticks": 121,
          "channel": 4
        },
        {
          "note": 72,
          "start": 198.608267,
          "duration": 0.079365,
          "velocity": 0.629921,
          "start_tick": 300296,
          "duration_ticks": 120,
          "channel": 4
        },
        {
          "note": 77,
          "start": 198.687632,
          "duration": 0.080026,
          "velocity": 0.629921,
          "start_tick": 300416,
          "duration_ticks": 121,
          "channel": 4
        },
        {
          "note": 80,
          "start": 198.767658,
          "duration": 0.080026,
          "velocity": 0.629921,
          "start_tick": 300537,
          "duration_ticks": 121,
          "channel": 4
        },
        {
          "note": 72,
          "start": 198.847685,
          "duration": 0.079365,
          "velocity": 0.629921,
          "start_tick": 300658,
          "duration_ticks": 120,
          "channel": 4
        },
        {
          "note": 77,
          "start": 198.92705,
          "duration": 0.080026,
          "velocity": 0.629921,
          "start_tick": 300778,
          "duration_ticks": 121,
          "channel": 4
        },
        {
          "note": 80,
          "start": 199.007076,
          "duration": 0.079365,
          "velocity": 0.629921,
          "start_tick": 300899,
          "duration_ticks": 120,
          "channel": 4
        },
        {
          "note": 84,
          "start": 199.086441,
          "duration": 0.080026,
          "velocity": 0.629921,
          "start_tick": 301019,
          "duration_ticks": 121,
          "channel": 4
        },
        {
          "note": 77,
          "start": 199.166468,
          "duration": 0.080026,
          "velocity": 0.629921,
          "start_tick": 301140,
          "duration_ticks": 121,
          "channel": 4
        },
        {
          "note": 80,
          "start": 199.246494,
          "duration": 0.079365,
          "velocity": 0.629921,
          "start_tick": 301261,
          "duration_ticks": 120,
          "channel": 4
        },
        {
          "note": 84,
          "start": 199.325859,
          "duration": 0.080026,
          "velocity": 0.629921,
          "start_tick": 301381,
          "duration_ticks": 121,
          "channel": 4
        },
        {
          "note": 89,
          "start": 199.405885,
          "duration": 0.080026,
          "velocity": 0.629921,
          "start_tick": 301502,
          "duration_ticks": 121,
          "channel": 4
        },
        {
          "note": 84,
          "start": 199.485912,
          "duration": 0.079365,
          "velocity": 0.629921,
          "start_tick": 301623,
          "duration_ticks": 120,
          "channel": 4
        },
        {
          "note": 80,
          "start": 199.565277,
          "duration": 0.080026,
          "velocity": 0.629921,
          "start_tick": 301743,
          "duration_ticks": 121,
          "channel": 4
        },
        {
          "note": 77,
          "start": 199.645303,
          "duration": 0.080026,
          "velocity": 0.629921,
          "start_tick": 301864,
          "duration_ticks": 121,
          "channel": 4
        },
        {
          "note": 72,
          "start": 199.725329,
          "duration": 0.079365,
          "velocity": 0.629921,
          "start_tick": 301985,
          "duration_ticks": 120,
          "channel": 4
        },
        {
          "note": 80,
          "start": 199.804694,
          "duration": 0.080026,
          "velocity": 0.629921,
          "start_tick": 302105,
          "duration_ticks": 121,
          "channel": 4
        },
        {
          "note": 77,
          "start": 199.884721,
          "duration": 0.080026,
          "velocity": 0.629921,
          "start_tick": 302226,
          "duration_ticks": 121,
          "channel": 4
        },
        {
          "note": 72,
          "start": 199.964747,
          "duration": 0.079365,
          "velocity": 0.629921,
          "start_tick": 302347,
          "duration_ticks": 120,
          "channel": 4
        },
        {
          "note": 68,
          "start": 200.044112,
          "duration": 0.080026,
          "velocity": 0.629921,
          "start_tick": 302467,
          "duration_ticks": 121,
          "channel": 4
        },
        {
          "note": 84,
          "start": 200.124138,
          "duration": 0.079365,
          "velocity": 0.629921,
          "start_tick": 302588,
          "duration_ticks": 120,
          "channel": 4
        },
        {
          "note": 80,
          "start": 200.203504,
          "duration": 0.080026,
          "velocity": 0.629921,
          "start_tick": 302708,
          "duration_ticks": 121,
          "channel": 4
        },
        {
          "note": 77,
          "start": 200.28353,
          "duration": 0.080026,
          "velocity": 0.629921,
          "start_tick": 302829,
          "duration_ticks": 121,
          "channel": 4
        },
        {
          "note": 72,
          "start": 200.363556,
          "duration": 0.079365,
          "velocity": 0.629921,
          "start_tick": 302950,
          "duration_ticks": 120,
          "channel": 4
        },
        {
          "note": 77,
          "start": 200.442921,
          "duration": 0.080026,
          "velocity": 0.629921,
          "start_tick": 303070,
          "duration_ticks": 121,
          "channel": 4
        },
        {
          "note": 72,
          "start": 200.522948,
          "duration": 0.080026,
          "velocity": 0.629921,
          "start_tick": 303191,
          "duration_ticks": 121,
          "channel": 4
        },
        {
          "note": 68,
          "start": 200.602974,
          "duration": 0.079365,
          "velocity": 0.629921,
          "start_tick": 303312,
          "duration_ticks": 120,
          "channel": 4
        },
        {
          "note": 65,
          "start": 200.682339,
          "duration": 0.080026,
          "velocity": 0.629921,
          "start_tick": 303432,
          "duration_ticks": 121,
          "channel": 4
        },
        {
          "note": 68,
          "start": 200.762365,
          "duration": 0.080026,
          "velocity": 0.629921,
          "start_tick": 303553,
          "duration_ticks": 121,
          "channel": 4
        },
        {
          "note": 72,
          "start": 200.842392,
          "duration": 0.079365,
          "velocity": 0.629921,
          "start_tick": 303674,
          "duration_ticks": 120,
          "channel": 4
        },
        {
          "note": 75,
          "start": 200.921757,
          "duration": 0.080026,
          "velocity": 0.629921,
          "start_tick": 303794,
          "duration_ticks": 121,
          "channel": 4
        },
        {
          "note": 80,
          "start": 201.001783,
          "duration": 0.079365,
          "velocity": 0.629921,
          "start_tick": 303915,
          "duration_ticks": 120,
          "channel": 4
        },
        {
          "note": 72,
          "start": 201.081148,
          "duration": 0.080026,
          "velocity": 0.629921,
          "start_tick": 304035,
          "duration_ticks": 121,
          "channel": 4
        },
        {
          "note": 75,
          "start": 201.161174,
          "duration": 0.080026,
          "velocity": 0.629921,
          "start_tick": 304156,
          "duration_ticks": 121,
          "channel": 4
        },
        {
          "note": 80,
          "start": 201.241201,
          "duration": 0.079365,
          "velocity": 0.629921,
          "start_tick": 304277,
          "duration_ticks": 120,
          "channel": 4
        },
        {
          "note": 84,
          "start": 201.320566,
          "duration": 0.080026,
          "velocity": 0.629921,
          "start_tick": 304397,
          "duration_ticks": 121,
          "channel": 4
        },
        {
          "note": 75,
          "start": 201.400592,
          "duration": 0.080026,
          "velocity": 0.629921,
          "start_tick": 304518,
          "duration_ticks": 121,
          "channel": 4
        },
        {
          "note": 80,
          "start": 201.480619,
          "duration": 0.079365,
          "velocity": 0.629921,
          "start_tick": 304639,
          "duration_ticks": 120,
          "channel": 4
        },
        {
          "note": 84,
          "start": 201.559984,
          "duration": 0.080026,
          "velocity": 0.629921,
          "start_tick": 304759,
          "duration_ticks": 121,
          "channel": 4
        },
        {
          "note": 87,
          "start": 201.64001,
          "duration": 0.080026,
          "velocity": 0.629921,
          "start_tick": 304880,
          "duration_ticks": 121,
          "channel": 4
        },
        {
          "note": 80,
          "start": 201.720036,
          "duration": 0.079365,
          "velocity": 0.629921,
          "start_tick": 305001,
          "duration_ticks": 120,
          "channel": 4
        },
        {
          "note": 84,
          "start": 201.799401,
          "duration": 0.080026,
          "velocity": 0.629921,
          "start_tick": 305121,
          "duration_ticks": 121,
          "channel": 4
        },
        {
          "note": 87,
          "start": 201.879428,
          "duration": 0.080026,
          "velocity": 0.629921,
          "start_tick": 305242,
          "duration_ticks": 121,
          "channel": 4
        },
        {
          "note": 92,
          "start": 201.959454,
          "duration": 0.079365,
          "velocity": 0.629921,
          "start_tick": 305363,
          "duration_ticks": 120,
          "channel": 4
        },
        {
          "note": 87,
          "start": 202.038819,
          "duration": 0.080026,
          "velocity": 0.629921,
          "start_tick": 305483,
          "duration_ticks": 121,
          "channel": 4
        },
        {
          "note": 84,
          "start": 202.118845,
          "duration": 0.079365,
          "velocity": 0.629921,
          "start_tick": 305604,
          "duration_ticks": 120,
          "channel": 4
        },
        {
          "note": 80,
          "start": 202.19821,
          "duration": 0.080026,
          "velocity": 0.629921,
          "start_tick": 305724,
          "duration_ticks": 121,
          "channel": 4
        },
        {
          "note": 75,
          "start": 202.278237,
          "duration": 0.080026,
          "velocity": 0.629921,
          "start_tick": 305845,
          "duration_ticks": 121,
          "channel": 4
        },
        {
          "note": 85,
          "start": 202.358263,
          "duration": 0.079365,
          "velocity": 0.629921,
          "start_tick": 305966,
          "duration_ticks": 120,
          "channel": 4
        },
        {
          "note": 80,
          "start": 202.437628,
          "duration": 0.080026,
          "velocity": 0.629921,
          "start_tick": 306086,
          "duration_ticks": 121,
          "channel": 4
        },
        {
          "note": 75,
          "start": 202.517655,
          "duration": 0.080026,
          "velocity": 0.629921,
          "start_tick": 306207,
          "duration_ticks": 121,
          "channel": 4
        },
        {
          "note": 72,
          "start": 202.597681,
          "duration": 0.079365,
          "velocity": 0.629921,
          "start_tick": 306328,
          "duration_ticks": 120,
          "channel": 4
        },
        {
          "note": 87,
          "start": 202.677046,
          "duration": 0.080026,
          "velocity": 0.629921,
          "start_tick": 306448,
          "duration_ticks": 121,
          "channel": 4
        },
        {
          "note": 85,
          "start": 202.757072,
          "duration": 0.080026,
          "velocity": 0.629921,
          "start_tick": 306569,
          "duration_ticks": 121,
          "channel": 4
        },
        {
          "note": 80,
          "start": 202.837099,
          "duration": 0.079365,
          "velocity": 0.629921,
          "start_tick": 306690,
          "duration_ticks": 120,
          "channel": 4
        },
        {
          "note": 75,
          "start": 202.916464,
          "duration": 0.080026,
          "velocity": 0.629921,
          "start_tick": 306810,
          "duration_ticks": 121,
          "channel": 4
        },
        {
          "note": 80,
          "start": 202.99649,
          "duration": 0.080026,
          "velocity": 0.629921,
          "start_tick": 306931,
          "duration_ticks": 121,
          "channel": 4
        },
        {
          "note": 75,
          "start": 203.076516,
          "duration": 0.079365,
          "velocity": 0.629921,
          "start_tick": 307052,
          "duration_ticks": 120,
          "channel": 4
        },
        {
          "note": 72,
          "start": 203.155881,
          "duration": 0.080026,
          "velocity": 0.629921,
          "start_tick": 307172,
          "duration_ticks": 121,
          "channel": 4
        },
        {
          "note": 68,
          "start": 203.235908,
          "duration": 0.079365,
          "velocity": 0.629921,
          "start_tick": 307293,
          "duration_ticks": 120,
          "channel": 4
        },
        {
          "note": 63,
          "start": 203.315273,
          "duration": 0.080026,
          "velocity": 0.629921,
          "start_tick": 307413,
          "duration_ticks": 121,
          "channel": 4
        },
        {
          "note": 67,
          "start": 203.395299,
          "duration": 0.080026,
          "velocity": 0.629921,
          "start_tick": 307534,
          "duration_ticks": 121,
          "channel": 4
        },
        {
          "note": 70,
          "start": 203.475326,
          "duration": 0.079365,
          "velocity": 0.629921,
          "start_tick": 307655,
          "duration_ticks": 120,
          "channel": 4
        },
        {
          "note": 75,
          "start": 203.554691,
          "duration": 0.080026,
          "velocity": 0.629921,
          "start_tick": 307775,
          "duration_ticks": 121,
          "channel": 4
        },
        {
          "note": 67,
          "start": 203.634717,
          "duration": 0.080026,
          "velocity": 0.629921,
          "start_tick": 307896,
          "duration_ticks": 121,
          "channel": 4
        },
        {
          "note": 70,
          "start": 203.714743,
          "duration": 0.079365,
          "velocity": 0.629921,
          "start_tick": 308017,
          "duration_ticks": 120,
          "channel": 4
        },
        {
          "note": 75,
          "start": 203.794108,
          "duration": 0.080026,
          "velocity": 0.629921,
          "start_tick": 308137,
          "duration_ticks": 121,
          "channel": 4
        },
        {
          "note": 79,
          "start": 203.874135,
          "duration": 0.080026,
          "velocity": 0.629921,
          "start_tick": 308258,
          "duration_ticks": 121,
          "channel": 4
        },
        {
          "note": 70,
          "start": 203.954161,
          "duration": 0.079365,
          "velocity": 0.629921,
          "start_tick": 308379,
          "duration_ticks": 120,
          "channel": 4
        },
        {
          "note": 75,
          "start": 204.033526,
          "duration": 0.080026,
          "velocity": 0.629921,
          "start_tick": 308499,
          "duration_ticks": 121,
          "channel": 4
        },
        {
          "note": 79,
          "start": 204.113552,
          "duration": 0.080026,
          "velocity": 0.629921,
          "start_tick": 308620,
          "duration_ticks": 121,
          "channel": 4
        },
        {
          "note": 82,
          "start": 204.193579,
          "duration": 0.079365,
          "velocity": 0.629921,
          "start_tick": 308741,
          "duration_ticks": 120,
          "channel": 4
        },
        {
          "note": 75,
          "start": 204.272944,
          "duration": 0.080026,
          "velocity": 0.629921,
          "start_tick": 308861,
          "duration_ticks": 121,
          "channel": 4
        },
        {
          "note": 79,
          "start": 204.35297,
          "duration": 0.079365,
          "velocity": 0.629921,
          "start_tick": 308982,
          "duration_ticks": 120,
          "channel": 4
        },
        {
          "note": 82,
          "start": 204.432335,
          "duration": 0.080026,
          "velocity": 0.629921,
          "start_tick": 309102,
          "duration_ticks": 121,
          "channel": 4
        },
        {
          "note": 87,
          "start": 204.512362,
          "duration": 0.080026,
          "velocity": 0.629921,
          "start_tick": 309223,
          "duration_ticks": 121,
          "channel": 4
        },
        {
          "note": 82,
          "start": 204.592388,
          "duration": 0.079365,
          "velocity": 0.629921,
          "start_tick": 309344,
          "duration_ticks": 120,
          "channel": 4
        },
        {
          "note": 79,
          "start": 204.671753,
          "duration": 0.080026,
          "velocity": 0.629921,
          "start_tick": 309464,
          "duration_ticks": 121,
          "channel": 4
        },
        {
          "note": 75,
          "start": 204.751779,
          "duration": 0.080026,
          "velocity": 0.629921,
          "start_tick": 309585,
          "duration_ticks": 121,
          "channel": 4
        },
        {
          "note": 70,
          "start": 204.831806,
          "duration": 0.079365,
          "velocity": 0.629921,
          "start_tick": 309706,
          "duration_ticks": 120,
          "channel": 4
        },
        {
          "note": 80,
          "start": 204.911171,
          "duration": 0.080026,
          "velocity": 0.629921,
          "start_tick": 309826,
          "duration_ticks": 121,
          "channel": 4
        },
        {
          "note": 75,
          "start": 204.991197,
          "duration": 0.080026,
          "velocity": 0.629921,
          "start_tick": 309947,
          "duration_ticks": 121,
          "channel": 4
        },
        {
          "note": 70,
          "start": 205.071224,
          "duration": 0.079365,
          "velocity": 0.629921,
          "start_tick": 310068,
          "duration_ticks": 120,
          "channel": 4
        },
        {
          "note": 67,
          "start": 205.150588,
          "duration": 0.078704,
          "velocity": 0.629921,
          "start_tick": 310188,
          "duration_ticks": 119,
          "channel": 4
        },
        {
          "note": 82,
          "start": 205.229292,
          "duration": 0.078704,
          "velocity": 0.629921,
          "start_tick": 310307,
          "duration_ticks": 119,
          "channel": 4
        },
        {
          "note": 80,
          "start": 205.307996,
          "duration": 0.078042,
          "velocity": 0.629921,
          "start_tick": 310426,
          "duration_ticks": 118,
          "channel": 4
        },
        {
          "note": 75,
          "start": 205.386038,
          "duration": 0.078704,
          "velocity": 0.629921,
          "start_tick": 310544,
          "duration_ticks": 119,
          "channel": 4
        },
        {
          "note": 70,
          "start": 205.464742,
          "duration": 0.078704,
          "velocity": 0.629921,
          "start_tick": 310663,
          "duration_ticks": 119,
          "channel": 4
        },
        {
          "note": 75,
          "start": 205.543445,
          "duration": 0.078042,
          "velocity": 0.629921,
          "start_tick": 310782,
          "duration_ticks": 118,
          "channel": 4
        },
        {
          "note": 70,
          "start": 205.621488,
          "duration": 0.078704,
          "velocity": 0.629921,
          "start_tick": 310900,
          "duration_ticks": 119,
          "channel": 4
        },
        {
          "note": 67,
          "start": 205.700191,
          "duration": 0.078704,
          "velocity": 0.629921,
          "start_tick": 311019,
          "duration_ticks": 119,
          "channel": 4
        },
        {
          "note": 63,
          "start": 205.778895,
          "duration": 0.078042,
          "velocity": 0.629921,
          "start_tick": 311138,
          "duration_ticks": 118,
          "channel": 4
        },
        {
          "note": 67,
          "start": 205.856937,
          "duration": 0.078704,
          "velocity": 0.629921,
          "start_tick": 311256,
          "duration_ticks": 119,
          "channel": 4
        },
        {
          "note": 71,
          "start": 205.935641,
          "duration": 0.078704,
          "velocity": 0.629921,
          "start_tick": 311375,
          "duration_ticks": 119,
          "channel": 4
        },
        {
          "note": 74,
          "start": 206.014344,
          "duration": 0.078042,
          "velocity": 0.629921,
          "start_tick": 311494,
          "duration_ticks": 118,
          "channel": 4
        },
        {
          "note": 79,
          "start": 206.092387,
          "duration": 0.078704,
          "velocity": 0.629921,
          "start_tick": 311612,
          "duration_ticks": 119,
          "channel": 4
        },
        {
          "note": 71,
          "start": 206.17109,
          "duration": 0.078704,
          "velocity": 0.629921,
          "start_tick": 311731,
          "duration_ticks": 119,
          "channel": 4
        },
        {
          "note": 74,
          "start": 206.249794,
          "duration": 0.078704,
          "velocity": 0.629921,
          "start_tick": 311850,
          "duration_ticks": 119,
          "channel": 4
        },
        {
          "note": 79,
          "start": 206.328497,
          "duration": 0.078042,
          "velocity": 0.629921,
          "start_tick": 311969,
          "duration_ticks": 118,
          "channel": 4
        },
        {
          "note": 83,
          "start": 206.40654,
          "duration": 0.078704,
          "velocity": 0.629921,
          "start_tick": 312087,
          "duration_ticks": 119,
          "channel": 4
        },
        {
          "note": 74,
          "start": 206.485243,
          "duration": 0.078704,
          "velocity": 0.629921,
          "start_tick": 312206,
          "duration_ticks": 119,
          "channel": 4
        },
        {
          "note": 79,
          "start": 206.563947,
          "duration": 0.078042,
          "velocity": 0.629921,
          "start_tick": 312325,
          "duration_ticks": 118,
          "channel": 4
        },
        {
          "note": 83,
          "start": 206.641989,
          "duration": 0.078704,
          "velocity": 0.629921,
          "start_tick": 312443,
          "duration_ticks": 119,
          "channel": 4
        },
        {
          "note": 86,
          "start": 206.720693,
          "duration": 0.078704,
          "velocity": 0.629921,
          "start_tick": 312562,
          "duration_ticks": 119,
          "channel": 4
        },
        {
          "note": 79,
          "start": 206.799396,
          "duration": 0.078042,
          "velocity": 0.629921,
          "start_tick": 312681,
          "duration_ticks": 118,
          "channel": 4
        },
        {
          "note": 83,
          "start": 206.877439,
          "duration": 0.078704,
          "velocity": 0.629921,
          "start_tick": 312799,
          "duration_ticks": 119,
          "channel": 4
        },
        {
          "note": 86,
          "start": 206.956142,
          "duration": 0.078704,
          "velocity": 0.629921,
          "start_tick": 312918,
          "duration_ticks": 119,
          "channel": 4
        },
        {
          "note": 91,
          "start": 207.034846,
          "duration": 0.078042,
          "velocity": 0.629921,
          "start_tick": 313037,
          "duration_ticks": 118,
          "channel": 4
        },
        {
          "note": 86,
          "start": 207.112888,
          "duration": 0.078704,
          "velocity": 0.629921,
          "start_tick": 313155,
          "duration_ticks": 119,
          "channel": 4
        },
        {
          "note": 83,
          "start": 207.191592,
          "duration": 0.078704,
          "velocity": 0.629921,
          "start_tick": 313274,
          "duration_ticks": 119,
          "channel": 4
        },
        {
          "note": 79,
          "start": 207.270295,
          "duration": 0.078704,
          "velocity": 0.629921,
          "start_tick": 313393,
          "duration_ticks": 119,
          "channel": 4
        },
        {
          "note": 74,
          "start": 207.348999,
          "duration": 0.078042,
          "velocity": 0.629921,
          "start_tick": 313512,
          "duration_ticks": 118,
          "channel": 4
        },
        {
          "note": 84,
          "start": 207.427041,
          "duration": 0.078704,
          "velocity": 0.629921,
          "start_tick": 313630,
          "duration_ticks": 119,
          "channel": 4
        },
        {
          "note": 79,
          "start": 207.505745,
          "duration": 0.078704,
          "velocity": 0.629921,
          "start_tick": 313749,
          "duration_ticks": 119,
          "channel": 4
        },
        {
          "note": 74,
          "start": 207.584449,
          "duration": 0.078042,
          "velocity": 0.629921,
          "start_tick": 313868,
          "duration_ticks": 118,
          "channel": 4
        },
        {
          "note": 71,
          "start": 207.662491,
          "duration": 0.078704,
          "velocity": 0.629921,
          "start_tick": 313986,
          "duration_ticks": 119,
          "channel": 4
        },
        {
          "note": 86,
          "start": 207.741194,
          "duration": 0.078704,
          "velocity": 0.629921,
          "start_tick": 314105,
          "duration_ticks": 119,
          "channel": 4
        },
        {
          "note": 84,
          "start": 207.819898,
          "duration": 0.078042,
          "velocity": 0.629921,
          "start_tick": 314224,
          "duration_ticks": 118,
          "channel": 4
        },
        {
          "note": 79,
          "start": 207.89794,
          "duration": 0.078704,
          "velocity": 0.629921,
          "start_tick": 314342,
          "duration_ticks": 119,
          "channel": 4
        },
        {
          "note": 74,
          "start": 207.976644,
          "duration": 0.078704,
          "velocity": 0.629921,
          "start_tick": 314461,
          "duration_ticks": 119,
          "channel": 4
        },
        {
          "note": 79,
          "start": 208.055348,
          "duration": 0.078042,
          "velocity": 0.629921,
          "start_tick": 314580,
          "duration_ticks": 118,
          "channel": 4
        },
        {
          "note": 74,
          "start": 208.13339,
          "duration": 0.078704,
          "velocity": 0.629921,
          "start_tick": 314698,
          "duration_ticks": 119,
          "channel": 4
        },
        {
          "note": 71,
          "start": 208.212093,
          "duration": 0.078704,
          "velocity": 0.629921,
          "start_tick": 314817,
          "duration_ticks": 119,
          "channel": 4
        },
        {
          "note": 67,
          "start": 208.290797,
          "duration": 0.078042,
          "velocity": 0.629921,
          "start_tick": 314936,
          "duration_ticks": 118,
          "channel": 4
        },
        {
          "note": 65,
          "start": 208.368839,
          "duration": 0.078704,
          "velocity": 0.629921,
          "start_tick": 315054,
          "duration_ticks": 119,
          "channel": 4
        },
        {
          "note": 68,
          "start": 208.447543,
          "duration": 0.078704,
          "velocity": 0.629921,
          "start_tick": 315173,
          "duration_ticks": 119,
          "channel": 4
        },
        {
          "note": 72,
          "start": 208.526247,
          "duration": 0.078704,
          "velocity": 0.629921,
          "start_tick": 315292,
          "duration_ticks": 119,
          "channel": 4
        },
        {
          "note": 77,
          "start": 208.60495,
          "duration": 0.078042,
          "velocity": 0.629921,
          "start_tick": 315411,
          "duration_ticks": 118,
          "channel": 4
        },
        {
          "note": 68,
          "start": 208.682992,
          "duration": 0.078704,
          "velocity": 0.629921,
          "start_tick": 315529,
          "duration_ticks": 119,
          "channel": 4
        },
        {
          "note": 72,
          "start": 208.761696,
          "duration": 0.078704,
          "velocity": 0.629921,
          "start_tick": 315648,
          "duration_ticks": 119,
          "channel": 4
        },
        {
          "note": 77,
          "start": 208.8404,
          "duration": 0.078042,
          "velocity": 0.629921,
          "start_tick": 315767,
          "duration_ticks": 118,
          "channel": 4
        },
        {
          "note": 80,
          "start": 208.918442,
          "duration": 0.078704,
          "velocity": 0.629921,
          "start_tick": 315885,
          "duration_ticks": 119,
          "channel": 4
        },
        {
          "note": 72,
          "start": 208.997145,
          "duration": 0.078704,
          "velocity": 0.629921,
          "start_tick": 316004,
          "duration_ticks": 119,
          "channel": 4
        },
        {
          "note": 77,
          "start": 209.075849,
          "duration": 0.078042,
          "velocity": 0.629921,
          "start_tick": 316123,
          "duration_ticks": 118,
          "channel": 4
        },
        {
          "note": 80,
          "start": 209.153891,
          "duration": 0.078704,
          "velocity": 0.629921,
          "start_tick": 316241,
          "duration_ticks": 119,
          "channel": 4
        },
        {
          "note": 84,
          "start": 209.232595,
          "duration": 0.078704,
          "velocity": 0.629921,
          "start_tick": 316360,
          "duration_ticks": 119,
          "channel": 4
        },
        {
          "note": 77,
          "start": 209.311299,
          "duration": 0.078042,
          "velocity": 0.629921,
          "start_tick": 316479,
          "duration_ticks": 118,
          "channel": 4
        },
        {
          "note": 80,
          "start": 209.389341,
          "duration": 0.078704,
          "velocity": 0.629921,
          "start_tick": 316597,
          "duration_ticks": 119,
          "channel": 4
        },
        {
          "note": 84,
          "start": 209.468044,
          "duration": 0.078704,
          "velocity": 0.629921,
          "start_tick": 316716,
          "duration_ticks": 119,
          "channel": 4
        },
        {
          "note": 89,
          "start": 209.546748,
          "duration": 0.078042,
          "velocity": 0.629921,
          "start_tick": 316835,
          "duration_ticks": 118,
          "channel": 4
        },
        {
          "note": 84,
          "start": 209.62479,
          "duration": 0.078704,
          "velocity": 0.629921,
          "start_tick": 316953,
          "duration_ticks": 119,
          "channel": 4
        },
        {
          "note": 80,
          "start": 209.703494,
          "duration": 0.078704,
          "velocity": 0.629921,
          "start_tick": 317072,
          "duration_ticks": 119,
          "channel": 4
        },
        {
          "note": 77,
          "start": 209.782198,
          "duration": 0.078704,
          "velocity": 0.629921,
          "start_tick": 317191,
          "duration_ticks": 119,
          "channel": 4
        },
        {
          "note": 72,
          "start": 209.860901,
          "duration": 0.078042,
          "velocity": 0.629921,
          "start_tick": 317310,
          "duration_ticks": 118,
          "channel": 4
        },
        {
          "note": 80,
          "start": 209.938943,
          "duration": 0.078704,
          "velocity": 0.629921,
          "start_tick": 317428,
          "duration_ticks": 119,
          "channel": 4
        },
        {
          "note": 77,
          "start": 210.017647,
          "duration": 0.078704,
          "velocity": 0.629921,
          "start_tick": 317547,
          "duration_ticks": 119,
          "channel": 4
        },
        {
          "note": 72,
          "start": 210.096351,
          "duration": 0.078042,
          "velocity": 0.629921,
          "start_tick": 317666,
          "duration_ticks": 118,
          "channel": 4
        },
        {
          "note": 68,
          "start": 210.174393,
          "duration": 0.078704,
          "velocity": 0.629921,
          "start_tick": 317784,
          "duration_ticks": 119,
          "channel": 4
        },
        {
          "note": 84,
          "start": 210.253097,
          "duration": 0.078704,
          "velocity": 0.629921,
          "start_tick": 317903,
          "duration_ticks": 119,
          "channel": 4
        },
        {
          "note": 80,
          "start": 210.3318,
          "duration": 0.078042,
          "velocity": 0.629921,
          "start_tick": 318022,
          "duration_ticks": 118,
          "channel": 4
        },
        {
          "note": 77,
          "start": 210.409842,
          "duration": 0.078704,
          "velocity": 0.629921,
          "start_tick": 318140,
          "duration_ticks": 119,
          "channel": 4
        },
        {
          "note": 72,
          "start": 210.488546,
          "duration": 0.078704,
          "velocity": 0.629921,
          "start_tick": 318259,
          "duration_ticks": 119,
          "channel": 4
        },
        {
          "note": 77,
          "start": 210.56725,
          "duration": 0.078042,
          "velocity": 0.629921,
          "start_tick": 318378,
          "duration_ticks": 118,
          "channel": 4
        },
        {
          "note": 72,
          "start": 210.645292,
          "duration": 0.078704,
          "velocity": 0.629921,
          "start_tick": 318496,
          "duration_ticks": 119,
          "channel": 4
        },
        {
          "note": 68,
          "start": 210.723996,
          "duration": 0.078704,
          "velocity": 0.629921,
          "start_tick": 318615,
          "duration_ticks": 119,
          "channel": 4
        },
        {
          "note": 65,
          "start": 210.802699,
          "duration": 0.078042,
          "velocity": 0.629921,
          "start_tick": 318734,
          "duration_ticks": 118,
          "channel": 4
        },
        {
          "note": 60,
          "start": 210.880741,
          "duration": 0.078704,
          "velocity": 0.629921,
          "start_tick": 318852,
          "duration_ticks": 119,
          "channel": 4
        },
        {
          "note": 63,
          "start": 210.959445,
          "duration": 0.078704,
          "velocity": 0.629921,
          "start_tick": 318971,
          "duration_ticks": 119,
          "channel": 4
        },
        {
          "note": 65,
          "start": 211.038149,
          "duration": 0.078704,
          "velocity": 0.629921,
          "start_tick": 319090,
          "duration_ticks": 119,
          "channel": 4
        },
        {
          "note": 67,
          "start": 211.116852,
          "duration": 0.078042,
          "velocity": 0.629921,
          "start_tick": 319209,
          "duration_ticks": 118,
          "channel": 4
        },
        {
          "note": 63,
          "start": 211.194895,
          "duration": 0.078704,
          "velocity": 0.629921,
          "start_tick": 319327,
          "duration_ticks": 119,
          "channel": 4
        },
        {
          "note": 65,
          "start": 211.273598,
          "duration": 0.078704,
          "velocity": 0.629921,
          "start_tick": 319446,
          "duration_ticks": 119,
          "channel": 4
        },
        {
          "note": 67,
          "start": 211.352302,
          "duration": 0.078042,
          "velocity": 0.629921,
          "start_tick": 319565,
          "duration_ticks": 118,
          "channel": 4
        },
        {
          "note": 72,
          "start": 211.430344,
          "duration": 0.078704,
          "velocity": 0.629921,
          "start_tick": 319683,
          "duration_ticks": 119,
          "channel": 4
        },
        {
          "note": 67,
          "start": 211.509048,
          "duration": 0.078704,
          "velocity": 0.629921,
          "start_tick": 319802,
          "duration_ticks": 119,
          "channel": 4
        },
        {
          "note": 72,
          "start": 211.587751,
          "duration": 0.078042,
          "velocity": 0.629921,
          "start_tick": 319921,
          "duration_ticks": 118,
          "channel": 4
        },
        {
          "note": 75,
          "start": 211.665794,
          "duration": 0.078704,
          "velocity": 0.629921,
          "start_tick": 320039,
          "duration_ticks": 119,
          "channel": 4
        },
        {
          "note": 77,
          "start": 211.744497,
          "duration": 0.078704,
          "velocity": 0.629921,
          "start_tick": 320158,
          "duration_ticks": 119,
          "channel": 4
        },
        {
          "note": 75,
          "start": 211.823201,
          "duration": 0.078042,
          "velocity": 0.629921,
          "start_tick": 320277,
          "duration_ticks": 118,
          "channel": 4
        },
        {
          "note": 77,
          "start": 211.901243,
          "duration": 0.078704,
          "velocity": 0.629921,
          "start_tick": 320395,
          "duration_ticks": 119,
          "channel": 4
        },
        {
          "note": 79,
          "start": 211.979947,
          "duration": 0.078704,
          "velocity": 0.629921,
          "start_tick": 320514,
          "duration_ticks": 119,
          "channel": 4
        },
        {
          "note": 84,
          "start": 212.05865,
          "duration": 0.078042,
          "velocity": 0.629921,
          "start_tick": 320633,
          "duration_ticks": 118,
          "channel": 4
        },
        {
          "note": 79,
          "start": 212.136693,
          "duration": 0.078704,
          "velocity": 0.629921,
          "start_tick": 320751,
          "duration_ticks": 119,
          "channel": 4
        },
        {
          "note": 77,
          "start": 212.215396,
          "duration": 0.078704,
          "velocity": 0.629921,
          "start_tick": 320870,
          "duration_ticks": 119,
          "channel": 4
        },
        {
          "note": 75,
          "start": 212.2941,
          "duration": 0.078704,
          "velocity": 0.629921,
          "start_tick": 320989,
          "duration_ticks": 119,
          "channel": 4
        },
        {
          "note": 79,
          "start": 212.372804,
          "duration": 0.078042,
          "velocity": 0.629921,
          "start_tick": 321108,
          "duration_ticks": 118,
          "channel": 4
        },
        {
          "note": 77,
          "start": 212.450846,
          "duration": 0.078704,
          "velocity": 0.629921,
          "start_tick": 321226,
          "duration_ticks": 119,
          "channel": 4
        },
        {
          "note": 75,
          "start": 212.529549,
          "duration": 0.078704,
          "velocity": 0.629921,
          "start_tick": 321345,
          "duration_ticks": 119,
          "channel": 4
        },
        {
          "note": 72,
          "start": 212.608253,
          "duration": 0.078042,
          "velocity": 0.629921,
          "start_tick": 321464,
          "duration_ticks": 118,
          "channel": 4
        },
        {
          "note": 77,
          "start": 212.686295,
          "duration": 0.078704,
          "velocity": 0.629921,
          "start_tick": 321582,
          "duration_ticks": 119,
          "channel": 4
        },
        {
          "note": 75,
          "start": 212.764999,
          "duration": 0.078704,
          "velocity": 0.629921,
          "start_tick": 321701,
          "duration_ticks": 119,
          "channel": 4
        },
        {
          "note": 72,
          "start": 212.843703,
          "duration": 0.078042,
          "velocity": 0.629921,
          "start_tick": 321820,
          "duration_ticks": 118,
          "channel": 4
        },
        {
          "note": 67,
          "start": 212.921745,
          "duration": 0.078704,
          "velocity": 0.629921,
          "start_tick": 321938,
          "duration_ticks": 119,
          "channel": 4
        },
        {
          "note": 65,
          "start": 213.000448,
          "duration": 0.078704,
          "velocity": 0.629921,
          "start_tick": 322057,
          "duration_ticks": 119,
          "channel": 4
        },
        {
          "note": 72,
          "start": 213.079152,
          "duration": 0.078042,
          "velocity": 0.629921,
          "start_tick": 322176,
          "duration_ticks": 118,
          "channel": 4
        },
        {
          "note": 67,
          "start": 213.157194,
          "duration": 0.078704,
          "velocity": 0.629921,
          "start_tick": 322294,
          "duration_ticks": 119,
          "channel": 4
        },
        {
          "note": 65,
          "start": 213.235898,
          "duration": 0.078704,
          "velocity": 0.629921,
          "start_tick": 322413,
          "duration_ticks": 119,
          "channel": 4
        },
        {
          "note": 60,
          "start": 213.314602,
          "duration": 0.078704,
          "velocity": 0.629921,
          "start_tick": 322532,
          "duration_ticks": 119,
          "channel": 4
        },
        {
          "note": 63,
          "start": 213.393305,
          "duration": 0.078042,
          "velocity": 0.629921,
          "start_tick": 322651,
          "duration_ticks": 118,
          "channel": 4
        },
        {
          "note": 67,
          "start": 213.471347,
          "duration": 0.078704,
          "velocity": 0.629921,
          "start_tick": 322769,
          "duration_ticks": 119,
          "channel": 4
        },
        {
          "note": 70,
          "start": 213.550051,
          "duration": 0.078704,
          "velocity": 0.629921,
          "start_tick": 322888,
          "duration_ticks": 119,
          "channel": 4
        },
        {
          "note": 75,
          "start": 213.628755,
          "duration": 0.078042,
          "velocity": 0.629921,
          "start_tick": 323007,
          "duration_ticks": 118,
          "channel": 4
        },
        {
          "note": 67,
          "start": 213.706797,
          "duration": 0.078704,
          "velocity": 0.629921,
          "start_tick": 323125,
          "duration_ticks": 119,
          "channel": 4
        },
        {
          "note": 70,
          "start": 213.785501,
          "duration": 0.078704,
          "velocity": 0.629921,
          "start_tick": 323244,
          "duration_ticks": 119,
          "channel": 4
        },
        {
          "note": 75,
          "start": 213.864204,
          "duration": 0.078042,
          "velocity": 0.629921,
          "start_tick": 323363,
          "duration_ticks": 118,
          "channel": 4
        },
        {
          "note": 79,
          "start": 213.942246,
          "duration": 0.078704,
          "velocity": 0.629921,
          "start_tick": 323481,
          "duration_ticks": 119,
          "channel": 4
        },
        {
          "note": 70,
          "start": 214.02095,
          "duration": 0.078704,
          "velocity": 0.629921,
          "start_tick": 323600,
          "duration_ticks": 119,
          "channel": 4
        },
        {
          "note": 75,
          "start": 214.099654,
          "duration": 0.078042,
          "velocity": 0.629921,
          "start_tick": 323719,
          "duration_ticks": 118,
          "channel": 4
        },
        {
          "note": 79,
          "start": 214.177696,
          "duration": 0.078704,
          "velocity": 0.629921,
          "start_tick": 323837,
          "duration_ticks": 119,
          "channel": 4
        },
        {
          "note": 82,
          "start": 214.256399,
          "duration": 0.078704,
          "velocity": 0.629921,
          "start_tick": 323956,
          "duration_ticks": 119,
          "channel": 4
        },
        {
          "note": 75,
          "start": 214.335103,
          "duration": 0.078042,
          "velocity": 0.629921,
          "start_tick": 324075,
          "duration_ticks": 118,
          "channel": 4
        },
        {
          "note": 79,
          "start": 214.413145,
          "duration": 0.078704,
          "velocity": 0.629921,
          "start_tick": 324193,
          "duration_ticks": 119,
          "channel": 4
        },
        {
          "note": 82,
          "start": 214.491849,
          "duration": 0.078704,
          "velocity": 0.629921,
          "start_tick": 324312,
          "duration_ticks": 119,
          "channel": 4
        },
        {
          "note": 87,
          "start": 214.570553,
          "duration": 0.078704,
          "velocity": 0.629921,
          "start_tick": 324431,
          "duration_ticks": 119,
          "channel": 4
        },
        {
          "note": 82,
          "start": 214.649256,
          "duration": 0.078042,
          "velocity": 0.629921,
          "start_tick": 324550,
          "duration_ticks": 118,
          "channel": 4
        },
        {
          "note": 79,
          "start": 214.727298,
          "duration": 0.078704,
          "velocity": 0.629921,
          "start_tick": 324668,
          "duration_ticks": 119,
          "channel": 4
        },
        {
          "note": 75,
          "start": 214.806002,
          "duration": 0.078704,
          "velocity": 0.629921,
          "start_tick": 324787,
          "duration_ticks": 119,
          "channel": 4
        },
        {
          "note": 70,
          "start": 214.884706,
          "duration": 0.078042,
          "velocity": 0.629921,
          "start_tick": 324906,
          "duration_ticks": 118,
          "channel": 4
        },
        {
          "note": 80,
          "start": 214.962748,
          "duration": 0.078704,
          "velocity": 0.629921,
          "start_tick": 325024,
          "duration_ticks": 119,
          "channel": 4
        },
        {
          "note": 75,
          "start": 215.041452,
          "duration": 0.078704,
          "velocity": 0.629921,
          "start_tick": 325143,
          "duration_ticks": 119,
          "channel": 4
        },
        {
          "note": 70,
          "start": 215.120155,
          "duration": 0.078042,
          "velocity": 0.629921,
          "start_tick": 325262,
          "duration_ticks": 118,
          "channel": 4
        },
        {
          "note": 67,
          "start": 215.198197,
          "duration": 0.078704,
          "velocity": 0.629921,
          "start_tick": 325380,
          "duration_ticks": 119,
          "channel": 4
        },
        {
          "note": 82,
          "start": 215.276901,
          "duration": 0.078704,
          "velocity": 0.629921,
          "start_tick": 325499,
          "duration_ticks": 119,
          "channel": 4
        },
        {
          "note": 80,
          "start": 215.355605,
          "duration": 0.078042,
          "velocity": 0.629921,
          "start_tick": 325618,
          "duration_ticks": 118,
          "channel": 4
        },
        {
          "note": 75,
          "start": 215.433647,
          "duration": 0.078704,
          "velocity": 0.629921,
          "start_tick": 325736,
          "duration_ticks": 119,
          "channel": 4
        },
        {
          "note": 70,
          "start": 215.512351,
          "duration": 0.078704,
          "velocity": 0.629921,
          "start_tick": 325855,
          "duration_ticks": 119,
          "channel": 4
        },
        {
          "note": 75,
          "start": 215.591054,
          "duration": 0.078042,
          "velocity": 0.629921,
          "start_tick": 325974,
          "duration_ticks": 118,
          "channel": 4
        },
        {
          "note": 70,
          "start": 215.669096,
          "duration": 0.078704,
          "velocity": 0.629921,
          "start_tick": 326092,
          "duration_ticks": 119,
          "channel": 4
        },
        {
          "note": 67,
          "start": 215.7478,
          "duration": 0.078704,
          "velocity": 0.629921,
          "start_tick": 326211,
          "duration_ticks": 119,
          "channel": 4
        },
        {
          "note": 63,
          "start": 215.826504,
          "duration": 0.078704,
          "velocity": 0.629921,
          "start_tick": 326330,
          "duration_ticks": 119,
          "channel": 4
        },
        {
          "note": 67,
          "start": 215.905207,
          "duration": 0.078042,
          "velocity": 0.629921,
          "start_tick": 326449,
          "duration_ticks": 118,
          "channel": 4
        },
        {
          "note": 71,
          "start": 215.98325,
          "duration": 0.078704,
          "velocity": 0.629921,
          "start_tick": 326567,
          "duration_ticks": 119,
          "channel": 4
        },
        {
          "note": 74,
          "start": 216.061953,
          "duration": 0.078704,
          "velocity": 0.629921,
          "start_tick": 326686,
          "duration_ticks": 119,
          "channel": 4
        },
        {
          "note": 79,
          "start": 216.140657,
          "duration": 0.078042,
          "velocity": 0.629921,
          "start_tick": 326805,
          "duration_ticks": 118,
          "channel": 4
        },
        {
          "note": 71,
          "start": 216.218699,
          "duration": 0.078704,
          "velocity": 0.629921,
          "start_tick": 326923,
          "duration_ticks": 119,
          "channel": 4
        },
        {
          "note": 74,
          "start": 216.297403,
          "duration": 0.078704,
          "velocity": 0.629921,
          "start_tick": 327042,
          "duration_ticks": 119,
          "channel": 4
        },
        {
          "note": 79,
          "start": 216.376106,
          "duration": 0.078042,
          "velocity": 0.629921,
          "start_tick": 327161,
          "duration_ticks": 118,
          "channel": 4
        },
        {
          "note": 83,
          "start": 216.454149,
          "duration": 0.078704,
          "velocity": 0.629921,
          "start_tick": 327279,
          "duration_ticks": 119,
          "channel": 4
        },
        {
          "note": 74,
          "start": 216.532852,
          "duration": 0.078704,
          "velocity": 0.629921,
          "start_tick": 327398,
          "duration_ticks": 119,
          "channel": 4
        },
        {
          "note": 79,
          "start": 216.611556,
          "duration": 0.078042,
          "velocity": 0.629921,
          "start_tick": 327517,
          "duration_ticks": 118,
          "channel": 4
        },
        {
          "note": 83,
          "start": 216.689598,
          "duration": 0.078704,
          "velocity": 0.629921,
          "start_tick": 327635,
          "duration_ticks": 119,
          "channel": 4
        },
        {
          "note": 86,
          "start": 216.768302,
          "duration": 0.078704,
          "velocity": 0.629921,
          "start_tick": 327754,
          "duration_ticks": 119,
          "channel": 4
        },
        {
          "note": 79,
          "start": 216.847005,
          "duration": 0.078042,
          "velocity": 0.629921,
          "start_tick": 327873,
          "duration_ticks": 118,
          "channel": 4
        },
        {
          "note": 83,
          "start": 216.925048,
          "duration": 0.078704,
          "velocity": 0.629921,
          "start_tick": 327991,
          "duration_ticks": 119,
          "channel": 4
        },
        {
          "note": 86,
          "start": 217.003751,
          "duration": 0.078704,
          "velocity": 0.629921,
          "start_tick": 328110,
          "duration_ticks": 119,
          "channel": 4
        },
        {
          "note": 91,
          "start": 217.082455,
          "duration": 0.078704,
          "velocity": 0.629921,
          "start_tick": 328229,
          "duration_ticks": 119,
          "channel": 4
        },
        {
          "note": 86,
          "start": 217.161158,
          "duration": 0.078042,
          "velocity": 0.629921,
          "start_tick": 328348,
          "duration_ticks": 118,
          "channel": 4
        },
        {
          "note": 83,
          "start": 217.239201,
          "duration": 0.078704,
          "velocity": 0.629921,
          "start_tick": 328466,
          "duration_ticks": 119,
          "channel": 4
        },
        {
          "note": 79,
          "start": 217.317904,
          "duration": 0.078704,
          "velocity": 0.629921,
          "start_tick": 328585,
          "duration_ticks": 119,
          "channel": 4
        },
        {
          "note": 74,
          "start": 217.396608,
          "duration": 0.078042,
          "velocity": 0.629921,
          "start_tick": 328704,
          "duration_ticks": 118,
          "channel": 4
        },
        {
          "note": 84,
          "start": 217.47465,
          "duration": 0.078704,
          "velocity": 0.629921,
          "start_tick": 328822,
          "duration_ticks": 119,
          "channel": 4
        },
        {
          "note": 79,
          "start": 217.553354,
          "duration": 0.078704,
          "velocity": 0.629921,
          "start_tick": 328941,
          "duration_ticks": 119,
          "channel": 4
        },
        {
          "note": 74,
          "start": 217.632058,
          "duration": 0.078042,
          "velocity": 0.629921,
          "start_tick": 329060,
          "duration_ticks": 118,
          "channel": 4
        },
        {
          "note": 71,
          "start": 217.7101,
          "duration": 0.078704,
          "velocity": 0.629921,
          "start_tick": 329178,
          "duration_ticks": 119,
          "channel": 4
        },
        {
          "note": 86,
          "start": 217.788803,
          "duration": 0.078704,
          "velocity": 0.629921,
          "start_tick": 329297,
          "duration_ticks": 119,
          "channel": 4
        },
        {
          "note": 84,
          "start": 217.867507,
          "duration": 0.078042,
          "velocity": 0.629921,
          "start_tick": 329416,
          "duration_ticks": 118,
          "channel": 4
        },
        {
          "note": 79,
          "start": 217.945549,
          "duration": 0.078704,
          "velocity": 0.629921,
          "start_tick": 329534,
          "duration_ticks": 119,
          "channel": 4
        },
        {
          "note": 74,
          "start": 218.024253,
          "duration": 0.078704,
          "velocity": 0.629921,
          "start_tick": 329653,
          "duration_ticks": 119,
          "channel": 4
        },
        {
          "note": 79,
          "start": 218.102957,
          "duration": 0.078704,
          "velocity": 0.629921,
          "start_tick": 329772,
          "duration_ticks": 119,
          "channel": 4
        },
        {
          "note": 74,
          "start": 218.18166,
          "duration": 0.078042,
          "velocity": 0.629921,
          "start_tick": 329891,
          "duration_ticks": 118,
          "channel": 4
        },
        {
          "note": 71,
          "start": 218.259702,
          "duration": 0.078704,
          "velocity": 0.629921,
          "start_tick": 330009,
          "duration_ticks": 119,
          "channel": 4
        },
        {
          "note": 67,
          "start": 218.338406,
          "duration": 0.078704,
          "velocity": 0.629921,
          "start_tick": 330128,
          "duration_ticks": 119,
          "channel": 4
        },
        {
          "note": 65,
          "start": 218.41711,
          "duration": 0.078042,
          "velocity": 0.629921,
          "start_tick": 330247,
          "duration_ticks": 118,
          "channel": 4
        },
        {
          "note": 68,
          "start": 218.495152,
          "duration": 0.078704,
          "velocity": 0.629921,
          "start_tick": 330365,
          "duration_ticks": 119,
          "channel": 4
        },
        {
          "note": 72,
          "start": 218.573856,
          "duration": 0.078704,
          "velocity": 0.629921,
          "start_tick": 330484,
          "duration_ticks": 119,
          "channel": 4
        },
        {
          "note": 77,
          "start": 218.652559,
          "duration": 0.078042,
          "velocity": 0.629921,
          "start_tick": 330603,
          "duration_ticks": 118,
          "channel": 4
        },
        {
          "note": 68,
          "start": 218.730601,
          "duration": 0.078704,
          "velocity": 0.629921,
          "start_tick": 330721,
          "duration_ticks": 119,
          "channel": 4
        },
        {
          "note": 72,
          "start": 218.809305,
          "duration": 0.078704,
          "velocity": 0.629921,
          "start_tick": 330840,
          "duration_ticks": 119,
          "channel": 4
        },
        {
          "note": 77,
          "start": 218.888009,
          "duration": 0.078042,
          "velocity": 0.629921,
          "start_tick": 330959,
          "duration_ticks": 118,
          "channel": 4
        },
        {
          "note": 80,
          "start": 218.966051,
          "duration": 0.078704,
          "velocity": 0.629921,
          "start_tick": 331077,
          "duration_ticks": 119,
          "channel": 4
        },
        {
          "note": 72,
          "start": 219.044755,
          "duration": 0.078704,
          "velocity": 0.629921,
          "start_tick": 331196,
          "duration_ticks": 119,
          "channel": 4
        },
        {
          "note": 77,
          "start": 219.123458,
          "duration": 0.078042,
          "velocity": 0.629921,
          "start_tick": 331315,
          "duration_ticks": 118,
          "channel": 4
        },
        {
          "note": 80,
          "start": 219.2015,
          "duration": 0.078704,
          "velocity": 0.629921,
          "start_tick": 331433,
          "duration_ticks": 119,
          "channel": 4
        },
        {
          "note": 84,
          "start": 219.280204,
          "duration": 0.078704,
          "velocity": 0.629921,
          "start_tick": 331552,
          "duration_ticks": 119,
          "channel": 4
        },
        {
          "note": 77,
          "start": 219.358908,
          "duration": 0.078704,
          "velocity": 0.629921,
          "start_tick": 331671,
          "duration_ticks": 119,
          "channel": 4
        },
        {
          "note": 80,
          "start": 219.437611,
          "duration": 0.078042,
          "velocity": 0.629921,
          "start_tick": 331790,
          "duration_ticks": 118,
          "channel": 4
        },
        {
          "note": 84,
          "start": 219.515654,
          "duration": 0.078704,
          "velocity": 0.629921,
          "start_tick": 331908,
          "duration_ticks": 119,
          "channel": 4
        },
        {
          "note": 89,
          "start": 219.594357,
          "duration": 0.078704,
          "velocity": 0.629921,
          "start_tick": 332027,
          "duration_ticks": 119,
          "channel": 4
        },
        {
          "note": 84,
          "start": 219.673061,
          "duration": 0.078042,
          "velocity": 0.629921,
          "start_tick": 332146,
          "duration_ticks": 118,
          "channel": 4
        },
        {
          "note": 80,
          "start": 219.751103,
          "duration": 0.078704,
          "velocity": 0.629921,
          "start_tick": 332264,
          "duration_ticks": 119,
          "channel": 4
        },
        {
          "note": 77,
          "start": 219.829807,
          "duration": 0.078704,
          "velocity": 0.629921,
          "start_tick": 332383,
          "duration_ticks": 119,
          "channel": 4
        },
        {
          "note": 72,
          "start": 219.90851,
          "duration": 0.078042,
          "velocity": 0.629921,
          "start_tick": 332502,
          "duration_ticks": 118,
          "channel": 4
        },
        {
          "note": 80,
          "start": 219.986552,
          "duration": 0.078704,
          "velocity": 0.629921,
          "start_tick": 332620,
          "duration_ticks": 119,
          "channel": 4
        },
        {
          "note": 77,
          "start": 220.065256,
          "duration": 0.078704,
          "velocity": 0.629921,
          "start_tick": 332739,
          "duration_ticks": 119,
          "channel": 4
        },
        {
          "note": 72,
          "start": 220.14396,
          "duration": 0.078042,
          "velocity": 0.629921,
          "start_tick": 332858,
          "duration_ticks": 118,
          "channel": 4
        },
        {
          "note": 68,
          "start": 220.222002,
          "duration": 0.078704,
          "velocity": 0.629921,
          "start_tick": 332976,
          "duration_ticks": 119,
          "channel": 4
        },
        {
          "note": 84,
          "start": 220.300706,
          "duration": 0.078704,
          "velocity": 0.629921,
          "start_tick": 333095,
          "duration_ticks": 119,
          "channel": 4
        },
        {
          "note": 80,
          "start": 220.379409,
          "duration": 0.078042,
          "velocity": 0.629921,
          "start_tick": 333214,
          "duration_ticks": 118,
          "channel": 4
        },
        {
          "note": 77,
          "start": 220.457451,
          "duration": 0.078704,
          "velocity": 0.629921,
          "start_tick": 333332,
          "duration_ticks": 119,
          "channel": 4
        },
        {
          "note": 72,
          "start": 220.536155,
          "duration": 0.078704,
          "velocity": 0.629921,
          "start_tick": 333451,
          "duration_ticks": 119,
          "channel": 4
        },
        {
          "note": 77,
          "start": 220.614859,
          "duration": 0.078704,
          "velocity": 0.629921,
          "start_tick": 333570,
          "duration_ticks": 119,
          "channel": 4
        },
        {
          "note": 72,
          "start": 220.693562,
          "duration": 0.078042,
          "velocity": 0.629921,
          "start_tick": 333689,
          "duration_ticks": 118,
          "channel": 4
        },
        {
          "note": 68,
          "start": 220.771605,
          "duration": 0.078704,
          "velocity": 0.629921,
          "start_tick": 333807,
          "duration_ticks": 119,
          "channel": 4
        },
        {
          "note": 65,
          "start": 220.850308,
          "duration": 0.078704,
          "velocity": 0.629921,
          "start_tick": 333926,
          "duration_ticks": 119,
          "channel": 4
        },
        {
          "note": 68,
          "start": 220.929012,
          "duration": 0.078042,
          "velocity": 0.629921,
          "start_tick": 334045,
          "duration_ticks": 118,
          "channel": 4
        },
        {
          "note": 72,
          "start": 221.007054,
          "duration": 0.078704,
          "velocity": 0.629921,
          "start_tick": 334163,
          "duration_ticks": 119,
          "channel": 4
        },
        {
          "note": 75,
          "start": 221.085758,
          "duration": 0.078704,
          "velocity": 0.629921,
          "start_tick": 334282,
          "duration_ticks": 119,
          "channel": 4
        },
        {
          "note": 80,
          "start": 221.164461,
          "duration": 0.078042,
          "velocity": 0.629921,
          "start_tick": 334401,
          "duration_ticks": 118,
          "channel": 4
        },
        {
          "note": 72,
          "start": 221.242504,
          "duration": 0.078704,
          "velocity": 0.629921,
          "start_tick": 334519,
          "duration_ticks": 119,
          "channel": 4
        },
        {
          "note": 75,
          "start": 221.321207,
          "duration": 0.078704,
          "velocity": 0.629921,
          "start_tick": 334638,
          "duration_ticks": 119,
          "channel": 4
        },
        {
          "note": 80,
          "start": 221.399911,
          "duration": 0.078042,
          "velocity": 0.629921,
          "start_tick": 334757,
          "duration_ticks": 118,
          "channel": 4
        },
        {
          "note": 84,
          "start": 221.477953,
          "duration": 0.078704,
          "velocity": 0.629921,
          "start_tick": 334875,
          "duration_ticks": 119,
          "channel": 4
        },
        {
          "note": 75,
          "start": 221.556657,
          "duration": 0.078704,
          "velocity": 0.629921,
          "start_tick": 334994,
          "duration_ticks": 119,
          "channel": 4
        },
        {
          "note": 80,
          "start": 221.63536,
          "duration": 0.078042,
          "velocity": 0.629921,
          "start_tick": 335113,
          "duration_ticks": 118,
          "channel": 4
        },
        {
          "note": 84,
          "start": 221.713403,
          "duration": 0.078704,
          "velocity": 0.629921,
          "start_tick": 335231,
          "duration_ticks": 119,
          "channel": 4
        },
        {
          "note": 87,
          "start": 221.792106,
          "duration": 0.078704,
          "velocity": 0.629921,
          "start_tick": 335350,
          "duration_ticks": 119,
          "channel": 4
        },
        {
          "note": 80,
          "start": 221.87081,
          "duration": 0.078704,
          "velocity": 0.629921,
          "start_tick": 335469,
          "duration_ticks": 119,
          "channel": 4
        },
        {
          "note": 84,
          "start": 221.949513,
          "duration": 0.078042,
          "velocity": 0.629921,
          "start_tick": 335588,
          "duration_ticks": 118,
          "channel": 4
        },
        {
          "note": 87,
          "start": 222.027556,
          "duration": 0.078704,
          "velocity": 0.629921,
          "start_tick": 335706,
          "duration_ticks": 119,
          "channel": 4
        },
        {
          "note": 92,
          "start": 222.106259,
          "duration": 0.078704,
          "velocity": 0.629921,
          "start_tick": 335825,
          "duration_ticks": 119,
          "channel": 4
        },
        {
          "note": 87,
          "start": 222.184963,
          "duration": 0.078042,
          "velocity": 0.629921,
          "start_tick": 335944,
          "duration_ticks": 118,
          "channel": 4
        },
        {
          "note": 84,
          "start": 222.263005,
          "duration": 0.078704,
          "velocity": 0.629921,
          "start_tick": 336062,
          "duration_ticks": 119,
          "channel": 4
        },
        {
          "note": 80,
          "start": 222.341709,
          "duration": 0.078704,
          "velocity": 0.629921,
          "start_tick": 336181,
          "duration_ticks": 119,
          "channel": 4
        },
        {
          "note": 75,
          "start": 222.420412,
          "duration": 0.078042,
          "velocity": 0.629921,
          "start_tick": 336300,
          "duration_ticks": 118,
          "channel": 4
        },
        {
          "note": 85,
          "start": 222.498455,
          "duration": 0.078704,
          "velocity": 0.629921,
          "start_tick": 336418,
          "duration_ticks": 119,
          "channel": 4
        },
        {
          "note": 80,
          "start": 222.577158,
          "duration": 0.078704,
          "velocity": 0.629921,
          "start_tick": 336537,
          "duration_ticks": 119,
          "channel": 4
        },
        {
          "note": 75,
          "start": 222.655862,
          "duration": 0.078042,
          "velocity": 0.629921,
          "start_tick": 336656,
          "duration_ticks": 118,
          "channel": 4
        },
        {
          "note": 72,
          "start": 222.733904,
          "duration": 0.078704,
          "velocity": 0.629921,
          "start_tick": 336774,
          "duration_ticks": 119,
          "channel": 4
        },
        {
          "note": 87,
          "start": 222.812608,
          "duration": 0.078704,
          "velocity": 0.629921,
          "start_tick": 336893,
          "duration_ticks": 119,
          "channel": 4
        },
        {
          "note": 85,
          "start": 222.891312,
          "duration": 0.078704,
          "velocity": 0.629921,
          "start_tick": 337012,
          "duration_ticks": 119,
          "channel": 4
        },
        {
          "note": 80,
          "start": 222.970015,
          "duration": 0.078042,
          "velocity": 0.629921,
          "start_tick": 337131,
          "duration_ticks": 118,
          "channel": 4
        },
        {
          "note": 75,
          "start": 223.048057,
          "duration": 0.078704,
          "velocity": 0.629921,
          "start_tick": 337249,
          "duration_ticks": 119,
          "channel": 4
        },
        {
          "note": 80,
          "start": 223.126761,
          "duration": 0.078704,
          "velocity": 0.629921,
          "start_tick": 337368,
          "duration_ticks": 119,
          "channel": 4
        },
        {
          "note": 75,
          "start": 223.205465,
          "duration": 0.078042,
          "velocity": 0.629921,
          "start_tick": 337487,
          "duration_ticks": 118,
          "channel": 4
        },
        {
          "note": 72,
          "start": 223.283507,
          "duration": 0.078704,
          "velocity": 0.629921,
          "start_tick": 337605,
          "duration_ticks": 119,
          "channel": 4
        },
        {
          "note": 68,
          "start": 223.362211,
          "duration": 0.078704,
          "velocity": 0.629921,
          "start_tick": 337724,
          "duration_ticks": 119,
          "channel": 4
        },
        {
          "note": 63,
          "start": 223.440914,
          "duration": 0.078042,
          "velocity": 0.629921,
          "start_tick": 337843,
          "duration_ticks": 118,
          "channel": 4
        },
        {
          "note": 67,
          "start": 223.518956,
          "duration": 0.078704,
          "velocity": 0.629921,
          "start_tick": 337961,
          "duration_ticks": 119,
          "channel": 4
        },
        {
          "note": 70,
          "start": 223.59766,
          "duration": 0.078704,
          "velocity": 0.629921,
          "start_tick": 338080,
          "duration_ticks": 119,
          "channel": 4
        },
        {
          "note": 75,
          "start": 223.676364,
          "duration": 0.078042,
          "velocity": 0.629921,
          "start_tick": 338199,
          "duration_ticks": 118,
          "channel": 4
        },
        {
          "note": 67,
          "start": 223.754406,
          "duration": 0.078704,
          "velocity": 0.629921,
          "start_tick": 338317,
          "duration_ticks": 119,
          "channel": 4
        },
        {
          "note": 70,
          "start": 223.83311,
          "duration": 0.078704,
          "velocity": 0.629921,
          "start_tick": 338436,
          "duration_ticks": 119,
          "channel": 4
        },
        {
          "note": 75,
          "start": 223.911813,
          "duration": 0.078042,
          "velocity": 0.629921,
          "start_tick": 338555,
          "duration_ticks": 118,
          "channel": 4
        },
        {
          "note": 79,
          "start": 223.989855,
          "duration": 0.078704,
          "velocity": 0.629921,
          "start_tick": 338673,
          "duration_ticks": 119,
          "channel": 4
        },
        {
          "note": 70,
          "start": 224.068559,
          "duration": 0.078704,
          "velocity": 0.629921,
          "start_tick": 338792,
          "duration_ticks": 119,
          "channel": 4
        },
        {
          "note": 75,
          "start": 224.147263,
          "duration": 0.078704,
          "velocity": 0.629921,
          "start_tick": 338911,
          "duration_ticks": 119,
          "channel": 4
        },
        {
          "note": 79,
          "start": 224.225966,
          "duration": 0.078042,
          "velocity": 0.629921,
          "start_tick": 339030,
          "duration_ticks": 118,
          "channel": 4
        },
        {
          "note": 82,
          "start": 224.304009,
          "duration": 0.078704,
          "velocity": 0.629921,
          "start_tick": 339148,
          "duration_ticks": 119,
          "channel": 4
        },
        {
          "note": 75,
          "start": 224.382712,
          "duration": 0.078704,
          "velocity": 0.629921,
          "start_tick": 339267,
          "duration_ticks": 119,
          "channel": 4
        },
        {
          "note": 79,
          "start": 224.461416,
          "duration": 0.078042,
          "velocity": 0.629921,
          "start_tick": 339386,
          "duration_ticks": 118,
          "channel": 4
        },
        {
          "note": 82,
          "start": 224.539458,
          "duration": 0.078704,
          "velocity": 0.629921,
          "start_tick": 339504,
          "duration_ticks": 119,
          "channel": 4
        },
        {
          "note": 87,
          "start": 224.618162,
          "duration": 0.078704,
          "velocity": 0.629921,
          "start_tick": 339623,
          "duration_ticks": 119,
          "channel": 4
        },
        {
          "note": 82,
          "start": 224.696865,
          "duration": 0.078042,
          "velocity": 0.629921,
          "start_tick": 339742,
          "duration_ticks": 118,
          "channel": 4
        },
        {
          "note": 79,
          "start": 224.774908,
          "duration": 0.078704,
          "velocity": 0.629921,
          "start_tick": 339860,
          "duration_ticks": 119,
          "channel": 4
        },
        {
          "note": 75,
          "start": 224.853611,
          "duration": 0.078704,
          "velocity": 0.629921,
          "start_tick": 339979,
          "duration_ticks": 119,
          "channel": 4
        },
        {
          "note": 70,
          "start": 224.932315,
          "duration": 0.079365,
          "velocity": 0.629921,
          "start_tick": 340098,
          "duration_ticks": 120,
          "channel": 4
        },
        {
          "note": 80,
          "start": 225.01168,
          "duration": 0.079365,
          "velocity": 0.629921,
          "start_tick": 340218,
          "duration_ticks": 120,
          "channel": 4
        },
        {
          "note": 75,
          "start": 225.091045,
          "duration": 0.079365,
          "velocity": 0.629921,
          "start_tick": 340338,
          "duration_ticks": 120,
          "channel": 4
        },
        {
          "note": 70,
          "start": 225.17041,
          "duration": 0.080026,
          "velocity": 0.629921,
          "start_tick": 340458,
          "duration_ticks": 121,
          "channel": 4
        },
        {
          "note": 67,
          "start": 225.250436,
          "duration": 0.079365,
          "velocity": 0.629921,
          "start_tick": 340579,
          "duration_ticks": 120,
          "channel": 4
        },
        {
          "note": 82,
          "start": 225.329801,
          "duration": 0.079365,
          "velocity": 0.629921,
          "start_tick": 340699,
          "duration_ticks": 120,
          "channel": 4
        },
        {
          "note": 80,
          "start": 225.409166,
          "duration": 0.079365,
          "velocity": 0.629921,
          "start_tick": 340819,
          "duration_ticks": 120,
          "channel": 4
        },
        {
          "note": 75,
          "start": 225.488531,
          "duration": 0.079365,
          "velocity": 0.629921,
          "start_tick": 340939,
          "duration_ticks": 120,
          "channel": 4
        },
        {
          "note": 70,
          "start": 225.567896,
          "duration": 0.080026,
          "velocity": 0.629921,
          "start_tick": 341059,
          "duration_ticks": 121,
          "channel": 4
        },
        {
          "note": 75,
          "start": 225.647922,
          "duration": 0.079365,
          "velocity": 0.629921,
          "start_tick": 341180,
          "duration_ticks": 120,
          "channel": 4
        },
        {
          "note": 70,
          "start": 225.727287,
          "duration": 0.079365,
          "velocity": 0.629921,
          "start_tick": 341300,
          "duration_ticks": 120,
          "channel": 4
        },
        {
          "note": 67,
          "start": 225.806653,
          "duration": 0.079365,
          "velocity": 0.629921,
          "start_tick": 341420,
          "duration_ticks": 120,
          "channel": 4
        },
        {
          "note": 63,
          "start": 225.886018,
          "duration": 0.080026,
          "velocity": 0.629921,
          "start_tick": 341540,
          "duration_ticks": 121,
          "channel": 4
        },
        {
          "note": 67,
          "start": 225.966044,
          "duration": 0.079365,
          "velocity": 0.629921,
          "start_tick": 341661,
          "duration_ticks": 120,
          "channel": 4
        },
        {
          "note": 71,
          "start": 226.045409,
          "duration": 0.079365,
          "velocity": 0.629921,
          "start_tick": 341781,
          "duration_ticks": 120,
          "channel": 4
        },
        {
          "note": 74,
          "start": 226.124774,
          "duration": 0.079365,
          "velocity": 0.629921,
          "start_tick": 341901,
          "duration_ticks": 120,
          "channel": 4
        },
        {
          "note": 79,
          "start": 226.204139,
          "duration": 0.079365,
          "velocity": 0.629921,
          "start_tick": 342021,
          "duration_ticks": 120,
          "channel": 4
        },
        {
          "note": 71,
          "start": 226.283504,
          "duration": 0.080026,
          "velocity": 0.629921,
          "start_tick": 342141,
          "duration_ticks": 121,
          "channel": 4
        },
        {
          "note": 74,
          "start": 226.36353,
          "duration": 0.079365,
          "velocity": 0.629921,
          "start_tick": 342262,
          "duration_ticks": 120,
          "channel": 4
        },
        {
          "note": 79,
          "start": 226.442895,
          "duration": 0.079365,
          "velocity": 0.629921,
          "start_tick": 342382,
          "duration_ticks": 120,
          "channel": 4
        },
        {
          "note": 83,
          "start": 226.52226,
          "duration": 0.079365,
          "velocity": 0.629921,
          "start_tick": 342502,
          "duration_ticks": 120,
          "channel": 4
        },
        {
          "note": 74,
          "start": 226.601625,
          "duration": 0.080026,
          "velocity": 0.629921,
          "start_tick": 342622,
          "duration_ticks": 121,
          "channel": 4
        },
        {
          "note": 79,
          "start": 226.681652,
          "duration": 0.079365,
          "velocity": 0.629921,
          "start_tick": 342743,
          "duration_ticks": 120,
          "channel": 4
        },
        {
          "note": 83,
          "start": 226.761017,
          "duration": 0.079365,
          "velocity": 0.629921,
          "start_tick": 342863,
          "duration_ticks": 120,
          "channel": 4
        },
        {
          "note": 86,
          "start": 226.840382,
          "duration": 0.079365,
          "velocity": 0.629921,
          "start_tick": 342983,
          "duration_ticks": 120,
          "channel": 4
        },
        {
          "note": 79,
          "start": 226.919747,
          "duration": 0.079365,
          "velocity": 0.629921,
          "start_tick": 343103,
          "duration_ticks": 120,
          "channel": 4
        },
        {
          "note": 83,
          "start": 226.999112,
          "duration": 0.080026,
          "velocity": 0.629921,
          "start_tick": 343223,
          "duration_ticks": 121,
          "channel": 4
        },
        {
          "note": 86,
          "start": 227.079138,
          "duration": 0.079365,
          "velocity": 0.629921,
          "start_tick": 343344,
          "duration_ticks": 120,
          "channel": 4
        },
        {
          "note": 91,
          "start": 227.158503,
          "duration": 0.079365,
          "velocity": 0.629921,
          "start_tick": 343464,
          "duration_ticks": 120,
          "channel": 4
        },
        {
          "note": 86,
          "start": 227.237868,
          "duration": 0.079365,
          "velocity": 0.629921,
          "start_tick": 343584,
          "duration_ticks": 120,
          "channel": 4
        },
        {
          "note": 83,
          "start": 227.317233,
          "duration": 0.080026,
          "velocity": 0.629921,
          "start_tick": 343704,
          "duration_ticks": 121,
          "channel": 4
        },
        {
          "note": 79,
          "start": 227.397259,
          "duration": 0.079365,
          "velocity": 0.629921,
          "start_tick": 343825,
          "duration_ticks": 120,
          "channel": 4
        },
        {
          "note": 74,
          "start": 227.476624,
          "duration": 0.079365,
          "velocity": 0.629921,
          "start_tick": 343945,
          "duration_ticks": 120,
          "channel": 4
        },
        {
          "note": 84,
          "start": 227.555989,
          "duration": 0.079365,
          "velocity": 0.629921,
          "start_tick": 344065,
          "duration_ticks": 120,
          "channel": 4
        },
        {
          "note": 79,
          "start": 227.635354,
          "duration": 0.079365,
          "velocity": 0.629921,
          "start_tick": 344185,
          "duration_ticks": 120,
          "channel": 4
        },
        {
          "note": 74,
          "start": 227.714719,
          "duration": 0.080026,
          "velocity": 0.629921,
          "start_tick": 344305,
          "duration_ticks": 121,
          "channel": 4
        },
        {
          "note": 71,
          "start": 227.794746,
          "duration": 0.079365,
          "velocity": 0.629921,
          "start_tick": 344426,
          "duration_ticks": 120,
          "channel": 4
        },
        {
          "note": 86,
          "start": 227.874111,
          "duration": 0.079365,
          "velocity": 0.629921,
          "start_tick": 344546,
          "duration_ticks": 120,
          "channel": 4
        },
        {
          "note": 84,
          "start": 227.953476,
          "duration": 0.079365,
          "velocity": 0.629921,
          "start_tick": 344666,
          "duration_ticks": 120,
          "channel": 4
        },
        {
          "note": 79,
          "start": 228.032841,
          "duration": 0.080026,
          "velocity": 0.629921,
          "start_tick": 344786,
          "duration_ticks": 121,
          "channel": 4
        },
        {
          "note": 74,
          "start": 228.112867,
          "duration": 0.079365,
          "velocity": 0.629921,
          "start_tick": 344907,
          "duration_ticks": 120,
          "channel": 4
        },
        {
          "note": 79,
          "start": 228.192232,
          "duration": 0.079365,
          "velocity": 0.629921,
          "start_tick": 345027,
          "duration_ticks": 120,
          "channel": 4
        },
        {
          "note": 74,
          "start": 228.271597,
          "duration": 0.079365,
          "velocity": 0.629921,
          "start_tick": 345147,
          "duration_ticks": 120,
          "channel": 4
        },
        {
          "note": 71,
          "start": 228.350962,
          "duration": 0.079365,
          "velocity": 0.629921,
          "start_tick": 345267,
          "duration_ticks": 120,
          "channel": 4
        },
        {
          "note": 67,
          "start": 228.430327,
          "duration": 0.080026,
          "velocity": 0.629921,
          "start_tick": 345387,
          "duration_ticks": 121,
          "channel": 4
        },
        {
          "note": 65,
          "start": 228.510354,
          "duration": 0.079365,
          "velocity": 0.629921,
          "start_tick": 345508,
          "duration_ticks": 120,
          "channel": 4
        },
        {
          "note": 68,
          "start": 228.589719,
          "duration": 0.079365,
          "velocity": 0.629921,
          "start_tick": 345628,
          "duration_ticks": 120,
          "channel": 4
        },
        {
          "note": 72,
          "start": 228.669083,
          "duration": 0.079365,
          "velocity": 0.629921,
          "start_tick": 345748,
          "duration_ticks": 120,
          "channel": 4
        },
        {
          "note": 77,
          "start": 228.748448,
          "duration": 0.080026,
          "velocity": 0.629921,
          "start_tick": 345868,
          "duration_ticks": 121,
          "channel": 4
        },
        {
          "note": 68,
          "start": 228.828475,
          "duration": 0.079365,
          "velocity": 0.629921,
          "start_tick": 345989,
          "duration_ticks": 120,
          "channel": 4
        },
        {
          "note": 72,
          "start": 228.90784,
          "duration": 0.079365,
          "velocity": 0.629921,
          "start_tick": 346109,
          "duration_ticks": 120,
          "channel": 4
        },
        {
          "note": 77,
          "start": 228.987205,
          "duration": 0.079365,
          "velocity": 0.629921,
          "start_tick": 346229,
          "duration_ticks": 120,
          "channel": 4
        },
        {
          "note": 80,
          "start": 229.06657,
          "duration": 0.079365,
          "velocity": 0.629921,
          "start_tick": 346349,
          "duration_ticks": 120,
          "channel": 4
        },
        {
          "note": 72,
          "start": 229.145935,
          "duration": 0.080026,
          "velocity": 0.629921,
          "start_tick": 346469,
          "duration_ticks": 121,
          "channel": 4
        },
        {
          "note": 77,
          "start": 229.225961,
          "duration": 0.079365,
          "velocity": 0.629921,
          "start_tick": 346590,
          "duration_ticks": 120,
          "channel": 4
        },
        {
          "note": 80,
          "start": 229.305326,
          "duration": 0.079365,
          "velocity": 0.629921,
          "start_tick": 346710,
          "duration_ticks": 120,
          "channel": 4
        },
        {
          "note": 84,
          "start": 229.384691,
          "duration": 0.079365,
          "velocity": 0.629921,
          "start_tick": 346830,
          "duration_ticks": 120,
          "channel": 4
        },
        {
          "note": 77,
          "start": 229.464056,
          "duration": 0.080026,
          "velocity": 0.629921,
          "start_tick": 346950,
          "duration_ticks": 121,
          "channel": 4
        },
        {
          "note": 80,
          "start": 229.544083,
          "duration": 0.079365,
          "velocity": 0.629921,
          "start_tick": 347071,
          "duration_ticks": 120,
          "channel": 4
        },
        {
          "note": 84,
          "start": 229.623448,
          "duration": 0.079365,
          "velocity": 0.629921,
          "start_tick": 347191,
          "duration_ticks": 120,
          "channel": 4
        },
        {
          "note": 89,
          "start": 229.702813,
          "duration": 0.079365,
          "velocity": 0.629921,
          "start_tick": 347311,
          "duration_ticks": 120,
          "channel": 4
        },
        {
          "note": 84,
          "start": 229.782178,
          "duration": 0.079365,
          "velocity": 0.629921,
          "start_tick": 347431,
          "duration_ticks": 120,
          "channel": 4
        },
        {
          "note": 80,
          "start": 229.861543,
          "duration": 0.080026,
          "velocity": 0.629921,
          "start_tick": 347551,
          "duration_ticks": 121,
          "channel": 4
        },
        {
          "note": 77,
          "start": 229.941569,
          "duration": 0.079365,
          "velocity": 0.629921,
          "start_tick": 347672,
          "duration_ticks": 120,
          "channel": 4
        },
        {
          "note": 72,
          "start": 230.020934,
          "duration": 0.079365,
          "velocity": 0.629921,
          "start_tick": 347792,
          "duration_ticks": 120,
          "channel": 4
        },
        {
          "note": 80,
          "start": 230.100299,
          "duration": 0.079365,
          "velocity": 0.629921,
          "start_tick": 347912,
          "duration_ticks": 120,
          "channel": 4
        },
        {
          "note": 77,
          "start": 230.179664,
          "duration": 0.080026,
          "velocity": 0.629921,
          "start_tick": 348032,
          "duration_ticks": 121,
          "channel": 4
        },
        {
          "note": 72,
          "start": 230.25969,
          "duration": 0.079365,
          "velocity": 0.629921,
          "start_tick": 348153,
          "duration_ticks": 120,
          "channel": 4
        },
        {
          "note": 68,
          "start": 230.339055,
          "duration": 0.079365,
          "velocity": 0.629921,
          "start_tick": 348273,
          "duration_ticks": 120,
          "channel": 4
        },
        {
          "note": 84,
          "start": 230.41842,
          "duration": 0.079365,
          "velocity": 0.629921,
          "start_tick": 348393,
          "duration_ticks": 120,
          "channel": 4
        },
        {
          "note": 80,
          "start": 230.497785,
          "duration": 0.079365,
          "velocity": 0.629921,
          "start_tick": 348513,
          "duration_ticks": 120,
          "channel": 4
        },
        {
          "note": 77,
          "start": 230.57715,
          "duration": 0.080026,
          "velocity": 0.629921,
          "start_tick": 348633,
          "duration_ticks": 121,
          "channel": 4
        },
        {
          "note": 72,
          "start": 230.657177,
          "duration": 0.079365,
          "velocity": 0.629921,
          "start_tick": 348754,
          "duration_ticks": 120,
          "channel": 4
        },
        {
          "note": 77,
          "start": 230.736542,
          "duration": 0.079365,
          "velocity": 0.629921,
          "start_tick": 348874,
          "duration_ticks": 120,
          "channel": 4
        },
        {
          "note": 72,
          "start": 230.815907,
          "duration": 0.079365,
          "velocity": 0.629921,
          "start_tick": 348994,
          "duration_ticks": 120,
          "channel": 4
        },
        {
          "note": 68,
          "start": 230.895272,
          "duration": 0.080026,
          "velocity": 0.629921,
          "start_tick": 349114,
          "duration_ticks": 121,
          "channel": 4
        },
        {
          "note": 65,
          "start": 230.975298,
          "duration": 0.079365,
          "velocity": 0.629921,
          "start_tick": 349235,
          "duration_ticks": 120,
          "channel": 4
        },
        {
          "note": 60,
          "start": 231.054663,
          "duration": 0.079365,
          "velocity": 0.629921,
          "start_tick": 349355,
          "duration_ticks": 120,
          "channel": 4
        },
        {
          "note": 63,
          "start": 231.134028,
          "duration": 0.079365,
          "velocity": 0.629921,
          "start_tick": 349475,
          "duration_ticks": 120,
          "channel": 4
        },
        {
          "note": 65,
          "start": 231.213393,
          "duration": 0.079365,
          "velocity": 0.629921,
          "start_tick": 349595,
          "duration_ticks": 120,
          "channel": 4
        },
        {
          "note": 67,
          "start": 231.292758,
          "duration": 0.080026,
          "velocity": 0.629921,
          "start_tick": 349715,
          "duration_ticks": 121,
          "channel": 4
        },
        {
          "note": 63,
          "start": 231.372784,
          "duration": 0.079365,
          "velocity": 0.629921,
          "start_tick": 349836,
          "duration_ticks": 120,
          "channel": 4
        },
        {
          "note": 65,
          "start": 231.452149,
          "duration": 0.079365,
          "velocity": 0.629921,
          "start_tick": 349956,
          "duration_ticks": 120,
          "channel": 4
        },
        {
          "note": 67,
          "start": 231.531514,
          "duration": 0.079365,
          "velocity": 0.629921,
          "start_tick": 350076,
          "duration_ticks": 120,
          "channel": 4
        },
        {
          "note": 72,
          "start": 231.61088,
          "duration": 0.080026,
          "velocity": 0.629921,
          "start_tick": 350196,
          "duration_ticks": 121,
          "channel": 4
        },
        {
          "note": 67,
          "start": 231.690906,
          "duration": 0.079365,
          "velocity": 0.629921,
          "start_tick": 350317,
          "duration_ticks": 120,
          "channel": 4
        },
        {
          "note": 72,
          "start": 231.770271,
          "duration": 0.079365,
          "velocity": 0.629921,
          "start_tick": 350437,
          "duration_ticks": 120,
          "channel": 4
        },
        {
          "note": 75,
          "start": 231.849636,
          "duration": 0.079365,
          "velocity": 0.629921,
          "start_tick": 350557,
          "duration_ticks": 120,
          "channel": 4
        },
        {
          "note": 77,
          "start": 231.929001,
          "duration": 0.079365,
          "velocity": 0.629921,
          "start_tick": 350677,
          "duration_ticks": 120,
          "channel": 4
        },
        {
          "note": 75,
          "start": 232.008366,
          "duration": 0.080026,
          "velocity": 0.629921,
          "start_tick": 350797,
          "duration_ticks": 121,
          "channel": 4
        },
        {
          "note": 77,
          "start": 232.088392,
          "duration": 0.079365,
          "velocity": 0.629921,
          "start_tick": 350918,
          "duration_ticks": 120,
          "channel": 4
        },
        {
          "note": 79,
          "start": 232.167757,
          "duration": 0.079365,
          "velocity": 0.629921,
          "start_tick": 351038,
          "duration_ticks": 120,
          "channel": 4
        },
        {
          "note": 84,
          "start": 232.247122,
          "duration": 0.079365,
          "velocity": 0.629921,
          "start_tick": 351158,
          "duration_ticks": 120,
          "channel": 4
        },
        {
          "note": 79,
          "start": 232.326487,
          "duration": 0.080026,
          "velocity": 0.629921,
          "start_tick": 351278,
          "duration_ticks": 121,
          "channel": 4
        },
        {
          "note": 77,
          "start": 232.406514,
          "duration": 0.079365,
          "velocity": 0.629921,
          "start_tick": 351399,
          "duration_ticks": 120,
          "channel": 4
        },
        {
          "note": 75,
          "start": 232.485879,
          "duration": 0.079365,
          "velocity": 0.629921,
          "start_tick": 351519,
          "duration_ticks": 120,
          "channel": 4
        },
        {
          "note": 79,
          "start": 232.565244,
          "duration": 0.079365,
          "velocity": 0.629921,
          "start_tick": 351639,
          "duration_ticks": 120,
          "channel": 4
        },
        {
          "note": 77,
          "start": 232.644609,
          "duration": 0.079365,
          "velocity": 0.629921,
          "start_tick": 351759,
          "duration_ticks": 120,
          "channel": 4
        },
        {
          "note": 75,
          "start": 232.723974,
          "duration": 0.080026,
          "velocity": 0.629921,
          "start_tick": 351879,
          "duration_ticks": 121,
          "channel": 4
        },
        {
          "note": 72,
          "start": 232.804,
          "duration": 0.079365,
          "velocity": 0.629921,
          "start_tick": 352000,
          "duration_ticks": 120,
          "channel": 4
        },
        {
          "note": 77,
          "start": 232.883365,
          "duration": 0.079365,
          "velocity": 0.629921,
          "start_tick": 352120,
          "duration_ticks": 120,
          "channel": 4
        },
        {
          "note": 75,
          "start": 232.96273,
          "duration": 0.079365,
          "velocity": 0.629921,
          "start_tick": 352240,
          "duration_ticks": 120,
          "channel": 4
        },
        {
          "note": 72,
          "start": 233.042095,
          "duration": 0.080026,
          "velocity": 0.629921,
          "start_tick": 352360,
          "duration_ticks": 121,
          "channel": 4
        },
        {
          "note": 67,
          "start": 233.122121,
          "duration": 0.079365,
          "velocity": 0.629921,
          "start_tick": 352481,
          "duration_ticks": 120,
          "channel": 4
        },
        {
          "note": 65,
          "start": 233.201486,
          "duration": 0.079365,
          "velocity": 0.629921,
          "start_tick": 352601,
          "duration_ticks": 120,
          "channel": 4
        },
        {
          "note": 72,
          "start": 233.280851,
          "duration": 0.079365,
          "velocity": 0.629921,
          "start_tick": 352721,
          "duration_ticks": 120,
          "channel": 4
        },
        {
          "note": 67,
          "start": 233.360216,
          "duration": 0.079365,
          "velocity": 0.629921,
          "start_tick": 352841,
          "duration_ticks": 120,
          "channel": 4
        },
        {
          "note": 65,
          "start": 233.439581,
          "duration": 0.080026,
          "velocity": 0.629921,
          "start_tick": 352961,
          "duration_ticks": 121,
          "channel": 4
        },
        {
          "note": 60,
          "start": 233.519608,
          "duration": 0.079365,
          "velocity": 0.629921,
          "start_tick": 353082,
          "duration_ticks": 120,
          "channel": 4
        },
        {
          "note": 63,
          "start": 233.598973,
          "duration": 0.079365,
          "velocity": 0.629921,
          "start_tick": 353202,
          "duration_ticks": 120,
          "channel": 4
        },
        {
          "note": 67,
          "start": 233.678338,
          "duration": 0.079365,
          "velocity": 0.629921,
          "start_tick": 353322,
          "duration_ticks": 120,
          "channel": 4
        },
        {
          "note": 70,
          "start": 233.757703,
          "duration": 0.080026,
          "velocity": 0.629921,
          "start_tick": 353442,
          "duration_ticks": 121,
          "channel": 4
        },
        {
          "note": 75,
          "start": 233.837729,
          "duration": 0.079365,
          "velocity": 0.629921,
          "start_tick": 353563,
          "duration_ticks": 120,
          "channel": 4
        },
        {
          "note": 67,
          "start": 233.917094,
          "duration": 0.079365,
          "velocity": 0.629921,
          "start_tick": 353683,
          "duration_ticks": 120,
          "channel": 4
        },
        {
          "note": 70,
          "start": 233.996459,
          "duration": 0.079365,
          "velocity": 0.629921,
          "start_tick": 353803,
          "duration_ticks": 120,
          "channel": 4
        },
        {
          "note": 75,
          "start": 234.075824,
          "duration": 0.079365,
          "velocity": 0.629921,
          "start_tick": 353923,
          "duration_ticks": 120,
          "channel": 4
        },
        {
          "note": 79,
          "start": 234.155189,
          "duration": 0.080026,
          "velocity": 0.629921,
          "start_tick": 354043,
          "duration_ticks": 121,
          "channel": 4
        },
        {
          "note": 70,
          "start": 234.235216,
          "duration": 0.079365,
          "velocity": 0.629921,
          "start_tick": 354164,
          "duration_ticks": 120,
          "channel": 4
        },
        {
          "note": 75,
          "start": 234.314581,
          "duration": 0.079365,
          "velocity": 0.629921,
          "start_tick": 354284,
          "duration_ticks": 120,
          "channel": 4
        },
        {
          "note": 79,
          "start": 234.393946,
          "duration": 0.079365,
          "velocity": 0.629921,
          "start_tick": 354404,
          "duration_ticks": 120,
          "channel": 4
        },
        {
          "note": 82,
          "start": 234.47331,
          "duration": 0.080026,
          "velocity": 0.629921,
          "start_tick": 354524,
          "duration_ticks": 121,
          "channel": 4
        },
        {
          "note": 75,
          "start": 234.553337,
          "duration": 0.079365,
          "velocity": 0.629921,
          "start_tick": 354645,
          "duration_ticks": 120,
          "channel": 4
        },
        {
          "note": 79,
          "start": 234.632702,
          "duration": 0.079365,
          "velocity": 0.629921,
          "start_tick": 354765,
          "duration_ticks": 120,
          "channel": 4
        },
        {
          "note": 82,
          "start": 234.712067,
          "duration": 0.079365,
          "velocity": 0.629921,
          "start_tick": 354885,
          "duration_ticks": 120,
          "channel": 4
        },
        {
          "note": 87,
          "start": 234.791432,
          "duration": 0.079365,
          "velocity": 0.629921,
          "start_tick": 355005,
          "duration_ticks": 120,
          "channel": 4
        },
        {
          "note": 82,
          "start": 234.870797,
          "duration": 0.080026,
          "velocity": 0.629921,
          "start_tick": 355125,
          "duration_ticks": 121,
          "channel": 4
        },
        {
          "note": 79,
          "start": 234.950823,
          "duration": 0.079365,
          "velocity": 0.629921,
          "start_tick": 355246,
          "duration_ticks": 120,
          "channel": 4
        },
        {
          "note": 75,
          "start": 235.030188,
          "duration": 0.079365,
          "velocity": 0.629921,
          "start_tick": 355366,
          "duration_ticks": 120,
          "channel": 4
        },
        {
          "note": 70,
          "start": 235.109553,
          "duration": 0.079365,
          "velocity": 0.629921,
          "start_tick": 355486,
          "duration_ticks": 120,
          "channel": 4
        },
        {
          "note": 80,
          "start": 235.188918,
          "duration": 0.080026,
          "velocity": 0.629921,
          "start_tick": 355606,
          "duration_ticks": 121,
          "channel": 4
        },
        {
          "note": 75,
          "start": 235.268945,
          "duration": 0.079365,
          "velocity": 0.629921,
          "start_tick": 355727,
          "duration_ticks": 120,
          "channel": 4
        },
        {
          "note": 70,
          "start": 235.34831,
          "duration": 0.079365,
          "velocity": 0.629921,
          "start_tick": 355847,
          "duration_ticks": 120,
          "channel": 4
        },
        {
          "note": 67,
          "start": 235.427675,
          "duration": 0.079365,
          "velocity": 0.629921,
          "start_tick": 355967,
          "duration_ticks": 120,
          "channel": 4
        },
        {
          "note": 82,
          "start": 235.50704,
          "duration": 0.079365,
          "velocity": 0.629921,
          "start_tick": 356087,
          "duration_ticks": 120,
          "channel": 4
        },
        {
          "note": 80,
          "start": 235.586405,
          "duration": 0.080026,
          "velocity": 0.629921,
          "start_tick": 356207,
          "duration_ticks": 121,
          "channel": 4
        },
        {
          "note": 75,
          "start": 235.666431,
          "duration": 0.079365,
          "velocity": 0.629921,
          "start_tick": 356328,
          "duration_ticks": 120,
          "channel": 4
        },
        {
          "note": 70,
          "start": 235.745796,
          "duration": 0.079365,
          "velocity": 0.629921,
          "start_tick": 356448,
          "duration_ticks": 120,
          "channel": 4
        },
        {
          "note": 75,
          "start": 235.825161,
          "duration": 0.079365,
          "velocity": 0.629921,
          "start_tick": 356568,
          "duration_ticks": 120,
          "channel": 4
        },
        {
          "note": 70,
          "start": 235.904526,
          "duration": 0.080026,
          "velocity": 0.629921,
          "start_tick": 356688,
          "duration_ticks": 121,
          "channel": 4
        },
        {
          "note": 67,
          "start": 235.984552,
          "duration": 0.079365,
          "velocity": 0.629921,
          "start_tick": 356809,
          "duration_ticks": 120,
          "channel": 4
        },
        {
          "note": 63,
          "start": 236.063917,
          "duration": 0.079365,
          "velocity": 0.629921,
          "start_tick": 356929,
          "duration_ticks": 120,
          "channel": 4
        },
        {
          "note": 67,
          "start": 236.143282,
          "duration": 0.079365,
          "velocity": 0.629921,
          "start_tick": 357049,
          "duration_ticks": 120,
          "channel": 4
        },
        {
          "note": 71,
          "start": 236.222647,
          "duration": 0.079365,
          "velocity": 0.629921,
          "start_tick": 357169,
          "duration_ticks": 120,
          "channel": 4
        },
        {
          "note": 74,
          "start": 236.302012,
          "duration": 0.080026,
          "velocity": 0.629921,
          "start_tick": 357289,
          "duration_ticks": 121,
          "channel": 4
        },
        {
          "note": 79,
          "start": 236.382039,
          "duration": 0.079365,
          "velocity": 0.629921,
          "start_tick": 357410,
          "duration_ticks": 120,
          "channel": 4
        },
        {
          "note": 71,
          "start": 236.461404,
          "duration": 0.079365,
          "velocity": 0.629921,
          "start_tick": 357530,
          "duration_ticks": 120,
          "channel": 4
        },
        {
          "note": 74,
          "start": 236.540769,
          "duration": 0.079365,
          "velocity": 0.629921,
          "start_tick": 357650,
          "duration_ticks": 120,
          "channel": 4
        },
        {
          "note": 79,
          "start": 236.620134,
          "duration": 0.080026,
          "velocity": 0.629921,
          "start_tick": 357770,
          "duration_ticks": 121,
          "channel": 4
        },
        {
          "note": 83,
          "start": 236.70016,
          "duration": 0.079365,
          "velocity": 0.629921,
          "start_tick": 357891,
          "duration_ticks": 120,
          "channel": 4
        },
        {
          "note": 74,
          "start": 236.779525,
          "duration": 0.079365,
          "velocity": 0.629921,
          "start_tick": 358011,
          "duration_ticks": 120,
          "channel": 4
        },
        {
          "note": 79,
          "start": 236.85889,
          "duration": 0.079365,
          "velocity": 0.629921,
          "start_tick": 358131,
          "duration_ticks": 120,
          "channel": 4
        },
        {
          "note": 83,
          "start": 236.938255,
          "duration": 0.079365,
          "velocity": 0.629921,
          "start_tick": 358251,
          "duration_ticks": 120,
          "channel": 4
        },
        {
          "note": 86,
          "start": 237.01762,
          "duration": 0.080026,
          "velocity": 0.629921,
          "start_tick": 358371,
          "duration_ticks": 121,
          "channel": 4
        },
        {
          "note": 79,
          "start": 237.097646,
          "duration": 0.079365,
          "velocity": 0.629921,
          "start_tick": 358492,
          "duration_ticks": 120,
          "channel": 4
        },
        {
          "note": 83,
          "start": 237.177011,
          "duration": 0.079365,
          "velocity": 0.629921,
          "start_tick": 358612,
          "duration_ticks": 120,
          "channel": 4
        },
        {
          "note": 86,
          "start": 237.256376,
          "duration": 0.079365,
          "velocity": 0.629921,
          "start_tick": 358732,
          "duration_ticks": 120,
          "channel": 4
        },
        {
          "note": 91,
          "start": 237.335742,
          "duration": 0.080026,
          "velocity": 0.629921,
          "start_tick": 358852,
          "duration_ticks": 121,
          "channel": 4
        },
        {
          "note": 86,
          "start": 237.415768,
          "duration": 0.079365,
          "velocity": 0.629921,
          "start_tick": 358973,
          "duration_ticks": 120,
          "channel": 4
        },
        {
          "note": 83,
          "start": 237.495133,
          "duration": 0.079365,
          "velocity": 0.629921,
          "start_tick": 359093,
          "duration_ticks": 120,
          "channel": 4
        },
        {
          "note": 79,
          "start": 237.574498,
          "duration": 0.079365,
          "velocity": 0.629921,
          "start_tick": 359213,
          "duration_ticks": 120,
          "channel": 4
        },
        {
          "note": 74,
          "start": 237.653863,
          "duration": 0.079365,
          "velocity": 0.629921,
          "start_tick": 359333,
          "duration_ticks": 120,
          "channel": 4
        },
        {
          "note": 84,
          "start": 237.733228,
          "duration": 0.080026,
          "velocity": 0.629921,
          "start_tick": 359453,
          "duration_ticks": 121,
          "channel": 4
        },
        {
          "note": 79,
          "start": 237.813254,
          "duration": 0.079365,
          "velocity": 0.629921,
          "start_tick": 359574,
          "duration_ticks": 120,
          "channel": 4
        },
        {
          "note": 74,
          "start": 237.892619,
          "duration": 0.079365,
          "velocity": 0.629921,
          "start_tick": 359694,
          "duration_ticks": 120,
          "channel": 4
        },
        {
          "note": 71,
          "start": 237.971984,
          "duration": 0.079365,
          "velocity": 0.629921,
          "start_tick": 359814,
          "duration_ticks": 120,
          "channel": 4
        },
        {
          "note": 86,
          "start": 238.051349,
          "duration": 0.080026,
          "velocity": 0.629921,
          "start_tick": 359934,
          "duration_ticks": 121,
          "channel": 4
        },
        {
          "note": 84,
          "start": 238.131376,
          "duration": 0.079365,
          "velocity": 0.629921,
          "start_tick": 360055,
          "duration_ticks": 120,
          "channel": 4
        },
        {
          "note": 79,
          "start": 238.210741,
          "duration": 0.079365,
          "velocity": 0.629921,
          "start_tick": 360175,
          "duration_ticks": 120,
          "channel": 4
        },
        {
          "note": 74,
          "start": 238.290106,
          "duration": 0.079365,
          "velocity": 0.629921,
          "start_tick": 360295,
          "duration_ticks": 120,
          "channel": 4
        },
        {
          "note": 79,
          "start": 238.369471,
          "duration": 0.079365,
          "velocity": 0.629921,
          "start_tick": 360415,
          "duration_ticks": 120,
          "channel": 4
        },
        {
          "note": 74,
          "start": 238.448836,
          "duration": 0.080026,
          "velocity": 0.629921,
          "start_tick": 360535,
          "duration_ticks": 121,
          "channel": 4
        },
        {
          "note": 71,
          "start": 238.528862,
          "duration": 0.079365,
          "velocity": 0.629921,
          "start_tick": 360656,
          "duration_ticks": 120,
          "channel": 4
        },
        {
          "note": 67,
          "start": 238.608227,
          "duration": 0.079365,
          "velocity": 0.629921,
          "start_tick": 360776,
          "duration_ticks": 120,
          "channel": 4
        },
        {
          "note": 65,
          "start": 238.687592,
          "duration": 0.079365,
          "velocity": 0.629921,
          "start_tick": 360896,
          "duration_ticks": 120,
          "channel": 4
        },
        {
          "note": 68,
          "start": 238.766957,
          "duration": 0.080026,
          "velocity": 0.629921,
          "start_tick": 361016,
          "duration_ticks": 121,
          "channel": 4
        },
        {
          "note": 72,
          "start": 238.846983,
          "duration": 0.079365,
          "velocity": 0.629921,
          "start_tick": 361137,
          "duration_ticks": 120,
          "channel": 4
        },
        {
          "note": 77,
          "start": 238.926348,
          "duration": 0.079365,
          "velocity": 0.629921,
          "start_tick": 361257,
          "duration_ticks": 120,
          "channel": 4
        },
        {
          "note": 68,
          "start": 239.005713,
          "duration": 0.079365,
          "velocity": 0.629921,
          "start_tick": 361377,
          "duration_ticks": 120,
          "channel": 4
        },
        {
          "note": 72,
          "start": 239.085078,
          "duration": 0.079365,
          "velocity": 0.629921,
          "start_tick": 361497,
          "duration_ticks": 120,
          "channel": 4
        },
        {
          "note": 77,
          "start": 239.164443,
          "duration": 0.080026,
          "velocity": 0.629921,
          "start_tick": 361617,
          "duration_ticks": 121,
          "channel": 4
        },
        {
          "note": 80,
          "start": 239.24447,
          "duration": 0.079365,
          "velocity": 0.629921,
          "start_tick": 361738,
          "duration_ticks": 120,
          "channel": 4
        },
        {
          "note": 72,
          "start": 239.323835,
          "duration": 0.079365,
          "velocity": 0.629921,
          "start_tick": 361858,
          "duration_ticks": 120,
          "channel": 4
        },
        {
          "note": 77,
          "start": 239.4032,
          "duration": 0.079365,
          "velocity": 0.629921,
          "start_tick": 361978,
          "duration_ticks": 120,
          "channel": 4
        },
        {
          "note": 80,
          "start": 239.482565,
          "duration": 0.080026,
          "velocity": 0.629921,
          "start_tick": 362098,
          "duration_ticks": 121,
          "channel": 4
        },
        {
          "note": 84,
          "start": 239.562591,
          "duration": 0.079365,
          "velocity": 0.629921,
          "start_tick": 362219,
          "duration_ticks": 120,
          "channel": 4
        },
        {
          "note": 77,
          "start": 239.641956,
          "duration": 0.079365,
          "velocity": 0.629921,
          "start_tick": 362339,
          "duration_ticks": 120,
          "channel": 4
        },
        {
          "note": 80,
          "start": 239.721321,
          "duration": 0.079365,
          "velocity": 0.629921,
          "start_tick": 362459,
          "duration_ticks": 120,
          "channel": 4
        },
        {
          "note": 84,
          "start": 239.800686,
          "duration": 0.079365,
          "velocity": 0.629921,
          "start_tick": 362579,
          "duration_ticks": 120,
          "channel": 4
        },
        {
          "note": 89,
          "start": 239.880051,
          "duration": 0.080026,
          "velocity": 0.629921,
          "start_tick": 362699,
          "duration_ticks": 121,
          "channel": 4
        },
        {
          "note": 84,
          "start": 239.960078,
          "duration": 0.079365,
          "velocity": 0.629921,
          "start_tick": 362820,
          "duration_ticks": 120,
          "channel": 4
        },
        {
          "note": 80,
          "start": 240.039443,
          "duration": 0.079365,
          "velocity": 0.629921,
          "start_tick": 362940,
          "duration_ticks": 120,
          "channel": 4
        },
        {
          "note": 77,
          "start": 240.118808,
          "duration": 0.079365,
          "velocity": 0.629921,
          "start_tick": 363060,
          "duration_ticks": 120,
          "channel": 4
        },
        {
          "note": 72,
          "start": 240.198172,
          "duration": 0.080026,
          "velocity": 0.629921,
          "start_tick": 363180,
          "duration_ticks": 121,
          "channel": 4
        },
        {
          "note": 80,
          "start": 240.278199,
          "duration": 0.079365,
          "velocity": 0.629921,
          "start_tick": 363301,
          "duration_ticks": 120,
          "channel": 4
        },
        {
          "note": 77,
          "start": 240.357564,
          "duration": 0.079365,
          "velocity": 0.629921,
          "start_tick": 363421,
          "duration_ticks": 120,
          "channel": 4
        },
        {
          "note": 72,
          "start": 240.436929,
          "duration": 0.079365,
          "velocity": 0.629921,
          "start_tick": 363541,
          "duration_ticks": 120,
          "channel": 4
        },
        {
          "note": 68,
          "start": 240.516294,
          "duration": 0.079365,
          "velocity": 0.629921,
          "start_tick": 363661,
          "duration_ticks": 120,
          "channel": 4
        },
        {
          "note": 84,
          "start": 240.595659,
          "duration": 0.080026,
          "velocity": 0.629921,
          "start_tick": 363781,
          "duration_ticks": 121,
          "channel": 4
        },
        {
          "note": 80,
          "start": 240.675685,
          "duration": 0.079365,
          "velocity": 0.629921,
          "start_tick": 363902,
          "duration_ticks": 120,
          "channel": 4
        },
        {
          "note": 77,
          "start": 240.75505,
          "duration": 0.079365,
          "velocity": 0.629921,
          "start_tick": 364022,
          "duration_ticks": 120,
          "channel": 4
        },
        {
          "note": 72,
          "start": 240.834415,
          "duration": 0.079365,
          "velocity": 0.629921,
          "start_tick": 364142,
          "duration_ticks": 120,
          "channel": 4
        },
        {
          "note": 77,
          "start": 240.91378,
          "duration": 0.080026,
          "velocity": 0.629921,
          "start_tick": 364262,
          "duration_ticks": 121,
          "channel": 4
        },
        {
          "note": 72,
          "start": 240.993807,
          "duration": 0.079365,
          "velocity": 0.629921,
          "start_tick": 364383,
          "duration_ticks": 120,
          "channel": 4
        },
        {
          "note": 68,
          "start": 241.073172,
          "duration": 0.079365,
          "velocity": 0.629921,
          "start_tick": 364503,
          "duration_ticks": 120,
          "channel": 4
        },
        {
          "note": 65,
          "start": 241.152537,
          "duration": 0.079365,
          "velocity": 0.629921,
          "start_tick": 364623,
          "duration_ticks": 120,
          "channel": 4
        },
        {
          "note": 68,
          "start": 241.231902,
          "duration": 0.079365,
          "velocity": 0.629921,
          "start_tick": 364743,
          "duration_ticks": 120,
          "channel": 4
        },
        {
          "note": 72,
          "start": 241.311267,
          "duration": 0.080026,
          "velocity": 0.629921,
          "start_tick": 364863,
          "duration_ticks": 121,
          "channel": 4
        },
        {
          "note": 75,
          "start": 241.391293,
          "duration": 0.079365,
          "velocity": 0.629921,
          "start_tick": 364984,
          "duration_ticks": 120,
          "channel": 4
        },
        {
          "note": 80,
          "start": 241.470658,
          "duration": 0.079365,
          "velocity": 0.629921,
          "start_tick": 365104,
          "duration_ticks": 120,
          "channel": 4
        },
        {
          "note": 72,
          "start": 241.550023,
          "duration": 0.079365,
          "velocity": 0.629921,
          "start_tick": 365224,
          "duration_ticks": 120,
          "channel": 4
        },
        {
          "note": 75,
          "start": 241.629388,
          "duration": 0.080026,
          "velocity": 0.629921,
          "start_tick": 365344,
          "duration_ticks": 121,
          "channel": 4
        },
        {
          "note": 80,
          "start": 241.709414,
          "duration": 0.079365,
          "velocity": 0.629921,
          "start_tick": 365465,
          "duration_ticks": 120,
          "channel": 4
        },
        {
          "note": 84,
          "start": 241.788779,
          "duration": 0.079365,
          "velocity": 0.629921,
          "start_tick": 365585,
          "duration_ticks": 120,
          "channel": 4
        },
        {
          "note": 75,
          "start": 241.868144,
          "duration": 0.079365,
          "velocity": 0.629921,
          "start_tick": 365705,
          "duration_ticks": 120,
          "channel": 4
        },
        {
          "note": 80,
          "start": 241.947509,
          "duration": 0.079365,
          "velocity": 0.629921,
          "start_tick": 365825,
          "duration_ticks": 120,
          "channel": 4
        },
        {
          "note": 84,
          "start": 242.026874,
          "duration": 0.080026,
          "velocity": 0.629921,
          "start_tick": 365945,
          "duration_ticks": 121,
          "channel": 4
        },
        {
          "note": 87,
          "start": 242.106901,
          "duration": 0.079365,
          "velocity": 0.629921,
          "start_tick": 366066,
          "duration_ticks": 120,
          "channel": 4
        },
        {
          "note": 80,
          "start": 242.186266,
          "duration": 0.079365,
          "velocity": 0.629921,
          "start_tick": 366186,
          "duration_ticks": 120,
          "channel": 4
        },
        {
          "note": 84,
          "start": 242.265631,
          "duration": 0.079365,
          "velocity": 0.629921,
          "start_tick": 366306,
          "duration_ticks": 120,
          "channel": 4
        },
        {
          "note": 87,
          "start": 242.344996,
          "duration": 0.080026,
          "velocity": 0.629921,
          "start_tick": 366426,
          "duration_ticks": 121,
          "channel": 4
        },
        {
          "note": 92,
          "start": 242.425022,
          "duration": 0.079365,
          "velocity": 0.629921,
          "start_tick": 366547,
          "duration_ticks": 120,
          "channel": 4
        },
        {
          "note": 87,
          "start": 242.504387,
          "duration": 0.079365,
          "velocity": 0.629921,
          "start_tick": 366667,
          "duration_ticks": 120,
          "channel": 4
        },
        {
          "note": 84,
          "start": 242.583752,
          "duration": 0.079365,
          "velocity": 0.629921,
          "start_tick": 366787,
          "duration_ticks": 120,
          "channel": 4
        },
        {
          "note": 80,
          "start": 242.663117,
          "duration": 0.079365,
          "velocity": 0.629921,
          "start_tick": 366907,
          "duration_ticks": 120,
          "channel": 4
        },
        {
          "note": 75,
          "start": 242.742482,
          "duration": 0.080026,
          "velocity": 0.629921,
          "start_tick": 367027,
          "duration_ticks": 121,
          "channel": 4
        },
        {
          "note": 85,
          "start": 242.822508,
          "duration": 0.079365,
          "velocity": 0.629921,
          "start_tick": 367148,
          "duration_ticks": 120,
          "channel": 4
        },
        {
          "note": 80,
          "start": 242.901873,
          "duration": 0.079365,
          "velocity": 0.629921,
          "start_tick": 367268,
          "duration_ticks": 120,
          "channel": 4
        },
        {
          "note": 75,
          "start": 242.981238,
          "duration": 0.079365,
          "velocity": 0.629921,
          "start_tick": 367388,
          "duration_ticks": 120,
          "channel": 4
        },
        {
          "note": 72,
          "start": 243.060604,
          "duration": 0.080026,
          "velocity": 0.629921,
          "start_tick": 367508,
          "duration_ticks": 121,
          "channel": 4
        },
        {
          "note": 87,
          "start": 243.14063,
          "duration": 0.079365,
          "velocity": 0.629921,
          "start_tick": 367629,
          "duration_ticks": 120,
          "channel": 4
        },
        {
          "note": 85,
          "start": 243.219995,
          "duration": 0.079365,
          "velocity": 0.629921,
          "start_tick": 367749,
          "duration_ticks": 120,
          "channel": 4
        },
        {
          "note": 80,
          "start": 243.29936,
          "duration": 0.079365,
          "velocity": 0.629921,
          "start_tick": 367869,
          "duration_ticks": 120,
          "channel": 4
        },
        {
          "note": 75,
          "start": 243.378725,
          "duration": 0.079365,
          "velocity": 0.629921,
          "start_tick": 367989,
          "duration_ticks": 120,
          "channel": 4
        },
        {
          "note": 80,
          "start": 243.45809,
          "duration": 0.080026,
          "velocity": 0.629921,
          "start_tick": 368109,
          "duration_ticks": 121,
          "channel": 4
        },
        {
          "note": 75,
          "start": 243.538116,
          "duration": 0.079365,
          "velocity": 0.629921,
          "start_tick": 368230,
          "duration_ticks": 120,
          "channel": 4
        },
        {
          "note": 72,
          "start": 243.617481,
          "duration": 0.079365,
          "velocity": 0.629921,
          "start_tick": 368350,
          "duration_ticks": 120,
          "channel": 4
        },
        {
          "note": 68,
          "start": 243.696846,
          "duration": 0.079365,
          "velocity": 0.629921,
          "start_tick": 368470,
          "duration_ticks": 120,
          "channel": 4
        },
        {
          "note": 63,
          "start": 243.776211,
          "duration": 0.080026,
          "velocity": 0.629921,
          "start_tick": 368590,
          "duration_ticks": 121,
          "channel": 4
        },
        {
          "note": 67,
          "start": 243.856238,
          "duration": 0.079365,
          "velocity": 0.629921,
          "start_tick": 368711,
          "duration_ticks": 120,
          "channel": 4
        },
        {
          "note": 70,
          "start": 243.935603,
          "duration": 0.079365,
          "velocity": 0.629921,
          "start_tick": 368831,
          "duration_ticks": 120,
          "channel": 4
        },
        {
          "note": 75,
          "start": 244.014968,
          "duration": 0.079365,
          "velocity": 0.629921,
          "start_tick": 368951,
          "duration_ticks": 120,
          "channel": 4
        },
        {
          "note": 67,
          "start": 244.094333,
          "duration": 0.079365,
          "velocity": 0.629921,
          "start_tick": 369071,
          "duration_ticks": 120,
          "channel": 4
        },
        {
          "note": 70,
          "start": 244.173698,
          "duration": 0.080026,
          "velocity": 0.629921,
          "start_tick": 369191,
          "duration_ticks": 121,
          "channel": 4
        },
        {
          "note": 75,
          "start": 244.253724,
          "duration": 0.079365,
          "velocity": 0.629921,
          "start_tick": 369312,
          "duration_ticks": 120,
          "channel": 4
        },
        {
          "note": 79,
          "start": 244.333089,
          "duration": 0.079365,
          "velocity": 0.629921,
          "start_tick": 369432,
          "duration_ticks": 120,
          "channel": 4
        },
        {
          "note": 70,
          "start": 244.412454,
          "duration": 0.079365,
          "velocity": 0.629921,
          "start_tick": 369552,
          "duration_ticks": 120,
          "channel": 4
        },
        {
          "note": 75,
          "start": 244.491819,
          "duration": 0.080026,
          "velocity": 0.629921,
          "start_tick": 369672,
          "duration_ticks": 121,
          "channel": 4
        },
        {
          "note": 79,
          "start": 244.571845,
          "duration": 0.079365,
          "velocity": 0.629921,
          "start_tick": 369793,
          "duration_ticks": 120,
          "channel": 4
        },
        {
          "note": 82,
          "start": 244.65121,
          "duration": 0.079365,
          "velocity": 0.629921,
          "start_tick": 369913,
          "duration_ticks": 120,
          "channel": 4
        },
        {
          "note": 75,
          "start": 244.730575,
          "duration": 0.079365,
          "velocity": 0.629921,
          "start_tick": 370033,
          "duration_ticks": 120,
          "channel": 4
        },
        {
          "note": 79,
          "start": 244.80994,
          "duration": 0.079365,
          "velocity": 0.629921,
          "start_tick": 370153,
          "duration_ticks": 120,
          "channel": 4
        },
        {
          "note": 82,
          "start": 244.889305,
          "duration": 0.080026,
          "velocity": 0.629921,
          "start_tick": 370273,
          "duration_ticks": 121,
          "channel": 4
        },
        {
          "note": 87,
          "start": 244.969332,
          "duration": 0.079365,
          "velocity": 0.629921,
          "start_tick": 370394,
          "duration_ticks": 120,
          "channel": 4
        },
        {
          "note": 82,
          "start": 245.048697,
          "duration": 0.078704,
          "velocity": 0.629921,
          "start_tick": 370514,
          "duration_ticks": 119,
          "channel": 4
        },
        {
          "note": 79,
          "start": 245.1274,
          "duration": 0.079365,
          "velocity": 0.629921,
          "start_tick": 370633,
          "duration_ticks": 120,
          "channel": 4
        },
        {
          "note": 75,
          "start": 245.206765,
          "duration": 0.079365,
          "velocity": 0.629921,
          "start_tick": 370753,
          "duration_ticks": 120,
          "channel": 4
        },
        {
          "note": 70,
          "start": 245.28613,
          "duration": 0.079365,
          "velocity": 0.629921,
          "start_tick": 370873,
          "duration_ticks": 120,
          "channel": 4
        },
        {
          "note": 80,
          "start": 245.365495,
          "duration": 0.079365,
          "velocity": 0.629921,
          "start_tick": 370993,
          "duration_ticks": 120,
          "channel": 4
        },
        {
          "note": 75,
          "start": 245.44486,
          "duration": 0.079365,
          "velocity": 0.629921,
          "start_tick": 371113,
          "duration_ticks": 120,
          "channel": 4
        },
        {
          "note": 70,
          "start": 245.524225,
          "duration": 0.079365,
          "velocity": 0.629921,
          "start_tick": 371233,
          "duration_ticks": 120,
          "channel": 4
        },
        {
          "note": 67,
          "start": 245.60359,
          "duration": 0.078704,
          "velocity": 0.629921,
          "start_tick": 371353,
          "duration_ticks": 119,
          "channel": 4
        },
        {
          "note": 82,
          "start": 245.682294,
          "duration": 0.079365,
          "velocity": 0.629921,
          "start_tick": 371472,
          "duration_ticks": 120,
          "channel": 4
        },
        {
          "note": 80,
          "start": 245.761659,
          "duration": 0.079365,
          "velocity": 0.629921,
          "start_tick": 371592,
          "duration_ticks": 120,
          "channel": 4
        },
        {
          "note": 75,
          "start": 245.841024,
          "duration": 0.079365,
          "velocity": 0.629921,
          "start_tick": 371712,
          "duration_ticks": 120,
          "channel": 4
        },
        {
          "note": 70,
          "start": 245.920389,
          "duration": 0.079365,
          "velocity": 0.629921,
          "start_tick": 371832,
          "duration_ticks": 120,
          "channel": 4
        },
        {
          "note": 75,
          "start": 245.999754,
          "duration": 0.079365,
          "velocity": 0.629921,
          "start_tick": 371952,
          "duration_ticks": 120,
          "channel": 4
        },
        {
          "note": 70,
          "start": 246.079119,
          "duration": 0.079365,
          "velocity": 0.629921,
          "start_tick": 372072,
          "duration_ticks": 120,
          "channel": 4
        },
        {
          "note": 67,
          "start": 246.158484,
          "duration": 0.078704,
          "velocity": 0.629921,
          "start_tick": 372192,
          "duration_ticks": 119,
          "channel": 4
        },
        {
          "note": 63,
          "start": 246.237188,
          "duration": 0.079365,
          "velocity": 0.629921,
          "start_tick": 372311,
          "duration_ticks": 120,
          "channel": 4
        },
        {
          "note": 67,
          "start": 246.316553,
          "duration": 0.079365,
          "velocity": 0.629921,
          "start_tick": 372431,
          "duration_ticks": 120,
          "channel": 4
        },
        {
          "note": 71,
          "start": 246.395918,
          "duration": 0.079365,
          "velocity": 0.629921,
          "start_tick": 372551,
          "duration_ticks": 120,
          "channel": 4
        },
        {
          "note": 74,
          "start": 246.475283,
          "duration": 0.079365,
          "velocity": 0.629921,
          "start_tick": 372671,
          "duration_ticks": 120,
          "channel": 4
        },
        {
          "note": 79,
          "start": 246.554648,
          "duration": 0.079365,
          "velocity": 0.629921,
          "start_tick": 372791,
          "duration_ticks": 120,
          "channel": 4
        },
        {
          "note": 71,
          "start": 246.634013,
          "duration": 0.079365,
          "velocity": 0.629921,
          "start_tick": 372911,
          "duration_ticks": 120,
          "channel": 4
        },
        {
          "note": 74,
          "start": 246.713378,
          "duration": 0.078704,
          "velocity": 0.629921,
          "start_tick": 373031,
          "duration_ticks": 119,
          "channel": 4
        },
        {
          "note": 79,
          "start": 246.792081,
          "duration": 0.079365,
          "velocity": 0.629921,
          "start_tick": 373150,
          "duration_ticks": 120,
          "channel": 4
        },
        {
          "note": 83,
          "start": 246.871446,
          "duration": 0.079365,
          "velocity": 0.629921,
          "start_tick": 373270,
          "duration_ticks": 120,
          "channel": 4
        },
        {
          "note": 74,
          "start": 246.950811,
          "duration": 0.079365,
          "velocity": 0.629921,
          "start_tick": 373390,
          "duration_ticks": 120,
          "channel": 4
        },
        {
          "note": 79,
          "start": 247.030176,
          "duration": 0.079365,
          "velocity": 0.629921,
          "start_tick": 373510,
          "duration_ticks": 120,
          "channel": 4
        },
        {
          "note": 83,
          "start": 247.109541,
          "duration": 0.079365,
          "velocity": 0.629921,
          "start_tick": 373630,
          "duration_ticks": 120,
          "channel": 4
        },
        {
          "note": 86,
          "start": 247.188906,
          "duration": 0.079365,
          "velocity": 0.629921,
          "start_tick": 373750,
          "duration_ticks": 120,
          "channel": 4
        },
        {
          "note": 79,
          "start": 247.268271,
          "duration": 0.078704,
          "velocity": 0.629921,
          "start_tick": 373870,
          "duration_ticks": 119,
          "channel": 4
        },
        {
          "note": 83,
          "start": 247.346975,
          "duration": 0.079365,
          "velocity": 0.629921,
          "start_tick": 373989,
          "duration_ticks": 120,
          "channel": 4
        },
        {
          "note": 86,
          "start": 247.42634,
          "duration": 0.079365,
          "velocity": 0.629921,
          "start_tick": 374109,
          "duration_ticks": 120,
          "channel": 4
        },
        {
          "note": 91,
          "start": 247.505705,
          "duration": 0.079365,
          "velocity": 0.629921,
          "start_tick": 374229,
          "duration_ticks": 120,
          "channel": 4
        },
        {
          "note": 86,
          "start": 247.58507,
          "duration": 0.079365,
          "velocity": 0.629921,
          "start_tick": 374349,
          "duration_ticks": 120,
          "channel": 4
        },
        {
          "note": 83,
          "start": 247.664435,
          "duration": 0.079365,
          "velocity": 0.629921,
          "start_tick": 374469,
          "duration_ticks": 120,
          "channel": 4
        },
        {
          "note": 79,
          "start": 247.7438,
          "duration": 0.079365,
          "velocity": 0.629921,
          "start_tick": 374589,
          "duration_ticks": 120,
          "channel": 4
        },
        {
          "note": 74,
          "start": 247.823165,
          "duration": 0.079365,
          "velocity": 0.629921,
          "start_tick": 374709,
          "duration_ticks": 120,
          "channel": 4
        },
        {
          "note": 84,
          "start": 247.90253,
          "duration": 0.078704,
          "velocity": 0.629921,
          "start_tick": 374829,
          "duration_ticks": 119,
          "channel": 4
        },
        {
          "note": 79,
          "start": 247.981234,
          "duration": 0.079365,
          "velocity": 0.629921,
          "start_tick": 374948,
          "duration_ticks": 120,
          "channel": 4
        },
        {
          "note": 74,
          "start": 248.060598,
          "duration": 0.079365,
          "velocity": 0.629921,
          "start_tick": 375068,
          "duration_ticks": 120,
          "channel": 4
        },
        {
          "note": 71,
          "start": 248.139963,
          "duration": 0.079365,
          "velocity": 0.629921,
          "start_tick": 375188,
          "duration_ticks": 120,
          "channel": 4
        },
        {
          "note": 86,
          "start": 248.219328,
          "duration": 0.079365,
          "velocity": 0.629921,
          "start_tick": 375308,
          "duration_ticks": 120,
          "channel": 4
        },
        {
          "note": 84,
          "start": 248.298694,
          "duration": 0.079365,
          "velocity": 0.629921,
          "start_tick": 375428,
          "duration_ticks": 120,
          "channel": 4
        },
        {
          "note": 79,
          "start": 248.378059,
          "duration": 0.079365,
          "velocity": 0.629921,
          "start_tick": 375548,
          "duration_ticks": 120,
          "channel": 4
        },
        {
          "note": 74,
          "start": 248.457424,
          "duration": 0.078704,
          "velocity": 0.629921,
          "start_tick": 375668,
          "duration_ticks": 119,
          "channel": 4
        },
        {
          "note": 79,
          "start": 248.536127,
          "duration": 0.079365,
          "velocity": 0.629921,
          "start_tick": 375787,
          "duration_ticks": 120,
          "channel": 4
        },
        {
          "note": 74,
          "start": 248.615492,
          "duration": 0.079365,
          "velocity": 0.629921,
          "start_tick": 375907,
          "duration_ticks": 120,
          "channel": 4
        },
        {
          "note": 71,
          "start": 248.694857,
          "duration": 0.079365,
          "velocity": 0.629921,
          "start_tick": 376027,
          "duration_ticks": 120,
          "channel": 4
        },
        {
          "note": 67,
          "start": 248.774222,
          "duration": 0.079365,
          "velocity": 0.629921,
          "start_tick": 376147,
          "duration_ticks": 120,
          "channel": 4
        },
        {
          "note": 65,
          "start": 248.853587,
          "duration": 0.079365,
          "velocity": 0.629921,
          "start_tick": 376267,
          "duration_ticks": 120,
          "channel": 4
        },
        {
          "note": 68,
          "start": 248.932952,
          "duration": 0.079365,
          "velocity": 0.629921,
          "start_tick": 376387,
          "duration_ticks": 120,
          "channel": 4
        },
        {
          "note": 72,
          "start": 249.012317,
          "duration": 0.078704,
          "velocity": 0.629921,
          "start_tick": 376507,
          "duration_ticks": 119,
          "channel": 4
        },
        {
          "note": 77,
          "start": 249.091021,
          "duration": 0.079365,
          "velocity": 0.629921,
          "start_tick": 376626,
          "duration_ticks": 120,
          "channel": 4
        },
        {
          "note": 68,
          "start": 249.170386,
          "duration": 0.079365,
          "velocity": 0.629921,
          "start_tick": 376746,
          "duration_ticks": 120,
          "channel": 4
        },
        {
          "note": 72,
          "start": 249.249751,
          "duration": 0.079365,
          "velocity": 0.629921,
          "start_tick": 376866,
          "duration_ticks": 120,
          "channel": 4
        },
        {
          "note": 77,
          "start": 249.329116,
          "duration": 0.079365,
          "velocity": 0.629921,
          "start_tick": 376986,
          "duration_ticks": 120,
          "channel": 4
        },
        {
          "note": 80,
          "start": 249.408481,
          "duration": 0.079365,
          "velocity": 0.629921,
          "start_tick": 377106,
          "duration_ticks": 120,
          "channel": 4
        },
        {
          "note": 72,
          "start": 249.487846,
          "duration": 0.079365,
          "velocity": 0.629921,
          "start_tick": 377226,
          "duration_ticks": 120,
          "channel": 4
        },
        {
          "note": 77,
          "start": 249.567211,
          "duration": 0.078704,
          "velocity": 0.629921,
          "start_tick": 377346,
          "duration_ticks": 119,
          "channel": 4
        },
        {
          "note": 80,
          "start": 249.645914,
          "duration": 0.079365,
          "velocity": 0.629921,
          "start_tick": 377465,
          "duration_ticks": 120,
          "channel": 4
        },
        {
          "note": 84,
          "start": 249.725279,
          "duration": 0.079365,
          "velocity": 0.629921,
          "start_tick": 377585,
          "duration_ticks": 120,
          "channel": 4
        },
        {
          "note": 77,
          "start": 249.804644,
          "duration": 0.079365,
          "velocity": 0.629921,
          "start_tick": 377705,
          "duration_ticks": 120,
          "channel": 4
        },
        {
          "note": 80,
          "start": 249.884009,
          "duration": 0.079365,
          "velocity": 0.629921,
          "start_tick": 377825,
          "duration_ticks": 120,
          "channel": 4
        },
        {
          "note": 84,
          "start": 249.963374,
          "duration": 0.079365,
          "velocity": 0.629921,
          "start_tick": 377945,
          "duration_ticks": 120,
          "channel": 4
        },
        {
          "note": 89,
          "start": 250.042739,
          "duration": 0.079365,
          "velocity": 0.629921,
          "start_tick": 378065,
          "duration_ticks": 120,
          "channel": 4
        },
        {
          "note": 84,
          "start": 250.122104,
          "duration": 0.078704,
          "velocity": 0.629921,
          "start_tick": 378185,
          "duration_ticks": 119,
          "channel": 4
        },
        {
          "note": 80,
          "start": 250.200808,
          "duration": 0.079365,
          "velocity": 0.629921,
          "start_tick": 378304,
          "duration_ticks": 120,
          "channel": 4
        },
        {
          "note": 77,
          "start": 250.280173,
          "duration": 0.079365,
          "velocity": 0.629921,
          "start_tick": 378424,
          "duration_ticks": 120,
          "channel": 4
        },
        {
          "note": 72,
          "start": 250.359538,
          "duration": 0.079365,
          "velocity": 0.629921,
          "start_tick": 378544,
          "duration_ticks": 120,
          "channel": 4
        },
        {
          "note": 80,
          "start": 250.438903,
          "duration": 0.079365,
          "velocity": 0.629921,
          "start_tick": 378664,
          "duration_ticks": 120,
          "channel": 4
        },
        {
          "note": 77,
          "start": 250.518268,
          "duration": 0.079365,
          "velocity": 0.629921,
          "start_tick": 378784,
          "duration_ticks": 120,
          "channel": 4
        },
        {
          "note": 72,
          "start": 250.597633,
          "duration": 0.079365,
          "velocity": 0.629921,
          "start_tick": 378904,
          "duration_ticks": 120,
          "channel": 4
        },
        {
          "note": 68,
          "start": 250.676998,
          "duration": 0.078704,
          "velocity": 0.629921,
          "start_tick": 379024,
          "duration_ticks": 119,
          "channel": 4
        },
        {
          "note": 84,
          "start": 250.755702,
          "duration": 0.079365,
          "velocity": 0.629921,
          "start_tick": 379143,
          "duration_ticks": 120,
          "channel": 4
        },
        {
          "note": 80,
          "start": 250.835067,
          "duration": 0.079365,
          "velocity": 0.629921,
          "start_tick": 379263,
          "duration_ticks": 120,
          "channel": 4
        },
        {
          "note": 77,
          "start": 250.914432,
          "duration": 0.079365,
          "velocity": 0.629921,
          "start_tick": 379383,
          "duration_ticks": 120,
          "channel": 4
        },
        {
          "note": 72,
          "start": 250.993797,
          "duration": 0.079365,
          "velocity": 0.629921,
          "start_tick": 379503,
          "duration_ticks": 120,
          "channel": 4
        },
        {
          "note": 77,
          "start": 251.073162,
          "duration": 0.079365,
          "velocity": 0.629921,
          "start_tick": 379623,
          "duration_ticks": 120,
          "channel": 4
        },
        {
          "note": 72,
          "start": 251.152527,
          "duration": 0.079365,
          "velocity": 0.629921,
          "start_tick": 379743,
          "duration_ticks": 120,
          "channel": 4
        },
        {
          "note": 68,
          "start": 251.231892,
          "duration": 0.078704,
          "velocity": 0.629921,
          "start_tick": 379863,
          "duration_ticks": 119,
          "channel": 4
        },
        {
          "note": 65,
          "start": 251.310595,
          "duration": 0.079365,
          "velocity": 0.629921,
          "start_tick": 379982,
          "duration_ticks": 120,
          "channel": 4
        },
        {
          "note": 60,
          "start": 251.38996,
          "duration": 0.079365,
          "velocity": 0.629921,
          "start_tick": 380102,
          "duration_ticks": 120,
          "channel": 4
        },
        {
          "note": 63,
          "start": 251.469325,
          "duration": 0.079365,
          "velocity": 0.629921,
          "start_tick": 380222,
          "duration_ticks": 120,
          "channel": 4
        },
        {
          "note": 65,
          "start": 251.54869,
          "duration": 0.079365,
          "velocity": 0.629921,
          "start_tick": 380342,
          "duration_ticks": 120,
          "channel": 4
        },
        {
          "note": 67,
          "start": 251.628055,
          "duration": 0.079365,
          "velocity": 0.629921,
          "start_tick": 380462,
          "duration_ticks": 120,
          "channel": 4
        },
        {
          "note": 63,
          "start": 251.70742,
          "duration": 0.079365,
          "velocity": 0.629921,
          "start_tick": 380582,
          "duration_ticks": 120,
          "channel": 4
        },
        {
          "note": 65,
          "start": 251.786785,
          "duration": 0.078704,
          "velocity": 0.629921,
          "start_tick": 380702,
          "duration_ticks": 119,
          "channel": 4
        },
        {
          "note": 67,
          "start": 251.865489,
          "duration": 0.079365,
          "velocity": 0.629921,
          "start_tick": 380821,
          "duration_ticks": 120,
          "channel": 4
        },
        {
          "note": 72,
          "start": 251.944854,
          "duration": 0.079365,
          "velocity": 0.629921,
          "start_tick": 380941,
          "duration_ticks": 120,
          "channel": 4
        },
        {
          "note": 67,
          "start": 252.024219,
          "duration": 0.079365,
          "velocity": 0.629921,
          "start_tick": 381061,
          "duration_ticks": 120,
          "channel": 4
        },
        {
          "note": 72,
          "start": 252.103584,
          "duration": 0.079365,
          "velocity": 0.629921,
          "start_tick": 381181,
          "duration_ticks": 120,
          "channel": 4
        },
        {
          "note": 75,
          "start": 252.182949,
          "duration": 0.079365,
          "velocity": 0.629921,
          "start_tick": 381301,
          "duration_ticks": 120,
          "channel": 4
        },
        {
          "note": 77,
          "start": 252.262314,
          "duration": 0.079365,
          "velocity": 0.629921,
          "start_tick": 381421,
          "duration_ticks": 120,
          "channel": 4
        },
        {
          "note": 75,
          "start": 252.341679,
          "duration": 0.079365,
          "velocity": 0.629921,
          "start_tick": 381541,
          "duration_ticks": 120,
          "channel": 4
        },
        {
          "note": 77,
          "start": 252.421044,
          "duration": 0.078704,
          "velocity": 0.629921,
          "start_tick": 381661,
          "duration_ticks": 119,
          "channel": 4
        },
        {
          "note": 79,
          "start": 252.499748,
          "duration": 0.079365,
          "velocity": 0.629921,
          "start_tick": 381780,
          "duration_ticks": 120,
          "channel": 4
        },
        {
          "note": 84,
          "start": 252.579113,
          "duration": 0.079365,
          "velocity": 0.629921,
          "start_tick": 381900,
          "duration_ticks": 120,
          "channel": 4
        },
        {
          "note": 79,
          "start": 252.658478,
          "duration": 0.079365,
          "velocity": 0.629921,
          "start_tick": 382020,
          "duration_ticks": 120,
          "channel": 4
        },
        {
          "note": 77,
          "start": 252.737842,
          "duration": 0.079365,
          "velocity": 0.629921,
          "start_tick": 382140,
          "duration_ticks": 120,
          "channel": 4
        },
        {
          "note": 75,
          "start": 252.817207,
          "duration": 0.079365,
          "velocity": 0.629921,
          "start_tick": 382260,
          "duration_ticks": 120,
          "channel": 4
        },
        {
          "note": 79,
          "start": 252.896572,
          "duration": 0.079365,
          "velocity": 0.629921,
          "start_tick": 382380,
          "duration_ticks": 120,
          "channel": 4
        },
        {
          "note": 77,
          "start": 252.975937,
          "duration": 0.078704,
          "velocity": 0.629921,
          "start_tick": 382500,
          "duration_ticks": 119,
          "channel": 4
        },
        {
          "note": 75,
          "start": 253.054641,
          "duration": 0.079365,
          "velocity": 0.629921,
          "start_tick": 382619,
          "duration_ticks": 120,
          "channel": 4
        },
        {
          "note": 72,
          "start": 253.134006,
          "duration": 0.079365,
          "velocity": 0.629921,
          "start_tick": 382739,
          "duration_ticks": 120,
          "channel": 4
        },
        {
          "note": 77,
          "start": 253.213371,
          "duration": 0.079365,
          "velocity": 0.629921,
          "start_tick": 382859,
          "duration_ticks": 120,
          "channel": 4
        },
        {
          "note": 75,
          "start": 253.292736,
          "duration": 0.079365,
          "velocity": 0.629921,
          "start_tick": 382979,
          "duration_ticks": 120,
          "channel": 4
        },
        {
          "note": 72,
          "start": 253.372101,
          "duration": 0.079365,
          "velocity": 0.629921,
          "start_tick": 383099,
          "duration_ticks": 120,
          "channel": 4
        },
        {
          "note": 67,
          "start": 253.451466,
          "duration": 0.079365,
          "velocity": 0.629921,
          "start_tick": 383219,
          "duration_ticks": 120,
          "channel": 4
        },
        {
          "note": 65,
          "start": 253.530831,
          "duration": 0.078704,
          "velocity": 0.629921,
          "start_tick": 383339,
          "duration_ticks": 119,
          "channel": 4
        },
        {
          "note": 72,
          "start": 253.609535,
          "duration": 0.079365,
          "velocity": 0.629921,
          "start_tick": 383458,
          "duration_ticks": 120,
          "channel": 4
        },
        {
          "note": 67,
          "start": 253.6889,
          "duration": 0.079365,
          "velocity": 0.629921,
          "start_tick": 383578,
          "duration_ticks": 120,
          "channel": 4
        },
        {
          "note": 65,
          "start": 253.768265,
          "duration": 0.079365,
          "velocity": 0.629921,
          "start_tick": 383698,
          "duration_ticks": 120,
          "channel": 4
        },
        {
          "note": 60,
          "start": 253.84763,
          "duration": 0.079365,
          "velocity": 0.629921,
          "start_tick": 383818,
          "duration_ticks": 120,
          "channel": 4
        },
        {
          "note": 63,
          "start": 253.926995,
          "duration": 0.079365,
          "velocity": 0.629921,
          "start_tick": 383938,
          "duration_ticks": 120,
          "channel": 4
        },
        {
          "note": 67,
          "start": 254.00636,
          "duration": 0.079365,
          "velocity": 0.629921,
          "start_tick": 384058,
          "duration_ticks": 120,
          "channel": 4
        },
        {
          "note": 70,
          "start": 254.085725,
          "duration": 0.078704,
          "velocity": 0.629921,
          "start_tick": 384178,
          "duration_ticks": 119,
          "channel": 4
        },
        {
          "note": 75,
          "start": 254.164428,
          "duration": 0.079365,
          "velocity": 0.629921,
          "start_tick": 384297,
          "duration_ticks": 120,
          "channel": 4
        },
        {
          "note": 67,
          "start": 254.243793,
          "duration": 0.079365,
          "velocity": 0.629921,
          "start_tick": 384417,
          "duration_ticks": 120,
          "channel": 4
        },
        {
          "note": 70,
          "start": 254.323158,
          "duration": 0.079365,
          "velocity": 0.629921,
          "start_tick": 384537,
          "duration_ticks": 120,
          "channel": 4
        },
        {
          "note": 75,
          "start": 254.402523,
          "duration": 0.079365,
          "velocity": 0.629921,
          "start_tick": 384657,
          "duration_ticks": 120,
          "channel": 4
        },
        {
          "note": 79,
          "start": 254.481888,
          "duration": 0.079365,
          "velocity": 0.629921,
          "start_tick": 384777,
          "duration_ticks": 120,
          "channel": 4
        },
        {
          "note": 70,
          "start": 254.561253,
          "duration": 0.079365,
          "velocity": 0.629921,
          "start_tick": 384897,
          "duration_ticks": 120,
          "channel": 4
        },
        {
          "note": 75,
          "start": 254.640618,
          "duration": 0.078704,
          "velocity": 0.629921,
          "start_tick": 385017,
          "duration_ticks": 119,
          "channel": 4
        },
        {
          "note": 79,
          "start": 254.719322,
          "duration": 0.079365,
          "velocity": 0.629921,
          "start_tick": 385136,
          "duration_ticks": 120,
          "channel": 4
        },
        {
          "note": 82,
          "start": 254.798687,
          "duration": 0.079365,
          "velocity": 0.629921,
          "start_tick": 385256,
          "duration_ticks": 120,
          "channel": 4
        },
        {
          "note": 75,
          "start": 254.878052,
          "duration": 0.079365,
          "velocity": 0.629921,
          "start_tick": 385376,
          "duration_ticks": 120,
          "channel": 4
        },
        {
          "note": 79,
          "start": 254.957417,
          "duration": 0.079365,
          "velocity": 0.629921,
          "start_tick": 385496,
          "duration_ticks": 120,
          "channel": 4
        },
        {
          "note": 82,
          "start": 255.036782,
          "duration": 0.079365,
          "velocity": 0.629921,
          "start_tick": 385616,
          "duration_ticks": 120,
          "channel": 4
        },
        {
          "note": 87,
          "start": 255.116147,
          "duration": 0.079365,
          "velocity": 0.629921,
          "start_tick": 385736,
          "duration_ticks": 120,
          "channel": 4
        },
        {
          "note": 82,
          "start": 255.195512,
          "duration": 0.078704,
          "velocity": 0.629921,
          "start_tick": 385856,
          "duration_ticks": 119,
          "channel": 4
        },
        {
          "note": 79,
          "start": 255.274216,
          "duration": 0.079365,
          "velocity": 0.629921,
          "start_tick": 385975,
          "duration_ticks": 120,
          "channel": 4
        },
        {
          "note": 75,
          "start": 255.353581,
          "duration": 0.079365,
          "velocity": 0.629921,
          "start_tick": 386095,
          "duration_ticks": 120,
          "channel": 4
        },
        {
          "note": 70,
          "start": 255.432946,
          "duration": 0.079365,
          "velocity": 0.629921,
          "start_tick": 386215,
          "duration_ticks": 120,
          "channel": 4
        },
        {
          "note": 80,
          "start": 255.512311,
          "duration": 0.079365,
          "velocity": 0.629921,
          "start_tick": 386335,
          "duration_ticks": 120,
          "channel": 4
        },
        {
          "note": 75,
          "start": 255.591676,
          "duration": 0.079365,
          "velocity": 0.629921,
          "start_tick": 386455,
          "duration_ticks": 120,
          "channel": 4
        },
        {
          "note": 70,
          "start": 255.671041,
          "duration": 0.079365,
          "velocity": 0.629921,
          "start_tick": 386575,
          "duration_ticks": 120,
          "channel": 4
        },
        {
          "note": 67,
          "start": 255.750406,
          "duration": 0.078704,
          "velocity": 0.629921,
          "start_tick": 386695,
          "duration_ticks": 119,
          "channel": 4
        },
        {
          "note": 82,
          "start": 255.829109,
          "duration": 0.079365,
          "velocity": 0.629921,
          "start_tick": 386814,
          "duration_ticks": 120,
          "channel": 4
        },
        {
          "note": 80,
          "start": 255.908474,
          "duration": 0.079365,
          "velocity": 0.629921,
          "start_tick": 386934,
          "duration_ticks": 120,
          "channel": 4
        },
        {
          "note": 75,
          "start": 255.987839,
          "duration": 0.079365,
          "velocity": 0.629921,
          "start_tick": 387054,
          "duration_ticks": 120,
          "channel": 4
        },
        {
          "note": 70,
          "start": 256.067204,
          "duration": 0.079365,
          "velocity": 0.629921,
          "start_tick": 387174,
          "duration_ticks": 120,
          "channel": 4
        },
        {
          "note": 75,
          "start": 256.146569,
          "duration": 0.079365,
          "velocity": 0.629921,
          "start_tick": 387294,
          "duration_ticks": 120,
          "channel": 4
        },
        {
          "note": 70,
          "start": 256.225934,
          "duration": 0.079365,
          "velocity": 0.629921,
          "start_tick": 387414,
          "duration_ticks": 120,
          "channel": 4
        },
        {
          "note": 67,
          "start": 256.305299,
          "duration": 0.078704,
          "velocity": 0.629921,
          "start_tick": 387534,
          "duration_ticks": 119,
          "channel": 4
        },
        {
          "note": 63,
          "start": 256.384003,
          "duration": 0.079365,
          "velocity": 0.629921,
          "start_tick": 387653,
          "duration_ticks": 120,
          "channel": 4
        },
        {
          "note": 67,
          "start": 256.463368,
          "duration": 0.079365,
          "velocity": 0.629921,
          "start_tick": 387773,
          "duration_ticks": 120,
          "channel": 4
        },
        {
          "note": 71,
          "start": 256.542733,
          "duration": 0.079365,
          "velocity": 0.629921,
          "start_tick": 387893,
          "duration_ticks": 120,
          "channel": 4
        },
        {
          "note": 74,
          "start": 256.622098,
          "duration": 0.079365,
          "velocity": 0.629921,
          "start_tick": 388013,
          "duration_ticks": 120,
          "channel": 4
        },
        {
          "note": 79,
          "start": 256.701463,
          "duration": 0.079365,
          "velocity": 0.629921,
          "start_tick": 388133,
          "duration_ticks": 120,
          "channel": 4
        },
        {
          "note": 71,
          "start": 256.780828,
          "duration": 0.079365,
          "velocity": 0.629921,
          "start_tick": 388253,
          "duration_ticks": 120,
          "channel": 4
        },
        {
          "note": 74,
          "start": 256.860193,
          "duration": 0.079365,
          "velocity": 0.629921,
          "start_tick": 388373,
          "duration_ticks": 120,
          "channel": 4
        },
        {
          "note": 79,
          "start": 256.939558,
          "duration": 0.078704,
          "velocity": 0.629921,
          "start_tick": 388493,
          "duration_ticks": 119,
          "channel": 4
        },
        {
          "note": 83,
          "start": 257.018261,
          "duration": 0.079365,
          "velocity": 0.629921,
          "start_tick": 388612,
          "duration_ticks": 120,
          "channel": 4
        },
        {
          "note": 74,
          "start": 257.097626,
          "duration": 0.079365,
          "velocity": 0.629921,
          "start_tick": 388732,
          "duration_ticks": 120,
          "channel": 4
        },
        {
          "note": 79,
          "start": 257.176991,
          "duration": 0.079365,
          "velocity": 0.629921,
          "start_tick": 388852,
          "duration_ticks": 120,
          "channel": 4
        },
        {
          "note": 83,
          "start": 257.256356,
          "duration": 0.079365,
          "velocity": 0.629921,
          "start_tick": 388972,
          "duration_ticks": 120,
          "channel": 4
        },
        {
          "note": 86,
          "start": 257.335721,
          "duration": 0.079365,
          "velocity": 0.629921,
          "start_tick": 389092,
          "duration_ticks": 120,
          "channel": 4
        },
        {
          "note": 79,
          "start": 257.415086,
          "duration": 0.079365,
          "velocity": 0.629921,
          "start_tick": 389212,
          "duration_ticks": 120,
          "channel": 4
        },
        {
          "note": 83,
          "start": 257.494452,
          "duration": 0.078704,
          "velocity": 0.629921,
          "start_tick": 389332,
          "duration_ticks": 119,
          "channel": 4
        },
        {
          "note": 86,
          "start": 257.573155,
          "duration": 0.079365,
          "velocity": 0.629921,
          "start_tick": 389451,
          "duration_ticks": 120,
          "channel": 4
        },
        {
          "note": 91,
          "start": 257.65252,
          "duration": 0.079365,
          "velocity": 0.629921,
          "start_tick": 389571,
          "duration_ticks": 120,
          "channel": 4
        },
        {
          "note": 86,
          "start": 257.731885,
          "duration": 0.079365,
          "velocity": 0.629921,
          "start_tick": 389691,
          "duration_ticks": 120,
          "channel": 4
        },
        {
          "note": 83,
          "start": 257.81125,
          "duration": 0.079365,
          "velocity": 0.629921,
          "start_tick": 389811,
          "duration_ticks": 120,
          "channel": 4
        },
        {
          "note": 79,
          "start": 257.890615,
          "duration": 0.079365,
          "velocity": 0.629921,
          "start_tick": 389931,
          "duration_ticks": 120,
          "channel": 4
        },
        {
          "note": 74,
          "start": 257.96998,
          "duration": 0.079365,
          "velocity": 0.629921,
          "start_tick": 390051,
          "duration_ticks": 120,
          "channel": 4
        },
        {
          "note": 84,
          "start": 258.049345,
          "duration": 0.078704,
          "velocity": 0.629921,
          "start_tick": 390171,
          "duration_ticks": 119,
          "channel": 4
        },
        {
          "note": 79,
          "start": 258.128049,
          "duration": 0.079365,
          "velocity": 0.629921,
          "start_tick": 390290,
          "duration_ticks": 120,
          "channel": 4
        },
        {
          "note": 74,
          "start": 258.207414,
          "duration": 0.079365,
          "velocity": 0.629921,
          "start_tick": 390410,
          "duration_ticks": 120,
          "channel": 4
        },
        {
          "note": 71,
          "start": 258.286779,
          "duration": 0.079365,
          "velocity": 0.629921,
          "start_tick": 390530,
          "duration_ticks": 120,
          "channel": 4
        },
        {
          "note": 86,
          "start": 258.366144,
          "duration": 0.079365,
          "velocity": 0.629921,
          "start_tick": 390650,
          "duration_ticks": 120,
          "channel": 4
        },
        {
          "note": 84,
          "start": 258.445509,
          "duration": 0.079365,
          "velocity": 0.629921,
          "start_tick": 390770,
          "duration_ticks": 120,
          "channel": 4
        },
        {
          "note": 79,
          "start": 258.524874,
          "duration": 0.079365,
          "velocity": 0.629921,
          "start_tick": 390890,
          "duration_ticks": 120,
          "channel": 4
        },
        {
          "note": 74,
          "start": 258.604239,
          "duration": 0.078704,
          "velocity": 0.629921,
          "start_tick": 391010,
          "duration_ticks": 119,
          "channel": 4
        },
        {
          "note": 79,
          "start": 258.682942,
          "duration": 0.079365,
          "velocity": 0.629921,
          "start_tick": 391129,
          "duration_ticks": 120,
          "channel": 4
        },
        {
          "note": 74,
          "start": 258.762307,
          "duration": 0.079365,
          "velocity": 0.629921,
          "start_tick": 391249,
          "duration_ticks": 120,
          "channel": 4
        },
        {
          "note": 71,
          "start": 258.841672,
          "duration": 0.079365,
          "velocity": 0.629921,
          "start_tick": 391369,
          "duration_ticks": 120,
          "channel": 4
        },
        {
          "note": 67,
          "start": 258.921037,
          "duration": 0.079365,
          "velocity": 0.629921,
          "start_tick": 391489,
          "duration_ticks": 120,
          "channel": 4
        },
        {
          "note": 65,
          "start": 259.000402,
          "duration": 0.079365,
          "velocity": 0.629921,
          "start_tick": 391609,
          "duration_ticks": 120,
          "channel": 4
        },
        {
          "note": 68,
          "start": 259.079767,
          "duration": 0.079365,
          "velocity": 0.629921,
          "start_tick": 391729,
          "duration_ticks": 120,
          "channel": 4
        },
        {
          "note": 72,
          "start": 259.159132,
          "duration": 0.078704,
          "velocity": 0.629921,
          "start_tick": 391849,
          "duration_ticks": 119,
          "channel": 4
        },
        {
          "note": 77,
          "start": 259.237836,
          "duration": 0.079365,
          "velocity": 0.629921,
          "start_tick": 391968,
          "duration_ticks": 120,
          "channel": 4
        },
        {
          "note": 68,
          "start": 259.317201,
          "duration": 0.079365,
          "velocity": 0.629921,
          "start_tick": 392088,
          "duration_ticks": 120,
          "channel": 4
        },
        {
          "note": 72,
          "start": 259.396566,
          "duration": 0.079365,
          "velocity": 0.629921,
          "start_tick": 392208,
          "duration_ticks": 120,
          "channel": 4
        },
        {
          "note": 77,
          "start": 259.475931,
          "duration": 0.079365,
          "velocity": 0.629921,
          "start_tick": 392328,
          "duration_ticks": 120,
          "channel": 4
        },
        {
          "note": 80,
          "start": 259.555296,
          "duration": 0.079365,
          "velocity": 0.629921,
          "start_tick": 392448,
          "duration_ticks": 120,
          "channel": 4
        },
        {
          "note": 72,
          "start": 259.634661,
          "duration": 0.079365,
          "velocity": 0.629921,
          "start_tick": 392568,
          "duration_ticks": 120,
          "channel": 4
        },
        {
          "note": 77,
          "start": 259.714026,
          "duration": 0.078704,
          "velocity": 0.629921,
          "start_tick": 392688,
          "duration_ticks": 119,
          "channel": 4
        },
        {
          "note": 80,
          "start": 259.79273,
          "duration": 0.079365,
          "velocity": 0.629921,
          "start_tick": 392807,
          "duration_ticks": 120,
          "channel": 4
        },
        {
          "note": 84,
          "start": 259.872095,
          "duration": 0.079365,
          "velocity": 0.629921,
          "start_tick": 392927,
          "duration_ticks": 120,
          "channel": 4
        },
        {
          "note": 77,
          "start": 259.95146,
          "duration": 0.079365,
          "velocity": 0.629921,
          "start_tick": 393047,
          "duration_ticks": 120,
          "channel": 4
        },
        {
          "note": 80,
          "start": 260.030825,
          "duration": 0.079365,
          "velocity": 0.629921,
          "start_tick": 393167,
          "duration_ticks": 120,
          "channel": 4
        },
        {
          "note": 84,
          "start": 260.11019,
          "duration": 0.079365,
          "velocity": 0.629921,
          "start_tick": 393287,
          "duration_ticks": 120,
          "channel": 4
        },
        {
          "note": 89,
          "start": 260.189555,
          "duration": 0.079365,
          "velocity": 0.629921,
          "start_tick": 393407,
          "duration_ticks": 120,
          "channel": 4
        },
        {
          "note": 84,
          "start": 260.26892,
          "duration": 0.078704,
          "velocity": 0.629921,
          "start_tick": 393527,
          "duration_ticks": 119,
          "channel": 4
        },
        {
          "note": 80,
          "start": 260.347623,
          "duration": 0.079365,
          "velocity": 0.629921,
          "start_tick": 393646,
          "duration_ticks": 120,
          "channel": 4
        },
        {
          "note": 77,
          "start": 260.426988,
          "duration": 0.079365,
          "velocity": 0.629921,
          "start_tick": 393766,
          "duration_ticks": 120,
          "channel": 4
        },
        {
          "note": 72,
          "start": 260.506353,
          "duration": 0.079365,
          "velocity": 0.629921,
          "start_tick": 393886,
          "duration_ticks": 120,
          "channel": 4
        },
        {
          "note": 80,
          "start": 260.585718,
          "duration": 0.079365,
          "velocity": 0.629921,
          "start_tick": 394006,
          "duration_ticks": 120,
          "channel": 4
        },
        {
          "note": 77,
          "start": 260.665083,
          "duration": 0.079365,
          "velocity": 0.629921,
          "start_tick": 394126,
          "duration_ticks": 120,
          "channel": 4
        },
        {
          "note": 72,
          "start": 260.744448,
          "duration": 0.079365,
          "velocity": 0.629921,
          "start_tick": 394246,
          "duration_ticks": 120,
          "channel": 4
        },
        {
          "note": 68,
          "start": 260.823813,
          "duration": 0.078704,
          "velocity": 0.629921,
          "start_tick": 394366,
          "duration_ticks": 119,
          "channel": 4
        },
        {
          "note": 84,
          "start": 260.902517,
          "duration": 0.079365,
          "velocity": 0.629921,
          "start_tick": 394485,
          "duration_ticks": 120,
          "channel": 4
        },
        {
          "note": 80,
          "start": 260.981882,
          "duration": 0.079365,
          "velocity": 0.629921,
          "start_tick": 394605,
          "duration_ticks": 120,
          "channel": 4
        },
        {
          "note": 77,
          "start": 261.061247,
          "duration": 0.079365,
          "velocity": 0.629921,
          "start_tick": 394725,
          "duration_ticks": 120,
          "channel": 4
        },
        {
          "note": 72,
          "start": 261.140612,
          "duration": 0.079365,
          "velocity": 0.629921,
          "start_tick": 394845,
          "duration_ticks": 120,
          "channel": 4
        },
        {
          "note": 77,
          "start": 261.219977,
          "duration": 0.079365,
          "velocity": 0.629921,
          "start_tick": 394965,
          "duration_ticks": 120,
          "channel": 4
        },
        {
          "note": 72,
          "start": 261.299342,
          "duration": 0.079365,
          "velocity": 0.629921,
          "start_tick": 395085,
          "duration_ticks": 120,
          "channel": 4
        },
        {
          "note": 68,
          "start": 261.378707,
          "duration": 0.079365,
          "velocity": 0.629921,
          "start_tick": 395205,
          "duration_ticks": 120,
          "channel": 4
        },
        {
          "note": 65,
          "start": 261.458072,
          "duration": 0.078704,
          "velocity": 0.629921,
          "start_tick": 395325,
          "duration_ticks": 119,
          "channel": 4
        },
        {
          "note": 68,
          "start": 261.536775,
          "duration": 0.079365,
          "velocity": 0.629921,
          "start_tick": 395444,
          "duration_ticks": 120,
          "channel": 4
        },
        {
          "note": 72,
          "start": 261.61614,
          "duration": 0.079365,
          "velocity": 0.629921,
          "start_tick": 395564,
          "duration_ticks": 120,
          "channel": 4
        },
        {
          "note": 75,
          "start": 261.695506,
          "duration": 0.079365,
          "velocity": 0.629921,
          "start_tick": 395684,
          "duration_ticks": 120,
          "channel": 4
        },
        {
          "note": 80,
          "start": 261.774871,
          "duration": 0.079365,
          "velocity": 0.629921,
          "start_tick": 395804,
          "duration_ticks": 120,
          "channel": 4
        },
        {
          "note": 72,
          "start": 261.854236,
          "duration": 0.079365,
          "velocity": 0.629921,
          "start_tick": 395924,
          "duration_ticks": 120,
          "channel": 4
        },
        {
          "note": 75,
          "start": 261.933601,
          "duration": 0.079365,
          "velocity": 0.629921,
          "start_tick": 396044,
          "duration_ticks": 120,
          "channel": 4
        },
        {
          "note": 80,
          "start": 262.012966,
          "duration": 0.078704,
          "velocity": 0.629921,
          "start_tick": 396164,
          "duration_ticks": 119,
          "channel": 4
        },
        {
          "note": 84,
          "start": 262.091669,
          "duration": 0.079365,
          "velocity": 0.629921,
          "start_tick": 396283,
          "duration_ticks": 120,
          "channel": 4
        },
        {
          "note": 75,
          "start": 262.171034,
          "duration": 0.079365,
          "velocity": 0.629921,
          "start_tick": 396403,
          "duration_ticks": 120,
          "channel": 4
        },
        {
          "note": 80,
          "start": 262.250399,
          "duration": 0.079365,
          "velocity": 0.629921,
          "start_tick": 396523,
          "duration_ticks": 120,
          "channel": 4
        },
        {
          "note": 84,
          "start": 262.329764,
          "duration": 0.079365,
          "velocity": 0.629921,
          "start_tick": 396643,
          "duration_ticks": 120,
          "channel": 4
        },
        {
          "note": 87,
          "start": 262.409129,
          "duration": 0.079365,
          "velocity": 0.629921,
          "start_tick": 396763,
          "duration_ticks": 120,
          "channel": 4
        },
        {
          "note": 80,
          "start": 262.488494,
          "duration": 0.079365,
          "velocity": 0.629921,
          "start_tick": 396883,
          "duration_ticks": 120,
          "channel": 4
        },
        {
          "note": 84,
          "start": 262.567859,
          "duration": 0.078704,
          "velocity": 0.629921,
          "start_tick": 397003,
          "duration_ticks": 119,
          "channel": 4
        },
        {
          "note": 87,
          "start": 262.646563,
          "duration": 0.079365,
          "velocity": 0.629921,
          "start_tick": 397122,
          "duration_ticks": 120,
          "channel": 4
        },
        {
          "note": 92,
          "start": 262.725928,
          "duration": 0.079365,
          "velocity": 0.629921,
          "start_tick": 397242,
          "duration_ticks": 120,
          "channel": 4
        },
        {
          "note": 87,
          "start": 262.805293,
          "duration": 0.079365,
          "velocity": 0.629921,
          "start_tick": 397362,
          "duration_ticks": 120,
          "channel": 4
        },
        {
          "note": 84,
          "start": 262.884658,
          "duration": 0.079365,
          "velocity": 0.629921,
          "start_tick": 397482,
          "duration_ticks": 120,
          "channel": 4
        },
        {
          "note": 80,
          "start": 262.964023,
          "duration": 0.079365,
          "velocity": 0.629921,
          "start_tick": 397602,
          "duration_ticks": 120,
          "channel": 4
        },
        {
          "note": 75,
          "start": 263.043388,
          "duration": 0.079365,
          "velocity": 0.629921,
          "start_tick": 397722,
          "duration_ticks": 120,
          "channel": 4
        },
        {
          "note": 85,
          "start": 263.122753,
          "duration": 0.078704,
          "velocity": 0.629921,
          "start_tick": 397842,
          "duration_ticks": 119,
          "channel": 4
        },
        {
          "note": 80,
          "start": 263.201456,
          "duration": 0.079365,
          "velocity": 0.629921,
          "start_tick": 397961,
          "duration_ticks": 120,
          "channel": 4
        },
        {
          "note": 75,
          "start": 263.280821,
          "duration": 0.079365,
          "velocity": 0.629921,
          "start_tick": 398081,
          "duration_ticks": 120,
          "channel": 4
        },
        {
          "note": 72,
          "start": 263.360186,
          "duration": 0.079365,
          "velocity": 0.629921,
          "start_tick": 398201,
          "duration_ticks": 120,
          "channel": 4
        },
        {
          "note": 87,
          "start": 263.439551,
          "duration": 0.079365,
          "velocity": 0.629921,
          "start_tick": 398321,
          "duration_ticks": 120,
          "channel": 4
        },
        {
          "note": 85,
          "start": 263.518916,
          "duration": 0.079365,
          "velocity": 0.629921,
          "start_tick": 398441,
          "duration_ticks": 120,
          "channel": 4
        },
        {
          "note": 80,
          "start": 263.598281,
          "duration": 0.079365,
          "velocity": 0.629921,
          "start_tick": 398561,
          "duration_ticks": 120,
          "channel": 4
        },
        {
          "note": 75,
          "start": 263.677646,
          "duration": 0.078704,
          "velocity": 0.629921,
          "start_tick": 398681,
          "duration_ticks": 119,
          "channel": 4
        },
        {
          "note": 80,
          "start": 263.75635,
          "duration": 0.079365,
          "velocity": 0.629921,
          "start_tick": 398800,
          "duration_ticks": 120,
          "channel": 4
        },
        {
          "note": 75,
          "start": 263.835715,
          "duration": 0.079365,
          "velocity": 0.629921,
          "start_tick": 398920,
          "duration_ticks": 120,
          "channel": 4
        },
        {
          "note": 72,
          "start": 263.91508,
          "duration": 0.079365,
          "velocity": 0.629921,
          "start_tick": 399040,
          "duration_ticks": 120,
          "channel": 4
        },
        {
          "note": 68,
          "start": 263.994445,
          "duration": 0.079365,
          "velocity": 0.629921,
          "start_tick": 399160,
          "duration_ticks": 120,
          "channel": 4
        },
        {
          "note": 63,
          "start": 264.07381,
          "duration": 0.079365,
          "velocity": 0.629921,
          "start_tick": 399280,
          "duration_ticks": 120,
          "channel": 4
        },
        {
          "note": 67,
          "start": 264.153175,
          "duration": 0.079365,
          "velocity": 0.629921,
          "start_tick": 399400,
          "duration_ticks": 120,
          "channel": 4
        },
        {
          "note": 70,
          "start": 264.23254,
          "duration": 0.078704,
          "velocity": 0.629921,
          "start_tick": 399520,
          "duration_ticks": 119,
          "channel": 4
        },
        {
          "note": 75,
          "start": 264.311244,
          "duration": 0.079365,
          "velocity": 0.629921,
          "start_tick": 399639,
          "duration_ticks": 120,
          "channel": 4
        },
        {
          "note": 67,
          "start": 264.390609,
          "duration": 0.079365,
          "velocity": 0.629921,
          "start_tick": 399759,
          "duration_ticks": 120,
          "channel": 4
        },
        {
          "note": 70,
          "start": 264.469974,
          "duration": 0.079365,
          "velocity": 0.629921,
          "start_tick": 399879,
          "duration_ticks": 120,
          "channel": 4
        },
        {
          "note": 75,
          "start": 264.549339,
          "duration": 0.079365,
          "velocity": 0.629921,
          "start_tick": 399999,
          "duration_ticks": 120,
          "channel": 4
        },
        {
          "note": 79,
          "start": 264.628704,
          "duration": 0.079365,
          "velocity": 0.629921,
          "start_tick": 400119,
          "duration_ticks": 120,
          "channel": 4
        },
        {
          "note": 70,
          "start": 264.708069,
          "duration": 0.079365,
          "velocity": 0.629921,
          "start_tick": 400239,
          "duration_ticks": 120,
          "channel": 4
        },
        {
          "note": 75,
          "start": 264.787434,
          "duration": 0.078704,
          "velocity": 0.629921,
          "start_tick": 400359,
          "duration_ticks": 119,
          "channel": 4
        },
        {
          "note": 79,
          "start": 264.866137,
          "duration": 0.079365,
          "velocity": 0.629921,
          "start_tick": 400478,
          "duration_ticks": 120,
          "channel": 4
        },
        {
          "note": 82,
          "start": 264.945502,
          "duration": 0.079365,
          "velocity": 0.629921,
          "start_tick": 400598,
          "duration_ticks": 120,
          "channel": 4
        },
        {
          "note": 75,
          "start": 265.024867,
          "duration": 0.079365,
          "velocity": 0.629921,
          "start_tick": 400718,
          "duration_ticks": 120,
          "channel": 4
        },
        {
          "note": 79,
          "start": 265.104232,
          "duration": 0.079365,
          "velocity": 0.629921,
          "start_tick": 400838,
          "duration_ticks": 120,
          "channel": 4
        },
        {
          "note": 82,
          "start": 265.183597,
          "duration": 0.079365,
          "velocity": 0.629921,
          "start_tick": 400958,
          "duration_ticks": 120,
          "channel": 4
        },
        {
          "note": 87,
          "start": 265.262962,
          "duration": 0.079365,
          "velocity": 0.629921,
          "start_tick": 401078,
          "duration_ticks": 120,
          "channel": 4
        },
        {
          "note": 82,
          "start": 265.342327,
          "duration": 0.079365,
          "velocity": 0.629921,
          "start_tick": 401198,
          "duration_ticks": 120,
          "channel": 4
        },
        {
          "note": 79,
          "start": 265.421692,
          "duration": 0.079365,
          "velocity": 0.629921,
          "start_tick": 401318,
          "duration_ticks": 120,
          "channel": 4
        },
        {
          "note": 75,
          "start": 265.501057,
          "duration": 0.079365,
          "velocity": 0.629921,
          "start_tick": 401438,
          "duration_ticks": 120,
          "channel": 4
        },
        {
          "note": 70,
          "start": 265.580422,
          "duration": 0.079365,
          "velocity": 0.629921,
          "start_tick": 401558,
          "duration_ticks": 120,
          "channel": 4
        },
        {
          "note": 80,
          "start": 265.659787,
          "duration": 0.079365,
          "velocity": 0.629921,
          "start_tick": 401678,
          "duration_ticks": 120,
          "channel": 4
        },
        {
          "note": 75,
          "start": 265.739152,
          "duration": 0.079365,
          "velocity": 0.629921,
          "start_tick": 401798,
          "duration_ticks": 120,
          "channel": 4
        },
        {
          "note": 70,
          "start": 265.818517,
          "duration": 0.079365,
          "velocity": 0.629921,
          "start_tick": 401918,
          "duration_ticks": 120,
          "channel": 4
        },
        {
          "note": 67,
          "start": 265.897882,
          "duration": 0.079365,
          "velocity": 0.629921,
          "start_tick": 402038,
          "duration_ticks": 120,
          "channel": 4
        },
        {
          "note": 82,
          "start": 265.977247,
          "duration": 0.079365,
          "velocity": 0.629921,
          "start_tick": 402158,
          "duration_ticks": 120,
          "channel": 4
        },
        {
          "note": 80,
          "start": 266.056612,
          "duration": 0.079365,
          "velocity": 0.629921,
          "start_tick": 402278,
          "duration_ticks": 120,
          "channel": 4
        },
        {
          "note": 75,
          "start": 266.135977,
          "duration": 0.079365,
          "velocity": 0.629921,
          "start_tick": 402398,
          "duration_ticks": 120,
          "channel": 4
        },
        {
          "note": 70,
          "start": 266.215342,
          "duration": 0.079365,
          "velocity": 0.629921,
          "start_tick": 402518,
          "duration_ticks": 120,
          "channel": 4
        },
        {
          "note": 75,
          "start": 266.294707,
          "duration": 0.079365,
          "velocity": 0.629921,
          "start_tick": 402638,
          "duration_ticks": 120,
          "channel": 4
        },
        {
          "note": 70,
          "start": 266.374072,
          "duration": 0.079365,
          "velocity": 0.629921,
          "start_tick": 402758,
          "duration_ticks": 120,
          "channel": 4
        },
        {
          "note": 67,
          "start": 266.453437,
          "duration": 0.079365,
          "velocity": 0.629921,
          "start_tick": 402878,
          "duration_ticks": 120,
          "channel": 4
        },
        {
          "note": 63,
          "start": 266.532802,
          "duration": 0.079365,
          "velocity": 0.629921,
          "start_tick": 402998,
          "duration_ticks": 120,
          "channel": 4
        },
        {
          "note": 67,
          "start": 266.612167,
          "duration": 0.079365,
          "velocity": 0.629921,
          "start_tick": 403118,
          "duration_ticks": 120,
          "channel": 4
        },
        {
          "note": 71,
          "start": 266.691532,
          "duration": 0.079365,
          "velocity": 0.629921,
          "start_tick": 403238,
          "duration_ticks": 120,
          "channel": 4
        },
        {
          "note": 74,
          "start": 266.770897,
          "duration": 0.079365,
          "velocity": 0.629921,
          "start_tick": 403358,
          "duration_ticks": 120,
          "channel": 4
        },
        {
          "note": 79,
          "start": 266.850262,
          "duration": 0.079365,
          "velocity": 0.629921,
          "start_tick": 403478,
          "duration_ticks": 120,
          "channel": 4
        },
        {
          "note": 71,
          "start": 266.929627,
          "duration": 0.079365,
          "velocity": 0.629921,
          "start_tick": 403598,
          "duration_ticks": 120,
          "channel": 4
        },
        {
          "note": 74,
          "start": 267.008992,
          "duration": 0.079365,
          "velocity": 0.629921,
          "start_tick": 403718,
          "duration_ticks": 120,
          "channel": 4
        },
        {
          "note": 79,
          "start": 267.088357,
          "duration": 0.079365,
          "velocity": 0.629921,
          "start_tick": 403838,
          "duration_ticks": 120,
          "channel": 4
        },
        {
          "note": 83,
          "start": 267.167722,
          "duration": 0.079365,
          "velocity": 0.629921,
          "start_tick": 403958,
          "duration_ticks": 120,
          "channel": 4
        },
        {
          "note": 74,
          "start": 267.247087,
          "duration": 0.079365,
          "velocity": 0.629921,
          "start_tick": 404078,
          "duration_ticks": 120,
          "channel": 4
        },
        {
          "note": 79,
          "start": 267.326452,
          "duration": 0.079365,
          "velocity": 0.629921,
          "start_tick": 404198,
          "duration_ticks": 120,
          "channel": 4
        },
        {
          "note": 83,
          "start": 267.405817,
          "duration": 0.079365,
          "velocity": 0.629921,
          "start_tick": 404318,
          "duration_ticks": 120,
          "channel": 4
        },
        {
          "note": 86,
          "start": 267.485182,
          "duration": 0.079365,
          "velocity": 0.629921,
          "start_tick": 404438,
          "duration_ticks": 120,
          "channel": 4
        },
        {
          "note": 79,
          "start": 267.564547,
          "duration": 0.079365,
          "velocity": 0.629921,
          "start_tick": 404558,
          "duration_ticks": 120,
          "channel": 4
        },
        {
          "note": 83,
          "start": 267.643912,
          "duration": 0.079365,
          "velocity": 0.629921,
          "start_tick": 404678,
          "duration_ticks": 120,
          "channel": 4
        },
        {
          "note": 86,
          "start": 267.723277,
          "duration": 0.079365,
          "velocity": 0.629921,
          "start_tick": 404798,
          "duration_ticks": 120,
          "channel": 4
        },
        {
          "note": 91,
          "start": 267.802642,
          "duration": 0.079365,
          "velocity": 0.629921,
          "start_tick": 404918,
          "duration_ticks": 120,
          "channel": 4
        },
        {
          "note": 86,
          "start": 267.882007,
          "duration": 0.079365,
          "velocity": 0.629921,
          "start_tick": 405038,
          "duration_ticks": 120,
          "channel": 4
        },
        {
          "note": 83,
          "start": 267.961372,
          "duration": 0.079365,
          "velocity": 0.629921,
          "start_tick": 405158,
          "duration_ticks": 120,
          "channel": 4
        },
        {
          "note": 79,
          "start": 268.040737,
          "duration": 0.079365,
          "velocity": 0.629921,
          "start_tick": 405278,
          "duration_ticks": 120,
          "channel": 4
        },
        {
          "note": 74,
          "start": 268.120102,
          "duration": 0.079365,
          "velocity": 0.629921,
          "start_tick": 405398,
          "duration_ticks": 120,
          "channel": 4
        },
        {
          "note": 84,
          "start": 268.199467,
          "duration": 0.079365,
          "velocity": 0.629921,
          "start_tick": 405518,
          "duration_ticks": 120,
          "channel": 4
        },
        {
          "note": 79,
          "start": 268.278832,
          "duration": 0.079365,
          "velocity": 0.629921,
          "start_tick": 405638,
          "duration_ticks": 120,
          "channel": 4
        },
        {
          "note": 74,
          "start": 268.358197,
          "duration": 0.079365,
          "velocity": 0.629921,
          "start_tick": 405758,
          "duration_ticks": 120,
          "channel": 4
        },
        {
          "note": 71,
          "start": 268.437562,
          "duration": 0.079365,
          "velocity": 0.629921,
          "start_tick": 405878,
          "duration_ticks": 120,
          "channel": 4
        },
        {
          "note": 86,
          "start": 268.516927,
          "duration": 0.079365,
          "velocity": 0.629921,
          "start_tick": 405998,
          "duration_ticks": 120,
          "channel": 4
        },
        {
          "note": 84,
          "start": 268.596292,
          "duration": 0.079365,
          "velocity": 0.629921,
          "start_tick": 406118,
          "duration_ticks": 120,
          "channel": 4
        },
        {
          "note": 79,
          "start": 268.675657,
          "duration": 0.079365,
          "velocity": 0.629921,
          "start_tick": 406238,
          "duration_ticks": 120,
          "channel": 4
        },
        {
          "note": 74,
          "start": 268.755022,
          "duration": 0.079365,
          "velocity": 0.629921,
          "start_tick": 406358,
          "duration_ticks": 120,
          "channel": 4
        },
        {
          "note": 79,
          "start": 268.834387,
          "duration": 0.079365,
          "velocity": 0.629921,
          "start_tick": 406478,
          "duration_ticks": 120,
          "channel": 4
        },
        {
          "note": 74,
          "start": 268.913752,
          "duration": 0.079365,
          "velocity": 0.629921,
          "start_tick": 406598,
          "duration_ticks": 120,
          "channel": 4
        },
        {
          "note": 71,
          "start": 268.993117,
          "duration": 0.079365,
          "velocity": 0.629921,
          "start_tick": 406718,
          "duration_ticks": 120,
          "channel": 4
        },
        {
          "note": 67,
          "start": 269.072482,
          "duration": 0.079365,
          "velocity": 0.629921,
          "start_tick": 406838,
          "duration_ticks": 120,
          "channel": 4
        },
        {
          "note": 65,
          "start": 269.151847,
          "duration": 0.079365,
          "velocity": 0.629921,
          "start_tick": 406958,
          "duration_ticks": 120,
          "channel": 4
        },
        {
          "note": 68,
          "start": 269.231212,
          "duration": 0.079365,
          "velocity": 0.629921,
          "start_tick": 407078,
          "duration_ticks": 120,
          "channel": 4
        },
        {
          "note": 72,
          "start": 269.310577,
          "duration": 0.079365,
          "velocity": 0.629921,
          "start_tick": 407198,
          "duration_ticks": 120,
          "channel": 4
        },
        {
          "note": 77,
          "start": 269.389942,
          "duration": 0.079365,
          "velocity": 0.629921,
          "start_tick": 407318,
          "duration_ticks": 120,
          "channel": 4
        },
        {
          "note": 68,
          "start": 269.469307,
          "duration": 0.079365,
          "velocity": 0.629921,
          "start_tick": 407438,
          "duration_ticks": 120,
          "channel": 4
        },
        {
          "note": 72,
          "start": 269.548672,
          "duration": 0.079365,
          "velocity": 0.629921,
          "start_tick": 407558,
          "duration_ticks": 120,
          "channel": 4
        },
        {
          "note": 77,
          "start": 269.628037,
          "duration": 0.079365,
          "velocity": 0.629921,
          "start_tick": 407678,
          "duration_ticks": 120,
          "channel": 4
        },
        {
          "note": 80,
          "start": 269.707402,
          "duration": 0.079365,
          "velocity": 0.629921,
          "start_tick": 407798,
          "duration_ticks": 120,
          "channel": 4
        },
        {
          "note": 72,
          "start": 269.786767,
          "duration": 0.079365,
          "velocity": 0.629921,
          "start_tick": 407918,
          "duration_ticks": 120,
          "channel": 4
        },
        {
          "note": 77,
          "start": 269.866132,
          "duration": 0.079365,
          "velocity": 0.629921,
          "start_tick": 408038,
          "duration_ticks": 120,
          "channel": 4
        },
        {
          "note": 80,
          "start": 269.945497,
          "duration": 0.079365,
          "velocity": 0.629921,
          "start_tick": 408158,
          "duration_ticks": 120,
          "channel": 4
        },
        {
          "note": 84,
          "start": 270.024862,
          "duration": 0.079365,
          "velocity": 0.629921,
          "start_tick": 408278,
          "duration_ticks": 120,
          "channel": 4
        },
        {
          "note": 77,
          "start": 270.104227,
          "duration": 0.079365,
          "velocity": 0.629921,
          "start_tick": 408398,
          "duration_ticks": 120,
          "channel": 4
        },
        {
          "note": 80,
          "start": 270.183592,
          "duration": 0.079365,
          "velocity": 0.629921,
          "start_tick": 408518,
          "duration_ticks": 120,
          "channel": 4
        },
        {
          "note": 84,
          "start": 270.262957,
          "duration": 0.079365,
          "velocity": 0.629921,
          "start_tick": 408638,
          "duration_ticks": 120,
          "channel": 4
        },
        {
          "note": 89,
          "start": 270.342322,
          "duration": 0.079365,
          "velocity": 0.629921,
          "start_tick": 408758,
          "duration_ticks": 120,
          "channel": 4
        },
        {
          "note": 84,
          "start": 270.421687,
          "duration": 0.079365,
          "velocity": 0.629921,
          "start_tick": 408878,
          "duration_ticks": 120,
          "channel": 4
        },
        {
          "note": 80,
          "start": 270.501052,
          "duration": 0.079365,
          "velocity": 0.629921,
          "start_tick": 408998,
          "duration_ticks": 120,
          "channel": 4
        },
        {
          "note": 77,
          "start": 270.580417,
          "duration": 0.079365,
          "velocity": 0.629921,
          "start_tick": 409118,
          "duration_ticks": 120,
          "channel": 4
        },
        {
          "note": 72,
          "start": 270.659782,
          "duration": 0.079365,
          "velocity": 0.629921,
          "start_tick": 409238,
          "duration_ticks": 120,
          "channel": 4
        },
        {
          "note": 80,
          "start": 270.739147,
          "duration": 0.079365,
          "velocity": 0.629921,
          "start_tick": 409358,
          "duration_ticks": 120,
          "channel": 4
        },
        {
          "note": 77,
          "start": 270.818512,
          "duration": 0.079365,
          "velocity": 0.629921,
          "start_tick": 409478,
          "duration_ticks": 120,
          "channel": 4
        },
        {
          "note": 72,
          "start": 270.897877,
          "duration": 0.079365,
          "velocity": 0.629921,
          "start_tick": 409598,
          "duration_ticks": 120,
          "channel": 4
        },
        {
          "note": 68,
          "start": 270.977242,
          "duration": 0.079365,
          "velocity": 0.629921,
          "start_tick": 409718,
          "duration_ticks": 120,
          "channel": 4
        },
        {
          "note": 84,
          "start": 271.056607,
          "duration": 0.079365,
          "velocity": 0.629921,
          "start_tick": 409838,
          "duration_ticks": 120,
          "channel": 4
        },
        {
          "note": 80,
          "start": 271.135972,
          "duration": 0.079365,
          "velocity": 0.629921,
          "start_tick": 409958,
          "duration_ticks": 120,
          "channel": 4
        },
        {
          "note": 77,
          "start": 271.215337,
          "duration": 0.079365,
          "velocity": 0.629921,
          "start_tick": 410078,
          "duration_ticks": 120,
          "channel": 4
        },
        {
          "note": 72,
          "start": 271.294702,
          "duration": 0.079365,
          "velocity": 0.629921,
          "start_tick": 410198,
          "duration_ticks": 120,
          "channel": 4
        },
        {
          "note": 77,
          "start": 271.374067,
          "duration": 0.079365,
          "velocity": 0.629921,
          "start_tick": 410318,
          "duration_ticks": 120,
          "channel": 4
        },
        {
          "note": 72,
          "start": 271.453432,
          "duration": 0.079365,
          "velocity": 0.629921,
          "start_tick": 410438,
          "duration_ticks": 120,
          "channel": 4
        },
        {
          "note": 68,
          "start": 271.532797,
          "duration": 0.079365,
          "velocity": 0.629921,
          "start_tick": 410558,
          "duration_ticks": 120,
          "channel": 4
        },
        {
          "note": 65,
          "start": 271.612162,
          "duration": 0.079365,
          "velocity": 0.629921,
          "start_tick": 410678,
          "duration_ticks": 120,
          "channel": 4
        },
        {
          "note": 60,
          "start": 271.691527,
          "duration": 0.079365,
          "velocity": 0.629921,
          "start_tick": 410798,
          "duration_ticks": 120,
          "channel": 4
        },
        {
          "note": 63,
          "start": 271.770892,
          "duration": 0.079365,
          "velocity": 0.629921,
          "start_tick": 410918,
          "duration_ticks": 120,
          "channel": 4
        },
        {
          "note": 65,
          "start": 271.850257,
          "duration": 0.079365,
          "velocity": 0.629921,
          "start_tick": 411038,
          "duration_ticks": 120,
          "channel": 4
        },
        {
          "note": 67,
          "start": 271.929622,
          "duration": 0.079365,
          "velocity": 0.629921,
          "start_tick": 411158,
          "duration_ticks": 120,
          "channel": 4
        },
        {
          "note": 63,
          "start": 272.008987,
          "duration": 0.079365,
          "velocity": 0.629921,
          "start_tick": 411278,
          "duration_ticks": 120,
          "channel": 4
        },
        {
          "note": 65,
          "start": 272.088352,
          "duration": 0.079365,
          "velocity": 0.629921,
          "start_tick": 411398,
          "duration_ticks": 120,
          "channel": 4
        },
        {
          "note": 67,
          "start": 272.167717,
          "duration": 0.079365,
          "velocity": 0.629921,
          "start_tick": 411518,
          "duration_ticks": 120,
          "channel": 4
        },
        {
          "note": 72,
          "start": 272.247082,
          "duration": 0.079365,
          "velocity": 0.629921,
          "start_tick": 411638,
          "duration_ticks": 120,
          "channel": 4
        },
        {
          "note": 67,
          "start": 272.326447,
          "duration": 0.079365,
          "velocity": 0.629921,
          "start_tick": 411758,
          "duration_ticks": 120,
          "channel": 4
        },
        {
          "note": 72,
          "start": 272.405812,
          "duration": 0.079365,
          "velocity": 0.629921,
          "start_tick": 411878,
          "duration_ticks": 120,
          "channel": 4
        },
        {
          "note": 75,
          "start": 272.485177,
          "duration": 0.079365,
          "velocity": 0.629921,
          "start_tick": 411998,
          "duration_ticks": 120,
          "channel": 4
        },
        {
          "note": 77,
          "start": 272.564542,
          "duration": 0.079365,
          "velocity": 0.629921,
          "start_tick": 412118,
          "duration_ticks": 120,
          "channel": 4
        },
        {
          "note": 75,
          "start": 272.643907,
          "duration": 0.079365,
          "velocity": 0.629921,
          "start_tick": 412238,
          "duration_ticks": 120,
          "channel": 4
        },
        {
          "note": 77,
          "start": 272.723272,
          "duration": 0.079365,
          "velocity": 0.629921,
          "start_tick": 412358,
          "duration_ticks": 120,
          "channel": 4
        },
        {
          "note": 79,
          "start": 272.802637,
          "duration": 0.079365,
          "velocity": 0.629921,
          "start_tick": 412478,
          "duration_ticks": 120,
          "channel": 4
        },
        {
          "note": 84,
          "start": 272.882002,
          "duration": 0.079365,
          "velocity": 0.629921,
          "start_tick": 412598,
          "duration_ticks": 120,
          "channel": 4
        },
        {
          "note": 79,
          "start": 272.961367,
          "duration": 0.079365,
          "velocity": 0.629921,
          "start_tick": 412718,
          "duration_ticks": 120,
          "channel": 4
        },
        {
          "note": 77,
          "start": 273.040732,
          "duration": 0.079365,
          "velocity": 0.629921,
          "start_tick": 412838,
          "duration_ticks": 120,
          "channel": 4
        },
        {
          "note": 75,
          "start": 273.120097,
          "duration": 0.079365,
          "velocity": 0.629921,
          "start_tick": 412958,
          "duration_ticks": 120,
          "channel": 4
        },
        {
          "note": 79,
          "start": 273.199462,
          "duration": 0.079365,
          "velocity": 0.629921,
          "start_tick": 413078,
          "duration_ticks": 120,
          "channel": 4
        },
        {
          "note": 77,
          "start": 273.278827,
          "duration": 0.079365,
          "velocity": 0.629921,
          "start_tick": 413198,
          "duration_ticks": 120,
          "channel": 4
        },
        {
          "note": 75,
          "start": 273.358192,
          "duration": 0.079365,
          "velocity": 0.629921,
          "start_tick": 413318,
          "duration_ticks": 120,
          "channel": 4
        },
        {
          "note": 72,
          "start": 273.437557,
          "duration": 0.079365,
          "velocity": 0.629921,
          "start_tick": 413438,
          "duration_ticks": 120,
          "channel": 4
        },
        {
          "note": 77,
          "start": 273.516922,
          "duration": 0.079365,
          "velocity": 0.629921,
          "start_tick": 413558,
          "duration_ticks": 120,
          "channel": 4
        },
        {
          "note": 75,
          "start": 273.596287,
          "duration": 0.079365,
          "velocity": 0.629921,
          "start_tick": 413678,
          "duration_ticks": 120,
          "channel": 4
        },
        {
          "note": 72,
          "start": 273.675652,
          "duration": 0.079365,
          "velocity": 0.629921,
          "start_tick": 413798,
          "duration_ticks": 120,
          "channel": 4
        },
        {
          "note": 67,
          "start": 273.755017,
          "duration": 0.079365,
          "velocity": 0.629921,
          "start_tick": 413918,
          "duration_ticks": 120,
          "channel": 4
        },
        {
          "note": 65,
          "start": 273.834382,
          "duration": 0.079365,
          "velocity": 0.629921,
          "start_tick": 414038,
          "duration_ticks": 120,
          "channel": 4
        },
        {
          "note": 72,
          "start": 273.913747,
          "duration": 0.079365,
          "velocity": 0.629921,
          "start_tick": 414158,
          "duration_ticks": 120,
          "channel": 4
        },
        {
          "note": 67,
          "start": 273.993112,
          "duration": 0.079365,
          "velocity": 0.629921,
          "start_tick": 414278,
          "duration_ticks": 120,
          "channel": 4
        },
        {
          "note": 65,
          "start": 274.072477,
          "duration": 0.079365,
          "velocity": 0.629921,
          "start_tick": 414398,
          "duration_ticks": 120,
          "channel": 4
        },
        {
          "note": 60,
          "start": 274.151842,
          "duration": 0.079365,
          "velocity": 0.629921,
          "start_tick": 414518,
          "duration_ticks": 120,
          "channel": 4
        },
        {
          "note": 63,
          "start": 274.231207,
          "duration": 0.079365,
          "velocity": 0.629921,
          "start_tick": 414638,
          "duration_ticks": 120,
          "channel": 4
        },
        {
          "note": 67,
          "start": 274.310572,
          "duration": 0.079365,
          "velocity": 0.629921,
          "start_tick": 414758,
          "duration_ticks": 120,
          "channel": 4
        },
        {
          "note": 70,
          "start": 274.389937,
          "duration": 0.079365,
          "velocity": 0.629921,
          "start_tick": 414878,
          "duration_ticks": 120,
          "channel": 4
        },
        {
          "note": 75,
          "start": 274.469302,
          "duration": 0.079365,
          "velocity": 0.629921,
          "start_tick": 414998,
          "duration_ticks": 120,
          "channel": 4
        },
        {
          "note": 67,
          "start": 274.548667,
          "duration": 0.079365,
          "velocity": 0.629921,
          "start_tick": 415118,
          "duration_ticks": 120,
          "channel": 4
        },
        {
          "note": 70,
          "start": 274.628032,
          "duration": 0.079365,
          "velocity": 0.629921,
          "start_tick": 415238,
          "duration_ticks": 120,
          "channel": 4
        },
        {
          "note": 75,
          "start": 274.707397,
          "duration": 0.079365,
          "velocity": 0.629921,
          "start_tick": 415358,
          "duration_ticks": 120,
          "channel": 4
        },
        {
          "note": 79,
          "start": 274.786762,
          "duration": 0.079365,
          "velocity": 0.629921,
          "start_tick": 415478,
          "duration_ticks": 120,
          "channel": 4
        },
        {
          "note": 70,
          "start": 274.866127,
          "duration": 0.079365,
          "velocity": 0.629921,
          "start_tick": 415598,
          "duration_ticks": 120,
          "channel": 4
        },
        {
          "note": 75,
          "start": 274.945492,
          "duration": 0.079365,
          "velocity": 0.629921,
          "start_tick": 415718,
          "duration_ticks": 120,
          "channel": 4
        },
        {
          "note": 79,
          "start": 275.024857,
          "duration": 0.079365,
          "velocity": 0.629921,
          "start_tick": 415838,
          "duration_ticks": 120,
          "channel": 4
        },
        {
          "note": 82,
          "start": 275.104222,
          "duration": 0.079365,
          "velocity": 0.629921,
          "start_tick": 415958,
          "duration_ticks": 120,
          "channel": 4
        },
        {
          "note": 75,
          "start": 275.183587,
          "duration": 0.079365,
          "velocity": 0.629921,
          "start_tick": 416078,
          "duration_ticks": 120,
          "channel": 4
        },
        {
          "note": 79,
          "start": 275.262952,
          "duration": 0.079365,
          "velocity": 0.629921,
          "start_tick": 416198,
          "duration_ticks": 120,
          "channel": 4
        },
        {
          "note": 82,
          "start": 275.342317,
          "duration": 0.079365,
          "velocity": 0.629921,
          "start_tick": 416318,
          "duration_ticks": 120,
          "channel": 4
        },
        {
          "note": 87,
          "start": 275.421682,
          "duration": 0.079365,
          "velocity": 0.629921,
          "start_tick": 416438,
          "duration_ticks": 120,
          "channel": 4
        },
        {
          "note": 82,
          "start": 275.501047,
          "duration": 0.079365,
          "velocity": 0.629921,
          "start_tick": 416558,
          "duration_ticks": 120,
          "channel": 4
        },
        {
          "note": 79,
          "start": 275.580412,
          "duration": 0.079365,
          "velocity": 0.629921,
          "start_tick": 416678,
          "duration_ticks": 120,
          "channel": 4
        },
        {
          "note": 75,
          "start": 275.659777,
          "duration": 0.079365,
          "velocity": 0.629921,
          "start_tick": 416798,
          "duration_ticks": 120,
          "channel": 4
        },
        {
          "note": 70,
          "start": 275.739142,
          "duration": 0.079365,
          "velocity": 0.629921,
          "start_tick": 416918,
          "duration_ticks": 120,
          "channel": 4
        },
        {
          "note": 80,
          "start": 275.818507,
          "duration": 0.079365,
          "velocity": 0.629921,
          "start_tick": 417038,
          "duration_ticks": 120,
          "channel": 4
        },
        {
          "note": 75,
          "start": 275.897872,
          "duration": 0.079365,
          "velocity": 0.629921,
          "start_tick": 417158,
          "duration_ticks": 120,
          "channel": 4
        },
        {
          "note": 70,
          "start": 275.977237,
          "duration": 0.079365,
          "velocity": 0.629921,
          "start_tick": 417278,
          "duration_ticks": 120,
          "channel": 4
        },
        {
          "note": 67,
          "start": 276.056602,
          "duration": 0.079365,
          "velocity": 0.629921,
          "start_tick": 417398,
          "duration_ticks": 120,
          "channel": 4
        },
        {
          "note": 82,
          "start": 276.135967,
          "duration": 0.079365,
          "velocity": 0.629921,
          "start_tick": 417518,
          "duration_ticks": 120,
          "channel": 4
        },
        {
          "note": 80,
          "start": 276.215332,
          "duration": 0.079365,
          "velocity": 0.629921,
          "start_tick": 417638,
          "duration_ticks": 120,
          "channel": 4
        },
        {
          "note": 75,
          "start": 276.294697,
          "duration": 0.079365,
          "velocity": 0.629921,
          "start_tick": 417758,
          "duration_ticks": 120,
          "channel": 4
        },
        {
          "note": 70,
          "start": 276.374062,
          "duration": 0.079365,
          "velocity": 0.629921,
          "start_tick": 417878,
          "duration_ticks": 120,
          "channel": 4
        },
        {
          "note": 75,
          "start": 276.453427,
          "duration": 0.079365,
          "velocity": 0.629921,
          "start_tick": 417998,
          "duration_ticks": 120,
          "channel": 4
        },
        {
          "note": 70,
          "start": 276.532792,
          "duration": 0.079365,
          "velocity": 0.629921,
          "start_tick": 418118,
          "duration_ticks": 120,
          "channel": 4
        },
        {
          "note": 67,
          "start": 276.612157,
          "duration": 0.079365,
          "velocity": 0.629921,
          "start_tick": 418238,
          "duration_ticks": 120,
          "channel": 4
        },
        {
          "note": 63,
          "start": 276.691522,
          "duration": 0.079365,
          "velocity": 0.629921,
          "start_tick": 418358,
          "duration_ticks": 120,
          "channel": 4
        },
        {
          "note": 67,
          "start": 276.770887,
          "duration": 0.079365,
          "velocity": 0.629921,
          "start_tick": 418478,
          "duration_ticks": 120,
          "channel": 4
        },
        {
          "note": 71,
          "start": 276.850252,
          "duration": 0.079365,
          "velocity": 0.629921,
          "start_tick": 418598,
          "duration_ticks": 120,
          "channel": 4
        },
        {
          "note": 74,
          "start": 276.929617,
          "duration": 0.079365,
          "velocity": 0.629921,
          "start_tick": 418718,
          "duration_ticks": 120,
          "channel": 4
        },
        {
          "note": 79,
          "start": 277.008982,
          "duration": 0.079365,
          "velocity": 0.629921,
          "start_tick": 418838,
          "duration_ticks": 120,
          "channel": 4
        },
        {
          "note": 71,
          "start": 277.088347,
          "duration": 0.079365,
          "velocity": 0.629921,
          "start_tick": 418958,
          "duration_ticks": 120,
          "channel": 4
        },
        {
          "note": 74,
          "start": 277.167712,
          "duration": 0.079365,
          "velocity": 0.629921,
          "start_tick": 419078,
          "duration_ticks": 120,
          "channel": 4
        },
        {
          "note": 79,
          "start": 277.247077,
          "duration": 0.079365,
          "velocity": 0.629921,
          "start_tick": 419198,
          "duration_ticks": 120,
          "channel": 4
        },
        {
          "note": 83,
          "start": 277.326442,
          "duration": 0.079365,
          "velocity": 0.629921,
          "start_tick": 419318,
          "duration_ticks": 120,
          "channel": 4
        },
        {
          "note": 74,
          "start": 277.405807,
          "duration": 0.079365,
          "velocity": 0.629921,
          "start_tick": 419438,
          "duration_ticks": 120,
          "channel": 4
        },
        {
          "note": 79,
          "start": 277.485172,
          "duration": 0.079365,
          "velocity": 0.629921,
          "start_tick": 419558,
          "duration_ticks": 120,
          "channel": 4
        },
        {
          "note": 83,
          "start": 277.564537,
          "duration": 0.079365,
          "velocity": 0.629921,
          "start_tick": 419678,
          "duration_ticks": 120,
          "channel": 4
        },
        {
          "note": 86,
          "start": 277.643902,
          "duration": 0.079365,
          "velocity": 0.629921,
          "start_tick": 419798,
          "duration_ticks": 120,
          "channel": 4
        },
        {
          "note": 79,
          "start": 277.723267,
          "duration": 0.079365,
          "velocity": 0.629921,
          "start_tick": 419918,
          "duration_ticks": 120,
          "channel": 4
        },
        {
          "note": 83,
          "start": 277.802632,
          "duration": 0.079365,
          "velocity": 0.629921,
          "start_tick": 420038,
          "duration_ticks": 120,
          "channel": 4
        },
        {
          "note": 86,
          "start": 277.881997,
          "duration": 0.079365,
          "velocity": 0.629921,
          "start_tick": 420158,
          "duration_ticks": 120,
          "channel": 4
        },
        {
          "note": 91,
          "start": 277.961362,
          "duration": 0.079365,
          "velocity": 0.629921,
          "start_tick": 420278,
          "duration_ticks": 120,
          "channel": 4
        },
        {
          "note": 86,
          "start": 278.040727,
          "duration": 0.079365,
          "velocity": 0.629921,
          "start_tick": 420398,
          "duration_ticks": 120,
          "channel": 4
        },
        {
          "note": 83,
          "start": 278.120092,
          "duration": 0.079365,
          "velocity": 0.629921,
          "start_tick": 420518,
          "duration_ticks": 120,
          "channel": 4
        },
        {
          "note": 79,
          "start": 278.199457,
          "duration": 0.079365,
          "velocity": 0.629921,
          "start_tick": 420638,
          "duration_ticks": 120,
          "channel": 4
        },
        {
          "note": 74,
          "start": 278.278822,
          "duration": 0.079365,
          "velocity": 0.629921,
          "start_tick": 420758,
          "duration_ticks": 120,
          "channel": 4
        },
        {
          "note": 84,
          "start": 278.358187,
          "duration": 0.079365,
          "velocity": 0.629921,
          "start_tick": 420878,
          "duration_ticks": 120,
          "channel": 4
        },
        {
          "note": 79,
          "start": 278.437552,
          "duration": 0.079365,
          "velocity": 0.629921,
          "start_tick": 420998,
          "duration_ticks": 120,
          "channel": 4
        },
        {
          "note": 74,
          "start": 278.516917,
          "duration": 0.079365,
          "velocity": 0.629921,
          "start_tick": 421118,
          "duration_ticks": 120,
          "channel": 4
        },
        {
          "note": 71,
          "start": 278.596282,
          "duration": 0.079365,
          "velocity": 0.629921,
          "start_tick": 421238,
          "duration_ticks": 120,
          "channel": 4
        },
        {
          "note": 86,
          "start": 278.675647,
          "duration": 0.079365,
          "velocity": 0.629921,
          "start_tick": 421358,
          "duration_ticks": 120,
          "channel": 4
        },
        {
          "note": 84,
          "start": 278.755012,
          "duration": 0.079365,
          "velocity": 0.629921,
          "start_tick": 421478,
          "duration_ticks": 120,
          "channel": 4
        },
        {
          "note": 79,
          "start": 278.834377,
          "duration": 0.079365,
          "velocity": 0.629921,
          "start_tick": 421598,
          "duration_ticks": 120,
          "channel": 4
        },
        {
          "note": 74,
          "start": 278.913742,
          "duration": 0.079365,
          "velocity": 0.629921,
          "start_tick": 421718,
          "duration_ticks": 120,
          "channel": 4
        },
        {
          "note": 79,
          "start": 278.993107,
          "duration": 0.079365,
          "velocity": 0.629921,
          "start_tick": 421838,
          "duration_ticks": 120,
          "channel": 4
        },
        {
          "note": 74,
          "start": 279.072472,
          "duration": 0.079365,
          "velocity": 0.629921,
          "start_tick": 421958,
          "duration_ticks": 120,
          "channel": 4
        },
        {
          "note": 71,
          "start": 279.151837,
          "duration": 0.079365,
          "velocity": 0.629921,
          "start_tick": 422078,
          "duration_ticks": 120,
          "channel": 4
        },
        {
          "note": 67,
          "start": 279.231202,
          "duration": 0.079365,
          "velocity": 0.629921,
          "start_tick": 422198,
          "duration_ticks": 120,
          "channel": 4
        },
        {
          "note": 65,
          "start": 279.310567,
          "duration": 0.079365,
          "velocity": 0.629921,
          "start_tick": 422318,
          "duration_ticks": 120,
          "channel": 4
        },
        {
          "note": 68,
          "start": 279.389932,
          "duration": 0.079365,
          "velocity": 0.629921,
          "start_tick": 422438,
          "duration_ticks": 120,
          "channel": 4
        },
        {
          "note": 72,
          "start": 279.469297,
          "duration": 0.079365,
          "velocity": 0.629921,
          "start_tick": 422558,
          "duration_ticks": 120,
          "channel": 4
        },
        {
          "note": 77,
          "start": 279.548662,
          "duration": 0.079365,
          "velocity": 0.629921,
          "start_tick": 422678,
          "duration_ticks": 120,
          "channel": 4
        },
        {
          "note": 68,
          "start": 279.628027,
          "duration": 0.079365,
          "velocity": 0.629921,
          "start_tick": 422798,
          "duration_ticks": 120,
          "channel": 4
        },
        {
          "note": 72,
          "start": 279.707392,
          "duration": 0.079365,
          "velocity": 0.629921,
          "start_tick": 422918,
          "duration_ticks": 120,
          "channel": 4
        },
        {
          "note": 77,
          "start": 279.786757,
          "duration": 0.079365,
          "velocity": 0.629921,
          "start_tick": 423038,
          "duration_ticks": 120,
          "channel": 4
        },
        {
          "note": 80,
          "start": 279.866122,
          "duration": 0.079365,
          "velocity": 0.629921,
          "start_tick": 423158,
          "duration_ticks": 120,
          "channel": 4
        },
        {
          "note": 72,
          "start": 279.945487,
          "duration": 0.079365,
          "velocity": 0.629921,
          "start_tick": 423278,
          "duration_ticks": 120,
          "channel": 4
        },
        {
          "note": 77,
          "start": 280.024852,
          "duration": 0.079365,
          "velocity": 0.629921,
          "start_tick": 423398,
          "duration_ticks": 120,
          "channel": 4
        },
        {
          "note": 80,
          "start": 280.104217,
          "duration": 0.079365,
          "velocity": 0.629921,
          "start_tick": 423518,
          "duration_ticks": 120,
          "channel": 4
        },
        {
          "note": 84,
          "start": 280.183582,
          "duration": 0.079365,
          "velocity": 0.629921,
          "start_tick": 423638,
          "duration_ticks": 120,
          "channel": 4
        },
        {
          "note": 77,
          "start": 280.262947,
          "duration": 0.079365,
          "velocity": 0.629921,
          "start_tick": 423758,
          "duration_ticks": 120,
          "channel": 4
        },
        {
          "note": 80,
          "start": 280.342312,
          "duration": 0.079365,
          "velocity": 0.629921,
          "start_tick": 423878,
          "duration_ticks": 120,
          "channel": 4
        },
        {
          "note": 84,
          "start": 280.421677,
          "duration": 0.079365,
          "velocity": 0.629921,
          "start_tick": 423998,
          "duration_ticks": 120,
          "channel": 4
        },
        {
          "note": 89,
          "start": 280.501042,
          "duration": 0.079365,
          "velocity": 0.629921,
          "start_tick": 424118,
          "duration_ticks": 120,
          "channel": 4
        },
        {
          "note": 84,
          "start": 280.580407,
          "duration": 0.079365,
          "velocity": 0.629921,
          "start_tick": 424238,
          "duration_ticks": 120,
          "channel": 4
        },
        {
          "note": 80,
          "start": 280.659772,
          "duration": 0.079365,
          "velocity": 0.629921,
          "start_tick": 424358,
          "duration_ticks": 120,
          "channel": 4
        },
        {
          "note": 77,
          "start": 280.739137,
          "duration": 0.079365,
          "velocity": 0.629921,
          "start_tick": 424478,
          "duration_ticks": 120,
          "channel": 4
        },
        {
          "note": 72,
          "start": 280.818502,
          "duration": 0.079365,
          "velocity": 0.629921,
          "start_tick": 424598,
          "duration_ticks": 120,
          "channel": 4
        },
        {
          "note": 80,
          "start": 280.897867,
          "duration": 0.079365,
          "velocity": 0.629921,
          "start_tick": 424718,
          "duration_ticks": 120,
          "channel": 4
        },
        {
          "note": 77,
          "start": 280.977232,
          "duration": 0.079365,
          "velocity": 0.629921,
          "start_tick": 424838,
          "duration_ticks": 120,
          "channel": 4
        },
        {
          "note": 72,
          "start": 281.056597,
          "duration": 0.079365,
          "velocity": 0.629921,
          "start_tick": 424958,
          "duration_ticks": 120,
          "channel": 4
        },
        {
          "note": 68,
          "start": 281.135962,
          "duration": 0.079365,
          "velocity": 0.629921,
          "start_tick": 425078,
          "duration_ticks": 120,
          "channel": 4
        },
        {
          "note": 84,
          "start": 281.215327,
          "duration": 0.079365,
          "velocity": 0.629921,
          "start_tick": 425198,
          "duration_ticks": 120,
          "channel": 4
        },
        {
          "note": 80,
          "start": 281.294692,
          "duration": 0.079365,
          "velocity": 0.629921,
          "start_tick": 425318,
          "duration_ticks": 120,
          "channel": 4
        },
        {
          "note": 77,
          "start": 281.374057,
          "duration": 0.079365,
          "velocity": 0.629921,
          "start_tick": 425438,
          "duration_ticks": 120,
          "channel": 4
        },
        {
          "note": 72,
          "start": 281.453422,
          "duration": 0.079365,
          "velocity": 0.629921,
          "start_tick": 425558,
          "duration_ticks": 120,
          "channel": 4
        },
        {
          "note": 77,
          "start": 281.532787,
          "duration": 0.079365,
          "velocity": 0.629921,
          "start_tick": 425678,
          "duration_ticks": 120,
          "channel": 4
        },
        {
          "note": 72,
          "start": 281.612152,
          "duration": 0.079365,
          "velocity": 0.629921,
          "start_tick": 425798,
          "duration_ticks": 120,
          "channel": 4
        },
        {
          "note": 68,
          "start": 281.691517,
          "duration": 0.079365,
          "velocity": 0.629921,
          "start_tick": 425918,
          "duration_ticks": 120,
          "channel": 4
        },
        {
          "note": 65,
          "start": 281.770882,
          "duration": 0.079365,
          "velocity": 0.629921,
          "start_tick": 426038,
          "duration_ticks": 120,
          "channel": 4
        },
        {
          "note": 68,
          "start": 281.850247,
          "duration": 0.079365,
          "velocity": 0.629921,
          "start_tick": 426158,
          "duration_ticks": 120,
          "channel": 4
        },
        {
          "note": 72,
          "start": 281.929612,
          "duration": 0.079365,
          "velocity": 0.629921,
          "start_tick": 426278,
          "duration_ticks": 120,
          "channel": 4
        },
        {
          "note": 75,
          "start": 282.008977,
          "duration": 0.079365,
          "velocity": 0.629921,
          "start_tick": 426398,
          "duration_ticks": 120,
          "channel": 4
        },
        {
          "note": 80,
          "start": 282.088342,
          "duration": 0.079365,
          "velocity": 0.629921,
          "start_tick": 426518,
          "duration_ticks": 120,
          "channel": 4
        },
        {
          "note": 72,
          "start": 282.167707,
          "duration": 0.079365,
          "velocity": 0.629921,
          "start_tick": 426638,
          "duration_ticks": 120,
          "channel": 4
        },
        {
          "note": 75,
          "start": 282.247072,
          "duration": 0.079365,
          "velocity": 0.629921,
          "start_tick": 426758,
          "duration_ticks": 120,
          "channel": 4
        },
        {
          "note": 80,
          "start": 282.326437,
          "duration": 0.079365,
          "velocity": 0.629921,
          "start_tick": 426878,
          "duration_ticks": 120,
          "channel": 4
        },
        {
          "note": 84,
          "start": 282.405802,
          "duration": 0.079365,
          "velocity": 0.629921,
          "start_tick": 426998,
          "duration_ticks": 120,
          "channel": 4
        },
        {
          "note": 75,
          "start": 282.485167,
          "duration": 0.079365,
          "velocity": 0.629921,
          "start_tick": 427118,
          "duration_ticks": 120,
          "channel": 4
        },
        {
          "note": 80,
          "start": 282.564532,
          "duration": 0.079365,
          "velocity": 0.629921,
          "start_tick": 427238,
          "duration_ticks": 120,
          "channel": 4
        },
        {
          "note": 84,
          "start": 282.643897,
          "duration": 0.079365,
          "velocity": 0.629921,
          "start_tick": 427358,
          "duration_ticks": 120,
          "channel": 4
        },
        {
          "note": 87,
          "start": 282.723262,
          "duration": 0.079365,
          "velocity": 0.629921,
          "start_tick": 427478,
          "duration_ticks": 120,
          "channel": 4
        },
        {
          "note": 80,
          "start": 282.802627,
          "duration": 0.079365,
          "velocity": 0.629921,
          "start_tick": 427598,
          "duration_ticks": 120,
          "channel": 4
        },
        {
          "note": 84,
          "start": 282.881992,
          "duration": 0.079365,
          "velocity": 0.629921,
          "start_tick": 427718,
          "duration_ticks": 120,
          "channel": 4
        },
        {
          "note": 87,
          "start": 282.961357,
          "duration": 0.079365,
          "velocity": 0.629921,
          "start_tick": 427838,
          "duration_ticks": 120,
          "channel": 4
        },
        {
          "note": 92,
          "start": 283.040722,
          "duration": 0.079365,
          "velocity": 0.629921,
          "start_tick": 427958,
          "duration_ticks": 120,
          "channel": 4
        },
        {
          "note": 87,
          "start": 283.120087,
          "duration": 0.079365,
          "velocity": 0.629921,
          "start_tick": 428078,
          "duration_ticks": 120,
          "channel": 4
        },
        {
          "note": 84,
          "start": 283.199452,
          "duration": 0.079365,
          "velocity": 0.629921,
          "start_tick": 428198,
          "duration_ticks": 120,
          "channel": 4
        },
        {
          "note": 80,
          "start": 283.278817,
          "duration": 0.079365,
          "velocity": 0.629921,
          "start_tick": 428318,
          "duration_ticks": 120,
          "channel": 4
        },
        {
          "note": 75,
          "start": 283.358182,
          "duration": 0.079365,
          "velocity": 0.629921,
          "start_tick": 428438,
          "duration_ticks": 120,
          "channel": 4
        },
        {
          "note": 85,
          "start": 283.437547,
          "duration": 0.079365,
          "velocity": 0.629921,
          "start_tick": 428558,
          "duration_ticks": 120,
          "channel": 4
        },
        {
          "note": 80,
          "start": 283.516912,
          "duration": 0.079365,
          "velocity": 0.629921,
          "start_tick": 428678,
          "duration_ticks": 120,
          "channel": 4
        },
        {
          "note": 75,
          "start": 283.596277,
          "duration": 0.079365,
          "velocity": 0.629921,
          "start_tick": 428798,
          "duration_ticks": 120,
          "channel": 4
        },
        {
          "note": 72,
          "start": 283.675642,
          "duration": 0.079365,
          "velocity": 0.629921,
          "start_tick": 428918,
          "duration_ticks": 120,
          "channel": 4
        },
        {
          "note": 87,
          "start": 283.755007,
          "duration": 0.079365,
          "velocity": 0.629921,
          "start_tick": 429038,
          "duration_ticks": 120,
          "channel": 4
        },
        {
          "note": 85,
          "start": 283.834372,
          "duration": 0.079365,
          "velocity": 0.629921,
          "start_tick": 429158,
          "duration_ticks": 120,
          "channel": 4
        },
        {
          "note": 80,
          "start": 283.913737,
          "duration": 0.079365,
          "velocity": 0.629921,
          "start_tick": 429278,
          "duration_ticks": 120,
          "channel": 4
        },
        {
          "note": 75,
          "start": 283.993102,
          "duration": 0.079365,
          "velocity": 0.629921,
          "start_tick": 429398,
          "duration_ticks": 120,
          "channel": 4
        },
        {
          "note": 80,
          "start": 284.072467,
          "duration": 0.079365,
          "velocity": 0.629921,
          "start_tick": 429518,
          "duration_ticks": 120,
          "channel": 4
        },
        {
          "note": 75,
          "start": 284.151832,
          "duration": 0.079365,
          "velocity": 0.629921,
          "start_tick": 429638,
          "duration_ticks": 120,
          "channel": 4
        },
        {
          "note": 72,
          "start": 284.231197,
          "duration": 0.079365,
          "velocity": 0.629921,
          "start_tick": 429758,
          "duration_ticks": 120,
          "channel": 4
        },
        {
          "note": 68,
          "start": 284.310562,
          "duration": 0.079365,
          "velocity": 0.629921,
          "start_tick": 429878,
          "duration_ticks": 120,
          "channel": 4
        },
        {
          "note": 63,
          "start": 284.389927,
          "duration": 0.079365,
          "velocity": 0.629921,
          "start_tick": 429998,
          "duration_ticks": 120,
          "channel": 4
        },
        {
          "note": 67,
          "start": 284.469292,
          "duration": 0.079365,
          "velocity": 0.629921,
          "start_tick": 430118,
          "duration_ticks": 120,
          "channel": 4
        },
        {
          "note": 70,
          "start": 284.548657,
          "duration": 0.079365,
          "velocity": 0.629921,
          "start_tick": 430238,
          "duration_ticks": 120,
          "channel": 4
        },
        {
          "note": 75,
          "start": 284.628022,
          "duration": 0.079365,
          "velocity": 0.629921,
          "start_tick": 430358,
          "duration_ticks": 120,
          "channel": 4
        },
        {
          "note": 67,
          "start": 284.707387,
          "duration": 0.079365,
          "velocity": 0.629921,
          "start_tick": 430478,
          "duration_ticks": 120,
          "channel": 4
        },
        {
          "note": 70,
          "start": 284.786752,
          "duration": 0.079365,
          "velocity": 0.629921,
          "start_tick": 430598,
          "duration_ticks": 120,
          "channel": 4
        },
        {
          "note": 75,
          "start": 284.866117,
          "duration": 0.079365,
          "velocity": 0.629921,
          "start_tick": 430718,
          "duration_ticks": 120,
          "channel": 4
        },
        {
          "note": 79,
          "start": 284.945482,
          "duration": 0.079365,
          "velocity": 0.629921,
          "start_tick": 430838,
          "duration_ticks": 120,
          "channel": 4
        },
        {
          "note": 70,
          "start": 285.024847,
          "duration": 0.079365,
          "velocity": 0.629921,
          "start_tick": 430958,
          "duration_ticks": 120,
          "channel": 4
        },
        {
          "note": 75,
          "start": 285.104212,
          "duration": 0.079365,
          "velocity": 0.629921,
          "start_tick": 431078,
          "duration_ticks": 120,
          "channel": 4
        },
        {
          "note": 79,
          "start": 285.183577,
          "duration": 0.079365,
          "velocity": 0.629921,
          "start_tick": 431198,
          "duration_ticks": 120,
          "channel": 4
        },
        {
          "note": 82,
          "start": 285.262942,
          "duration": 0.079365,
          "velocity": 0.629921,
          "start_tick": 431318,
          "duration_ticks": 120,
          "channel": 4
        },
        {
          "note": 75,
          "start": 285.342307,
          "duration": 0.079365,
          "velocity": 0.629921,
          "start_tick": 431438,
          "duration_ticks": 120,
          "channel": 4
        },
        {
          "note": 79,
          "start": 285.421672,
          "duration": 0.079365,
          "velocity": 0.629921,
          "start_tick": 431558,
          "duration_ticks": 120,
          "channel": 4
        },
        {
          "note": 82,
          "start": 285.501037,
          "duration": 0.079365,
          "velocity": 0.629921,
          "start_tick": 431678,
          "duration_ticks": 120,
          "channel": 4
        },
        {
          "note": 87,
          "start": 285.580402,
          "duration": 0.079365,
          "velocity": 0.629921,
          "start_tick": 431798,
          "duration_ticks": 120,
          "channel": 4
        },
        {
          "note": 82,
          "start": 285.659767,
          "duration": 0.079365,
          "velocity": 0.629921,
          "start_tick": 431918,
          "duration_ticks": 120,
          "channel": 4
        },
        {
          "note": 79,
          "start": 285.739132,
          "duration": 0.079365,
          "velocity": 0.629921,
          "start_tick": 432038,
          "duration_ticks": 120,
          "channel": 4
        },
        {
          "note": 75,
          "start": 285.818497,
          "duration": 0.079365,
          "velocity": 0.629921,
          "start_tick": 432158,
          "duration_ticks": 120,
          "channel": 4
        },
        {
          "note": 70,
          "start": 285.897862,
          "duration": 0.079365,
          "velocity": 0.629921,
          "start_tick": 432278,
          "duration_ticks": 120,
          "channel": 4
        },
        {
          "note": 80,
          "start": 285.977227,
          "duration": 0.079365,
          "velocity": 0.629921,
          "start_tick": 432398,
          "duration_ticks": 120,
          "channel": 4
        },
        {
          "note": 75,
          "start": 286.056592,
          "duration": 0.079365,
          "velocity": 0.629921,
          "start_tick": 432518,
          "duration_ticks": 120,
          "channel": 4
        },
        {
          "note": 70,
          "start": 286.135957,
          "duration": 0.079365,
          "velocity": 0.629921,
          "start_tick": 432638,
          "duration_ticks": 120,
          "channel": 4
        },
        {
          "note": 67,
          "start": 286.215322,
          "duration": 0.079365,
          "velocity": 0.629921,
          "start_tick": 432758,
          "duration_ticks": 120,
          "channel": 4
        },
        {
          "note": 82,
          "start": 286.294687,
          "duration": 0.079365,
          "velocity": 0.629921,
          "start_tick": 432878,
          "duration_ticks": 120,
          "channel": 4
        },
        {
          "note": 80,
          "start": 286.374052,
          "duration": 0.079365,
          "velocity": 0.629921,
          "start_tick": 432998,
          "duration_ticks": 120,
          "channel": 4
        },
        {
          "note": 75,
          "start": 286.453417,
          "duration": 0.079365,
          "velocity": 0.629921,
          "start_tick": 433118,
          "duration_ticks": 120,
          "channel": 4
        },
        {
          "note": 70,
          "start": 286.532782,
          "duration": 0.079365,
          "velocity": 0.629921,
          "start_tick": 433238,
          "duration_ticks": 120,
          "channel": 4
        },
        {
          "note": 75,
          "start": 286.612147,
          "duration": 0.079365,
          "velocity": 0.629921,
          "start_tick": 433358,
          "duration_ticks": 120,
          "channel": 4
        },
        {
          "note": 70,
          "start": 286.691512,
          "duration": 0.079365,
          "velocity": 0.629921,
          "start_tick": 433478,
          "duration_ticks": 120,
          "channel": 4
        },
        {
          "note": 67,
          "start": 286.770877,
          "duration": 0.079365,
          "velocity": 0.629921,
          "start_tick": 433598,
          "duration_ticks": 120,
          "channel": 4
        },
        {
          "note": 63,
          "start": 286.850242,
          "duration": 0.079365,
          "velocity": 0.629921,
          "start_tick": 433718,
          "duration_ticks": 120,
          "channel": 4
        },
        {
          "note": 67,
          "start": 286.929607,
          "duration": 0.079365,
          "velocity": 0.629921,
          "start_tick": 433838,
          "duration_ticks": 120,
          "channel": 4
        },
        {
          "note": 71,
          "start": 287.008972,
          "duration": 0.079365,
          "velocity": 0.629921,
          "start_tick": 433958,
          "duration_ticks": 120,
          "channel": 4
        },
        {
          "note": 74,
          "start": 287.088337,
          "duration": 0.079365,
          "velocity": 0.629921,
          "start_tick": 434078,
          "duration_ticks": 120,
          "channel": 4
        },
        {
          "note": 79,
          "start": 287.167702,
          "duration": 0.079365,
          "velocity": 0.629921,
          "start_tick": 434198,
          "duration_ticks": 120,
          "channel": 4
        },
        {
          "note": 71,
          "start": 287.247067,
          "duration": 0.079365,
          "velocity": 0.629921,
          "start_tick": 434318,
          "duration_ticks": 120,
          "channel": 4
        },
        {
          "note": 74,
          "start": 287.326432,
          "duration": 0.079365,
          "velocity": 0.629921,
          "start_tick": 434438,
          "duration_ticks": 120,
          "channel": 4
        },
        {
          "note": 79,
          "start": 287.405797,
          "duration": 0.079365,
          "velocity": 0.629921,
          "start_tick": 434558,
          "duration_ticks": 120,
          "channel": 4
        },
        {
          "note": 83,
          "start": 287.485162,
          "duration": 0.079365,
          "velocity": 0.629921,
          "start_tick": 434678,
          "duration_ticks": 120,
          "channel": 4
        },
        {
          "note": 74,
          "start": 287.564527,
          "duration": 0.079365,
          "velocity": 0.629921,
          "start_tick": 434798,
          "duration_ticks": 120,
          "channel": 4
        },
        {
          "note": 79,
          "start": 287.643892,
          "duration": 0.079365,
          "velocity": 0.629921,
          "start_tick": 434918,
          "duration_ticks": 120,
          "channel": 4
        },
        {
          "note": 83,
          "start": 287.723257,
          "duration": 0.079365,
          "velocity": 0.629921,
          "start_tick": 435038,
          "duration_ticks": 120,
          "channel": 4
        },
        {
          "note": 86,
          "start": 287.802622,
          "duration": 0.079365,
          "velocity": 0.629921,
          "start_tick": 435158,
          "duration_ticks": 120,
          "channel": 4
        },
        {
          "note": 79,
          "start": 287.881987,
          "duration": 0.079365,
          "velocity": 0.629921,
          "start_tick": 435278,
          "duration_ticks": 120,
          "channel": 4
        },
        {
          "note": 83,
          "start": 287.961352,
          "duration": 0.079365,
          "velocity": 0.629921,
          "start_tick": 435398,
          "duration_ticks": 120,
          "channel": 4
        },
        {
          "note": 86,
          "start": 288.040717,
          "duration": 0.079365,
          "velocity": 0.629921,
          "start_tick": 435518,
          "duration_ticks": 120,
          "channel": 4
        },
        {
          "note": 91,
          "start": 288.120082,
          "duration": 0.079365,
          "velocity": 0.629921,
          "start_tick": 435638,
          "duration_ticks": 120,
          "channel": 4
        },
        {
          "note": 86,
          "start": 288.199447,
          "duration": 0.079365,
          "velocity": 0.629921,
          "start_tick": 435758,
          "duration_ticks": 120,
          "channel": 4
        },
        {
          "note": 83,
          "start": 288.278812,
          "duration": 0.079365,
          "velocity": 0.629921,
          "start_tick": 435878,
          "duration_ticks": 120,
          "channel": 4
        },
        {
          "note": 79,
          "start": 288.358177,
          "duration": 0.079365,
          "velocity": 0.629921,
          "start_tick": 435998,
          "duration_ticks": 120,
          "channel": 4
        },
        {
          "note": 74,
          "start": 288.437542,
          "duration": 0.079365,
          "velocity": 0.629921,
          "start_tick": 436118,
          "duration_ticks": 120,
          "channel": 4
        },
        {
          "note": 84,
          "start": 288.516907,
          "duration": 0.079365,
          "velocity": 0.629921,
          "start_tick": 436238,
          "duration_ticks": 120,
          "channel": 4
        },
        {
          "note": 79,
          "start": 288.596272,
          "duration": 0.079365,
          "velocity": 0.629921,
          "start_tick": 436358,
          "duration_ticks": 120,
          "channel": 4
        },
        {
          "note": 74,
          "start": 288.675637,
          "duration": 0.079365,
          "velocity": 0.629921,
          "start_tick": 436478,
          "duration_ticks": 120,
          "channel": 4
        },
        {
          "note": 71,
          "start": 288.755002,
          "duration": 0.079365,
          "velocity": 0.629921,
          "start_tick": 436598,
          "duration_ticks": 120,
          "channel": 4
        },
        {
          "note": 86,
          "start": 288.834367,
          "duration": 0.079365,
          "velocity": 0.629921,
          "start_tick": 436718,
          "duration_ticks": 120,
          "channel": 4
        },
        {
          "note": 84,
          "start": 288.913732,
          "duration": 0.079365,
          "velocity": 0.629921,
          "start_tick": 436838,
          "duration_ticks": 120,
          "channel": 4
        },
        {
          "note": 79,
          "start": 288.993097,
          "duration": 0.079365,
          "velocity": 0.629921,
          "start_tick": 436958,
          "duration_ticks": 120,
          "channel": 4
        },
        {
          "note": 74,
          "start": 289.072462,
          "duration": 0.079365,
          "velocity": 0.629921,
          "start_tick": 437078,
          "duration_ticks": 120,
          "channel": 4
        },
        {
          "note": 79,
          "start": 289.151827,
          "duration": 0.079365,
          "velocity": 0.629921,
          "start_tick": 437198,
          "duration_ticks": 120,
          "channel": 4
        },
        {
          "note": 74,
          "start": 289.231192,
          "duration": 0.079365,
          "velocity": 0.629921,
          "start_tick": 437318,
          "duration_ticks": 120,
          "channel": 4
        },
        {
          "note": 71,
          "start": 289.310557,
          "duration": 0.079365,
          "velocity": 0.629921,
          "start_tick": 437438,
          "duration_ticks": 120,
          "channel": 4
        },
        {
          "note": 67,
          "start": 289.389922,
          "duration": 0.079365,
          "velocity": 0.629921,
          "start_tick": 437558,
          "duration_ticks": 120,
          "channel": 4
        },
        {
          "note": 65,
          "start": 289.469287,
          "duration": 0.079365,
          "velocity": 0.629921,
          "start_tick": 437678,
          "duration_ticks": 120,
          "channel": 4
        },
        {
          "note": 68,
          "start": 289.548652,
          "duration": 0.079365,
          "velocity": 0.629921,
          "start_tick": 437798,
          "duration_ticks": 120,
          "channel": 4
        },
        {
          "note": 72,
          "start": 289.628017,
          "duration": 0.079365,
          "velocity": 0.629921,
          "start_tick": 437918,
          "duration_ticks": 120,
          "channel": 4
        },
        {
          "note": 77,
          "start": 289.707382,
          "duration": 0.079365,
          "velocity": 0.629921,
          "start_tick": 438038,
          "duration_ticks": 120,
          "channel": 4
        },
        {
          "note": 68,
          "start": 289.786747,
          "duration": 0.079365,
          "velocity": 0.629921,
          "start_tick": 438158,
          "duration_ticks": 120,
          "channel": 4
        },
        {
          "note": 72,
          "start": 289.866112,
          "duration": 0.079365,
          "velocity": 0.629921,
          "start_tick": 438278,
          "duration_ticks": 120,
          "channel": 4
        },
        {
          "note": 77,
          "start": 289.945477,
          "duration": 0.079365,
          "velocity": 0.629921,
          "start_tick": 438398,
          "duration_ticks": 120,
          "channel": 4
        },
        {
          "note": 80,
          "start": 290.024842,
          "duration": 0.079365,
          "velocity": 0.629921,
          "start_tick": 438518,
          "duration_ticks": 120,
          "channel": 4
        },
        {
          "note": 72,
          "start": 290.104207,
          "duration": 0.079365,
          "velocity": 0.629921,
          "start_tick": 438638,
          "duration_ticks": 120,
          "channel": 4
        },
        {
          "note": 77,
          "start": 290.183572,
          "duration": 0.079365,
          "velocity": 0.629921,
          "start_tick": 438758,
          "duration_ticks": 120,
          "channel": 4
        },
        {
          "note": 80,
          "start": 290.262937,
          "duration": 0.079365,
          "velocity": 0.629921,
          "start_tick": 438878,
          "duration_ticks": 120,
          "channel": 4
        },
        {
          "note": 84,
          "start": 290.342302,
          "duration": 0.079365,
          "velocity": 0.629921,
          "start_tick": 438998,
          "duration_ticks": 120,
          "channel": 4
        },
        {
          "note": 77,
          "start": 290.421667,
          "duration": 0.079365,
          "velocity": 0.629921,
          "start_tick": 439118,
          "duration_ticks": 120,
          "channel": 4
        },
        {
          "note": 80,
          "start": 290.501032,
          "duration": 0.079365,
          "velocity": 0.629921,
          "start_tick": 439238,
          "duration_ticks": 120,
          "channel": 4
        },
        {
          "note": 84,
          "start": 290.580397,
          "duration": 0.079365,
          "velocity": 0.629921,
          "start_tick": 439358,
          "duration_ticks": 120,
          "channel": 4
        },
        {
          "note": 89,
          "start": 290.659762,
          "duration": 0.079365,
          "velocity": 0.629921,
          "start_tick": 439478,
          "duration_ticks": 120,
          "channel": 4
        },
        {
          "note": 84,
          "start": 290.739127,
          "duration": 0.079365,
          "velocity": 0.629921,
          "start_tick": 439598,
          "duration_ticks": 120,
          "channel": 4
        },
        {
          "note": 80,
          "start": 290.818492,
          "duration": 0.079365,
          "velocity": 0.629921,
          "start_tick": 439718,
          "duration_ticks": 120,
          "channel": 4
        },
        {
          "note": 77,
          "start": 290.897857,
          "duration": 0.079365,
          "velocity": 0.629921,
          "start_tick": 439838,
          "duration_ticks": 120,
          "channel": 4
        },
        {
          "note": 72,
          "start": 290.977222,
          "duration": 0.079365,
          "velocity": 0.629921,
          "start_tick": 439958,
          "duration_ticks": 120,
          "channel": 4
        },
        {
          "note": 80,
          "start": 291.056587,
          "duration": 0.079365,
          "velocity": 0.629921,
          "start_tick": 440078,
          "duration_ticks": 120,
          "channel": 4
        },
        {
          "note": 77,
          "start": 291.135952,
          "duration": 0.079365,
          "velocity": 0.629921,
          "start_tick": 440198,
          "duration_ticks": 120,
          "channel": 4
        },
        {
          "note": 72,
          "start": 291.215317,
          "duration": 0.079365,
          "velocity": 0.629921,
          "start_tick": 440318,
          "duration_ticks": 120,
          "channel": 4
        },
        {
          "note": 68,
          "start": 291.294682,
          "duration": 0.079365,
          "velocity": 0.629921,
          "start_tick": 440438,
          "duration_ticks": 120,
          "channel": 4
        },
        {
          "note": 84,
          "start": 291.374047,
          "duration": 0.079365,
          "velocity": 0.629921,
          "start_tick": 440558,
          "duration_ticks": 120,
          "channel": 4
        },
        {
          "note": 80,
          "start": 291.453412,
          "duration": 0.079365,
          "velocity": 0.629921,
          "start_tick": 440678,
          "duration_ticks": 120,
          "channel": 4
        },
        {
          "note": 77,
          "start": 291.532777,
          "duration": 0.079365,
          "velocity": 0.629921,
          "start_tick": 440798,
          "duration_ticks": 120,
          "channel": 4
        },
        {
          "note": 72,
          "start": 291.612142,
          "duration": 0.079365,
          "velocity": 0.629921,
          "start_tick": 440918,
          "duration_ticks": 120,
          "channel": 4
        },
        {
          "note": 77,
          "start": 291.691507,
          "duration": 0.079365,
          "velocity": 0.629921,
          "start_tick": 441038,
          "duration_ticks": 120,
          "channel": 4
        },
        {
          "note": 72,
          "start": 291.770872,
          "duration": 0.079365,
          "velocity": 0.629921,
          "start_tick": 441158,
          "duration_ticks": 120,
          "channel": 4
        },
        {
          "note": 68,
          "start": 291.850237,
          "duration": 0.079365,
          "velocity": 0.629921,
          "start_tick": 441278,
          "duration_ticks": 120,
          "channel": 4
        },
        {
          "note": 65,
          "start": 291.929602,
          "duration": 0.079365,
          "velocity": 0.629921,
          "start_tick": 441398,
          "duration_ticks": 120,
          "channel": 4
        },
        {
          "note": 60,
          "start": 292.008967,
          "duration": 0.079365,
          "velocity": 0.346457,
          "start_tick": 441518,
          "duration_ticks": 120,
          "channel": 4
        },
        {
          "note": 63,
          "start": 292.088332,
          "duration": 0.079365,
          "velocity": 0.346457,
          "start_tick": 441638,
          "duration_ticks": 120,
          "channel": 4
        },
        {
          "note": 65,
          "start": 292.167697,
          "duration": 0.079365,
          "velocity": 0.346457,
          "start_tick": 441758,
          "duration_ticks": 120,
          "channel": 4
        },
        {
          "note": 67,
          "start": 292.247062,
          "duration": 0.079365,
          "velocity": 0.346457,
          "start_tick": 441878,
          "duration_ticks": 120,
          "channel": 4
        },
        {
          "note": 63,
          "start": 292.326427,
          "duration": 0.079365,
          "velocity": 0.346457,
          "start_tick": 441998,
          "duration_ticks": 120,
          "channel": 4
        },
        {
          "note": 65,
          "start": 292.405792,
          "duration": 0.079365,
          "velocity": 0.346457,
          "start_tick": 442118,
          "duration_ticks": 120,
          "channel": 4
        },
        {
          "note": 67,
          "start": 292.485157,
          "duration": 0.079365,
          "velocity": 0.346457,
          "start_tick": 442238,
          "duration_ticks": 120,
          "channel": 4
        },
        {
          "note": 72,
          "start": 292.564522,
          "duration": 0.079365,
          "velocity": 0.346457,
          "start_tick": 442358,
          "duration_ticks": 120,
          "channel": 4
        },
        {
          "note": 67,
          "start": 292.643887,
          "duration": 0.079365,
          "velocity": 0.346457,
          "start_tick": 442478,
          "duration_ticks": 120,
          "channel": 4
        },
        {
          "note": 72,
          "start": 292.723252,
          "duration": 0.079365,
          "velocity": 0.346457,
          "start_tick": 442598,
          "duration_ticks": 120,
          "channel": 4
        },
        {
          "note": 75,
          "start": 292.802617,
          "duration": 0.079365,
          "velocity": 0.346457,
          "start_tick": 442718,
          "duration_ticks": 120,
          "channel": 4
        },
        {
          "note": 77,
          "start": 292.881982,
          "duration": 0.079365,
          "velocity": 0.346457,
          "start_tick": 442838,
          "duration_ticks": 120,
          "channel": 4
        },
        {
          "note": 75,
          "start": 292.961347,
          "duration": 0.079365,
          "velocity": 0.346457,
          "start_tick": 442958,
          "duration_ticks": 120,
          "channel": 4
        },
        {
          "note": 77,
          "start": 293.040712,
          "duration": 0.079365,
          "velocity": 0.346457,
          "start_tick": 443078,
          "duration_ticks": 120,
          "channel": 4
        },
        {
          "note": 79,
          "start": 293.120077,
          "duration": 0.079365,
          "velocity": 0.346457,
          "start_tick": 443198,
          "duration_ticks": 120,
          "channel": 4
        },
        {
          "note": 84,
          "start": 293.199442,
          "duration": 0.079365,
          "velocity": 0.346457,
          "start_tick": 443318,
          "duration_ticks": 120,
          "channel": 4
        },
        {
          "note": 79,
          "start": 293.278807,
          "duration": 0.079365,
          "velocity": 0.346457,
          "start_tick": 443438,
          "duration_ticks": 120,
          "channel": 4
        },
        {
          "note": 77,
          "start": 293.358172,
          "duration": 0.079365,
          "velocity": 0.346457,
          "start_tick": 443558,
          "duration_ticks": 120,
          "channel": 4
        },
        {
          "note": 75,
          "start": 293.437537,
          "duration": 0.079365,
          "velocity": 0.346457,
          "start_tick": 443678,
          "duration_ticks": 120,
          "channel": 4
        },
        {
          "note": 79,
          "start": 293.516902,
          "duration": 0.079365,
          "velocity": 0.346457,
          "start_tick": 443798,
          "duration_ticks": 120,
          "channel": 4
        },
        {
          "note": 77,
          "start": 293.596267,
          "duration": 0.079365,
          "velocity": 0.346457,
          "start_tick": 443918,
          "duration_ticks": 120,
          "channel": 4
        },
        {
          "note": 75,
          "start": 293.675632,
          "duration": 0.079365,
          "velocity": 0.346457,
          "start_tick": 444038,
          "duration_ticks": 120,
          "channel": 4
        },
        {
          "note": 72,
          "start": 293.754997,
          "duration": 0.079365,
          "velocity": 0.346457,
          "start_tick": 444158,
          "duration_ticks": 120,
          "channel": 4
        },
        {
          "note": 77,
          "start": 293.834362,
          "duration": 0.079365,
          "velocity": 0.346457,
          "start_tick": 444278,
          "duration_ticks": 120,
          "channel": 4
        },
        {
          "note": 75,
          "start": 293.913727,
          "duration": 0.079365,
          "velocity": 0.346457,
          "start_tick": 444398,
          "duration_ticks": 120,
          "channel": 4
        },
        {
          "note": 72,
          "start": 293.993092,
          "duration": 0.079365,
          "velocity": 0.346457,
          "start_tick": 444518,
          "duration_ticks": 120,
          "channel": 4
        },
        {
          "note": 67,
          "start": 294.072457,
          "duration": 0.079365,
          "velocity": 0.346457,
          "start_tick": 444638,
          "duration_ticks": 120,
          "channel": 4
        },
        {
          "note": 65,
          "start": 294.151822,
          "duration": 0.079365,
          "velocity": 0.346457,
          "start_tick": 444758,
          "duration_ticks": 120,
          "channel": 4
        },
        {
          "note": 72,
          "start": 294.231187,
          "duration": 0.079365,
          "velocity": 0.346457,
          "start_tick": 444878,
          "duration_ticks": 120,
          "channel": 4
        },
        {
          "note": 67,
          "start": 294.310552,
          "duration": 0.079365,
          "velocity": 0.346457,
          "start_tick": 444998,
          "duration_ticks": 120,
          "channel": 4
        },
        {
          "note": 65,
          "start": 294.389917,
          "duration": 0.079365,
          "velocity": 0.346457,
          "start_tick": 445118,
          "duration_ticks": 120,
          "channel": 4
        },
        {
          "note": 60,
          "start": 294.469282,
          "duration": 0.079365,
          "velocity": 0.346457,
          "start_tick": 445238,
          "duration_ticks": 120,
          "channel": 4
        },
        {
          "note": 63,
          "start": 294.548647,
          "duration": 0.079365,
          "velocity": 0.346457,
          "start_tick": 445358,
          "duration_ticks": 120,
          "channel": 4
        },
        {
          "note": 67,
          "start": 294.628012,
          "duration": 0.079365,
          "velocity": 0.346457,
          "start_tick": 445478,
          "duration_ticks": 120,
          "channel": 4
        },
        {
          "note": 70,
          "start": 294.707377,
          "duration": 0.079365,
          "velocity": 0.346457,
          "start_tick": 445598,
          "duration_ticks": 120,
          "channel": 4
        },
        {
          "note": 75,
          "start": 294.786742,
          "duration": 0.079365,
          "velocity": 0.346457,
          "start_tick": 445718,
          "duration_ticks": 120,
          "channel": 4
        },
        {
          "note": 67,
          "start": 294.866107,
          "duration": 0.079365,
          "velocity": 0.346457,
          "start_tick": 445838,
          "duration_ticks": 120,
          "channel": 4
        },
        {
          "note": 70,
          "start": 294.945472,
          "duration": 0.079365,
          "velocity": 0.346457,
          "start_tick": 445958,
          "duration_ticks": 120,
          "channel": 4
        },
        {
          "note": 75,
          "start": 295.024837,
          "duration": 0.079365,
          "velocity": 0.346457,
          "start_tick": 446078,
          "duration_ticks": 120,
          "channel": 4
        },
        {
          "note": 79,
          "start": 295.104202,
          "duration": 0.079365,
          "velocity": 0.346457,
          "start_tick": 446198,
          "duration_ticks": 120,
          "channel": 4
        },
        {
          "note": 70,
          "start": 295.183567,
          "duration": 0.079365,
          "velocity": 0.346457,
          "start_tick": 446318,
          "duration_ticks": 120,
          "channel": 4
        },
        {
          "note": 75,
          "start": 295.262932,
          "duration": 0.079365,
          "velocity": 0.346457,
          "start_tick": 446438,
          "duration_ticks": 120,
          "channel": 4
        },
        {
          "note": 79,
          "start": 295.342297,
          "duration": 0.079365,
          "velocity": 0.346457,
          "start_tick": 446558,
          "duration_ticks": 120,
          "channel": 4
        },
        {
          "note": 82,
          "start": 295.421662,
          "duration": 0.079365,
          "velocity": 0.346457,
          "start_tick": 446678,
          "duration_ticks": 120,
          "channel": 4
        },
        {
          "note": 75,
          "start": 295.501027,
          "duration": 0.079365,
          "velocity": 0.346457,
          "start_tick": 446798,
          "duration_ticks": 120,
          "channel": 4
        },
        {
          "note": 79,
          "start": 295.580392,
          "duration": 0.079365,
          "velocity": 0.346457,
          "start_tick": 446918,
          "duration_ticks": 120,
          "channel": 4
        },
        {
          "note": 82,
          "start": 295.659757,
          "duration": 0.079365,
          "velocity": 0.346457,
          "start_tick": 447038,
          "duration_ticks": 120,
          "channel": 4
        },
        {
          "note": 87,
          "start": 295.739122,
          "duration": 0.079365,
          "velocity": 0.346457,
          "start_tick": 447158,
          "duration_ticks": 120,
          "channel": 4
        },
        {
          "note": 82,
          "start": 295.818487,
          "duration": 0.079365,
          "velocity": 0.346457,
          "start_tick": 447278,
          "duration_ticks": 120,
          "channel": 4
        },
        {
          "note": 79,
          "start": 295.897852,
          "duration": 0.079365,
          "velocity": 0.346457,
          "start_tick": 447398,
          "duration_ticks": 120,
          "channel": 4
        },
        {
          "note": 75,
          "start": 295.977217,
          "duration": 0.079365,
          "velocity": 0.346457,
          "start_tick": 447518,
          "duration_ticks": 120,
          "channel": 4
        },
        {
          "note": 70,
          "start": 296.056582,
          "duration": 0.079365,
          "velocity": 0.346457,
          "start_tick": 447638,
          "duration_ticks": 120,
          "channel": 4
        },
        {
          "note": 80,
          "start": 296.135947,
          "duration": 0.079365,
          "velocity": 0.346457,
          "start_tick": 447758,
          "duration_ticks": 120,
          "channel": 4
        },
        {
          "note": 75,
          "start": 296.215312,
          "duration": 0.079365,
          "velocity": 0.346457,
          "start_tick": 447878,
          "duration_ticks": 120,
          "channel": 4
        },
        {
          "note": 70,
          "start": 296.294677,
          "duration": 0.079365,
          "velocity": 0.346457,
          "start_tick": 447998,
          "duration_ticks": 120,
          "channel": 4
        },
        {
          "note": 67,
          "start": 296.374042,
          "duration": 0.079365,
          "velocity": 0.346457,
          "start_tick": 448118,
          "duration_ticks": 120,
          "channel": 4
        },
        {
          "note": 82,
          "start": 296.453407,
          "duration": 0.079365,
          "velocity": 0.346457,
          "start_tick": 448238,
          "duration_ticks": 120,
          "channel": 4
        },
        {
          "note": 80,
          "start": 296.532772,
          "duration": 0.079365,
          "velocity": 0.346457,
          "start_tick": 448358,
          "duration_ticks": 120,
          "channel": 4
        },
        {
          "note": 75,
          "start": 296.612137,
          "duration": 0.079365,
          "velocity": 0.346457,
          "start_tick": 448478,
          "duration_ticks": 120,
          "channel": 4
        },
        {
          "note": 70,
          "start": 296.691502,
          "duration": 0.079365,
          "velocity": 0.346457,
          "start_tick": 448598,
          "duration_ticks": 120,
          "channel": 4
        },
        {
          "note": 75,
          "start": 296.770867,
          "duration": 0.079365,
          "velocity": 0.346457,
          "start_tick": 448718,
          "duration_ticks": 120,
          "channel": 4
        },
        {
          "note": 70,
          "start": 296.850232,
          "duration": 0.079365,
          "velocity": 0.346457,
          "start_tick": 448838,
          "duration_ticks": 120,
          "channel": 4
        },
        {
          "note": 67,
          "start": 296.929597,
          "duration": 0.079365,
          "velocity": 0.346457,
          "start_tick": 448958,
          "duration_ticks": 120,
          "channel": 4
        },
        {
          "note": 63,
          "start": 297.008962,
          "duration": 0.079365,
          "velocity": 0.346457,
          "start_tick": 449078,
          "duration_ticks": 120,
          "channel": 4
        },
        {
          "note": 67,
          "start": 297.088327,
          "duration": 0.079365,
          "velocity": 0.346457,
          "start_tick": 449198,
          "duration_ticks": 120,
          "channel": 4
        },
        {
          "note": 71,
          "start": 297.167692,
          "duration": 0.079365,
          "velocity": 0.346457,
          "start_tick": 449318,
          "duration_ticks": 120,
          "channel": 4
        },
        {
          "note": 74,
          "start": 297.247057,
          "duration": 0.079365,
          "velocity": 0.346457,
          "start_tick": 449438,
          "duration_ticks": 120,
          "channel": 4
        },
        {
          "note": 79,
          "start": 297.326422,
          "duration": 0.079365,
          "velocity": 0.346457,
          "start_tick": 449558,
          "duration_ticks": 120,
          "channel": 4
        },
        {
          "note": 71,
          "start": 297.405787,
          "duration": 0.079365,
          "velocity": 0.346457,
          "start_tick": 449678,
          "duration_ticks": 120,
          "channel": 4
        },
        {
          "note": 74,
          "start": 297.485152,
          "duration": 0.079365,
          "velocity": 0.346457,
          "start_tick": 449798,
          "duration_ticks": 120,
          "channel": 4
        },
        {
          "note": 79,
          "start": 297.564517,
          "duration": 0.079365,
          "velocity": 0.346457,
          "start_tick": 449918,
          "duration_ticks": 120,
          "channel": 4
        },
        {
          "note": 83,
          "start": 297.643882,
          "duration": 0.079365,
          "velocity": 0.346457,
          "start_tick": 450038,
          "duration_ticks": 120,
          "channel": 4
        },
        {
          "note": 74,
          "start": 297.723247,
          "duration": 0.079365,
          "velocity": 0.346457,
          "start_tick": 450158,
          "duration_ticks": 120,
          "channel": 4
        },
        {
          "note": 79,
          "start": 297.802612,
          "duration": 0.079365,
          "velocity": 0.346457,
          "start_tick": 450278,
          "duration_ticks": 120,
          "channel": 4
        },
        {
          "note": 83,
          "start": 297.881977,
          "duration": 0.079365,
          "velocity": 0.346457,
          "start_tick": 450398,
          "duration_ticks": 120,
          "channel": 4
        },
        {
          "note": 86,
          "start": 297.961342,
          "duration": 0.079365,
          "velocity": 0.346457,
          "start_tick": 450518,
          "duration_ticks": 120,
          "channel": 4
        },
        {
          "note": 79,
          "start": 298.040707,
          "duration": 0.079365,
          "velocity": 0.346457,
          "start_tick": 450638,
          "duration_ticks": 120,
          "channel": 4
        },
        {
          "note": 83,
          "start": 298.120072,
          "duration": 0.079365,
          "velocity": 0.346457,
          "start_tick": 450758,
          "duration_ticks": 120,
          "channel": 4
        },
        {
          "note": 86,
          "start": 298.199437,
          "duration": 0.079365,
          "velocity": 0.346457,
          "start_tick": 450878,
          "duration_ticks": 120,
          "channel": 4
        },
        {
          "note": 91,
          "start": 298.278802,
          "duration": 0.079365,
          "velocity": 0.346457,
          "start_tick": 450998,
          "duration_ticks": 120,
          "channel": 4
        },
        {
          "note": 86,
          "start": 298.358167,
          "duration": 0.079365,
          "velocity": 0.346457,
          "start_tick": 451118,
          "duration_ticks": 120,
          "channel": 4
        },
        {
          "note": 83,
          "start": 298.437532,
          "duration": 0.079365,
          "velocity": 0.346457,
          "start_tick": 451238,
          "duration_ticks": 120,
          "channel": 4
        },
        {
          "note": 79,
          "start": 298.516897,
          "duration": 0.079365,
          "velocity": 0.346457,
          "start_tick": 451358,
          "duration_ticks": 120,
          "channel": 4
        },
        {
          "note": 74,
          "start": 298.596262,
          "duration": 0.079365,
          "velocity": 0.346457,
          "start_tick": 451478,
          "duration_ticks": 120,
          "channel": 4
        },
        {
          "note": 84,
          "start": 298.675627,
          "duration": 0.079365,
          "velocity": 0.346457,
          "start_tick": 451598,
          "duration_ticks": 120,
          "channel": 4
        },
        {
          "note": 79,
          "start": 298.754992,
          "duration": 0.079365,
          "velocity": 0.346457,
          "start_tick": 451718,
          "duration_ticks": 120,
          "channel": 4
        },
        {
          "note": 74,
          "start": 298.834357,
          "duration": 0.079365,
          "velocity": 0.346457,
          "start_tick": 451838,
          "duration_ticks": 120,
          "channel": 4
        },
        {
          "note": 71,
          "start": 298.913722,
          "duration": 0.079365,
          "velocity": 0.346457,
          "start_tick": 451958,
          "duration_ticks": 120,
          "channel": 4
        },
        {
          "note": 86,
          "start": 298.993087,
          "duration": 0.079365,
          "velocity": 0.346457,
          "start_tick": 452078,
          "duration_ticks": 120,
          "channel": 4
        },
        {
          "note": 84,
          "start": 299.072452,
          "duration": 0.079365,
          "velocity": 0.346457,
          "start_tick": 452198,
          "duration_ticks": 120,
          "channel": 4
        },
        {
          "note": 79,
          "start": 299.151817,
          "duration": 0.079365,
          "velocity": 0.346457,
          "start_tick": 452318,
          "duration_ticks": 120,
          "channel": 4
        },
        {
          "note": 74,
          "start": 299.231182,
          "duration": 0.079365,
          "velocity": 0.346457,
          "start_tick": 452438,
          "duration_ticks": 120,
          "channel": 4
        },
        {
          "note": 79,
          "start": 299.310547,
          "duration": 0.079365,
          "velocity": 0.346457,
          "start_tick": 452558,
          "duration_ticks": 120,
          "channel": 4
        },
        {
          "note": 74,
          "start": 299.389912,
          "duration": 0.079365,
          "velocity": 0.346457,
          "start_tick": 452678,
          "duration_ticks": 120,
          "channel": 4
        },
        {
          "note": 71,
          "start": 299.469277,
          "duration": 0.079365,
          "velocity": 0.346457,
          "start_tick": 452798,
          "duration_ticks": 120,
          "channel": 4
        },
        {
          "note": 67,
          "start": 299.548642,
          "duration": 0.079365,
          "velocity": 0.346457,
          "start_tick": 452918,
          "duration_ticks": 120,
          "channel": 4
        },
        {
          "note": 65,
          "start": 299.628007,
          "duration": 0.079365,
          "velocity": 0.346457,
          "start_tick": 453038,
          "duration_ticks": 120,
          "channel": 4
        },
        {
          "note": 68,
          "start": 299.707372,
          "duration": 0.079365,
          "velocity": 0.346457,
          "start_tick": 453158,
          "duration_ticks": 120,
          "channel": 4
        },
        {
          "note": 72,
          "start": 299.786737,
          "duration": 0.079365,
          "velocity": 0.346457,
          "start_tick": 453278,
          "duration_ticks": 120,
          "channel": 4
        },
        {
          "note": 77,
          "start": 299.866102,
          "duration": 0.079365,
          "velocity": 0.346457,
          "start_tick": 453398,
          "duration_ticks": 120,
          "channel": 4
        },
        {
          "note": 68,
          "start": 299.945467,
          "duration": 0.079365,
          "velocity": 0.346457,
          "start_tick": 453518,
          "duration_ticks": 120,
          "channel": 4
        },
        {
          "note": 72,
          "start": 300.024832,
          "duration": 0.079365,
          "velocity": 0.346457,
          "start_tick": 453638,
          "duration_ticks": 120,
          "channel": 4
        },
        {
          "note": 77,
          "start": 300.104197,
          "duration": 0.079365,
          "velocity": 0.346457,
          "start_tick": 453758,
          "duration_ticks": 120,
          "channel": 4
        },
        {
          "note": 80,
          "start": 300.183562,
          "duration": 0.079365,
          "velocity": 0.346457,
          "start_tick": 453878,
          "duration_ticks": 120,
          "channel": 4
        },
        {
          "note": 72,
          "start": 300.262927,
          "duration": 0.079365,
          "velocity": 0.346457,
          "start_tick": 453998,
          "duration_ticks": 120,
          "channel": 4
        },
        {
          "note": 77,
          "start": 300.342292,
          "duration": 0.079365,
          "velocity": 0.346457,
          "start_tick": 454118,
          "duration_ticks": 120,
          "channel": 4
        },
        {
          "note": 80,
          "start": 300.421657,
          "duration": 0.079365,
          "velocity": 0.346457,
          "start_tick": 454238,
          "duration_ticks": 120,
          "channel": 4
        },
        {
          "note": 84,
          "start": 300.501022,
          "duration": 0.079365,
          "velocity": 0.346457,
          "start_tick": 454358,
          "duration_ticks": 120,
          "channel": 4
        },
        {
          "note": 77,
          "start": 300.580387,
          "duration": 0.079365,
          "velocity": 0.346457,
          "start_tick": 454478,
          "duration_ticks": 120,
          "channel": 4
        },
        {
          "note": 80,
          "start": 300.659752,
          "duration": 0.079365,
          "velocity": 0.346457,
          "start_tick": 454598,
          "duration_ticks": 120,
          "channel": 4
        },
        {
          "note": 84,
          "start": 300.739117,
          "duration": 0.079365,
          "velocity": 0.346457,
          "start_tick": 454718,
          "duration_ticks": 120,
          "channel": 4
        },
        {
          "note": 89,
          "start": 300.818482,
          "duration": 0.079365,
          "velocity": 0.346457,
          "start_tick": 454838,
          "duration_ticks": 120,
          "channel": 4
        },
        {
          "note": 84,
          "start": 300.897847,
          "duration": 0.079365,
          "velocity": 0.346457,
          "start_tick": 454958,
          "duration_ticks": 120,
          "channel": 4
        },
        {
          "note": 80,
          "start": 300.977212,
          "duration": 0.079365,
          "velocity": 0.346457,
          "start_tick": 455078,
          "duration_ticks": 120,
          "channel": 4
        },
        {
          "note": 77,
          "start": 301.056577,
          "duration": 0.079365,
          "velocity": 0.346457,
          "start_tick": 455198,
          "duration_ticks": 120,
          "channel": 4
        },
        {
          "note": 72,
          "start": 301.135942,
          "duration": 0.079365,
          "velocity": 0.346457,
          "start_tick": 455318,
          "duration_ticks": 120,
          "channel": 4
        },
        {
          "note": 80,
          "start": 301.215307,
          "duration": 0.079365,
          "velocity": 0.346457,
          "start_tick": 455438,
          "duration_ticks": 120,
          "channel": 4
        },
        {
          "note": 77,
          "start": 301.294672,
          "duration": 0.079365,
          "velocity": 0.346457,
          "start_tick": 455558,
          "duration_ticks": 120,
          "channel": 4
        },
        {
          "note": 72,
          "start": 301.374037,
          "duration": 0.079365,
          "velocity": 0.346457,
          "start_tick": 455678,
          "duration_ticks": 120,
          "channel": 4
        },
        {
          "note": 68,
          "start": 301.453402,
          "duration": 0.079365,
          "velocity": 0.346457,
          "start_tick": 455798,
          "duration_ticks": 120,
          "channel": 4
        },
        {
          "note": 84,
          "start": 301.532767,
          "duration": 0.079365,
          "velocity": 0.346457,
          "start_tick": 455918,
          "duration_ticks": 120,
          "channel": 4
        },
        {
          "note": 80,
          "start": 301.612132,
          "duration": 0.079365,
          "velocity": 0.346457,
          "start_tick": 456038,
          "duration_ticks": 120,
          "channel": 4
        },
        {
          "note": 77,
          "start": 301.691497,
          "duration": 0.079365,
          "velocity": 0.346457,
          "start_tick": 456158,
          "duration_ticks": 120,
          "channel": 4
        },
        {
          "note": 72,
          "start": 301.770862,
          "duration": 0.079365,
          "velocity": 0.346457,
          "start_tick": 456278,
          "duration_ticks": 120,
          "channel": 4
        },
        {
          "note": 77,
          "start": 301.850227,
          "duration": 0.079365,
          "velocity": 0.346457,
          "start_tick": 456398,
          "duration_ticks": 120,
          "channel": 4
        },
        {
          "note": 72,
          "start": 301.929592,
          "duration": 0.079365,
          "velocity": 0.346457,
          "start_tick": 456518,
          "duration_ticks": 120,
          "channel": 4
        },
        {
          "note": 68,
          "start": 302.008957,
          "duration": 0.079365,
          "velocity": 0.346457,
          "start_tick": 456638,
          "duration_ticks": 120,
          "channel": 4
        },
        {
          "note": 65,
          "start": 302.088322,
          "duration": 0.079365,
          "velocity": 0.346457,
          "start_tick": 456758,
          "duration_ticks": 120,
          "channel": 4
        },
        {
          "note": 68,
          "start": 302.167687,
          "duration": 0.079365,
          "velocity": 0.346457,
          "start_tick": 456878,
          "duration_ticks": 120,
          "channel": 4
        },
        {
          "note": 72,
          "start": 302.247052,
          "duration": 0.079365,
          "velocity": 0.346457,
          "start_tick": 456998,
          "duration_ticks": 120,
          "channel": 4
        },
        {
          "note": 75,
          "start": 302.326417,
          "duration": 0.079365,
          "velocity": 0.346457,
          "start_tick": 457118,
          "duration_ticks": 120,
          "channel": 4
        },
        {
          "note": 80,
          "start": 302.405782,
          "duration": 0.079365,
          "velocity": 0.346457,
          "start_tick": 457238,
          "duration_ticks": 120,
          "channel": 4
        },
        {
          "note": 72,
          "start": 302.485147,
          "duration": 0.079365,
          "velocity": 0.346457,
          "start_tick": 457358,
          "duration_ticks": 120,
          "channel": 4
        },
        {
          "note": 75,
          "start": 302.564512,
          "duration": 0.079365,
          "velocity": 0.346457,
          "start_tick": 457478,
          "duration_ticks": 120,
          "channel": 4
        },
        {
          "note": 80,
          "start": 302.643877,
          "duration": 0.079365,
          "velocity": 0.346457,
          "start_tick": 457598,
          "duration_ticks": 120,
          "channel": 4
        },
        {
          "note": 84,
          "start": 302.723242,
          "duration": 0.079365,
          "velocity": 0.346457,
          "start_tick": 457718,
          "duration_ticks": 120,
          "channel": 4
        },
        {
          "note": 75,
          "start": 302.802607,
          "duration": 0.079365,
          "velocity": 0.346457,
          "start_tick": 457838,
          "duration_ticks": 120,
          "channel": 4
        },
        {
          "note": 80,
          "start": 302.881972,
          "duration": 0.079365,
          "velocity": 0.346457,
          "start_tick": 457958,
          "duration_ticks": 120,
          "channel": 4
        },
        {
          "note": 84,
          "start": 302.961337,
          "duration": 0.079365,
          "velocity": 0.346457,
          "start_tick": 458078,
          "duration_ticks": 120,
          "channel": 4
        },
        {
          "note": 87,
          "start": 303.040702,
          "duration": 0.079365,
          "velocity": 0.346457,
          "start_tick": 458198,
          "duration_ticks": 120,
          "channel": 4
        },
        {
          "note": 80,
          "start": 303.120067,
          "duration": 0.079365,
          "velocity": 0.346457,
          "start_tick": 458318,
          "duration_ticks": 120,
          "channel": 4
        },
        {
          "note": 84,
          "start": 303.199432,
          "duration": 0.079365,
          "velocity": 0.346457,
          "start_tick": 458438,
          "duration_ticks": 120,
          "channel": 4
        },
        {
          "note": 87,
          "start": 303.278797,
          "duration": 0.079365,
          "velocity": 0.346457,
          "start_tick": 458558,
          "duration_ticks": 120,
          "channel": 4
        },
        {
          "note": 92,
          "start": 303.358162,
          "duration": 0.079365,
          "velocity": 0.346457,
          "start_tick": 458678,
          "duration_ticks": 120,
          "channel": 4
        },
        {
          "note": 87,
          "start": 303.437527,
          "duration": 0.079365,
          "velocity": 0.346457,
          "start_tick": 458798,
          "duration_ticks": 120,
          "channel": 4
        },
        {
          "note": 84,
          "start": 303.516892,
          "duration": 0.079365,
          "velocity": 0.346457,
          "start_tick": 458918,
          "duration_ticks": 120,
          "channel": 4
        },
        {
          "note": 80,
          "start": 303.596257,
          "duration": 0.079365,
          "velocity": 0.346457,
          "start_tick": 459038,
          "duration_ticks": 120,
          "channel": 4
        },
        {
          "note": 75,
          "start": 303.675622,
          "duration": 0.079365,
          "velocity": 0.346457,
          "start_tick": 459158,
          "duration_ticks": 120,
          "channel": 4
        },
        {
          "note": 85,
          "start": 303.754987,
          "duration": 0.079365,
          "velocity": 0.346457,
          "start_tick": 459278,
          "duration_ticks": 120,
          "channel": 4
        },
        {
          "note": 80,
          "start": 303.834352,
          "duration": 0.079365,
          "velocity": 0.346457,
          "start_tick": 459398,
          "duration_ticks": 120,
          "channel": 4
        },
        {
          "note": 75,
          "start": 303.913717,
          "duration": 0.079365,
          "velocity": 0.346457,
          "start_tick": 459518,
          "duration_ticks": 120,
          "channel": 4
        },
        {
          "note": 72,
          "start": 303.993082,
          "duration": 0.079365,
          "velocity": 0.346457,
          "start_tick": 459638,
          "duration_ticks": 120,
          "channel": 4
        },
        {
          "note": 87,
          "start": 304.072447,
          "duration": 0.079365,
          "velocity": 0.346457,
          "start_tick": 459758,
          "duration_ticks": 120,
          "channel": 4
        },
        {
          "note": 85,
          "start": 304.151812,
          "duration": 0.079365,
          "velocity": 0.346457,
          "start_tick": 459878,
          "duration_ticks": 120,
          "channel": 4
        },
        {
          "note": 80,
          "start": 304.231177,
          "duration": 0.079365,
          "velocity": 0.346457,
          "start_tick": 459998,
          "duration_ticks": 120,
          "channel": 4
        },
        {
          "note": 75,
          "start": 304.310542,
          "duration": 0.079365,
          "velocity": 0.346457,
          "start_tick": 460118,
          "duration_ticks": 120,
          "channel": 4
        },
        {
          "note": 80,
          "start": 304.389907,
          "duration": 0.079365,
          "velocity": 0.346457,
          "start_tick": 460238,
          "duration_ticks": 120,
          "channel": 4
        },
        {
          "note": 75,
          "start": 304.469272,
          "duration": 0.079365,
          "velocity": 0.346457,
          "start_tick": 460358,
          "duration_ticks": 120,
          "channel": 4
        },
        {
          "note": 72,
          "start": 304.548637,
          "duration": 0.079365,
          "velocity": 0.346457,
          "start_tick": 460478,
          "duration_ticks": 120,
          "channel": 4
        },
        {
          "note": 68,
          "start": 304.628002,
          "duration": 0.079365,
          "velocity": 0.346457,
          "start_tick": 460598,
          "duration_ticks": 120,
          "channel": 4
        },
        {
          "note": 63,
          "start": 304.707367,
          "duration": 0.079365,
          "velocity": 0.346457,
          "start_tick": 460718,
          "duration_ticks": 120,
          "channel": 4
        },
        {
          "note": 67,
          "start": 304.786732,
          "duration": 0.079365,
          "velocity": 0.346457,
          "start_tick": 460838,
          "duration_ticks": 120,
          "channel": 4
        },
        {
          "note": 70,
          "start": 304.866097,
          "duration": 0.079365,
          "velocity": 0.346457,
          "start_tick": 460958,
          "duration_ticks": 120,
          "channel": 4
        },
        {
          "note": 75,
          "start": 304.945462,
          "duration": 0.079365,
          "velocity": 0.346457,
          "start_tick": 461078,
          "duration_ticks": 120,
          "channel": 4
        },
        {
          "note": 67,
          "start": 305.024827,
          "duration": 0.079365,
          "velocity": 0.346457,
          "start_tick": 461198,
          "duration_ticks": 120,
          "channel": 4
        },
        {
          "note": 70,
          "start": 305.104192,
          "duration": 0.079365,
          "velocity": 0.346457,
          "start_tick": 461318,
          "duration_ticks": 120,
          "channel": 4
        },
        {
          "note": 75,
          "start": 305.183557,
          "duration": 0.079365,
          "velocity": 0.346457,
          "start_tick": 461438,
          "duration_ticks": 120,
          "channel": 4
        },
        {
          "note": 79,
          "start": 305.262922,
          "duration": 0.079365,
          "velocity": 0.346457,
          "start_tick": 461558,
          "duration_ticks": 120,
          "channel": 4
        },
        {
          "note": 70,
          "start": 305.342287,
          "duration": 0.079365,
          "velocity": 0.346457,
          "start_tick": 461678,
          "duration_ticks": 120,
          "channel": 4
        },
        {
          "note": 75,
          "start": 305.421652,
          "duration": 0.079365,
          "velocity": 0.346457,
          "start_tick": 461798,
          "duration_ticks": 120,
          "channel": 4
        },
        {
          "note": 79,
          "start": 305.501017,
          "duration": 0.079365,
          "velocity": 0.346457,
          "start_tick": 461918,
          "duration_ticks": 120,
          "channel": 4
        },
        {
          "note": 82,
          "start": 305.580382,
          "duration": 0.079365,
          "velocity": 0.346457,
          "start_tick": 462038,
          "duration_ticks": 120,
          "channel": 4
        },
        {
          "note": 75,
          "start": 305.659747,
          "duration": 0.079365,
          "velocity": 0.346457,
          "start_tick": 462158,
          "duration_ticks": 120,
          "channel": 4
        },
        {
          "note": 79,
          "start": 305.739112,
          "duration": 0.079365,
          "velocity": 0.346457,
          "start_tick": 462278,
          "duration_ticks": 120,
          "channel": 4
        },
        {
          "note": 82,
          "start": 305.818477,
          "duration": 0.079365,
          "velocity": 0.346457,
          "start_tick": 462398,
          "duration_ticks": 120,
          "channel": 4
        },
        {
          "note": 87,
          "start": 305.897842,
          "duration": 0.079365,
          "velocity": 0.346457,
          "start_tick": 462518,
          "duration_ticks": 120,
          "channel": 4
        },
        {
          "note": 82,
          "start": 305.977207,
          "duration": 0.079365,
          "velocity": 0.346457,
          "start_tick": 462638,
          "duration_ticks": 120,
          "channel": 4
        },
        {
          "note": 79,
          "start": 306.056572,
          "duration": 0.079365,
          "velocity": 0.346457,
          "start_tick": 462758,
          "duration_ticks": 120,
          "channel": 4
        },
        {
          "note": 75,
          "start": 306.135937,
          "duration": 0.079365,
          "velocity": 0.346457,
          "start_tick": 462878,
          "duration_ticks": 120,
          "channel": 4
        },
        {
          "note": 70,
          "start": 306.215302,
          "duration": 0.079365,
          "velocity": 0.346457,
          "start_tick": 462998,
          "duration_ticks": 120,
          "channel": 4
        },
        {
          "note": 80,
          "start": 306.294667,
          "duration": 0.079365,
          "velocity": 0.346457,
          "start_tick": 463118,
          "duration_ticks": 120,
          "channel": 4
        },
        {
          "note": 75,
          "start": 306.374032,
          "duration": 0.079365,
          "velocity": 0.346457,
          "start_tick": 463238,
          "duration_ticks": 120,
          "channel": 4
        },
        {
          "note": 70,
          "start": 306.453397,
          "duration": 0.079365,
          "velocity": 0.346457,
          "start_tick": 463358,
          "duration_ticks": 120,
          "channel": 4
        },
        {
          "note": 67,
          "start": 306.532762,
          "duration": 0.079365,
          "velocity": 0.346457,
          "start_tick": 463478,
          "duration_ticks": 120,
          "channel": 4
        },
        {
          "note": 82,
          "start": 306.612127,
          "duration": 0.079365,
          "velocity": 0.346457,
          "start_tick": 463598,
          "duration_ticks": 120,
          "channel": 4
        },
        {
          "note": 80,
          "start": 306.691492,
          "duration": 0.079365,
          "velocity": 0.346457,
          "start_tick": 463718,
          "duration_ticks": 120,
          "channel": 4
        },
        {
          "note": 75,
          "start": 306.770857,
          "duration": 0.079365,
          "velocity": 0.346457,
          "start_tick": 463838,
          "duration_ticks": 120,
          "channel": 4
        },
        {
          "note": 70,
          "start": 306.850222,
          "duration": 0.079365,
          "velocity": 0.346457,
          "start_tick": 463958,
          "duration_ticks": 120,
          "channel": 4
        },
        {
          "note": 75,
          "start": 306.929587,
          "duration": 0.079365,
          "velocity": 0.346457,
          "start_tick": 464078,
          "duration_ticks": 120,
          "channel": 4
        },
        {
          "note": 70,
          "start": 307.008952,
          "duration": 0.079365,
          "velocity": 0.346457,
          "start_tick": 464198,
          "duration_ticks": 120,
          "channel": 4
        },
        {
          "note": 67,
          "start": 307.088317,
          "duration": 0.079365,
          "velocity": 0.346457,
          "start_tick": 464318,
          "duration_ticks": 120,
          "channel": 4
        },
        {
          "note": 63,
          "start": 307.167682,
          "duration": 0.079365,
          "velocity": 0.346457,
          "start_tick": 464438,
          "duration_ticks": 120,
          "channel": 4
        },
        {
          "note": 67,
          "start": 307.247047,
          "duration": 0.079365,
          "velocity": 0.346457,
          "start_tick": 464558,
          "duration_ticks": 120,
          "channel": 4
        },
        {
          "note": 71,
          "start": 307.326412,
          "duration": 0.079365,
          "velocity": 0.346457,
          "start_tick": 464678,
          "duration_ticks": 120,
          "channel": 4
        },
        {
          "note": 74,
          "start": 307.405777,
          "duration": 0.079365,
          "velocity": 0.346457,
          "start_tick": 464798,
          "duration_ticks": 120,
          "channel": 4
        },
        {
          "note": 79,
          "start": 307.485142,
          "duration": 0.079365,
          "velocity": 0.346457,
          "start_tick": 464918,
          "duration_ticks": 120,
          "channel": 4
        },
        {
          "note": 71,
          "start": 307.564507,
          "duration": 0.079365,
          "velocity": 0.346457,
          "start_tick": 465038,
          "duration_ticks": 120,
          "channel": 4
        },
        {
          "note": 74,
          "start": 307.643872,
          "duration": 0.079365,
          "velocity": 0.346457,
          "start_tick": 465158,
          "duration_ticks": 120,
          "channel": 4
        },
        {
          "note": 79,
          "start": 307.723237,
          "duration": 0.079365,
          "velocity": 0.346457,
          "start_tick": 465278,
          "duration_ticks": 120,
          "channel": 4
        },
        {
          "note": 83,
          "start": 307.802602,
          "duration": 0.079365,
          "velocity": 0.346457,
          "start_tick": 465398,
          "duration_ticks": 120,
          "channel": 4
        },
        {
          "note": 74,
          "start": 307.881967,
          "duration": 0.079365,
          "velocity": 0.346457,
          "start_tick": 465518,
          "duration_ticks": 120,
          "channel": 4
        },
        {
          "note": 79,
          "start": 307.961332,
          "duration": 0.079365,
          "velocity": 0.346457,
          "start_tick": 465638,
          "duration_ticks": 120,
          "channel": 4
        },
        {
          "note": 83,
          "start": 308.040697,
          "duration": 0.079365,
          "velocity": 0.346457,
          "start_tick": 465758,
          "duration_ticks": 120,
          "channel": 4
        },
        {
          "note": 86,
          "start": 308.120062,
          "duration": 0.079365,
          "velocity": 0.346457,
          "start_tick": 465878,
          "duration_ticks": 120,
          "channel": 4
        },
        {
          "note": 79,
          "start": 308.199427,
          "duration": 0.079365,
          "velocity": 0.346457,
          "start_tick": 465998,
          "duration_ticks": 120,
          "channel": 4
        },
        {
          "note": 83,
          "start": 308.278792,
          "duration": 0.079365,
          "velocity": 0.346457,
          "start_tick": 466118,
          "duration_ticks": 120,
          "channel": 4
        },
        {
          "note": 86,
          "start": 308.358157,
          "duration": 0.079365,
          "velocity": 0.346457,
          "start_tick": 466238,
          "duration_ticks": 120,
          "channel": 4
        },
        {
          "note": 91,
          "start": 308.437522,
          "duration": 0.079365,
          "velocity": 0.346457,
          "start_tick": 466358,
          "duration_ticks": 120,
          "channel": 4
        },
        {
          "note": 86,
          "start": 308.516887,
          "duration": 0.079365,
          "velocity": 0.346457,
          "start_tick": 466478,
          "duration_ticks": 120,
          "channel": 4
        },
        {
          "note": 83,
          "start": 308.596252,
          "duration": 0.079365,
          "velocity": 0.346457,
          "start_tick": 466598,
          "duration_ticks": 120,
          "channel": 4
        },
        {
          "note": 79,
          "start": 308.675617,
          "duration": 0.079365,
          "velocity": 0.346457,
          "start_tick": 466718,
          "duration_ticks": 120,
          "channel": 4
        },
        {
          "note": 74,
          "start": 308.754982,
          "duration": 0.079365,
          "velocity": 0.346457,
          "start_tick": 466838,
          "duration_ticks": 120,
          "channel": 4
        },
        {
          "note": 84,
          "start": 308.834347,
          "duration": 0.079365,
          "velocity": 0.346457,
          "start_tick": 466958,
          "duration_ticks": 120,
          "channel": 4
        },
        {
          "note": 79,
          "start": 308.913712,
          "duration": 0.079365,
          "velocity": 0.346457,
          "start_tick": 467078,
          "duration_ticks": 120,
          "channel": 4
        },
        {
          "note": 74,
          "start": 308.993077,
          "duration": 0.079365,
          "velocity": 0.346457,
          "start_tick": 467198,
          "duration_ticks": 120,
          "channel": 4
        },
        {
          "note": 71,
          "start": 309.072442,
          "duration": 0.079365,
          "velocity": 0.346457,
          "start_tick": 467318,
          "duration_ticks": 120,
          "channel": 4
        },
        {
          "note": 86,
          "start": 309.151807,
          "duration": 0.079365,
          "velocity": 0.346457,
          "start_tick": 467438,
          "duration_ticks": 120,
          "channel": 4
        },
        {
          "note": 84,
          "start": 309.231172,
          "duration": 0.079365,
          "velocity": 0.346457,
          "start_tick": 467558,
          "duration_ticks": 120,
          "channel": 4
        },
        {
          "note": 79,
          "start": 309.310537,
          "duration": 0.079365,
          "velocity": 0.346457,
          "start_tick": 467678,
          "duration_ticks": 120,
          "channel": 4
        },
        {
          "note": 74,
          "start": 309.389902,
          "duration": 0.079365,
          "velocity": 0.346457,
          "start_tick": 467798,
          "duration_ticks": 120,
          "channel": 4
        },
        {
          "note": 79,
          "start": 309.469267,
          "duration": 0.079365,
          "velocity": 0.346457,
          "start_tick": 467918,
          "duration_ticks": 120,
          "channel": 4
        },
        {
          "note": 74,
          "start": 309.548632,
          "duration": 0.079365,
          "velocity": 0.346457,
          "start_tick": 468038,
          "duration_ticks": 120,
          "channel": 4
        },
        {
          "note": 71,
          "start": 309.627997,
          "duration": 0.079365,
          "velocity": 0.346457,
          "start_tick": 468158,
          "duration_ticks": 120,
          "channel": 4
        },
        {
          "note": 67,
          "start": 309.707362,
          "duration": 0.079365,
          "velocity": 0.346457,
          "start_tick": 468278,
          "duration_ticks": 120,
          "channel": 4
        },
        {
          "note": 65,
          "start": 309.786727,
          "duration": 0.079365,
          "velocity": 0.346457,
          "start_tick": 468398,
          "duration_ticks": 120,
          "channel": 4
        },
        {
          "note": 68,
          "start": 309.866092,
          "duration": 0.079365,
          "velocity": 0.346457,
          "start_tick": 468518,
          "duration_ticks": 120,
          "channel": 4
        },
        {
          "note": 72,
          "start": 309.945457,
          "duration": 0.079365,
          "velocity": 0.346457,
          "start_tick": 468638,
          "duration_ticks": 120,
          "channel": 4
        },
        {
          "note": 77,
          "start": 310.024822,
          "duration": 0.079365,
          "velocity": 0.346457,
          "start_tick": 468758,
          "duration_ticks": 120,
          "channel": 4
        },
        {
          "note": 68,
          "start": 310.104187,
          "duration": 0.079365,
          "velocity": 0.346457,
          "start_tick": 468878,
          "duration_ticks": 120,
          "channel": 4
        },
        {
          "note": 72,
          "start": 310.183552,
          "duration": 0.079365,
          "velocity": 0.346457,
          "start_tick": 468998,
          "duration_ticks": 120,
          "channel": 4
        },
        {
          "note": 77,
          "start": 310.262917,
          "duration": 0.079365,
          "velocity": 0.346457,
          "start_tick": 469118,
          "duration_ticks": 120,
          "channel": 4
        },
        {
          "note": 80,
          "start": 310.342282,
          "duration": 0.079365,
          "velocity": 0.346457,
          "start_tick": 469238,
          "duration_ticks": 120,
          "channel": 4
        },
        {
          "note": 72,
          "start": 310.421647,
          "duration": 0.079365,
          "velocity": 0.346457,
          "start_tick": 469358,
          "duration_ticks": 120,
          "channel": 4
        },
        {
          "note": 77,
          "start": 310.501012,
          "duration": 0.079365,
          "velocity": 0.346457,
          "start_tick": 469478,
          "duration_ticks": 120,
          "channel": 4
        },
        {
          "note": 80,
          "start": 310.580377,
          "duration": 0.079365,
          "velocity": 0.346457,
          "start_tick": 469598,
          "duration_ticks": 120,
          "channel": 4
        },
        {
          "note": 84,
          "start": 310.659742,
          "duration": 0.079365,
          "velocity": 0.346457,
          "start_tick": 469718,
          "duration_ticks": 120,
          "channel": 4
        },
        {
          "note": 77,
          "start": 310.739107,
          "duration": 0.079365,
          "velocity": 0.346457,
          "start_tick": 469838,
          "duration_ticks": 120,
          "channel": 4
        },
        {
          "note": 80,
          "start": 310.818472,
          "duration": 0.079365,
          "velocity": 0.346457,
          "start_tick": 469958,
          "duration_ticks": 120,
          "channel": 4
        },
        {
          "note": 84,
          "start": 310.897837,
          "duration": 0.079365,
          "velocity": 0.346457,
          "start_tick": 470078,
          "duration_ticks": 120,
          "channel": 4
        },
        {
          "note": 89,
          "start": 310.977202,
          "duration": 0.079365,
          "velocity": 0.346457,
          "start_tick": 470198,
          "duration_ticks": 120,
          "channel": 4
        },
        {
          "note": 84,
          "start": 311.056567,
          "duration": 0.079365,
          "velocity": 0.346457,
          "start_tick": 470318,
          "duration_ticks": 120,
          "channel": 4
        },
        {
          "note": 80,
          "start": 311.135932,
          "duration": 0.079365,
          "velocity": 0.346457,
          "start_tick": 470438,
          "duration_ticks": 120,
          "channel": 4
        },
        {
          "note": 77,
          "start": 311.215297,
          "duration": 0.079365,
          "velocity": 0.346457,
          "start_tick": 470558,
          "duration_ticks": 120,
          "channel": 4
        },
        {
          "note": 72,
          "start": 311.294662,
          "duration": 0.079365,
          "velocity": 0.346457,
          "start_tick": 470678,
          "duration_ticks": 120,
          "channel": 4
        },
        {
          "note": 80,
          "start": 311.374027,
          "duration": 0.079365,
          "velocity": 0.346457,
          "start_tick": 470798,
          "duration_ticks": 120,
          "channel": 4
        },
        {
          "note": 77,
          "start": 311.453392,
          "duration": 0.079365,
          "velocity": 0.346457,
          "start_tick": 470918,
          "duration_ticks": 120,
          "channel": 4
        },
        {
          "note": 72,
          "start": 311.532757,
          "duration": 0.079365,
          "velocity": 0.346457,
          "start_tick": 471038,
          "duration_ticks": 120,
          "channel": 4
        },
        {
          "note": 68,
          "start": 311.612122,
          "duration": 0.079365,
          "velocity": 0.346457,
          "start_tick": 471158,
          "duration_ticks": 120,
          "channel": 4
        },
        {
          "note": 84,
          "start": 311.691487,
          "duration": 0.079365,
          "velocity": 0.346457,
          "start_tick": 471278,
          "duration_ticks": 120,
          "channel": 4
        },
        {
          "note": 80,
          "start": 311.770852,
          "duration": 0.079365,
          "velocity": 0.346457,
          "start_tick": 471398,
          "duration_ticks": 120,
          "channel": 4
        },
        {
          "note": 77,
          "start": 311.850217,
          "duration": 0.079365,
          "velocity": 0.346457,
          "start_tick": 471518,
          "duration_ticks": 120,
          "channel": 4
        },
        {
          "note": 72,
          "start": 311.929582,
          "duration": 0.079365,
          "velocity": 0.346457,
          "start_tick": 471638,
          "duration_ticks": 120,
          "channel": 4
        },
        {
          "note": 77,
          "start": 312.008947,
          "duration": 0.079365,
          "velocity": 0.346457,
          "start_tick": 471758,
          "duration_ticks": 120,
          "channel": 4
        },
        {
          "note": 72,
          "start": 312.088312,
          "duration": 0.079365,
          "velocity": 0.346457,
          "start_tick": 471878,
          "duration_ticks": 120,
          "channel": 4
        },
        {
          "note": 68,
          "start": 312.167677,
          "duration": 0.079365,
          "velocity": 0.346457,
          "start_tick": 471998,
          "duration_ticks": 120,
          "channel": 4
        },
        {
          "note": 65,
          "start": 312.247042,
          "duration": 0.079365,
          "velocity": 0.346457,
          "start_tick": 472118,
          "duration_ticks": 120,
          "channel": 4
        }
      ]
    },
    {
      "id": "fifth_saw_wave",
      "source_track_index": 7,
      "source_name": "5th SawWave ",
      "role": "fifth_saw_wave",
      "channel": 5,
      "gm_program": 86,
      "gm_program_name": "Lead 7 fifths",
      "note_count": 88,
      "pitch_range": [
        55,
        56
      ],
      "time_range": [
        60.809463,
        291.962671
      ],
      "notes": [
        {
          "note": 55,
          "start": 60.809463,
          "duration": 2.502643,
          "velocity": 0.937008,
          "start_tick": 91944,
          "duration_ticks": 3784,
          "channel": 5
        },
        {
          "note": 55,
          "start": 63.34782,
          "duration": 2.410712,
          "velocity": 0.866142,
          "start_tick": 95782,
          "duration_ticks": 3645,
          "channel": 5
        },
        {
          "note": 55,
          "start": 65.867659,
          "duration": 2.423278,
          "velocity": 0.866142,
          "start_tick": 99592,
          "duration_ticks": 3664,
          "channel": 5
        },
        {
          "note": 56,
          "start": 68.35972,
          "duration": 2.425924,
          "velocity": 0.866142,
          "start_tick": 103360,
          "duration_ticks": 3668,
          "channel": 5
        },
        {
          "note": 56,
          "start": 70.851781,
          "duration": 2.482802,
          "velocity": 0.80315,
          "start_tick": 107128,
          "duration_ticks": 3754,
          "channel": 5
        },
        {
          "note": 55,
          "start": 73.343842,
          "duration": 2.421294,
          "velocity": 0.866142,
          "start_tick": 110896,
          "duration_ticks": 3661,
          "channel": 5
        },
        {
          "note": 55,
          "start": 75.886829,
          "duration": 2.570765,
          "velocity": 0.874016,
          "start_tick": 114741,
          "duration_ticks": 3887,
          "channel": 5
        },
        {
          "note": 56,
          "start": 78.488017,
          "duration": 2.553569,
          "velocity": 0.866142,
          "start_tick": 118674,
          "duration_ticks": 3861,
          "channel": 5
        },
        {
          "note": 55,
          "start": 81.089205,
          "duration": 2.564151,
          "velocity": 0.937008,
          "start_tick": 122607,
          "duration_ticks": 3877,
          "channel": 5
        },
        {
          "note": 55,
          "start": 83.690393,
          "duration": 2.472881,
          "velocity": 0.866142,
          "start_tick": 126540,
          "duration_ticks": 3739,
          "channel": 5
        },
        {
          "note": 55,
          "start": 86.275707,
          "duration": 2.499998,
          "velocity": 0.866142,
          "start_tick": 130449,
          "duration_ticks": 3780,
          "channel": 5
        },
        {
          "note": 56,
          "start": 88.847133,
          "duration": 2.502643,
          "velocity": 0.866142,
          "start_tick": 134337,
          "duration_ticks": 3784,
          "channel": 5
        },
        {
          "note": 56,
          "start": 91.417898,
          "duration": 2.562167,
          "velocity": 0.80315,
          "start_tick": 138224,
          "duration_ticks": 3874,
          "channel": 5
        },
        {
          "note": 55,
          "start": 93.989324,
          "duration": 2.425924,
          "velocity": 0.866142,
          "start_tick": 142112,
          "duration_ticks": 3668,
          "channel": 5
        },
        {
          "note": 55,
          "start": 96.533634,
          "duration": 2.495368,
          "velocity": 0.874016,
          "start_tick": 145959,
          "duration_ticks": 3773,
          "channel": 5
        },
        {
          "note": 56,
          "start": 99.058102,
          "duration": 2.479495,
          "velocity": 0.866142,
          "start_tick": 149776,
          "duration_ticks": 3749,
          "channel": 5
        },
        {
          "note": 55,
          "start": 101.583232,
          "duration": 2.489416,
          "velocity": 0.937008,
          "start_tick": 153594,
          "duration_ticks": 3764,
          "channel": 5
        },
        {
          "note": 55,
          "start": 104.108362,
          "duration": 2.41468,
          "velocity": 0.866142,
          "start_tick": 157412,
          "duration_ticks": 3651,
          "channel": 5
        },
        {
          "note": 55,
          "start": 106.633491,
          "duration": 2.455685,
          "velocity": 0.866142,
          "start_tick": 161230,
          "duration_ticks": 3713,
          "channel": 5
        },
        {
          "note": 56,
          "start": 109.158621,
          "duration": 2.45767,
          "velocity": 0.866142,
          "start_tick": 165048,
          "duration_ticks": 3716,
          "channel": 5
        },
        {
          "note": 56,
          "start": 111.683751,
          "duration": 2.515871,
          "velocity": 0.80315,
          "start_tick": 168866,
          "duration_ticks": 3804,
          "channel": 5
        },
        {
          "note": 55,
          "start": 114.208881,
          "duration": 2.406744,
          "velocity": 0.866142,
          "start_tick": 172684,
          "duration_ticks": 3639,
          "channel": 5
        },
        {
          "note": 55,
          "start": 116.73401,
          "duration": 2.495368,
          "velocity": 0.874016,
          "start_tick": 176502,
          "duration_ticks": 3773,
          "channel": 5
        },
        {
          "note": 56,
          "start": 119.258479,
          "duration": 8.601182,
          "velocity": 0.866142,
          "start_tick": 180319,
          "duration_ticks": 13005,
          "channel": 5
        },
        {
          "note": 55,
          "start": 129.358998,
          "duration": 2.489416,
          "velocity": 0.937008,
          "start_tick": 195591,
          "duration_ticks": 3764,
          "channel": 5
        },
        {
          "note": 55,
          "start": 131.884127,
          "duration": 2.41468,
          "velocity": 0.866142,
          "start_tick": 199409,
          "duration_ticks": 3651,
          "channel": 5
        },
        {
          "note": 55,
          "start": 134.409257,
          "duration": 2.499997,
          "velocity": 0.866142,
          "start_tick": 203227,
          "duration_ticks": 3780,
          "channel": 5
        },
        {
          "note": 56,
          "start": 136.980683,
          "duration": 2.511902,
          "velocity": 0.866142,
          "start_tick": 207115,
          "duration_ticks": 3798,
          "channel": 5
        },
        {
          "note": 56,
          "start": 139.561368,
          "duration": 2.570765,
          "velocity": 0.80315,
          "start_tick": 211017,
          "duration_ticks": 3887,
          "channel": 5
        },
        {
          "note": 55,
          "start": 142.141392,
          "duration": 2.459654,
          "velocity": 0.866142,
          "start_tick": 214918,
          "duration_ticks": 3719,
          "channel": 5
        },
        {
          "note": 55,
          "start": 144.721416,
          "duration": 2.552908,
          "velocity": 0.874016,
          "start_tick": 218819,
          "duration_ticks": 3860,
          "channel": 5
        },
        {
          "note": 56,
          "start": 147.304747,
          "duration": 1.937829,
          "velocity": 0.866142,
          "start_tick": 222725,
          "duration_ticks": 2930,
          "channel": 5
        },
        {
          "note": 55,
          "start": 149.888078,
          "duration": 2.547617,
          "velocity": 0.937008,
          "start_tick": 226631,
          "duration_ticks": 3852,
          "channel": 5
        },
        {
          "note": 55,
          "start": 152.471408,
          "duration": 2.470897,
          "velocity": 0.866142,
          "start_tick": 230537,
          "duration_ticks": 3736,
          "channel": 5
        },
        {
          "note": 55,
          "start": 155.0554,
          "duration": 2.494045,
          "velocity": 0.866142,
          "start_tick": 234444,
          "duration_ticks": 3771,
          "channel": 5
        },
        {
          "note": 56,
          "start": 157.620213,
          "duration": 2.496029,
          "velocity": 0.866142,
          "start_tick": 238322,
          "duration_ticks": 3774,
          "channel": 5
        },
        {
          "note": 56,
          "start": 160.184364,
          "duration": 2.554892,
          "velocity": 0.80315,
          "start_tick": 242199,
          "duration_ticks": 3863,
          "channel": 5
        },
        {
          "note": 55,
          "start": 162.749176,
          "duration": 2.443781,
          "velocity": 0.866142,
          "start_tick": 246077,
          "duration_ticks": 3695,
          "channel": 5
        },
        {
          "note": 55,
          "start": 165.312004,
          "duration": 2.486109,
          "velocity": 0.874016,
          "start_tick": 249952,
          "duration_ticks": 3759,
          "channel": 5
        },
        {
          "note": 56,
          "start": 167.827213,
          "duration": 2.470236,
          "velocity": 0.866142,
          "start_tick": 253755,
          "duration_ticks": 3735,
          "channel": 5
        },
        {
          "note": 55,
          "start": 170.343084,
          "duration": 2.480156,
          "velocity": 0.937008,
          "start_tick": 257559,
          "duration_ticks": 3750,
          "channel": 5
        },
        {
          "note": 55,
          "start": 172.858954,
          "duration": 2.405421,
          "velocity": 0.866142,
          "start_tick": 261363,
          "duration_ticks": 3637,
          "channel": 5
        },
        {
          "note": 55,
          "start": 175.374163,
          "duration": 2.446426,
          "velocity": 0.866142,
          "start_tick": 265166,
          "duration_ticks": 3699,
          "channel": 5
        },
        {
          "note": 56,
          "start": 177.890034,
          "duration": 2.44841,
          "velocity": 0.866142,
          "start_tick": 268970,
          "duration_ticks": 3702,
          "channel": 5
        },
        {
          "note": 56,
          "start": 180.405904,
          "duration": 2.50595,
          "velocity": 0.80315,
          "start_tick": 272774,
          "duration_ticks": 3789,
          "channel": 5
        },
        {
          "note": 55,
          "start": 182.921113,
          "duration": 2.402114,
          "velocity": 0.866142,
          "start_tick": 276577,
          "duration_ticks": 3632,
          "channel": 5
        },
        {
          "note": 55,
          "start": 185.442936,
          "duration": 2.523146,
          "velocity": 0.874016,
          "start_tick": 280390,
          "duration_ticks": 3815,
          "channel": 5
        },
        {
          "note": 56,
          "start": 187.995844,
          "duration": 2.506611,
          "velocity": 0.866142,
          "start_tick": 284250,
          "duration_ticks": 3790,
          "channel": 5
        },
        {
          "note": 55,
          "start": 190.549413,
          "duration": 2.517193,
          "velocity": 0.937008,
          "start_tick": 288111,
          "duration_ticks": 3806,
          "channel": 5
        },
        {
          "note": 55,
          "start": 193.10232,
          "duration": 2.441796,
          "velocity": 0.866142,
          "start_tick": 291971,
          "duration_ticks": 3692,
          "channel": 5
        },
        {
          "note": 55,
          "start": 195.655889,
          "duration": 2.482802,
          "velocity": 0.866142,
          "start_tick": 295832,
          "duration_ticks": 3754,
          "channel": 5
        },
        {
          "note": 56,
          "start": 198.208797,
          "duration": 2.485447,
          "velocity": 0.866142,
          "start_tick": 299692,
          "duration_ticks": 3758,
          "channel": 5
        },
        {
          "note": 56,
          "start": 200.762365,
          "duration": 2.543648,
          "velocity": 0.80315,
          "start_tick": 303553,
          "duration_ticks": 3846,
          "channel": 5
        },
        {
          "note": 55,
          "start": 203.315273,
          "duration": 2.423939,
          "velocity": 0.866142,
          "start_tick": 307413,
          "duration_ticks": 3665,
          "channel": 5
        },
        {
          "note": 55,
          "start": 205.856937,
          "duration": 2.482802,
          "velocity": 0.874016,
          "start_tick": 311256,
          "duration_ticks": 3754,
          "channel": 5
        },
        {
          "note": 56,
          "start": 208.368839,
          "duration": 1.884257,
          "velocity": 0.866142,
          "start_tick": 315054,
          "duration_ticks": 2849,
          "channel": 5
        },
        {
          "note": 55,
          "start": 210.880741,
          "duration": 2.476849,
          "velocity": 0.937008,
          "start_tick": 318852,
          "duration_ticks": 3745,
          "channel": 5
        },
        {
          "note": 55,
          "start": 213.393305,
          "duration": 2.401453,
          "velocity": 0.866142,
          "start_tick": 322651,
          "duration_ticks": 3631,
          "channel": 5
        },
        {
          "note": 55,
          "start": 215.905207,
          "duration": 2.442458,
          "velocity": 0.866142,
          "start_tick": 326449,
          "duration_ticks": 3693,
          "channel": 5
        },
        {
          "note": 56,
          "start": 218.41711,
          "duration": 2.445103,
          "velocity": 0.866142,
          "start_tick": 330247,
          "duration_ticks": 3697,
          "channel": 5
        },
        {
          "note": 56,
          "start": 220.929012,
          "duration": 2.502643,
          "velocity": 0.80315,
          "start_tick": 334045,
          "duration_ticks": 3784,
          "channel": 5
        },
        {
          "note": 55,
          "start": 223.440914,
          "duration": 2.405421,
          "velocity": 0.866142,
          "start_tick": 337843,
          "duration_ticks": 3637,
          "channel": 5
        },
        {
          "note": 55,
          "start": 225.966044,
          "duration": 2.514548,
          "velocity": 0.874016,
          "start_tick": 341661,
          "duration_ticks": 3802,
          "channel": 5
        },
        {
          "note": 56,
          "start": 228.510354,
          "duration": 2.498013,
          "velocity": 0.866142,
          "start_tick": 345508,
          "duration_ticks": 3777,
          "channel": 5
        },
        {
          "note": 55,
          "start": 231.054663,
          "duration": 2.508595,
          "velocity": 0.937008,
          "start_tick": 349355,
          "duration_ticks": 3793,
          "channel": 5
        },
        {
          "note": 55,
          "start": 233.598973,
          "duration": 2.433199,
          "velocity": 0.866142,
          "start_tick": 353202,
          "duration_ticks": 3679,
          "channel": 5
        },
        {
          "note": 55,
          "start": 236.143282,
          "duration": 2.474204,
          "velocity": 0.866142,
          "start_tick": 357049,
          "duration_ticks": 3741,
          "channel": 5
        },
        {
          "note": 56,
          "start": 238.687592,
          "duration": 2.476849,
          "velocity": 0.866142,
          "start_tick": 360896,
          "duration_ticks": 3745,
          "channel": 5
        },
        {
          "note": 56,
          "start": 241.231902,
          "duration": 2.53505,
          "velocity": 0.80315,
          "start_tick": 364743,
          "duration_ticks": 3833,
          "channel": 5
        },
        {
          "note": 55,
          "start": 243.776211,
          "duration": 2.421955,
          "velocity": 0.866142,
          "start_tick": 368590,
          "duration_ticks": 3662,
          "channel": 5
        },
        {
          "note": 55,
          "start": 246.316553,
          "duration": 2.507273,
          "velocity": 0.874016,
          "start_tick": 372431,
          "duration_ticks": 3791,
          "channel": 5
        },
        {
          "note": 56,
          "start": 248.853587,
          "duration": 2.490077,
          "velocity": 0.866142,
          "start_tick": 376267,
          "duration_ticks": 3765,
          "channel": 5
        },
        {
          "note": 55,
          "start": 251.38996,
          "duration": 2.50132,
          "velocity": 0.937008,
          "start_tick": 380102,
          "duration_ticks": 3782,
          "channel": 5
        },
        {
          "note": 55,
          "start": 253.926995,
          "duration": 2.425924,
          "velocity": 0.866142,
          "start_tick": 383938,
          "duration_ticks": 3668,
          "channel": 5
        },
        {
          "note": 55,
          "start": 256.463368,
          "duration": 2.466929,
          "velocity": 0.866142,
          "start_tick": 387773,
          "duration_ticks": 3730,
          "channel": 5
        },
        {
          "note": 56,
          "start": 259.000402,
          "duration": 2.468913,
          "velocity": 0.866142,
          "start_tick": 391609,
          "duration_ticks": 3733,
          "channel": 5
        },
        {
          "note": 56,
          "start": 261.536775,
          "duration": 2.527775,
          "velocity": 0.80315,
          "start_tick": 395444,
          "duration_ticks": 3822,
          "channel": 5
        },
        {
          "note": 55,
          "start": 264.07381,
          "duration": 2.41931,
          "velocity": 0.866142,
          "start_tick": 399280,
          "duration_ticks": 3658,
          "channel": 5
        },
        {
          "note": 55,
          "start": 266.612167,
          "duration": 2.509918,
          "velocity": 0.874016,
          "start_tick": 403118,
          "duration_ticks": 3795,
          "channel": 5
        },
        {
          "note": 56,
          "start": 269.151847,
          "duration": 2.493384,
          "velocity": 0.866142,
          "start_tick": 406958,
          "duration_ticks": 3770,
          "channel": 5
        },
        {
          "note": 55,
          "start": 271.691527,
          "duration": 2.503966,
          "velocity": 0.937008,
          "start_tick": 410798,
          "duration_ticks": 3786,
          "channel": 5
        },
        {
          "note": 55,
          "start": 274.231207,
          "duration": 2.428569,
          "velocity": 0.866142,
          "start_tick": 414638,
          "duration_ticks": 3672,
          "channel": 5
        },
        {
          "note": 55,
          "start": 276.770887,
          "duration": 2.469574,
          "velocity": 0.866142,
          "start_tick": 418478,
          "duration_ticks": 3734,
          "channel": 5
        },
        {
          "note": 56,
          "start": 279.310567,
          "duration": 2.47222,
          "velocity": 0.866142,
          "start_tick": 422318,
          "duration_ticks": 3738,
          "channel": 5
        },
        {
          "note": 56,
          "start": 281.850247,
          "duration": 2.530421,
          "velocity": 0.80315,
          "start_tick": 426158,
          "duration_ticks": 3826,
          "channel": 5
        },
        {
          "note": 55,
          "start": 284.389927,
          "duration": 2.420632,
          "velocity": 0.866142,
          "start_tick": 429998,
          "duration_ticks": 3660,
          "channel": 5
        },
        {
          "note": 55,
          "start": 286.929607,
          "duration": 2.509918,
          "velocity": 0.874016,
          "start_tick": 433838,
          "duration_ticks": 3795,
          "channel": 5
        },
        {
          "note": 56,
          "start": 289.469287,
          "duration": 2.493384,
          "velocity": 0.866142,
          "start_tick": 437678,
          "duration_ticks": 3770,
          "channel": 5
        }
      ]
    },
    {
      "id": "strings",
      "source_track_index": 8,
      "source_name": "Track 7",
      "role": "strings",
      "channel": 10,
      "gm_program": 49,
      "gm_program_name": "String Ensemble 2",
      "note_count": 453,
      "pitch_range": [
        29,
        56
      ],
      "time_range": [
        0.0,
        314.866087
      ],
      "notes": [
        {
          "note": 48,
          "start": 0.0,
          "duration": 2.579362,
          "velocity": 0.425197,
          "start_tick": 0,
          "duration_ticks": 3900,
          "channel": 10
        },
        {
          "note": 51,
          "start": 0.0,
          "duration": 2.579362,
          "velocity": 0.425197,
          "start_tick": 0,
          "duration_ticks": 3900,
          "channel": 10
        },
        {
          "note": 55,
          "start": 0.0,
          "duration": 2.579362,
          "velocity": 0.425197,
          "start_tick": 0,
          "duration_ticks": 3900,
          "channel": 10
        },
        {
          "note": 46,
          "start": 2.579362,
          "duration": 2.577378,
          "velocity": 0.425197,
          "start_tick": 3900,
          "duration_ticks": 3897,
          "channel": 10
        },
        {
          "note": 51,
          "start": 2.579362,
          "duration": 2.577378,
          "velocity": 0.425197,
          "start_tick": 3900,
          "duration_ticks": 3897,
          "channel": 10
        },
        {
          "note": 55,
          "start": 2.579362,
          "duration": 2.577378,
          "velocity": 0.425197,
          "start_tick": 3900,
          "duration_ticks": 3897,
          "channel": 10
        },
        {
          "note": 43,
          "start": 5.156741,
          "duration": 2.517855,
          "velocity": 0.425197,
          "start_tick": 7797,
          "duration_ticks": 3807,
          "channel": 10
        },
        {
          "note": 47,
          "start": 5.156741,
          "duration": 2.517855,
          "velocity": 0.425197,
          "start_tick": 7797,
          "duration_ticks": 3807,
          "channel": 10
        },
        {
          "note": 50,
          "start": 5.156741,
          "duration": 2.517855,
          "velocity": 0.425197,
          "start_tick": 7797,
          "duration_ticks": 3807,
          "channel": 10
        },
        {
          "note": 55,
          "start": 5.156741,
          "duration": 2.517855,
          "velocity": 0.425197,
          "start_tick": 7797,
          "duration_ticks": 3807,
          "channel": 10
        },
        {
          "note": 41,
          "start": 7.674595,
          "duration": 2.517855,
          "velocity": 0.425197,
          "start_tick": 11604,
          "duration_ticks": 3807,
          "channel": 10
        },
        {
          "note": 44,
          "start": 7.674595,
          "duration": 2.517855,
          "velocity": 0.425197,
          "start_tick": 11604,
          "duration_ticks": 3807,
          "channel": 10
        },
        {
          "note": 48,
          "start": 7.674595,
          "duration": 2.517855,
          "velocity": 0.425197,
          "start_tick": 11604,
          "duration_ticks": 3807,
          "channel": 10
        },
        {
          "note": 53,
          "start": 7.674595,
          "duration": 2.517855,
          "velocity": 0.425197,
          "start_tick": 11604,
          "duration_ticks": 3807,
          "channel": 10
        },
        {
          "note": 32,
          "start": 10.19245,
          "duration": 2.518516,
          "velocity": 0.425197,
          "start_tick": 15411,
          "duration_ticks": 3808,
          "channel": 10
        },
        {
          "note": 48,
          "start": 10.19245,
          "duration": 2.518516,
          "velocity": 0.425197,
          "start_tick": 15411,
          "duration_ticks": 3808,
          "channel": 10
        },
        {
          "note": 51,
          "start": 10.19245,
          "duration": 2.518516,
          "velocity": 0.425197,
          "start_tick": 15411,
          "duration_ticks": 3808,
          "channel": 10
        },
        {
          "note": 56,
          "start": 10.19245,
          "duration": 2.518516,
          "velocity": 0.425197,
          "start_tick": 15411,
          "duration_ticks": 3808,
          "channel": 10
        },
        {
          "note": 39,
          "start": 12.710966,
          "duration": 2.519839,
          "velocity": 0.425197,
          "start_tick": 19219,
          "duration_ticks": 3810,
          "channel": 10
        },
        {
          "note": 46,
          "start": 12.710966,
          "duration": 2.519839,
          "velocity": 0.425197,
          "start_tick": 19219,
          "duration_ticks": 3810,
          "channel": 10
        },
        {
          "note": 51,
          "start": 12.710966,
          "duration": 2.519839,
          "velocity": 0.425197,
          "start_tick": 19219,
          "duration_ticks": 3810,
          "channel": 10
        },
        {
          "note": 55,
          "start": 12.710966,
          "duration": 2.519839,
          "velocity": 0.425197,
          "start_tick": 19219,
          "duration_ticks": 3810,
          "channel": 10
        },
        {
          "note": 35,
          "start": 15.230805,
          "duration": 2.537696,
          "velocity": 0.425197,
          "start_tick": 23029,
          "duration_ticks": 3837,
          "channel": 10
        },
        {
          "note": 47,
          "start": 15.230805,
          "duration": 2.537696,
          "velocity": 0.425197,
          "start_tick": 23029,
          "duration_ticks": 3837,
          "channel": 10
        },
        {
          "note": 50,
          "start": 15.230805,
          "duration": 2.537696,
          "velocity": 0.425197,
          "start_tick": 23029,
          "duration_ticks": 3837,
          "channel": 10
        },
        {
          "note": 55,
          "start": 15.230805,
          "duration": 2.537696,
          "velocity": 0.425197,
          "start_tick": 23029,
          "duration_ticks": 3837,
          "channel": 10
        },
        {
          "note": 29,
          "start": 17.768501,
          "duration": 2.538357,
          "velocity": 0.425197,
          "start_tick": 26866,
          "duration_ticks": 3838,
          "channel": 10
        },
        {
          "note": 48,
          "start": 17.768501,
          "duration": 2.538357,
          "velocity": 0.425197,
          "start_tick": 26866,
          "duration_ticks": 3838,
          "channel": 10
        },
        {
          "note": 53,
          "start": 17.768501,
          "duration": 2.538357,
          "velocity": 0.425197,
          "start_tick": 26866,
          "duration_ticks": 3838,
          "channel": 10
        },
        {
          "note": 56,
          "start": 17.768501,
          "duration": 2.538357,
          "velocity": 0.425197,
          "start_tick": 26866,
          "duration_ticks": 3838,
          "channel": 10
        },
        {
          "note": 48,
          "start": 20.306858,
          "duration": 2.537696,
          "velocity": 0.425197,
          "start_tick": 30704,
          "duration_ticks": 3837,
          "channel": 10
        },
        {
          "note": 51,
          "start": 20.306858,
          "duration": 2.537696,
          "velocity": 0.425197,
          "start_tick": 30704,
          "duration_ticks": 3837,
          "channel": 10
        },
        {
          "note": 55,
          "start": 20.306858,
          "duration": 2.537696,
          "velocity": 0.425197,
          "start_tick": 30704,
          "duration_ticks": 3837,
          "channel": 10
        },
        {
          "note": 46,
          "start": 22.844554,
          "duration": 2.536373,
          "velocity": 0.425197,
          "start_tick": 34541,
          "duration_ticks": 3835,
          "channel": 10
        },
        {
          "note": 51,
          "start": 22.844554,
          "duration": 2.536373,
          "velocity": 0.425197,
          "start_tick": 34541,
          "duration_ticks": 3835,
          "channel": 10
        },
        {
          "note": 55,
          "start": 22.844554,
          "duration": 2.536373,
          "velocity": 0.425197,
          "start_tick": 34541,
          "duration_ticks": 3835,
          "channel": 10
        },
        {
          "note": 43,
          "start": 25.380927,
          "duration": 2.523807,
          "velocity": 0.425197,
          "start_tick": 38376,
          "duration_ticks": 3816,
          "channel": 10
        },
        {
          "note": 47,
          "start": 25.380927,
          "duration": 2.523807,
          "velocity": 0.425197,
          "start_tick": 38376,
          "duration_ticks": 3816,
          "channel": 10
        },
        {
          "note": 50,
          "start": 25.380927,
          "duration": 2.523807,
          "velocity": 0.425197,
          "start_tick": 38376,
          "duration_ticks": 3816,
          "channel": 10
        },
        {
          "note": 55,
          "start": 25.380927,
          "duration": 2.523807,
          "velocity": 0.425197,
          "start_tick": 38376,
          "duration_ticks": 3816,
          "channel": 10
        },
        {
          "note": 41,
          "start": 27.904734,
          "duration": 2.523807,
          "velocity": 0.425197,
          "start_tick": 42192,
          "duration_ticks": 3816,
          "channel": 10
        },
        {
          "note": 44,
          "start": 27.904734,
          "duration": 2.523807,
          "velocity": 0.425197,
          "start_tick": 42192,
          "duration_ticks": 3816,
          "channel": 10
        },
        {
          "note": 48,
          "start": 27.904734,
          "duration": 2.523807,
          "velocity": 0.425197,
          "start_tick": 42192,
          "duration_ticks": 3816,
          "channel": 10
        },
        {
          "note": 53,
          "start": 27.904734,
          "duration": 2.523807,
          "velocity": 0.425197,
          "start_tick": 42192,
          "duration_ticks": 3816,
          "channel": 10
        },
        {
          "note": 32,
          "start": 30.428541,
          "duration": 2.524468,
          "velocity": 0.425197,
          "start_tick": 46008,
          "duration_ticks": 3817,
          "channel": 10
        },
        {
          "note": 48,
          "start": 30.428541,
          "duration": 2.524468,
          "velocity": 0.425197,
          "start_tick": 46008,
          "duration_ticks": 3817,
          "channel": 10
        },
        {
          "note": 51,
          "start": 30.428541,
          "duration": 2.524468,
          "velocity": 0.425197,
          "start_tick": 46008,
          "duration_ticks": 3817,
          "channel": 10
        },
        {
          "note": 56,
          "start": 30.428541,
          "duration": 2.524468,
          "velocity": 0.425197,
          "start_tick": 46008,
          "duration_ticks": 3817,
          "channel": 10
        },
        {
          "note": 39,
          "start": 32.953009,
          "duration": 2.523807,
          "velocity": 0.425197,
          "start_tick": 49825,
          "duration_ticks": 3816,
          "channel": 10
        },
        {
          "note": 46,
          "start": 32.953009,
          "duration": 2.523807,
          "velocity": 0.425197,
          "start_tick": 49825,
          "duration_ticks": 3816,
          "channel": 10
        },
        {
          "note": 51,
          "start": 32.953009,
          "duration": 2.523807,
          "velocity": 0.425197,
          "start_tick": 49825,
          "duration_ticks": 3816,
          "channel": 10
        },
        {
          "note": 55,
          "start": 32.953009,
          "duration": 2.523807,
          "velocity": 0.425197,
          "start_tick": 49825,
          "duration_ticks": 3816,
          "channel": 10
        },
        {
          "note": 35,
          "start": 35.476816,
          "duration": 2.52513,
          "velocity": 0.425197,
          "start_tick": 53641,
          "duration_ticks": 3818,
          "channel": 10
        },
        {
          "note": 47,
          "start": 35.476816,
          "duration": 2.52513,
          "velocity": 0.425197,
          "start_tick": 53641,
          "duration_ticks": 3818,
          "channel": 10
        },
        {
          "note": 50,
          "start": 35.476816,
          "duration": 2.52513,
          "velocity": 0.425197,
          "start_tick": 53641,
          "duration_ticks": 3818,
          "channel": 10
        },
        {
          "note": 55,
          "start": 35.476816,
          "duration": 2.52513,
          "velocity": 0.425197,
          "start_tick": 53641,
          "duration_ticks": 3818,
          "channel": 10
        },
        {
          "note": 29,
          "start": 38.001946,
          "duration": 2.524468,
          "velocity": 0.425197,
          "start_tick": 57459,
          "duration_ticks": 3817,
          "channel": 10
        },
        {
          "note": 48,
          "start": 38.001946,
          "duration": 2.524468,
          "velocity": 0.425197,
          "start_tick": 57459,
          "duration_ticks": 3817,
          "channel": 10
        },
        {
          "note": 53,
          "start": 38.001946,
          "duration": 2.524468,
          "velocity": 0.425197,
          "start_tick": 57459,
          "duration_ticks": 3817,
          "channel": 10
        },
        {
          "note": 56,
          "start": 38.001946,
          "duration": 2.524468,
          "velocity": 0.425197,
          "start_tick": 57459,
          "duration_ticks": 3817,
          "channel": 10
        },
        {
          "note": 48,
          "start": 40.526415,
          "duration": 2.524468,
          "velocity": 0.425197,
          "start_tick": 61276,
          "duration_ticks": 3817,
          "channel": 10
        },
        {
          "note": 51,
          "start": 40.526415,
          "duration": 2.524468,
          "velocity": 0.425197,
          "start_tick": 61276,
          "duration_ticks": 3817,
          "channel": 10
        },
        {
          "note": 55,
          "start": 40.526415,
          "duration": 2.524468,
          "velocity": 0.425197,
          "start_tick": 61276,
          "duration_ticks": 3817,
          "channel": 10
        },
        {
          "note": 46,
          "start": 43.050883,
          "duration": 2.528437,
          "velocity": 0.425197,
          "start_tick": 65093,
          "duration_ticks": 3823,
          "channel": 10
        },
        {
          "note": 51,
          "start": 43.050883,
          "duration": 2.528437,
          "velocity": 0.425197,
          "start_tick": 65093,
          "duration_ticks": 3823,
          "channel": 10
        },
        {
          "note": 55,
          "start": 43.050883,
          "duration": 2.528437,
          "velocity": 0.425197,
          "start_tick": 65093,
          "duration_ticks": 3823,
          "channel": 10
        },
        {
          "note": 43,
          "start": 45.579319,
          "duration": 2.538357,
          "velocity": 0.425197,
          "start_tick": 68916,
          "duration_ticks": 3838,
          "channel": 10
        },
        {
          "note": 47,
          "start": 45.579319,
          "duration": 2.538357,
          "velocity": 0.425197,
          "start_tick": 68916,
          "duration_ticks": 3838,
          "channel": 10
        },
        {
          "note": 50,
          "start": 45.579319,
          "duration": 2.538357,
          "velocity": 0.425197,
          "start_tick": 68916,
          "duration_ticks": 3838,
          "channel": 10
        },
        {
          "note": 55,
          "start": 45.579319,
          "duration": 2.538357,
          "velocity": 0.425197,
          "start_tick": 68916,
          "duration_ticks": 3838,
          "channel": 10
        },
        {
          "note": 41,
          "start": 48.117677,
          "duration": 2.538357,
          "velocity": 0.425197,
          "start_tick": 72754,
          "duration_ticks": 3838,
          "channel": 10
        },
        {
          "note": 44,
          "start": 48.117677,
          "duration": 2.538357,
          "velocity": 0.425197,
          "start_tick": 72754,
          "duration_ticks": 3838,
          "channel": 10
        },
        {
          "note": 48,
          "start": 48.117677,
          "duration": 2.538357,
          "velocity": 0.425197,
          "start_tick": 72754,
          "duration_ticks": 3838,
          "channel": 10
        },
        {
          "note": 53,
          "start": 48.117677,
          "duration": 2.538357,
          "velocity": 0.425197,
          "start_tick": 72754,
          "duration_ticks": 3838,
          "channel": 10
        },
        {
          "note": 32,
          "start": 50.656034,
          "duration": 2.538357,
          "velocity": 0.425197,
          "start_tick": 76592,
          "duration_ticks": 3838,
          "channel": 10
        },
        {
          "note": 48,
          "start": 50.656034,
          "duration": 2.538357,
          "velocity": 0.425197,
          "start_tick": 76592,
          "duration_ticks": 3838,
          "channel": 10
        },
        {
          "note": 51,
          "start": 50.656034,
          "duration": 2.538357,
          "velocity": 0.425197,
          "start_tick": 76592,
          "duration_ticks": 3838,
          "channel": 10
        },
        {
          "note": 56,
          "start": 50.656034,
          "duration": 2.538357,
          "velocity": 0.425197,
          "start_tick": 76592,
          "duration_ticks": 3838,
          "channel": 10
        },
        {
          "note": 39,
          "start": 53.194391,
          "duration": 2.538357,
          "velocity": 0.425197,
          "start_tick": 80430,
          "duration_ticks": 3838,
          "channel": 10
        },
        {
          "note": 46,
          "start": 53.194391,
          "duration": 2.538357,
          "velocity": 0.425197,
          "start_tick": 80430,
          "duration_ticks": 3838,
          "channel": 10
        },
        {
          "note": 51,
          "start": 53.194391,
          "duration": 2.538357,
          "velocity": 0.425197,
          "start_tick": 80430,
          "duration_ticks": 3838,
          "channel": 10
        },
        {
          "note": 55,
          "start": 53.194391,
          "duration": 2.538357,
          "velocity": 0.425197,
          "start_tick": 80430,
          "duration_ticks": 3838,
          "channel": 10
        },
        {
          "note": 35,
          "start": 55.732748,
          "duration": 2.538357,
          "velocity": 0.425197,
          "start_tick": 84268,
          "duration_ticks": 3838,
          "channel": 10
        },
        {
          "note": 47,
          "start": 55.732748,
          "duration": 2.538357,
          "velocity": 0.425197,
          "start_tick": 84268,
          "duration_ticks": 3838,
          "channel": 10
        },
        {
          "note": 50,
          "start": 55.732748,
          "duration": 2.538357,
          "velocity": 0.425197,
          "start_tick": 84268,
          "duration_ticks": 3838,
          "channel": 10
        },
        {
          "note": 55,
          "start": 55.732748,
          "duration": 2.538357,
          "velocity": 0.425197,
          "start_tick": 84268,
          "duration_ticks": 3838,
          "channel": 10
        },
        {
          "note": 29,
          "start": 58.271106,
          "duration": 2.538357,
          "velocity": 0.425197,
          "start_tick": 88106,
          "duration_ticks": 3838,
          "channel": 10
        },
        {
          "note": 48,
          "start": 58.271106,
          "duration": 2.538357,
          "velocity": 0.425197,
          "start_tick": 88106,
          "duration_ticks": 3838,
          "channel": 10
        },
        {
          "note": 53,
          "start": 58.271106,
          "duration": 2.538357,
          "velocity": 0.425197,
          "start_tick": 88106,
          "duration_ticks": 3838,
          "channel": 10
        },
        {
          "note": 56,
          "start": 58.271106,
          "duration": 2.538357,
          "velocity": 0.425197,
          "start_tick": 88106,
          "duration_ticks": 3838,
          "channel": 10
        },
        {
          "note": 48,
          "start": 60.809463,
          "duration": 2.538357,
          "velocity": 0.425197,
          "start_tick": 91944,
          "duration_ticks": 3838,
          "channel": 10
        },
        {
          "note": 51,
          "start": 60.809463,
          "duration": 2.538357,
          "velocity": 0.425197,
          "start_tick": 91944,
          "duration_ticks": 3838,
          "channel": 10
        },
        {
          "note": 55,
          "start": 60.809463,
          "duration": 2.538357,
          "velocity": 0.425197,
          "start_tick": 91944,
          "duration_ticks": 3838,
          "channel": 10
        },
        {
          "note": 46,
          "start": 63.34782,
          "duration": 2.519839,
          "velocity": 0.425197,
          "start_tick": 95782,
          "duration_ticks": 3810,
          "channel": 10
        },
        {
          "note": 51,
          "start": 63.34782,
          "duration": 2.519839,
          "velocity": 0.425197,
          "start_tick": 95782,
          "duration_ticks": 3810,
          "channel": 10
        },
        {
          "note": 55,
          "start": 63.34782,
          "duration": 2.519839,
          "velocity": 0.425197,
          "start_tick": 95782,
          "duration_ticks": 3810,
          "channel": 10
        },
        {
          "note": 43,
          "start": 65.867659,
          "duration": 2.492061,
          "velocity": 0.425197,
          "start_tick": 99592,
          "duration_ticks": 3768,
          "channel": 10
        },
        {
          "note": 47,
          "start": 65.867659,
          "duration": 2.492061,
          "velocity": 0.425197,
          "start_tick": 99592,
          "duration_ticks": 3768,
          "channel": 10
        },
        {
          "note": 50,
          "start": 65.867659,
          "duration": 2.492061,
          "velocity": 0.425197,
          "start_tick": 99592,
          "duration_ticks": 3768,
          "channel": 10
        },
        {
          "note": 55,
          "start": 65.867659,
          "duration": 2.492061,
          "velocity": 0.425197,
          "start_tick": 99592,
          "duration_ticks": 3768,
          "channel": 10
        },
        {
          "note": 41,
          "start": 68.35972,
          "duration": 2.492061,
          "velocity": 0.425197,
          "start_tick": 103360,
          "duration_ticks": 3768,
          "channel": 10
        },
        {
          "note": 44,
          "start": 68.35972,
          "duration": 2.492061,
          "velocity": 0.425197,
          "start_tick": 103360,
          "duration_ticks": 3768,
          "channel": 10
        },
        {
          "note": 48,
          "start": 68.35972,
          "duration": 2.492061,
          "velocity": 0.425197,
          "start_tick": 103360,
          "duration_ticks": 3768,
          "channel": 10
        },
        {
          "note": 53,
          "start": 68.35972,
          "duration": 2.492061,
          "velocity": 0.425197,
          "start_tick": 103360,
          "duration_ticks": 3768,
          "channel": 10
        },
        {
          "note": 32,
          "start": 70.851781,
          "duration": 2.492061,
          "velocity": 0.425197,
          "start_tick": 107128,
          "duration_ticks": 3768,
          "channel": 10
        },
        {
          "note": 48,
          "start": 70.851781,
          "duration": 2.492061,
          "velocity": 0.425197,
          "start_tick": 107128,
          "duration_ticks": 3768,
          "channel": 10
        },
        {
          "note": 51,
          "start": 70.851781,
          "duration": 2.492061,
          "velocity": 0.425197,
          "start_tick": 107128,
          "duration_ticks": 3768,
          "channel": 10
        },
        {
          "note": 56,
          "start": 70.851781,
          "duration": 2.492061,
          "velocity": 0.425197,
          "start_tick": 107128,
          "duration_ticks": 3768,
          "channel": 10
        },
        {
          "note": 39,
          "start": 73.343842,
          "duration": 2.542987,
          "velocity": 0.425197,
          "start_tick": 110896,
          "duration_ticks": 3845,
          "channel": 10
        },
        {
          "note": 46,
          "start": 73.343842,
          "duration": 2.542987,
          "velocity": 0.425197,
          "start_tick": 110896,
          "duration_ticks": 3845,
          "channel": 10
        },
        {
          "note": 51,
          "start": 73.343842,
          "duration": 2.542987,
          "velocity": 0.425197,
          "start_tick": 110896,
          "duration_ticks": 3845,
          "channel": 10
        },
        {
          "note": 55,
          "start": 73.343842,
          "duration": 2.542987,
          "velocity": 0.425197,
          "start_tick": 110896,
          "duration_ticks": 3845,
          "channel": 10
        },
        {
          "note": 35,
          "start": 75.886829,
          "duration": 2.601188,
          "velocity": 0.425197,
          "start_tick": 114741,
          "duration_ticks": 3933,
          "channel": 10
        },
        {
          "note": 47,
          "start": 75.886829,
          "duration": 2.601188,
          "velocity": 0.425197,
          "start_tick": 114741,
          "duration_ticks": 3933,
          "channel": 10
        },
        {
          "note": 50,
          "start": 75.886829,
          "duration": 2.601188,
          "velocity": 0.425197,
          "start_tick": 114741,
          "duration_ticks": 3933,
          "channel": 10
        },
        {
          "note": 55,
          "start": 75.886829,
          "duration": 2.601188,
          "velocity": 0.425197,
          "start_tick": 114741,
          "duration_ticks": 3933,
          "channel": 10
        },
        {
          "note": 29,
          "start": 78.488017,
          "duration": 2.601188,
          "velocity": 0.425197,
          "start_tick": 118674,
          "duration_ticks": 3933,
          "channel": 10
        },
        {
          "note": 48,
          "start": 78.488017,
          "duration": 2.601188,
          "velocity": 0.425197,
          "start_tick": 118674,
          "duration_ticks": 3933,
          "channel": 10
        },
        {
          "note": 53,
          "start": 78.488017,
          "duration": 2.601188,
          "velocity": 0.425197,
          "start_tick": 118674,
          "duration_ticks": 3933,
          "channel": 10
        },
        {
          "note": 56,
          "start": 78.488017,
          "duration": 2.601188,
          "velocity": 0.425197,
          "start_tick": 118674,
          "duration_ticks": 3933,
          "channel": 10
        },
        {
          "note": 48,
          "start": 81.089205,
          "duration": 2.601188,
          "velocity": 0.425197,
          "start_tick": 122607,
          "duration_ticks": 3933,
          "channel": 10
        },
        {
          "note": 51,
          "start": 81.089205,
          "duration": 2.601188,
          "velocity": 0.425197,
          "start_tick": 122607,
          "duration_ticks": 3933,
          "channel": 10
        },
        {
          "note": 55,
          "start": 81.089205,
          "duration": 2.601188,
          "velocity": 0.425197,
          "start_tick": 122607,
          "duration_ticks": 3933,
          "channel": 10
        },
        {
          "note": 46,
          "start": 83.690393,
          "duration": 2.585315,
          "velocity": 0.425197,
          "start_tick": 126540,
          "duration_ticks": 3909,
          "channel": 10
        },
        {
          "note": 51,
          "start": 83.690393,
          "duration": 2.585315,
          "velocity": 0.425197,
          "start_tick": 126540,
          "duration_ticks": 3909,
          "channel": 10
        },
        {
          "note": 55,
          "start": 83.690393,
          "duration": 2.585315,
          "velocity": 0.425197,
          "start_tick": 126540,
          "duration_ticks": 3909,
          "channel": 10
        },
        {
          "note": 43,
          "start": 86.275707,
          "duration": 2.571426,
          "velocity": 0.425197,
          "start_tick": 130449,
          "duration_ticks": 3888,
          "channel": 10
        },
        {
          "note": 47,
          "start": 86.275707,
          "duration": 2.571426,
          "velocity": 0.425197,
          "start_tick": 130449,
          "duration_ticks": 3888,
          "channel": 10
        },
        {
          "note": 50,
          "start": 86.275707,
          "duration": 2.571426,
          "velocity": 0.425197,
          "start_tick": 130449,
          "duration_ticks": 3888,
          "channel": 10
        },
        {
          "note": 55,
          "start": 86.275707,
          "duration": 2.571426,
          "velocity": 0.425197,
          "start_tick": 130449,
          "duration_ticks": 3888,
          "channel": 10
        },
        {
          "note": 41,
          "start": 88.847133,
          "duration": 2.570765,
          "velocity": 0.425197,
          "start_tick": 134337,
          "duration_ticks": 3887,
          "channel": 10
        },
        {
          "note": 44,
          "start": 88.847133,
          "duration": 2.570765,
          "velocity": 0.425197,
          "start_tick": 134337,
          "duration_ticks": 3887,
          "channel": 10
        },
        {
          "note": 48,
          "start": 88.847133,
          "duration": 2.570765,
          "velocity": 0.425197,
          "start_tick": 134337,
          "duration_ticks": 3887,
          "channel": 10
        },
        {
          "note": 53,
          "start": 88.847133,
          "duration": 2.570765,
          "velocity": 0.425197,
          "start_tick": 134337,
          "duration_ticks": 3887,
          "channel": 10
        },
        {
          "note": 32,
          "start": 91.417898,
          "duration": 2.571426,
          "velocity": 0.425197,
          "start_tick": 138224,
          "duration_ticks": 3888,
          "channel": 10
        },
        {
          "note": 48,
          "start": 91.417898,
          "duration": 2.571426,
          "velocity": 0.425197,
          "start_tick": 138224,
          "duration_ticks": 3888,
          "channel": 10
        },
        {
          "note": 51,
          "start": 91.417898,
          "duration": 2.571426,
          "velocity": 0.425197,
          "start_tick": 138224,
          "duration_ticks": 3888,
          "channel": 10
        },
        {
          "note": 56,
          "start": 91.417898,
          "duration": 2.571426,
          "velocity": 0.425197,
          "start_tick": 138224,
          "duration_ticks": 3888,
          "channel": 10
        },
        {
          "note": 39,
          "start": 93.989324,
          "duration": 2.54431,
          "velocity": 0.425197,
          "start_tick": 142112,
          "duration_ticks": 3847,
          "channel": 10
        },
        {
          "note": 46,
          "start": 93.989324,
          "duration": 2.54431,
          "velocity": 0.425197,
          "start_tick": 142112,
          "duration_ticks": 3847,
          "channel": 10
        },
        {
          "note": 51,
          "start": 93.989324,
          "duration": 2.54431,
          "velocity": 0.425197,
          "start_tick": 142112,
          "duration_ticks": 3847,
          "channel": 10
        },
        {
          "note": 55,
          "start": 93.989324,
          "duration": 2.54431,
          "velocity": 0.425197,
          "start_tick": 142112,
          "duration_ticks": 3847,
          "channel": 10
        },
        {
          "note": 35,
          "start": 96.533634,
          "duration": 2.524468,
          "velocity": 0.425197,
          "start_tick": 145959,
          "duration_ticks": 3817,
          "channel": 10
        },
        {
          "note": 47,
          "start": 96.533634,
          "duration": 2.524468,
          "velocity": 0.425197,
          "start_tick": 145959,
          "duration_ticks": 3817,
          "channel": 10
        },
        {
          "note": 50,
          "start": 96.533634,
          "duration": 2.524468,
          "velocity": 0.425197,
          "start_tick": 145959,
          "duration_ticks": 3817,
          "channel": 10
        },
        {
          "note": 55,
          "start": 96.533634,
          "duration": 2.524468,
          "velocity": 0.425197,
          "start_tick": 145959,
          "duration_ticks": 3817,
          "channel": 10
        },
        {
          "note": 29,
          "start": 99.058102,
          "duration": 2.52513,
          "velocity": 0.425197,
          "start_tick": 149776,
          "duration_ticks": 3818,
          "channel": 10
        },
        {
          "note": 48,
          "start": 99.058102,
          "duration": 2.52513,
          "velocity": 0.425197,
          "start_tick": 149776,
          "duration_ticks": 3818,
          "channel": 10
        },
        {
          "note": 53,
          "start": 99.058102,
          "duration": 2.52513,
          "velocity": 0.425197,
          "start_tick": 149776,
          "duration_ticks": 3818,
          "channel": 10
        },
        {
          "note": 56,
          "start": 99.058102,
          "duration": 2.52513,
          "velocity": 0.425197,
          "start_tick": 149776,
          "duration_ticks": 3818,
          "channel": 10
        },
        {
          "note": 48,
          "start": 101.583232,
          "duration": 2.52513,
          "velocity": 0.425197,
          "start_tick": 153594,
          "duration_ticks": 3818,
          "channel": 10
        },
        {
          "note": 51,
          "start": 101.583232,
          "duration": 2.52513,
          "velocity": 0.425197,
          "start_tick": 153594,
          "duration_ticks": 3818,
          "channel": 10
        },
        {
          "note": 55,
          "start": 101.583232,
          "duration": 2.52513,
          "velocity": 0.425197,
          "start_tick": 153594,
          "duration_ticks": 3818,
          "channel": 10
        },
        {
          "note": 46,
          "start": 104.108362,
          "duration": 2.52513,
          "velocity": 0.425197,
          "start_tick": 157412,
          "duration_ticks": 3818,
          "channel": 10
        },
        {
          "note": 51,
          "start": 104.108362,
          "duration": 2.52513,
          "velocity": 0.425197,
          "start_tick": 157412,
          "duration_ticks": 3818,
          "channel": 10
        },
        {
          "note": 55,
          "start": 104.108362,
          "duration": 2.52513,
          "velocity": 0.425197,
          "start_tick": 157412,
          "duration_ticks": 3818,
          "channel": 10
        },
        {
          "note": 43,
          "start": 106.633491,
          "duration": 2.52513,
          "velocity": 0.425197,
          "start_tick": 161230,
          "duration_ticks": 3818,
          "channel": 10
        },
        {
          "note": 47,
          "start": 106.633491,
          "duration": 2.52513,
          "velocity": 0.425197,
          "start_tick": 161230,
          "duration_ticks": 3818,
          "channel": 10
        },
        {
          "note": 50,
          "start": 106.633491,
          "duration": 2.52513,
          "velocity": 0.425197,
          "start_tick": 161230,
          "duration_ticks": 3818,
          "channel": 10
        },
        {
          "note": 55,
          "start": 106.633491,
          "duration": 2.52513,
          "velocity": 0.425197,
          "start_tick": 161230,
          "duration_ticks": 3818,
          "channel": 10
        },
        {
          "note": 41,
          "start": 109.158621,
          "duration": 2.52513,
          "velocity": 0.425197,
          "start_tick": 165048,
          "duration_ticks": 3818,
          "channel": 10
        },
        {
          "note": 44,
          "start": 109.158621,
          "duration": 2.52513,
          "velocity": 0.425197,
          "start_tick": 165048,
          "duration_ticks": 3818,
          "channel": 10
        },
        {
          "note": 48,
          "start": 109.158621,
          "duration": 2.52513,
          "velocity": 0.425197,
          "start_tick": 165048,
          "duration_ticks": 3818,
          "channel": 10
        },
        {
          "note": 53,
          "start": 109.158621,
          "duration": 2.52513,
          "velocity": 0.425197,
          "start_tick": 165048,
          "duration_ticks": 3818,
          "channel": 10
        },
        {
          "note": 32,
          "start": 111.683751,
          "duration": 2.52513,
          "velocity": 0.425197,
          "start_tick": 168866,
          "duration_ticks": 3818,
          "channel": 10
        },
        {
          "note": 48,
          "start": 111.683751,
          "duration": 2.52513,
          "velocity": 0.425197,
          "start_tick": 168866,
          "duration_ticks": 3818,
          "channel": 10
        },
        {
          "note": 51,
          "start": 111.683751,
          "duration": 2.52513,
          "velocity": 0.425197,
          "start_tick": 168866,
          "duration_ticks": 3818,
          "channel": 10
        },
        {
          "note": 56,
          "start": 111.683751,
          "duration": 2.52513,
          "velocity": 0.425197,
          "start_tick": 168866,
          "duration_ticks": 3818,
          "channel": 10
        },
        {
          "note": 39,
          "start": 114.208881,
          "duration": 2.52513,
          "velocity": 0.425197,
          "start_tick": 172684,
          "duration_ticks": 3818,
          "channel": 10
        },
        {
          "note": 46,
          "start": 114.208881,
          "duration": 2.52513,
          "velocity": 0.425197,
          "start_tick": 172684,
          "duration_ticks": 3818,
          "channel": 10
        },
        {
          "note": 51,
          "start": 114.208881,
          "duration": 2.52513,
          "velocity": 0.425197,
          "start_tick": 172684,
          "duration_ticks": 3818,
          "channel": 10
        },
        {
          "note": 55,
          "start": 114.208881,
          "duration": 2.52513,
          "velocity": 0.425197,
          "start_tick": 172684,
          "duration_ticks": 3818,
          "channel": 10
        },
        {
          "note": 35,
          "start": 116.73401,
          "duration": 2.524468,
          "velocity": 0.425197,
          "start_tick": 176502,
          "duration_ticks": 3817,
          "channel": 10
        },
        {
          "note": 47,
          "start": 116.73401,
          "duration": 2.524468,
          "velocity": 0.425197,
          "start_tick": 176502,
          "duration_ticks": 3817,
          "channel": 10
        },
        {
          "note": 50,
          "start": 116.73401,
          "duration": 2.524468,
          "velocity": 0.425197,
          "start_tick": 176502,
          "duration_ticks": 3817,
          "channel": 10
        },
        {
          "note": 55,
          "start": 116.73401,
          "duration": 2.524468,
          "velocity": 0.425197,
          "start_tick": 176502,
          "duration_ticks": 3817,
          "channel": 10
        },
        {
          "note": 29,
          "start": 119.258479,
          "duration": 8.601182,
          "velocity": 0.425197,
          "start_tick": 180319,
          "duration_ticks": 13005,
          "channel": 10
        },
        {
          "note": 48,
          "start": 119.258479,
          "duration": 8.601182,
          "velocity": 0.425197,
          "start_tick": 180319,
          "duration_ticks": 13005,
          "channel": 10
        },
        {
          "note": 53,
          "start": 119.258479,
          "duration": 8.601182,
          "velocity": 0.425197,
          "start_tick": 180319,
          "duration_ticks": 13005,
          "channel": 10
        },
        {
          "note": 56,
          "start": 119.258479,
          "duration": 8.601182,
          "velocity": 0.425197,
          "start_tick": 180319,
          "duration_ticks": 13005,
          "channel": 10
        },
        {
          "note": 48,
          "start": 129.358998,
          "duration": 2.52513,
          "velocity": 0.425197,
          "start_tick": 195591,
          "duration_ticks": 3818,
          "channel": 10
        },
        {
          "note": 51,
          "start": 129.358998,
          "duration": 2.52513,
          "velocity": 0.425197,
          "start_tick": 195591,
          "duration_ticks": 3818,
          "channel": 10
        },
        {
          "note": 55,
          "start": 129.358998,
          "duration": 2.52513,
          "velocity": 0.425197,
          "start_tick": 195591,
          "duration_ticks": 3818,
          "channel": 10
        },
        {
          "note": 46,
          "start": 131.884127,
          "duration": 2.52513,
          "velocity": 0.425197,
          "start_tick": 199409,
          "duration_ticks": 3818,
          "channel": 10
        },
        {
          "note": 51,
          "start": 131.884127,
          "duration": 2.52513,
          "velocity": 0.425197,
          "start_tick": 199409,
          "duration_ticks": 3818,
          "channel": 10
        },
        {
          "note": 55,
          "start": 131.884127,
          "duration": 2.52513,
          "velocity": 0.425197,
          "start_tick": 199409,
          "duration_ticks": 3818,
          "channel": 10
        },
        {
          "note": 43,
          "start": 134.409257,
          "duration": 2.571426,
          "velocity": 0.425197,
          "start_tick": 203227,
          "duration_ticks": 3888,
          "channel": 10
        },
        {
          "note": 47,
          "start": 134.409257,
          "duration": 2.571426,
          "velocity": 0.425197,
          "start_tick": 203227,
          "duration_ticks": 3888,
          "channel": 10
        },
        {
          "note": 50,
          "start": 134.409257,
          "duration": 2.571426,
          "velocity": 0.425197,
          "start_tick": 203227,
          "duration_ticks": 3888,
          "channel": 10
        },
        {
          "note": 55,
          "start": 134.409257,
          "duration": 2.571426,
          "velocity": 0.425197,
          "start_tick": 203227,
          "duration_ticks": 3888,
          "channel": 10
        },
        {
          "note": 41,
          "start": 136.980683,
          "duration": 2.580685,
          "velocity": 0.425197,
          "start_tick": 207115,
          "duration_ticks": 3902,
          "channel": 10
        },
        {
          "note": 44,
          "start": 136.980683,
          "duration": 2.580685,
          "velocity": 0.425197,
          "start_tick": 207115,
          "duration_ticks": 3902,
          "channel": 10
        },
        {
          "note": 48,
          "start": 136.980683,
          "duration": 2.580685,
          "velocity": 0.425197,
          "start_tick": 207115,
          "duration_ticks": 3902,
          "channel": 10
        },
        {
          "note": 53,
          "start": 136.980683,
          "duration": 2.580685,
          "velocity": 0.425197,
          "start_tick": 207115,
          "duration_ticks": 3902,
          "channel": 10
        },
        {
          "note": 32,
          "start": 139.561368,
          "duration": 2.580024,
          "velocity": 0.425197,
          "start_tick": 211017,
          "duration_ticks": 3901,
          "channel": 10
        },
        {
          "note": 48,
          "start": 139.561368,
          "duration": 2.580024,
          "velocity": 0.425197,
          "start_tick": 211017,
          "duration_ticks": 3901,
          "channel": 10
        },
        {
          "note": 51,
          "start": 139.561368,
          "duration": 2.580024,
          "velocity": 0.425197,
          "start_tick": 211017,
          "duration_ticks": 3901,
          "channel": 10
        },
        {
          "note": 56,
          "start": 139.561368,
          "duration": 2.580024,
          "velocity": 0.425197,
          "start_tick": 211017,
          "duration_ticks": 3901,
          "channel": 10
        },
        {
          "note": 39,
          "start": 142.141392,
          "duration": 2.580024,
          "velocity": 0.425197,
          "start_tick": 214918,
          "duration_ticks": 3901,
          "channel": 10
        },
        {
          "note": 46,
          "start": 142.141392,
          "duration": 2.580024,
          "velocity": 0.425197,
          "start_tick": 214918,
          "duration_ticks": 3901,
          "channel": 10
        },
        {
          "note": 51,
          "start": 142.141392,
          "duration": 2.580024,
          "velocity": 0.425197,
          "start_tick": 214918,
          "duration_ticks": 3901,
          "channel": 10
        },
        {
          "note": 55,
          "start": 142.141392,
          "duration": 2.580024,
          "velocity": 0.425197,
          "start_tick": 214918,
          "duration_ticks": 3901,
          "channel": 10
        },
        {
          "note": 35,
          "start": 144.721416,
          "duration": 2.583331,
          "velocity": 0.425197,
          "start_tick": 218819,
          "duration_ticks": 3906,
          "channel": 10
        },
        {
          "note": 47,
          "start": 144.721416,
          "duration": 2.583331,
          "velocity": 0.425197,
          "start_tick": 218819,
          "duration_ticks": 3906,
          "channel": 10
        },
        {
          "note": 50,
          "start": 144.721416,
          "duration": 2.583331,
          "velocity": 0.425197,
          "start_tick": 218819,
          "duration_ticks": 3906,
          "channel": 10
        },
        {
          "note": 55,
          "start": 144.721416,
          "duration": 2.583331,
          "velocity": 0.425197,
          "start_tick": 218819,
          "duration_ticks": 3906,
          "channel": 10
        },
        {
          "note": 29,
          "start": 147.304747,
          "duration": 2.583331,
          "velocity": 0.425197,
          "start_tick": 222725,
          "duration_ticks": 3906,
          "channel": 10
        },
        {
          "note": 48,
          "start": 147.304747,
          "duration": 1.937829,
          "velocity": 0.425197,
          "start_tick": 222725,
          "duration_ticks": 2930,
          "channel": 10
        },
        {
          "note": 53,
          "start": 147.304747,
          "duration": 1.937829,
          "velocity": 0.425197,
          "start_tick": 222725,
          "duration_ticks": 2930,
          "channel": 10
        },
        {
          "note": 56,
          "start": 147.304747,
          "duration": 1.937829,
          "velocity": 0.425197,
          "start_tick": 222725,
          "duration_ticks": 2930,
          "channel": 10
        },
        {
          "note": 48,
          "start": 149.888078,
          "duration": 2.583331,
          "velocity": 0.425197,
          "start_tick": 226631,
          "duration_ticks": 3906,
          "channel": 10
        },
        {
          "note": 51,
          "start": 149.888078,
          "duration": 2.583331,
          "velocity": 0.425197,
          "start_tick": 226631,
          "duration_ticks": 3906,
          "channel": 10
        },
        {
          "note": 55,
          "start": 149.888078,
          "duration": 2.583331,
          "velocity": 0.425197,
          "start_tick": 226631,
          "duration_ticks": 3906,
          "channel": 10
        },
        {
          "note": 46,
          "start": 152.471408,
          "duration": 2.583992,
          "velocity": 0.425197,
          "start_tick": 230537,
          "duration_ticks": 3907,
          "channel": 10
        },
        {
          "note": 51,
          "start": 152.471408,
          "duration": 2.583992,
          "velocity": 0.425197,
          "start_tick": 230537,
          "duration_ticks": 3907,
          "channel": 10
        },
        {
          "note": 55,
          "start": 152.471408,
          "duration": 2.583992,
          "velocity": 0.425197,
          "start_tick": 230537,
          "duration_ticks": 3907,
          "channel": 10
        },
        {
          "note": 43,
          "start": 155.0554,
          "duration": 2.564812,
          "velocity": 0.425197,
          "start_tick": 234444,
          "duration_ticks": 3878,
          "channel": 10
        },
        {
          "note": 47,
          "start": 155.0554,
          "duration": 2.564812,
          "velocity": 0.425197,
          "start_tick": 234444,
          "duration_ticks": 3878,
          "channel": 10
        },
        {
          "note": 50,
          "start": 155.0554,
          "duration": 2.564812,
          "velocity": 0.425197,
          "start_tick": 234444,
          "duration_ticks": 3878,
          "channel": 10
        },
        {
          "note": 55,
          "start": 155.0554,
          "duration": 2.564812,
          "velocity": 0.425197,
          "start_tick": 234444,
          "duration_ticks": 3878,
          "channel": 10
        },
        {
          "note": 41,
          "start": 157.620213,
          "duration": 2.564151,
          "velocity": 0.425197,
          "start_tick": 238322,
          "duration_ticks": 3877,
          "channel": 10
        },
        {
          "note": 44,
          "start": 157.620213,
          "duration": 2.564151,
          "velocity": 0.425197,
          "start_tick": 238322,
          "duration_ticks": 3877,
          "channel": 10
        },
        {
          "note": 48,
          "start": 157.620213,
          "duration": 2.564151,
          "velocity": 0.425197,
          "start_tick": 238322,
          "duration_ticks": 3877,
          "channel": 10
        },
        {
          "note": 53,
          "start": 157.620213,
          "duration": 2.564151,
          "velocity": 0.425197,
          "start_tick": 238322,
          "duration_ticks": 3877,
          "channel": 10
        },
        {
          "note": 32,
          "start": 160.184364,
          "duration": 2.564812,
          "velocity": 0.425197,
          "start_tick": 242199,
          "duration_ticks": 3878,
          "channel": 10
        },
        {
          "note": 48,
          "start": 160.184364,
          "duration": 2.564812,
          "velocity": 0.425197,
          "start_tick": 242199,
          "duration_ticks": 3878,
          "channel": 10
        },
        {
          "note": 51,
          "start": 160.184364,
          "duration": 2.564812,
          "velocity": 0.425197,
          "start_tick": 242199,
          "duration_ticks": 3878,
          "channel": 10
        },
        {
          "note": 56,
          "start": 160.184364,
          "duration": 2.564812,
          "velocity": 0.425197,
          "start_tick": 242199,
          "duration_ticks": 3878,
          "channel": 10
        },
        {
          "note": 39,
          "start": 162.749176,
          "duration": 2.562828,
          "velocity": 0.425197,
          "start_tick": 246077,
          "duration_ticks": 3875,
          "channel": 10
        },
        {
          "note": 46,
          "start": 162.749176,
          "duration": 2.562828,
          "velocity": 0.425197,
          "start_tick": 246077,
          "duration_ticks": 3875,
          "channel": 10
        },
        {
          "note": 51,
          "start": 162.749176,
          "duration": 2.562828,
          "velocity": 0.425197,
          "start_tick": 246077,
          "duration_ticks": 3875,
          "channel": 10
        },
        {
          "note": 55,
          "start": 162.749176,
          "duration": 2.562828,
          "velocity": 0.425197,
          "start_tick": 246077,
          "duration_ticks": 3875,
          "channel": 10
        },
        {
          "note": 35,
          "start": 165.312004,
          "duration": 2.515209,
          "velocity": 0.425197,
          "start_tick": 249952,
          "duration_ticks": 3803,
          "channel": 10
        },
        {
          "note": 47,
          "start": 165.312004,
          "duration": 2.515209,
          "velocity": 0.425197,
          "start_tick": 249952,
          "duration_ticks": 3803,
          "channel": 10
        },
        {
          "note": 50,
          "start": 165.312004,
          "duration": 2.515209,
          "velocity": 0.425197,
          "start_tick": 249952,
          "duration_ticks": 3803,
          "channel": 10
        },
        {
          "note": 55,
          "start": 165.312004,
          "duration": 2.515209,
          "velocity": 0.425197,
          "start_tick": 249952,
          "duration_ticks": 3803,
          "channel": 10
        },
        {
          "note": 29,
          "start": 167.827213,
          "duration": 2.515871,
          "velocity": 0.425197,
          "start_tick": 253755,
          "duration_ticks": 3804,
          "channel": 10
        },
        {
          "note": 48,
          "start": 167.827213,
          "duration": 2.515871,
          "velocity": 0.425197,
          "start_tick": 253755,
          "duration_ticks": 3804,
          "channel": 10
        },
        {
          "note": 53,
          "start": 167.827213,
          "duration": 2.515871,
          "velocity": 0.425197,
          "start_tick": 253755,
          "duration_ticks": 3804,
          "channel": 10
        },
        {
          "note": 56,
          "start": 167.827213,
          "duration": 2.515871,
          "velocity": 0.425197,
          "start_tick": 253755,
          "duration_ticks": 3804,
          "channel": 10
        },
        {
          "note": 48,
          "start": 170.343084,
          "duration": 2.515871,
          "velocity": 0.425197,
          "start_tick": 257559,
          "duration_ticks": 3804,
          "channel": 10
        },
        {
          "note": 51,
          "start": 170.343084,
          "duration": 2.515871,
          "velocity": 0.425197,
          "start_tick": 257559,
          "duration_ticks": 3804,
          "channel": 10
        },
        {
          "note": 55,
          "start": 170.343084,
          "duration": 2.515871,
          "velocity": 0.425197,
          "start_tick": 257559,
          "duration_ticks": 3804,
          "channel": 10
        },
        {
          "note": 46,
          "start": 172.858954,
          "duration": 2.515209,
          "velocity": 0.425197,
          "start_tick": 261363,
          "duration_ticks": 3803,
          "channel": 10
        },
        {
          "note": 51,
          "start": 172.858954,
          "duration": 2.515209,
          "velocity": 0.425197,
          "start_tick": 261363,
          "duration_ticks": 3803,
          "channel": 10
        },
        {
          "note": 55,
          "start": 172.858954,
          "duration": 2.515209,
          "velocity": 0.425197,
          "start_tick": 261363,
          "duration_ticks": 3803,
          "channel": 10
        },
        {
          "note": 43,
          "start": 175.374163,
          "duration": 2.51587,
          "velocity": 0.425197,
          "start_tick": 265166,
          "duration_ticks": 3804,
          "channel": 10
        },
        {
          "note": 47,
          "start": 175.374163,
          "duration": 2.51587,
          "velocity": 0.425197,
          "start_tick": 265166,
          "duration_ticks": 3804,
          "channel": 10
        },
        {
          "note": 50,
          "start": 175.374163,
          "duration": 2.51587,
          "velocity": 0.425197,
          "start_tick": 265166,
          "duration_ticks": 3804,
          "channel": 10
        },
        {
          "note": 55,
          "start": 175.374163,
          "duration": 2.51587,
          "velocity": 0.425197,
          "start_tick": 265166,
          "duration_ticks": 3804,
          "channel": 10
        },
        {
          "note": 41,
          "start": 177.890034,
          "duration": 2.515871,
          "velocity": 0.425197,
          "start_tick": 268970,
          "duration_ticks": 3804,
          "channel": 10
        },
        {
          "note": 44,
          "start": 177.890034,
          "duration": 2.515871,
          "velocity": 0.425197,
          "start_tick": 268970,
          "duration_ticks": 3804,
          "channel": 10
        },
        {
          "note": 48,
          "start": 177.890034,
          "duration": 2.515871,
          "velocity": 0.425197,
          "start_tick": 268970,
          "duration_ticks": 3804,
          "channel": 10
        },
        {
          "note": 53,
          "start": 177.890034,
          "duration": 2.515871,
          "velocity": 0.425197,
          "start_tick": 268970,
          "duration_ticks": 3804,
          "channel": 10
        },
        {
          "note": 32,
          "start": 180.405904,
          "duration": 2.515209,
          "velocity": 0.425197,
          "start_tick": 272774,
          "duration_ticks": 3803,
          "channel": 10
        },
        {
          "note": 48,
          "start": 180.405904,
          "duration": 2.515209,
          "velocity": 0.425197,
          "start_tick": 272774,
          "duration_ticks": 3803,
          "channel": 10
        },
        {
          "note": 51,
          "start": 180.405904,
          "duration": 2.515209,
          "velocity": 0.425197,
          "start_tick": 272774,
          "duration_ticks": 3803,
          "channel": 10
        },
        {
          "note": 56,
          "start": 180.405904,
          "duration": 2.515209,
          "velocity": 0.425197,
          "start_tick": 272774,
          "duration_ticks": 3803,
          "channel": 10
        },
        {
          "note": 39,
          "start": 182.921113,
          "duration": 2.521823,
          "velocity": 0.425197,
          "start_tick": 276577,
          "duration_ticks": 3813,
          "channel": 10
        },
        {
          "note": 46,
          "start": 182.921113,
          "duration": 2.521823,
          "velocity": 0.425197,
          "start_tick": 276577,
          "duration_ticks": 3813,
          "channel": 10
        },
        {
          "note": 51,
          "start": 182.921113,
          "duration": 2.521823,
          "velocity": 0.425197,
          "start_tick": 276577,
          "duration_ticks": 3813,
          "channel": 10
        },
        {
          "note": 55,
          "start": 182.921113,
          "duration": 2.521823,
          "velocity": 0.425197,
          "start_tick": 276577,
          "duration_ticks": 3813,
          "channel": 10
        },
        {
          "note": 35,
          "start": 185.442936,
          "duration": 2.552908,
          "velocity": 0.425197,
          "start_tick": 280390,
          "duration_ticks": 3860,
          "channel": 10
        },
        {
          "note": 47,
          "start": 185.442936,
          "duration": 2.552908,
          "velocity": 0.425197,
          "start_tick": 280390,
          "duration_ticks": 3860,
          "channel": 10
        },
        {
          "note": 50,
          "start": 185.442936,
          "duration": 2.552908,
          "velocity": 0.425197,
          "start_tick": 280390,
          "duration_ticks": 3860,
          "channel": 10
        },
        {
          "note": 55,
          "start": 185.442936,
          "duration": 2.552908,
          "velocity": 0.425197,
          "start_tick": 280390,
          "duration_ticks": 3860,
          "channel": 10
        },
        {
          "note": 29,
          "start": 187.995844,
          "duration": 2.553569,
          "velocity": 0.425197,
          "start_tick": 284250,
          "duration_ticks": 3861,
          "channel": 10
        },
        {
          "note": 48,
          "start": 187.995844,
          "duration": 2.553569,
          "velocity": 0.425197,
          "start_tick": 284250,
          "duration_ticks": 3861,
          "channel": 10
        },
        {
          "note": 53,
          "start": 187.995844,
          "duration": 2.553569,
          "velocity": 0.425197,
          "start_tick": 284250,
          "duration_ticks": 3861,
          "channel": 10
        },
        {
          "note": 56,
          "start": 187.995844,
          "duration": 2.553569,
          "velocity": 0.425197,
          "start_tick": 284250,
          "duration_ticks": 3861,
          "channel": 10
        },
        {
          "note": 48,
          "start": 190.549413,
          "duration": 2.552908,
          "velocity": 0.425197,
          "start_tick": 288111,
          "duration_ticks": 3860,
          "channel": 10
        },
        {
          "note": 51,
          "start": 190.549413,
          "duration": 2.552908,
          "velocity": 0.425197,
          "start_tick": 288111,
          "duration_ticks": 3860,
          "channel": 10
        },
        {
          "note": 55,
          "start": 190.549413,
          "duration": 2.552908,
          "velocity": 0.425197,
          "start_tick": 288111,
          "duration_ticks": 3860,
          "channel": 10
        },
        {
          "note": 46,
          "start": 193.10232,
          "duration": 2.553569,
          "velocity": 0.425197,
          "start_tick": 291971,
          "duration_ticks": 3861,
          "channel": 10
        },
        {
          "note": 51,
          "start": 193.10232,
          "duration": 2.553569,
          "velocity": 0.425197,
          "start_tick": 291971,
          "duration_ticks": 3861,
          "channel": 10
        },
        {
          "note": 55,
          "start": 193.10232,
          "duration": 2.553569,
          "velocity": 0.425197,
          "start_tick": 291971,
          "duration_ticks": 3861,
          "channel": 10
        },
        {
          "note": 43,
          "start": 195.655889,
          "duration": 2.552908,
          "velocity": 0.425197,
          "start_tick": 295832,
          "duration_ticks": 3860,
          "channel": 10
        },
        {
          "note": 47,
          "start": 195.655889,
          "duration": 2.552908,
          "velocity": 0.425197,
          "start_tick": 295832,
          "duration_ticks": 3860,
          "channel": 10
        },
        {
          "note": 50,
          "start": 195.655889,
          "duration": 2.552908,
          "velocity": 0.425197,
          "start_tick": 295832,
          "duration_ticks": 3860,
          "channel": 10
        },
        {
          "note": 55,
          "start": 195.655889,
          "duration": 2.552908,
          "velocity": 0.425197,
          "start_tick": 295832,
          "duration_ticks": 3860,
          "channel": 10
        },
        {
          "note": 41,
          "start": 198.208797,
          "duration": 2.553569,
          "velocity": 0.425197,
          "start_tick": 299692,
          "duration_ticks": 3861,
          "channel": 10
        },
        {
          "note": 44,
          "start": 198.208797,
          "duration": 2.553569,
          "velocity": 0.425197,
          "start_tick": 299692,
          "duration_ticks": 3861,
          "channel": 10
        },
        {
          "note": 48,
          "start": 198.208797,
          "duration": 2.553569,
          "velocity": 0.425197,
          "start_tick": 299692,
          "duration_ticks": 3861,
          "channel": 10
        },
        {
          "note": 53,
          "start": 198.208797,
          "duration": 2.553569,
          "velocity": 0.425197,
          "start_tick": 299692,
          "duration_ticks": 3861,
          "channel": 10
        },
        {
          "note": 32,
          "start": 200.762365,
          "duration": 2.552908,
          "velocity": 0.425197,
          "start_tick": 303553,
          "duration_ticks": 3860,
          "channel": 10
        },
        {
          "note": 48,
          "start": 200.762365,
          "duration": 2.552908,
          "velocity": 0.425197,
          "start_tick": 303553,
          "duration_ticks": 3860,
          "channel": 10
        },
        {
          "note": 51,
          "start": 200.762365,
          "duration": 2.552908,
          "velocity": 0.425197,
          "start_tick": 303553,
          "duration_ticks": 3860,
          "channel": 10
        },
        {
          "note": 56,
          "start": 200.762365,
          "duration": 2.552908,
          "velocity": 0.425197,
          "start_tick": 303553,
          "duration_ticks": 3860,
          "channel": 10
        },
        {
          "note": 39,
          "start": 203.315273,
          "duration": 2.541664,
          "velocity": 0.425197,
          "start_tick": 307413,
          "duration_ticks": 3843,
          "channel": 10
        },
        {
          "note": 46,
          "start": 203.315273,
          "duration": 2.541664,
          "velocity": 0.425197,
          "start_tick": 307413,
          "duration_ticks": 3843,
          "channel": 10
        },
        {
          "note": 51,
          "start": 203.315273,
          "duration": 2.541664,
          "velocity": 0.425197,
          "start_tick": 307413,
          "duration_ticks": 3843,
          "channel": 10
        },
        {
          "note": 55,
          "start": 203.315273,
          "duration": 2.541664,
          "velocity": 0.425197,
          "start_tick": 307413,
          "duration_ticks": 3843,
          "channel": 10
        },
        {
          "note": 35,
          "start": 205.856937,
          "duration": 2.511902,
          "velocity": 0.425197,
          "start_tick": 311256,
          "duration_ticks": 3798,
          "channel": 10
        },
        {
          "note": 47,
          "start": 205.856937,
          "duration": 2.511902,
          "velocity": 0.425197,
          "start_tick": 311256,
          "duration_ticks": 3798,
          "channel": 10
        },
        {
          "note": 50,
          "start": 205.856937,
          "duration": 2.511902,
          "velocity": 0.425197,
          "start_tick": 311256,
          "duration_ticks": 3798,
          "channel": 10
        },
        {
          "note": 55,
          "start": 205.856937,
          "duration": 2.511902,
          "velocity": 0.425197,
          "start_tick": 311256,
          "duration_ticks": 3798,
          "channel": 10
        },
        {
          "note": 29,
          "start": 208.368839,
          "duration": 1.884257,
          "velocity": 0.425197,
          "start_tick": 315054,
          "duration_ticks": 2849,
          "channel": 10
        },
        {
          "note": 48,
          "start": 208.368839,
          "duration": 1.884257,
          "velocity": 0.425197,
          "start_tick": 315054,
          "duration_ticks": 2849,
          "channel": 10
        },
        {
          "note": 53,
          "start": 208.368839,
          "duration": 1.884257,
          "velocity": 0.425197,
          "start_tick": 315054,
          "duration_ticks": 2849,
          "channel": 10
        },
        {
          "note": 56,
          "start": 208.368839,
          "duration": 1.884257,
          "velocity": 0.425197,
          "start_tick": 315054,
          "duration_ticks": 2849,
          "channel": 10
        },
        {
          "note": 48,
          "start": 210.880741,
          "duration": 2.512564,
          "velocity": 0.425197,
          "start_tick": 318852,
          "duration_ticks": 3799,
          "channel": 10
        },
        {
          "note": 51,
          "start": 210.880741,
          "duration": 2.512564,
          "velocity": 0.425197,
          "start_tick": 318852,
          "duration_ticks": 3799,
          "channel": 10
        },
        {
          "note": 55,
          "start": 210.880741,
          "duration": 2.512564,
          "velocity": 0.425197,
          "start_tick": 318852,
          "duration_ticks": 3799,
          "channel": 10
        },
        {
          "note": 46,
          "start": 213.393305,
          "duration": 2.511902,
          "velocity": 0.425197,
          "start_tick": 322651,
          "duration_ticks": 3798,
          "channel": 10
        },
        {
          "note": 51,
          "start": 213.393305,
          "duration": 2.511902,
          "velocity": 0.425197,
          "start_tick": 322651,
          "duration_ticks": 3798,
          "channel": 10
        },
        {
          "note": 55,
          "start": 213.393305,
          "duration": 2.511902,
          "velocity": 0.425197,
          "start_tick": 322651,
          "duration_ticks": 3798,
          "channel": 10
        },
        {
          "note": 43,
          "start": 215.905207,
          "duration": 2.511902,
          "velocity": 0.425197,
          "start_tick": 326449,
          "duration_ticks": 3798,
          "channel": 10
        },
        {
          "note": 47,
          "start": 215.905207,
          "duration": 2.511902,
          "velocity": 0.425197,
          "start_tick": 326449,
          "duration_ticks": 3798,
          "channel": 10
        },
        {
          "note": 50,
          "start": 215.905207,
          "duration": 2.511902,
          "velocity": 0.425197,
          "start_tick": 326449,
          "duration_ticks": 3798,
          "channel": 10
        },
        {
          "note": 55,
          "start": 215.905207,
          "duration": 2.511902,
          "velocity": 0.425197,
          "start_tick": 326449,
          "duration_ticks": 3798,
          "channel": 10
        },
        {
          "note": 41,
          "start": 218.41711,
          "duration": 2.511902,
          "velocity": 0.425197,
          "start_tick": 330247,
          "duration_ticks": 3798,
          "channel": 10
        },
        {
          "note": 44,
          "start": 218.41711,
          "duration": 2.511902,
          "velocity": 0.425197,
          "start_tick": 330247,
          "duration_ticks": 3798,
          "channel": 10
        },
        {
          "note": 48,
          "start": 218.41711,
          "duration": 2.511902,
          "velocity": 0.425197,
          "start_tick": 330247,
          "duration_ticks": 3798,
          "channel": 10
        },
        {
          "note": 53,
          "start": 218.41711,
          "duration": 2.511902,
          "velocity": 0.425197,
          "start_tick": 330247,
          "duration_ticks": 3798,
          "channel": 10
        },
        {
          "note": 32,
          "start": 220.929012,
          "duration": 2.511902,
          "velocity": 0.425197,
          "start_tick": 334045,
          "duration_ticks": 3798,
          "channel": 10
        },
        {
          "note": 48,
          "start": 220.929012,
          "duration": 2.511902,
          "velocity": 0.425197,
          "start_tick": 334045,
          "duration_ticks": 3798,
          "channel": 10
        },
        {
          "note": 51,
          "start": 220.929012,
          "duration": 2.511902,
          "velocity": 0.425197,
          "start_tick": 334045,
          "duration_ticks": 3798,
          "channel": 10
        },
        {
          "note": 56,
          "start": 220.929012,
          "duration": 2.511902,
          "velocity": 0.425197,
          "start_tick": 334045,
          "duration_ticks": 3798,
          "channel": 10
        },
        {
          "note": 39,
          "start": 223.440914,
          "duration": 2.52513,
          "velocity": 0.425197,
          "start_tick": 337843,
          "duration_ticks": 3818,
          "channel": 10
        },
        {
          "note": 46,
          "start": 223.440914,
          "duration": 2.52513,
          "velocity": 0.425197,
          "start_tick": 337843,
          "duration_ticks": 3818,
          "channel": 10
        },
        {
          "note": 51,
          "start": 223.440914,
          "duration": 2.52513,
          "velocity": 0.425197,
          "start_tick": 337843,
          "duration_ticks": 3818,
          "channel": 10
        },
        {
          "note": 55,
          "start": 223.440914,
          "duration": 2.52513,
          "velocity": 0.425197,
          "start_tick": 337843,
          "duration_ticks": 3818,
          "channel": 10
        },
        {
          "note": 35,
          "start": 225.966044,
          "duration": 2.54431,
          "velocity": 0.425197,
          "start_tick": 341661,
          "duration_ticks": 3847,
          "channel": 10
        },
        {
          "note": 47,
          "start": 225.966044,
          "duration": 2.54431,
          "velocity": 0.425197,
          "start_tick": 341661,
          "duration_ticks": 3847,
          "channel": 10
        },
        {
          "note": 50,
          "start": 225.966044,
          "duration": 2.54431,
          "velocity": 0.425197,
          "start_tick": 341661,
          "duration_ticks": 3847,
          "channel": 10
        },
        {
          "note": 55,
          "start": 225.966044,
          "duration": 2.54431,
          "velocity": 0.425197,
          "start_tick": 341661,
          "duration_ticks": 3847,
          "channel": 10
        },
        {
          "note": 29,
          "start": 228.510354,
          "duration": 2.54431,
          "velocity": 0.425197,
          "start_tick": 345508,
          "duration_ticks": 3847,
          "channel": 10
        },
        {
          "note": 48,
          "start": 228.510354,
          "duration": 2.54431,
          "velocity": 0.425197,
          "start_tick": 345508,
          "duration_ticks": 3847,
          "channel": 10
        },
        {
          "note": 53,
          "start": 228.510354,
          "duration": 2.54431,
          "velocity": 0.425197,
          "start_tick": 345508,
          "duration_ticks": 3847,
          "channel": 10
        },
        {
          "note": 56,
          "start": 228.510354,
          "duration": 2.54431,
          "velocity": 0.425197,
          "start_tick": 345508,
          "duration_ticks": 3847,
          "channel": 10
        },
        {
          "note": 48,
          "start": 231.054663,
          "duration": 2.54431,
          "velocity": 0.425197,
          "start_tick": 349355,
          "duration_ticks": 3847,
          "channel": 10
        },
        {
          "note": 51,
          "start": 231.054663,
          "duration": 2.54431,
          "velocity": 0.425197,
          "start_tick": 349355,
          "duration_ticks": 3847,
          "channel": 10
        },
        {
          "note": 55,
          "start": 231.054663,
          "duration": 2.54431,
          "velocity": 0.425197,
          "start_tick": 349355,
          "duration_ticks": 3847,
          "channel": 10
        },
        {
          "note": 46,
          "start": 233.598973,
          "duration": 2.54431,
          "velocity": 0.425197,
          "start_tick": 353202,
          "duration_ticks": 3847,
          "channel": 10
        },
        {
          "note": 51,
          "start": 233.598973,
          "duration": 2.54431,
          "velocity": 0.425197,
          "start_tick": 353202,
          "duration_ticks": 3847,
          "channel": 10
        },
        {
          "note": 55,
          "start": 233.598973,
          "duration": 2.54431,
          "velocity": 0.425197,
          "start_tick": 353202,
          "duration_ticks": 3847,
          "channel": 10
        },
        {
          "note": 43,
          "start": 236.143282,
          "duration": 2.54431,
          "velocity": 0.425197,
          "start_tick": 357049,
          "duration_ticks": 3847,
          "channel": 10
        },
        {
          "note": 47,
          "start": 236.143282,
          "duration": 2.54431,
          "velocity": 0.425197,
          "start_tick": 357049,
          "duration_ticks": 3847,
          "channel": 10
        },
        {
          "note": 50,
          "start": 236.143282,
          "duration": 2.54431,
          "velocity": 0.425197,
          "start_tick": 357049,
          "duration_ticks": 3847,
          "channel": 10
        },
        {
          "note": 55,
          "start": 236.143282,
          "duration": 2.54431,
          "velocity": 0.425197,
          "start_tick": 357049,
          "duration_ticks": 3847,
          "channel": 10
        },
        {
          "note": 41,
          "start": 238.687592,
          "duration": 2.54431,
          "velocity": 0.425197,
          "start_tick": 360896,
          "duration_ticks": 3847,
          "channel": 10
        },
        {
          "note": 44,
          "start": 238.687592,
          "duration": 2.54431,
          "velocity": 0.425197,
          "start_tick": 360896,
          "duration_ticks": 3847,
          "channel": 10
        },
        {
          "note": 48,
          "start": 238.687592,
          "duration": 2.54431,
          "velocity": 0.425197,
          "start_tick": 360896,
          "duration_ticks": 3847,
          "channel": 10
        },
        {
          "note": 53,
          "start": 238.687592,
          "duration": 2.54431,
          "velocity": 0.425197,
          "start_tick": 360896,
          "duration_ticks": 3847,
          "channel": 10
        },
        {
          "note": 32,
          "start": 241.231902,
          "duration": 2.54431,
          "velocity": 0.425197,
          "start_tick": 364743,
          "duration_ticks": 3847,
          "channel": 10
        },
        {
          "note": 48,
          "start": 241.231902,
          "duration": 2.54431,
          "velocity": 0.425197,
          "start_tick": 364743,
          "duration_ticks": 3847,
          "channel": 10
        },
        {
          "note": 51,
          "start": 241.231902,
          "duration": 2.54431,
          "velocity": 0.425197,
          "start_tick": 364743,
          "duration_ticks": 3847,
          "channel": 10
        },
        {
          "note": 56,
          "start": 241.231902,
          "duration": 2.54431,
          "velocity": 0.425197,
          "start_tick": 364743,
          "duration_ticks": 3847,
          "channel": 10
        },
        {
          "note": 39,
          "start": 243.776211,
          "duration": 2.540341,
          "velocity": 0.425197,
          "start_tick": 368590,
          "duration_ticks": 3841,
          "channel": 10
        },
        {
          "note": 46,
          "start": 243.776211,
          "duration": 2.540341,
          "velocity": 0.425197,
          "start_tick": 368590,
          "duration_ticks": 3841,
          "channel": 10
        },
        {
          "note": 51,
          "start": 243.776211,
          "duration": 2.540341,
          "velocity": 0.425197,
          "start_tick": 368590,
          "duration_ticks": 3841,
          "channel": 10
        },
        {
          "note": 55,
          "start": 243.776211,
          "duration": 2.540341,
          "velocity": 0.425197,
          "start_tick": 368590,
          "duration_ticks": 3841,
          "channel": 10
        },
        {
          "note": 35,
          "start": 246.316553,
          "duration": 2.537034,
          "velocity": 0.425197,
          "start_tick": 372431,
          "duration_ticks": 3836,
          "channel": 10
        },
        {
          "note": 47,
          "start": 246.316553,
          "duration": 2.537034,
          "velocity": 0.425197,
          "start_tick": 372431,
          "duration_ticks": 3836,
          "channel": 10
        },
        {
          "note": 50,
          "start": 246.316553,
          "duration": 2.537034,
          "velocity": 0.425197,
          "start_tick": 372431,
          "duration_ticks": 3836,
          "channel": 10
        },
        {
          "note": 55,
          "start": 246.316553,
          "duration": 2.537034,
          "velocity": 0.425197,
          "start_tick": 372431,
          "duration_ticks": 3836,
          "channel": 10
        },
        {
          "note": 29,
          "start": 248.853587,
          "duration": 2.536373,
          "velocity": 0.425197,
          "start_tick": 376267,
          "duration_ticks": 3835,
          "channel": 10
        },
        {
          "note": 48,
          "start": 248.853587,
          "duration": 2.536373,
          "velocity": 0.425197,
          "start_tick": 376267,
          "duration_ticks": 3835,
          "channel": 10
        },
        {
          "note": 53,
          "start": 248.853587,
          "duration": 2.536373,
          "velocity": 0.425197,
          "start_tick": 376267,
          "duration_ticks": 3835,
          "channel": 10
        },
        {
          "note": 56,
          "start": 248.853587,
          "duration": 2.536373,
          "velocity": 0.425197,
          "start_tick": 376267,
          "duration_ticks": 3835,
          "channel": 10
        },
        {
          "note": 48,
          "start": 251.38996,
          "duration": 2.537035,
          "velocity": 0.425197,
          "start_tick": 380102,
          "duration_ticks": 3836,
          "channel": 10
        },
        {
          "note": 51,
          "start": 251.38996,
          "duration": 2.537035,
          "velocity": 0.425197,
          "start_tick": 380102,
          "duration_ticks": 3836,
          "channel": 10
        },
        {
          "note": 55,
          "start": 251.38996,
          "duration": 2.537035,
          "velocity": 0.425197,
          "start_tick": 380102,
          "duration_ticks": 3836,
          "channel": 10
        },
        {
          "note": 46,
          "start": 253.926995,
          "duration": 2.536373,
          "velocity": 0.425197,
          "start_tick": 383938,
          "duration_ticks": 3835,
          "channel": 10
        },
        {
          "note": 51,
          "start": 253.926995,
          "duration": 2.536373,
          "velocity": 0.425197,
          "start_tick": 383938,
          "duration_ticks": 3835,
          "channel": 10
        },
        {
          "note": 55,
          "start": 253.926995,
          "duration": 2.536373,
          "velocity": 0.425197,
          "start_tick": 383938,
          "duration_ticks": 3835,
          "channel": 10
        },
        {
          "note": 43,
          "start": 256.463368,
          "duration": 2.537035,
          "velocity": 0.425197,
          "start_tick": 387773,
          "duration_ticks": 3836,
          "channel": 10
        },
        {
          "note": 47,
          "start": 256.463368,
          "duration": 2.537035,
          "velocity": 0.425197,
          "start_tick": 387773,
          "duration_ticks": 3836,
          "channel": 10
        },
        {
          "note": 50,
          "start": 256.463368,
          "duration": 2.537035,
          "velocity": 0.425197,
          "start_tick": 387773,
          "duration_ticks": 3836,
          "channel": 10
        },
        {
          "note": 55,
          "start": 256.463368,
          "duration": 2.537035,
          "velocity": 0.425197,
          "start_tick": 387773,
          "duration_ticks": 3836,
          "channel": 10
        },
        {
          "note": 41,
          "start": 259.000402,
          "duration": 2.536373,
          "velocity": 0.425197,
          "start_tick": 391609,
          "duration_ticks": 3835,
          "channel": 10
        },
        {
          "note": 44,
          "start": 259.000402,
          "duration": 2.536373,
          "velocity": 0.425197,
          "start_tick": 391609,
          "duration_ticks": 3835,
          "channel": 10
        },
        {
          "note": 48,
          "start": 259.000402,
          "duration": 2.536373,
          "velocity": 0.425197,
          "start_tick": 391609,
          "duration_ticks": 3835,
          "channel": 10
        },
        {
          "note": 53,
          "start": 259.000402,
          "duration": 2.536373,
          "velocity": 0.425197,
          "start_tick": 391609,
          "duration_ticks": 3835,
          "channel": 10
        },
        {
          "note": 32,
          "start": 261.536775,
          "duration": 2.537035,
          "velocity": 0.425197,
          "start_tick": 395444,
          "duration_ticks": 3836,
          "channel": 10
        },
        {
          "note": 48,
          "start": 261.536775,
          "duration": 2.537035,
          "velocity": 0.425197,
          "start_tick": 395444,
          "duration_ticks": 3836,
          "channel": 10
        },
        {
          "note": 51,
          "start": 261.536775,
          "duration": 2.537035,
          "velocity": 0.425197,
          "start_tick": 395444,
          "duration_ticks": 3836,
          "channel": 10
        },
        {
          "note": 56,
          "start": 261.536775,
          "duration": 2.537035,
          "velocity": 0.425197,
          "start_tick": 395444,
          "duration_ticks": 3836,
          "channel": 10
        },
        {
          "note": 39,
          "start": 264.07381,
          "duration": 2.538357,
          "velocity": 0.425197,
          "start_tick": 399280,
          "duration_ticks": 3838,
          "channel": 10
        },
        {
          "note": 46,
          "start": 264.07381,
          "duration": 2.538357,
          "velocity": 0.425197,
          "start_tick": 399280,
          "duration_ticks": 3838,
          "channel": 10
        },
        {
          "note": 51,
          "start": 264.07381,
          "duration": 2.538357,
          "velocity": 0.425197,
          "start_tick": 399280,
          "duration_ticks": 3838,
          "channel": 10
        },
        {
          "note": 55,
          "start": 264.07381,
          "duration": 2.538357,
          "velocity": 0.425197,
          "start_tick": 399280,
          "duration_ticks": 3838,
          "channel": 10
        },
        {
          "note": 35,
          "start": 266.612167,
          "duration": 2.53968,
          "velocity": 0.425197,
          "start_tick": 403118,
          "duration_ticks": 3840,
          "channel": 10
        },
        {
          "note": 47,
          "start": 266.612167,
          "duration": 2.53968,
          "velocity": 0.425197,
          "start_tick": 403118,
          "duration_ticks": 3840,
          "channel": 10
        },
        {
          "note": 50,
          "start": 266.612167,
          "duration": 2.53968,
          "velocity": 0.425197,
          "start_tick": 403118,
          "duration_ticks": 3840,
          "channel": 10
        },
        {
          "note": 55,
          "start": 266.612167,
          "duration": 2.53968,
          "velocity": 0.425197,
          "start_tick": 403118,
          "duration_ticks": 3840,
          "channel": 10
        },
        {
          "note": 29,
          "start": 269.151847,
          "duration": 2.53968,
          "velocity": 0.425197,
          "start_tick": 406958,
          "duration_ticks": 3840,
          "channel": 10
        },
        {
          "note": 48,
          "start": 269.151847,
          "duration": 2.53968,
          "velocity": 0.425197,
          "start_tick": 406958,
          "duration_ticks": 3840,
          "channel": 10
        },
        {
          "note": 53,
          "start": 269.151847,
          "duration": 2.53968,
          "velocity": 0.425197,
          "start_tick": 406958,
          "duration_ticks": 3840,
          "channel": 10
        },
        {
          "note": 56,
          "start": 269.151847,
          "duration": 2.53968,
          "velocity": 0.425197,
          "start_tick": 406958,
          "duration_ticks": 3840,
          "channel": 10
        },
        {
          "note": 48,
          "start": 271.691527,
          "duration": 2.53968,
          "velocity": 0.425197,
          "start_tick": 410798,
          "duration_ticks": 3840,
          "channel": 10
        },
        {
          "note": 51,
          "start": 271.691527,
          "duration": 2.53968,
          "velocity": 0.425197,
          "start_tick": 410798,
          "duration_ticks": 3840,
          "channel": 10
        },
        {
          "note": 55,
          "start": 271.691527,
          "duration": 2.53968,
          "velocity": 0.425197,
          "start_tick": 410798,
          "duration_ticks": 3840,
          "channel": 10
        },
        {
          "note": 46,
          "start": 274.231207,
          "duration": 2.53968,
          "velocity": 0.425197,
          "start_tick": 414638,
          "duration_ticks": 3840,
          "channel": 10
        },
        {
          "note": 51,
          "start": 274.231207,
          "duration": 2.53968,
          "velocity": 0.425197,
          "start_tick": 414638,
          "duration_ticks": 3840,
          "channel": 10
        },
        {
          "note": 55,
          "start": 274.231207,
          "duration": 2.53968,
          "velocity": 0.425197,
          "start_tick": 414638,
          "duration_ticks": 3840,
          "channel": 10
        },
        {
          "note": 43,
          "start": 276.770887,
          "duration": 2.53968,
          "velocity": 0.425197,
          "start_tick": 418478,
          "duration_ticks": 3840,
          "channel": 10
        },
        {
          "note": 47,
          "start": 276.770887,
          "duration": 2.53968,
          "velocity": 0.425197,
          "start_tick": 418478,
          "duration_ticks": 3840,
          "channel": 10
        },
        {
          "note": 50,
          "start": 276.770887,
          "duration": 2.53968,
          "velocity": 0.425197,
          "start_tick": 418478,
          "duration_ticks": 3840,
          "channel": 10
        },
        {
          "note": 55,
          "start": 276.770887,
          "duration": 2.53968,
          "velocity": 0.425197,
          "start_tick": 418478,
          "duration_ticks": 3840,
          "channel": 10
        },
        {
          "note": 41,
          "start": 279.310567,
          "duration": 2.53968,
          "velocity": 0.425197,
          "start_tick": 422318,
          "duration_ticks": 3840,
          "channel": 10
        },
        {
          "note": 44,
          "start": 279.310567,
          "duration": 2.53968,
          "velocity": 0.425197,
          "start_tick": 422318,
          "duration_ticks": 3840,
          "channel": 10
        },
        {
          "note": 48,
          "start": 279.310567,
          "duration": 2.53968,
          "velocity": 0.425197,
          "start_tick": 422318,
          "duration_ticks": 3840,
          "channel": 10
        },
        {
          "note": 53,
          "start": 279.310567,
          "duration": 2.53968,
          "velocity": 0.425197,
          "start_tick": 422318,
          "duration_ticks": 3840,
          "channel": 10
        },
        {
          "note": 32,
          "start": 281.850247,
          "duration": 2.53968,
          "velocity": 0.425197,
          "start_tick": 426158,
          "duration_ticks": 3840,
          "channel": 10
        },
        {
          "note": 48,
          "start": 281.850247,
          "duration": 2.53968,
          "velocity": 0.425197,
          "start_tick": 426158,
          "duration_ticks": 3840,
          "channel": 10
        },
        {
          "note": 51,
          "start": 281.850247,
          "duration": 2.53968,
          "velocity": 0.425197,
          "start_tick": 426158,
          "duration_ticks": 3840,
          "channel": 10
        },
        {
          "note": 56,
          "start": 281.850247,
          "duration": 2.53968,
          "velocity": 0.425197,
          "start_tick": 426158,
          "duration_ticks": 3840,
          "channel": 10
        },
        {
          "note": 39,
          "start": 284.389927,
          "duration": 2.53968,
          "velocity": 0.425197,
          "start_tick": 429998,
          "duration_ticks": 3840,
          "channel": 10
        },
        {
          "note": 46,
          "start": 284.389927,
          "duration": 2.53968,
          "velocity": 0.425197,
          "start_tick": 429998,
          "duration_ticks": 3840,
          "channel": 10
        },
        {
          "note": 51,
          "start": 284.389927,
          "duration": 2.53968,
          "velocity": 0.425197,
          "start_tick": 429998,
          "duration_ticks": 3840,
          "channel": 10
        },
        {
          "note": 55,
          "start": 284.389927,
          "duration": 2.53968,
          "velocity": 0.425197,
          "start_tick": 429998,
          "duration_ticks": 3840,
          "channel": 10
        },
        {
          "note": 35,
          "start": 286.929607,
          "duration": 2.53968,
          "velocity": 0.425197,
          "start_tick": 433838,
          "duration_ticks": 3840,
          "channel": 10
        },
        {
          "note": 47,
          "start": 286.929607,
          "duration": 2.53968,
          "velocity": 0.425197,
          "start_tick": 433838,
          "duration_ticks": 3840,
          "channel": 10
        },
        {
          "note": 50,
          "start": 286.929607,
          "duration": 2.53968,
          "velocity": 0.425197,
          "start_tick": 433838,
          "duration_ticks": 3840,
          "channel": 10
        },
        {
          "note": 55,
          "start": 286.929607,
          "duration": 2.53968,
          "velocity": 0.425197,
          "start_tick": 433838,
          "duration_ticks": 3840,
          "channel": 10
        },
        {
          "note": 29,
          "start": 289.469287,
          "duration": 2.53968,
          "velocity": 0.425197,
          "start_tick": 437678,
          "duration_ticks": 3840,
          "channel": 10
        },
        {
          "note": 48,
          "start": 289.469287,
          "duration": 2.53968,
          "velocity": 0.425197,
          "start_tick": 437678,
          "duration_ticks": 3840,
          "channel": 10
        },
        {
          "note": 53,
          "start": 289.469287,
          "duration": 2.53968,
          "velocity": 0.425197,
          "start_tick": 437678,
          "duration_ticks": 3840,
          "channel": 10
        },
        {
          "note": 56,
          "start": 289.469287,
          "duration": 2.53968,
          "velocity": 0.425197,
          "start_tick": 437678,
          "duration_ticks": 3840,
          "channel": 10
        },
        {
          "note": 48,
          "start": 292.008967,
          "duration": 2.53968,
          "velocity": 0.425197,
          "start_tick": 441518,
          "duration_ticks": 3840,
          "channel": 10
        },
        {
          "note": 51,
          "start": 292.008967,
          "duration": 2.53968,
          "velocity": 0.425197,
          "start_tick": 441518,
          "duration_ticks": 3840,
          "channel": 10
        },
        {
          "note": 55,
          "start": 292.008967,
          "duration": 2.53968,
          "velocity": 0.425197,
          "start_tick": 441518,
          "duration_ticks": 3840,
          "channel": 10
        },
        {
          "note": 46,
          "start": 294.548647,
          "duration": 2.53968,
          "velocity": 0.425197,
          "start_tick": 445358,
          "duration_ticks": 3840,
          "channel": 10
        },
        {
          "note": 51,
          "start": 294.548647,
          "duration": 2.53968,
          "velocity": 0.425197,
          "start_tick": 445358,
          "duration_ticks": 3840,
          "channel": 10
        },
        {
          "note": 55,
          "start": 294.548647,
          "duration": 2.53968,
          "velocity": 0.425197,
          "start_tick": 445358,
          "duration_ticks": 3840,
          "channel": 10
        },
        {
          "note": 43,
          "start": 297.088327,
          "duration": 2.53968,
          "velocity": 0.425197,
          "start_tick": 449198,
          "duration_ticks": 3840,
          "channel": 10
        },
        {
          "note": 47,
          "start": 297.088327,
          "duration": 2.53968,
          "velocity": 0.425197,
          "start_tick": 449198,
          "duration_ticks": 3840,
          "channel": 10
        },
        {
          "note": 50,
          "start": 297.088327,
          "duration": 2.53968,
          "velocity": 0.425197,
          "start_tick": 449198,
          "duration_ticks": 3840,
          "channel": 10
        },
        {
          "note": 55,
          "start": 297.088327,
          "duration": 2.53968,
          "velocity": 0.425197,
          "start_tick": 449198,
          "duration_ticks": 3840,
          "channel": 10
        },
        {
          "note": 41,
          "start": 299.628007,
          "duration": 2.53968,
          "velocity": 0.425197,
          "start_tick": 453038,
          "duration_ticks": 3840,
          "channel": 10
        },
        {
          "note": 44,
          "start": 299.628007,
          "duration": 2.53968,
          "velocity": 0.425197,
          "start_tick": 453038,
          "duration_ticks": 3840,
          "channel": 10
        },
        {
          "note": 48,
          "start": 299.628007,
          "duration": 2.53968,
          "velocity": 0.425197,
          "start_tick": 453038,
          "duration_ticks": 3840,
          "channel": 10
        },
        {
          "note": 53,
          "start": 299.628007,
          "duration": 2.53968,
          "velocity": 0.425197,
          "start_tick": 453038,
          "duration_ticks": 3840,
          "channel": 10
        },
        {
          "note": 32,
          "start": 302.167687,
          "duration": 2.53968,
          "velocity": 0.425197,
          "start_tick": 456878,
          "duration_ticks": 3840,
          "channel": 10
        },
        {
          "note": 48,
          "start": 302.167687,
          "duration": 2.53968,
          "velocity": 0.425197,
          "start_tick": 456878,
          "duration_ticks": 3840,
          "channel": 10
        },
        {
          "note": 51,
          "start": 302.167687,
          "duration": 2.53968,
          "velocity": 0.425197,
          "start_tick": 456878,
          "duration_ticks": 3840,
          "channel": 10
        },
        {
          "note": 56,
          "start": 302.167687,
          "duration": 2.53968,
          "velocity": 0.425197,
          "start_tick": 456878,
          "duration_ticks": 3840,
          "channel": 10
        },
        {
          "note": 39,
          "start": 304.707367,
          "duration": 2.53968,
          "velocity": 0.425197,
          "start_tick": 460718,
          "duration_ticks": 3840,
          "channel": 10
        },
        {
          "note": 46,
          "start": 304.707367,
          "duration": 2.53968,
          "velocity": 0.425197,
          "start_tick": 460718,
          "duration_ticks": 3840,
          "channel": 10
        },
        {
          "note": 51,
          "start": 304.707367,
          "duration": 2.53968,
          "velocity": 0.425197,
          "start_tick": 460718,
          "duration_ticks": 3840,
          "channel": 10
        },
        {
          "note": 55,
          "start": 304.707367,
          "duration": 2.53968,
          "velocity": 0.425197,
          "start_tick": 460718,
          "duration_ticks": 3840,
          "channel": 10
        },
        {
          "note": 35,
          "start": 307.247047,
          "duration": 2.53968,
          "velocity": 0.425197,
          "start_tick": 464558,
          "duration_ticks": 3840,
          "channel": 10
        },
        {
          "note": 47,
          "start": 307.247047,
          "duration": 2.53968,
          "velocity": 0.425197,
          "start_tick": 464558,
          "duration_ticks": 3840,
          "channel": 10
        },
        {
          "note": 50,
          "start": 307.247047,
          "duration": 2.53968,
          "velocity": 0.425197,
          "start_tick": 464558,
          "duration_ticks": 3840,
          "channel": 10
        },
        {
          "note": 55,
          "start": 307.247047,
          "duration": 2.53968,
          "velocity": 0.425197,
          "start_tick": 464558,
          "duration_ticks": 3840,
          "channel": 10
        },
        {
          "note": 29,
          "start": 309.786727,
          "duration": 2.53968,
          "velocity": 0.425197,
          "start_tick": 468398,
          "duration_ticks": 3840,
          "channel": 10
        },
        {
          "note": 48,
          "start": 309.786727,
          "duration": 2.53968,
          "velocity": 0.425197,
          "start_tick": 468398,
          "duration_ticks": 3840,
          "channel": 10
        },
        {
          "note": 53,
          "start": 309.786727,
          "duration": 2.53968,
          "velocity": 0.425197,
          "start_tick": 468398,
          "duration_ticks": 3840,
          "channel": 10
        },
        {
          "note": 56,
          "start": 309.786727,
          "duration": 2.53968,
          "velocity": 0.425197,
          "start_tick": 468398,
          "duration_ticks": 3840,
          "channel": 10
        },
        {
          "note": 48,
          "start": 312.326407,
          "duration": 2.53968,
          "velocity": 0.425197,
          "start_tick": 472238,
          "duration_ticks": 3840,
          "channel": 10
        },
        {
          "note": 51,
          "start": 312.326407,
          "duration": 2.53968,
          "velocity": 0.425197,
          "start_tick": 472238,
          "duration_ticks": 3840,
          "channel": 10
        },
        {
          "note": 55,
          "start": 312.326407,
          "duration": 2.53968,
          "velocity": 0.425197,
          "start_tick": 472238,
          "duration_ticks": 3840,
          "channel": 10
        }
      ]
    },
    {
      "id": "drums",
      "source_track_index": 9,
      "source_name": "Standard Set",
      "role": "drums",
      "channel": 9,
      "gm_program": 0,
      "gm_program_name": "Acoustic Grand Piano",
      "note_count": 2057,
      "pitch_range": [
        36,
        82
      ],
      "time_range": [
        60.809463,
        271.799331
      ],
      "notes": [
        {
          "note": 82,
          "start": 60.809463,
          "duration": 0.039682,
          "velocity": 0.834646,
          "start_tick": 91944,
          "duration_ticks": 60,
          "channel": 9
        },
        {
          "note": 82,
          "start": 60.849145,
          "duration": 0.039682,
          "velocity": 0.787402,
          "start_tick": 92004,
          "duration_ticks": 60,
          "channel": 9
        },
        {
          "note": 82,
          "start": 60.888828,
          "duration": 0.039683,
          "velocity": 0.740157,
          "start_tick": 92064,
          "duration_ticks": 60,
          "channel": 9
        },
        {
          "note": 82,
          "start": 60.928511,
          "duration": 0.039682,
          "velocity": 0.692913,
          "start_tick": 92124,
          "duration_ticks": 60,
          "channel": 9
        },
        {
          "note": 82,
          "start": 60.968193,
          "duration": 0.039682,
          "velocity": 0.645669,
          "start_tick": 92184,
          "duration_ticks": 60,
          "channel": 9
        },
        {
          "note": 82,
          "start": 61.007875,
          "duration": 0.039683,
          "velocity": 0.598425,
          "start_tick": 92244,
          "duration_ticks": 60,
          "channel": 9
        },
        {
          "note": 82,
          "start": 61.047558,
          "duration": 0.039682,
          "velocity": 0.551181,
          "start_tick": 92304,
          "duration_ticks": 60,
          "channel": 9
        },
        {
          "note": 82,
          "start": 61.087241,
          "duration": 0.039682,
          "velocity": 0.503937,
          "start_tick": 92364,
          "duration_ticks": 60,
          "channel": 9
        },
        {
          "note": 80,
          "start": 61.126923,
          "duration": 0.039683,
          "velocity": 0.629921,
          "start_tick": 92424,
          "duration_ticks": 60,
          "channel": 9
        },
        {
          "note": 82,
          "start": 61.126923,
          "duration": 0.039683,
          "velocity": 0.456693,
          "start_tick": 92424,
          "duration_ticks": 60,
          "channel": 9
        },
        {
          "note": 82,
          "start": 61.166606,
          "duration": 0.039682,
          "velocity": 0.409449,
          "start_tick": 92484,
          "duration_ticks": 60,
          "channel": 9
        },
        {
          "note": 82,
          "start": 61.206288,
          "duration": 0.039682,
          "velocity": 0.362205,
          "start_tick": 92544,
          "duration_ticks": 60,
          "channel": 9
        },
        {
          "note": 82,
          "start": 61.24597,
          "duration": 0.039683,
          "velocity": 0.314961,
          "start_tick": 92604,
          "duration_ticks": 60,
          "channel": 9
        },
        {
          "note": 80,
          "start": 61.285653,
          "duration": 0.039682,
          "velocity": 0.629921,
          "start_tick": 92664,
          "duration_ticks": 60,
          "channel": 9
        },
        {
          "note": 70,
          "start": 61.444383,
          "duration": 0.039021,
          "velocity": 0.811024,
          "start_tick": 92904,
          "duration_ticks": 59,
          "channel": 9
        },
        {
          "note": 70,
          "start": 61.483404,
          "duration": 0.039682,
          "velocity": 0.755906,
          "start_tick": 92963,
          "duration_ticks": 60,
          "channel": 9
        },
        {
          "note": 70,
          "start": 61.523087,
          "duration": 0.039683,
          "velocity": 0.708661,
          "start_tick": 93023,
          "duration_ticks": 60,
          "channel": 9
        },
        {
          "note": 70,
          "start": 61.562769,
          "duration": 0.039682,
          "velocity": 0.661417,
          "start_tick": 93083,
          "duration_ticks": 60,
          "channel": 9
        },
        {
          "note": 70,
          "start": 61.602452,
          "duration": 0.039682,
          "velocity": 0.606299,
          "start_tick": 93143,
          "duration_ticks": 60,
          "channel": 9
        },
        {
          "note": 70,
          "start": 61.642134,
          "duration": 0.039683,
          "velocity": 0.559055,
          "start_tick": 93203,
          "duration_ticks": 60,
          "channel": 9
        },
        {
          "note": 70,
          "start": 61.681817,
          "duration": 0.039682,
          "velocity": 0.511811,
          "start_tick": 93263,
          "duration_ticks": 60,
          "channel": 9
        },
        {
          "note": 70,
          "start": 61.721499,
          "duration": 0.039682,
          "velocity": 0.456693,
          "start_tick": 93323,
          "duration_ticks": 60,
          "channel": 9
        },
        {
          "note": 80,
          "start": 61.761182,
          "duration": 0.039682,
          "velocity": 0.629921,
          "start_tick": 93383,
          "duration_ticks": 60,
          "channel": 9
        },
        {
          "note": 80,
          "start": 61.919912,
          "duration": 0.039683,
          "velocity": 0.629921,
          "start_tick": 93623,
          "duration_ticks": 60,
          "channel": 9
        },
        {
          "note": 70,
          "start": 62.078642,
          "duration": 0.039682,
          "velocity": 0.629921,
          "start_tick": 93863,
          "duration_ticks": 60,
          "channel": 9
        },
        {
          "note": 82,
          "start": 62.237372,
          "duration": 0.039682,
          "velocity": 0.629921,
          "start_tick": 94103,
          "duration_ticks": 60,
          "channel": 9
        },
        {
          "note": 82,
          "start": 62.396102,
          "duration": 0.039682,
          "velocity": 0.850394,
          "start_tick": 94343,
          "duration_ticks": 60,
          "channel": 9
        },
        {
          "note": 82,
          "start": 62.435784,
          "duration": 0.039683,
          "velocity": 0.755906,
          "start_tick": 94403,
          "duration_ticks": 60,
          "channel": 9
        },
        {
          "note": 82,
          "start": 62.475467,
          "duration": 0.039682,
          "velocity": 0.661417,
          "start_tick": 94463,
          "duration_ticks": 60,
          "channel": 9
        },
        {
          "note": 82,
          "start": 62.515149,
          "duration": 0.039682,
          "velocity": 0.566929,
          "start_tick": 94523,
          "duration_ticks": 60,
          "channel": 9
        },
        {
          "note": 82,
          "start": 62.554832,
          "duration": 0.039683,
          "velocity": 0.472441,
          "start_tick": 94583,
          "duration_ticks": 60,
          "channel": 9
        },
        {
          "note": 82,
          "start": 62.594514,
          "duration": 0.039682,
          "velocity": 0.377953,
          "start_tick": 94643,
          "duration_ticks": 60,
          "channel": 9
        },
        {
          "note": 82,
          "start": 62.634197,
          "duration": 0.039682,
          "velocity": 0.283465,
          "start_tick": 94703,
          "duration_ticks": 60,
          "channel": 9
        },
        {
          "note": 82,
          "start": 62.673879,
          "duration": 0.039021,
          "velocity": 0.188976,
          "start_tick": 94763,
          "duration_ticks": 59,
          "channel": 9
        },
        {
          "note": 80,
          "start": 62.7129,
          "duration": 0.039683,
          "velocity": 0.629921,
          "start_tick": 94822,
          "duration_ticks": 60,
          "channel": 9
        },
        {
          "note": 80,
          "start": 62.87163,
          "duration": 0.039682,
          "velocity": 0.629921,
          "start_tick": 95062,
          "duration_ticks": 60,
          "channel": 9
        },
        {
          "note": 70,
          "start": 63.03036,
          "duration": 0.039682,
          "velocity": 0.629921,
          "start_tick": 95302,
          "duration_ticks": 60,
          "channel": 9
        },
        {
          "note": 70,
          "start": 63.18909,
          "duration": 0.039682,
          "velocity": 0.629921,
          "start_tick": 95542,
          "duration_ticks": 60,
          "channel": 9
        },
        {
          "note": 82,
          "start": 63.34782,
          "duration": 0.039683,
          "velocity": 0.834646,
          "start_tick": 95782,
          "duration_ticks": 60,
          "channel": 9
        },
        {
          "note": 82,
          "start": 63.387503,
          "duration": 0.039682,
          "velocity": 0.787402,
          "start_tick": 95842,
          "duration_ticks": 60,
          "channel": 9
        },
        {
          "note": 82,
          "start": 63.427185,
          "duration": 0.039682,
          "velocity": 0.740157,
          "start_tick": 95902,
          "duration_ticks": 60,
          "channel": 9
        },
        {
          "note": 82,
          "start": 63.466868,
          "duration": 0.039682,
          "velocity": 0.692913,
          "start_tick": 95962,
          "duration_ticks": 60,
          "channel": 9
        },
        {
          "note": 82,
          "start": 63.50655,
          "duration": 0.039683,
          "velocity": 0.645669,
          "start_tick": 96022,
          "duration_ticks": 60,
          "channel": 9
        },
        {
          "note": 82,
          "start": 63.546233,
          "duration": 0.039682,
          "velocity": 0.598425,
          "start_tick": 96082,
          "duration_ticks": 60,
          "channel": 9
        },
        {
          "note": 82,
          "start": 63.585915,
          "duration": 0.039682,
          "velocity": 0.551181,
          "start_tick": 96142,
          "duration_ticks": 60,
          "channel": 9
        },
        {
          "note": 82,
          "start": 63.625598,
          "duration": 0.039683,
          "velocity": 0.503937,
          "start_tick": 96202,
          "duration_ticks": 60,
          "channel": 9
        },
        {
          "note": 80,
          "start": 63.66528,
          "duration": 0.039682,
          "velocity": 0.629921,
          "start_tick": 96262,
          "duration_ticks": 60,
          "channel": 9
        },
        {
          "note": 82,
          "start": 63.66528,
          "duration": 0.039682,
          "velocity": 0.456693,
          "start_tick": 96262,
          "duration_ticks": 60,
          "channel": 9
        },
        {
          "note": 82,
          "start": 63.704963,
          "duration": 0.039682,
          "velocity": 0.409449,
          "start_tick": 96322,
          "duration_ticks": 60,
          "channel": 9
        },
        {
          "note": 82,
          "start": 63.744645,
          "duration": 0.039683,
          "velocity": 0.362205,
          "start_tick": 96382,
          "duration_ticks": 60,
          "channel": 9
        },
        {
          "note": 82,
          "start": 63.784328,
          "duration": 0.039682,
          "velocity": 0.314961,
          "start_tick": 96442,
          "duration_ticks": 60,
          "channel": 9
        },
        {
          "note": 80,
          "start": 63.82401,
          "duration": 0.039682,
          "velocity": 0.629921,
          "start_tick": 96502,
          "duration_ticks": 60,
          "channel": 9
        },
        {
          "note": 70,
          "start": 63.982079,
          "duration": 0.039682,
          "velocity": 0.811024,
          "start_tick": 96741,
          "duration_ticks": 60,
          "channel": 9
        },
        {
          "note": 70,
          "start": 64.021761,
          "duration": 0.039682,
          "velocity": 0.755906,
          "start_tick": 96801,
          "duration_ticks": 60,
          "channel": 9
        },
        {
          "note": 70,
          "start": 64.061444,
          "duration": 0.039683,
          "velocity": 0.708661,
          "start_tick": 96861,
          "duration_ticks": 60,
          "channel": 9
        },
        {
          "note": 70,
          "start": 64.101126,
          "duration": 0.039682,
          "velocity": 0.661417,
          "start_tick": 96921,
          "duration_ticks": 60,
          "channel": 9
        },
        {
          "note": 70,
          "start": 64.140809,
          "duration": 0.039682,
          "velocity": 0.606299,
          "start_tick": 96981,
          "duration_ticks": 60,
          "channel": 9
        },
        {
          "note": 70,
          "start": 64.180491,
          "duration": 0.039682,
          "velocity": 0.559055,
          "start_tick": 97041,
          "duration_ticks": 60,
          "channel": 9
        },
        {
          "note": 70,
          "start": 64.220174,
          "duration": 0.039682,
          "velocity": 0.511811,
          "start_tick": 97101,
          "duration_ticks": 60,
          "channel": 9
        },
        {
          "note": 70,
          "start": 64.259856,
          "duration": 0.039682,
          "velocity": 0.456693,
          "start_tick": 97161,
          "duration_ticks": 60,
          "channel": 9
        },
        {
          "note": 80,
          "start": 64.299539,
          "duration": 0.039682,
          "velocity": 0.629921,
          "start_tick": 97221,
          "duration_ticks": 60,
          "channel": 9
        },
        {
          "note": 80,
          "start": 64.458269,
          "duration": 0.039682,
          "velocity": 0.629921,
          "start_tick": 97461,
          "duration_ticks": 60,
          "channel": 9
        },
        {
          "note": 70,
          "start": 64.616999,
          "duration": 0.039683,
          "velocity": 0.629921,
          "start_tick": 97701,
          "duration_ticks": 60,
          "channel": 9
        },
        {
          "note": 82,
          "start": 64.775729,
          "duration": 0.039682,
          "velocity": 0.629921,
          "start_tick": 97941,
          "duration_ticks": 60,
          "channel": 9
        },
        {
          "note": 82,
          "start": 64.932475,
          "duration": 0.039021,
          "velocity": 0.850394,
          "start_tick": 98178,
          "duration_ticks": 59,
          "channel": 9
        },
        {
          "note": 82,
          "start": 64.971496,
          "duration": 0.039021,
          "velocity": 0.755906,
          "start_tick": 98237,
          "duration_ticks": 59,
          "channel": 9
        },
        {
          "note": 82,
          "start": 65.010517,
          "duration": 0.039021,
          "velocity": 0.661417,
          "start_tick": 98296,
          "duration_ticks": 59,
          "channel": 9
        },
        {
          "note": 82,
          "start": 65.049538,
          "duration": 0.039021,
          "velocity": 0.566929,
          "start_tick": 98355,
          "duration_ticks": 59,
          "channel": 9
        },
        {
          "note": 82,
          "start": 65.088559,
          "duration": 0.039021,
          "velocity": 0.472441,
          "start_tick": 98414,
          "duration_ticks": 59,
          "channel": 9
        },
        {
          "note": 82,
          "start": 65.12758,
          "duration": 0.039021,
          "velocity": 0.377953,
          "start_tick": 98473,
          "duration_ticks": 59,
          "channel": 9
        },
        {
          "note": 82,
          "start": 65.166601,
          "duration": 0.039021,
          "velocity": 0.283465,
          "start_tick": 98532,
          "duration_ticks": 59,
          "channel": 9
        },
        {
          "note": 82,
          "start": 65.205623,
          "duration": 0.03836,
          "velocity": 0.188976,
          "start_tick": 98591,
          "duration_ticks": 58,
          "channel": 9
        },
        {
          "note": 80,
          "start": 65.243982,
          "duration": 0.039021,
          "velocity": 0.629921,
          "start_tick": 98649,
          "duration_ticks": 59,
          "channel": 9
        },
        {
          "note": 80,
          "start": 65.400067,
          "duration": 0.039021,
          "velocity": 0.629921,
          "start_tick": 98885,
          "duration_ticks": 59,
          "channel": 9
        },
        {
          "note": 70,
          "start": 65.556151,
          "duration": 0.03836,
          "velocity": 0.629921,
          "start_tick": 99121,
          "duration_ticks": 58,
          "channel": 9
        },
        {
          "note": 70,
          "start": 65.711574,
          "duration": 0.039021,
          "velocity": 0.629921,
          "start_tick": 99356,
          "duration_ticks": 59,
          "channel": 9
        },
        {
          "note": 82,
          "start": 65.867659,
          "duration": 0.03836,
          "velocity": 0.834646,
          "start_tick": 99592,
          "duration_ticks": 58,
          "channel": 9
        },
        {
          "note": 82,
          "start": 65.906019,
          "duration": 0.039021,
          "velocity": 0.787402,
          "start_tick": 99650,
          "duration_ticks": 59,
          "channel": 9
        },
        {
          "note": 82,
          "start": 65.94504,
          "duration": 0.039021,
          "velocity": 0.740157,
          "start_tick": 99709,
          "duration_ticks": 59,
          "channel": 9
        },
        {
          "note": 82,
          "start": 65.984061,
          "duration": 0.039021,
          "velocity": 0.692913,
          "start_tick": 99768,
          "duration_ticks": 59,
          "channel": 9
        },
        {
          "note": 82,
          "start": 66.023082,
          "duration": 0.039021,
          "velocity": 0.645669,
          "start_tick": 99827,
          "duration_ticks": 59,
          "channel": 9
        },
        {
          "note": 82,
          "start": 66.062103,
          "duration": 0.039021,
          "velocity": 0.598425,
          "start_tick": 99886,
          "duration_ticks": 59,
          "channel": 9
        },
        {
          "note": 82,
          "start": 66.101124,
          "duration": 0.039021,
          "velocity": 0.551181,
          "start_tick": 99945,
          "duration_ticks": 59,
          "channel": 9
        },
        {
          "note": 82,
          "start": 66.140146,
          "duration": 0.039021,
          "velocity": 0.503937,
          "start_tick": 100004,
          "duration_ticks": 59,
          "channel": 9
        },
        {
          "note": 80,
          "start": 66.179167,
          "duration": 0.03836,
          "velocity": 0.629921,
          "start_tick": 100063,
          "duration_ticks": 58,
          "channel": 9
        },
        {
          "note": 82,
          "start": 66.179167,
          "duration": 0.03836,
          "velocity": 0.456693,
          "start_tick": 100063,
          "duration_ticks": 58,
          "channel": 9
        },
        {
          "note": 82,
          "start": 66.217526,
          "duration": 0.039021,
          "velocity": 0.409449,
          "start_tick": 100121,
          "duration_ticks": 59,
          "channel": 9
        },
        {
          "note": 82,
          "start": 66.256547,
          "duration": 0.039021,
          "velocity": 0.362205,
          "start_tick": 100180,
          "duration_ticks": 59,
          "channel": 9
        },
        {
          "note": 82,
          "start": 66.295569,
          "duration": 0.039021,
          "velocity": 0.314961,
          "start_tick": 100239,
          "duration_ticks": 59,
          "channel": 9
        },
        {
          "note": 80,
          "start": 66.33459,
          "duration": 0.039021,
          "velocity": 0.629921,
          "start_tick": 100298,
          "duration_ticks": 59,
          "channel": 9
        },
        {
          "note": 70,
          "start": 66.490674,
          "duration": 0.03836,
          "velocity": 0.811024,
          "start_tick": 100534,
          "duration_ticks": 58,
          "channel": 9
        },
        {
          "note": 70,
          "start": 66.529034,
          "duration": 0.039021,
          "velocity": 0.755906,
          "start_tick": 100592,
          "duration_ticks": 59,
          "channel": 9
        },
        {
          "note": 70,
          "start": 66.568055,
          "duration": 0.039021,
          "velocity": 0.708661,
          "start_tick": 100651,
          "duration_ticks": 59,
          "channel": 9
        },
        {
          "note": 70,
          "start": 66.607076,
          "duration": 0.039021,
          "velocity": 0.661417,
          "start_tick": 100710,
          "duration_ticks": 59,
          "channel": 9
        },
        {
          "note": 70,
          "start": 66.646097,
          "duration": 0.039021,
          "velocity": 0.606299,
          "start_tick": 100769,
          "duration_ticks": 59,
          "channel": 9
        },
        {
          "note": 70,
          "start": 66.685119,
          "duration": 0.039021,
          "velocity": 0.559055,
          "start_tick": 100828,
          "duration_ticks": 59,
          "channel": 9
        },
        {
          "note": 70,
          "start": 66.72414,
          "duration": 0.039021,
          "velocity": 0.511811,
          "start_tick": 100887,
          "duration_ticks": 59,
          "channel": 9
        },
        {
          "note": 70,
          "start": 66.763161,
          "duration": 0.039021,
          "velocity": 0.456693,
          "start_tick": 100946,
          "duration_ticks": 59,
          "channel": 9
        },
        {
          "note": 80,
          "start": 66.802182,
          "duration": 0.03836,
          "velocity": 0.629921,
          "start_tick": 101005,
          "duration_ticks": 58,
          "channel": 9
        },
        {
          "note": 80,
          "start": 66.957605,
          "duration": 0.039021,
          "velocity": 0.629921,
          "start_tick": 101240,
          "duration_ticks": 59,
          "channel": 9
        },
        {
          "note": 70,
          "start": 67.11369,
          "duration": 0.03836,
          "velocity": 0.629921,
          "start_tick": 101476,
          "duration_ticks": 58,
          "channel": 9
        },
        {
          "note": 82,
          "start": 67.269113,
          "duration": 0.039021,
          "velocity": 0.629921,
          "start_tick": 101711,
          "duration_ticks": 59,
          "channel": 9
        },
        {
          "note": 82,
          "start": 67.425197,
          "duration": 0.03836,
          "velocity": 0.850394,
          "start_tick": 101947,
          "duration_ticks": 58,
          "channel": 9
        },
        {
          "note": 82,
          "start": 67.463557,
          "duration": 0.039021,
          "velocity": 0.755906,
          "start_tick": 102005,
          "duration_ticks": 59,
          "channel": 9
        },
        {
          "note": 82,
          "start": 67.502578,
          "duration": 0.039021,
          "velocity": 0.661417,
          "start_tick": 102064,
          "duration_ticks": 59,
          "channel": 9
        },
        {
          "note": 82,
          "start": 67.541599,
          "duration": 0.039021,
          "velocity": 0.566929,
          "start_tick": 102123,
          "duration_ticks": 59,
          "channel": 9
        },
        {
          "note": 82,
          "start": 67.58062,
          "duration": 0.039021,
          "velocity": 0.472441,
          "start_tick": 102182,
          "duration_ticks": 59,
          "channel": 9
        },
        {
          "note": 82,
          "start": 67.619641,
          "duration": 0.039021,
          "velocity": 0.377953,
          "start_tick": 102241,
          "duration_ticks": 59,
          "channel": 9
        },
        {
          "note": 82,
          "start": 67.658663,
          "duration": 0.039021,
          "velocity": 0.283465,
          "start_tick": 102300,
          "duration_ticks": 59,
          "channel": 9
        },
        {
          "note": 82,
          "start": 67.697684,
          "duration": 0.039021,
          "velocity": 0.188976,
          "start_tick": 102359,
          "duration_ticks": 59,
          "channel": 9
        },
        {
          "note": 80,
          "start": 67.736705,
          "duration": 0.03836,
          "velocity": 0.629921,
          "start_tick": 102418,
          "duration_ticks": 58,
          "channel": 9
        },
        {
          "note": 80,
          "start": 67.892128,
          "duration": 0.039021,
          "velocity": 0.629921,
          "start_tick": 102653,
          "duration_ticks": 59,
          "channel": 9
        },
        {
          "note": 70,
          "start": 68.048212,
          "duration": 0.03836,
          "velocity": 0.629921,
          "start_tick": 102889,
          "duration_ticks": 58,
          "channel": 9
        },
        {
          "note": 70,
          "start": 68.203636,
          "duration": 0.039021,
          "velocity": 0.629921,
          "start_tick": 103124,
          "duration_ticks": 59,
          "channel": 9
        },
        {
          "note": 82,
          "start": 68.35972,
          "duration": 0.03836,
          "velocity": 0.834646,
          "start_tick": 103360,
          "duration_ticks": 58,
          "channel": 9
        },
        {
          "note": 82,
          "start": 68.39808,
          "duration": 0.039021,
          "velocity": 0.787402,
          "start_tick": 103418,
          "duration_ticks": 59,
          "channel": 9
        },
        {
          "note": 82,
          "start": 68.437101,
          "duration": 0.039021,
          "velocity": 0.740157,
          "start_tick": 103477,
          "duration_ticks": 59,
          "channel": 9
        },
        {
          "note": 82,
          "start": 68.476122,
          "duration": 0.039021,
          "velocity": 0.692913,
          "start_tick": 103536,
          "duration_ticks": 59,
          "channel": 9
        },
        {
          "note": 82,
          "start": 68.515143,
          "duration": 0.039021,
          "velocity": 0.645669,
          "start_tick": 103595,
          "duration_ticks": 59,
          "channel": 9
        },
        {
          "note": 82,
          "start": 68.554164,
          "duration": 0.039021,
          "velocity": 0.598425,
          "start_tick": 103654,
          "duration_ticks": 59,
          "channel": 9
        },
        {
          "note": 82,
          "start": 68.593185,
          "duration": 0.039021,
          "velocity": 0.551181,
          "start_tick": 103713,
          "duration_ticks": 59,
          "channel": 9
        },
        {
          "note": 82,
          "start": 68.632206,
          "duration": 0.039021,
          "velocity": 0.503937,
          "start_tick": 103772,
          "duration_ticks": 59,
          "channel": 9
        },
        {
          "note": 80,
          "start": 68.671228,
          "duration": 0.03836,
          "velocity": 0.629921,
          "start_tick": 103831,
          "duration_ticks": 58,
          "channel": 9
        },
        {
          "note": 82,
          "start": 68.671228,
          "duration": 0.03836,
          "velocity": 0.456693,
          "start_tick": 103831,
          "duration_ticks": 58,
          "channel": 9
        },
        {
          "note": 82,
          "start": 68.709587,
          "duration": 0.039021,
          "velocity": 0.409449,
          "start_tick": 103889,
          "duration_ticks": 59,
          "channel": 9
        },
        {
          "note": 82,
          "start": 68.748609,
          "duration": 0.039021,
          "velocity": 0.362205,
          "start_tick": 103948,
          "duration_ticks": 59,
          "channel": 9
        },
        {
          "note": 82,
          "start": 68.78763,
          "duration": 0.039021,
          "velocity": 0.314961,
          "start_tick": 104007,
          "duration_ticks": 59,
          "channel": 9
        },
        {
          "note": 80,
          "start": 68.826651,
          "duration": 0.039021,
          "velocity": 0.629921,
          "start_tick": 104066,
          "duration_ticks": 59,
          "channel": 9
        },
        {
          "note": 70,
          "start": 68.982735,
          "duration": 0.03836,
          "velocity": 0.811024,
          "start_tick": 104302,
          "duration_ticks": 58,
          "channel": 9
        },
        {
          "note": 70,
          "start": 69.021095,
          "duration": 0.039021,
          "velocity": 0.755906,
          "start_tick": 104360,
          "duration_ticks": 59,
          "channel": 9
        },
        {
          "note": 70,
          "start": 69.060116,
          "duration": 0.039021,
          "velocity": 0.708661,
          "start_tick": 104419,
          "duration_ticks": 59,
          "channel": 9
        },
        {
          "note": 70,
          "start": 69.099137,
          "duration": 0.039021,
          "velocity": 0.661417,
          "start_tick": 104478,
          "duration_ticks": 59,
          "channel": 9
        },
        {
          "note": 70,
          "start": 69.138158,
          "duration": 0.039021,
          "velocity": 0.606299,
          "start_tick": 104537,
          "duration_ticks": 59,
          "channel": 9
        },
        {
          "note": 70,
          "start": 69.177179,
          "duration": 0.039021,
          "velocity": 0.559055,
          "start_tick": 104596,
          "duration_ticks": 59,
          "channel": 9
        },
        {
          "note": 70,
          "start": 69.216201,
          "duration": 0.039021,
          "velocity": 0.511811,
          "start_tick": 104655,
          "duration_ticks": 59,
          "channel": 9
        },
        {
          "note": 70,
          "start": 69.255222,
          "duration": 0.039021,
          "velocity": 0.456693,
          "start_tick": 104714,
          "duration_ticks": 59,
          "channel": 9
        },
        {
          "note": 80,
          "start": 69.294243,
          "duration": 0.03836,
          "velocity": 0.629921,
          "start_tick": 104773,
          "duration_ticks": 58,
          "channel": 9
        },
        {
          "note": 80,
          "start": 69.449666,
          "duration": 0.039021,
          "velocity": 0.629921,
          "start_tick": 105008,
          "duration_ticks": 59,
          "channel": 9
        },
        {
          "note": 70,
          "start": 69.60575,
          "duration": 0.03836,
          "velocity": 0.629921,
          "start_tick": 105244,
          "duration_ticks": 58,
          "channel": 9
        },
        {
          "note": 82,
          "start": 69.761174,
          "duration": 0.039021,
          "velocity": 0.629921,
          "start_tick": 105479,
          "duration_ticks": 59,
          "channel": 9
        },
        {
          "note": 82,
          "start": 69.917258,
          "duration": 0.03836,
          "velocity": 0.850394,
          "start_tick": 105715,
          "duration_ticks": 58,
          "channel": 9
        },
        {
          "note": 82,
          "start": 69.955618,
          "duration": 0.039021,
          "velocity": 0.755906,
          "start_tick": 105773,
          "duration_ticks": 59,
          "channel": 9
        },
        {
          "note": 82,
          "start": 69.994639,
          "duration": 0.039021,
          "velocity": 0.661417,
          "start_tick": 105832,
          "duration_ticks": 59,
          "channel": 9
        },
        {
          "note": 82,
          "start": 70.03366,
          "duration": 0.039021,
          "velocity": 0.566929,
          "start_tick": 105891,
          "duration_ticks": 59,
          "channel": 9
        },
        {
          "note": 82,
          "start": 70.072681,
          "duration": 0.039021,
          "velocity": 0.472441,
          "start_tick": 105950,
          "duration_ticks": 59,
          "channel": 9
        },
        {
          "note": 82,
          "start": 70.111702,
          "duration": 0.039021,
          "velocity": 0.377953,
          "start_tick": 106009,
          "duration_ticks": 59,
          "channel": 9
        },
        {
          "note": 82,
          "start": 70.150723,
          "duration": 0.039021,
          "velocity": 0.283465,
          "start_tick": 106068,
          "duration_ticks": 59,
          "channel": 9
        },
        {
          "note": 82,
          "start": 70.189745,
          "duration": 0.039021,
          "velocity": 0.188976,
          "start_tick": 106127,
          "duration_ticks": 59,
          "channel": 9
        },
        {
          "note": 80,
          "start": 70.228766,
          "duration": 0.03836,
          "velocity": 0.629921,
          "start_tick": 106186,
          "duration_ticks": 58,
          "channel": 9
        },
        {
          "note": 80,
          "start": 70.384189,
          "duration": 0.039021,
          "velocity": 0.629921,
          "start_tick": 106421,
          "duration_ticks": 59,
          "channel": 9
        },
        {
          "note": 70,
          "start": 70.540273,
          "duration": 0.03836,
          "velocity": 0.629921,
          "start_tick": 106657,
          "duration_ticks": 58,
          "channel": 9
        },
        {
          "note": 70,
          "start": 70.695696,
          "duration": 0.039021,
          "velocity": 0.629921,
          "start_tick": 106892,
          "duration_ticks": 59,
          "channel": 9
        },
        {
          "note": 82,
          "start": 70.851781,
          "duration": 0.03836,
          "velocity": 0.834646,
          "start_tick": 107128,
          "duration_ticks": 58,
          "channel": 9
        },
        {
          "note": 82,
          "start": 70.890141,
          "duration": 0.039021,
          "velocity": 0.787402,
          "start_tick": 107186,
          "duration_ticks": 59,
          "channel": 9
        },
        {
          "note": 82,
          "start": 70.929162,
          "duration": 0.039021,
          "velocity": 0.740157,
          "start_tick": 107245,
          "duration_ticks": 59,
          "channel": 9
        },
        {
          "note": 82,
          "start": 70.968183,
          "duration": 0.039021,
          "velocity": 0.692913,
          "start_tick": 107304,
          "duration_ticks": 59,
          "channel": 9
        },
        {
          "note": 82,
          "start": 71.007204,
          "duration": 0.039021,
          "velocity": 0.645669,
          "start_tick": 107363,
          "duration_ticks": 59,
          "channel": 9
        },
        {
          "note": 82,
          "start": 71.046225,
          "duration": 0.039021,
          "velocity": 0.598425,
          "start_tick": 107422,
          "duration_ticks": 59,
          "channel": 9
        },
        {
          "note": 82,
          "start": 71.085246,
          "duration": 0.039021,
          "velocity": 0.551181,
          "start_tick": 107481,
          "duration_ticks": 59,
          "channel": 9
        },
        {
          "note": 82,
          "start": 71.124268,
          "duration": 0.039021,
          "velocity": 0.503937,
          "start_tick": 107540,
          "duration_ticks": 59,
          "channel": 9
        },
        {
          "note": 80,
          "start": 71.163289,
          "duration": 0.039021,
          "velocity": 0.629921,
          "start_tick": 107599,
          "duration_ticks": 59,
          "channel": 9
        },
        {
          "note": 82,
          "start": 71.163289,
          "duration": 0.039021,
          "velocity": 0.456693,
          "start_tick": 107599,
          "duration_ticks": 59,
          "channel": 9
        },
        {
          "note": 82,
          "start": 71.20231,
          "duration": 0.03836,
          "velocity": 0.409449,
          "start_tick": 107658,
          "duration_ticks": 58,
          "channel": 9
        },
        {
          "note": 82,
          "start": 71.240669,
          "duration": 0.039021,
          "velocity": 0.362205,
          "start_tick": 107716,
          "duration_ticks": 59,
          "channel": 9
        },
        {
          "note": 82,
          "start": 71.279691,
          "duration": 0.039021,
          "velocity": 0.314961,
          "start_tick": 107775,
          "duration_ticks": 59,
          "channel": 9
        },
        {
          "note": 80,
          "start": 71.318712,
          "duration": 0.039021,
          "velocity": 0.629921,
          "start_tick": 107834,
          "duration_ticks": 59,
          "channel": 9
        },
        {
          "note": 70,
          "start": 71.474796,
          "duration": 0.039021,
          "velocity": 0.811024,
          "start_tick": 108070,
          "duration_ticks": 59,
          "channel": 9
        },
        {
          "note": 70,
          "start": 71.513817,
          "duration": 0.03836,
          "velocity": 0.755906,
          "start_tick": 108129,
          "duration_ticks": 58,
          "channel": 9
        },
        {
          "note": 70,
          "start": 71.552177,
          "duration": 0.039021,
          "velocity": 0.708661,
          "start_tick": 108187,
          "duration_ticks": 59,
          "channel": 9
        },
        {
          "note": 70,
          "start": 71.591198,
          "duration": 0.039021,
          "velocity": 0.661417,
          "start_tick": 108246,
          "duration_ticks": 59,
          "channel": 9
        },
        {
          "note": 70,
          "start": 71.630219,
          "duration": 0.039021,
          "velocity": 0.606299,
          "start_tick": 108305,
          "duration_ticks": 59,
          "channel": 9
        },
        {
          "note": 70,
          "start": 71.669241,
          "duration": 0.039021,
          "velocity": 0.559055,
          "start_tick": 108364,
          "duration_ticks": 59,
          "channel": 9
        },
        {
          "note": 70,
          "start": 71.708262,
          "duration": 0.039021,
          "velocity": 0.511811,
          "start_tick": 108423,
          "duration_ticks": 59,
          "channel": 9
        },
        {
          "note": 70,
          "start": 71.747283,
          "duration": 0.039021,
          "velocity": 0.456693,
          "start_tick": 108482,
          "duration_ticks": 59,
          "channel": 9
        },
        {
          "note": 80,
          "start": 71.786304,
          "duration": 0.039021,
          "velocity": 0.629921,
          "start_tick": 108541,
          "duration_ticks": 59,
          "channel": 9
        },
        {
          "note": 80,
          "start": 71.941727,
          "duration": 0.039021,
          "velocity": 0.629921,
          "start_tick": 108776,
          "duration_ticks": 59,
          "channel": 9
        },
        {
          "note": 70,
          "start": 72.097812,
          "duration": 0.039021,
          "velocity": 0.629921,
          "start_tick": 109012,
          "duration_ticks": 59,
          "channel": 9
        },
        {
          "note": 82,
          "start": 72.253235,
          "duration": 0.039021,
          "velocity": 0.629921,
          "start_tick": 109247,
          "duration_ticks": 59,
          "channel": 9
        },
        {
          "note": 82,
          "start": 72.409319,
          "duration": 0.039021,
          "velocity": 0.850394,
          "start_tick": 109483,
          "duration_ticks": 59,
          "channel": 9
        },
        {
          "note": 82,
          "start": 72.44834,
          "duration": 0.03836,
          "velocity": 0.755906,
          "start_tick": 109542,
          "duration_ticks": 58,
          "channel": 9
        },
        {
          "note": 82,
          "start": 72.4867,
          "duration": 0.039021,
          "velocity": 0.661417,
          "start_tick": 109600,
          "duration_ticks": 59,
          "channel": 9
        },
        {
          "note": 82,
          "start": 72.525721,
          "duration": 0.039021,
          "velocity": 0.566929,
          "start_tick": 109659,
          "duration_ticks": 59,
          "channel": 9
        },
        {
          "note": 82,
          "start": 72.564742,
          "duration": 0.039021,
          "velocity": 0.472441,
          "start_tick": 109718,
          "duration_ticks": 59,
          "channel": 9
        },
        {
          "note": 82,
          "start": 72.603763,
          "duration": 0.039021,
          "velocity": 0.377953,
          "start_tick": 109777,
          "duration_ticks": 59,
          "channel": 9
        },
        {
          "note": 82,
          "start": 72.642785,
          "duration": 0.039021,
          "velocity": 0.283465,
          "start_tick": 109836,
          "duration_ticks": 59,
          "channel": 9
        },
        {
          "note": 82,
          "start": 72.681806,
          "duration": 0.039021,
          "velocity": 0.188976,
          "start_tick": 109895,
          "duration_ticks": 59,
          "channel": 9
        },
        {
          "note": 80,
          "start": 72.720827,
          "duration": 0.039021,
          "velocity": 0.629921,
          "start_tick": 109954,
          "duration_ticks": 59,
          "channel": 9
        },
        {
          "note": 80,
          "start": 72.87625,
          "duration": 0.039021,
          "velocity": 0.629921,
          "start_tick": 110189,
          "duration_ticks": 59,
          "channel": 9
        },
        {
          "note": 70,
          "start": 73.032334,
          "duration": 0.039021,
          "velocity": 0.629921,
          "start_tick": 110425,
          "duration_ticks": 59,
          "channel": 9
        },
        {
          "note": 70,
          "start": 73.187758,
          "duration": 0.039021,
          "velocity": 0.629921,
          "start_tick": 110660,
          "duration_ticks": 59,
          "channel": 9
        },
        {
          "note": 82,
          "start": 73.343842,
          "duration": 0.039021,
          "velocity": 0.834646,
          "start_tick": 110896,
          "duration_ticks": 59,
          "channel": 9
        },
        {
          "note": 82,
          "start": 73.382863,
          "duration": 0.03836,
          "velocity": 0.787402,
          "start_tick": 110955,
          "duration_ticks": 58,
          "channel": 9
        },
        {
          "note": 82,
          "start": 73.421223,
          "duration": 0.039021,
          "velocity": 0.740157,
          "start_tick": 111013,
          "duration_ticks": 59,
          "channel": 9
        },
        {
          "note": 82,
          "start": 73.460244,
          "duration": 0.039021,
          "velocity": 0.692913,
          "start_tick": 111072,
          "duration_ticks": 59,
          "channel": 9
        },
        {
          "note": 82,
          "start": 73.499265,
          "duration": 0.039021,
          "velocity": 0.645669,
          "start_tick": 111131,
          "duration_ticks": 59,
          "channel": 9
        },
        {
          "note": 82,
          "start": 73.538286,
          "duration": 0.039021,
          "velocity": 0.598425,
          "start_tick": 111190,
          "duration_ticks": 59,
          "channel": 9
        },
        {
          "note": 82,
          "start": 73.577307,
          "duration": 0.039021,
          "velocity": 0.551181,
          "start_tick": 111249,
          "duration_ticks": 59,
          "channel": 9
        },
        {
          "note": 82,
          "start": 73.616328,
          "duration": 0.039021,
          "velocity": 0.503937,
          "start_tick": 111308,
          "duration_ticks": 59,
          "channel": 9
        },
        {
          "note": 80,
          "start": 73.65535,
          "duration": 0.039021,
          "velocity": 0.629921,
          "start_tick": 111367,
          "duration_ticks": 59,
          "channel": 9
        },
        {
          "note": 82,
          "start": 73.65535,
          "duration": 0.039021,
          "velocity": 0.456693,
          "start_tick": 111367,
          "duration_ticks": 59,
          "channel": 9
        },
        {
          "note": 82,
          "start": 73.694371,
          "duration": 0.03836,
          "velocity": 0.409449,
          "start_tick": 111426,
          "duration_ticks": 58,
          "channel": 9
        },
        {
          "note": 82,
          "start": 73.732731,
          "duration": 0.039021,
          "velocity": 0.362205,
          "start_tick": 111484,
          "duration_ticks": 59,
          "channel": 9
        },
        {
          "note": 82,
          "start": 73.771752,
          "duration": 0.039021,
          "velocity": 0.314961,
          "start_tick": 111543,
          "duration_ticks": 59,
          "channel": 9
        },
        {
          "note": 80,
          "start": 73.810773,
          "duration": 0.039021,
          "velocity": 0.629921,
          "start_tick": 111602,
          "duration_ticks": 59,
          "channel": 9
        },
        {
          "note": 70,
          "start": 73.966857,
          "duration": 0.039021,
          "velocity": 0.811024,
          "start_tick": 111838,
          "duration_ticks": 59,
          "channel": 9
        },
        {
          "note": 70,
          "start": 74.005878,
          "duration": 0.03836,
          "velocity": 0.755906,
          "start_tick": 111897,
          "duration_ticks": 58,
          "channel": 9
        },
        {
          "note": 70,
          "start": 74.044238,
          "duration": 0.039021,
          "velocity": 0.708661,
          "start_tick": 111955,
          "duration_ticks": 59,
          "channel": 9
        },
        {
          "note": 70,
          "start": 74.083259,
          "duration": 0.039021,
          "velocity": 0.661417,
          "start_tick": 112014,
          "duration_ticks": 59,
          "channel": 9
        },
        {
          "note": 70,
          "start": 74.12228,
          "duration": 0.039021,
          "velocity": 0.606299,
          "start_tick": 112073,
          "duration_ticks": 59,
          "channel": 9
        },
        {
          "note": 70,
          "start": 74.161301,
          "duration": 0.039021,
          "velocity": 0.559055,
          "start_tick": 112132,
          "duration_ticks": 59,
          "channel": 9
        },
        {
          "note": 70,
          "start": 74.200323,
          "duration": 0.039021,
          "velocity": 0.511811,
          "start_tick": 112191,
          "duration_ticks": 59,
          "channel": 9
        },
        {
          "note": 70,
          "start": 74.239344,
          "duration": 0.039021,
          "velocity": 0.456693,
          "start_tick": 112250,
          "duration_ticks": 59,
          "channel": 9
        },
        {
          "note": 80,
          "start": 74.278365,
          "duration": 0.039021,
          "velocity": 0.629921,
          "start_tick": 112309,
          "duration_ticks": 59,
          "channel": 9
        },
        {
          "note": 80,
          "start": 74.433788,
          "duration": 0.039021,
          "velocity": 0.629921,
          "start_tick": 112544,
          "duration_ticks": 59,
          "channel": 9
        },
        {
          "note": 70,
          "start": 74.589872,
          "duration": 0.039021,
          "velocity": 0.629921,
          "start_tick": 112780,
          "duration_ticks": 59,
          "channel": 9
        },
        {
          "note": 82,
          "start": 74.748603,
          "duration": 0.041005,
          "velocity": 0.629921,
          "start_tick": 113020,
          "duration_ticks": 62,
          "channel": 9
        },
        {
          "note": 82,
          "start": 74.911301,
          "duration": 0.041005,
          "velocity": 0.850394,
          "start_tick": 113266,
          "duration_ticks": 62,
          "channel": 9
        },
        {
          "note": 82,
          "start": 74.952306,
          "duration": 0.040344,
          "velocity": 0.755906,
          "start_tick": 113328,
          "duration_ticks": 61,
          "channel": 9
        },
        {
          "note": 82,
          "start": 74.99265,
          "duration": 0.041005,
          "velocity": 0.661417,
          "start_tick": 113389,
          "duration_ticks": 62,
          "channel": 9
        },
        {
          "note": 82,
          "start": 75.033655,
          "duration": 0.040344,
          "velocity": 0.566929,
          "start_tick": 113451,
          "duration_ticks": 61,
          "channel": 9
        },
        {
          "note": 82,
          "start": 75.073999,
          "duration": 0.040344,
          "velocity": 0.472441,
          "start_tick": 113512,
          "duration_ticks": 61,
          "channel": 9
        },
        {
          "note": 82,
          "start": 75.114343,
          "duration": 0.041005,
          "velocity": 0.377953,
          "start_tick": 113573,
          "duration_ticks": 62,
          "channel": 9
        },
        {
          "note": 82,
          "start": 75.155348,
          "duration": 0.040344,
          "velocity": 0.283465,
          "start_tick": 113635,
          "duration_ticks": 61,
          "channel": 9
        },
        {
          "note": 82,
          "start": 75.195692,
          "duration": 0.041005,
          "velocity": 0.188976,
          "start_tick": 113696,
          "duration_ticks": 62,
          "channel": 9
        },
        {
          "note": 80,
          "start": 75.236697,
          "duration": 0.040344,
          "velocity": 0.629921,
          "start_tick": 113758,
          "duration_ticks": 61,
          "channel": 9
        },
        {
          "note": 80,
          "start": 75.399395,
          "duration": 0.040344,
          "velocity": 0.629921,
          "start_tick": 114004,
          "duration_ticks": 61,
          "channel": 9
        },
        {
          "note": 70,
          "start": 75.561432,
          "duration": 0.041005,
          "velocity": 0.629921,
          "start_tick": 114249,
          "duration_ticks": 62,
          "channel": 9
        },
        {
          "note": 70,
          "start": 75.724131,
          "duration": 0.041005,
          "velocity": 0.629921,
          "start_tick": 114495,
          "duration_ticks": 62,
          "channel": 9
        },
        {
          "note": 82,
          "start": 75.886829,
          "duration": 0.040344,
          "velocity": 0.834646,
          "start_tick": 114741,
          "duration_ticks": 61,
          "channel": 9
        },
        {
          "note": 82,
          "start": 75.927173,
          "duration": 0.041005,
          "velocity": 0.787402,
          "start_tick": 114802,
          "duration_ticks": 62,
          "channel": 9
        },
        {
          "note": 82,
          "start": 75.968178,
          "duration": 0.040344,
          "velocity": 0.740157,
          "start_tick": 114864,
          "duration_ticks": 61,
          "channel": 9
        },
        {
          "note": 82,
          "start": 76.008522,
          "duration": 0.041005,
          "velocity": 0.692913,
          "start_tick": 114925,
          "duration_ticks": 62,
          "channel": 9
        },
        {
          "note": 82,
          "start": 76.049527,
          "duration": 0.040344,
          "velocity": 0.645669,
          "start_tick": 114987,
          "duration_ticks": 61,
          "channel": 9
        },
        {
          "note": 82,
          "start": 76.089871,
          "duration": 0.041005,
          "velocity": 0.598425,
          "start_tick": 115048,
          "duration_ticks": 62,
          "channel": 9
        },
        {
          "note": 82,
          "start": 76.130876,
          "duration": 0.040344,
          "velocity": 0.551181,
          "start_tick": 115110,
          "duration_ticks": 61,
          "channel": 9
        },
        {
          "note": 82,
          "start": 76.17122,
          "duration": 0.041005,
          "velocity": 0.503937,
          "start_tick": 115171,
          "duration_ticks": 62,
          "channel": 9
        },
        {
          "note": 80,
          "start": 76.212225,
          "duration": 0.040344,
          "velocity": 0.629921,
          "start_tick": 115233,
          "duration_ticks": 61,
          "channel": 9
        },
        {
          "note": 82,
          "start": 76.212225,
          "duration": 0.040344,
          "velocity": 0.456693,
          "start_tick": 115233,
          "duration_ticks": 61,
          "channel": 9
        },
        {
          "note": 82,
          "start": 76.252569,
          "duration": 0.041005,
          "velocity": 0.409449,
          "start_tick": 115294,
          "duration_ticks": 62,
          "channel": 9
        },
        {
          "note": 82,
          "start": 76.293575,
          "duration": 0.040344,
          "velocity": 0.362205,
          "start_tick": 115356,
          "duration_ticks": 61,
          "channel": 9
        },
        {
          "note": 82,
          "start": 76.333918,
          "duration": 0.040344,
          "velocity": 0.314961,
          "start_tick": 115417,
          "duration_ticks": 61,
          "channel": 9
        },
        {
          "note": 80,
          "start": 76.374262,
          "duration": 0.041005,
          "velocity": 0.629921,
          "start_tick": 115478,
          "duration_ticks": 62,
          "channel": 9
        },
        {
          "note": 70,
          "start": 76.536961,
          "duration": 0.041005,
          "velocity": 0.811024,
          "start_tick": 115724,
          "duration_ticks": 62,
          "channel": 9
        },
        {
          "note": 70,
          "start": 76.577966,
          "duration": 0.040344,
          "velocity": 0.755906,
          "start_tick": 115786,
          "duration_ticks": 61,
          "channel": 9
        },
        {
          "note": 70,
          "start": 76.61831,
          "duration": 0.041005,
          "velocity": 0.708661,
          "start_tick": 115847,
          "duration_ticks": 62,
          "channel": 9
        },
        {
          "note": 70,
          "start": 76.659315,
          "duration": 0.040344,
          "velocity": 0.661417,
          "start_tick": 115909,
          "duration_ticks": 61,
          "channel": 9
        },
        {
          "note": 70,
          "start": 76.699659,
          "duration": 0.040344,
          "velocity": 0.606299,
          "start_tick": 115970,
          "duration_ticks": 61,
          "channel": 9
        },
        {
          "note": 70,
          "start": 76.740003,
          "duration": 0.041005,
          "velocity": 0.559055,
          "start_tick": 116031,
          "duration_ticks": 62,
          "channel": 9
        },
        {
          "note": 70,
          "start": 76.781008,
          "duration": 0.040344,
          "velocity": 0.511811,
          "start_tick": 116093,
          "duration_ticks": 61,
          "channel": 9
        },
        {
          "note": 70,
          "start": 76.821352,
          "duration": 0.041005,
          "velocity": 0.456693,
          "start_tick": 116154,
          "duration_ticks": 62,
          "channel": 9
        },
        {
          "note": 80,
          "start": 76.862357,
          "duration": 0.040344,
          "velocity": 0.629921,
          "start_tick": 116216,
          "duration_ticks": 61,
          "channel": 9
        },
        {
          "note": 80,
          "start": 77.025055,
          "duration": 0.040344,
          "velocity": 0.629921,
          "start_tick": 116462,
          "duration_ticks": 61,
          "channel": 9
        },
        {
          "note": 70,
          "start": 77.187092,
          "duration": 0.041005,
          "velocity": 0.629921,
          "start_tick": 116707,
          "duration_ticks": 62,
          "channel": 9
        },
        {
          "note": 82,
          "start": 77.34979,
          "duration": 0.041005,
          "velocity": 0.629921,
          "start_tick": 116953,
          "duration_ticks": 62,
          "channel": 9
        },
        {
          "note": 82,
          "start": 77.512489,
          "duration": 0.041005,
          "velocity": 0.850394,
          "start_tick": 117199,
          "duration_ticks": 62,
          "channel": 9
        },
        {
          "note": 82,
          "start": 77.553494,
          "duration": 0.040344,
          "velocity": 0.755906,
          "start_tick": 117261,
          "duration_ticks": 61,
          "channel": 9
        },
        {
          "note": 82,
          "start": 77.593838,
          "duration": 0.040344,
          "velocity": 0.661417,
          "start_tick": 117322,
          "duration_ticks": 61,
          "channel": 9
        },
        {
          "note": 82,
          "start": 77.634182,
          "duration": 0.041005,
          "velocity": 0.566929,
          "start_tick": 117383,
          "duration_ticks": 62,
          "channel": 9
        },
        {
          "note": 82,
          "start": 77.675187,
          "duration": 0.040344,
          "velocity": 0.472441,
          "start_tick": 117445,
          "duration_ticks": 61,
          "channel": 9
        },
        {
          "note": 82,
          "start": 77.715531,
          "duration": 0.041005,
          "velocity": 0.377953,
          "start_tick": 117506,
          "duration_ticks": 62,
          "channel": 9
        },
        {
          "note": 82,
          "start": 77.756536,
          "duration": 0.040344,
          "velocity": 0.283465,
          "start_tick": 117568,
          "duration_ticks": 61,
          "channel": 9
        },
        {
          "note": 82,
          "start": 77.79688,
          "duration": 0.041005,
          "velocity": 0.188976,
          "start_tick": 117629,
          "duration_ticks": 62,
          "channel": 9
        },
        {
          "note": 80,
          "start": 77.837885,
          "duration": 0.040344,
          "velocity": 0.629921,
          "start_tick": 117691,
          "duration_ticks": 61,
          "channel": 9
        },
        {
          "note": 80,
          "start": 77.999922,
          "duration": 0.041005,
          "velocity": 0.629921,
          "start_tick": 117936,
          "duration_ticks": 62,
          "channel": 9
        },
        {
          "note": 70,
          "start": 78.16262,
          "duration": 0.041005,
          "velocity": 0.629921,
          "start_tick": 118182,
          "duration_ticks": 62,
          "channel": 9
        },
        {
          "note": 70,
          "start": 78.325318,
          "duration": 0.041005,
          "velocity": 0.629921,
          "start_tick": 118428,
          "duration_ticks": 62,
          "channel": 9
        },
        {
          "note": 82,
          "start": 78.488017,
          "duration": 0.040344,
          "velocity": 0.834646,
          "start_tick": 118674,
          "duration_ticks": 61,
          "channel": 9
        },
        {
          "note": 82,
          "start": 78.528361,
          "duration": 0.041005,
          "velocity": 0.787402,
          "start_tick": 118735,
          "duration_ticks": 62,
          "channel": 9
        },
        {
          "note": 82,
          "start": 78.569366,
          "duration": 0.040344,
          "velocity": 0.740157,
          "start_tick": 118797,
          "duration_ticks": 61,
          "channel": 9
        },
        {
          "note": 82,
          "start": 78.60971,
          "duration": 0.041005,
          "velocity": 0.692913,
          "start_tick": 118858,
          "duration_ticks": 62,
          "channel": 9
        },
        {
          "note": 82,
          "start": 78.650715,
          "duration": 0.040344,
          "velocity": 0.645669,
          "start_tick": 118920,
          "duration_ticks": 61,
          "channel": 9
        },
        {
          "note": 82,
          "start": 78.691059,
          "duration": 0.041005,
          "velocity": 0.598425,
          "start_tick": 118981,
          "duration_ticks": 62,
          "channel": 9
        },
        {
          "note": 82,
          "start": 78.732064,
          "duration": 0.040344,
          "velocity": 0.551181,
          "start_tick": 119043,
          "duration_ticks": 61,
          "channel": 9
        },
        {
          "note": 82,
          "start": 78.772408,
          "duration": 0.041005,
          "velocity": 0.503937,
          "start_tick": 119104,
          "duration_ticks": 62,
          "channel": 9
        },
        {
          "note": 80,
          "start": 78.813413,
          "duration": 0.040344,
          "velocity": 0.629921,
          "start_tick": 119166,
          "duration_ticks": 61,
          "channel": 9
        },
        {
          "note": 82,
          "start": 78.813413,
          "duration": 0.040344,
          "velocity": 0.456693,
          "start_tick": 119166,
          "duration_ticks": 61,
          "channel": 9
        },
        {
          "note": 82,
          "start": 78.853757,
          "duration": 0.040344,
          "velocity": 0.409449,
          "start_tick": 119227,
          "duration_ticks": 61,
          "channel": 9
        },
        {
          "note": 82,
          "start": 78.894101,
          "duration": 0.041005,
          "velocity": 0.362205,
          "start_tick": 119288,
          "duration_ticks": 62,
          "channel": 9
        },
        {
          "note": 82,
          "start": 78.935106,
          "duration": 0.040344,
          "velocity": 0.314961,
          "start_tick": 119350,
          "duration_ticks": 61,
          "channel": 9
        },
        {
          "note": 80,
          "start": 78.97545,
          "duration": 0.041005,
          "velocity": 0.629921,
          "start_tick": 119411,
          "duration_ticks": 62,
          "channel": 9
        },
        {
          "note": 70,
          "start": 79.138148,
          "duration": 0.041005,
          "velocity": 0.811024,
          "start_tick": 119657,
          "duration_ticks": 62,
          "channel": 9
        },
        {
          "note": 70,
          "start": 79.179154,
          "duration": 0.040344,
          "velocity": 0.755906,
          "start_tick": 119719,
          "duration_ticks": 61,
          "channel": 9
        },
        {
          "note": 70,
          "start": 79.219498,
          "duration": 0.040344,
          "velocity": 0.708661,
          "start_tick": 119780,
          "duration_ticks": 61,
          "channel": 9
        },
        {
          "note": 70,
          "start": 79.259841,
          "duration": 0.041005,
          "velocity": 0.661417,
          "start_tick": 119841,
          "duration_ticks": 62,
          "channel": 9
        },
        {
          "note": 70,
          "start": 79.300847,
          "duration": 0.040344,
          "velocity": 0.606299,
          "start_tick": 119903,
          "duration_ticks": 61,
          "channel": 9
        },
        {
          "note": 70,
          "start": 79.34119,
          "duration": 0.041005,
          "velocity": 0.559055,
          "start_tick": 119964,
          "duration_ticks": 62,
          "channel": 9
        },
        {
          "note": 70,
          "start": 79.382196,
          "duration": 0.040344,
          "velocity": 0.511811,
          "start_tick": 120026,
          "duration_ticks": 61,
          "channel": 9
        },
        {
          "note": 70,
          "start": 79.42254,
          "duration": 0.041005,
          "velocity": 0.456693,
          "start_tick": 120087,
          "duration_ticks": 62,
          "channel": 9
        },
        {
          "note": 80,
          "start": 79.463545,
          "duration": 0.040344,
          "velocity": 0.629921,
          "start_tick": 120149,
          "duration_ticks": 61,
          "channel": 9
        },
        {
          "note": 80,
          "start": 79.626243,
          "duration": 0.040344,
          "velocity": 0.629921,
          "start_tick": 120395,
          "duration_ticks": 61,
          "channel": 9
        },
        {
          "note": 70,
          "start": 79.78828,
          "duration": 0.041005,
          "velocity": 0.629921,
          "start_tick": 120640,
          "duration_ticks": 62,
          "channel": 9
        },
        {
          "note": 82,
          "start": 79.950978,
          "duration": 0.041005,
          "velocity": 0.629921,
          "start_tick": 120886,
          "duration_ticks": 62,
          "channel": 9
        },
        {
          "note": 82,
          "start": 80.113676,
          "duration": 0.040344,
          "velocity": 0.850394,
          "start_tick": 121132,
          "duration_ticks": 61,
          "channel": 9
        },
        {
          "note": 82,
          "start": 80.15402,
          "duration": 0.041005,
          "velocity": 0.755906,
          "start_tick": 121193,
          "duration_ticks": 62,
          "channel": 9
        },
        {
          "note": 82,
          "start": 80.195026,
          "duration": 0.040344,
          "velocity": 0.661417,
          "start_tick": 121255,
          "duration_ticks": 61,
          "channel": 9
        },
        {
          "note": 82,
          "start": 80.23537,
          "duration": 0.041005,
          "velocity": 0.566929,
          "start_tick": 121316,
          "duration_ticks": 62,
          "channel": 9
        },
        {
          "note": 82,
          "start": 80.276375,
          "duration": 0.040344,
          "velocity": 0.472441,
          "start_tick": 121378,
          "duration_ticks": 61,
          "channel": 9
        },
        {
          "note": 82,
          "start": 80.316719,
          "duration": 0.041005,
          "velocity": 0.377953,
          "start_tick": 121439,
          "duration_ticks": 62,
          "channel": 9
        },
        {
          "note": 82,
          "start": 80.357724,
          "duration": 0.040344,
          "velocity": 0.283465,
          "start_tick": 121501,
          "duration_ticks": 61,
          "channel": 9
        },
        {
          "note": 82,
          "start": 80.398068,
          "duration": 0.041005,
          "velocity": 0.188976,
          "start_tick": 121562,
          "duration_ticks": 62,
          "channel": 9
        },
        {
          "note": 80,
          "start": 80.439073,
          "duration": 0.040344,
          "velocity": 0.629921,
          "start_tick": 121624,
          "duration_ticks": 61,
          "channel": 9
        },
        {
          "note": 80,
          "start": 80.60111,
          "duration": 0.041005,
          "velocity": 0.629921,
          "start_tick": 121869,
          "duration_ticks": 62,
          "channel": 9
        },
        {
          "note": 70,
          "start": 80.763808,
          "duration": 0.041005,
          "velocity": 0.629921,
          "start_tick": 122115,
          "duration_ticks": 62,
          "channel": 9
        },
        {
          "note": 70,
          "start": 80.926506,
          "duration": 0.040344,
          "velocity": 0.629921,
          "start_tick": 122361,
          "duration_ticks": 61,
          "channel": 9
        },
        {
          "note": 82,
          "start": 81.089205,
          "duration": 0.040344,
          "velocity": 0.834646,
          "start_tick": 122607,
          "duration_ticks": 61,
          "channel": 9
        },
        {
          "note": 82,
          "start": 81.129548,
          "duration": 0.041005,
          "velocity": 0.787402,
          "start_tick": 122668,
          "duration_ticks": 62,
          "channel": 9
        },
        {
          "note": 82,
          "start": 81.170554,
          "duration": 0.040344,
          "velocity": 0.740157,
          "start_tick": 122730,
          "duration_ticks": 61,
          "channel": 9
        },
        {
          "note": 82,
          "start": 81.210898,
          "duration": 0.041005,
          "velocity": 0.692913,
          "start_tick": 122791,
          "duration_ticks": 62,
          "channel": 9
        },
        {
          "note": 82,
          "start": 81.251903,
          "duration": 0.040344,
          "velocity": 0.645669,
          "start_tick": 122853,
          "duration_ticks": 61,
          "channel": 9
        },
        {
          "note": 82,
          "start": 81.292247,
          "duration": 0.040344,
          "velocity": 0.598425,
          "start_tick": 122914,
          "duration_ticks": 61,
          "channel": 9
        },
        {
          "note": 82,
          "start": 81.332591,
          "duration": 0.041005,
          "velocity": 0.551181,
          "start_tick": 122975,
          "duration_ticks": 62,
          "channel": 9
        },
        {
          "note": 82,
          "start": 81.373596,
          "duration": 0.040344,
          "velocity": 0.503937,
          "start_tick": 123037,
          "duration_ticks": 61,
          "channel": 9
        },
        {
          "note": 80,
          "start": 81.41394,
          "duration": 0.041005,
          "velocity": 0.629921,
          "start_tick": 123098,
          "duration_ticks": 62,
          "channel": 9
        },
        {
          "note": 82,
          "start": 81.41394,
          "duration": 0.041005,
          "velocity": 0.456693,
          "start_tick": 123098,
          "duration_ticks": 62,
          "channel": 9
        },
        {
          "note": 82,
          "start": 81.454945,
          "duration": 0.040344,
          "velocity": 0.409449,
          "start_tick": 123160,
          "duration_ticks": 61,
          "channel": 9
        },
        {
          "note": 82,
          "start": 81.495289,
          "duration": 0.041005,
          "velocity": 0.362205,
          "start_tick": 123221,
          "duration_ticks": 62,
          "channel": 9
        },
        {
          "note": 82,
          "start": 81.536294,
          "duration": 0.040344,
          "velocity": 0.314961,
          "start_tick": 123283,
          "duration_ticks": 61,
          "channel": 9
        },
        {
          "note": 80,
          "start": 81.576638,
          "duration": 0.041005,
          "velocity": 0.629921,
          "start_tick": 123344,
          "duration_ticks": 62,
          "channel": 9
        },
        {
          "note": 70,
          "start": 81.739336,
          "duration": 0.040344,
          "velocity": 0.811024,
          "start_tick": 123590,
          "duration_ticks": 61,
          "channel": 9
        },
        {
          "note": 70,
          "start": 81.77968,
          "duration": 0.041005,
          "velocity": 0.755906,
          "start_tick": 123651,
          "duration_ticks": 62,
          "channel": 9
        },
        {
          "note": 70,
          "start": 81.820685,
          "duration": 0.040344,
          "velocity": 0.708661,
          "start_tick": 123713,
          "duration_ticks": 61,
          "channel": 9
        },
        {
          "note": 70,
          "start": 81.861029,
          "duration": 0.041005,
          "velocity": 0.661417,
          "start_tick": 123774,
          "duration_ticks": 62,
          "channel": 9
        },
        {
          "note": 70,
          "start": 81.902034,
          "duration": 0.040344,
          "velocity": 0.606299,
          "start_tick": 123836,
          "duration_ticks": 61,
          "channel": 9
        },
        {
          "note": 70,
          "start": 81.942378,
          "duration": 0.041005,
          "velocity": 0.559055,
          "start_tick": 123897,
          "duration_ticks": 62,
          "channel": 9
        },
        {
          "note": 70,
          "start": 81.983384,
          "duration": 0.040344,
          "velocity": 0.511811,
          "start_tick": 123959,
          "duration_ticks": 61,
          "channel": 9
        },
        {
          "note": 70,
          "start": 82.023728,
          "duration": 0.041005,
          "velocity": 0.456693,
          "start_tick": 124020,
          "duration_ticks": 62,
          "channel": 9
        },
        {
          "note": 80,
          "start": 82.064733,
          "duration": 0.040344,
          "velocity": 0.629921,
          "start_tick": 124082,
          "duration_ticks": 61,
          "channel": 9
        },
        {
          "note": 80,
          "start": 82.22677,
          "duration": 0.041005,
          "velocity": 0.629921,
          "start_tick": 124327,
          "duration_ticks": 62,
          "channel": 9
        },
        {
          "note": 70,
          "start": 82.389468,
          "duration": 0.041005,
          "velocity": 0.629921,
          "start_tick": 124573,
          "duration_ticks": 62,
          "channel": 9
        },
        {
          "note": 82,
          "start": 82.552166,
          "duration": 0.040344,
          "velocity": 0.629921,
          "start_tick": 124819,
          "duration_ticks": 61,
          "channel": 9
        },
        {
          "note": 82,
          "start": 82.714864,
          "duration": 0.040344,
          "velocity": 0.850394,
          "start_tick": 125065,
          "duration_ticks": 61,
          "channel": 9
        },
        {
          "note": 82,
          "start": 82.755208,
          "duration": 0.041005,
          "velocity": 0.755906,
          "start_tick": 125126,
          "duration_ticks": 62,
          "channel": 9
        },
        {
          "note": 82,
          "start": 82.796213,
          "duration": 0.040344,
          "velocity": 0.661417,
          "start_tick": 125188,
          "duration_ticks": 61,
          "channel": 9
        },
        {
          "note": 82,
          "start": 82.836557,
          "duration": 0.041005,
          "velocity": 0.566929,
          "start_tick": 125249,
          "duration_ticks": 62,
          "channel": 9
        },
        {
          "note": 82,
          "start": 82.877563,
          "duration": 0.040344,
          "velocity": 0.472441,
          "start_tick": 125311,
          "duration_ticks": 61,
          "channel": 9
        },
        {
          "note": 82,
          "start": 82.917907,
          "duration": 0.041005,
          "velocity": 0.377953,
          "start_tick": 125372,
          "duration_ticks": 62,
          "channel": 9
        },
        {
          "note": 82,
          "start": 82.958912,
          "duration": 0.040344,
          "velocity": 0.283465,
          "start_tick": 125434,
          "duration_ticks": 61,
          "channel": 9
        },
        {
          "note": 82,
          "start": 82.999256,
          "duration": 0.040344,
          "velocity": 0.188976,
          "start_tick": 125495,
          "duration_ticks": 61,
          "channel": 9
        },
        {
          "note": 80,
          "start": 83.039599,
          "duration": 0.041005,
          "velocity": 0.629921,
          "start_tick": 125556,
          "duration_ticks": 62,
          "channel": 9
        },
        {
          "note": 80,
          "start": 83.202298,
          "duration": 0.041005,
          "velocity": 0.629921,
          "start_tick": 125802,
          "duration_ticks": 62,
          "channel": 9
        },
        {
          "note": 70,
          "start": 83.364996,
          "duration": 0.041005,
          "velocity": 0.629921,
          "start_tick": 126048,
          "duration_ticks": 62,
          "channel": 9
        },
        {
          "note": 70,
          "start": 83.527694,
          "duration": 0.040344,
          "velocity": 0.629921,
          "start_tick": 126294,
          "duration_ticks": 61,
          "channel": 9
        },
        {
          "note": 82,
          "start": 83.690393,
          "duration": 0.040344,
          "velocity": 0.834646,
          "start_tick": 126540,
          "duration_ticks": 61,
          "channel": 9
        },
        {
          "note": 82,
          "start": 83.730736,
          "duration": 0.041005,
          "velocity": 0.787402,
          "start_tick": 126601,
          "duration_ticks": 62,
          "channel": 9
        },
        {
          "note": 82,
          "start": 83.771742,
          "duration": 0.040344,
          "velocity": 0.740157,
          "start_tick": 126663,
          "duration_ticks": 61,
          "channel": 9
        },
        {
          "note": 82,
          "start": 83.812085,
          "duration": 0.040344,
          "velocity": 0.692913,
          "start_tick": 126724,
          "duration_ticks": 61,
          "channel": 9
        },
        {
          "note": 82,
          "start": 83.852429,
          "duration": 0.041005,
          "velocity": 0.645669,
          "start_tick": 126785,
          "duration_ticks": 62,
          "channel": 9
        },
        {
          "note": 82,
          "start": 83.893435,
          "duration": 0.040344,
          "velocity": 0.598425,
          "start_tick": 126847,
          "duration_ticks": 61,
          "channel": 9
        },
        {
          "note": 82,
          "start": 83.933779,
          "duration": 0.041005,
          "velocity": 0.551181,
          "start_tick": 126908,
          "duration_ticks": 62,
          "channel": 9
        },
        {
          "note": 82,
          "start": 83.974784,
          "duration": 0.040344,
          "velocity": 0.503937,
          "start_tick": 126970,
          "duration_ticks": 61,
          "channel": 9
        },
        {
          "note": 80,
          "start": 84.015128,
          "duration": 0.041005,
          "velocity": 0.629921,
          "start_tick": 127031,
          "duration_ticks": 62,
          "channel": 9
        },
        {
          "note": 82,
          "start": 84.015128,
          "duration": 0.041005,
          "velocity": 0.456693,
          "start_tick": 127031,
          "duration_ticks": 62,
          "channel": 9
        },
        {
          "note": 82,
          "start": 84.056133,
          "duration": 0.040344,
          "velocity": 0.409449,
          "start_tick": 127093,
          "duration_ticks": 61,
          "channel": 9
        },
        {
          "note": 82,
          "start": 84.096477,
          "duration": 0.041005,
          "velocity": 0.362205,
          "start_tick": 127154,
          "duration_ticks": 62,
          "channel": 9
        },
        {
          "note": 82,
          "start": 84.137482,
          "duration": 0.040344,
          "velocity": 0.314961,
          "start_tick": 127216,
          "duration_ticks": 61,
          "channel": 9
        },
        {
          "note": 80,
          "start": 84.177826,
          "duration": 0.041005,
          "velocity": 0.629921,
          "start_tick": 127277,
          "duration_ticks": 62,
          "channel": 9
        },
        {
          "note": 70,
          "start": 84.340524,
          "duration": 0.040344,
          "velocity": 0.811024,
          "start_tick": 127523,
          "duration_ticks": 61,
          "channel": 9
        },
        {
          "note": 70,
          "start": 84.380868,
          "duration": 0.041005,
          "velocity": 0.755906,
          "start_tick": 127584,
          "duration_ticks": 62,
          "channel": 9
        },
        {
          "note": 70,
          "start": 84.421873,
          "duration": 0.040344,
          "velocity": 0.708661,
          "start_tick": 127646,
          "duration_ticks": 61,
          "channel": 9
        },
        {
          "note": 70,
          "start": 84.462217,
          "duration": 0.041005,
          "velocity": 0.661417,
          "start_tick": 127707,
          "duration_ticks": 62,
          "channel": 9
        },
        {
          "note": 70,
          "start": 84.503222,
          "duration": 0.040344,
          "velocity": 0.606299,
          "start_tick": 127769,
          "duration_ticks": 61,
          "channel": 9
        },
        {
          "note": 70,
          "start": 84.543566,
          "duration": 0.041005,
          "velocity": 0.559055,
          "start_tick": 127830,
          "duration_ticks": 62,
          "channel": 9
        },
        {
          "note": 70,
          "start": 84.584571,
          "duration": 0.040344,
          "velocity": 0.511811,
          "start_tick": 127892,
          "duration_ticks": 61,
          "channel": 9
        },
        {
          "note": 70,
          "start": 84.624915,
          "duration": 0.041005,
          "velocity": 0.456693,
          "start_tick": 127953,
          "duration_ticks": 62,
          "channel": 9
        },
        {
          "note": 80,
          "start": 84.665921,
          "duration": 0.040344,
          "velocity": 0.629921,
          "start_tick": 128015,
          "duration_ticks": 61,
          "channel": 9
        },
        {
          "note": 80,
          "start": 84.827957,
          "duration": 0.041005,
          "velocity": 0.629921,
          "start_tick": 128260,
          "duration_ticks": 62,
          "channel": 9
        },
        {
          "note": 70,
          "start": 84.989994,
          "duration": 0.039683,
          "velocity": 0.629921,
          "start_tick": 128505,
          "duration_ticks": 60,
          "channel": 9
        },
        {
          "note": 82,
          "start": 85.150708,
          "duration": 0.039683,
          "velocity": 0.629921,
          "start_tick": 128748,
          "duration_ticks": 60,
          "channel": 9
        },
        {
          "note": 82,
          "start": 85.311423,
          "duration": 0.039682,
          "velocity": 0.850394,
          "start_tick": 128991,
          "duration_ticks": 60,
          "channel": 9
        },
        {
          "note": 82,
          "start": 85.351105,
          "duration": 0.040344,
          "velocity": 0.755906,
          "start_tick": 129051,
          "duration_ticks": 61,
          "channel": 9
        },
        {
          "note": 82,
          "start": 85.391449,
          "duration": 0.040344,
          "velocity": 0.661417,
          "start_tick": 129112,
          "duration_ticks": 61,
          "channel": 9
        },
        {
          "note": 82,
          "start": 85.431793,
          "duration": 0.040344,
          "velocity": 0.566929,
          "start_tick": 129173,
          "duration_ticks": 61,
          "channel": 9
        },
        {
          "note": 82,
          "start": 85.472137,
          "duration": 0.039682,
          "velocity": 0.472441,
          "start_tick": 129234,
          "duration_ticks": 60,
          "channel": 9
        },
        {
          "note": 82,
          "start": 85.511819,
          "duration": 0.040344,
          "velocity": 0.377953,
          "start_tick": 129294,
          "duration_ticks": 61,
          "channel": 9
        },
        {
          "note": 82,
          "start": 85.552163,
          "duration": 0.040344,
          "velocity": 0.283465,
          "start_tick": 129355,
          "duration_ticks": 61,
          "channel": 9
        },
        {
          "note": 82,
          "start": 85.592507,
          "duration": 0.040344,
          "velocity": 0.188976,
          "start_tick": 129416,
          "duration_ticks": 61,
          "channel": 9
        },
        {
          "note": 80,
          "start": 85.632851,
          "duration": 0.039682,
          "velocity": 0.629921,
          "start_tick": 129477,
          "duration_ticks": 60,
          "channel": 9
        },
        {
          "note": 80,
          "start": 85.793565,
          "duration": 0.039682,
          "velocity": 0.629921,
          "start_tick": 129720,
          "duration_ticks": 60,
          "channel": 9
        },
        {
          "note": 70,
          "start": 85.954279,
          "duration": 0.039682,
          "velocity": 0.629921,
          "start_tick": 129963,
          "duration_ticks": 60,
          "channel": 9
        },
        {
          "note": 70,
          "start": 86.114993,
          "duration": 0.039682,
          "velocity": 0.629921,
          "start_tick": 130206,
          "duration_ticks": 60,
          "channel": 9
        },
        {
          "note": 82,
          "start": 86.275707,
          "duration": 0.039682,
          "velocity": 0.834646,
          "start_tick": 130449,
          "duration_ticks": 60,
          "channel": 9
        },
        {
          "note": 82,
          "start": 86.31539,
          "duration": 0.040344,
          "velocity": 0.787402,
          "start_tick": 130509,
          "duration_ticks": 61,
          "channel": 9
        },
        {
          "note": 82,
          "start": 86.355734,
          "duration": 0.040344,
          "velocity": 0.740157,
          "start_tick": 130570,
          "duration_ticks": 61,
          "channel": 9
        },
        {
          "note": 82,
          "start": 86.396078,
          "duration": 0.040344,
          "velocity": 0.692913,
          "start_tick": 130631,
          "duration_ticks": 61,
          "channel": 9
        },
        {
          "note": 82,
          "start": 86.436421,
          "duration": 0.039683,
          "velocity": 0.645669,
          "start_tick": 130692,
          "duration_ticks": 60,
          "channel": 9
        },
        {
          "note": 82,
          "start": 86.476104,
          "duration": 0.040344,
          "velocity": 0.598425,
          "start_tick": 130752,
          "duration_ticks": 61,
          "channel": 9
        },
        {
          "note": 82,
          "start": 86.516448,
          "duration": 0.040344,
          "velocity": 0.551181,
          "start_tick": 130813,
          "duration_ticks": 61,
          "channel": 9
        },
        {
          "note": 82,
          "start": 86.556792,
          "duration": 0.040344,
          "velocity": 0.503937,
          "start_tick": 130874,
          "duration_ticks": 61,
          "channel": 9
        },
        {
          "note": 80,
          "start": 86.597136,
          "duration": 0.039682,
          "velocity": 0.629921,
          "start_tick": 130935,
          "duration_ticks": 60,
          "channel": 9
        },
        {
          "note": 82,
          "start": 86.597136,
          "duration": 0.039682,
          "velocity": 0.456693,
          "start_tick": 130935,
          "duration_ticks": 60,
          "channel": 9
        },
        {
          "note": 82,
          "start": 86.636818,
          "duration": 0.040344,
          "velocity": 0.409449,
          "start_tick": 130995,
          "duration_ticks": 61,
          "channel": 9
        },
        {
          "note": 82,
          "start": 86.677162,
          "duration": 0.040344,
          "velocity": 0.362205,
          "start_tick": 131056,
          "duration_ticks": 61,
          "channel": 9
        },
        {
          "note": 82,
          "start": 86.717506,
          "duration": 0.040344,
          "velocity": 0.314961,
          "start_tick": 131117,
          "duration_ticks": 61,
          "channel": 9
        },
        {
          "note": 80,
          "start": 86.75785,
          "duration": 0.039682,
          "velocity": 0.629921,
          "start_tick": 131178,
          "duration_ticks": 60,
          "channel": 9
        },
        {
          "note": 70,
          "start": 86.918564,
          "duration": 0.039682,
          "velocity": 0.811024,
          "start_tick": 131421,
          "duration_ticks": 60,
          "channel": 9
        },
        {
          "note": 70,
          "start": 86.958246,
          "duration": 0.040344,
          "velocity": 0.755906,
          "start_tick": 131481,
          "duration_ticks": 61,
          "channel": 9
        },
        {
          "note": 70,
          "start": 86.99859,
          "duration": 0.040344,
          "velocity": 0.708661,
          "start_tick": 131542,
          "duration_ticks": 61,
          "channel": 9
        },
        {
          "note": 70,
          "start": 87.038934,
          "duration": 0.040344,
          "velocity": 0.661417,
          "start_tick": 131603,
          "duration_ticks": 61,
          "channel": 9
        },
        {
          "note": 70,
          "start": 87.079278,
          "duration": 0.039682,
          "velocity": 0.606299,
          "start_tick": 131664,
          "duration_ticks": 60,
          "channel": 9
        },
        {
          "note": 70,
          "start": 87.118961,
          "duration": 0.040344,
          "velocity": 0.559055,
          "start_tick": 131724,
          "duration_ticks": 61,
          "channel": 9
        },
        {
          "note": 70,
          "start": 87.159304,
          "duration": 0.040344,
          "velocity": 0.511811,
          "start_tick": 131785,
          "duration_ticks": 61,
          "channel": 9
        },
        {
          "note": 70,
          "start": 87.199648,
          "duration": 0.040344,
          "velocity": 0.456693,
          "start_tick": 131846,
          "duration_ticks": 61,
          "channel": 9
        },
        {
          "note": 80,
          "start": 87.239992,
          "duration": 0.039682,
          "velocity": 0.629921,
          "start_tick": 131907,
          "duration_ticks": 60,
          "channel": 9
        },
        {
          "note": 80,
          "start": 87.400706,
          "duration": 0.039682,
          "velocity": 0.629921,
          "start_tick": 132150,
          "duration_ticks": 60,
          "channel": 9
        },
        {
          "note": 70,
          "start": 87.56142,
          "duration": 0.039682,
          "velocity": 0.629921,
          "start_tick": 132393,
          "duration_ticks": 60,
          "channel": 9
        },
        {
          "note": 82,
          "start": 87.722134,
          "duration": 0.039682,
          "velocity": 0.629921,
          "start_tick": 132636,
          "duration_ticks": 60,
          "channel": 9
        },
        {
          "note": 82,
          "start": 87.882849,
          "duration": 0.039683,
          "velocity": 0.850394,
          "start_tick": 132879,
          "duration_ticks": 60,
          "channel": 9
        },
        {
          "note": 82,
          "start": 87.922531,
          "duration": 0.040344,
          "velocity": 0.755906,
          "start_tick": 132939,
          "duration_ticks": 61,
          "channel": 9
        },
        {
          "note": 82,
          "start": 87.962875,
          "duration": 0.040344,
          "velocity": 0.661417,
          "start_tick": 133000,
          "duration_ticks": 61,
          "channel": 9
        },
        {
          "note": 82,
          "start": 88.003219,
          "duration": 0.040344,
          "velocity": 0.566929,
          "start_tick": 133061,
          "duration_ticks": 61,
          "channel": 9
        },
        {
          "note": 82,
          "start": 88.043563,
          "duration": 0.039682,
          "velocity": 0.472441,
          "start_tick": 133122,
          "duration_ticks": 60,
          "channel": 9
        },
        {
          "note": 82,
          "start": 88.083245,
          "duration": 0.040344,
          "velocity": 0.377953,
          "start_tick": 133182,
          "duration_ticks": 61,
          "channel": 9
        },
        {
          "note": 82,
          "start": 88.123589,
          "duration": 0.040344,
          "velocity": 0.283465,
          "start_tick": 133243,
          "duration_ticks": 61,
          "channel": 9
        },
        {
          "note": 82,
          "start": 88.163933,
          "duration": 0.040344,
          "velocity": 0.188976,
          "start_tick": 133304,
          "duration_ticks": 61,
          "channel": 9
        },
        {
          "note": 80,
          "start": 88.204277,
          "duration": 0.039682,
          "velocity": 0.629921,
          "start_tick": 133365,
          "duration_ticks": 60,
          "channel": 9
        },
        {
          "note": 80,
          "start": 88.364991,
          "duration": 0.039682,
          "velocity": 0.629921,
          "start_tick": 133608,
          "duration_ticks": 60,
          "channel": 9
        },
        {
          "note": 70,
          "start": 88.525705,
          "duration": 0.039682,
          "velocity": 0.629921,
          "start_tick": 133851,
          "duration_ticks": 60,
          "channel": 9
        },
        {
          "note": 70,
          "start": 88.686419,
          "duration": 0.039682,
          "velocity": 0.629921,
          "start_tick": 134094,
          "duration_ticks": 60,
          "channel": 9
        },
        {
          "note": 82,
          "start": 88.847133,
          "duration": 0.039682,
          "velocity": 0.834646,
          "start_tick": 134337,
          "duration_ticks": 60,
          "channel": 9
        },
        {
          "note": 82,
          "start": 88.886816,
          "duration": 0.040344,
          "velocity": 0.787402,
          "start_tick": 134397,
          "duration_ticks": 61,
          "channel": 9
        },
        {
          "note": 82,
          "start": 88.92716,
          "duration": 0.040344,
          "velocity": 0.740157,
          "start_tick": 134458,
          "duration_ticks": 61,
          "channel": 9
        },
        {
          "note": 82,
          "start": 88.967504,
          "duration": 0.040344,
          "velocity": 0.692913,
          "start_tick": 134519,
          "duration_ticks": 61,
          "channel": 9
        },
        {
          "note": 82,
          "start": 89.007847,
          "duration": 0.039682,
          "velocity": 0.645669,
          "start_tick": 134580,
          "duration_ticks": 60,
          "channel": 9
        },
        {
          "note": 82,
          "start": 89.04753,
          "duration": 0.040344,
          "velocity": 0.598425,
          "start_tick": 134640,
          "duration_ticks": 61,
          "channel": 9
        },
        {
          "note": 82,
          "start": 89.087874,
          "duration": 0.040344,
          "velocity": 0.551181,
          "start_tick": 134701,
          "duration_ticks": 61,
          "channel": 9
        },
        {
          "note": 82,
          "start": 89.128218,
          "duration": 0.040344,
          "velocity": 0.503937,
          "start_tick": 134762,
          "duration_ticks": 61,
          "channel": 9
        },
        {
          "note": 80,
          "start": 89.168562,
          "duration": 0.039682,
          "velocity": 0.629921,
          "start_tick": 134823,
          "duration_ticks": 60,
          "channel": 9
        },
        {
          "note": 82,
          "start": 89.168562,
          "duration": 0.039682,
          "velocity": 0.456693,
          "start_tick": 134823,
          "duration_ticks": 60,
          "channel": 9
        },
        {
          "note": 82,
          "start": 89.208244,
          "duration": 0.040344,
          "velocity": 0.409449,
          "start_tick": 134883,
          "duration_ticks": 61,
          "channel": 9
        },
        {
          "note": 82,
          "start": 89.248588,
          "duration": 0.040344,
          "velocity": 0.362205,
          "start_tick": 134944,
          "duration_ticks": 61,
          "channel": 9
        },
        {
          "note": 82,
          "start": 89.288932,
          "duration": 0.039682,
          "velocity": 0.314961,
          "start_tick": 135005,
          "duration_ticks": 60,
          "channel": 9
        },
        {
          "note": 80,
          "start": 89.328614,
          "duration": 0.040344,
          "velocity": 0.629921,
          "start_tick": 135065,
          "duration_ticks": 61,
          "channel": 9
        },
        {
          "note": 70,
          "start": 89.489328,
          "duration": 0.040344,
          "velocity": 0.811024,
          "start_tick": 135308,
          "duration_ticks": 61,
          "channel": 9
        },
        {
          "note": 70,
          "start": 89.529672,
          "duration": 0.040344,
          "velocity": 0.755906,
          "start_tick": 135369,
          "duration_ticks": 61,
          "channel": 9
        },
        {
          "note": 70,
          "start": 89.570016,
          "duration": 0.040344,
          "velocity": 0.708661,
          "start_tick": 135430,
          "duration_ticks": 61,
          "channel": 9
        },
        {
          "note": 70,
          "start": 89.61036,
          "duration": 0.039682,
          "velocity": 0.661417,
          "start_tick": 135491,
          "duration_ticks": 60,
          "channel": 9
        },
        {
          "note": 70,
          "start": 89.650043,
          "duration": 0.040344,
          "velocity": 0.606299,
          "start_tick": 135551,
          "duration_ticks": 61,
          "channel": 9
        },
        {
          "note": 70,
          "start": 89.690387,
          "duration": 0.040344,
          "velocity": 0.559055,
          "start_tick": 135612,
          "duration_ticks": 61,
          "channel": 9
        },
        {
          "note": 70,
          "start": 89.73073,
          "duration": 0.040344,
          "velocity": 0.511811,
          "start_tick": 135673,
          "duration_ticks": 61,
          "channel": 9
        },
        {
          "note": 70,
          "start": 89.771074,
          "duration": 0.039682,
          "velocity": 0.456693,
          "start_tick": 135734,
          "duration_ticks": 60,
          "channel": 9
        },
        {
          "note": 80,
          "start": 89.810757,
          "duration": 0.040344,
          "velocity": 0.629921,
          "start_tick": 135794,
          "duration_ticks": 61,
          "channel": 9
        },
        {
          "note": 80,
          "start": 89.971471,
          "duration": 0.040344,
          "velocity": 0.629921,
          "start_tick": 136037,
          "duration_ticks": 61,
          "channel": 9
        },
        {
          "note": 70,
          "start": 90.132185,
          "duration": 0.040344,
          "velocity": 0.629921,
          "start_tick": 136280,
          "duration_ticks": 61,
          "channel": 9
        },
        {
          "note": 82,
          "start": 90.292899,
          "duration": 0.040344,
          "velocity": 0.629921,
          "start_tick": 136523,
          "duration_ticks": 61,
          "channel": 9
        },
        {
          "note": 82,
          "start": 90.453613,
          "duration": 0.040344,
          "velocity": 0.850394,
          "start_tick": 136766,
          "duration_ticks": 61,
          "channel": 9
        },
        {
          "note": 82,
          "start": 90.493957,
          "duration": 0.040344,
          "velocity": 0.755906,
          "start_tick": 136827,
          "duration_ticks": 61,
          "channel": 9
        },
        {
          "note": 82,
          "start": 90.534301,
          "duration": 0.040344,
          "velocity": 0.661417,
          "start_tick": 136888,
          "duration_ticks": 61,
          "channel": 9
        },
        {
          "note": 82,
          "start": 90.574645,
          "duration": 0.039682,
          "velocity": 0.566929,
          "start_tick": 136949,
          "duration_ticks": 60,
          "channel": 9
        },
        {
          "note": 82,
          "start": 90.614327,
          "duration": 0.040344,
          "velocity": 0.472441,
          "start_tick": 137009,
          "duration_ticks": 61,
          "channel": 9
        },
        {
          "note": 82,
          "start": 90.654671,
          "duration": 0.040344,
          "velocity": 0.377953,
          "start_tick": 137070,
          "duration_ticks": 61,
          "channel": 9
        },
        {
          "note": 82,
          "start": 90.695015,
          "duration": 0.040344,
          "velocity": 0.283465,
          "start_tick": 137131,
          "duration_ticks": 61,
          "channel": 9
        },
        {
          "note": 82,
          "start": 90.735359,
          "duration": 0.039682,
          "velocity": 0.188976,
          "start_tick": 137192,
          "duration_ticks": 60,
          "channel": 9
        },
        {
          "note": 80,
          "start": 90.775042,
          "duration": 0.040344,
          "velocity": 0.629921,
          "start_tick": 137252,
          "duration_ticks": 61,
          "channel": 9
        },
        {
          "note": 80,
          "start": 90.935756,
          "duration": 0.040344,
          "velocity": 0.629921,
          "start_tick": 137495,
          "duration_ticks": 61,
          "channel": 9
        },
        {
          "note": 70,
          "start": 91.09647,
          "duration": 0.040344,
          "velocity": 0.629921,
          "start_tick": 137738,
          "duration_ticks": 61,
          "channel": 9
        },
        {
          "note": 70,
          "start": 91.257184,
          "duration": 0.040344,
          "velocity": 0.629921,
          "start_tick": 137981,
          "duration_ticks": 61,
          "channel": 9
        },
        {
          "note": 82,
          "start": 91.417898,
          "duration": 0.040344,
          "velocity": 0.834646,
          "start_tick": 138224,
          "duration_ticks": 61,
          "channel": 9
        },
        {
          "note": 82,
          "start": 91.458242,
          "duration": 0.040344,
          "velocity": 0.787402,
          "start_tick": 138285,
          "duration_ticks": 61,
          "channel": 9
        },
        {
          "note": 82,
          "start": 91.498586,
          "duration": 0.040344,
          "velocity": 0.740157,
          "start_tick": 138346,
          "duration_ticks": 61,
          "channel": 9
        },
        {
          "note": 82,
          "start": 91.53893,
          "duration": 0.039683,
          "velocity": 0.692913,
          "start_tick": 138407,
          "duration_ticks": 60,
          "channel": 9
        },
        {
          "note": 82,
          "start": 91.578612,
          "duration": 0.040344,
          "velocity": 0.645669,
          "start_tick": 138467,
          "duration_ticks": 61,
          "channel": 9
        },
        {
          "note": 82,
          "start": 91.618956,
          "duration": 0.040344,
          "velocity": 0.598425,
          "start_tick": 138528,
          "duration_ticks": 61,
          "channel": 9
        },
        {
          "note": 82,
          "start": 91.6593,
          "duration": 0.040344,
          "velocity": 0.551181,
          "start_tick": 138589,
          "duration_ticks": 61,
          "channel": 9
        },
        {
          "note": 82,
          "start": 91.699644,
          "duration": 0.039682,
          "velocity": 0.503937,
          "start_tick": 138650,
          "duration_ticks": 60,
          "channel": 9
        },
        {
          "note": 80,
          "start": 91.739326,
          "duration": 0.040344,
          "velocity": 0.629921,
          "start_tick": 138710,
          "duration_ticks": 61,
          "channel": 9
        },
        {
          "note": 82,
          "start": 91.739326,
          "duration": 0.040344,
          "velocity": 0.456693,
          "start_tick": 138710,
          "duration_ticks": 61,
          "channel": 9
        },
        {
          "note": 82,
          "start": 91.77967,
          "duration": 0.040344,
          "velocity": 0.409449,
          "start_tick": 138771,
          "duration_ticks": 61,
          "channel": 9
        },
        {
          "note": 82,
          "start": 91.820014,
          "duration": 0.040344,
          "velocity": 0.362205,
          "start_tick": 138832,
          "duration_ticks": 61,
          "channel": 9
        },
        {
          "note": 82,
          "start": 91.860358,
          "duration": 0.039682,
          "velocity": 0.314961,
          "start_tick": 138893,
          "duration_ticks": 60,
          "channel": 9
        },
        {
          "note": 80,
          "start": 91.90004,
          "duration": 0.040344,
          "velocity": 0.629921,
          "start_tick": 138953,
          "duration_ticks": 61,
          "channel": 9
        },
        {
          "note": 70,
          "start": 92.060755,
          "duration": 0.040344,
          "velocity": 0.811024,
          "start_tick": 139196,
          "duration_ticks": 61,
          "channel": 9
        },
        {
          "note": 70,
          "start": 92.101098,
          "duration": 0.040344,
          "velocity": 0.755906,
          "start_tick": 139257,
          "duration_ticks": 61,
          "channel": 9
        },
        {
          "note": 70,
          "start": 92.141442,
          "duration": 0.040344,
          "velocity": 0.708661,
          "start_tick": 139318,
          "duration_ticks": 61,
          "channel": 9
        },
        {
          "note": 70,
          "start": 92.181786,
          "duration": 0.039682,
          "velocity": 0.661417,
          "start_tick": 139379,
          "duration_ticks": 60,
          "channel": 9
        },
        {
          "note": 70,
          "start": 92.221469,
          "duration": 0.040344,
          "velocity": 0.606299,
          "start_tick": 139439,
          "duration_ticks": 61,
          "channel": 9
        },
        {
          "note": 70,
          "start": 92.261813,
          "duration": 0.040344,
          "velocity": 0.559055,
          "start_tick": 139500,
          "duration_ticks": 61,
          "channel": 9
        },
        {
          "note": 70,
          "start": 92.302156,
          "duration": 0.040344,
          "velocity": 0.511811,
          "start_tick": 139561,
          "duration_ticks": 61,
          "channel": 9
        },
        {
          "note": 70,
          "start": 92.3425,
          "duration": 0.039682,
          "velocity": 0.456693,
          "start_tick": 139622,
          "duration_ticks": 60,
          "channel": 9
        },
        {
          "note": 80,
          "start": 92.382183,
          "duration": 0.040344,
          "velocity": 0.629921,
          "start_tick": 139682,
          "duration_ticks": 61,
          "channel": 9
        },
        {
          "note": 80,
          "start": 92.542897,
          "duration": 0.040344,
          "velocity": 0.629921,
          "start_tick": 139925,
          "duration_ticks": 61,
          "channel": 9
        },
        {
          "note": 70,
          "start": 92.703611,
          "duration": 0.040344,
          "velocity": 0.629921,
          "start_tick": 140168,
          "duration_ticks": 61,
          "channel": 9
        },
        {
          "note": 82,
          "start": 92.864325,
          "duration": 0.040344,
          "velocity": 0.629921,
          "start_tick": 140411,
          "duration_ticks": 61,
          "channel": 9
        },
        {
          "note": 82,
          "start": 93.025039,
          "duration": 0.040344,
          "velocity": 0.850394,
          "start_tick": 140654,
          "duration_ticks": 61,
          "channel": 9
        },
        {
          "note": 82,
          "start": 93.065383,
          "duration": 0.040344,
          "velocity": 0.755906,
          "start_tick": 140715,
          "duration_ticks": 61,
          "channel": 9
        },
        {
          "note": 82,
          "start": 93.105727,
          "duration": 0.040344,
          "velocity": 0.661417,
          "start_tick": 140776,
          "duration_ticks": 61,
          "channel": 9
        },
        {
          "note": 82,
          "start": 93.146071,
          "duration": 0.039682,
          "velocity": 0.566929,
          "start_tick": 140837,
          "duration_ticks": 60,
          "channel": 9
        },
        {
          "note": 82,
          "start": 93.185753,
          "duration": 0.040344,
          "velocity": 0.472441,
          "start_tick": 140897,
          "duration_ticks": 61,
          "channel": 9
        },
        {
          "note": 82,
          "start": 93.226097,
          "duration": 0.040344,
          "velocity": 0.377953,
          "start_tick": 140958,
          "duration_ticks": 61,
          "channel": 9
        },
        {
          "note": 82,
          "start": 93.266441,
          "duration": 0.040344,
          "velocity": 0.283465,
          "start_tick": 141019,
          "duration_ticks": 61,
          "channel": 9
        },
        {
          "note": 82,
          "start": 93.306785,
          "duration": 0.039682,
          "velocity": 0.188976,
          "start_tick": 141080,
          "duration_ticks": 60,
          "channel": 9
        },
        {
          "note": 80,
          "start": 93.346468,
          "duration": 0.040344,
          "velocity": 0.629921,
          "start_tick": 141140,
          "duration_ticks": 61,
          "channel": 9
        },
        {
          "note": 80,
          "start": 93.507182,
          "duration": 0.040344,
          "velocity": 0.629921,
          "start_tick": 141383,
          "duration_ticks": 61,
          "channel": 9
        },
        {
          "note": 70,
          "start": 93.667896,
          "duration": 0.040344,
          "velocity": 0.629921,
          "start_tick": 141626,
          "duration_ticks": 61,
          "channel": 9
        },
        {
          "note": 70,
          "start": 93.82861,
          "duration": 0.040344,
          "velocity": 0.629921,
          "start_tick": 141869,
          "duration_ticks": 61,
          "channel": 9
        },
        {
          "note": 82,
          "start": 93.989324,
          "duration": 0.040344,
          "velocity": 0.834646,
          "start_tick": 142112,
          "duration_ticks": 61,
          "channel": 9
        },
        {
          "note": 82,
          "start": 94.029668,
          "duration": 0.040344,
          "velocity": 0.787402,
          "start_tick": 142173,
          "duration_ticks": 61,
          "channel": 9
        },
        {
          "note": 82,
          "start": 94.070012,
          "duration": 0.039682,
          "velocity": 0.740157,
          "start_tick": 142234,
          "duration_ticks": 60,
          "channel": 9
        },
        {
          "note": 82,
          "start": 94.109694,
          "duration": 0.040344,
          "velocity": 0.692913,
          "start_tick": 142294,
          "duration_ticks": 61,
          "channel": 9
        },
        {
          "note": 82,
          "start": 94.150038,
          "duration": 0.040344,
          "velocity": 0.645669,
          "start_tick": 142355,
          "duration_ticks": 61,
          "channel": 9
        },
        {
          "note": 82,
          "start": 94.190382,
          "duration": 0.040344,
          "velocity": 0.598425,
          "start_tick": 142416,
          "duration_ticks": 61,
          "channel": 9
        },
        {
          "note": 82,
          "start": 94.230726,
          "duration": 0.039682,
          "velocity": 0.551181,
          "start_tick": 142477,
          "duration_ticks": 60,
          "channel": 9
        },
        {
          "note": 82,
          "start": 94.270408,
          "duration": 0.040344,
          "velocity": 0.503937,
          "start_tick": 142537,
          "duration_ticks": 61,
          "channel": 9
        },
        {
          "note": 80,
          "start": 94.310752,
          "duration": 0.040344,
          "velocity": 0.629921,
          "start_tick": 142598,
          "duration_ticks": 61,
          "channel": 9
        },
        {
          "note": 82,
          "start": 94.310752,
          "duration": 0.040344,
          "velocity": 0.456693,
          "start_tick": 142598,
          "duration_ticks": 61,
          "channel": 9
        },
        {
          "note": 82,
          "start": 94.351096,
          "duration": 0.040344,
          "velocity": 0.409449,
          "start_tick": 142659,
          "duration_ticks": 61,
          "channel": 9
        },
        {
          "note": 82,
          "start": 94.39144,
          "duration": 0.039682,
          "velocity": 0.362205,
          "start_tick": 142720,
          "duration_ticks": 60,
          "channel": 9
        },
        {
          "note": 82,
          "start": 94.431123,
          "duration": 0.040344,
          "velocity": 0.314961,
          "start_tick": 142780,
          "duration_ticks": 61,
          "channel": 9
        },
        {
          "note": 80,
          "start": 94.471466,
          "duration": 0.040344,
          "velocity": 0.629921,
          "start_tick": 142841,
          "duration_ticks": 61,
          "channel": 9
        },
        {
          "note": 70,
          "start": 94.632181,
          "duration": 0.040344,
          "velocity": 0.811024,
          "start_tick": 143084,
          "duration_ticks": 61,
          "channel": 9
        },
        {
          "note": 70,
          "start": 94.672524,
          "duration": 0.040344,
          "velocity": 0.755906,
          "start_tick": 143145,
          "duration_ticks": 61,
          "channel": 9
        },
        {
          "note": 70,
          "start": 94.712868,
          "duration": 0.039682,
          "velocity": 0.708661,
          "start_tick": 143206,
          "duration_ticks": 60,
          "channel": 9
        },
        {
          "note": 70,
          "start": 94.752551,
          "duration": 0.040344,
          "velocity": 0.661417,
          "start_tick": 143266,
          "duration_ticks": 61,
          "channel": 9
        },
        {
          "note": 70,
          "start": 94.792895,
          "duration": 0.040344,
          "velocity": 0.606299,
          "start_tick": 143327,
          "duration_ticks": 61,
          "channel": 9
        },
        {
          "note": 70,
          "start": 94.833238,
          "duration": 0.040344,
          "velocity": 0.559055,
          "start_tick": 143388,
          "duration_ticks": 61,
          "channel": 9
        },
        {
          "note": 70,
          "start": 94.873582,
          "duration": 0.039682,
          "velocity": 0.511811,
          "start_tick": 143449,
          "duration_ticks": 60,
          "channel": 9
        },
        {
          "note": 70,
          "start": 94.913265,
          "duration": 0.040344,
          "velocity": 0.456693,
          "start_tick": 143509,
          "duration_ticks": 61,
          "channel": 9
        },
        {
          "note": 80,
          "start": 94.953609,
          "duration": 0.040344,
          "velocity": 0.629921,
          "start_tick": 143570,
          "duration_ticks": 61,
          "channel": 9
        },
        {
          "note": 80,
          "start": 95.113,
          "duration": 0.039682,
          "velocity": 0.629921,
          "start_tick": 143811,
          "duration_ticks": 60,
          "channel": 9
        },
        {
          "note": 70,
          "start": 95.271069,
          "duration": 0.039021,
          "velocity": 0.629921,
          "start_tick": 144050,
          "duration_ticks": 59,
          "channel": 9
        },
        {
          "note": 82,
          "start": 95.428476,
          "duration": 0.039682,
          "velocity": 0.629921,
          "start_tick": 144288,
          "duration_ticks": 60,
          "channel": 9
        },
        {
          "note": 82,
          "start": 95.586545,
          "duration": 0.039682,
          "velocity": 0.850394,
          "start_tick": 144527,
          "duration_ticks": 60,
          "channel": 9
        },
        {
          "note": 82,
          "start": 95.626227,
          "duration": 0.039021,
          "velocity": 0.755906,
          "start_tick": 144587,
          "duration_ticks": 59,
          "channel": 9
        },
        {
          "note": 82,
          "start": 95.665248,
          "duration": 0.039682,
          "velocity": 0.661417,
          "start_tick": 144646,
          "duration_ticks": 60,
          "channel": 9
        },
        {
          "note": 82,
          "start": 95.704931,
          "duration": 0.039021,
          "velocity": 0.566929,
          "start_tick": 144706,
          "duration_ticks": 59,
          "channel": 9
        },
        {
          "note": 82,
          "start": 95.743952,
          "duration": 0.039683,
          "velocity": 0.472441,
          "start_tick": 144765,
          "duration_ticks": 60,
          "channel": 9
        },
        {
          "note": 82,
          "start": 95.783634,
          "duration": 0.039682,
          "velocity": 0.377953,
          "start_tick": 144825,
          "duration_ticks": 60,
          "channel": 9
        },
        {
          "note": 82,
          "start": 95.823317,
          "duration": 0.039021,
          "velocity": 0.283465,
          "start_tick": 144885,
          "duration_ticks": 59,
          "channel": 9
        },
        {
          "note": 82,
          "start": 95.862338,
          "duration": 0.039683,
          "velocity": 0.188976,
          "start_tick": 144944,
          "duration_ticks": 60,
          "channel": 9
        },
        {
          "note": 80,
          "start": 95.902021,
          "duration": 0.039682,
          "velocity": 0.629921,
          "start_tick": 145004,
          "duration_ticks": 60,
          "channel": 9
        },
        {
          "note": 80,
          "start": 96.060089,
          "duration": 0.039021,
          "velocity": 0.629921,
          "start_tick": 145243,
          "duration_ticks": 59,
          "channel": 9
        },
        {
          "note": 70,
          "start": 96.217496,
          "duration": 0.039682,
          "velocity": 0.629921,
          "start_tick": 145481,
          "duration_ticks": 60,
          "channel": 9
        },
        {
          "note": 70,
          "start": 96.375565,
          "duration": 0.039683,
          "velocity": 0.629921,
          "start_tick": 145720,
          "duration_ticks": 60,
          "channel": 9
        },
        {
          "note": 82,
          "start": 96.533634,
          "duration": 0.039021,
          "velocity": 0.834646,
          "start_tick": 145959,
          "duration_ticks": 59,
          "channel": 9
        },
        {
          "note": 82,
          "start": 96.572655,
          "duration": 0.039682,
          "velocity": 0.787402,
          "start_tick": 146018,
          "duration_ticks": 60,
          "channel": 9
        },
        {
          "note": 82,
          "start": 96.612337,
          "duration": 0.039682,
          "velocity": 0.740157,
          "start_tick": 146078,
          "duration_ticks": 60,
          "channel": 9
        },
        {
          "note": 82,
          "start": 96.65202,
          "duration": 0.039021,
          "velocity": 0.692913,
          "start_tick": 146138,
          "duration_ticks": 59,
          "channel": 9
        },
        {
          "note": 82,
          "start": 96.691041,
          "duration": 0.039682,
          "velocity": 0.645669,
          "start_tick": 146197,
          "duration_ticks": 60,
          "channel": 9
        },
        {
          "note": 82,
          "start": 96.730723,
          "duration": 0.039021,
          "velocity": 0.598425,
          "start_tick": 146257,
          "duration_ticks": 59,
          "channel": 9
        },
        {
          "note": 82,
          "start": 96.769745,
          "duration": 0.039682,
          "velocity": 0.551181,
          "start_tick": 146316,
          "duration_ticks": 60,
          "channel": 9
        },
        {
          "note": 82,
          "start": 96.809427,
          "duration": 0.039682,
          "velocity": 0.503937,
          "start_tick": 146376,
          "duration_ticks": 60,
          "channel": 9
        },
        {
          "note": 80,
          "start": 96.849109,
          "duration": 0.039021,
          "velocity": 0.629921,
          "start_tick": 146436,
          "duration_ticks": 59,
          "channel": 9
        },
        {
          "note": 82,
          "start": 96.849109,
          "duration": 0.039021,
          "velocity": 0.456693,
          "start_tick": 146436,
          "duration_ticks": 59,
          "channel": 9
        },
        {
          "note": 82,
          "start": 96.888131,
          "duration": 0.039682,
          "velocity": 0.409449,
          "start_tick": 146495,
          "duration_ticks": 60,
          "channel": 9
        },
        {
          "note": 82,
          "start": 96.927813,
          "duration": 0.039682,
          "velocity": 0.362205,
          "start_tick": 146555,
          "duration_ticks": 60,
          "channel": 9
        },
        {
          "note": 82,
          "start": 96.967496,
          "duration": 0.039021,
          "velocity": 0.314961,
          "start_tick": 146615,
          "duration_ticks": 59,
          "channel": 9
        },
        {
          "note": 80,
          "start": 97.006517,
          "duration": 0.039682,
          "velocity": 0.629921,
          "start_tick": 146674,
          "duration_ticks": 60,
          "channel": 9
        },
        {
          "note": 70,
          "start": 97.164585,
          "duration": 0.039682,
          "velocity": 0.811024,
          "start_tick": 146913,
          "duration_ticks": 60,
          "channel": 9
        },
        {
          "note": 70,
          "start": 97.204268,
          "duration": 0.039021,
          "velocity": 0.755906,
          "start_tick": 146973,
          "duration_ticks": 59,
          "channel": 9
        },
        {
          "note": 70,
          "start": 97.243289,
          "duration": 0.039682,
          "velocity": 0.708661,
          "start_tick": 147032,
          "duration_ticks": 60,
          "channel": 9
        },
        {
          "note": 70,
          "start": 97.282972,
          "duration": 0.039682,
          "velocity": 0.661417,
          "start_tick": 147092,
          "duration_ticks": 60,
          "channel": 9
        },
        {
          "note": 70,
          "start": 97.322654,
          "duration": 0.039021,
          "velocity": 0.606299,
          "start_tick": 147152,
          "duration_ticks": 59,
          "channel": 9
        },
        {
          "note": 70,
          "start": 97.361675,
          "duration": 0.039682,
          "velocity": 0.559055,
          "start_tick": 147211,
          "duration_ticks": 60,
          "channel": 9
        },
        {
          "note": 70,
          "start": 97.401358,
          "duration": 0.039682,
          "velocity": 0.511811,
          "start_tick": 147271,
          "duration_ticks": 60,
          "channel": 9
        },
        {
          "note": 70,
          "start": 97.44104,
          "duration": 0.039021,
          "velocity": 0.456693,
          "start_tick": 147331,
          "duration_ticks": 59,
          "channel": 9
        },
        {
          "note": 80,
          "start": 97.480061,
          "duration": 0.039682,
          "velocity": 0.629921,
          "start_tick": 147390,
          "duration_ticks": 60,
          "channel": 9
        },
        {
          "note": 80,
          "start": 97.63813,
          "duration": 0.039682,
          "velocity": 0.629921,
          "start_tick": 147629,
          "duration_ticks": 60,
          "channel": 9
        },
        {
          "note": 70,
          "start": 97.795537,
          "duration": 0.039682,
          "velocity": 0.629921,
          "start_tick": 147867,
          "duration_ticks": 60,
          "channel": 9
        },
        {
          "note": 82,
          "start": 97.953606,
          "duration": 0.039683,
          "velocity": 0.629921,
          "start_tick": 148106,
          "duration_ticks": 60,
          "channel": 9
        },
        {
          "note": 82,
          "start": 98.111674,
          "duration": 0.039021,
          "velocity": 0.850394,
          "start_tick": 148345,
          "duration_ticks": 59,
          "channel": 9
        },
        {
          "note": 82,
          "start": 98.150695,
          "duration": 0.039682,
          "velocity": 0.755906,
          "start_tick": 148404,
          "duration_ticks": 60,
          "channel": 9
        },
        {
          "note": 82,
          "start": 98.190378,
          "duration": 0.039682,
          "velocity": 0.661417,
          "start_tick": 148464,
          "duration_ticks": 60,
          "channel": 9
        },
        {
          "note": 82,
          "start": 98.23006,
          "duration": 0.039021,
          "velocity": 0.566929,
          "start_tick": 148524,
          "duration_ticks": 59,
          "channel": 9
        },
        {
          "note": 82,
          "start": 98.269082,
          "duration": 0.039682,
          "velocity": 0.472441,
          "start_tick": 148583,
          "duration_ticks": 60,
          "channel": 9
        },
        {
          "note": 82,
          "start": 98.308764,
          "duration": 0.039682,
          "velocity": 0.377953,
          "start_tick": 148643,
          "duration_ticks": 60,
          "channel": 9
        },
        {
          "note": 82,
          "start": 98.348447,
          "duration": 0.039021,
          "velocity": 0.283465,
          "start_tick": 148703,
          "duration_ticks": 59,
          "channel": 9
        },
        {
          "note": 82,
          "start": 98.387468,
          "duration": 0.039682,
          "velocity": 0.188976,
          "start_tick": 148762,
          "duration_ticks": 60,
          "channel": 9
        },
        {
          "note": 80,
          "start": 98.42715,
          "duration": 0.039682,
          "velocity": 0.629921,
          "start_tick": 148822,
          "duration_ticks": 60,
          "channel": 9
        },
        {
          "note": 80,
          "start": 98.585219,
          "duration": 0.039021,
          "velocity": 0.629921,
          "start_tick": 149061,
          "duration_ticks": 59,
          "channel": 9
        },
        {
          "note": 70,
          "start": 98.742626,
          "duration": 0.039682,
          "velocity": 0.629921,
          "start_tick": 149299,
          "duration_ticks": 60,
          "channel": 9
        },
        {
          "note": 70,
          "start": 98.900695,
          "duration": 0.039021,
          "velocity": 0.629921,
          "start_tick": 149538,
          "duration_ticks": 59,
          "channel": 9
        },
        {
          "note": 82,
          "start": 99.058102,
          "duration": 0.039682,
          "velocity": 0.834646,
          "start_tick": 149776,
          "duration_ticks": 60,
          "channel": 9
        },
        {
          "note": 82,
          "start": 99.097785,
          "duration": 0.039682,
          "velocity": 0.787402,
          "start_tick": 149836,
          "duration_ticks": 60,
          "channel": 9
        },
        {
          "note": 82,
          "start": 99.137467,
          "duration": 0.039021,
          "velocity": 0.740157,
          "start_tick": 149896,
          "duration_ticks": 59,
          "channel": 9
        },
        {
          "note": 82,
          "start": 99.176488,
          "duration": 0.039682,
          "velocity": 0.692913,
          "start_tick": 149955,
          "duration_ticks": 60,
          "channel": 9
        },
        {
          "note": 82,
          "start": 99.216171,
          "duration": 0.039682,
          "velocity": 0.645669,
          "start_tick": 150015,
          "duration_ticks": 60,
          "channel": 9
        },
        {
          "note": 82,
          "start": 99.255853,
          "duration": 0.039021,
          "velocity": 0.598425,
          "start_tick": 150075,
          "duration_ticks": 59,
          "channel": 9
        },
        {
          "note": 82,
          "start": 99.294874,
          "duration": 0.039682,
          "velocity": 0.551181,
          "start_tick": 150134,
          "duration_ticks": 60,
          "channel": 9
        },
        {
          "note": 82,
          "start": 99.334557,
          "duration": 0.039682,
          "velocity": 0.503937,
          "start_tick": 150194,
          "duration_ticks": 60,
          "channel": 9
        },
        {
          "note": 80,
          "start": 99.374239,
          "duration": 0.039021,
          "velocity": 0.629921,
          "start_tick": 150254,
          "duration_ticks": 59,
          "channel": 9
        },
        {
          "note": 82,
          "start": 99.374239,
          "duration": 0.039021,
          "velocity": 0.456693,
          "start_tick": 150254,
          "duration_ticks": 59,
          "channel": 9
        },
        {
          "note": 82,
          "start": 99.41326,
          "duration": 0.039683,
          "velocity": 0.409449,
          "start_tick": 150313,
          "duration_ticks": 60,
          "channel": 9
        },
        {
          "note": 82,
          "start": 99.452943,
          "duration": 0.039682,
          "velocity": 0.362205,
          "start_tick": 150373,
          "duration_ticks": 60,
          "channel": 9
        },
        {
          "note": 82,
          "start": 99.492625,
          "duration": 0.039021,
          "velocity": 0.314961,
          "start_tick": 150433,
          "duration_ticks": 59,
          "channel": 9
        },
        {
          "note": 80,
          "start": 99.531646,
          "duration": 0.039683,
          "velocity": 0.629921,
          "start_tick": 150492,
          "duration_ticks": 60,
          "channel": 9
        },
        {
          "note": 70,
          "start": 99.689715,
          "duration": 0.039682,
          "velocity": 0.811024,
          "start_tick": 150731,
          "duration_ticks": 60,
          "channel": 9
        },
        {
          "note": 70,
          "start": 99.729398,
          "duration": 0.039021,
          "velocity": 0.755906,
          "start_tick": 150791,
          "duration_ticks": 59,
          "channel": 9
        },
        {
          "note": 70,
          "start": 99.768419,
          "duration": 0.039683,
          "velocity": 0.708661,
          "start_tick": 150850,
          "duration_ticks": 60,
          "channel": 9
        },
        {
          "note": 70,
          "start": 99.808101,
          "duration": 0.039682,
          "velocity": 0.661417,
          "start_tick": 150910,
          "duration_ticks": 60,
          "channel": 9
        },
        {
          "note": 70,
          "start": 99.847784,
          "duration": 0.039021,
          "velocity": 0.606299,
          "start_tick": 150970,
          "duration_ticks": 59,
          "channel": 9
        },
        {
          "note": 70,
          "start": 99.886805,
          "duration": 0.039682,
          "velocity": 0.559055,
          "start_tick": 151029,
          "duration_ticks": 60,
          "channel": 9
        },
        {
          "note": 70,
          "start": 99.926487,
          "duration": 0.039021,
          "velocity": 0.511811,
          "start_tick": 151089,
          "duration_ticks": 59,
          "channel": 9
        },
        {
          "note": 70,
          "start": 99.965508,
          "duration": 0.039682,
          "velocity": 0.456693,
          "start_tick": 151148,
          "duration_ticks": 60,
          "channel": 9
        },
        {
          "note": 80,
          "start": 100.005191,
          "duration": 0.039682,
          "velocity": 0.629921,
          "start_tick": 151208,
          "duration_ticks": 60,
          "channel": 9
        },
        {
          "note": 80,
          "start": 100.16326,
          "duration": 0.039021,
          "velocity": 0.629921,
          "start_tick": 151447,
          "duration_ticks": 59,
          "channel": 9
        },
        {
          "note": 70,
          "start": 100.320667,
          "duration": 0.039682,
          "velocity": 0.629921,
          "start_tick": 151685,
          "duration_ticks": 60,
          "channel": 9
        },
        {
          "note": 82,
          "start": 100.478735,
          "duration": 0.039682,
          "velocity": 0.629921,
          "start_tick": 151924,
          "duration_ticks": 60,
          "channel": 9
        },
        {
          "note": 82,
          "start": 100.636804,
          "duration": 0.039021,
          "velocity": 0.850394,
          "start_tick": 152163,
          "duration_ticks": 59,
          "channel": 9
        },
        {
          "note": 82,
          "start": 100.675825,
          "duration": 0.039682,
          "velocity": 0.755906,
          "start_tick": 152222,
          "duration_ticks": 60,
          "channel": 9
        },
        {
          "note": 82,
          "start": 100.715508,
          "duration": 0.039682,
          "velocity": 0.661417,
          "start_tick": 152282,
          "duration_ticks": 60,
          "channel": 9
        },
        {
          "note": 82,
          "start": 100.75519,
          "duration": 0.039021,
          "velocity": 0.566929,
          "start_tick": 152342,
          "duration_ticks": 59,
          "channel": 9
        },
        {
          "note": 82,
          "start": 100.794211,
          "duration": 0.039682,
          "velocity": 0.472441,
          "start_tick": 152401,
          "duration_ticks": 60,
          "channel": 9
        },
        {
          "note": 82,
          "start": 100.833894,
          "duration": 0.039682,
          "velocity": 0.377953,
          "start_tick": 152461,
          "duration_ticks": 60,
          "channel": 9
        },
        {
          "note": 82,
          "start": 100.873576,
          "duration": 0.039021,
          "velocity": 0.283465,
          "start_tick": 152521,
          "duration_ticks": 59,
          "channel": 9
        },
        {
          "note": 82,
          "start": 100.912598,
          "duration": 0.039682,
          "velocity": 0.188976,
          "start_tick": 152580,
          "duration_ticks": 60,
          "channel": 9
        },
        {
          "note": 80,
          "start": 100.95228,
          "duration": 0.039021,
          "velocity": 0.629921,
          "start_tick": 152640,
          "duration_ticks": 59,
          "channel": 9
        },
        {
          "note": 80,
          "start": 101.109687,
          "duration": 0.039683,
          "velocity": 0.629921,
          "start_tick": 152878,
          "duration_ticks": 60,
          "channel": 9
        },
        {
          "note": 70,
          "start": 101.267756,
          "duration": 0.039682,
          "velocity": 0.629921,
          "start_tick": 153117,
          "duration_ticks": 60,
          "channel": 9
        },
        {
          "note": 70,
          "start": 101.425825,
          "duration": 0.039021,
          "velocity": 0.629921,
          "start_tick": 153356,
          "duration_ticks": 59,
          "channel": 9
        },
        {
          "note": 82,
          "start": 101.583232,
          "duration": 0.039682,
          "velocity": 0.834646,
          "start_tick": 153594,
          "duration_ticks": 60,
          "channel": 9
        },
        {
          "note": 82,
          "start": 101.622914,
          "duration": 0.039683,
          "velocity": 0.787402,
          "start_tick": 153654,
          "duration_ticks": 60,
          "channel": 9
        },
        {
          "note": 82,
          "start": 101.662597,
          "duration": 0.039021,
          "velocity": 0.740157,
          "start_tick": 153714,
          "duration_ticks": 59,
          "channel": 9
        },
        {
          "note": 82,
          "start": 101.701618,
          "duration": 0.039682,
          "velocity": 0.692913,
          "start_tick": 153773,
          "duration_ticks": 60,
          "channel": 9
        },
        {
          "note": 82,
          "start": 101.7413,
          "duration": 0.039683,
          "velocity": 0.645669,
          "start_tick": 153833,
          "duration_ticks": 60,
          "channel": 9
        },
        {
          "note": 82,
          "start": 101.780983,
          "duration": 0.039021,
          "velocity": 0.598425,
          "start_tick": 153893,
          "duration_ticks": 59,
          "channel": 9
        },
        {
          "note": 82,
          "start": 101.820004,
          "duration": 0.039682,
          "velocity": 0.551181,
          "start_tick": 153952,
          "duration_ticks": 60,
          "channel": 9
        },
        {
          "note": 82,
          "start": 101.859686,
          "duration": 0.039682,
          "velocity": 0.503937,
          "start_tick": 154012,
          "duration_ticks": 60,
          "channel": 9
        },
        {
          "note": 80,
          "start": 101.899369,
          "duration": 0.039021,
          "velocity": 0.629921,
          "start_tick": 154072,
          "duration_ticks": 59,
          "channel": 9
        },
        {
          "note": 82,
          "start": 101.899369,
          "duration": 0.039021,
          "velocity": 0.456693,
          "start_tick": 154072,
          "duration_ticks": 59,
          "channel": 9
        },
        {
          "note": 82,
          "start": 101.93839,
          "duration": 0.039682,
          "velocity": 0.409449,
          "start_tick": 154131,
          "duration_ticks": 60,
          "channel": 9
        },
        {
          "note": 82,
          "start": 101.978073,
          "duration": 0.039682,
          "velocity": 0.362205,
          "start_tick": 154191,
          "duration_ticks": 60,
          "channel": 9
        },
        {
          "note": 82,
          "start": 102.017755,
          "duration": 0.039021,
          "velocity": 0.314961,
          "start_tick": 154251,
          "duration_ticks": 59,
          "channel": 9
        },
        {
          "note": 80,
          "start": 102.056776,
          "duration": 0.039682,
          "velocity": 0.629921,
          "start_tick": 154310,
          "duration_ticks": 60,
          "channel": 9
        },
        {
          "note": 70,
          "start": 102.214845,
          "duration": 0.039021,
          "velocity": 0.811024,
          "start_tick": 154549,
          "duration_ticks": 59,
          "channel": 9
        },
        {
          "note": 70,
          "start": 102.253866,
          "duration": 0.039682,
          "velocity": 0.755906,
          "start_tick": 154608,
          "duration_ticks": 60,
          "channel": 9
        },
        {
          "note": 70,
          "start": 102.293548,
          "duration": 0.039682,
          "velocity": 0.708661,
          "start_tick": 154668,
          "duration_ticks": 60,
          "channel": 9
        },
        {
          "note": 70,
          "start": 102.333231,
          "duration": 0.039021,
          "velocity": 0.661417,
          "start_tick": 154728,
          "duration_ticks": 59,
          "channel": 9
        },
        {
          "note": 70,
          "start": 102.372252,
          "duration": 0.039682,
          "velocity": 0.606299,
          "start_tick": 154787,
          "duration_ticks": 60,
          "channel": 9
        },
        {
          "note": 70,
          "start": 102.411935,
          "duration": 0.039682,
          "velocity": 0.559055,
          "start_tick": 154847,
          "duration_ticks": 60,
          "channel": 9
        },
        {
          "note": 70,
          "start": 102.451617,
          "duration": 0.039021,
          "velocity": 0.511811,
          "start_tick": 154907,
          "duration_ticks": 59,
          "channel": 9
        },
        {
          "note": 70,
          "start": 102.490638,
          "duration": 0.039682,
          "velocity": 0.456693,
          "start_tick": 154966,
          "duration_ticks": 60,
          "channel": 9
        },
        {
          "note": 80,
          "start": 102.530321,
          "duration": 0.039682,
          "velocity": 0.629921,
          "start_tick": 155026,
          "duration_ticks": 60,
          "channel": 9
        },
        {
          "note": 80,
          "start": 102.688389,
          "duration": 0.039021,
          "velocity": 0.629921,
          "start_tick": 155265,
          "duration_ticks": 59,
          "channel": 9
        },
        {
          "note": 70,
          "start": 102.845797,
          "duration": 0.039682,
          "velocity": 0.629921,
          "start_tick": 155503,
          "duration_ticks": 60,
          "channel": 9
        },
        {
          "note": 82,
          "start": 103.003865,
          "duration": 0.039682,
          "velocity": 0.629921,
          "start_tick": 155742,
          "duration_ticks": 60,
          "channel": 9
        },
        {
          "note": 82,
          "start": 103.161272,
          "duration": 0.039682,
          "velocity": 0.850394,
          "start_tick": 155980,
          "duration_ticks": 60,
          "channel": 9
        },
        {
          "note": 82,
          "start": 103.200955,
          "duration": 0.039683,
          "velocity": 0.755906,
          "start_tick": 156040,
          "duration_ticks": 60,
          "channel": 9
        },
        {
          "note": 82,
          "start": 103.240638,
          "duration": 0.039021,
          "velocity": 0.661417,
          "start_tick": 156100,
          "duration_ticks": 59,
          "channel": 9
        },
        {
          "note": 82,
          "start": 103.279659,
          "duration": 0.039682,
          "velocity": 0.566929,
          "start_tick": 156159,
          "duration_ticks": 60,
          "channel": 9
        },
        {
          "note": 82,
          "start": 103.319341,
          "duration": 0.039683,
          "velocity": 0.472441,
          "start_tick": 156219,
          "duration_ticks": 60,
          "channel": 9
        },
        {
          "note": 82,
          "start": 103.359024,
          "duration": 0.039021,
          "velocity": 0.377953,
          "start_tick": 156279,
          "duration_ticks": 59,
          "channel": 9
        },
        {
          "note": 82,
          "start": 103.398045,
          "duration": 0.039682,
          "velocity": 0.283465,
          "start_tick": 156338,
          "duration_ticks": 60,
          "channel": 9
        },
        {
          "note": 82,
          "start": 103.437727,
          "duration": 0.039683,
          "velocity": 0.188976,
          "start_tick": 156398,
          "duration_ticks": 60,
          "channel": 9
        },
        {
          "note": 80,
          "start": 103.47741,
          "duration": 0.039021,
          "velocity": 0.629921,
          "start_tick": 156458,
          "duration_ticks": 59,
          "channel": 9
        },
        {
          "note": 80,
          "start": 103.634817,
          "duration": 0.039682,
          "velocity": 0.629921,
          "start_tick": 156696,
          "duration_ticks": 60,
          "channel": 9
        },
        {
          "note": 70,
          "start": 103.792886,
          "duration": 0.039682,
          "velocity": 0.629921,
          "start_tick": 156935,
          "duration_ticks": 60,
          "channel": 9
        },
        {
          "note": 70,
          "start": 103.950954,
          "duration": 0.039021,
          "velocity": 0.629921,
          "start_tick": 157174,
          "duration_ticks": 59,
          "channel": 9
        },
        {
          "note": 82,
          "start": 104.108362,
          "duration": 0.039682,
          "velocity": 0.834646,
          "start_tick": 157412,
          "duration_ticks": 60,
          "channel": 9
        },
        {
          "note": 82,
          "start": 104.148044,
          "duration": 0.039021,
          "velocity": 0.787402,
          "start_tick": 157472,
          "duration_ticks": 59,
          "channel": 9
        },
        {
          "note": 82,
          "start": 104.187065,
          "duration": 0.039682,
          "velocity": 0.740157,
          "start_tick": 157531,
          "duration_ticks": 60,
          "channel": 9
        },
        {
          "note": 82,
          "start": 104.226748,
          "duration": 0.039682,
          "velocity": 0.692913,
          "start_tick": 157591,
          "duration_ticks": 60,
          "channel": 9
        },
        {
          "note": 82,
          "start": 104.26643,
          "duration": 0.039021,
          "velocity": 0.645669,
          "start_tick": 157651,
          "duration_ticks": 59,
          "channel": 9
        },
        {
          "note": 82,
          "start": 104.305451,
          "duration": 0.039682,
          "velocity": 0.598425,
          "start_tick": 157710,
          "duration_ticks": 60,
          "channel": 9
        },
        {
          "note": 82,
          "start": 104.345134,
          "duration": 0.039682,
          "velocity": 0.551181,
          "start_tick": 157770,
          "duration_ticks": 60,
          "channel": 9
        },
        {
          "note": 82,
          "start": 104.384816,
          "duration": 0.039021,
          "velocity": 0.503937,
          "start_tick": 157830,
          "duration_ticks": 59,
          "channel": 9
        },
        {
          "note": 80,
          "start": 104.423837,
          "duration": 0.039682,
          "velocity": 0.629921,
          "start_tick": 157889,
          "duration_ticks": 60,
          "channel": 9
        },
        {
          "note": 82,
          "start": 104.423837,
          "duration": 0.039682,
          "velocity": 0.456693,
          "start_tick": 157889,
          "duration_ticks": 60,
          "channel": 9
        },
        {
          "note": 82,
          "start": 104.46352,
          "duration": 0.039682,
          "velocity": 0.409449,
          "start_tick": 157949,
          "duration_ticks": 60,
          "channel": 9
        },
        {
          "note": 82,
          "start": 104.503202,
          "duration": 0.039021,
          "velocity": 0.362205,
          "start_tick": 158009,
          "duration_ticks": 59,
          "channel": 9
        },
        {
          "note": 82,
          "start": 104.542224,
          "duration": 0.039682,
          "velocity": 0.314961,
          "start_tick": 158068,
          "duration_ticks": 60,
          "channel": 9
        },
        {
          "note": 80,
          "start": 104.581906,
          "duration": 0.039682,
          "velocity": 0.629921,
          "start_tick": 158128,
          "duration_ticks": 60,
          "channel": 9
        },
        {
          "note": 70,
          "start": 104.739975,
          "duration": 0.039021,
          "velocity": 0.811024,
          "start_tick": 158367,
          "duration_ticks": 59,
          "channel": 9
        },
        {
          "note": 70,
          "start": 104.778996,
          "duration": 0.039682,
          "velocity": 0.755906,
          "start_tick": 158426,
          "duration_ticks": 60,
          "channel": 9
        },
        {
          "note": 70,
          "start": 104.818678,
          "duration": 0.039682,
          "velocity": 0.708661,
          "start_tick": 158486,
          "duration_ticks": 60,
          "channel": 9
        },
        {
          "note": 70,
          "start": 104.858361,
          "duration": 0.039021,
          "velocity": 0.661417,
          "start_tick": 158546,
          "duration_ticks": 59,
          "channel": 9
        },
        {
          "note": 70,
          "start": 104.897382,
          "duration": 0.039683,
          "velocity": 0.606299,
          "start_tick": 158605,
          "duration_ticks": 60,
          "channel": 9
        },
        {
          "note": 70,
          "start": 104.937064,
          "duration": 0.039682,
          "velocity": 0.559055,
          "start_tick": 158665,
          "duration_ticks": 60,
          "channel": 9
        },
        {
          "note": 70,
          "start": 104.976747,
          "duration": 0.039021,
          "velocity": 0.511811,
          "start_tick": 158725,
          "duration_ticks": 59,
          "channel": 9
        },
        {
          "note": 70,
          "start": 105.015768,
          "duration": 0.039683,
          "velocity": 0.456693,
          "start_tick": 158784,
          "duration_ticks": 60,
          "channel": 9
        },
        {
          "note": 80,
          "start": 105.055451,
          "duration": 0.039682,
          "velocity": 0.629921,
          "start_tick": 158844,
          "duration_ticks": 60,
          "channel": 9
        },
        {
          "note": 80,
          "start": 105.212858,
          "duration": 0.039682,
          "velocity": 0.629921,
          "start_tick": 159082,
          "duration_ticks": 60,
          "channel": 9
        },
        {
          "note": 70,
          "start": 105.370926,
          "duration": 0.039682,
          "velocity": 0.629921,
          "start_tick": 159321,
          "duration_ticks": 60,
          "channel": 9
        },
        {
          "note": 82,
          "start": 105.528995,
          "duration": 0.039021,
          "velocity": 0.629921,
          "start_tick": 159560,
          "duration_ticks": 59,
          "channel": 9
        },
        {
          "note": 82,
          "start": 105.686402,
          "duration": 0.039682,
          "velocity": 0.850394,
          "start_tick": 159798,
          "duration_ticks": 60,
          "channel": 9
        },
        {
          "note": 82,
          "start": 105.726085,
          "duration": 0.039682,
          "velocity": 0.755906,
          "start_tick": 159858,
          "duration_ticks": 60,
          "channel": 9
        },
        {
          "note": 82,
          "start": 105.765767,
          "duration": 0.039021,
          "velocity": 0.661417,
          "start_tick": 159918,
          "duration_ticks": 59,
          "channel": 9
        },
        {
          "note": 82,
          "start": 105.804788,
          "duration": 0.039682,
          "velocity": 0.566929,
          "start_tick": 159977,
          "duration_ticks": 60,
          "channel": 9
        },
        {
          "note": 82,
          "start": 105.844471,
          "duration": 0.039682,
          "velocity": 0.472441,
          "start_tick": 160037,
          "duration_ticks": 60,
          "channel": 9
        },
        {
          "note": 82,
          "start": 105.884153,
          "duration": 0.039021,
          "velocity": 0.377953,
          "start_tick": 160097,
          "duration_ticks": 59,
          "channel": 9
        },
        {
          "note": 82,
          "start": 105.923175,
          "duration": 0.039682,
          "velocity": 0.283465,
          "start_tick": 160156,
          "duration_ticks": 60,
          "channel": 9
        },
        {
          "note": 82,
          "start": 105.962857,
          "duration": 0.039682,
          "velocity": 0.188976,
          "start_tick": 160216,
          "duration_ticks": 60,
          "channel": 9
        },
        {
          "note": 80,
          "start": 106.002539,
          "duration": 0.039021,
          "velocity": 0.629921,
          "start_tick": 160276,
          "duration_ticks": 59,
          "channel": 9
        },
        {
          "note": 80,
          "start": 106.159947,
          "duration": 0.039682,
          "velocity": 0.629921,
          "start_tick": 160514,
          "duration_ticks": 60,
          "channel": 9
        },
        {
          "note": 70,
          "start": 106.318015,
          "duration": 0.039021,
          "velocity": 0.629921,
          "start_tick": 160753,
          "duration_ticks": 59,
          "channel": 9
        },
        {
          "note": 70,
          "start": 106.475423,
          "duration": 0.039683,
          "velocity": 0.629921,
          "start_tick": 160991,
          "duration_ticks": 60,
          "channel": 9
        },
        {
          "note": 82,
          "start": 106.633491,
          "duration": 0.039682,
          "velocity": 0.834646,
          "start_tick": 161230,
          "duration_ticks": 60,
          "channel": 9
        },
        {
          "note": 82,
          "start": 106.673174,
          "duration": 0.039021,
          "velocity": 0.787402,
          "start_tick": 161290,
          "duration_ticks": 59,
          "channel": 9
        },
        {
          "note": 82,
          "start": 106.712195,
          "duration": 0.039683,
          "velocity": 0.740157,
          "start_tick": 161349,
          "duration_ticks": 60,
          "channel": 9
        },
        {
          "note": 82,
          "start": 106.751877,
          "duration": 0.039682,
          "velocity": 0.692913,
          "start_tick": 161409,
          "duration_ticks": 60,
          "channel": 9
        },
        {
          "note": 82,
          "start": 106.79156,
          "duration": 0.039021,
          "velocity": 0.645669,
          "start_tick": 161469,
          "duration_ticks": 59,
          "channel": 9
        },
        {
          "note": 82,
          "start": 106.830581,
          "duration": 0.039682,
          "velocity": 0.598425,
          "start_tick": 161528,
          "duration_ticks": 60,
          "channel": 9
        },
        {
          "note": 82,
          "start": 106.870263,
          "duration": 0.039683,
          "velocity": 0.551181,
          "start_tick": 161588,
          "duration_ticks": 60,
          "channel": 9
        },
        {
          "note": 82,
          "start": 106.909946,
          "duration": 0.039021,
          "velocity": 0.503937,
          "start_tick": 161648,
          "duration_ticks": 59,
          "channel": 9
        },
        {
          "note": 80,
          "start": 106.948967,
          "duration": 0.039682,
          "velocity": 0.629921,
          "start_tick": 161707,
          "duration_ticks": 60,
          "channel": 9
        },
        {
          "note": 82,
          "start": 106.948967,
          "duration": 0.039682,
          "velocity": 0.456693,
          "start_tick": 161707,
          "duration_ticks": 60,
          "channel": 9
        },
        {
          "note": 82,
          "start": 106.98865,
          "duration": 0.039683,
          "velocity": 0.409449,
          "start_tick": 161767,
          "duration_ticks": 60,
          "channel": 9
        },
        {
          "note": 82,
          "start": 107.028332,
          "duration": 0.039021,
          "velocity": 0.362205,
          "start_tick": 161827,
          "duration_ticks": 59,
          "channel": 9
        },
        {
          "note": 82,
          "start": 107.067353,
          "duration": 0.039682,
          "velocity": 0.314961,
          "start_tick": 161886,
          "duration_ticks": 60,
          "channel": 9
        },
        {
          "note": 80,
          "start": 107.107036,
          "duration": 0.039683,
          "velocity": 0.629921,
          "start_tick": 161946,
          "duration_ticks": 60,
          "channel": 9
        },
        {
          "note": 70,
          "start": 107.265104,
          "duration": 0.039021,
          "velocity": 0.811024,
          "start_tick": 162185,
          "duration_ticks": 59,
          "channel": 9
        },
        {
          "note": 70,
          "start": 107.304125,
          "duration": 0.039682,
          "velocity": 0.755906,
          "start_tick": 162244,
          "duration_ticks": 60,
          "channel": 9
        },
        {
          "note": 70,
          "start": 107.343808,
          "duration": 0.039021,
          "velocity": 0.708661,
          "start_tick": 162304,
          "duration_ticks": 59,
          "channel": 9
        },
        {
          "note": 70,
          "start": 107.382829,
          "duration": 0.039682,
          "velocity": 0.661417,
          "start_tick": 162363,
          "duration_ticks": 60,
          "channel": 9
        },
        {
          "note": 70,
          "start": 107.422512,
          "duration": 0.039682,
          "velocity": 0.606299,
          "start_tick": 162423,
          "duration_ticks": 60,
          "channel": 9
        },
        {
          "note": 70,
          "start": 107.462194,
          "duration": 0.039021,
          "velocity": 0.559055,
          "start_tick": 162483,
          "duration_ticks": 59,
          "channel": 9
        },
        {
          "note": 70,
          "start": 107.501215,
          "duration": 0.039682,
          "velocity": 0.511811,
          "start_tick": 162542,
          "duration_ticks": 60,
          "channel": 9
        },
        {
          "note": 70,
          "start": 107.540898,
          "duration": 0.039682,
          "velocity": 0.456693,
          "start_tick": 162602,
          "duration_ticks": 60,
          "channel": 9
        },
        {
          "note": 80,
          "start": 107.58058,
          "duration": 0.039021,
          "velocity": 0.629921,
          "start_tick": 162662,
          "duration_ticks": 59,
          "channel": 9
        },
        {
          "note": 80,
          "start": 107.737988,
          "duration": 0.039682,
          "velocity": 0.629921,
          "start_tick": 162900,
          "duration_ticks": 60,
          "channel": 9
        },
        {
          "note": 70,
          "start": 107.896056,
          "duration": 0.039682,
          "velocity": 0.629921,
          "start_tick": 163139,
          "duration_ticks": 60,
          "channel": 9
        },
        {
          "note": 82,
          "start": 108.054125,
          "duration": 0.039021,
          "velocity": 0.629921,
          "start_tick": 163378,
          "duration_ticks": 59,
          "channel": 9
        },
        {
          "note": 82,
          "start": 108.211532,
          "duration": 0.039682,
          "velocity": 0.850394,
          "start_tick": 163616,
          "duration_ticks": 60,
          "channel": 9
        },
        {
          "note": 82,
          "start": 108.251215,
          "duration": 0.039682,
          "velocity": 0.755906,
          "start_tick": 163676,
          "duration_ticks": 60,
          "channel": 9
        },
        {
          "note": 82,
          "start": 108.290897,
          "duration": 0.039021,
          "velocity": 0.661417,
          "start_tick": 163736,
          "duration_ticks": 59,
          "channel": 9
        },
        {
          "note": 82,
          "start": 108.329918,
          "duration": 0.039682,
          "velocity": 0.566929,
          "start_tick": 163795,
          "duration_ticks": 60,
          "channel": 9
        },
        {
          "note": 82,
          "start": 108.369601,
          "duration": 0.039021,
          "velocity": 0.472441,
          "start_tick": 163855,
          "duration_ticks": 59,
          "channel": 9
        },
        {
          "note": 82,
          "start": 108.408622,
          "duration": 0.039683,
          "velocity": 0.377953,
          "start_tick": 163914,
          "duration_ticks": 60,
          "channel": 9
        },
        {
          "note": 82,
          "start": 108.448304,
          "duration": 0.039682,
          "velocity": 0.283465,
          "start_tick": 163974,
          "duration_ticks": 60,
          "channel": 9
        },
        {
          "note": 82,
          "start": 108.487987,
          "duration": 0.039021,
          "velocity": 0.188976,
          "start_tick": 164034,
          "duration_ticks": 59,
          "channel": 9
        },
        {
          "note": 80,
          "start": 108.527008,
          "duration": 0.039682,
          "velocity": 0.629921,
          "start_tick": 164093,
          "duration_ticks": 60,
          "channel": 9
        },
        {
          "note": 80,
          "start": 108.685076,
          "duration": 0.039683,
          "velocity": 0.629921,
          "start_tick": 164332,
          "duration_ticks": 60,
          "channel": 9
        },
        {
          "note": 70,
          "start": 108.843145,
          "duration": 0.039021,
          "velocity": 0.629921,
          "start_tick": 164571,
          "duration_ticks": 59,
          "channel": 9
        },
        {
          "note": 70,
          "start": 109.000552,
          "duration": 0.039682,
          "velocity": 0.629921,
          "start_tick": 164809,
          "duration_ticks": 60,
          "channel": 9
        },
        {
          "note": 82,
          "start": 109.158621,
          "duration": 0.039682,
          "velocity": 0.834646,
          "start_tick": 165048,
          "duration_ticks": 60,
          "channel": 9
        },
        {
          "note": 82,
          "start": 109.198303,
          "duration": 0.039021,
          "velocity": 0.787402,
          "start_tick": 165108,
          "duration_ticks": 59,
          "channel": 9
        },
        {
          "note": 82,
          "start": 109.237325,
          "duration": 0.039682,
          "velocity": 0.740157,
          "start_tick": 165167,
          "duration_ticks": 60,
          "channel": 9
        },
        {
          "note": 82,
          "start": 109.277007,
          "duration": 0.039682,
          "velocity": 0.692913,
          "start_tick": 165227,
          "duration_ticks": 60,
          "channel": 9
        },
        {
          "note": 82,
          "start": 109.31669,
          "duration": 0.039021,
          "velocity": 0.645669,
          "start_tick": 165287,
          "duration_ticks": 59,
          "channel": 9
        },
        {
          "note": 82,
          "start": 109.355711,
          "duration": 0.039682,
          "velocity": 0.598425,
          "start_tick": 165346,
          "duration_ticks": 60,
          "channel": 9
        },
        {
          "note": 82,
          "start": 109.395393,
          "duration": 0.039682,
          "velocity": 0.551181,
          "start_tick": 165406,
          "duration_ticks": 60,
          "channel": 9
        },
        {
          "note": 82,
          "start": 109.435076,
          "duration": 0.039021,
          "velocity": 0.503937,
          "start_tick": 165466,
          "duration_ticks": 59,
          "channel": 9
        },
        {
          "note": 80,
          "start": 109.474097,
          "duration": 0.039682,
          "velocity": 0.629921,
          "start_tick": 165525,
          "duration_ticks": 60,
          "channel": 9
        },
        {
          "note": 82,
          "start": 109.474097,
          "duration": 0.039682,
          "velocity": 0.456693,
          "start_tick": 165525,
          "duration_ticks": 60,
          "channel": 9
        },
        {
          "note": 82,
          "start": 109.513779,
          "duration": 0.039021,
          "velocity": 0.409449,
          "start_tick": 165585,
          "duration_ticks": 59,
          "channel": 9
        },
        {
          "note": 82,
          "start": 109.552801,
          "duration": 0.039682,
          "velocity": 0.362205,
          "start_tick": 165644,
          "duration_ticks": 60,
          "channel": 9
        },
        {
          "note": 82,
          "start": 109.592483,
          "duration": 0.039682,
          "velocity": 0.314961,
          "start_tick": 165704,
          "duration_ticks": 60,
          "channel": 9
        },
        {
          "note": 80,
          "start": 109.632165,
          "duration": 0.039021,
          "velocity": 0.629921,
          "start_tick": 165764,
          "duration_ticks": 59,
          "channel": 9
        },
        {
          "note": 70,
          "start": 109.789573,
          "duration": 0.039682,
          "velocity": 0.811024,
          "start_tick": 166002,
          "duration_ticks": 60,
          "channel": 9
        },
        {
          "note": 70,
          "start": 109.829255,
          "duration": 0.039682,
          "velocity": 0.755906,
          "start_tick": 166062,
          "duration_ticks": 60,
          "channel": 9
        },
        {
          "note": 70,
          "start": 109.868938,
          "duration": 0.039021,
          "velocity": 0.708661,
          "start_tick": 166122,
          "duration_ticks": 59,
          "channel": 9
        },
        {
          "note": 70,
          "start": 109.907959,
          "duration": 0.039682,
          "velocity": 0.661417,
          "start_tick": 166181,
          "duration_ticks": 60,
          "channel": 9
        },
        {
          "note": 70,
          "start": 109.947641,
          "duration": 0.039682,
          "velocity": 0.606299,
          "start_tick": 166241,
          "duration_ticks": 60,
          "channel": 9
        },
        {
          "note": 70,
          "start": 109.987324,
          "duration": 0.039021,
          "velocity": 0.559055,
          "start_tick": 166301,
          "duration_ticks": 59,
          "channel": 9
        },
        {
          "note": 70,
          "start": 110.026345,
          "duration": 0.039682,
          "velocity": 0.511811,
          "start_tick": 166360,
          "duration_ticks": 60,
          "channel": 9
        },
        {
          "note": 70,
          "start": 110.066028,
          "duration": 0.039682,
          "velocity": 0.456693,
          "start_tick": 166420,
          "duration_ticks": 60,
          "channel": 9
        },
        {
          "note": 80,
          "start": 110.10571,
          "duration": 0.039021,
          "velocity": 0.629921,
          "start_tick": 166480,
          "duration_ticks": 59,
          "channel": 9
        },
        {
          "note": 80,
          "start": 110.263117,
          "duration": 0.039683,
          "velocity": 0.629921,
          "start_tick": 166718,
          "duration_ticks": 60,
          "channel": 9
        },
        {
          "note": 70,
          "start": 110.421186,
          "duration": 0.039682,
          "velocity": 0.629921,
          "start_tick": 166957,
          "duration_ticks": 60,
          "channel": 9
        },
        {
          "note": 82,
          "start": 110.578593,
          "duration": 0.039682,
          "velocity": 0.629921,
          "start_tick": 167195,
          "duration_ticks": 60,
          "channel": 9
        },
        {
          "note": 82,
          "start": 110.736662,
          "duration": 0.039682,
          "velocity": 0.850394,
          "start_tick": 167434,
          "duration_ticks": 60,
          "channel": 9
        },
        {
          "note": 82,
          "start": 110.776344,
          "duration": 0.039021,
          "velocity": 0.755906,
          "start_tick": 167494,
          "duration_ticks": 59,
          "channel": 9
        },
        {
          "note": 82,
          "start": 110.815365,
          "duration": 0.039682,
          "velocity": 0.661417,
          "start_tick": 167553,
          "duration_ticks": 60,
          "channel": 9
        },
        {
          "note": 82,
          "start": 110.855048,
          "duration": 0.039682,
          "velocity": 0.566929,
          "start_tick": 167613,
          "duration_ticks": 60,
          "channel": 9
        },
        {
          "note": 82,
          "start": 110.89473,
          "duration": 0.039021,
          "velocity": 0.472441,
          "start_tick": 167673,
          "duration_ticks": 59,
          "channel": 9
        },
        {
          "note": 82,
          "start": 110.933751,
          "duration": 0.039682,
          "velocity": 0.377953,
          "start_tick": 167732,
          "duration_ticks": 60,
          "channel": 9
        },
        {
          "note": 82,
          "start": 110.973434,
          "duration": 0.039682,
          "velocity": 0.283465,
          "start_tick": 167792,
          "duration_ticks": 60,
          "channel": 9
        },
        {
          "note": 82,
          "start": 111.013116,
          "duration": 0.039021,
          "velocity": 0.188976,
          "start_tick": 167852,
          "duration_ticks": 59,
          "channel": 9
        },
        {
          "note": 80,
          "start": 111.052138,
          "duration": 0.039682,
          "velocity": 0.629921,
          "start_tick": 167911,
          "duration_ticks": 60,
          "channel": 9
        },
        {
          "note": 80,
          "start": 111.210206,
          "duration": 0.039682,
          "velocity": 0.629921,
          "start_tick": 168150,
          "duration_ticks": 60,
          "channel": 9
        },
        {
          "note": 70,
          "start": 111.368275,
          "duration": 0.039021,
          "velocity": 0.629921,
          "start_tick": 168389,
          "duration_ticks": 59,
          "channel": 9
        },
        {
          "note": 70,
          "start": 111.525682,
          "duration": 0.039682,
          "velocity": 0.629921,
          "start_tick": 168627,
          "duration_ticks": 60,
          "channel": 9
        },
        {
          "note": 82,
          "start": 111.683751,
          "duration": 0.039021,
          "velocity": 0.834646,
          "start_tick": 168866,
          "duration_ticks": 59,
          "channel": 9
        },
        {
          "note": 82,
          "start": 111.722772,
          "duration": 0.039682,
          "velocity": 0.787402,
          "start_tick": 168925,
          "duration_ticks": 60,
          "channel": 9
        },
        {
          "note": 82,
          "start": 111.762454,
          "duration": 0.039682,
          "velocity": 0.740157,
          "start_tick": 168985,
          "duration_ticks": 60,
          "channel": 9
        },
        {
          "note": 82,
          "start": 111.802137,
          "duration": 0.039021,
          "velocity": 0.692913,
          "start_tick": 169045,
          "duration_ticks": 59,
          "channel": 9
        },
        {
          "note": 82,
          "start": 111.841158,
          "duration": 0.039683,
          "velocity": 0.645669,
          "start_tick": 169104,
          "duration_ticks": 60,
          "channel": 9
        },
        {
          "note": 82,
          "start": 111.880841,
          "duration": 0.039682,
          "velocity": 0.598425,
          "start_tick": 169164,
          "duration_ticks": 60,
          "channel": 9
        },
        {
          "note": 82,
          "start": 111.920523,
          "duration": 0.039021,
          "velocity": 0.551181,
          "start_tick": 169224,
          "duration_ticks": 59,
          "channel": 9
        },
        {
          "note": 82,
          "start": 111.959544,
          "duration": 0.039683,
          "velocity": 0.503937,
          "start_tick": 169283,
          "duration_ticks": 60,
          "channel": 9
        },
        {
          "note": 80,
          "start": 111.999227,
          "duration": 0.039682,
          "velocity": 0.629921,
          "start_tick": 169343,
          "duration_ticks": 60,
          "channel": 9
        },
        {
          "note": 82,
          "start": 111.999227,
          "duration": 0.039682,
          "velocity": 0.456693,
          "start_tick": 169343,
          "duration_ticks": 60,
          "channel": 9
        },
        {
          "note": 82,
          "start": 112.038909,
          "duration": 0.039021,
          "velocity": 0.409449,
          "start_tick": 169403,
          "duration_ticks": 59,
          "channel": 9
        },
        {
          "note": 82,
          "start": 112.07793,
          "duration": 0.039683,
          "velocity": 0.362205,
          "start_tick": 169462,
          "duration_ticks": 60,
          "channel": 9
        },
        {
          "note": 82,
          "start": 112.117613,
          "duration": 0.039682,
          "velocity": 0.314961,
          "start_tick": 169522,
          "duration_ticks": 60,
          "channel": 9
        },
        {
          "note": 80,
          "start": 112.157295,
          "duration": 0.039021,
          "velocity": 0.629921,
          "start_tick": 169582,
          "duration_ticks": 59,
          "channel": 9
        },
        {
          "note": 70,
          "start": 112.314702,
          "duration": 0.039682,
          "velocity": 0.811024,
          "start_tick": 169820,
          "duration_ticks": 60,
          "channel": 9
        },
        {
          "note": 70,
          "start": 112.354385,
          "duration": 0.039683,
          "velocity": 0.755906,
          "start_tick": 169880,
          "duration_ticks": 60,
          "channel": 9
        },
        {
          "note": 70,
          "start": 112.394068,
          "duration": 0.039021,
          "velocity": 0.708661,
          "start_tick": 169940,
          "duration_ticks": 59,
          "channel": 9
        },
        {
          "note": 70,
          "start": 112.433089,
          "duration": 0.039682,
          "velocity": 0.661417,
          "start_tick": 169999,
          "duration_ticks": 60,
          "channel": 9
        },
        {
          "note": 70,
          "start": 112.472771,
          "duration": 0.039683,
          "velocity": 0.606299,
          "start_tick": 170059,
          "duration_ticks": 60,
          "channel": 9
        },
        {
          "note": 70,
          "start": 112.512454,
          "duration": 0.039021,
          "velocity": 0.559055,
          "start_tick": 170119,
          "duration_ticks": 59,
          "channel": 9
        },
        {
          "note": 70,
          "start": 112.551475,
          "duration": 0.039682,
          "velocity": 0.511811,
          "start_tick": 170178,
          "duration_ticks": 60,
          "channel": 9
        },
        {
          "note": 70,
          "start": 112.591157,
          "duration": 0.039021,
          "velocity": 0.456693,
          "start_tick": 170238,
          "duration_ticks": 59,
          "channel": 9
        },
        {
          "note": 80,
          "start": 112.630178,
          "duration": 0.039682,
          "velocity": 0.629921,
          "start_tick": 170297,
          "duration_ticks": 60,
          "channel": 9
        },
        {
          "note": 80,
          "start": 112.788247,
          "duration": 0.039682,
          "velocity": 0.629921,
          "start_tick": 170536,
          "duration_ticks": 60,
          "channel": 9
        },
        {
          "note": 70,
          "start": 112.946316,
          "duration": 0.039021,
          "velocity": 0.629921,
          "start_tick": 170775,
          "duration_ticks": 59,
          "channel": 9
        },
        {
          "note": 82,
          "start": 113.103723,
          "duration": 0.039682,
          "velocity": 0.629921,
          "start_tick": 171013,
          "duration_ticks": 60,
          "channel": 9
        },
        {
          "note": 82,
          "start": 113.261792,
          "duration": 0.039682,
          "velocity": 0.850394,
          "start_tick": 171252,
          "duration_ticks": 60,
          "channel": 9
        },
        {
          "note": 82,
          "start": 113.301474,
          "duration": 0.039021,
          "velocity": 0.755906,
          "start_tick": 171312,
          "duration_ticks": 59,
          "channel": 9
        },
        {
          "note": 82,
          "start": 113.340495,
          "duration": 0.039682,
          "velocity": 0.661417,
          "start_tick": 171371,
          "duration_ticks": 60,
          "channel": 9
        },
        {
          "note": 82,
          "start": 113.380178,
          "duration": 0.039682,
          "velocity": 0.566929,
          "start_tick": 171431,
          "duration_ticks": 60,
          "channel": 9
        },
        {
          "note": 82,
          "start": 113.41986,
          "duration": 0.039021,
          "velocity": 0.472441,
          "start_tick": 171491,
          "duration_ticks": 59,
          "channel": 9
        },
        {
          "note": 82,
          "start": 113.458881,
          "duration": 0.039682,
          "velocity": 0.377953,
          "start_tick": 171550,
          "duration_ticks": 60,
          "channel": 9
        },
        {
          "note": 82,
          "start": 113.498564,
          "duration": 0.039682,
          "velocity": 0.283465,
          "start_tick": 171610,
          "duration_ticks": 60,
          "channel": 9
        },
        {
          "note": 82,
          "start": 113.538246,
          "duration": 0.039021,
          "velocity": 0.188976,
          "start_tick": 171670,
          "duration_ticks": 59,
          "channel": 9
        },
        {
          "note": 80,
          "start": 113.577267,
          "duration": 0.039682,
          "velocity": 0.629921,
          "start_tick": 171729,
          "duration_ticks": 60,
          "channel": 9
        },
        {
          "note": 80,
          "start": 113.735336,
          "duration": 0.039021,
          "velocity": 0.629921,
          "start_tick": 171968,
          "duration_ticks": 59,
          "channel": 9
        },
        {
          "note": 70,
          "start": 113.892743,
          "duration": 0.039682,
          "velocity": 0.629921,
          "start_tick": 172206,
          "duration_ticks": 60,
          "channel": 9
        },
        {
          "note": 70,
          "start": 114.050812,
          "duration": 0.039683,
          "velocity": 0.629921,
          "start_tick": 172445,
          "duration_ticks": 60,
          "channel": 9
        },
        {
          "note": 82,
          "start": 114.208881,
          "duration": 0.039021,
          "velocity": 0.834646,
          "start_tick": 172684,
          "duration_ticks": 59,
          "channel": 9
        },
        {
          "note": 82,
          "start": 114.247902,
          "duration": 0.039682,
          "velocity": 0.787402,
          "start_tick": 172743,
          "duration_ticks": 60,
          "channel": 9
        },
        {
          "note": 82,
          "start": 114.287584,
          "duration": 0.039682,
          "velocity": 0.740157,
          "start_tick": 172803,
          "duration_ticks": 60,
          "channel": 9
        },
        {
          "note": 82,
          "start": 114.327267,
          "duration": 0.039021,
          "velocity": 0.692913,
          "start_tick": 172863,
          "duration_ticks": 59,
          "channel": 9
        },
        {
          "note": 82,
          "start": 114.366288,
          "duration": 0.039682,
          "velocity": 0.645669,
          "start_tick": 172922,
          "duration_ticks": 60,
          "channel": 9
        },
        {
          "note": 82,
          "start": 114.40597,
          "duration": 0.039682,
          "velocity": 0.598425,
          "start_tick": 172982,
          "duration_ticks": 60,
          "channel": 9
        },
        {
          "note": 82,
          "start": 114.445653,
          "duration": 0.039021,
          "velocity": 0.551181,
          "start_tick": 173042,
          "duration_ticks": 59,
          "channel": 9
        },
        {
          "note": 82,
          "start": 114.484674,
          "duration": 0.039682,
          "velocity": 0.503937,
          "start_tick": 173101,
          "duration_ticks": 60,
          "channel": 9
        },
        {
          "note": 80,
          "start": 114.524356,
          "duration": 0.039682,
          "velocity": 0.629921,
          "start_tick": 173161,
          "duration_ticks": 60,
          "channel": 9
        },
        {
          "note": 82,
          "start": 114.524356,
          "duration": 0.039682,
          "velocity": 0.456693,
          "start_tick": 173161,
          "duration_ticks": 60,
          "channel": 9
        },
        {
          "note": 82,
          "start": 114.564039,
          "duration": 0.039021,
          "velocity": 0.409449,
          "start_tick": 173221,
          "duration_ticks": 59,
          "channel": 9
        },
        {
          "note": 82,
          "start": 114.60306,
          "duration": 0.039682,
          "velocity": 0.362205,
          "start_tick": 173280,
          "duration_ticks": 60,
          "channel": 9
        },
        {
          "note": 82,
          "start": 114.642742,
          "duration": 0.039682,
          "velocity": 0.314961,
          "start_tick": 173340,
          "duration_ticks": 60,
          "channel": 9
        },
        {
          "note": 80,
          "start": 114.682425,
          "duration": 0.039021,
          "velocity": 0.629921,
          "start_tick": 173400,
          "duration_ticks": 59,
          "channel": 9
        },
        {
          "note": 70,
          "start": 114.839832,
          "duration": 0.039682,
          "velocity": 0.811024,
          "start_tick": 173638,
          "duration_ticks": 60,
          "channel": 9
        },
        {
          "note": 70,
          "start": 114.879515,
          "duration": 0.039021,
          "velocity": 0.755906,
          "start_tick": 173698,
          "duration_ticks": 59,
          "channel": 9
        },
        {
          "note": 70,
          "start": 114.918536,
          "duration": 0.039682,
          "velocity": 0.708661,
          "start_tick": 173757,
          "duration_ticks": 60,
          "channel": 9
        },
        {
          "note": 70,
          "start": 114.958218,
          "duration": 0.039682,
          "velocity": 0.661417,
          "start_tick": 173817,
          "duration_ticks": 60,
          "channel": 9
        },
        {
          "note": 70,
          "start": 114.997901,
          "duration": 0.039021,
          "velocity": 0.606299,
          "start_tick": 173877,
          "duration_ticks": 59,
          "channel": 9
        },
        {
          "note": 70,
          "start": 115.036922,
          "duration": 0.039682,
          "velocity": 0.559055,
          "start_tick": 173936,
          "duration_ticks": 60,
          "channel": 9
        },
        {
          "note": 70,
          "start": 115.076605,
          "duration": 0.039682,
          "velocity": 0.511811,
          "start_tick": 173996,
          "duration_ticks": 60,
          "channel": 9
        },
        {
          "note": 70,
          "start": 115.116287,
          "duration": 0.039021,
          "velocity": 0.456693,
          "start_tick": 174056,
          "duration_ticks": 59,
          "channel": 9
        },
        {
          "note": 80,
          "start": 115.155308,
          "duration": 0.039682,
          "velocity": 0.629921,
          "start_tick": 174115,
          "duration_ticks": 60,
          "channel": 9
        },
        {
          "note": 80,
          "start": 115.313377,
          "duration": 0.039682,
          "velocity": 0.629921,
          "start_tick": 174354,
          "duration_ticks": 60,
          "channel": 9
        },
        {
          "note": 70,
          "start": 115.471445,
          "duration": 0.039021,
          "velocity": 0.629921,
          "start_tick": 174593,
          "duration_ticks": 59,
          "channel": 9
        },
        {
          "note": 82,
          "start": 115.628853,
          "duration": 0.039683,
          "velocity": 0.629921,
          "start_tick": 174831,
          "duration_ticks": 60,
          "channel": 9
        },
        {
          "note": 82,
          "start": 115.786921,
          "duration": 0.039021,
          "velocity": 0.850394,
          "start_tick": 175070,
          "duration_ticks": 59,
          "channel": 9
        },
        {
          "note": 82,
          "start": 115.825942,
          "duration": 0.039682,
          "velocity": 0.755906,
          "start_tick": 175129,
          "duration_ticks": 60,
          "channel": 9
        },
        {
          "note": 82,
          "start": 115.865625,
          "duration": 0.039683,
          "velocity": 0.661417,
          "start_tick": 175189,
          "duration_ticks": 60,
          "channel": 9
        },
        {
          "note": 82,
          "start": 115.905307,
          "duration": 0.039021,
          "velocity": 0.566929,
          "start_tick": 175249,
          "duration_ticks": 59,
          "channel": 9
        },
        {
          "note": 82,
          "start": 115.944328,
          "duration": 0.039682,
          "velocity": 0.472441,
          "start_tick": 175308,
          "duration_ticks": 60,
          "channel": 9
        },
        {
          "note": 82,
          "start": 115.984011,
          "duration": 0.039682,
          "velocity": 0.377953,
          "start_tick": 175368,
          "duration_ticks": 60,
          "channel": 9
        },
        {
          "note": 82,
          "start": 116.023693,
          "duration": 0.039021,
          "velocity": 0.283465,
          "start_tick": 175428,
          "duration_ticks": 59,
          "channel": 9
        },
        {
          "note": 82,
          "start": 116.062715,
          "duration": 0.039682,
          "velocity": 0.188976,
          "start_tick": 175487,
          "duration_ticks": 60,
          "channel": 9
        },
        {
          "note": 80,
          "start": 116.102397,
          "duration": 0.039682,
          "velocity": 0.629921,
          "start_tick": 175547,
          "duration_ticks": 60,
          "channel": 9
        },
        {
          "note": 80,
          "start": 116.260466,
          "duration": 0.039021,
          "velocity": 0.629921,
          "start_tick": 175786,
          "duration_ticks": 59,
          "channel": 9
        },
        {
          "note": 70,
          "start": 116.417873,
          "duration": 0.039682,
          "velocity": 0.629921,
          "start_tick": 176024,
          "duration_ticks": 60,
          "channel": 9
        },
        {
          "note": 70,
          "start": 116.575942,
          "duration": 0.039682,
          "velocity": 0.629921,
          "start_tick": 176263,
          "duration_ticks": 60,
          "channel": 9
        },
        {
          "note": 82,
          "start": 116.73401,
          "duration": 0.039021,
          "velocity": 0.834646,
          "start_tick": 176502,
          "duration_ticks": 59,
          "channel": 9
        },
        {
          "note": 82,
          "start": 116.773031,
          "duration": 0.039682,
          "velocity": 0.787402,
          "start_tick": 176561,
          "duration_ticks": 60,
          "channel": 9
        },
        {
          "note": 82,
          "start": 116.812714,
          "duration": 0.039682,
          "velocity": 0.740157,
          "start_tick": 176621,
          "duration_ticks": 60,
          "channel": 9
        },
        {
          "note": 82,
          "start": 116.852396,
          "duration": 0.039021,
          "velocity": 0.692913,
          "start_tick": 176681,
          "duration_ticks": 59,
          "channel": 9
        },
        {
          "note": 82,
          "start": 116.891418,
          "duration": 0.039682,
          "velocity": 0.645669,
          "start_tick": 176740,
          "duration_ticks": 60,
          "channel": 9
        },
        {
          "note": 82,
          "start": 116.9311,
          "duration": 0.039021,
          "velocity": 0.598425,
          "start_tick": 176800,
          "duration_ticks": 59,
          "channel": 9
        },
        {
          "note": 82,
          "start": 116.970121,
          "duration": 0.039682,
          "velocity": 0.551181,
          "start_tick": 176859,
          "duration_ticks": 60,
          "channel": 9
        },
        {
          "note": 82,
          "start": 117.009804,
          "duration": 0.039682,
          "velocity": 0.503937,
          "start_tick": 176919,
          "duration_ticks": 60,
          "channel": 9
        },
        {
          "note": 80,
          "start": 117.049486,
          "duration": 0.039021,
          "velocity": 0.629921,
          "start_tick": 176979,
          "duration_ticks": 59,
          "channel": 9
        },
        {
          "note": 82,
          "start": 117.049486,
          "duration": 0.039021,
          "velocity": 0.456693,
          "start_tick": 176979,
          "duration_ticks": 59,
          "channel": 9
        },
        {
          "note": 82,
          "start": 117.088507,
          "duration": 0.039682,
          "velocity": 0.409449,
          "start_tick": 177038,
          "duration_ticks": 60,
          "channel": 9
        },
        {
          "note": 82,
          "start": 117.12819,
          "duration": 0.039682,
          "velocity": 0.362205,
          "start_tick": 177098,
          "duration_ticks": 60,
          "channel": 9
        },
        {
          "note": 82,
          "start": 117.167872,
          "duration": 0.039021,
          "velocity": 0.314961,
          "start_tick": 177158,
          "duration_ticks": 59,
          "channel": 9
        },
        {
          "note": 80,
          "start": 117.206893,
          "duration": 0.039682,
          "velocity": 0.629921,
          "start_tick": 177217,
          "duration_ticks": 60,
          "channel": 9
        },
        {
          "note": 70,
          "start": 117.364962,
          "duration": 0.039682,
          "velocity": 0.811024,
          "start_tick": 177456,
          "duration_ticks": 60,
          "channel": 9
        },
        {
          "note": 70,
          "start": 117.404645,
          "duration": 0.039021,
          "velocity": 0.755906,
          "start_tick": 177516,
          "duration_ticks": 59,
          "channel": 9
        },
        {
          "note": 70,
          "start": 117.443666,
          "duration": 0.039683,
          "velocity": 0.708661,
          "start_tick": 177575,
          "duration_ticks": 60,
          "channel": 9
        },
        {
          "note": 70,
          "start": 117.483348,
          "duration": 0.039682,
          "velocity": 0.661417,
          "start_tick": 177635,
          "duration_ticks": 60,
          "channel": 9
        },
        {
          "note": 70,
          "start": 117.523031,
          "duration": 0.039021,
          "velocity": 0.606299,
          "start_tick": 177695,
          "duration_ticks": 59,
          "channel": 9
        },
        {
          "note": 70,
          "start": 117.562052,
          "duration": 0.039683,
          "velocity": 0.559055,
          "start_tick": 177754,
          "duration_ticks": 60,
          "channel": 9
        },
        {
          "note": 70,
          "start": 117.601734,
          "duration": 0.039682,
          "velocity": 0.511811,
          "start_tick": 177814,
          "duration_ticks": 60,
          "channel": 9
        },
        {
          "note": 70,
          "start": 117.641417,
          "duration": 0.039021,
          "velocity": 0.456693,
          "start_tick": 177874,
          "duration_ticks": 59,
          "channel": 9
        },
        {
          "note": 80,
          "start": 117.680438,
          "duration": 0.039682,
          "velocity": 0.629921,
          "start_tick": 177933,
          "duration_ticks": 60,
          "channel": 9
        },
        {
          "note": 80,
          "start": 117.838506,
          "duration": 0.039683,
          "velocity": 0.629921,
          "start_tick": 178172,
          "duration_ticks": 60,
          "channel": 9
        },
        {
          "note": 70,
          "start": 117.995914,
          "duration": 0.039682,
          "velocity": 0.629921,
          "start_tick": 178410,
          "duration_ticks": 60,
          "channel": 9
        },
        {
          "note": 82,
          "start": 118.153982,
          "duration": 0.039682,
          "velocity": 0.629921,
          "start_tick": 178649,
          "duration_ticks": 60,
          "channel": 9
        },
        {
          "note": 82,
          "start": 118.312051,
          "duration": 0.039021,
          "velocity": 0.850394,
          "start_tick": 178888,
          "duration_ticks": 59,
          "channel": 9
        },
        {
          "note": 82,
          "start": 118.351072,
          "duration": 0.039682,
          "velocity": 0.755906,
          "start_tick": 178947,
          "duration_ticks": 60,
          "channel": 9
        },
        {
          "note": 82,
          "start": 118.390755,
          "duration": 0.039682,
          "velocity": 0.661417,
          "start_tick": 179007,
          "duration_ticks": 60,
          "channel": 9
        },
        {
          "note": 82,
          "start": 118.430437,
          "duration": 0.039021,
          "velocity": 0.566929,
          "start_tick": 179067,
          "duration_ticks": 59,
          "channel": 9
        },
        {
          "note": 82,
          "start": 118.469458,
          "duration": 0.039682,
          "velocity": 0.472441,
          "start_tick": 179126,
          "duration_ticks": 60,
          "channel": 9
        },
        {
          "note": 82,
          "start": 118.509141,
          "duration": 0.039682,
          "velocity": 0.377953,
          "start_tick": 179186,
          "duration_ticks": 60,
          "channel": 9
        },
        {
          "note": 82,
          "start": 118.548823,
          "duration": 0.039021,
          "velocity": 0.283465,
          "start_tick": 179246,
          "duration_ticks": 59,
          "channel": 9
        },
        {
          "note": 82,
          "start": 118.587844,
          "duration": 0.039682,
          "velocity": 0.188976,
          "start_tick": 179305,
          "duration_ticks": 60,
          "channel": 9
        },
        {
          "note": 80,
          "start": 118.627527,
          "duration": 0.039682,
          "velocity": 0.629921,
          "start_tick": 179365,
          "duration_ticks": 60,
          "channel": 9
        },
        {
          "note": 80,
          "start": 118.785595,
          "duration": 0.039021,
          "velocity": 0.629921,
          "start_tick": 179604,
          "duration_ticks": 59,
          "channel": 9
        },
        {
          "note": 70,
          "start": 118.943003,
          "duration": 0.039682,
          "velocity": 0.629921,
          "start_tick": 179842,
          "duration_ticks": 60,
          "channel": 9
        },
        {
          "note": 70,
          "start": 119.101071,
          "duration": 0.039021,
          "velocity": 0.629921,
          "start_tick": 180081,
          "duration_ticks": 59,
          "channel": 9
        },
        {
          "note": 36,
          "start": 129.358998,
          "duration": 0.107143,
          "velocity": 1.0,
          "start_tick": 195591,
          "duration_ticks": 162,
          "channel": 9
        },
        {
          "note": 42,
          "start": 129.358998,
          "duration": 0.070767,
          "velocity": 0.511811,
          "start_tick": 195591,
          "duration_ticks": 107,
          "channel": 9
        },
        {
          "note": 42,
          "start": 129.517066,
          "duration": 0.075397,
          "velocity": 0.582677,
          "start_tick": 195830,
          "duration_ticks": 114,
          "channel": 9
        },
        {
          "note": 42,
          "start": 129.674474,
          "duration": 0.080026,
          "velocity": 0.929134,
          "start_tick": 196068,
          "duration_ticks": 121,
          "channel": 9
        },
        {
          "note": 42,
          "start": 129.832542,
          "duration": 0.073413,
          "velocity": 0.598425,
          "start_tick": 196307,
          "duration_ticks": 111,
          "channel": 9
        },
        {
          "note": 36,
          "start": 129.989949,
          "duration": 0.101852,
          "velocity": 1.0,
          "start_tick": 196545,
          "duration_ticks": 154,
          "channel": 9
        },
        {
          "note": 42,
          "start": 129.989949,
          "duration": 0.085979,
          "velocity": 0.464567,
          "start_tick": 196545,
          "duration_ticks": 130,
          "channel": 9
        },
        {
          "note": 42,
          "start": 130.148018,
          "duration": 0.066799,
          "velocity": 0.440945,
          "start_tick": 196784,
          "duration_ticks": 101,
          "channel": 9
        },
        {
          "note": 42,
          "start": 130.306087,
          "duration": 0.080026,
          "velocity": 0.88189,
          "start_tick": 197023,
          "duration_ticks": 121,
          "channel": 9
        },
        {
          "note": 42,
          "start": 130.463494,
          "duration": 0.087963,
          "velocity": 0.692913,
          "start_tick": 197261,
          "duration_ticks": 133,
          "channel": 9
        },
        {
          "note": 36,
          "start": 130.621563,
          "duration": 0.10582,
          "velocity": 1.0,
          "start_tick": 197500,
          "duration_ticks": 160,
          "channel": 9
        },
        {
          "note": 42,
          "start": 130.621563,
          "duration": 0.078042,
          "velocity": 0.440945,
          "start_tick": 197500,
          "duration_ticks": 118,
          "channel": 9
        },
        {
          "note": 42,
          "start": 130.77897,
          "duration": 0.080026,
          "velocity": 0.440945,
          "start_tick": 197738,
          "duration_ticks": 121,
          "channel": 9
        },
        {
          "note": 42,
          "start": 130.937038,
          "duration": 0.082011,
          "velocity": 0.88189,
          "start_tick": 197977,
          "duration_ticks": 124,
          "channel": 9
        },
        {
          "note": 42,
          "start": 131.095107,
          "duration": 0.089286,
          "velocity": 0.669291,
          "start_tick": 198216,
          "duration_ticks": 135,
          "channel": 9
        },
        {
          "note": 36,
          "start": 131.252514,
          "duration": 0.10582,
          "velocity": 1.0,
          "start_tick": 198454,
          "duration_ticks": 160,
          "channel": 9
        },
        {
          "note": 42,
          "start": 131.252514,
          "duration": 0.074735,
          "velocity": 0.417323,
          "start_tick": 198454,
          "duration_ticks": 113,
          "channel": 9
        },
        {
          "note": 42,
          "start": 131.410583,
          "duration": 0.087302,
          "velocity": 0.354331,
          "start_tick": 198693,
          "duration_ticks": 132,
          "channel": 9
        },
        {
          "note": 42,
          "start": 131.568651,
          "duration": 0.081349,
          "velocity": 0.913386,
          "start_tick": 198932,
          "duration_ticks": 123,
          "channel": 9
        },
        {
          "note": 42,
          "start": 131.726059,
          "duration": 0.085979,
          "velocity": 0.614173,
          "start_tick": 199170,
          "duration_ticks": 130,
          "channel": 9
        },
        {
          "note": 36,
          "start": 131.884127,
          "duration": 0.103836,
          "velocity": 1.0,
          "start_tick": 199409,
          "duration_ticks": 157,
          "channel": 9
        },
        {
          "note": 42,
          "start": 131.884127,
          "duration": 0.074074,
          "velocity": 0.503937,
          "start_tick": 199409,
          "duration_ticks": 112,
          "channel": 9
        },
        {
          "note": 42,
          "start": 132.041535,
          "duration": 0.066799,
          "velocity": 0.401575,
          "start_tick": 199647,
          "duration_ticks": 101,
          "channel": 9
        },
        {
          "note": 42,
          "start": 132.199603,
          "duration": 0.083333,
          "velocity": 0.88189,
          "start_tick": 199886,
          "duration_ticks": 126,
          "channel": 9
        },
        {
          "note": 42,
          "start": 132.357672,
          "duration": 0.083333,
          "velocity": 0.480315,
          "start_tick": 200125,
          "duration_ticks": 126,
          "channel": 9
        },
        {
          "note": 36,
          "start": 132.515079,
          "duration": 0.10582,
          "velocity": 1.0,
          "start_tick": 200363,
          "duration_ticks": 160,
          "channel": 9
        },
        {
          "note": 42,
          "start": 132.515079,
          "duration": 0.078704,
          "velocity": 0.535433,
          "start_tick": 200363,
          "duration_ticks": 119,
          "channel": 9
        },
        {
          "note": 42,
          "start": 132.673148,
          "duration": 0.064153,
          "velocity": 0.307087,
          "start_tick": 200602,
          "duration_ticks": 97,
          "channel": 9
        },
        {
          "note": 42,
          "start": 132.830555,
          "duration": 0.085317,
          "velocity": 0.929134,
          "start_tick": 200840,
          "duration_ticks": 129,
          "channel": 9
        },
        {
          "note": 42,
          "start": 132.988624,
          "duration": 0.085979,
          "velocity": 0.535433,
          "start_tick": 201079,
          "duration_ticks": 130,
          "channel": 9
        },
        {
          "note": 36,
          "start": 133.146692,
          "duration": 0.104497,
          "velocity": 1.0,
          "start_tick": 201318,
          "duration_ticks": 158,
          "channel": 9
        },
        {
          "note": 42,
          "start": 133.146692,
          "duration": 0.078042,
          "velocity": 0.464567,
          "start_tick": 201318,
          "duration_ticks": 118,
          "channel": 9
        },
        {
          "note": 42,
          "start": 133.3041,
          "duration": 0.083995,
          "velocity": 0.385827,
          "start_tick": 201556,
          "duration_ticks": 127,
          "channel": 9
        },
        {
          "note": 42,
          "start": 133.462168,
          "duration": 0.081349,
          "velocity": 0.897638,
          "start_tick": 201795,
          "duration_ticks": 123,
          "channel": 9
        },
        {
          "note": 42,
          "start": 133.620237,
          "duration": 0.081349,
          "velocity": 0.354331,
          "start_tick": 202034,
          "duration_ticks": 123,
          "channel": 9
        },
        {
          "note": 36,
          "start": 133.777644,
          "duration": 0.094577,
          "velocity": 1.0,
          "start_tick": 202272,
          "duration_ticks": 143,
          "channel": 9
        },
        {
          "note": 42,
          "start": 133.777644,
          "duration": 0.077381,
          "velocity": 0.527559,
          "start_tick": 202272,
          "duration_ticks": 117,
          "channel": 9
        },
        {
          "note": 42,
          "start": 133.935713,
          "duration": 0.075397,
          "velocity": 0.291339,
          "start_tick": 202511,
          "duration_ticks": 114,
          "channel": 9
        },
        {
          "note": 42,
          "start": 134.09312,
          "duration": 0.08201,
          "velocity": 0.897638,
          "start_tick": 202749,
          "duration_ticks": 124,
          "channel": 9
        },
        {
          "note": 42,
          "start": 134.251189,
          "duration": 0.072751,
          "velocity": 0.637795,
          "start_tick": 202988,
          "duration_ticks": 110,
          "channel": 9
        },
        {
          "note": 36,
          "start": 134.409257,
          "duration": 0.107143,
          "velocity": 1.0,
          "start_tick": 203227,
          "duration_ticks": 162,
          "channel": 9
        },
        {
          "note": 42,
          "start": 134.409257,
          "duration": 0.070767,
          "velocity": 0.511811,
          "start_tick": 203227,
          "duration_ticks": 107,
          "channel": 9
        },
        {
          "note": 42,
          "start": 134.566664,
          "duration": 0.076058,
          "velocity": 0.582677,
          "start_tick": 203465,
          "duration_ticks": 115,
          "channel": 9
        },
        {
          "note": 42,
          "start": 134.724733,
          "duration": 0.080026,
          "velocity": 0.929134,
          "start_tick": 203704,
          "duration_ticks": 121,
          "channel": 9
        },
        {
          "note": 42,
          "start": 134.884124,
          "duration": 0.075397,
          "velocity": 0.598425,
          "start_tick": 203945,
          "duration_ticks": 114,
          "channel": 9
        },
        {
          "note": 36,
          "start": 135.0455,
          "duration": 0.103836,
          "velocity": 1.0,
          "start_tick": 204189,
          "duration_ticks": 157,
          "channel": 9
        },
        {
          "note": 42,
          "start": 135.0455,
          "duration": 0.087302,
          "velocity": 0.464567,
          "start_tick": 204189,
          "duration_ticks": 132,
          "channel": 9
        },
        {
          "note": 42,
          "start": 135.206875,
          "duration": 0.068122,
          "velocity": 0.440945,
          "start_tick": 204433,
          "duration_ticks": 103,
          "channel": 9
        },
        {
          "note": 42,
          "start": 135.368251,
          "duration": 0.08201,
          "velocity": 0.88189,
          "start_tick": 204677,
          "duration_ticks": 124,
          "channel": 9
        },
        {
          "note": 42,
          "start": 135.528965,
          "duration": 0.090608,
          "velocity": 0.692913,
          "start_tick": 204920,
          "duration_ticks": 137,
          "channel": 9
        },
        {
          "note": 36,
          "start": 135.69034,
          "duration": 0.108466,
          "velocity": 1.0,
          "start_tick": 205164,
          "duration_ticks": 164,
          "channel": 9
        },
        {
          "note": 42,
          "start": 135.69034,
          "duration": 0.080026,
          "velocity": 0.440945,
          "start_tick": 205164,
          "duration_ticks": 121,
          "channel": 9
        },
        {
          "note": 42,
          "start": 135.851716,
          "duration": 0.081349,
          "velocity": 0.440945,
          "start_tick": 205408,
          "duration_ticks": 123,
          "channel": 9
        },
        {
          "note": 42,
          "start": 136.013092,
          "duration": 0.083995,
          "velocity": 0.88189,
          "start_tick": 205652,
          "duration_ticks": 127,
          "channel": 9
        },
        {
          "note": 42,
          "start": 136.174467,
          "duration": 0.09127,
          "velocity": 0.669291,
          "start_tick": 205896,
          "duration_ticks": 138,
          "channel": 9
        },
        {
          "note": 36,
          "start": 136.335843,
          "duration": 0.107804,
          "velocity": 1.0,
          "start_tick": 206140,
          "duration_ticks": 163,
          "channel": 9
        },
        {
          "note": 42,
          "start": 136.335843,
          "duration": 0.075397,
          "velocity": 0.417323,
          "start_tick": 206140,
          "duration_ticks": 114,
          "channel": 9
        },
        {
          "note": 42,
          "start": 136.497218,
          "duration": 0.089286,
          "velocity": 0.354331,
          "start_tick": 206384,
          "duration_ticks": 135,
          "channel": 9
        },
        {
          "note": 42,
          "start": 136.657932,
          "duration": 0.083333,
          "velocity": 0.913386,
          "start_tick": 206627,
          "duration_ticks": 126,
          "channel": 9
        },
        {
          "note": 42,
          "start": 136.819308,
          "duration": 0.087963,
          "velocity": 0.614173,
          "start_tick": 206871,
          "duration_ticks": 133,
          "channel": 9
        },
        {
          "note": 36,
          "start": 136.980683,
          "duration": 0.106481,
          "velocity": 1.0,
          "start_tick": 207115,
          "duration_ticks": 161,
          "channel": 9
        },
        {
          "note": 42,
          "start": 136.980683,
          "duration": 0.076058,
          "velocity": 0.503937,
          "start_tick": 207115,
          "duration_ticks": 115,
          "channel": 9
        },
        {
          "note": 42,
          "start": 137.142059,
          "duration": 0.068122,
          "velocity": 0.401575,
          "start_tick": 207359,
          "duration_ticks": 103,
          "channel": 9
        },
        {
          "note": 42,
          "start": 137.303434,
          "duration": 0.085317,
          "velocity": 0.88189,
          "start_tick": 207603,
          "duration_ticks": 129,
          "channel": 9
        },
        {
          "note": 42,
          "start": 137.46481,
          "duration": 0.085317,
          "velocity": 0.480315,
          "start_tick": 207847,
          "duration_ticks": 129,
          "channel": 9
        },
        {
          "note": 36,
          "start": 137.625524,
          "duration": 0.108465,
          "velocity": 1.0,
          "start_tick": 208090,
          "duration_ticks": 164,
          "channel": 9
        },
        {
          "note": 42,
          "start": 137.625524,
          "duration": 0.080026,
          "velocity": 0.535433,
          "start_tick": 208090,
          "duration_ticks": 121,
          "channel": 9
        },
        {
          "note": 42,
          "start": 137.786899,
          "duration": 0.066137,
          "velocity": 0.307087,
          "start_tick": 208334,
          "duration_ticks": 100,
          "channel": 9
        },
        {
          "note": 42,
          "start": 137.948275,
          "duration": 0.08664,
          "velocity": 0.929134,
          "start_tick": 208578,
          "duration_ticks": 131,
          "channel": 9
        },
        {
          "note": 42,
          "start": 138.10965,
          "duration": 0.087963,
          "velocity": 0.535433,
          "start_tick": 208822,
          "duration_ticks": 133,
          "channel": 9
        },
        {
          "note": 36,
          "start": 138.271026,
          "duration": 0.106481,
          "velocity": 1.0,
          "start_tick": 209066,
          "duration_ticks": 161,
          "channel": 9
        },
        {
          "note": 42,
          "start": 138.271026,
          "duration": 0.080026,
          "velocity": 0.464567,
          "start_tick": 209066,
          "duration_ticks": 121,
          "channel": 9
        },
        {
          "note": 42,
          "start": 138.432401,
          "duration": 0.085317,
          "velocity": 0.385827,
          "start_tick": 209310,
          "duration_ticks": 129,
          "channel": 9
        },
        {
          "note": 42,
          "start": 138.593115,
          "duration": 0.083333,
          "velocity": 0.897638,
          "start_tick": 209553,
          "duration_ticks": 126,
          "channel": 9
        },
        {
          "note": 42,
          "start": 138.754491,
          "duration": 0.083333,
          "velocity": 0.354331,
          "start_tick": 209797,
          "duration_ticks": 126,
          "channel": 9
        },
        {
          "note": 36,
          "start": 138.915866,
          "duration": 0.096561,
          "velocity": 1.0,
          "start_tick": 210041,
          "duration_ticks": 146,
          "channel": 9
        },
        {
          "note": 42,
          "start": 138.915866,
          "duration": 0.078704,
          "velocity": 0.527559,
          "start_tick": 210041,
          "duration_ticks": 119,
          "channel": 9
        },
        {
          "note": 42,
          "start": 139.077242,
          "duration": 0.077381,
          "velocity": 0.291339,
          "start_tick": 210285,
          "duration_ticks": 117,
          "channel": 9
        },
        {
          "note": 42,
          "start": 139.238617,
          "duration": 0.083333,
          "velocity": 0.897638,
          "start_tick": 210529,
          "duration_ticks": 126,
          "channel": 9
        },
        {
          "note": 42,
          "start": 139.399993,
          "duration": 0.074074,
          "velocity": 0.637795,
          "start_tick": 210773,
          "duration_ticks": 112,
          "channel": 9
        },
        {
          "note": 36,
          "start": 139.561368,
          "duration": 0.109127,
          "velocity": 1.0,
          "start_tick": 211017,
          "duration_ticks": 165,
          "channel": 9
        },
        {
          "note": 42,
          "start": 139.561368,
          "duration": 0.07209,
          "velocity": 0.511811,
          "start_tick": 211017,
          "duration_ticks": 109,
          "channel": 9
        },
        {
          "note": 42,
          "start": 139.722082,
          "duration": 0.077381,
          "velocity": 0.582677,
          "start_tick": 211260,
          "duration_ticks": 117,
          "channel": 9
        },
        {
          "note": 42,
          "start": 139.883458,
          "duration": 0.08201,
          "velocity": 0.929134,
          "start_tick": 211504,
          "duration_ticks": 124,
          "channel": 9
        },
        {
          "note": 42,
          "start": 140.044834,
          "duration": 0.075397,
          "velocity": 0.598425,
          "start_tick": 211748,
          "duration_ticks": 114,
          "channel": 9
        },
        {
          "note": 36,
          "start": 140.206209,
          "duration": 0.103836,
          "velocity": 1.0,
          "start_tick": 211992,
          "duration_ticks": 157,
          "channel": 9
        },
        {
          "note": 42,
          "start": 140.206209,
          "duration": 0.087301,
          "velocity": 0.464567,
          "start_tick": 211992,
          "duration_ticks": 132,
          "channel": 9
        },
        {
          "note": 42,
          "start": 140.367584,
          "duration": 0.068122,
          "velocity": 0.440945,
          "start_tick": 212236,
          "duration_ticks": 103,
          "channel": 9
        },
        {
          "note": 42,
          "start": 140.52896,
          "duration": 0.08201,
          "velocity": 0.88189,
          "start_tick": 212480,
          "duration_ticks": 124,
          "channel": 9
        },
        {
          "note": 42,
          "start": 140.689674,
          "duration": 0.090608,
          "velocity": 0.692913,
          "start_tick": 212723,
          "duration_ticks": 137,
          "channel": 9
        },
        {
          "note": 36,
          "start": 140.85105,
          "duration": 0.108465,
          "velocity": 1.0,
          "start_tick": 212967,
          "duration_ticks": 164,
          "channel": 9
        },
        {
          "note": 42,
          "start": 140.85105,
          "duration": 0.080026,
          "velocity": 0.440945,
          "start_tick": 212967,
          "duration_ticks": 121,
          "channel": 9
        },
        {
          "note": 42,
          "start": 141.012425,
          "duration": 0.081349,
          "velocity": 0.440945,
          "start_tick": 213211,
          "duration_ticks": 123,
          "channel": 9
        },
        {
          "note": 42,
          "start": 141.173801,
          "duration": 0.083995,
          "velocity": 0.88189,
          "start_tick": 213455,
          "duration_ticks": 127,
          "channel": 9
        },
        {
          "note": 42,
          "start": 141.335176,
          "duration": 0.09127,
          "velocity": 0.669291,
          "start_tick": 213699,
          "duration_ticks": 138,
          "channel": 9
        },
        {
          "note": 36,
          "start": 141.496552,
          "duration": 0.107804,
          "velocity": 1.0,
          "start_tick": 213943,
          "duration_ticks": 163,
          "channel": 9
        },
        {
          "note": 42,
          "start": 141.496552,
          "duration": 0.075397,
          "velocity": 0.417323,
          "start_tick": 213943,
          "duration_ticks": 114,
          "channel": 9
        },
        {
          "note": 42,
          "start": 141.657266,
          "duration": 0.089947,
          "velocity": 0.354331,
          "start_tick": 214186,
          "duration_ticks": 136,
          "channel": 9
        },
        {
          "note": 42,
          "start": 141.818641,
          "duration": 0.083333,
          "velocity": 0.913386,
          "start_tick": 214430,
          "duration_ticks": 126,
          "channel": 9
        },
        {
          "note": 42,
          "start": 141.980017,
          "duration": 0.087963,
          "velocity": 0.614173,
          "start_tick": 214674,
          "duration_ticks": 133,
          "channel": 9
        },
        {
          "note": 36,
          "start": 142.141392,
          "duration": 0.106481,
          "velocity": 1.0,
          "start_tick": 214918,
          "duration_ticks": 161,
          "channel": 9
        },
        {
          "note": 42,
          "start": 142.141392,
          "duration": 0.076058,
          "velocity": 0.503937,
          "start_tick": 214918,
          "duration_ticks": 115,
          "channel": 9
        },
        {
          "note": 42,
          "start": 142.302768,
          "duration": 0.06746,
          "velocity": 0.401575,
          "start_tick": 215162,
          "duration_ticks": 102,
          "channel": 9
        },
        {
          "note": 42,
          "start": 142.464143,
          "duration": 0.085317,
          "velocity": 0.88189,
          "start_tick": 215406,
          "duration_ticks": 129,
          "channel": 9
        },
        {
          "note": 42,
          "start": 142.624857,
          "duration": 0.085979,
          "velocity": 0.480315,
          "start_tick": 215649,
          "duration_ticks": 130,
          "channel": 9
        },
        {
          "note": 36,
          "start": 142.786233,
          "duration": 0.108465,
          "velocity": 1.0,
          "start_tick": 215893,
          "duration_ticks": 164,
          "channel": 9
        },
        {
          "note": 42,
          "start": 142.786233,
          "duration": 0.080026,
          "velocity": 0.535433,
          "start_tick": 215893,
          "duration_ticks": 121,
          "channel": 9
        },
        {
          "note": 42,
          "start": 142.947608,
          "duration": 0.066138,
          "velocity": 0.307087,
          "start_tick": 216137,
          "duration_ticks": 100,
          "channel": 9
        },
        {
          "note": 42,
          "start": 143.108984,
          "duration": 0.08664,
          "velocity": 0.929134,
          "start_tick": 216381,
          "duration_ticks": 131,
          "channel": 9
        },
        {
          "note": 42,
          "start": 143.270359,
          "duration": 0.087963,
          "velocity": 0.535433,
          "start_tick": 216625,
          "duration_ticks": 133,
          "channel": 9
        },
        {
          "note": 36,
          "start": 143.431735,
          "duration": 0.106481,
          "velocity": 1.0,
          "start_tick": 216869,
          "duration_ticks": 161,
          "channel": 9
        },
        {
          "note": 42,
          "start": 143.431735,
          "duration": 0.080026,
          "velocity": 0.464567,
          "start_tick": 216869,
          "duration_ticks": 121,
          "channel": 9
        },
        {
          "note": 42,
          "start": 143.59311,
          "duration": 0.085317,
          "velocity": 0.385827,
          "start_tick": 217113,
          "duration_ticks": 129,
          "channel": 9
        },
        {
          "note": 42,
          "start": 143.753825,
          "duration": 0.083333,
          "velocity": 0.897638,
          "start_tick": 217356,
          "duration_ticks": 126,
          "channel": 9
        },
        {
          "note": 42,
          "start": 143.9152,
          "duration": 0.083333,
          "velocity": 0.354331,
          "start_tick": 217600,
          "duration_ticks": 126,
          "channel": 9
        },
        {
          "note": 36,
          "start": 144.076575,
          "duration": 0.096561,
          "velocity": 1.0,
          "start_tick": 217844,
          "duration_ticks": 146,
          "channel": 9
        },
        {
          "note": 42,
          "start": 144.076575,
          "duration": 0.078704,
          "velocity": 0.527559,
          "start_tick": 217844,
          "duration_ticks": 119,
          "channel": 9
        },
        {
          "note": 42,
          "start": 144.237951,
          "duration": 0.077381,
          "velocity": 0.291339,
          "start_tick": 218088,
          "duration_ticks": 117,
          "channel": 9
        },
        {
          "note": 42,
          "start": 144.399327,
          "duration": 0.083333,
          "velocity": 0.897638,
          "start_tick": 218332,
          "duration_ticks": 126,
          "channel": 9
        },
        {
          "note": 42,
          "start": 144.560702,
          "duration": 0.074074,
          "velocity": 0.637795,
          "start_tick": 218576,
          "duration_ticks": 112,
          "channel": 9
        },
        {
          "note": 36,
          "start": 144.721416,
          "duration": 0.109788,
          "velocity": 1.0,
          "start_tick": 218819,
          "duration_ticks": 166,
          "channel": 9
        },
        {
          "note": 42,
          "start": 144.721416,
          "duration": 0.072751,
          "velocity": 0.511811,
          "start_tick": 218819,
          "duration_ticks": 110,
          "channel": 9
        },
        {
          "note": 42,
          "start": 144.882792,
          "duration": 0.077381,
          "velocity": 0.582677,
          "start_tick": 219063,
          "duration_ticks": 117,
          "channel": 9
        },
        {
          "note": 42,
          "start": 145.044167,
          "duration": 0.08201,
          "velocity": 0.929134,
          "start_tick": 219307,
          "duration_ticks": 124,
          "channel": 9
        },
        {
          "note": 42,
          "start": 145.205543,
          "duration": 0.075397,
          "velocity": 0.598425,
          "start_tick": 219551,
          "duration_ticks": 114,
          "channel": 9
        },
        {
          "note": 36,
          "start": 145.36758,
          "duration": 0.103836,
          "velocity": 1.0,
          "start_tick": 219796,
          "duration_ticks": 157,
          "channel": 9
        },
        {
          "note": 42,
          "start": 145.36758,
          "duration": 0.087301,
          "velocity": 0.464567,
          "start_tick": 219796,
          "duration_ticks": 132,
          "channel": 9
        },
        {
          "note": 42,
          "start": 145.528955,
          "duration": 0.068122,
          "velocity": 0.440945,
          "start_tick": 220040,
          "duration_ticks": 103,
          "channel": 9
        },
        {
          "note": 42,
          "start": 145.69033,
          "duration": 0.082011,
          "velocity": 0.88189,
          "start_tick": 220284,
          "duration_ticks": 124,
          "channel": 9
        },
        {
          "note": 42,
          "start": 145.851706,
          "duration": 0.089947,
          "velocity": 0.692913,
          "start_tick": 220528,
          "duration_ticks": 136,
          "channel": 9
        },
        {
          "note": 36,
          "start": 146.013081,
          "duration": 0.108465,
          "velocity": 1.0,
          "start_tick": 220772,
          "duration_ticks": 164,
          "channel": 9
        },
        {
          "note": 42,
          "start": 146.013081,
          "duration": 0.080026,
          "velocity": 0.440945,
          "start_tick": 220772,
          "duration_ticks": 121,
          "channel": 9
        },
        {
          "note": 42,
          "start": 146.174457,
          "duration": 0.081349,
          "velocity": 0.440945,
          "start_tick": 221016,
          "duration_ticks": 123,
          "channel": 9
        },
        {
          "note": 42,
          "start": 146.335833,
          "duration": 0.083995,
          "velocity": 0.88189,
          "start_tick": 221260,
          "duration_ticks": 127,
          "channel": 9
        },
        {
          "note": 42,
          "start": 146.497208,
          "duration": 0.091931,
          "velocity": 0.669291,
          "start_tick": 221504,
          "duration_ticks": 139,
          "channel": 9
        },
        {
          "note": 36,
          "start": 146.659245,
          "duration": 0.107804,
          "velocity": 1.0,
          "start_tick": 221749,
          "duration_ticks": 163,
          "channel": 9
        },
        {
          "note": 42,
          "start": 146.659245,
          "duration": 0.076058,
          "velocity": 0.417323,
          "start_tick": 221749,
          "duration_ticks": 115,
          "channel": 9
        },
        {
          "note": 42,
          "start": 146.82062,
          "duration": 0.089286,
          "velocity": 0.354331,
          "start_tick": 221993,
          "duration_ticks": 135,
          "channel": 9
        },
        {
          "note": 42,
          "start": 146.981996,
          "duration": 0.083333,
          "velocity": 0.913386,
          "start_tick": 222237,
          "duration_ticks": 126,
          "channel": 9
        },
        {
          "note": 42,
          "start": 147.143371,
          "duration": 0.087963,
          "velocity": 0.614173,
          "start_tick": 222481,
          "duration_ticks": 133,
          "channel": 9
        },
        {
          "note": 36,
          "start": 147.304747,
          "duration": 0.106481,
          "velocity": 1.0,
          "start_tick": 222725,
          "duration_ticks": 161,
          "channel": 9
        },
        {
          "note": 42,
          "start": 147.304747,
          "duration": 0.076058,
          "velocity": 0.503937,
          "start_tick": 222725,
          "duration_ticks": 115,
          "channel": 9
        },
        {
          "note": 42,
          "start": 147.466122,
          "duration": 0.068122,
          "velocity": 0.401575,
          "start_tick": 222969,
          "duration_ticks": 103,
          "channel": 9
        },
        {
          "note": 42,
          "start": 147.627498,
          "duration": 0.085979,
          "velocity": 0.88189,
          "start_tick": 223213,
          "duration_ticks": 130,
          "channel": 9
        },
        {
          "note": 42,
          "start": 147.789535,
          "duration": 0.085317,
          "velocity": 0.480315,
          "start_tick": 223458,
          "duration_ticks": 129,
          "channel": 9
        },
        {
          "note": 36,
          "start": 147.95091,
          "duration": 0.107804,
          "velocity": 1.0,
          "start_tick": 223702,
          "duration_ticks": 163,
          "channel": 9
        },
        {
          "note": 42,
          "start": 147.95091,
          "duration": 0.080026,
          "velocity": 0.535433,
          "start_tick": 223702,
          "duration_ticks": 121,
          "channel": 9
        },
        {
          "note": 42,
          "start": 148.112286,
          "duration": 0.066137,
          "velocity": 0.307087,
          "start_tick": 223946,
          "duration_ticks": 100,
          "channel": 9
        },
        {
          "note": 42,
          "start": 148.273661,
          "duration": 0.08664,
          "velocity": 0.929134,
          "start_tick": 224190,
          "duration_ticks": 131,
          "channel": 9
        },
        {
          "note": 42,
          "start": 148.435037,
          "duration": 0.087963,
          "velocity": 0.535433,
          "start_tick": 224434,
          "duration_ticks": 133,
          "channel": 9
        },
        {
          "note": 36,
          "start": 148.596412,
          "duration": 0.107143,
          "velocity": 1.0,
          "start_tick": 224678,
          "duration_ticks": 162,
          "channel": 9
        },
        {
          "note": 42,
          "start": 148.596412,
          "duration": 0.080026,
          "velocity": 0.464567,
          "start_tick": 224678,
          "duration_ticks": 121,
          "channel": 9
        },
        {
          "note": 49,
          "start": 148.596412,
          "duration": 0.080688,
          "velocity": 0.173228,
          "start_tick": 224678,
          "duration_ticks": 122,
          "channel": 9
        },
        {
          "note": 49,
          "start": 148.6771,
          "duration": 0.080688,
          "velocity": 0.228346,
          "start_tick": 224800,
          "duration_ticks": 122,
          "channel": 9
        },
        {
          "note": 42,
          "start": 148.757788,
          "duration": 0.085979,
          "velocity": 0.385827,
          "start_tick": 224922,
          "duration_ticks": 130,
          "channel": 9
        },
        {
          "note": 49,
          "start": 148.757788,
          "duration": 0.080688,
          "velocity": 0.275591,
          "start_tick": 224922,
          "duration_ticks": 122,
          "channel": 9
        },
        {
          "note": 49,
          "start": 148.838475,
          "duration": 0.080688,
          "velocity": 0.330709,
          "start_tick": 225044,
          "duration_ticks": 122,
          "channel": 9
        },
        {
          "note": 42,
          "start": 148.919163,
          "duration": 0.083995,
          "velocity": 0.897638,
          "start_tick": 225166,
          "duration_ticks": 127,
          "channel": 9
        },
        {
          "note": 49,
          "start": 148.919163,
          "duration": 0.081349,
          "velocity": 0.377953,
          "start_tick": 225166,
          "duration_ticks": 123,
          "channel": 9
        },
        {
          "note": 49,
          "start": 149.000512,
          "duration": 0.080688,
          "velocity": 0.425197,
          "start_tick": 225289,
          "duration_ticks": 122,
          "channel": 9
        },
        {
          "note": 42,
          "start": 149.0812,
          "duration": 0.083333,
          "velocity": 0.354331,
          "start_tick": 225411,
          "duration_ticks": 126,
          "channel": 9
        },
        {
          "note": 49,
          "start": 149.0812,
          "duration": 0.080688,
          "velocity": 0.480315,
          "start_tick": 225411,
          "duration_ticks": 122,
          "channel": 9
        },
        {
          "note": 49,
          "start": 149.161888,
          "duration": 0.080688,
          "velocity": 0.527559,
          "start_tick": 225533,
          "duration_ticks": 122,
          "channel": 9
        },
        {
          "note": 36,
          "start": 149.242576,
          "duration": 0.096561,
          "velocity": 1.0,
          "start_tick": 225655,
          "duration_ticks": 146,
          "channel": 9
        },
        {
          "note": 42,
          "start": 149.242576,
          "duration": 0.078704,
          "velocity": 0.527559,
          "start_tick": 225655,
          "duration_ticks": 119,
          "channel": 9
        },
        {
          "note": 49,
          "start": 149.242576,
          "duration": 0.080688,
          "velocity": 0.629921,
          "start_tick": 225655,
          "duration_ticks": 122,
          "channel": 9
        },
        {
          "note": 36,
          "start": 149.888078,
          "duration": 0.109788,
          "velocity": 1.0,
          "start_tick": 226631,
          "duration_ticks": 166,
          "channel": 9
        },
        {
          "note": 42,
          "start": 149.888078,
          "duration": 0.072751,
          "velocity": 0.511811,
          "start_tick": 226631,
          "duration_ticks": 110,
          "channel": 9
        },
        {
          "note": 42,
          "start": 150.049453,
          "duration": 0.077381,
          "velocity": 0.582677,
          "start_tick": 226875,
          "duration_ticks": 117,
          "channel": 9
        },
        {
          "note": 42,
          "start": 150.21149,
          "duration": 0.08201,
          "velocity": 0.929134,
          "start_tick": 227120,
          "duration_ticks": 124,
          "channel": 9
        },
        {
          "note": 42,
          "start": 150.372865,
          "duration": 0.075397,
          "velocity": 0.598425,
          "start_tick": 227364,
          "duration_ticks": 114,
          "channel": 9
        },
        {
          "note": 36,
          "start": 150.534241,
          "duration": 0.104497,
          "velocity": 1.0,
          "start_tick": 227608,
          "duration_ticks": 158,
          "channel": 9
        },
        {
          "note": 40,
          "start": 150.534241,
          "duration": 0.080688,
          "velocity": 1.0,
          "start_tick": 227608,
          "duration_ticks": 122,
          "channel": 9
        },
        {
          "note": 42,
          "start": 150.534241,
          "duration": 0.087301,
          "velocity": 0.464567,
          "start_tick": 227608,
          "duration_ticks": 132,
          "channel": 9
        },
        {
          "note": 42,
          "start": 150.695616,
          "duration": 0.068783,
          "velocity": 0.440945,
          "start_tick": 227852,
          "duration_ticks": 104,
          "channel": 9
        },
        {
          "note": 42,
          "start": 150.856992,
          "duration": 0.08201,
          "velocity": 0.88189,
          "start_tick": 228096,
          "duration_ticks": 124,
          "channel": 9
        },
        {
          "note": 42,
          "start": 151.018368,
          "duration": 0.090608,
          "velocity": 0.692913,
          "start_tick": 228340,
          "duration_ticks": 137,
          "channel": 9
        },
        {
          "note": 36,
          "start": 151.179743,
          "duration": 0.108465,
          "velocity": 1.0,
          "start_tick": 228584,
          "duration_ticks": 164,
          "channel": 9
        },
        {
          "note": 42,
          "start": 151.179743,
          "duration": 0.080026,
          "velocity": 0.440945,
          "start_tick": 228584,
          "duration_ticks": 121,
          "channel": 9
        },
        {
          "note": 42,
          "start": 151.34178,
          "duration": 0.081349,
          "velocity": 0.440945,
          "start_tick": 228829,
          "duration_ticks": 123,
          "channel": 9
        },
        {
          "note": 42,
          "start": 151.503155,
          "duration": 0.083995,
          "velocity": 0.88189,
          "start_tick": 229073,
          "duration_ticks": 127,
          "channel": 9
        },
        {
          "note": 42,
          "start": 151.664531,
          "duration": 0.09127,
          "velocity": 0.669291,
          "start_tick": 229317,
          "duration_ticks": 138,
          "channel": 9
        },
        {
          "note": 36,
          "start": 151.825906,
          "duration": 0.108466,
          "velocity": 1.0,
          "start_tick": 229561,
          "duration_ticks": 164,
          "channel": 9
        },
        {
          "note": 40,
          "start": 151.825906,
          "duration": 0.080688,
          "velocity": 1.0,
          "start_tick": 229561,
          "duration_ticks": 122,
          "channel": 9
        },
        {
          "note": 42,
          "start": 151.825906,
          "duration": 0.076058,
          "velocity": 0.417323,
          "start_tick": 229561,
          "duration_ticks": 115,
          "channel": 9
        },
        {
          "note": 42,
          "start": 151.987282,
          "duration": 0.089286,
          "velocity": 0.354331,
          "start_tick": 229805,
          "duration_ticks": 135,
          "channel": 9
        },
        {
          "note": 42,
          "start": 152.148657,
          "duration": 0.083333,
          "velocity": 0.913386,
          "start_tick": 230049,
          "duration_ticks": 126,
          "channel": 9
        },
        {
          "note": 42,
          "start": 152.310033,
          "duration": 0.088624,
          "velocity": 0.614173,
          "start_tick": 230293,
          "duration_ticks": 134,
          "channel": 9
        },
        {
          "note": 36,
          "start": 152.471408,
          "duration": 0.106481,
          "velocity": 1.0,
          "start_tick": 230537,
          "duration_ticks": 161,
          "channel": 9
        },
        {
          "note": 42,
          "start": 152.471408,
          "duration": 0.076058,
          "velocity": 0.503937,
          "start_tick": 230537,
          "duration_ticks": 115,
          "channel": 9
        },
        {
          "note": 42,
          "start": 152.633445,
          "duration": 0.06746,
          "velocity": 0.401575,
          "start_tick": 230782,
          "duration_ticks": 102,
          "channel": 9
        },
        {
          "note": 42,
          "start": 152.794821,
          "duration": 0.085317,
          "velocity": 0.88189,
          "start_tick": 231026,
          "duration_ticks": 129,
          "channel": 9
        },
        {
          "note": 42,
          "start": 152.956196,
          "duration": 0.085317,
          "velocity": 0.480315,
          "start_tick": 231270,
          "duration_ticks": 129,
          "channel": 9
        },
        {
          "note": 36,
          "start": 153.117572,
          "duration": 0.108465,
          "velocity": 1.0,
          "start_tick": 231514,
          "duration_ticks": 164,
          "channel": 9
        },
        {
          "note": 40,
          "start": 153.117572,
          "duration": 0.080688,
          "velocity": 1.0,
          "start_tick": 231514,
          "duration_ticks": 122,
          "channel": 9
        },
        {
          "note": 42,
          "start": 153.117572,
          "duration": 0.080026,
          "velocity": 0.535433,
          "start_tick": 231514,
          "duration_ticks": 121,
          "channel": 9
        },
        {
          "note": 42,
          "start": 153.278947,
          "duration": 0.066138,
          "velocity": 0.307087,
          "start_tick": 231758,
          "duration_ticks": 100,
          "channel": 9
        },
        {
          "note": 42,
          "start": 153.440323,
          "duration": 0.08664,
          "velocity": 0.929134,
          "start_tick": 232002,
          "duration_ticks": 131,
          "channel": 9
        },
        {
          "note": 42,
          "start": 153.601698,
          "duration": 0.088624,
          "velocity": 0.535433,
          "start_tick": 232246,
          "duration_ticks": 134,
          "channel": 9
        },
        {
          "note": 36,
          "start": 153.763735,
          "duration": 0.106481,
          "velocity": 1.0,
          "start_tick": 232491,
          "duration_ticks": 161,
          "channel": 9
        },
        {
          "note": 42,
          "start": 153.763735,
          "duration": 0.080026,
          "velocity": 0.464567,
          "start_tick": 232491,
          "duration_ticks": 121,
          "channel": 9
        },
        {
          "note": 42,
          "start": 153.925111,
          "duration": 0.085317,
          "velocity": 0.385827,
          "start_tick": 232735,
          "duration_ticks": 129,
          "channel": 9
        },
        {
          "note": 42,
          "start": 154.086486,
          "duration": 0.083333,
          "velocity": 0.897638,
          "start_tick": 232979,
          "duration_ticks": 126,
          "channel": 9
        },
        {
          "note": 42,
          "start": 154.247862,
          "duration": 0.083333,
          "velocity": 0.354331,
          "start_tick": 233223,
          "duration_ticks": 126,
          "channel": 9
        },
        {
          "note": 36,
          "start": 154.409237,
          "duration": 0.097222,
          "velocity": 1.0,
          "start_tick": 233467,
          "duration_ticks": 147,
          "channel": 9
        },
        {
          "note": 40,
          "start": 154.409237,
          "duration": 0.080688,
          "velocity": 1.0,
          "start_tick": 233467,
          "duration_ticks": 122,
          "channel": 9
        },
        {
          "note": 42,
          "start": 154.409237,
          "duration": 0.078704,
          "velocity": 0.527559,
          "start_tick": 233467,
          "duration_ticks": 119,
          "channel": 9
        },
        {
          "note": 42,
          "start": 154.570613,
          "duration": 0.077381,
          "velocity": 0.291339,
          "start_tick": 233711,
          "duration_ticks": 117,
          "channel": 9
        },
        {
          "note": 42,
          "start": 154.731988,
          "duration": 0.083333,
          "velocity": 0.897638,
          "start_tick": 233955,
          "duration_ticks": 126,
          "channel": 9
        },
        {
          "note": 42,
          "start": 154.893364,
          "duration": 0.074735,
          "velocity": 0.637795,
          "start_tick": 234199,
          "duration_ticks": 113,
          "channel": 9
        },
        {
          "note": 36,
          "start": 155.0554,
          "duration": 0.109127,
          "velocity": 1.0,
          "start_tick": 234444,
          "duration_ticks": 165,
          "channel": 9
        },
        {
          "note": 42,
          "start": 155.0554,
          "duration": 0.07209,
          "velocity": 0.511811,
          "start_tick": 234444,
          "duration_ticks": 109,
          "channel": 9
        },
        {
          "note": 42,
          "start": 155.216115,
          "duration": 0.07672,
          "velocity": 0.582677,
          "start_tick": 234687,
          "duration_ticks": 116,
          "channel": 9
        },
        {
          "note": 42,
          "start": 155.376167,
          "duration": 0.081349,
          "velocity": 0.929134,
          "start_tick": 234929,
          "duration_ticks": 123,
          "channel": 9
        },
        {
          "note": 42,
          "start": 155.536881,
          "duration": 0.074735,
          "velocity": 0.598425,
          "start_tick": 235172,
          "duration_ticks": 113,
          "channel": 9
        },
        {
          "note": 36,
          "start": 155.696934,
          "duration": 0.103174,
          "velocity": 1.0,
          "start_tick": 235414,
          "duration_ticks": 156,
          "channel": 9
        },
        {
          "note": 40,
          "start": 155.696934,
          "duration": 0.080026,
          "velocity": 1.0,
          "start_tick": 235414,
          "duration_ticks": 121,
          "channel": 9
        },
        {
          "note": 42,
          "start": 155.696934,
          "duration": 0.08664,
          "velocity": 0.464567,
          "start_tick": 235414,
          "duration_ticks": 131,
          "channel": 9
        },
        {
          "note": 42,
          "start": 155.856987,
          "duration": 0.068122,
          "velocity": 0.440945,
          "start_tick": 235656,
          "duration_ticks": 103,
          "channel": 9
        },
        {
          "note": 42,
          "start": 156.017701,
          "duration": 0.081349,
          "velocity": 0.88189,
          "start_tick": 235899,
          "duration_ticks": 123,
          "channel": 9
        },
        {
          "note": 42,
          "start": 156.177754,
          "duration": 0.089286,
          "velocity": 0.692913,
          "start_tick": 236141,
          "duration_ticks": 135,
          "channel": 9
        },
        {
          "note": 36,
          "start": 156.337807,
          "duration": 0.107804,
          "velocity": 1.0,
          "start_tick": 236383,
          "duration_ticks": 163,
          "channel": 9
        },
        {
          "note": 42,
          "start": 156.337807,
          "duration": 0.079365,
          "velocity": 0.440945,
          "start_tick": 236383,
          "duration_ticks": 120,
          "channel": 9
        },
        {
          "note": 42,
          "start": 156.498521,
          "duration": 0.080688,
          "velocity": 0.440945,
          "start_tick": 236626,
          "duration_ticks": 122,
          "channel": 9
        },
        {
          "note": 42,
          "start": 156.658573,
          "duration": 0.083333,
          "velocity": 0.88189,
          "start_tick": 236868,
          "duration_ticks": 126,
          "channel": 9
        },
        {
          "note": 42,
          "start": 156.818626,
          "duration": 0.090608,
          "velocity": 0.669291,
          "start_tick": 237110,
          "duration_ticks": 137,
          "channel": 9
        },
        {
          "note": 36,
          "start": 156.97934,
          "duration": 0.107143,
          "velocity": 1.0,
          "start_tick": 237353,
          "duration_ticks": 162,
          "channel": 9
        },
        {
          "note": 40,
          "start": 156.97934,
          "duration": 0.080026,
          "velocity": 1.0,
          "start_tick": 237353,
          "duration_ticks": 121,
          "channel": 9
        },
        {
          "note": 42,
          "start": 156.97934,
          "duration": 0.075397,
          "velocity": 0.417323,
          "start_tick": 237353,
          "duration_ticks": 114,
          "channel": 9
        },
        {
          "note": 42,
          "start": 157.139393,
          "duration": 0.088624,
          "velocity": 0.354331,
          "start_tick": 237595,
          "duration_ticks": 134,
          "channel": 9
        },
        {
          "note": 42,
          "start": 157.299446,
          "duration": 0.082672,
          "velocity": 0.913386,
          "start_tick": 237837,
          "duration_ticks": 125,
          "channel": 9
        },
        {
          "note": 42,
          "start": 157.46016,
          "duration": 0.087301,
          "velocity": 0.614173,
          "start_tick": 238080,
          "duration_ticks": 132,
          "channel": 9
        },
        {
          "note": 36,
          "start": 157.620213,
          "duration": 0.105159,
          "velocity": 1.0,
          "start_tick": 238322,
          "duration_ticks": 159,
          "channel": 9
        },
        {
          "note": 42,
          "start": 157.620213,
          "duration": 0.075397,
          "velocity": 0.503937,
          "start_tick": 238322,
          "duration_ticks": 114,
          "channel": 9
        },
        {
          "note": 42,
          "start": 157.780266,
          "duration": 0.06746,
          "velocity": 0.401575,
          "start_tick": 238564,
          "duration_ticks": 102,
          "channel": 9
        },
        {
          "note": 42,
          "start": 157.94098,
          "duration": 0.084656,
          "velocity": 0.88189,
          "start_tick": 238807,
          "duration_ticks": 128,
          "channel": 9
        },
        {
          "note": 42,
          "start": 158.101032,
          "duration": 0.084656,
          "velocity": 0.480315,
          "start_tick": 239049,
          "duration_ticks": 128,
          "channel": 9
        },
        {
          "note": 36,
          "start": 158.261085,
          "duration": 0.107804,
          "velocity": 1.0,
          "start_tick": 239291,
          "duration_ticks": 163,
          "channel": 9
        },
        {
          "note": 40,
          "start": 158.261085,
          "duration": 0.080026,
          "velocity": 1.0,
          "start_tick": 239291,
          "duration_ticks": 121,
          "channel": 9
        },
        {
          "note": 42,
          "start": 158.261085,
          "duration": 0.079365,
          "velocity": 0.535433,
          "start_tick": 239291,
          "duration_ticks": 120,
          "channel": 9
        },
        {
          "note": 42,
          "start": 158.421799,
          "duration": 0.064815,
          "velocity": 0.307087,
          "start_tick": 239534,
          "duration_ticks": 98,
          "channel": 9
        },
        {
          "note": 42,
          "start": 158.581852,
          "duration": 0.085979,
          "velocity": 0.929134,
          "start_tick": 239776,
          "duration_ticks": 130,
          "channel": 9
        },
        {
          "note": 42,
          "start": 158.741905,
          "duration": 0.087301,
          "velocity": 0.535433,
          "start_tick": 240018,
          "duration_ticks": 132,
          "channel": 9
        },
        {
          "note": 36,
          "start": 158.902619,
          "duration": 0.10582,
          "velocity": 1.0,
          "start_tick": 240261,
          "duration_ticks": 160,
          "channel": 9
        },
        {
          "note": 42,
          "start": 158.902619,
          "duration": 0.079365,
          "velocity": 0.464567,
          "start_tick": 240261,
          "duration_ticks": 120,
          "channel": 9
        },
        {
          "note": 42,
          "start": 159.062672,
          "duration": 0.084656,
          "velocity": 0.385827,
          "start_tick": 240503,
          "duration_ticks": 128,
          "channel": 9
        },
        {
          "note": 42,
          "start": 159.222724,
          "duration": 0.082672,
          "velocity": 0.897638,
          "start_tick": 240745,
          "duration_ticks": 125,
          "channel": 9
        },
        {
          "note": 42,
          "start": 159.383439,
          "duration": 0.082672,
          "velocity": 0.354331,
          "start_tick": 240988,
          "duration_ticks": 125,
          "channel": 9
        },
        {
          "note": 36,
          "start": 159.543491,
          "duration": 0.095899,
          "velocity": 1.0,
          "start_tick": 241230,
          "duration_ticks": 145,
          "channel": 9
        },
        {
          "note": 40,
          "start": 159.543491,
          "duration": 0.080026,
          "velocity": 1.0,
          "start_tick": 241230,
          "duration_ticks": 121,
          "channel": 9
        },
        {
          "note": 42,
          "start": 159.543491,
          "duration": 0.078042,
          "velocity": 0.527559,
          "start_tick": 241230,
          "duration_ticks": 118,
          "channel": 9
        },
        {
          "note": 42,
          "start": 159.703544,
          "duration": 0.076719,
          "velocity": 0.291339,
          "start_tick": 241472,
          "duration_ticks": 116,
          "channel": 9
        },
        {
          "note": 42,
          "start": 159.864258,
          "duration": 0.082672,
          "velocity": 0.897638,
          "start_tick": 241715,
          "duration_ticks": 125,
          "channel": 9
        },
        {
          "note": 42,
          "start": 160.024311,
          "duration": 0.074074,
          "velocity": 0.637795,
          "start_tick": 241957,
          "duration_ticks": 112,
          "channel": 9
        },
        {
          "note": 36,
          "start": 160.184364,
          "duration": 0.109127,
          "velocity": 1.0,
          "start_tick": 242199,
          "duration_ticks": 165,
          "channel": 9
        },
        {
          "note": 42,
          "start": 160.184364,
          "duration": 0.07209,
          "velocity": 0.511811,
          "start_tick": 242199,
          "duration_ticks": 109,
          "channel": 9
        },
        {
          "note": 42,
          "start": 160.345078,
          "duration": 0.076719,
          "velocity": 0.582677,
          "start_tick": 242442,
          "duration_ticks": 116,
          "channel": 9
        },
        {
          "note": 42,
          "start": 160.505131,
          "duration": 0.081349,
          "velocity": 0.929134,
          "start_tick": 242684,
          "duration_ticks": 123,
          "channel": 9
        },
        {
          "note": 42,
          "start": 160.665183,
          "duration": 0.074735,
          "velocity": 0.598425,
          "start_tick": 242926,
          "duration_ticks": 113,
          "channel": 9
        },
        {
          "note": 36,
          "start": 160.825897,
          "duration": 0.103174,
          "velocity": 1.0,
          "start_tick": 243169,
          "duration_ticks": 156,
          "channel": 9
        },
        {
          "note": 40,
          "start": 160.825897,
          "duration": 0.080026,
          "velocity": 1.0,
          "start_tick": 243169,
          "duration_ticks": 121,
          "channel": 9
        },
        {
          "note": 42,
          "start": 160.825897,
          "duration": 0.08664,
          "velocity": 0.464567,
          "start_tick": 243169,
          "duration_ticks": 131,
          "channel": 9
        },
        {
          "note": 42,
          "start": 160.98595,
          "duration": 0.068122,
          "velocity": 0.440945,
          "start_tick": 243411,
          "duration_ticks": 103,
          "channel": 9
        },
        {
          "note": 42,
          "start": 161.146003,
          "duration": 0.081349,
          "velocity": 0.88189,
          "start_tick": 243653,
          "duration_ticks": 123,
          "channel": 9
        },
        {
          "note": 42,
          "start": 161.306717,
          "duration": 0.089286,
          "velocity": 0.692913,
          "start_tick": 243896,
          "duration_ticks": 135,
          "channel": 9
        },
        {
          "note": 36,
          "start": 161.46677,
          "duration": 0.107143,
          "velocity": 1.0,
          "start_tick": 244138,
          "duration_ticks": 162,
          "channel": 9
        },
        {
          "note": 42,
          "start": 161.46677,
          "duration": 0.079365,
          "velocity": 0.440945,
          "start_tick": 244138,
          "duration_ticks": 120,
          "channel": 9
        },
        {
          "note": 42,
          "start": 161.626823,
          "duration": 0.080688,
          "velocity": 0.440945,
          "start_tick": 244380,
          "duration_ticks": 122,
          "channel": 9
        },
        {
          "note": 42,
          "start": 161.787537,
          "duration": 0.083333,
          "velocity": 0.88189,
          "start_tick": 244623,
          "duration_ticks": 126,
          "channel": 9
        },
        {
          "note": 42,
          "start": 161.947589,
          "duration": 0.090608,
          "velocity": 0.669291,
          "start_tick": 244865,
          "duration_ticks": 137,
          "channel": 9
        },
        {
          "note": 36,
          "start": 162.107642,
          "duration": 0.107804,
          "velocity": 1.0,
          "start_tick": 245107,
          "duration_ticks": 163,
          "channel": 9
        },
        {
          "note": 40,
          "start": 162.107642,
          "duration": 0.080026,
          "velocity": 1.0,
          "start_tick": 245107,
          "duration_ticks": 121,
          "channel": 9
        },
        {
          "note": 42,
          "start": 162.107642,
          "duration": 0.075397,
          "velocity": 0.417323,
          "start_tick": 245107,
          "duration_ticks": 114,
          "channel": 9
        },
        {
          "note": 42,
          "start": 162.268356,
          "duration": 0.088624,
          "velocity": 0.354331,
          "start_tick": 245350,
          "duration_ticks": 134,
          "channel": 9
        },
        {
          "note": 42,
          "start": 162.428409,
          "duration": 0.082672,
          "velocity": 0.913386,
          "start_tick": 245592,
          "duration_ticks": 125,
          "channel": 9
        },
        {
          "note": 42,
          "start": 162.588462,
          "duration": 0.087301,
          "velocity": 0.614173,
          "start_tick": 245834,
          "duration_ticks": 132,
          "channel": 9
        },
        {
          "note": 36,
          "start": 162.749176,
          "duration": 0.105159,
          "velocity": 1.0,
          "start_tick": 246077,
          "duration_ticks": 159,
          "channel": 9
        },
        {
          "note": 42,
          "start": 162.749176,
          "duration": 0.075397,
          "velocity": 0.503937,
          "start_tick": 246077,
          "duration_ticks": 114,
          "channel": 9
        },
        {
          "note": 42,
          "start": 162.909229,
          "duration": 0.06746,
          "velocity": 0.401575,
          "start_tick": 246319,
          "duration_ticks": 102,
          "channel": 9
        },
        {
          "note": 42,
          "start": 163.069281,
          "duration": 0.084656,
          "velocity": 0.88189,
          "start_tick": 246561,
          "duration_ticks": 128,
          "channel": 9
        },
        {
          "note": 42,
          "start": 163.229996,
          "duration": 0.084656,
          "velocity": 0.480315,
          "start_tick": 246804,
          "duration_ticks": 128,
          "channel": 9
        },
        {
          "note": 36,
          "start": 163.390048,
          "duration": 0.107143,
          "velocity": 1.0,
          "start_tick": 247046,
          "duration_ticks": 162,
          "channel": 9
        },
        {
          "note": 40,
          "start": 163.390048,
          "duration": 0.080026,
          "velocity": 1.0,
          "start_tick": 247046,
          "duration_ticks": 121,
          "channel": 9
        },
        {
          "note": 42,
          "start": 163.390048,
          "duration": 0.079365,
          "velocity": 0.535433,
          "start_tick": 247046,
          "duration_ticks": 120,
          "channel": 9
        },
        {
          "note": 42,
          "start": 163.550101,
          "duration": 0.065476,
          "velocity": 0.307087,
          "start_tick": 247288,
          "duration_ticks": 99,
          "channel": 9
        },
        {
          "note": 42,
          "start": 163.710815,
          "duration": 0.085979,
          "velocity": 0.929134,
          "start_tick": 247531,
          "duration_ticks": 130,
          "channel": 9
        },
        {
          "note": 42,
          "start": 163.870868,
          "duration": 0.087302,
          "velocity": 0.535433,
          "start_tick": 247773,
          "duration_ticks": 132,
          "channel": 9
        },
        {
          "note": 36,
          "start": 164.030921,
          "duration": 0.106481,
          "velocity": 1.0,
          "start_tick": 248015,
          "duration_ticks": 161,
          "channel": 9
        },
        {
          "note": 42,
          "start": 164.030921,
          "duration": 0.079365,
          "velocity": 0.464567,
          "start_tick": 248015,
          "duration_ticks": 120,
          "channel": 9
        },
        {
          "note": 42,
          "start": 164.191635,
          "duration": 0.084656,
          "velocity": 0.385827,
          "start_tick": 248258,
          "duration_ticks": 128,
          "channel": 9
        },
        {
          "note": 42,
          "start": 164.351687,
          "duration": 0.082672,
          "velocity": 0.897638,
          "start_tick": 248500,
          "duration_ticks": 125,
          "channel": 9
        },
        {
          "note": 42,
          "start": 164.51174,
          "duration": 0.082672,
          "velocity": 0.354331,
          "start_tick": 248742,
          "duration_ticks": 125,
          "channel": 9
        },
        {
          "note": 36,
          "start": 164.672454,
          "duration": 0.095899,
          "velocity": 1.0,
          "start_tick": 248985,
          "duration_ticks": 145,
          "channel": 9
        },
        {
          "note": 40,
          "start": 164.672454,
          "duration": 0.080026,
          "velocity": 1.0,
          "start_tick": 248985,
          "duration_ticks": 121,
          "channel": 9
        },
        {
          "note": 42,
          "start": 164.672454,
          "duration": 0.078042,
          "velocity": 0.527559,
          "start_tick": 248985,
          "duration_ticks": 118,
          "channel": 9
        },
        {
          "note": 42,
          "start": 164.832507,
          "duration": 0.076719,
          "velocity": 0.291339,
          "start_tick": 249227,
          "duration_ticks": 116,
          "channel": 9
        },
        {
          "note": 42,
          "start": 164.99256,
          "duration": 0.082672,
          "velocity": 0.897638,
          "start_tick": 249469,
          "duration_ticks": 125,
          "channel": 9
        },
        {
          "note": 42,
          "start": 165.153274,
          "duration": 0.074074,
          "velocity": 0.637795,
          "start_tick": 249712,
          "duration_ticks": 112,
          "channel": 9
        },
        {
          "note": 36,
          "start": 165.312004,
          "duration": 0.106481,
          "velocity": 1.0,
          "start_tick": 249952,
          "duration_ticks": 161,
          "channel": 9
        },
        {
          "note": 42,
          "start": 165.312004,
          "duration": 0.070767,
          "velocity": 0.511811,
          "start_tick": 249952,
          "duration_ticks": 107,
          "channel": 9
        },
        {
          "note": 42,
          "start": 165.46875,
          "duration": 0.075397,
          "velocity": 0.582677,
          "start_tick": 250189,
          "duration_ticks": 114,
          "channel": 9
        },
        {
          "note": 42,
          "start": 165.626157,
          "duration": 0.080026,
          "velocity": 0.929134,
          "start_tick": 250427,
          "duration_ticks": 121,
          "channel": 9
        },
        {
          "note": 42,
          "start": 165.783564,
          "duration": 0.073413,
          "velocity": 0.598425,
          "start_tick": 250665,
          "duration_ticks": 111,
          "channel": 9
        },
        {
          "note": 36,
          "start": 165.94031,
          "duration": 0.101852,
          "velocity": 1.0,
          "start_tick": 250902,
          "duration_ticks": 154,
          "channel": 9
        },
        {
          "note": 40,
          "start": 165.94031,
          "duration": 0.078704,
          "velocity": 1.0,
          "start_tick": 250902,
          "duration_ticks": 119,
          "channel": 9
        },
        {
          "note": 42,
          "start": 165.94031,
          "duration": 0.085317,
          "velocity": 0.464567,
          "start_tick": 250902,
          "duration_ticks": 129,
          "channel": 9
        },
        {
          "note": 42,
          "start": 166.097717,
          "duration": 0.066799,
          "velocity": 0.440945,
          "start_tick": 251140,
          "duration_ticks": 101,
          "channel": 9
        },
        {
          "note": 42,
          "start": 166.255125,
          "duration": 0.080026,
          "velocity": 0.88189,
          "start_tick": 251378,
          "duration_ticks": 121,
          "channel": 9
        },
        {
          "note": 42,
          "start": 166.412532,
          "duration": 0.087301,
          "velocity": 0.692913,
          "start_tick": 251616,
          "duration_ticks": 132,
          "channel": 9
        },
        {
          "note": 36,
          "start": 166.569278,
          "duration": 0.10582,
          "velocity": 1.0,
          "start_tick": 251853,
          "duration_ticks": 160,
          "channel": 9
        },
        {
          "note": 42,
          "start": 166.569278,
          "duration": 0.078042,
          "velocity": 0.440945,
          "start_tick": 251853,
          "duration_ticks": 118,
          "channel": 9
        },
        {
          "note": 42,
          "start": 166.726685,
          "duration": 0.079365,
          "velocity": 0.440945,
          "start_tick": 252091,
          "duration_ticks": 120,
          "channel": 9
        },
        {
          "note": 42,
          "start": 166.884092,
          "duration": 0.08201,
          "velocity": 0.88189,
          "start_tick": 252329,
          "duration_ticks": 124,
          "channel": 9
        },
        {
          "note": 42,
          "start": 167.0415,
          "duration": 0.088624,
          "velocity": 0.669291,
          "start_tick": 252567,
          "duration_ticks": 134,
          "channel": 9
        },
        {
          "note": 36,
          "start": 167.198246,
          "duration": 0.10582,
          "velocity": 1.0,
          "start_tick": 252804,
          "duration_ticks": 160,
          "channel": 9
        },
        {
          "note": 40,
          "start": 167.198246,
          "duration": 0.078704,
          "velocity": 1.0,
          "start_tick": 252804,
          "duration_ticks": 119,
          "channel": 9
        },
        {
          "note": 42,
          "start": 167.198246,
          "duration": 0.074074,
          "velocity": 0.417323,
          "start_tick": 252804,
          "duration_ticks": 112,
          "channel": 9
        },
        {
          "note": 42,
          "start": 167.355653,
          "duration": 0.087302,
          "velocity": 0.354331,
          "start_tick": 253042,
          "duration_ticks": 132,
          "channel": 9
        },
        {
          "note": 42,
          "start": 167.51306,
          "duration": 0.081349,
          "velocity": 0.913386,
          "start_tick": 253280,
          "duration_ticks": 123,
          "channel": 9
        },
        {
          "note": 42,
          "start": 167.669806,
          "duration": 0.085979,
          "velocity": 0.614173,
          "start_tick": 253517,
          "duration_ticks": 130,
          "channel": 9
        },
        {
          "note": 36,
          "start": 167.827213,
          "duration": 0.103836,
          "velocity": 1.0,
          "start_tick": 253755,
          "duration_ticks": 157,
          "channel": 9
        },
        {
          "note": 42,
          "start": 167.827213,
          "duration": 0.074074,
          "velocity": 0.503937,
          "start_tick": 253755,
          "duration_ticks": 112,
          "channel": 9
        },
        {
          "note": 42,
          "start": 167.98462,
          "duration": 0.066137,
          "velocity": 0.401575,
          "start_tick": 253993,
          "duration_ticks": 100,
          "channel": 9
        },
        {
          "note": 42,
          "start": 168.142028,
          "duration": 0.082672,
          "velocity": 0.88189,
          "start_tick": 254231,
          "duration_ticks": 125,
          "channel": 9
        },
        {
          "note": 42,
          "start": 168.298774,
          "duration": 0.083333,
          "velocity": 0.480315,
          "start_tick": 254468,
          "duration_ticks": 126,
          "channel": 9
        },
        {
          "note": 36,
          "start": 168.456181,
          "duration": 0.10582,
          "velocity": 1.0,
          "start_tick": 254706,
          "duration_ticks": 160,
          "channel": 9
        },
        {
          "note": 40,
          "start": 168.456181,
          "duration": 0.078704,
          "velocity": 1.0,
          "start_tick": 254706,
          "duration_ticks": 119,
          "channel": 9
        },
        {
          "note": 42,
          "start": 168.456181,
          "duration": 0.078042,
          "velocity": 0.535433,
          "start_tick": 254706,
          "duration_ticks": 118,
          "channel": 9
        },
        {
          "note": 42,
          "start": 168.613588,
          "duration": 0.064153,
          "velocity": 0.307087,
          "start_tick": 254944,
          "duration_ticks": 97,
          "channel": 9
        },
        {
          "note": 42,
          "start": 168.770995,
          "duration": 0.083995,
          "velocity": 0.929134,
          "start_tick": 255182,
          "duration_ticks": 127,
          "channel": 9
        },
        {
          "note": 42,
          "start": 168.927741,
          "duration": 0.085979,
          "velocity": 0.535433,
          "start_tick": 255419,
          "duration_ticks": 130,
          "channel": 9
        },
        {
          "note": 36,
          "start": 169.085148,
          "duration": 0.104497,
          "velocity": 1.0,
          "start_tick": 255657,
          "duration_ticks": 158,
          "channel": 9
        },
        {
          "note": 42,
          "start": 169.085148,
          "duration": 0.078042,
          "velocity": 0.464567,
          "start_tick": 255657,
          "duration_ticks": 118,
          "channel": 9
        },
        {
          "note": 42,
          "start": 169.242556,
          "duration": 0.083333,
          "velocity": 0.385827,
          "start_tick": 255895,
          "duration_ticks": 126,
          "channel": 9
        },
        {
          "note": 42,
          "start": 169.399302,
          "duration": 0.081349,
          "velocity": 0.897638,
          "start_tick": 256132,
          "duration_ticks": 123,
          "channel": 9
        },
        {
          "note": 42,
          "start": 169.556709,
          "duration": 0.081349,
          "velocity": 0.354331,
          "start_tick": 256370,
          "duration_ticks": 123,
          "channel": 9
        },
        {
          "note": 36,
          "start": 169.714116,
          "duration": 0.094577,
          "velocity": 1.0,
          "start_tick": 256608,
          "duration_ticks": 143,
          "channel": 9
        },
        {
          "note": 40,
          "start": 169.714116,
          "duration": 0.078704,
          "velocity": 1.0,
          "start_tick": 256608,
          "duration_ticks": 119,
          "channel": 9
        },
        {
          "note": 42,
          "start": 169.714116,
          "duration": 0.076719,
          "velocity": 0.527559,
          "start_tick": 256608,
          "duration_ticks": 116,
          "channel": 9
        },
        {
          "note": 42,
          "start": 169.871523,
          "duration": 0.075397,
          "velocity": 0.291339,
          "start_tick": 256846,
          "duration_ticks": 114,
          "channel": 9
        },
        {
          "note": 42,
          "start": 170.028269,
          "duration": 0.081349,
          "velocity": 0.897638,
          "start_tick": 257083,
          "duration_ticks": 123,
          "channel": 9
        },
        {
          "note": 42,
          "start": 170.185676,
          "duration": 0.072751,
          "velocity": 0.637795,
          "start_tick": 257321,
          "duration_ticks": 110,
          "channel": 9
        },
        {
          "note": 42,
          "start": 170.343084,
          "duration": 0.070767,
          "velocity": 0.511811,
          "start_tick": 257559,
          "duration_ticks": 107,
          "channel": 9
        },
        {
          "note": 42,
          "start": 170.500491,
          "duration": 0.075397,
          "velocity": 0.582677,
          "start_tick": 257797,
          "duration_ticks": 114,
          "channel": 9
        },
        {
          "note": 42,
          "start": 170.657237,
          "duration": 0.080026,
          "velocity": 0.929134,
          "start_tick": 258034,
          "duration_ticks": 121,
          "channel": 9
        },
        {
          "note": 42,
          "start": 170.814644,
          "duration": 0.073413,
          "velocity": 0.598425,
          "start_tick": 258272,
          "duration_ticks": 111,
          "channel": 9
        },
        {
          "note": 42,
          "start": 170.972051,
          "duration": 0.085317,
          "velocity": 0.464567,
          "start_tick": 258510,
          "duration_ticks": 129,
          "channel": 9
        },
        {
          "note": 42,
          "start": 171.129458,
          "duration": 0.066799,
          "velocity": 0.440945,
          "start_tick": 258748,
          "duration_ticks": 101,
          "channel": 9
        },
        {
          "note": 42,
          "start": 171.286204,
          "duration": 0.080026,
          "velocity": 0.88189,
          "start_tick": 258985,
          "duration_ticks": 121,
          "channel": 9
        },
        {
          "note": 42,
          "start": 171.443612,
          "duration": 0.087963,
          "velocity": 0.692913,
          "start_tick": 259223,
          "duration_ticks": 133,
          "channel": 9
        },
        {
          "note": 42,
          "start": 171.601019,
          "duration": 0.078042,
          "velocity": 0.440945,
          "start_tick": 259461,
          "duration_ticks": 118,
          "channel": 9
        },
        {
          "note": 42,
          "start": 171.757765,
          "duration": 0.079365,
          "velocity": 0.440945,
          "start_tick": 259698,
          "duration_ticks": 120,
          "channel": 9
        },
        {
          "note": 42,
          "start": 171.915172,
          "duration": 0.08201,
          "velocity": 0.88189,
          "start_tick": 259936,
          "duration_ticks": 124,
          "channel": 9
        },
        {
          "note": 42,
          "start": 172.072579,
          "duration": 0.089286,
          "velocity": 0.669291,
          "start_tick": 260174,
          "duration_ticks": 135,
          "channel": 9
        },
        {
          "note": 42,
          "start": 172.229986,
          "duration": 0.074074,
          "velocity": 0.417323,
          "start_tick": 260412,
          "duration_ticks": 112,
          "channel": 9
        },
        {
          "note": 42,
          "start": 172.386732,
          "duration": 0.087301,
          "velocity": 0.354331,
          "start_tick": 260649,
          "duration_ticks": 132,
          "channel": 9
        },
        {
          "note": 42,
          "start": 172.54414,
          "duration": 0.081349,
          "velocity": 0.913386,
          "start_tick": 260887,
          "duration_ticks": 123,
          "channel": 9
        },
        {
          "note": 42,
          "start": 172.701547,
          "duration": 0.085979,
          "velocity": 0.614173,
          "start_tick": 261125,
          "duration_ticks": 130,
          "channel": 9
        },
        {
          "note": 42,
          "start": 172.858954,
          "duration": 0.073413,
          "velocity": 0.503937,
          "start_tick": 261363,
          "duration_ticks": 111,
          "channel": 9
        },
        {
          "note": 42,
          "start": 173.0157,
          "duration": 0.066137,
          "velocity": 0.401575,
          "start_tick": 261600,
          "duration_ticks": 100,
          "channel": 9
        },
        {
          "note": 42,
          "start": 173.173107,
          "duration": 0.083333,
          "velocity": 0.88189,
          "start_tick": 261838,
          "duration_ticks": 126,
          "channel": 9
        },
        {
          "note": 42,
          "start": 173.330514,
          "duration": 0.083333,
          "velocity": 0.480315,
          "start_tick": 262076,
          "duration_ticks": 126,
          "channel": 9
        },
        {
          "note": 42,
          "start": 173.48726,
          "duration": 0.078042,
          "velocity": 0.535433,
          "start_tick": 262313,
          "duration_ticks": 118,
          "channel": 9
        },
        {
          "note": 42,
          "start": 173.644668,
          "duration": 0.064153,
          "velocity": 0.307087,
          "start_tick": 262551,
          "duration_ticks": 97,
          "channel": 9
        },
        {
          "note": 42,
          "start": 173.802075,
          "duration": 0.084656,
          "velocity": 0.929134,
          "start_tick": 262789,
          "duration_ticks": 128,
          "channel": 9
        },
        {
          "note": 42,
          "start": 173.959482,
          "duration": 0.085317,
          "velocity": 0.535433,
          "start_tick": 263027,
          "duration_ticks": 129,
          "channel": 9
        },
        {
          "note": 42,
          "start": 174.116228,
          "duration": 0.078042,
          "velocity": 0.464567,
          "start_tick": 263264,
          "duration_ticks": 118,
          "channel": 9
        },
        {
          "note": 42,
          "start": 174.273635,
          "duration": 0.083333,
          "velocity": 0.385827,
          "start_tick": 263502,
          "duration_ticks": 126,
          "channel": 9
        },
        {
          "note": 42,
          "start": 174.431042,
          "duration": 0.081349,
          "velocity": 0.897638,
          "start_tick": 263740,
          "duration_ticks": 123,
          "channel": 9
        },
        {
          "note": 42,
          "start": 174.58845,
          "duration": 0.080688,
          "velocity": 0.354331,
          "start_tick": 263978,
          "duration_ticks": 122,
          "channel": 9
        },
        {
          "note": 42,
          "start": 174.745196,
          "duration": 0.076719,
          "velocity": 0.527559,
          "start_tick": 264215,
          "duration_ticks": 116,
          "channel": 9
        },
        {
          "note": 42,
          "start": 174.902603,
          "duration": 0.075397,
          "velocity": 0.291339,
          "start_tick": 264453,
          "duration_ticks": 114,
          "channel": 9
        },
        {
          "note": 42,
          "start": 175.06001,
          "duration": 0.081349,
          "velocity": 0.897638,
          "start_tick": 264691,
          "duration_ticks": 123,
          "channel": 9
        },
        {
          "note": 42,
          "start": 175.216756,
          "duration": 0.072751,
          "velocity": 0.637795,
          "start_tick": 264928,
          "duration_ticks": 110,
          "channel": 9
        },
        {
          "note": 42,
          "start": 175.374163,
          "duration": 0.070767,
          "velocity": 0.511811,
          "start_tick": 265166,
          "duration_ticks": 107,
          "channel": 9
        },
        {
          "note": 42,
          "start": 175.53157,
          "duration": 0.075397,
          "velocity": 0.582677,
          "start_tick": 265404,
          "duration_ticks": 114,
          "channel": 9
        },
        {
          "note": 42,
          "start": 175.688978,
          "duration": 0.079365,
          "velocity": 0.929134,
          "start_tick": 265642,
          "duration_ticks": 120,
          "channel": 9
        },
        {
          "note": 42,
          "start": 175.845724,
          "duration": 0.073413,
          "velocity": 0.598425,
          "start_tick": 265879,
          "duration_ticks": 111,
          "channel": 9
        },
        {
          "note": 42,
          "start": 176.003131,
          "duration": 0.085317,
          "velocity": 0.464567,
          "start_tick": 266117,
          "duration_ticks": 129,
          "channel": 9
        },
        {
          "note": 42,
          "start": 176.160538,
          "duration": 0.066799,
          "velocity": 0.440945,
          "start_tick": 266355,
          "duration_ticks": 101,
          "channel": 9
        },
        {
          "note": 42,
          "start": 176.317945,
          "duration": 0.079365,
          "velocity": 0.88189,
          "start_tick": 266593,
          "duration_ticks": 120,
          "channel": 9
        },
        {
          "note": 42,
          "start": 176.474691,
          "duration": 0.087963,
          "velocity": 0.692913,
          "start_tick": 266830,
          "duration_ticks": 133,
          "channel": 9
        },
        {
          "note": 42,
          "start": 176.632099,
          "duration": 0.078042,
          "velocity": 0.440945,
          "start_tick": 267068,
          "duration_ticks": 118,
          "channel": 9
        },
        {
          "note": 42,
          "start": 176.789506,
          "duration": 0.079365,
          "velocity": 0.440945,
          "start_tick": 267306,
          "duration_ticks": 120,
          "channel": 9
        },
        {
          "note": 42,
          "start": 176.946252,
          "duration": 0.08201,
          "velocity": 0.88189,
          "start_tick": 267543,
          "duration_ticks": 124,
          "channel": 9
        },
        {
          "note": 42,
          "start": 177.103659,
          "duration": 0.089286,
          "velocity": 0.669291,
          "start_tick": 267781,
          "duration_ticks": 135,
          "channel": 9
        },
        {
          "note": 42,
          "start": 177.261066,
          "duration": 0.074074,
          "velocity": 0.417323,
          "start_tick": 268019,
          "duration_ticks": 112,
          "channel": 9
        },
        {
          "note": 42,
          "start": 177.418473,
          "duration": 0.08664,
          "velocity": 0.354331,
          "start_tick": 268257,
          "duration_ticks": 131,
          "channel": 9
        },
        {
          "note": 42,
          "start": 177.575219,
          "duration": 0.081349,
          "velocity": 0.913386,
          "start_tick": 268494,
          "duration_ticks": 123,
          "channel": 9
        },
        {
          "note": 42,
          "start": 177.732627,
          "duration": 0.085979,
          "velocity": 0.614173,
          "start_tick": 268732,
          "duration_ticks": 130,
          "channel": 9
        },
        {
          "note": 42,
          "start": 177.890034,
          "duration": 0.074074,
          "velocity": 0.503937,
          "start_tick": 268970,
          "duration_ticks": 112,
          "channel": 9
        },
        {
          "note": 42,
          "start": 178.047441,
          "duration": 0.066137,
          "velocity": 0.401575,
          "start_tick": 269208,
          "duration_ticks": 100,
          "channel": 9
        },
        {
          "note": 42,
          "start": 178.204187,
          "duration": 0.083333,
          "velocity": 0.88189,
          "start_tick": 269445,
          "duration_ticks": 126,
          "channel": 9
        },
        {
          "note": 42,
          "start": 178.361594,
          "duration": 0.083333,
          "velocity": 0.480315,
          "start_tick": 269683,
          "duration_ticks": 126,
          "channel": 9
        },
        {
          "note": 42,
          "start": 178.519001,
          "duration": 0.078042,
          "velocity": 0.535433,
          "start_tick": 269921,
          "duration_ticks": 118,
          "channel": 9
        },
        {
          "note": 42,
          "start": 178.675747,
          "duration": 0.064815,
          "velocity": 0.307087,
          "start_tick": 270158,
          "duration_ticks": 98,
          "channel": 9
        },
        {
          "note": 42,
          "start": 178.833155,
          "duration": 0.084656,
          "velocity": 0.929134,
          "start_tick": 270396,
          "duration_ticks": 128,
          "channel": 9
        },
        {
          "note": 42,
          "start": 178.990562,
          "duration": 0.085979,
          "velocity": 0.535433,
          "start_tick": 270634,
          "duration_ticks": 130,
          "channel": 9
        },
        {
          "note": 42,
          "start": 179.147969,
          "duration": 0.078042,
          "velocity": 0.464567,
          "start_tick": 270872,
          "duration_ticks": 118,
          "channel": 9
        },
        {
          "note": 42,
          "start": 179.304715,
          "duration": 0.083333,
          "velocity": 0.385827,
          "start_tick": 271109,
          "duration_ticks": 126,
          "channel": 9
        },
        {
          "note": 42,
          "start": 179.462122,
          "duration": 0.081349,
          "velocity": 0.897638,
          "start_tick": 271347,
          "duration_ticks": 123,
          "channel": 9
        },
        {
          "note": 42,
          "start": 179.619529,
          "duration": 0.081349,
          "velocity": 0.354331,
          "start_tick": 271585,
          "duration_ticks": 123,
          "channel": 9
        },
        {
          "note": 42,
          "start": 179.776937,
          "duration": 0.076058,
          "velocity": 0.527559,
          "start_tick": 271823,
          "duration_ticks": 115,
          "channel": 9
        },
        {
          "note": 42,
          "start": 179.933683,
          "duration": 0.075397,
          "velocity": 0.291339,
          "start_tick": 272060,
          "duration_ticks": 114,
          "channel": 9
        },
        {
          "note": 42,
          "start": 180.09109,
          "duration": 0.081349,
          "velocity": 0.897638,
          "start_tick": 272298,
          "duration_ticks": 123,
          "channel": 9
        },
        {
          "note": 42,
          "start": 180.248497,
          "duration": 0.072751,
          "velocity": 0.637795,
          "start_tick": 272536,
          "duration_ticks": 110,
          "channel": 9
        },
        {
          "note": 42,
          "start": 180.405904,
          "duration": 0.070106,
          "velocity": 0.511811,
          "start_tick": 272774,
          "duration_ticks": 106,
          "channel": 9
        },
        {
          "note": 42,
          "start": 180.56265,
          "duration": 0.075397,
          "velocity": 0.582677,
          "start_tick": 273011,
          "duration_ticks": 114,
          "channel": 9
        },
        {
          "note": 42,
          "start": 180.720057,
          "duration": 0.080026,
          "velocity": 0.929134,
          "start_tick": 273249,
          "duration_ticks": 121,
          "channel": 9
        },
        {
          "note": 42,
          "start": 180.877465,
          "duration": 0.073413,
          "velocity": 0.598425,
          "start_tick": 273487,
          "duration_ticks": 111,
          "channel": 9
        },
        {
          "note": 42,
          "start": 181.034211,
          "duration": 0.085317,
          "velocity": 0.464567,
          "start_tick": 273724,
          "duration_ticks": 129,
          "channel": 9
        },
        {
          "note": 42,
          "start": 181.191618,
          "duration": 0.066799,
          "velocity": 0.440945,
          "start_tick": 273962,
          "duration_ticks": 101,
          "channel": 9
        },
        {
          "note": 42,
          "start": 181.349025,
          "duration": 0.080026,
          "velocity": 0.88189,
          "start_tick": 274200,
          "duration_ticks": 121,
          "channel": 9
        },
        {
          "note": 42,
          "start": 181.506432,
          "duration": 0.087302,
          "velocity": 0.692913,
          "start_tick": 274438,
          "duration_ticks": 132,
          "channel": 9
        },
        {
          "note": 42,
          "start": 181.663178,
          "duration": 0.078042,
          "velocity": 0.440945,
          "start_tick": 274675,
          "duration_ticks": 118,
          "channel": 9
        },
        {
          "note": 42,
          "start": 181.820585,
          "duration": 0.079365,
          "velocity": 0.440945,
          "start_tick": 274913,
          "duration_ticks": 120,
          "channel": 9
        },
        {
          "note": 42,
          "start": 181.977993,
          "duration": 0.08201,
          "velocity": 0.88189,
          "start_tick": 275151,
          "duration_ticks": 124,
          "channel": 9
        },
        {
          "note": 42,
          "start": 182.1354,
          "duration": 0.088624,
          "velocity": 0.669291,
          "start_tick": 275389,
          "duration_ticks": 134,
          "channel": 9
        },
        {
          "note": 42,
          "start": 182.292146,
          "duration": 0.074074,
          "velocity": 0.417323,
          "start_tick": 275626,
          "duration_ticks": 112,
          "channel": 9
        },
        {
          "note": 42,
          "start": 182.449553,
          "duration": 0.087301,
          "velocity": 0.354331,
          "start_tick": 275864,
          "duration_ticks": 132,
          "channel": 9
        },
        {
          "note": 42,
          "start": 182.60696,
          "duration": 0.081349,
          "velocity": 0.913386,
          "start_tick": 276102,
          "duration_ticks": 123,
          "channel": 9
        },
        {
          "note": 42,
          "start": 182.763706,
          "duration": 0.085979,
          "velocity": 0.614173,
          "start_tick": 276339,
          "duration_ticks": 130,
          "channel": 9
        },
        {
          "note": 42,
          "start": 182.921113,
          "duration": 0.074074,
          "velocity": 0.503937,
          "start_tick": 276577,
          "duration_ticks": 112,
          "channel": 9
        },
        {
          "note": 42,
          "start": 183.078521,
          "duration": 0.066137,
          "velocity": 0.401575,
          "start_tick": 276815,
          "duration_ticks": 100,
          "channel": 9
        },
        {
          "note": 42,
          "start": 183.235928,
          "duration": 0.082672,
          "velocity": 0.88189,
          "start_tick": 277053,
          "duration_ticks": 125,
          "channel": 9
        },
        {
          "note": 42,
          "start": 183.392674,
          "duration": 0.083333,
          "velocity": 0.480315,
          "start_tick": 277290,
          "duration_ticks": 126,
          "channel": 9
        },
        {
          "note": 42,
          "start": 183.550081,
          "duration": 0.078042,
          "velocity": 0.535433,
          "start_tick": 277528,
          "duration_ticks": 118,
          "channel": 9
        },
        {
          "note": 42,
          "start": 183.707488,
          "duration": 0.064153,
          "velocity": 0.307087,
          "start_tick": 277766,
          "duration_ticks": 97,
          "channel": 9
        },
        {
          "note": 42,
          "start": 183.864895,
          "duration": 0.083995,
          "velocity": 0.929134,
          "start_tick": 278004,
          "duration_ticks": 127,
          "channel": 9
        },
        {
          "note": 42,
          "start": 184.021641,
          "duration": 0.085979,
          "velocity": 0.535433,
          "start_tick": 278241,
          "duration_ticks": 130,
          "channel": 9
        },
        {
          "note": 42,
          "start": 184.179049,
          "duration": 0.078042,
          "velocity": 0.464567,
          "start_tick": 278479,
          "duration_ticks": 118,
          "channel": 9
        },
        {
          "note": 42,
          "start": 184.336456,
          "duration": 0.083333,
          "velocity": 0.385827,
          "start_tick": 278717,
          "duration_ticks": 126,
          "channel": 9
        },
        {
          "note": 42,
          "start": 184.493202,
          "duration": 0.081349,
          "velocity": 0.897638,
          "start_tick": 278954,
          "duration_ticks": 123,
          "channel": 9
        },
        {
          "note": 42,
          "start": 184.650609,
          "duration": 0.081349,
          "velocity": 0.354331,
          "start_tick": 279192,
          "duration_ticks": 123,
          "channel": 9
        },
        {
          "note": 42,
          "start": 184.808016,
          "duration": 0.076719,
          "velocity": 0.527559,
          "start_tick": 279430,
          "duration_ticks": 116,
          "channel": 9
        },
        {
          "note": 42,
          "start": 184.965424,
          "duration": 0.075397,
          "velocity": 0.291339,
          "start_tick": 279668,
          "duration_ticks": 114,
          "channel": 9
        },
        {
          "note": 42,
          "start": 185.123492,
          "duration": 0.082672,
          "velocity": 0.897638,
          "start_tick": 279907,
          "duration_ticks": 125,
          "channel": 9
        },
        {
          "note": 42,
          "start": 185.282883,
          "duration": 0.074074,
          "velocity": 0.637795,
          "start_tick": 280148,
          "duration_ticks": 112,
          "channel": 9
        },
        {
          "note": 42,
          "start": 185.442936,
          "duration": 0.071428,
          "velocity": 0.511811,
          "start_tick": 280390,
          "duration_ticks": 108,
          "channel": 9
        },
        {
          "note": 42,
          "start": 185.602328,
          "duration": 0.07672,
          "velocity": 0.582677,
          "start_tick": 280631,
          "duration_ticks": 116,
          "channel": 9
        },
        {
          "note": 42,
          "start": 185.761719,
          "duration": 0.081349,
          "velocity": 0.929134,
          "start_tick": 280872,
          "duration_ticks": 123,
          "channel": 9
        },
        {
          "note": 42,
          "start": 185.921772,
          "duration": 0.074074,
          "velocity": 0.598425,
          "start_tick": 281114,
          "duration_ticks": 112,
          "channel": 9
        },
        {
          "note": 42,
          "start": 186.081163,
          "duration": 0.08664,
          "velocity": 0.464567,
          "start_tick": 281355,
          "duration_ticks": 131,
          "channel": 9
        },
        {
          "note": 42,
          "start": 186.240555,
          "duration": 0.068122,
          "velocity": 0.440945,
          "start_tick": 281596,
          "duration_ticks": 103,
          "channel": 9
        },
        {
          "note": 42,
          "start": 186.399946,
          "duration": 0.081349,
          "velocity": 0.88189,
          "start_tick": 281837,
          "duration_ticks": 123,
          "channel": 9
        },
        {
          "note": 42,
          "start": 186.559999,
          "duration": 0.088624,
          "velocity": 0.692913,
          "start_tick": 282079,
          "duration_ticks": 134,
          "channel": 9
        },
        {
          "note": 42,
          "start": 186.71939,
          "duration": 0.079365,
          "velocity": 0.440945,
          "start_tick": 282320,
          "duration_ticks": 120,
          "channel": 9
        },
        {
          "note": 42,
          "start": 186.878781,
          "duration": 0.080688,
          "velocity": 0.440945,
          "start_tick": 282561,
          "duration_ticks": 122,
          "channel": 9
        },
        {
          "note": 42,
          "start": 187.038834,
          "duration": 0.082672,
          "velocity": 0.88189,
          "start_tick": 282803,
          "duration_ticks": 125,
          "channel": 9
        },
        {
          "note": 42,
          "start": 187.198226,
          "duration": 0.090608,
          "velocity": 0.669291,
          "start_tick": 283044,
          "duration_ticks": 137,
          "channel": 9
        },
        {
          "note": 42,
          "start": 187.357617,
          "duration": 0.075397,
          "velocity": 0.417323,
          "start_tick": 283285,
          "duration_ticks": 114,
          "channel": 9
        },
        {
          "note": 42,
          "start": 187.517008,
          "duration": 0.088624,
          "velocity": 0.354331,
          "start_tick": 283526,
          "duration_ticks": 134,
          "channel": 9
        },
        {
          "note": 42,
          "start": 187.677061,
          "duration": 0.08201,
          "velocity": 0.913386,
          "start_tick": 283768,
          "duration_ticks": 124,
          "channel": 9
        },
        {
          "note": 42,
          "start": 187.836452,
          "duration": 0.087301,
          "velocity": 0.614173,
          "start_tick": 284009,
          "duration_ticks": 132,
          "channel": 9
        },
        {
          "note": 42,
          "start": 187.995844,
          "duration": 0.075397,
          "velocity": 0.503937,
          "start_tick": 284250,
          "duration_ticks": 114,
          "channel": 9
        },
        {
          "note": 42,
          "start": 188.155897,
          "duration": 0.066799,
          "velocity": 0.401575,
          "start_tick": 284492,
          "duration_ticks": 101,
          "channel": 9
        },
        {
          "note": 42,
          "start": 188.315288,
          "duration": 0.084656,
          "velocity": 0.88189,
          "start_tick": 284733,
          "duration_ticks": 128,
          "channel": 9
        },
        {
          "note": 42,
          "start": 188.474679,
          "duration": 0.084656,
          "velocity": 0.480315,
          "start_tick": 284974,
          "duration_ticks": 128,
          "channel": 9
        },
        {
          "note": 42,
          "start": 188.634071,
          "duration": 0.079365,
          "velocity": 0.535433,
          "start_tick": 285215,
          "duration_ticks": 120,
          "channel": 9
        },
        {
          "note": 42,
          "start": 188.794123,
          "duration": 0.064815,
          "velocity": 0.307087,
          "start_tick": 285457,
          "duration_ticks": 98,
          "channel": 9
        },
        {
          "note": 42,
          "start": 188.953515,
          "duration": 0.085979,
          "velocity": 0.929134,
          "start_tick": 285698,
          "duration_ticks": 130,
          "channel": 9
        },
        {
          "note": 42,
          "start": 189.112906,
          "duration": 0.087301,
          "velocity": 0.535433,
          "start_tick": 285939,
          "duration_ticks": 132,
          "channel": 9
        },
        {
          "note": 42,
          "start": 189.272959,
          "duration": 0.078704,
          "velocity": 0.464567,
          "start_tick": 286181,
          "duration_ticks": 119,
          "channel": 9
        },
        {
          "note": 42,
          "start": 189.43235,
          "duration": 0.083995,
          "velocity": 0.385827,
          "start_tick": 286422,
          "duration_ticks": 127,
          "channel": 9
        },
        {
          "note": 42,
          "start": 189.591742,
          "duration": 0.082672,
          "velocity": 0.897638,
          "start_tick": 286663,
          "duration_ticks": 125,
          "channel": 9
        },
        {
          "note": 42,
          "start": 189.751133,
          "duration": 0.082672,
          "velocity": 0.354331,
          "start_tick": 286904,
          "duration_ticks": 125,
          "channel": 9
        },
        {
          "note": 42,
          "start": 189.911186,
          "duration": 0.077381,
          "velocity": 0.527559,
          "start_tick": 287146,
          "duration_ticks": 117,
          "channel": 9
        },
        {
          "note": 42,
          "start": 190.070577,
          "duration": 0.076719,
          "velocity": 0.291339,
          "start_tick": 287387,
          "duration_ticks": 116,
          "channel": 9
        },
        {
          "note": 42,
          "start": 190.229969,
          "duration": 0.082672,
          "velocity": 0.897638,
          "start_tick": 287628,
          "duration_ticks": 125,
          "channel": 9
        },
        {
          "note": 42,
          "start": 190.390021,
          "duration": 0.073413,
          "velocity": 0.637795,
          "start_tick": 287870,
          "duration_ticks": 111,
          "channel": 9
        },
        {
          "note": 42,
          "start": 190.549413,
          "duration": 0.071428,
          "velocity": 0.511811,
          "start_tick": 288111,
          "duration_ticks": 108,
          "channel": 9
        },
        {
          "note": 42,
          "start": 190.708804,
          "duration": 0.07672,
          "velocity": 0.582677,
          "start_tick": 288352,
          "duration_ticks": 116,
          "channel": 9
        },
        {
          "note": 42,
          "start": 190.868195,
          "duration": 0.081349,
          "velocity": 0.929134,
          "start_tick": 288593,
          "duration_ticks": 123,
          "channel": 9
        },
        {
          "note": 42,
          "start": 191.028248,
          "duration": 0.074074,
          "velocity": 0.598425,
          "start_tick": 288835,
          "duration_ticks": 112,
          "channel": 9
        },
        {
          "note": 42,
          "start": 191.187639,
          "duration": 0.08664,
          "velocity": 0.464567,
          "start_tick": 289076,
          "duration_ticks": 131,
          "channel": 9
        },
        {
          "note": 42,
          "start": 191.347031,
          "duration": 0.068122,
          "velocity": 0.440945,
          "start_tick": 289317,
          "duration_ticks": 103,
          "channel": 9
        },
        {
          "note": 42,
          "start": 191.506422,
          "duration": 0.081349,
          "velocity": 0.88189,
          "start_tick": 289558,
          "duration_ticks": 123,
          "channel": 9
        },
        {
          "note": 42,
          "start": 191.666475,
          "duration": 0.088624,
          "velocity": 0.692913,
          "start_tick": 289800,
          "duration_ticks": 134,
          "channel": 9
        },
        {
          "note": 42,
          "start": 191.825866,
          "duration": 0.079365,
          "velocity": 0.440945,
          "start_tick": 290041,
          "duration_ticks": 120,
          "channel": 9
        },
        {
          "note": 42,
          "start": 191.985258,
          "duration": 0.080688,
          "velocity": 0.440945,
          "start_tick": 290282,
          "duration_ticks": 122,
          "channel": 9
        },
        {
          "note": 42,
          "start": 192.14531,
          "duration": 0.082672,
          "velocity": 0.88189,
          "start_tick": 290524,
          "duration_ticks": 125,
          "channel": 9
        },
        {
          "note": 42,
          "start": 192.304702,
          "duration": 0.090608,
          "velocity": 0.669291,
          "start_tick": 290765,
          "duration_ticks": 137,
          "channel": 9
        },
        {
          "note": 40,
          "start": 192.464093,
          "duration": 0.080026,
          "velocity": 1.0,
          "start_tick": 291006,
          "duration_ticks": 121,
          "channel": 9
        },
        {
          "note": 42,
          "start": 192.464093,
          "duration": 0.075397,
          "velocity": 0.417323,
          "start_tick": 291006,
          "duration_ticks": 114,
          "channel": 9
        },
        {
          "note": 42,
          "start": 192.623485,
          "duration": 0.088624,
          "velocity": 0.354331,
          "start_tick": 291247,
          "duration_ticks": 134,
          "channel": 9
        },
        {
          "note": 42,
          "start": 192.783537,
          "duration": 0.08201,
          "velocity": 0.913386,
          "start_tick": 291489,
          "duration_ticks": 124,
          "channel": 9
        },
        {
          "note": 42,
          "start": 192.942929,
          "duration": 0.087301,
          "velocity": 0.614173,
          "start_tick": 291730,
          "duration_ticks": 132,
          "channel": 9
        },
        {
          "note": 42,
          "start": 193.10232,
          "duration": 0.075397,
          "velocity": 0.503937,
          "start_tick": 291971,
          "duration_ticks": 114,
          "channel": 9
        },
        {
          "note": 42,
          "start": 193.262373,
          "duration": 0.066799,
          "velocity": 0.401575,
          "start_tick": 292213,
          "duration_ticks": 101,
          "channel": 9
        },
        {
          "note": 42,
          "start": 193.421764,
          "duration": 0.084656,
          "velocity": 0.88189,
          "start_tick": 292454,
          "duration_ticks": 128,
          "channel": 9
        },
        {
          "note": 42,
          "start": 193.581156,
          "duration": 0.084656,
          "velocity": 0.480315,
          "start_tick": 292695,
          "duration_ticks": 128,
          "channel": 9
        },
        {
          "note": 40,
          "start": 193.740547,
          "duration": 0.080026,
          "velocity": 1.0,
          "start_tick": 292936,
          "duration_ticks": 121,
          "channel": 9
        },
        {
          "note": 42,
          "start": 193.740547,
          "duration": 0.079365,
          "velocity": 0.535433,
          "start_tick": 292936,
          "duration_ticks": 120,
          "channel": 9
        },
        {
          "note": 42,
          "start": 193.9006,
          "duration": 0.064815,
          "velocity": 0.307087,
          "start_tick": 293178,
          "duration_ticks": 98,
          "channel": 9
        },
        {
          "note": 42,
          "start": 194.059991,
          "duration": 0.085979,
          "velocity": 0.929134,
          "start_tick": 293419,
          "duration_ticks": 130,
          "channel": 9
        },
        {
          "note": 42,
          "start": 194.219382,
          "duration": 0.087301,
          "velocity": 0.535433,
          "start_tick": 293660,
          "duration_ticks": 132,
          "channel": 9
        },
        {
          "note": 42,
          "start": 194.379435,
          "duration": 0.078704,
          "velocity": 0.464567,
          "start_tick": 293902,
          "duration_ticks": 119,
          "channel": 9
        },
        {
          "note": 42,
          "start": 194.538827,
          "duration": 0.084656,
          "velocity": 0.385827,
          "start_tick": 294143,
          "duration_ticks": 128,
          "channel": 9
        },
        {
          "note": 42,
          "start": 194.698218,
          "duration": 0.082672,
          "velocity": 0.897638,
          "start_tick": 294384,
          "duration_ticks": 125,
          "channel": 9
        },
        {
          "note": 42,
          "start": 194.857609,
          "duration": 0.082672,
          "velocity": 0.354331,
          "start_tick": 294625,
          "duration_ticks": 125,
          "channel": 9
        },
        {
          "note": 40,
          "start": 195.017662,
          "duration": 0.079365,
          "velocity": 1.0,
          "start_tick": 294867,
          "duration_ticks": 120,
          "channel": 9
        },
        {
          "note": 42,
          "start": 195.017662,
          "duration": 0.077381,
          "velocity": 0.527559,
          "start_tick": 294867,
          "duration_ticks": 117,
          "channel": 9
        },
        {
          "note": 42,
          "start": 195.177053,
          "duration": 0.076719,
          "velocity": 0.291339,
          "start_tick": 295108,
          "duration_ticks": 116,
          "channel": 9
        },
        {
          "note": 42,
          "start": 195.336445,
          "duration": 0.082672,
          "velocity": 0.897638,
          "start_tick": 295349,
          "duration_ticks": 125,
          "channel": 9
        },
        {
          "note": 42,
          "start": 195.496498,
          "duration": 0.073413,
          "velocity": 0.637795,
          "start_tick": 295591,
          "duration_ticks": 111,
          "channel": 9
        },
        {
          "note": 42,
          "start": 195.655889,
          "duration": 0.071428,
          "velocity": 0.511811,
          "start_tick": 295832,
          "duration_ticks": 108,
          "channel": 9
        },
        {
          "note": 42,
          "start": 195.81528,
          "duration": 0.07672,
          "velocity": 0.582677,
          "start_tick": 296073,
          "duration_ticks": 116,
          "channel": 9
        },
        {
          "note": 42,
          "start": 195.974672,
          "duration": 0.081349,
          "velocity": 0.929134,
          "start_tick": 296314,
          "duration_ticks": 123,
          "channel": 9
        },
        {
          "note": 42,
          "start": 196.134725,
          "duration": 0.074074,
          "velocity": 0.598425,
          "start_tick": 296556,
          "duration_ticks": 112,
          "channel": 9
        },
        {
          "note": 40,
          "start": 196.294116,
          "duration": 0.080026,
          "velocity": 1.0,
          "start_tick": 296797,
          "duration_ticks": 121,
          "channel": 9
        },
        {
          "note": 42,
          "start": 196.294116,
          "duration": 0.08664,
          "velocity": 0.464567,
          "start_tick": 296797,
          "duration_ticks": 131,
          "channel": 9
        },
        {
          "note": 42,
          "start": 196.453507,
          "duration": 0.068122,
          "velocity": 0.440945,
          "start_tick": 297038,
          "duration_ticks": 103,
          "channel": 9
        },
        {
          "note": 42,
          "start": 196.61356,
          "duration": 0.080688,
          "velocity": 0.88189,
          "start_tick": 297280,
          "duration_ticks": 122,
          "channel": 9
        },
        {
          "note": 42,
          "start": 196.772951,
          "duration": 0.089286,
          "velocity": 0.692913,
          "start_tick": 297521,
          "duration_ticks": 135,
          "channel": 9
        },
        {
          "note": 42,
          "start": 196.932343,
          "duration": 0.079365,
          "velocity": 0.440945,
          "start_tick": 297762,
          "duration_ticks": 120,
          "channel": 9
        },
        {
          "note": 42,
          "start": 197.091734,
          "duration": 0.080688,
          "velocity": 0.440945,
          "start_tick": 298003,
          "duration_ticks": 122,
          "channel": 9
        },
        {
          "note": 42,
          "start": 197.251787,
          "duration": 0.082672,
          "velocity": 0.88189,
          "start_tick": 298245,
          "duration_ticks": 125,
          "channel": 9
        },
        {
          "note": 42,
          "start": 197.411178,
          "duration": 0.090608,
          "velocity": 0.669291,
          "start_tick": 298486,
          "duration_ticks": 137,
          "channel": 9
        },
        {
          "note": 40,
          "start": 197.57057,
          "duration": 0.080026,
          "velocity": 1.0,
          "start_tick": 298727,
          "duration_ticks": 121,
          "channel": 9
        },
        {
          "note": 42,
          "start": 197.57057,
          "duration": 0.075397,
          "velocity": 0.417323,
          "start_tick": 298727,
          "duration_ticks": 114,
          "channel": 9
        },
        {
          "note": 42,
          "start": 197.730622,
          "duration": 0.087963,
          "velocity": 0.354331,
          "start_tick": 298969,
          "duration_ticks": 133,
          "channel": 9
        },
        {
          "note": 42,
          "start": 197.890014,
          "duration": 0.08201,
          "velocity": 0.913386,
          "start_tick": 299210,
          "duration_ticks": 124,
          "channel": 9
        },
        {
          "note": 42,
          "start": 198.049405,
          "duration": 0.087301,
          "velocity": 0.614173,
          "start_tick": 299451,
          "duration_ticks": 132,
          "channel": 9
        },
        {
          "note": 42,
          "start": 198.208797,
          "duration": 0.075397,
          "velocity": 0.503937,
          "start_tick": 299692,
          "duration_ticks": 114,
          "channel": 9
        },
        {
          "note": 42,
          "start": 198.368849,
          "duration": 0.066799,
          "velocity": 0.401575,
          "start_tick": 299934,
          "duration_ticks": 101,
          "channel": 9
        },
        {
          "note": 42,
          "start": 198.528241,
          "duration": 0.084656,
          "velocity": 0.88189,
          "start_tick": 300175,
          "duration_ticks": 128,
          "channel": 9
        },
        {
          "note": 42,
          "start": 198.687632,
          "duration": 0.084656,
          "velocity": 0.480315,
          "start_tick": 300416,
          "duration_ticks": 128,
          "channel": 9
        },
        {
          "note": 40,
          "start": 198.847685,
          "duration": 0.079365,
          "velocity": 1.0,
          "start_tick": 300658,
          "duration_ticks": 120,
          "channel": 9
        },
        {
          "note": 42,
          "start": 198.847685,
          "duration": 0.078704,
          "velocity": 0.535433,
          "start_tick": 300658,
          "duration_ticks": 119,
          "channel": 9
        },
        {
          "note": 42,
          "start": 199.007076,
          "duration": 0.064815,
          "velocity": 0.307087,
          "start_tick": 300899,
          "duration_ticks": 98,
          "channel": 9
        },
        {
          "note": 42,
          "start": 199.166468,
          "duration": 0.085979,
          "velocity": 0.929134,
          "start_tick": 301140,
          "duration_ticks": 130,
          "channel": 9
        },
        {
          "note": 42,
          "start": 199.325859,
          "duration": 0.087301,
          "velocity": 0.535433,
          "start_tick": 301381,
          "duration_ticks": 132,
          "channel": 9
        },
        {
          "note": 42,
          "start": 199.485912,
          "duration": 0.078704,
          "velocity": 0.440945,
          "start_tick": 301623,
          "duration_ticks": 119,
          "channel": 9
        },
        {
          "note": 42,
          "start": 199.645303,
          "duration": 0.080688,
          "velocity": 0.440945,
          "start_tick": 301864,
          "duration_ticks": 122,
          "channel": 9
        },
        {
          "note": 42,
          "start": 199.804694,
          "duration": 0.083333,
          "velocity": 0.88189,
          "start_tick": 302105,
          "duration_ticks": 126,
          "channel": 9
        },
        {
          "note": 42,
          "start": 199.964747,
          "duration": 0.089947,
          "velocity": 0.669291,
          "start_tick": 302347,
          "duration_ticks": 136,
          "channel": 9
        },
        {
          "note": 40,
          "start": 200.124138,
          "duration": 0.079365,
          "velocity": 1.0,
          "start_tick": 302588,
          "duration_ticks": 120,
          "channel": 9
        },
        {
          "note": 42,
          "start": 200.124138,
          "duration": 0.074735,
          "velocity": 0.417323,
          "start_tick": 302588,
          "duration_ticks": 113,
          "channel": 9
        },
        {
          "note": 42,
          "start": 200.28353,
          "duration": 0.088624,
          "velocity": 0.354331,
          "start_tick": 302829,
          "duration_ticks": 134,
          "channel": 9
        },
        {
          "note": 42,
          "start": 200.442921,
          "duration": 0.082672,
          "velocity": 0.913386,
          "start_tick": 303070,
          "duration_ticks": 125,
          "channel": 9
        },
        {
          "note": 42,
          "start": 200.602974,
          "duration": 0.08664,
          "velocity": 0.614173,
          "start_tick": 303312,
          "duration_ticks": 131,
          "channel": 9
        },
        {
          "note": 42,
          "start": 200.762365,
          "duration": 0.075397,
          "velocity": 0.503937,
          "start_tick": 303553,
          "duration_ticks": 114,
          "channel": 9
        },
        {
          "note": 42,
          "start": 200.921757,
          "duration": 0.06746,
          "velocity": 0.401575,
          "start_tick": 303794,
          "duration_ticks": 102,
          "channel": 9
        },
        {
          "note": 42,
          "start": 201.081148,
          "duration": 0.084656,
          "velocity": 0.88189,
          "start_tick": 304035,
          "duration_ticks": 128,
          "channel": 9
        },
        {
          "note": 42,
          "start": 201.241201,
          "duration": 0.083995,
          "velocity": 0.480315,
          "start_tick": 304277,
          "duration_ticks": 127,
          "channel": 9
        },
        {
          "note": 40,
          "start": 201.400592,
          "duration": 0.080026,
          "velocity": 1.0,
          "start_tick": 304518,
          "duration_ticks": 121,
          "channel": 9
        },
        {
          "note": 42,
          "start": 201.400592,
          "duration": 0.079365,
          "velocity": 0.535433,
          "start_tick": 304518,
          "duration_ticks": 120,
          "channel": 9
        },
        {
          "note": 42,
          "start": 201.559984,
          "duration": 0.065476,
          "velocity": 0.307087,
          "start_tick": 304759,
          "duration_ticks": 99,
          "channel": 9
        },
        {
          "note": 42,
          "start": 201.720036,
          "duration": 0.085317,
          "velocity": 0.929134,
          "start_tick": 305001,
          "duration_ticks": 129,
          "channel": 9
        },
        {
          "note": 42,
          "start": 201.879428,
          "duration": 0.087301,
          "velocity": 0.535433,
          "start_tick": 305242,
          "duration_ticks": 132,
          "channel": 9
        },
        {
          "note": 42,
          "start": 202.038819,
          "duration": 0.079365,
          "velocity": 0.440945,
          "start_tick": 305483,
          "duration_ticks": 120,
          "channel": 9
        },
        {
          "note": 42,
          "start": 202.19821,
          "duration": 0.080688,
          "velocity": 0.440945,
          "start_tick": 305724,
          "duration_ticks": 122,
          "channel": 9
        },
        {
          "note": 42,
          "start": 202.358263,
          "duration": 0.082672,
          "velocity": 0.88189,
          "start_tick": 305966,
          "duration_ticks": 125,
          "channel": 9
        },
        {
          "note": 42,
          "start": 202.517655,
          "duration": 0.090608,
          "velocity": 0.669291,
          "start_tick": 306207,
          "duration_ticks": 137,
          "channel": 9
        },
        {
          "note": 40,
          "start": 202.677046,
          "duration": 0.080026,
          "velocity": 1.0,
          "start_tick": 306448,
          "duration_ticks": 121,
          "channel": 9
        },
        {
          "note": 42,
          "start": 202.677046,
          "duration": 0.075397,
          "velocity": 0.417323,
          "start_tick": 306448,
          "duration_ticks": 114,
          "channel": 9
        },
        {
          "note": 42,
          "start": 202.837099,
          "duration": 0.087963,
          "velocity": 0.354331,
          "start_tick": 306690,
          "duration_ticks": 133,
          "channel": 9
        },
        {
          "note": 42,
          "start": 202.99649,
          "duration": 0.082672,
          "velocity": 0.913386,
          "start_tick": 306931,
          "duration_ticks": 125,
          "channel": 9
        },
        {
          "note": 42,
          "start": 203.155881,
          "duration": 0.087301,
          "velocity": 0.614173,
          "start_tick": 307172,
          "duration_ticks": 132,
          "channel": 9
        },
        {
          "note": 42,
          "start": 203.315273,
          "duration": 0.075397,
          "velocity": 0.503937,
          "start_tick": 307413,
          "duration_ticks": 114,
          "channel": 9
        },
        {
          "note": 42,
          "start": 203.475326,
          "duration": 0.066799,
          "velocity": 0.401575,
          "start_tick": 307655,
          "duration_ticks": 101,
          "channel": 9
        },
        {
          "note": 42,
          "start": 203.634717,
          "duration": 0.084656,
          "velocity": 0.88189,
          "start_tick": 307896,
          "duration_ticks": 128,
          "channel": 9
        },
        {
          "note": 42,
          "start": 203.794108,
          "duration": 0.084656,
          "velocity": 0.480315,
          "start_tick": 308137,
          "duration_ticks": 128,
          "channel": 9
        },
        {
          "note": 40,
          "start": 203.954161,
          "duration": 0.079365,
          "velocity": 1.0,
          "start_tick": 308379,
          "duration_ticks": 120,
          "channel": 9
        },
        {
          "note": 42,
          "start": 203.954161,
          "duration": 0.078704,
          "velocity": 0.535433,
          "start_tick": 308379,
          "duration_ticks": 119,
          "channel": 9
        },
        {
          "note": 42,
          "start": 204.113552,
          "duration": 0.064815,
          "velocity": 0.307087,
          "start_tick": 308620,
          "duration_ticks": 98,
          "channel": 9
        },
        {
          "note": 42,
          "start": 204.272944,
          "duration": 0.085979,
          "velocity": 0.929134,
          "start_tick": 308861,
          "duration_ticks": 130,
          "channel": 9
        },
        {
          "note": 42,
          "start": 204.432335,
          "duration": 0.087301,
          "velocity": 0.535433,
          "start_tick": 309102,
          "duration_ticks": 132,
          "channel": 9
        },
        {
          "note": 42,
          "start": 204.592388,
          "duration": 0.078704,
          "velocity": 0.440945,
          "start_tick": 309344,
          "duration_ticks": 119,
          "channel": 9
        },
        {
          "note": 42,
          "start": 204.751779,
          "duration": 0.080688,
          "velocity": 0.440945,
          "start_tick": 309585,
          "duration_ticks": 122,
          "channel": 9
        },
        {
          "note": 42,
          "start": 204.911171,
          "duration": 0.083333,
          "velocity": 0.88189,
          "start_tick": 309826,
          "duration_ticks": 126,
          "channel": 9
        },
        {
          "note": 42,
          "start": 205.071224,
          "duration": 0.089947,
          "velocity": 0.669291,
          "start_tick": 310068,
          "duration_ticks": 136,
          "channel": 9
        },
        {
          "note": 40,
          "start": 205.229292,
          "duration": 0.078704,
          "velocity": 1.0,
          "start_tick": 310307,
          "duration_ticks": 119,
          "channel": 9
        },
        {
          "note": 42,
          "start": 205.229292,
          "duration": 0.074074,
          "velocity": 0.417323,
          "start_tick": 310307,
          "duration_ticks": 112,
          "channel": 9
        },
        {
          "note": 42,
          "start": 205.386038,
          "duration": 0.087301,
          "velocity": 0.354331,
          "start_tick": 310544,
          "duration_ticks": 132,
          "channel": 9
        },
        {
          "note": 42,
          "start": 205.543445,
          "duration": 0.080688,
          "velocity": 0.913386,
          "start_tick": 310782,
          "duration_ticks": 122,
          "channel": 9
        },
        {
          "note": 42,
          "start": 205.700191,
          "duration": 0.085979,
          "velocity": 0.614173,
          "start_tick": 311019,
          "duration_ticks": 130,
          "channel": 9
        },
        {
          "note": 42,
          "start": 205.856937,
          "duration": 0.074074,
          "velocity": 0.503937,
          "start_tick": 311256,
          "duration_ticks": 112,
          "channel": 9
        },
        {
          "note": 42,
          "start": 206.014344,
          "duration": 0.066137,
          "velocity": 0.401575,
          "start_tick": 311494,
          "duration_ticks": 100,
          "channel": 9
        },
        {
          "note": 42,
          "start": 206.17109,
          "duration": 0.083333,
          "velocity": 0.88189,
          "start_tick": 311731,
          "duration_ticks": 126,
          "channel": 9
        },
        {
          "note": 42,
          "start": 206.328497,
          "duration": 0.082672,
          "velocity": 0.480315,
          "start_tick": 311969,
          "duration_ticks": 125,
          "channel": 9
        },
        {
          "note": 40,
          "start": 206.485243,
          "duration": 0.078704,
          "velocity": 1.0,
          "start_tick": 312206,
          "duration_ticks": 119,
          "channel": 9
        },
        {
          "note": 42,
          "start": 206.485243,
          "duration": 0.078042,
          "velocity": 0.535433,
          "start_tick": 312206,
          "duration_ticks": 118,
          "channel": 9
        },
        {
          "note": 42,
          "start": 206.641989,
          "duration": 0.064153,
          "velocity": 0.307087,
          "start_tick": 312443,
          "duration_ticks": 97,
          "channel": 9
        },
        {
          "note": 42,
          "start": 206.799396,
          "duration": 0.083995,
          "velocity": 0.929134,
          "start_tick": 312681,
          "duration_ticks": 127,
          "channel": 9
        },
        {
          "note": 42,
          "start": 206.956142,
          "duration": 0.085979,
          "velocity": 0.535433,
          "start_tick": 312918,
          "duration_ticks": 130,
          "channel": 9
        },
        {
          "note": 42,
          "start": 207.112888,
          "duration": 0.078042,
          "velocity": 0.440945,
          "start_tick": 313155,
          "duration_ticks": 118,
          "channel": 9
        },
        {
          "note": 42,
          "start": 207.270295,
          "duration": 0.078704,
          "velocity": 0.440945,
          "start_tick": 313393,
          "duration_ticks": 119,
          "channel": 9
        },
        {
          "note": 42,
          "start": 207.427041,
          "duration": 0.08201,
          "velocity": 0.88189,
          "start_tick": 313630,
          "duration_ticks": 124,
          "channel": 9
        },
        {
          "note": 42,
          "start": 207.584449,
          "duration": 0.088624,
          "velocity": 0.669291,
          "start_tick": 313868,
          "duration_ticks": 134,
          "channel": 9
        },
        {
          "note": 40,
          "start": 207.741194,
          "duration": 0.078704,
          "velocity": 1.0,
          "start_tick": 314105,
          "duration_ticks": 119,
          "channel": 9
        },
        {
          "note": 42,
          "start": 207.741194,
          "duration": 0.074074,
          "velocity": 0.417323,
          "start_tick": 314105,
          "duration_ticks": 112,
          "channel": 9
        },
        {
          "note": 42,
          "start": 207.89794,
          "duration": 0.087301,
          "velocity": 0.354331,
          "start_tick": 314342,
          "duration_ticks": 132,
          "channel": 9
        },
        {
          "note": 42,
          "start": 208.055348,
          "duration": 0.080688,
          "velocity": 0.913386,
          "start_tick": 314580,
          "duration_ticks": 122,
          "channel": 9
        },
        {
          "note": 42,
          "start": 208.212093,
          "duration": 0.085979,
          "velocity": 0.614173,
          "start_tick": 314817,
          "duration_ticks": 130,
          "channel": 9
        },
        {
          "note": 42,
          "start": 208.368839,
          "duration": 0.074074,
          "velocity": 0.503937,
          "start_tick": 315054,
          "duration_ticks": 112,
          "channel": 9
        },
        {
          "note": 42,
          "start": 208.526247,
          "duration": 0.066137,
          "velocity": 0.401575,
          "start_tick": 315292,
          "duration_ticks": 100,
          "channel": 9
        },
        {
          "note": 42,
          "start": 208.682992,
          "duration": 0.083333,
          "velocity": 0.88189,
          "start_tick": 315529,
          "duration_ticks": 126,
          "channel": 9
        },
        {
          "note": 42,
          "start": 208.8404,
          "duration": 0.082672,
          "velocity": 0.480315,
          "start_tick": 315767,
          "duration_ticks": 125,
          "channel": 9
        },
        {
          "note": 40,
          "start": 208.997145,
          "duration": 0.078704,
          "velocity": 1.0,
          "start_tick": 316004,
          "duration_ticks": 119,
          "channel": 9
        },
        {
          "note": 42,
          "start": 208.997145,
          "duration": 0.078042,
          "velocity": 0.535433,
          "start_tick": 316004,
          "duration_ticks": 118,
          "channel": 9
        },
        {
          "note": 42,
          "start": 209.153891,
          "duration": 0.064153,
          "velocity": 0.307087,
          "start_tick": 316241,
          "duration_ticks": 97,
          "channel": 9
        },
        {
          "note": 42,
          "start": 209.311299,
          "duration": 0.083995,
          "velocity": 0.929134,
          "start_tick": 316479,
          "duration_ticks": 127,
          "channel": 9
        },
        {
          "note": 42,
          "start": 209.468044,
          "duration": 0.085979,
          "velocity": 0.535433,
          "start_tick": 316716,
          "duration_ticks": 130,
          "channel": 9
        },
        {
          "note": 42,
          "start": 209.62479,
          "duration": 0.078042,
          "velocity": 0.440945,
          "start_tick": 316953,
          "duration_ticks": 118,
          "channel": 9
        },
        {
          "note": 49,
          "start": 209.62479,
          "duration": 0.078704,
          "velocity": 0.409449,
          "start_tick": 316953,
          "duration_ticks": 119,
          "channel": 9
        },
        {
          "note": 49,
          "start": 209.703494,
          "duration": 0.078704,
          "velocity": 0.456693,
          "start_tick": 317072,
          "duration_ticks": 119,
          "channel": 9
        },
        {
          "note": 42,
          "start": 209.782198,
          "duration": 0.079365,
          "velocity": 0.440945,
          "start_tick": 317191,
          "duration_ticks": 120,
          "channel": 9
        },
        {
          "note": 49,
          "start": 209.782198,
          "duration": 0.078704,
          "velocity": 0.503937,
          "start_tick": 317191,
          "duration_ticks": 119,
          "channel": 9
        },
        {
          "note": 49,
          "start": 209.860901,
          "duration": 0.078042,
          "velocity": 0.551181,
          "start_tick": 317310,
          "duration_ticks": 118,
          "channel": 9
        },
        {
          "note": 42,
          "start": 209.938943,
          "duration": 0.08201,
          "velocity": 0.88189,
          "start_tick": 317428,
          "duration_ticks": 124,
          "channel": 9
        },
        {
          "note": 49,
          "start": 209.938943,
          "duration": 0.078704,
          "velocity": 0.598425,
          "start_tick": 317428,
          "duration_ticks": 119,
          "channel": 9
        },
        {
          "note": 49,
          "start": 210.017647,
          "duration": 0.078704,
          "velocity": 0.645669,
          "start_tick": 317547,
          "duration_ticks": 119,
          "channel": 9
        },
        {
          "note": 42,
          "start": 210.096351,
          "duration": 0.088624,
          "velocity": 0.669291,
          "start_tick": 317666,
          "duration_ticks": 134,
          "channel": 9
        },
        {
          "note": 49,
          "start": 210.096351,
          "duration": 0.078042,
          "velocity": 0.692913,
          "start_tick": 317666,
          "duration_ticks": 118,
          "channel": 9
        },
        {
          "note": 49,
          "start": 210.174393,
          "duration": 0.078704,
          "velocity": 0.732283,
          "start_tick": 317784,
          "duration_ticks": 119,
          "channel": 9
        },
        {
          "note": 40,
          "start": 210.253097,
          "duration": 0.078704,
          "velocity": 1.0,
          "start_tick": 317903,
          "duration_ticks": 119,
          "channel": 9
        },
        {
          "note": 42,
          "start": 210.253097,
          "duration": 0.074074,
          "velocity": 0.417323,
          "start_tick": 317903,
          "duration_ticks": 112,
          "channel": 9
        },
        {
          "note": 49,
          "start": 210.253097,
          "duration": 0.078704,
          "velocity": 0.779528,
          "start_tick": 317903,
          "duration_ticks": 119,
          "channel": 9
        },
        {
          "note": 36,
          "start": 210.880741,
          "duration": 0.107143,
          "velocity": 1.0,
          "start_tick": 318852,
          "duration_ticks": 162,
          "channel": 9
        },
        {
          "note": 42,
          "start": 210.880741,
          "duration": 0.070767,
          "velocity": 0.511811,
          "start_tick": 318852,
          "duration_ticks": 107,
          "channel": 9
        },
        {
          "note": 49,
          "start": 210.880741,
          "duration": 0.078704,
          "velocity": 0.629921,
          "start_tick": 318852,
          "duration_ticks": 119,
          "channel": 9
        },
        {
          "note": 42,
          "start": 211.038149,
          "duration": 0.075397,
          "velocity": 0.582677,
          "start_tick": 319090,
          "duration_ticks": 114,
          "channel": 9
        },
        {
          "note": 42,
          "start": 211.194895,
          "duration": 0.080026,
          "velocity": 0.929134,
          "start_tick": 319327,
          "duration_ticks": 121,
          "channel": 9
        },
        {
          "note": 42,
          "start": 211.352302,
          "duration": 0.072751,
          "velocity": 0.598425,
          "start_tick": 319565,
          "duration_ticks": 110,
          "channel": 9
        },
        {
          "note": 36,
          "start": 211.509048,
          "duration": 0.10119,
          "velocity": 1.0,
          "start_tick": 319802,
          "duration_ticks": 153,
          "channel": 9
        },
        {
          "note": 40,
          "start": 211.509048,
          "duration": 0.078704,
          "velocity": 1.0,
          "start_tick": 319802,
          "duration_ticks": 119,
          "channel": 9
        },
        {
          "note": 42,
          "start": 211.509048,
          "duration": 0.085317,
          "velocity": 0.464567,
          "start_tick": 319802,
          "duration_ticks": 129,
          "channel": 9
        },
        {
          "note": 42,
          "start": 211.665794,
          "duration": 0.066799,
          "velocity": 0.440945,
          "start_tick": 320039,
          "duration_ticks": 101,
          "channel": 9
        },
        {
          "note": 42,
          "start": 211.823201,
          "duration": 0.079365,
          "velocity": 0.88189,
          "start_tick": 320277,
          "duration_ticks": 120,
          "channel": 9
        },
        {
          "note": 42,
          "start": 211.979947,
          "duration": 0.087963,
          "velocity": 0.692913,
          "start_tick": 320514,
          "duration_ticks": 133,
          "channel": 9
        },
        {
          "note": 36,
          "start": 212.136693,
          "duration": 0.10582,
          "velocity": 1.0,
          "start_tick": 320751,
          "duration_ticks": 160,
          "channel": 9
        },
        {
          "note": 42,
          "start": 212.136693,
          "duration": 0.078042,
          "velocity": 0.440945,
          "start_tick": 320751,
          "duration_ticks": 118,
          "channel": 9
        },
        {
          "note": 42,
          "start": 212.2941,
          "duration": 0.079365,
          "velocity": 0.440945,
          "start_tick": 320989,
          "duration_ticks": 120,
          "channel": 9
        },
        {
          "note": 42,
          "start": 212.450846,
          "duration": 0.08201,
          "velocity": 0.88189,
          "start_tick": 321226,
          "duration_ticks": 124,
          "channel": 9
        },
        {
          "note": 42,
          "start": 212.608253,
          "duration": 0.088624,
          "velocity": 0.669291,
          "start_tick": 321464,
          "duration_ticks": 134,
          "channel": 9
        },
        {
          "note": 36,
          "start": 212.764999,
          "duration": 0.105159,
          "velocity": 1.0,
          "start_tick": 321701,
          "duration_ticks": 159,
          "channel": 9
        },
        {
          "note": 40,
          "start": 212.764999,
          "duration": 0.078704,
          "velocity": 1.0,
          "start_tick": 321701,
          "duration_ticks": 119,
          "channel": 9
        },
        {
          "note": 42,
          "start": 212.764999,
          "duration": 0.074074,
          "velocity": 0.417323,
          "start_tick": 321701,
          "duration_ticks": 112,
          "channel": 9
        },
        {
          "note": 42,
          "start": 212.921745,
          "duration": 0.087302,
          "velocity": 0.354331,
          "start_tick": 321938,
          "duration_ticks": 132,
          "channel": 9
        },
        {
          "note": 42,
          "start": 213.079152,
          "duration": 0.080688,
          "velocity": 0.913386,
          "start_tick": 322176,
          "duration_ticks": 122,
          "channel": 9
        },
        {
          "note": 42,
          "start": 213.235898,
          "duration": 0.085979,
          "velocity": 0.614173,
          "start_tick": 322413,
          "duration_ticks": 130,
          "channel": 9
        },
        {
          "note": 36,
          "start": 213.393305,
          "duration": 0.103174,
          "velocity": 1.0,
          "start_tick": 322651,
          "duration_ticks": 156,
          "channel": 9
        },
        {
          "note": 42,
          "start": 213.393305,
          "duration": 0.073413,
          "velocity": 0.503937,
          "start_tick": 322651,
          "duration_ticks": 111,
          "channel": 9
        },
        {
          "note": 42,
          "start": 213.550051,
          "duration": 0.066137,
          "velocity": 0.401575,
          "start_tick": 322888,
          "duration_ticks": 100,
          "channel": 9
        },
        {
          "note": 42,
          "start": 213.706797,
          "duration": 0.083333,
          "velocity": 0.88189,
          "start_tick": 323125,
          "duration_ticks": 126,
          "channel": 9
        },
        {
          "note": 42,
          "start": 213.864204,
          "duration": 0.082672,
          "velocity": 0.480315,
          "start_tick": 323363,
          "duration_ticks": 125,
          "channel": 9
        },
        {
          "note": 36,
          "start": 214.02095,
          "duration": 0.105159,
          "velocity": 1.0,
          "start_tick": 323600,
          "duration_ticks": 159,
          "channel": 9
        },
        {
          "note": 40,
          "start": 214.02095,
          "duration": 0.078704,
          "velocity": 1.0,
          "start_tick": 323600,
          "duration_ticks": 119,
          "channel": 9
        },
        {
          "note": 42,
          "start": 214.02095,
          "duration": 0.078042,
          "velocity": 0.535433,
          "start_tick": 323600,
          "duration_ticks": 118,
          "channel": 9
        },
        {
          "note": 42,
          "start": 214.177696,
          "duration": 0.064153,
          "velocity": 0.307087,
          "start_tick": 323837,
          "duration_ticks": 97,
          "channel": 9
        },
        {
          "note": 42,
          "start": 214.335103,
          "duration": 0.083995,
          "velocity": 0.929134,
          "start_tick": 324075,
          "duration_ticks": 127,
          "channel": 9
        },
        {
          "note": 42,
          "start": 214.491849,
          "duration": 0.085979,
          "velocity": 0.535433,
          "start_tick": 324312,
          "duration_ticks": 130,
          "channel": 9
        },
        {
          "note": 36,
          "start": 214.649256,
          "duration": 0.103836,
          "velocity": 1.0,
          "start_tick": 324550,
          "duration_ticks": 157,
          "channel": 9
        },
        {
          "note": 42,
          "start": 214.649256,
          "duration": 0.077381,
          "velocity": 0.464567,
          "start_tick": 324550,
          "duration_ticks": 117,
          "channel": 9
        },
        {
          "note": 42,
          "start": 214.806002,
          "duration": 0.083333,
          "velocity": 0.385827,
          "start_tick": 324787,
          "duration_ticks": 126,
          "channel": 9
        },
        {
          "note": 42,
          "start": 214.962748,
          "duration": 0.081349,
          "velocity": 0.897638,
          "start_tick": 325024,
          "duration_ticks": 123,
          "channel": 9
        },
        {
          "note": 42,
          "start": 215.120155,
          "duration": 0.080688,
          "velocity": 0.354331,
          "start_tick": 325262,
          "duration_ticks": 122,
          "channel": 9
        },
        {
          "note": 36,
          "start": 215.276901,
          "duration": 0.093915,
          "velocity": 1.0,
          "start_tick": 325499,
          "duration_ticks": 142,
          "channel": 9
        },
        {
          "note": 40,
          "start": 215.276901,
          "duration": 0.078704,
          "velocity": 1.0,
          "start_tick": 325499,
          "duration_ticks": 119,
          "channel": 9
        },
        {
          "note": 42,
          "start": 215.276901,
          "duration": 0.076719,
          "velocity": 0.527559,
          "start_tick": 325499,
          "duration_ticks": 116,
          "channel": 9
        },
        {
          "note": 42,
          "start": 215.433647,
          "duration": 0.075397,
          "velocity": 0.291339,
          "start_tick": 325736,
          "duration_ticks": 114,
          "channel": 9
        },
        {
          "note": 42,
          "start": 215.591054,
          "duration": 0.080688,
          "velocity": 0.897638,
          "start_tick": 325974,
          "duration_ticks": 122,
          "channel": 9
        },
        {
          "note": 42,
          "start": 215.7478,
          "duration": 0.072751,
          "velocity": 0.637795,
          "start_tick": 326211,
          "duration_ticks": 110,
          "channel": 9
        },
        {
          "note": 36,
          "start": 215.905207,
          "duration": 0.106481,
          "velocity": 1.0,
          "start_tick": 326449,
          "duration_ticks": 161,
          "channel": 9
        },
        {
          "note": 42,
          "start": 215.905207,
          "duration": 0.070106,
          "velocity": 0.511811,
          "start_tick": 326449,
          "duration_ticks": 106,
          "channel": 9
        },
        {
          "note": 42,
          "start": 216.061953,
          "duration": 0.075397,
          "velocity": 0.582677,
          "start_tick": 326686,
          "duration_ticks": 114,
          "channel": 9
        },
        {
          "note": 42,
          "start": 216.218699,
          "duration": 0.080026,
          "velocity": 0.929134,
          "start_tick": 326923,
          "duration_ticks": 121,
          "channel": 9
        },
        {
          "note": 42,
          "start": 216.376106,
          "duration": 0.072751,
          "velocity": 0.598425,
          "start_tick": 327161,
          "duration_ticks": 110,
          "channel": 9
        },
        {
          "note": 36,
          "start": 216.532852,
          "duration": 0.10119,
          "velocity": 1.0,
          "start_tick": 327398,
          "duration_ticks": 153,
          "channel": 9
        },
        {
          "note": 40,
          "start": 216.532852,
          "duration": 0.078704,
          "velocity": 1.0,
          "start_tick": 327398,
          "duration_ticks": 119,
          "channel": 9
        },
        {
          "note": 42,
          "start": 216.532852,
          "duration": 0.085317,
          "velocity": 0.464567,
          "start_tick": 327398,
          "duration_ticks": 129,
          "channel": 9
        },
        {
          "note": 42,
          "start": 216.689598,
          "duration": 0.066799,
          "velocity": 0.440945,
          "start_tick": 327635,
          "duration_ticks": 101,
          "channel": 9
        },
        {
          "note": 42,
          "start": 216.847005,
          "duration": 0.079365,
          "velocity": 0.88189,
          "start_tick": 327873,
          "duration_ticks": 120,
          "channel": 9
        },
        {
          "note": 42,
          "start": 217.003751,
          "duration": 0.087963,
          "velocity": 0.692913,
          "start_tick": 328110,
          "duration_ticks": 133,
          "channel": 9
        },
        {
          "note": 36,
          "start": 217.161158,
          "duration": 0.105159,
          "velocity": 1.0,
          "start_tick": 328348,
          "duration_ticks": 159,
          "channel": 9
        },
        {
          "note": 42,
          "start": 217.161158,
          "duration": 0.077381,
          "velocity": 0.440945,
          "start_tick": 328348,
          "duration_ticks": 117,
          "channel": 9
        },
        {
          "note": 42,
          "start": 217.317904,
          "duration": 0.079365,
          "velocity": 0.440945,
          "start_tick": 328585,
          "duration_ticks": 120,
          "channel": 9
        },
        {
          "note": 42,
          "start": 217.47465,
          "duration": 0.08201,
          "velocity": 0.88189,
          "start_tick": 328822,
          "duration_ticks": 124,
          "channel": 9
        },
        {
          "note": 42,
          "start": 217.632058,
          "duration": 0.088624,
          "velocity": 0.669291,
          "start_tick": 329060,
          "duration_ticks": 134,
          "channel": 9
        },
        {
          "note": 36,
          "start": 217.788803,
          "duration": 0.105159,
          "velocity": 1.0,
          "start_tick": 329297,
          "duration_ticks": 159,
          "channel": 9
        },
        {
          "note": 40,
          "start": 217.788803,
          "duration": 0.078704,
          "velocity": 1.0,
          "start_tick": 329297,
          "duration_ticks": 119,
          "channel": 9
        },
        {
          "note": 42,
          "start": 217.788803,
          "duration": 0.074074,
          "velocity": 0.417323,
          "start_tick": 329297,
          "duration_ticks": 112,
          "channel": 9
        },
        {
          "note": 42,
          "start": 217.945549,
          "duration": 0.087301,
          "velocity": 0.354331,
          "start_tick": 329534,
          "duration_ticks": 132,
          "channel": 9
        },
        {
          "note": 42,
          "start": 218.102957,
          "duration": 0.080688,
          "velocity": 0.913386,
          "start_tick": 329772,
          "duration_ticks": 122,
          "channel": 9
        },
        {
          "note": 42,
          "start": 218.259702,
          "duration": 0.085979,
          "velocity": 0.614173,
          "start_tick": 330009,
          "duration_ticks": 130,
          "channel": 9
        },
        {
          "note": 36,
          "start": 218.41711,
          "duration": 0.103174,
          "velocity": 1.0,
          "start_tick": 330247,
          "duration_ticks": 156,
          "channel": 9
        },
        {
          "note": 42,
          "start": 218.41711,
          "duration": 0.073413,
          "velocity": 0.503937,
          "start_tick": 330247,
          "duration_ticks": 111,
          "channel": 9
        },
        {
          "note": 42,
          "start": 218.573856,
          "duration": 0.066137,
          "velocity": 0.401575,
          "start_tick": 330484,
          "duration_ticks": 100,
          "channel": 9
        },
        {
          "note": 42,
          "start": 218.730601,
          "duration": 0.083333,
          "velocity": 0.88189,
          "start_tick": 330721,
          "duration_ticks": 126,
          "channel": 9
        },
        {
          "note": 42,
          "start": 218.888009,
          "duration": 0.082672,
          "velocity": 0.480315,
          "start_tick": 330959,
          "duration_ticks": 125,
          "channel": 9
        },
        {
          "note": 36,
          "start": 219.044755,
          "duration": 0.105159,
          "velocity": 1.0,
          "start_tick": 331196,
          "duration_ticks": 159,
          "channel": 9
        },
        {
          "note": 40,
          "start": 219.044755,
          "duration": 0.078704,
          "velocity": 1.0,
          "start_tick": 331196,
          "duration_ticks": 119,
          "channel": 9
        },
        {
          "note": 42,
          "start": 219.044755,
          "duration": 0.078042,
          "velocity": 0.535433,
          "start_tick": 331196,
          "duration_ticks": 118,
          "channel": 9
        },
        {
          "note": 42,
          "start": 219.2015,
          "duration": 0.064153,
          "velocity": 0.307087,
          "start_tick": 331433,
          "duration_ticks": 97,
          "channel": 9
        },
        {
          "note": 42,
          "start": 219.358908,
          "duration": 0.083995,
          "velocity": 0.929134,
          "start_tick": 331671,
          "duration_ticks": 127,
          "channel": 9
        },
        {
          "note": 42,
          "start": 219.515654,
          "duration": 0.085979,
          "velocity": 0.535433,
          "start_tick": 331908,
          "duration_ticks": 130,
          "channel": 9
        },
        {
          "note": 36,
          "start": 219.673061,
          "duration": 0.103836,
          "velocity": 1.0,
          "start_tick": 332146,
          "duration_ticks": 157,
          "channel": 9
        },
        {
          "note": 42,
          "start": 219.673061,
          "duration": 0.077381,
          "velocity": 0.464567,
          "start_tick": 332146,
          "duration_ticks": 117,
          "channel": 9
        },
        {
          "note": 42,
          "start": 219.829807,
          "duration": 0.083333,
          "velocity": 0.385827,
          "start_tick": 332383,
          "duration_ticks": 126,
          "channel": 9
        },
        {
          "note": 42,
          "start": 219.986552,
          "duration": 0.081349,
          "velocity": 0.897638,
          "start_tick": 332620,
          "duration_ticks": 123,
          "channel": 9
        },
        {
          "note": 42,
          "start": 220.14396,
          "duration": 0.080688,
          "velocity": 0.354331,
          "start_tick": 332858,
          "duration_ticks": 122,
          "channel": 9
        },
        {
          "note": 36,
          "start": 220.300706,
          "duration": 0.094577,
          "velocity": 1.0,
          "start_tick": 333095,
          "duration_ticks": 143,
          "channel": 9
        },
        {
          "note": 40,
          "start": 220.300706,
          "duration": 0.078704,
          "velocity": 1.0,
          "start_tick": 333095,
          "duration_ticks": 119,
          "channel": 9
        },
        {
          "note": 42,
          "start": 220.300706,
          "duration": 0.076719,
          "velocity": 0.527559,
          "start_tick": 333095,
          "duration_ticks": 116,
          "channel": 9
        },
        {
          "note": 42,
          "start": 220.457451,
          "duration": 0.075397,
          "velocity": 0.291339,
          "start_tick": 333332,
          "duration_ticks": 114,
          "channel": 9
        },
        {
          "note": 42,
          "start": 220.614859,
          "duration": 0.080688,
          "velocity": 0.897638,
          "start_tick": 333570,
          "duration_ticks": 122,
          "channel": 9
        },
        {
          "note": 42,
          "start": 220.771605,
          "duration": 0.072751,
          "velocity": 0.637795,
          "start_tick": 333807,
          "duration_ticks": 110,
          "channel": 9
        },
        {
          "note": 36,
          "start": 220.929012,
          "duration": 0.106481,
          "velocity": 1.0,
          "start_tick": 334045,
          "duration_ticks": 161,
          "channel": 9
        },
        {
          "note": 42,
          "start": 220.929012,
          "duration": 0.070106,
          "velocity": 0.511811,
          "start_tick": 334045,
          "duration_ticks": 106,
          "channel": 9
        },
        {
          "note": 42,
          "start": 221.085758,
          "duration": 0.075397,
          "velocity": 0.582677,
          "start_tick": 334282,
          "duration_ticks": 114,
          "channel": 9
        },
        {
          "note": 42,
          "start": 221.242504,
          "duration": 0.080026,
          "velocity": 0.929134,
          "start_tick": 334519,
          "duration_ticks": 121,
          "channel": 9
        },
        {
          "note": 42,
          "start": 221.399911,
          "duration": 0.073413,
          "velocity": 0.598425,
          "start_tick": 334757,
          "duration_ticks": 111,
          "channel": 9
        },
        {
          "note": 36,
          "start": 221.556657,
          "duration": 0.10119,
          "velocity": 1.0,
          "start_tick": 334994,
          "duration_ticks": 153,
          "channel": 9
        },
        {
          "note": 40,
          "start": 221.556657,
          "duration": 0.078704,
          "velocity": 1.0,
          "start_tick": 334994,
          "duration_ticks": 119,
          "channel": 9
        },
        {
          "note": 42,
          "start": 221.556657,
          "duration": 0.085317,
          "velocity": 0.464567,
          "start_tick": 334994,
          "duration_ticks": 129,
          "channel": 9
        },
        {
          "note": 42,
          "start": 221.713403,
          "duration": 0.066799,
          "velocity": 0.440945,
          "start_tick": 335231,
          "duration_ticks": 101,
          "channel": 9
        },
        {
          "note": 42,
          "start": 221.87081,
          "duration": 0.080026,
          "velocity": 0.88189,
          "start_tick": 335469,
          "duration_ticks": 121,
          "channel": 9
        },
        {
          "note": 42,
          "start": 222.027556,
          "duration": 0.087963,
          "velocity": 0.692913,
          "start_tick": 335706,
          "duration_ticks": 133,
          "channel": 9
        },
        {
          "note": 36,
          "start": 222.184963,
          "duration": 0.105159,
          "velocity": 1.0,
          "start_tick": 335944,
          "duration_ticks": 159,
          "channel": 9
        },
        {
          "note": 42,
          "start": 222.184963,
          "duration": 0.077381,
          "velocity": 0.440945,
          "start_tick": 335944,
          "duration_ticks": 117,
          "channel": 9
        },
        {
          "note": 42,
          "start": 222.341709,
          "duration": 0.079365,
          "velocity": 0.440945,
          "start_tick": 336181,
          "duration_ticks": 120,
          "channel": 9
        },
        {
          "note": 42,
          "start": 222.498455,
          "duration": 0.08201,
          "velocity": 0.88189,
          "start_tick": 336418,
          "duration_ticks": 124,
          "channel": 9
        },
        {
          "note": 42,
          "start": 222.655862,
          "duration": 0.088624,
          "velocity": 0.669291,
          "start_tick": 336656,
          "duration_ticks": 134,
          "channel": 9
        },
        {
          "note": 36,
          "start": 222.812608,
          "duration": 0.105159,
          "velocity": 1.0,
          "start_tick": 336893,
          "duration_ticks": 159,
          "channel": 9
        },
        {
          "note": 40,
          "start": 222.812608,
          "duration": 0.078704,
          "velocity": 1.0,
          "start_tick": 336893,
          "duration_ticks": 119,
          "channel": 9
        },
        {
          "note": 42,
          "start": 222.812608,
          "duration": 0.074074,
          "velocity": 0.417323,
          "start_tick": 336893,
          "duration_ticks": 112,
          "channel": 9
        },
        {
          "note": 42,
          "start": 222.970015,
          "duration": 0.08664,
          "velocity": 0.354331,
          "start_tick": 337131,
          "duration_ticks": 131,
          "channel": 9
        },
        {
          "note": 42,
          "start": 223.126761,
          "duration": 0.081349,
          "velocity": 0.913386,
          "start_tick": 337368,
          "duration_ticks": 123,
          "channel": 9
        },
        {
          "note": 42,
          "start": 223.283507,
          "duration": 0.085979,
          "velocity": 0.614173,
          "start_tick": 337605,
          "duration_ticks": 130,
          "channel": 9
        },
        {
          "note": 36,
          "start": 223.440914,
          "duration": 0.103174,
          "velocity": 1.0,
          "start_tick": 337843,
          "duration_ticks": 156,
          "channel": 9
        },
        {
          "note": 42,
          "start": 223.440914,
          "duration": 0.073413,
          "velocity": 0.503937,
          "start_tick": 337843,
          "duration_ticks": 111,
          "channel": 9
        },
        {
          "note": 42,
          "start": 223.59766,
          "duration": 0.066137,
          "velocity": 0.401575,
          "start_tick": 338080,
          "duration_ticks": 100,
          "channel": 9
        },
        {
          "note": 42,
          "start": 223.754406,
          "duration": 0.083333,
          "velocity": 0.88189,
          "start_tick": 338317,
          "duration_ticks": 126,
          "channel": 9
        },
        {
          "note": 42,
          "start": 223.911813,
          "duration": 0.082672,
          "velocity": 0.480315,
          "start_tick": 338555,
          "duration_ticks": 125,
          "channel": 9
        },
        {
          "note": 36,
          "start": 224.068559,
          "duration": 0.105159,
          "velocity": 1.0,
          "start_tick": 338792,
          "duration_ticks": 159,
          "channel": 9
        },
        {
          "note": 40,
          "start": 224.068559,
          "duration": 0.078704,
          "velocity": 1.0,
          "start_tick": 338792,
          "duration_ticks": 119,
          "channel": 9
        },
        {
          "note": 42,
          "start": 224.068559,
          "duration": 0.078042,
          "velocity": 0.535433,
          "start_tick": 338792,
          "duration_ticks": 118,
          "channel": 9
        },
        {
          "note": 42,
          "start": 224.225966,
          "duration": 0.063492,
          "velocity": 0.307087,
          "start_tick": 339030,
          "duration_ticks": 96,
          "channel": 9
        },
        {
          "note": 42,
          "start": 224.382712,
          "duration": 0.083995,
          "velocity": 0.929134,
          "start_tick": 339267,
          "duration_ticks": 127,
          "channel": 9
        },
        {
          "note": 42,
          "start": 224.539458,
          "duration": 0.085979,
          "velocity": 0.535433,
          "start_tick": 339504,
          "duration_ticks": 130,
          "channel": 9
        },
        {
          "note": 36,
          "start": 224.696865,
          "duration": 0.103836,
          "velocity": 1.0,
          "start_tick": 339742,
          "duration_ticks": 157,
          "channel": 9
        },
        {
          "note": 42,
          "start": 224.696865,
          "duration": 0.077381,
          "velocity": 0.464567,
          "start_tick": 339742,
          "duration_ticks": 117,
          "channel": 9
        },
        {
          "note": 42,
          "start": 224.853611,
          "duration": 0.083333,
          "velocity": 0.385827,
          "start_tick": 339979,
          "duration_ticks": 126,
          "channel": 9
        },
        {
          "note": 42,
          "start": 225.01168,
          "duration": 0.08201,
          "velocity": 0.897638,
          "start_tick": 340218,
          "duration_ticks": 124,
          "channel": 9
        },
        {
          "note": 42,
          "start": 225.17041,
          "duration": 0.082672,
          "velocity": 0.354331,
          "start_tick": 340458,
          "duration_ticks": 125,
          "channel": 9
        },
        {
          "note": 36,
          "start": 225.329801,
          "duration": 0.095238,
          "velocity": 1.0,
          "start_tick": 340699,
          "duration_ticks": 144,
          "channel": 9
        },
        {
          "note": 40,
          "start": 225.329801,
          "duration": 0.079365,
          "velocity": 1.0,
          "start_tick": 340699,
          "duration_ticks": 120,
          "channel": 9
        },
        {
          "note": 42,
          "start": 225.329801,
          "duration": 0.077381,
          "velocity": 0.527559,
          "start_tick": 340699,
          "duration_ticks": 117,
          "channel": 9
        },
        {
          "note": 42,
          "start": 225.488531,
          "duration": 0.076058,
          "velocity": 0.291339,
          "start_tick": 340939,
          "duration_ticks": 115,
          "channel": 9
        },
        {
          "note": 42,
          "start": 225.647922,
          "duration": 0.08201,
          "velocity": 0.897638,
          "start_tick": 341180,
          "duration_ticks": 124,
          "channel": 9
        },
        {
          "note": 42,
          "start": 225.806653,
          "duration": 0.073413,
          "velocity": 0.637795,
          "start_tick": 341420,
          "duration_ticks": 111,
          "channel": 9
        },
        {
          "note": 36,
          "start": 225.966044,
          "duration": 0.107804,
          "velocity": 1.0,
          "start_tick": 341661,
          "duration_ticks": 163,
          "channel": 9
        },
        {
          "note": 42,
          "start": 225.966044,
          "duration": 0.071428,
          "velocity": 0.511811,
          "start_tick": 341661,
          "duration_ticks": 108,
          "channel": 9
        },
        {
          "note": 42,
          "start": 226.124774,
          "duration": 0.076058,
          "velocity": 0.582677,
          "start_tick": 341901,
          "duration_ticks": 115,
          "channel": 9
        },
        {
          "note": 42,
          "start": 226.283504,
          "duration": 0.081349,
          "velocity": 0.929134,
          "start_tick": 342141,
          "duration_ticks": 123,
          "channel": 9
        },
        {
          "note": 42,
          "start": 226.442895,
          "duration": 0.074074,
          "velocity": 0.598425,
          "start_tick": 342382,
          "duration_ticks": 112,
          "channel": 9
        },
        {
          "note": 36,
          "start": 226.601625,
          "duration": 0.103174,
          "velocity": 1.0,
          "start_tick": 342622,
          "duration_ticks": 156,
          "channel": 9
        },
        {
          "note": 40,
          "start": 226.601625,
          "duration": 0.080026,
          "velocity": 1.0,
          "start_tick": 342622,
          "duration_ticks": 121,
          "channel": 9
        },
        {
          "note": 42,
          "start": 226.601625,
          "duration": 0.08664,
          "velocity": 0.464567,
          "start_tick": 342622,
          "duration_ticks": 131,
          "channel": 9
        },
        {
          "note": 42,
          "start": 226.761017,
          "duration": 0.06746,
          "velocity": 0.440945,
          "start_tick": 342863,
          "duration_ticks": 102,
          "channel": 9
        },
        {
          "note": 42,
          "start": 226.919747,
          "duration": 0.080688,
          "velocity": 0.88189,
          "start_tick": 343103,
          "duration_ticks": 122,
          "channel": 9
        },
        {
          "note": 42,
          "start": 227.079138,
          "duration": 0.088624,
          "velocity": 0.692913,
          "start_tick": 343344,
          "duration_ticks": 134,
          "channel": 9
        },
        {
          "note": 36,
          "start": 227.237868,
          "duration": 0.106481,
          "velocity": 1.0,
          "start_tick": 343584,
          "duration_ticks": 161,
          "channel": 9
        },
        {
          "note": 42,
          "start": 227.237868,
          "duration": 0.078704,
          "velocity": 0.440945,
          "start_tick": 343584,
          "duration_ticks": 119,
          "channel": 9
        },
        {
          "note": 42,
          "start": 227.397259,
          "duration": 0.080026,
          "velocity": 0.440945,
          "start_tick": 343825,
          "duration_ticks": 121,
          "channel": 9
        },
        {
          "note": 42,
          "start": 227.555989,
          "duration": 0.082672,
          "velocity": 0.88189,
          "start_tick": 344065,
          "duration_ticks": 125,
          "channel": 9
        },
        {
          "note": 42,
          "start": 227.714719,
          "duration": 0.090608,
          "velocity": 0.669291,
          "start_tick": 344305,
          "duration_ticks": 137,
          "channel": 9
        },
        {
          "note": 36,
          "start": 227.874111,
          "duration": 0.106481,
          "velocity": 1.0,
          "start_tick": 344546,
          "duration_ticks": 161,
          "channel": 9
        },
        {
          "note": 40,
          "start": 227.874111,
          "duration": 0.079365,
          "velocity": 1.0,
          "start_tick": 344546,
          "duration_ticks": 120,
          "channel": 9
        },
        {
          "note": 42,
          "start": 227.874111,
          "duration": 0.074735,
          "velocity": 0.417323,
          "start_tick": 344546,
          "duration_ticks": 113,
          "channel": 9
        },
        {
          "note": 42,
          "start": 228.032841,
          "duration": 0.088624,
          "velocity": 0.354331,
          "start_tick": 344786,
          "duration_ticks": 134,
          "channel": 9
        },
        {
          "note": 42,
          "start": 228.192232,
          "duration": 0.08201,
          "velocity": 0.913386,
          "start_tick": 345027,
          "duration_ticks": 124,
          "channel": 9
        },
        {
          "note": 42,
          "start": 228.350962,
          "duration": 0.087301,
          "velocity": 0.614173,
          "start_tick": 345267,
          "duration_ticks": 132,
          "channel": 9
        },
        {
          "note": 36,
          "start": 228.510354,
          "duration": 0.104497,
          "velocity": 1.0,
          "start_tick": 345508,
          "duration_ticks": 158,
          "channel": 9
        },
        {
          "note": 42,
          "start": 228.510354,
          "duration": 0.074735,
          "velocity": 0.503937,
          "start_tick": 345508,
          "duration_ticks": 113,
          "channel": 9
        },
        {
          "note": 42,
          "start": 228.669083,
          "duration": 0.066799,
          "velocity": 0.401575,
          "start_tick": 345748,
          "duration_ticks": 101,
          "channel": 9
        },
        {
          "note": 42,
          "start": 228.828475,
          "duration": 0.083995,
          "velocity": 0.88189,
          "start_tick": 345989,
          "duration_ticks": 127,
          "channel": 9
        },
        {
          "note": 42,
          "start": 228.987205,
          "duration": 0.083995,
          "velocity": 0.480315,
          "start_tick": 346229,
          "duration_ticks": 127,
          "channel": 9
        },
        {
          "note": 36,
          "start": 229.145935,
          "duration": 0.107143,
          "velocity": 1.0,
          "start_tick": 346469,
          "duration_ticks": 162,
          "channel": 9
        },
        {
          "note": 40,
          "start": 229.145935,
          "duration": 0.080026,
          "velocity": 1.0,
          "start_tick": 346469,
          "duration_ticks": 121,
          "channel": 9
        },
        {
          "note": 42,
          "start": 229.145935,
          "duration": 0.079365,
          "velocity": 0.535433,
          "start_tick": 346469,
          "duration_ticks": 120,
          "channel": 9
        },
        {
          "note": 42,
          "start": 229.305326,
          "duration": 0.064815,
          "velocity": 0.307087,
          "start_tick": 346710,
          "duration_ticks": 98,
          "channel": 9
        },
        {
          "note": 42,
          "start": 229.464056,
          "duration": 0.085979,
          "velocity": 0.929134,
          "start_tick": 346950,
          "duration_ticks": 130,
          "channel": 9
        },
        {
          "note": 42,
          "start": 229.623448,
          "duration": 0.08664,
          "velocity": 0.535433,
          "start_tick": 347191,
          "duration_ticks": 131,
          "channel": 9
        },
        {
          "note": 36,
          "start": 229.782178,
          "duration": 0.10582,
          "velocity": 1.0,
          "start_tick": 347431,
          "duration_ticks": 160,
          "channel": 9
        },
        {
          "note": 42,
          "start": 229.782178,
          "duration": 0.078704,
          "velocity": 0.464567,
          "start_tick": 347431,
          "duration_ticks": 119,
          "channel": 9
        },
        {
          "note": 42,
          "start": 229.941569,
          "duration": 0.083995,
          "velocity": 0.385827,
          "start_tick": 347672,
          "duration_ticks": 127,
          "channel": 9
        },
        {
          "note": 42,
          "start": 230.100299,
          "duration": 0.08201,
          "velocity": 0.897638,
          "start_tick": 347912,
          "duration_ticks": 124,
          "channel": 9
        },
        {
          "note": 42,
          "start": 230.25969,
          "duration": 0.08201,
          "velocity": 0.354331,
          "start_tick": 348153,
          "duration_ticks": 124,
          "channel": 9
        },
        {
          "note": 36,
          "start": 230.41842,
          "duration": 0.095238,
          "velocity": 1.0,
          "start_tick": 348393,
          "duration_ticks": 144,
          "channel": 9
        },
        {
          "note": 42,
          "start": 230.41842,
          "duration": 0.077381,
          "velocity": 0.527559,
          "start_tick": 348393,
          "duration_ticks": 117,
          "channel": 9
        },
        {
          "note": 42,
          "start": 230.57715,
          "duration": 0.076719,
          "velocity": 0.291339,
          "start_tick": 348633,
          "duration_ticks": 116,
          "channel": 9
        },
        {
          "note": 42,
          "start": 230.736542,
          "duration": 0.082011,
          "velocity": 0.897638,
          "start_tick": 348874,
          "duration_ticks": 124,
          "channel": 9
        },
        {
          "note": 42,
          "start": 230.895272,
          "duration": 0.074074,
          "velocity": 0.637795,
          "start_tick": 349114,
          "duration_ticks": 112,
          "channel": 9
        },
        {
          "note": 36,
          "start": 231.054663,
          "duration": 0.107804,
          "velocity": 1.0,
          "start_tick": 349355,
          "duration_ticks": 163,
          "channel": 9
        },
        {
          "note": 42,
          "start": 231.054663,
          "duration": 0.071428,
          "velocity": 0.511811,
          "start_tick": 349355,
          "duration_ticks": 108,
          "channel": 9
        },
        {
          "note": 49,
          "start": 231.054663,
          "duration": 0.079365,
          "velocity": 0.629921,
          "start_tick": 349355,
          "duration_ticks": 120,
          "channel": 9
        },
        {
          "note": 42,
          "start": 231.213393,
          "duration": 0.076058,
          "velocity": 0.582677,
          "start_tick": 349595,
          "duration_ticks": 115,
          "channel": 9
        },
        {
          "note": 42,
          "start": 231.372784,
          "duration": 0.080688,
          "velocity": 0.929134,
          "start_tick": 349836,
          "duration_ticks": 122,
          "channel": 9
        },
        {
          "note": 42,
          "start": 231.531514,
          "duration": 0.074074,
          "velocity": 0.598425,
          "start_tick": 350076,
          "duration_ticks": 112,
          "channel": 9
        },
        {
          "note": 36,
          "start": 231.690906,
          "duration": 0.102513,
          "velocity": 1.0,
          "start_tick": 350317,
          "duration_ticks": 155,
          "channel": 9
        },
        {
          "note": 40,
          "start": 231.690906,
          "duration": 0.079365,
          "velocity": 1.0,
          "start_tick": 350317,
          "duration_ticks": 120,
          "channel": 9
        },
        {
          "note": 42,
          "start": 231.690906,
          "duration": 0.085979,
          "velocity": 0.464567,
          "start_tick": 350317,
          "duration_ticks": 130,
          "channel": 9
        },
        {
          "note": 49,
          "start": 231.690906,
          "duration": 0.079365,
          "velocity": 0.629921,
          "start_tick": 350317,
          "duration_ticks": 120,
          "channel": 9
        },
        {
          "note": 42,
          "start": 231.849636,
          "duration": 0.06746,
          "velocity": 0.440945,
          "start_tick": 350557,
          "duration_ticks": 102,
          "channel": 9
        },
        {
          "note": 42,
          "start": 232.008366,
          "duration": 0.081349,
          "velocity": 0.88189,
          "start_tick": 350797,
          "duration_ticks": 123,
          "channel": 9
        },
        {
          "note": 42,
          "start": 232.167757,
          "duration": 0.088624,
          "velocity": 0.692913,
          "start_tick": 351038,
          "duration_ticks": 134,
          "channel": 9
        },
        {
          "note": 36,
          "start": 232.326487,
          "duration": 0.107143,
          "velocity": 1.0,
          "start_tick": 351278,
          "duration_ticks": 162,
          "channel": 9
        },
        {
          "note": 42,
          "start": 232.326487,
          "duration": 0.079365,
          "velocity": 0.440945,
          "start_tick": 351278,
          "duration_ticks": 120,
          "channel": 9
        },
        {
          "note": 42,
          "start": 232.485879,
          "duration": 0.080026,
          "velocity": 0.440945,
          "start_tick": 351519,
          "duration_ticks": 121,
          "channel": 9
        },
        {
          "note": 42,
          "start": 232.644609,
          "duration": 0.082672,
          "velocity": 0.88189,
          "start_tick": 351759,
          "duration_ticks": 125,
          "channel": 9
        },
        {
          "note": 42,
          "start": 232.804,
          "duration": 0.089947,
          "velocity": 0.669291,
          "start_tick": 352000,
          "duration_ticks": 136,
          "channel": 9
        },
        {
          "note": 36,
          "start": 232.96273,
          "duration": 0.106481,
          "velocity": 1.0,
          "start_tick": 352240,
          "duration_ticks": 161,
          "channel": 9
        },
        {
          "note": 40,
          "start": 232.96273,
          "duration": 0.079365,
          "velocity": 1.0,
          "start_tick": 352240,
          "duration_ticks": 120,
          "channel": 9
        },
        {
          "note": 42,
          "start": 232.96273,
          "duration": 0.074735,
          "velocity": 0.417323,
          "start_tick": 352240,
          "duration_ticks": 113,
          "channel": 9
        },
        {
          "note": 49,
          "start": 232.96273,
          "duration": 0.079365,
          "velocity": 0.629921,
          "start_tick": 352240,
          "duration_ticks": 120,
          "channel": 9
        },
        {
          "note": 42,
          "start": 233.122121,
          "duration": 0.087963,
          "velocity": 0.354331,
          "start_tick": 352481,
          "duration_ticks": 133,
          "channel": 9
        },
        {
          "note": 42,
          "start": 233.280851,
          "duration": 0.08201,
          "velocity": 0.913386,
          "start_tick": 352721,
          "duration_ticks": 124,
          "channel": 9
        },
        {
          "note": 42,
          "start": 233.439581,
          "duration": 0.087302,
          "velocity": 0.614173,
          "start_tick": 352961,
          "duration_ticks": 132,
          "channel": 9
        },
        {
          "note": 36,
          "start": 233.598973,
          "duration": 0.104497,
          "velocity": 1.0,
          "start_tick": 353202,
          "duration_ticks": 158,
          "channel": 9
        },
        {
          "note": 42,
          "start": 233.598973,
          "duration": 0.074735,
          "velocity": 0.503937,
          "start_tick": 353202,
          "duration_ticks": 113,
          "channel": 9
        },
        {
          "note": 42,
          "start": 233.757703,
          "duration": 0.06746,
          "velocity": 0.401575,
          "start_tick": 353442,
          "duration_ticks": 102,
          "channel": 9
        },
        {
          "note": 42,
          "start": 233.917094,
          "duration": 0.083995,
          "velocity": 0.88189,
          "start_tick": 353683,
          "duration_ticks": 127,
          "channel": 9
        },
        {
          "note": 42,
          "start": 234.075824,
          "duration": 0.084656,
          "velocity": 0.480315,
          "start_tick": 353923,
          "duration_ticks": 128,
          "channel": 9
        },
        {
          "note": 36,
          "start": 234.235216,
          "duration": 0.106481,
          "velocity": 1.0,
          "start_tick": 354164,
          "duration_ticks": 161,
          "channel": 9
        },
        {
          "note": 40,
          "start": 234.235216,
          "duration": 0.079365,
          "velocity": 1.0,
          "start_tick": 354164,
          "duration_ticks": 120,
          "channel": 9
        },
        {
          "note": 42,
          "start": 234.235216,
          "duration": 0.078704,
          "velocity": 0.535433,
          "start_tick": 354164,
          "duration_ticks": 119,
          "channel": 9
        },
        {
          "note": 49,
          "start": 234.235216,
          "duration": 0.079365,
          "velocity": 0.629921,
          "start_tick": 354164,
          "duration_ticks": 120,
          "channel": 9
        },
        {
          "note": 42,
          "start": 234.393946,
          "duration": 0.064815,
          "velocity": 0.307087,
          "start_tick": 354404,
          "duration_ticks": 98,
          "channel": 9
        },
        {
          "note": 42,
          "start": 234.553337,
          "duration": 0.085317,
          "velocity": 0.929134,
          "start_tick": 354645,
          "duration_ticks": 129,
          "channel": 9
        },
        {
          "note": 42,
          "start": 234.712067,
          "duration": 0.08664,
          "velocity": 0.535433,
          "start_tick": 354885,
          "duration_ticks": 131,
          "channel": 9
        },
        {
          "note": 36,
          "start": 234.870797,
          "duration": 0.10582,
          "velocity": 1.0,
          "start_tick": 355125,
          "duration_ticks": 160,
          "channel": 9
        },
        {
          "note": 42,
          "start": 234.870797,
          "duration": 0.079365,
          "velocity": 0.464567,
          "start_tick": 355125,
          "duration_ticks": 120,
          "channel": 9
        },
        {
          "note": 42,
          "start": 235.030188,
          "duration": 0.083995,
          "velocity": 0.385827,
          "start_tick": 355366,
          "duration_ticks": 127,
          "channel": 9
        },
        {
          "note": 42,
          "start": 235.188918,
          "duration": 0.082672,
          "velocity": 0.897638,
          "start_tick": 355606,
          "duration_ticks": 125,
          "channel": 9
        },
        {
          "note": 42,
          "start": 235.34831,
          "duration": 0.08201,
          "velocity": 0.354331,
          "start_tick": 355847,
          "duration_ticks": 124,
          "channel": 9
        },
        {
          "note": 36,
          "start": 235.50704,
          "duration": 0.095899,
          "velocity": 1.0,
          "start_tick": 356087,
          "duration_ticks": 145,
          "channel": 9
        },
        {
          "note": 40,
          "start": 235.50704,
          "duration": 0.079365,
          "velocity": 1.0,
          "start_tick": 356087,
          "duration_ticks": 120,
          "channel": 9
        },
        {
          "note": 42,
          "start": 235.50704,
          "duration": 0.077381,
          "velocity": 0.527559,
          "start_tick": 356087,
          "duration_ticks": 117,
          "channel": 9
        },
        {
          "note": 49,
          "start": 235.50704,
          "duration": 0.079365,
          "velocity": 0.629921,
          "start_tick": 356087,
          "duration_ticks": 120,
          "channel": 9
        },
        {
          "note": 42,
          "start": 235.666431,
          "duration": 0.076058,
          "velocity": 0.291339,
          "start_tick": 356328,
          "duration_ticks": 115,
          "channel": 9
        },
        {
          "note": 42,
          "start": 235.825161,
          "duration": 0.08201,
          "velocity": 0.897638,
          "start_tick": 356568,
          "duration_ticks": 124,
          "channel": 9
        },
        {
          "note": 42,
          "start": 235.984552,
          "duration": 0.073413,
          "velocity": 0.637795,
          "start_tick": 356809,
          "duration_ticks": 111,
          "channel": 9
        },
        {
          "note": 36,
          "start": 236.143282,
          "duration": 0.107804,
          "velocity": 1.0,
          "start_tick": 357049,
          "duration_ticks": 163,
          "channel": 9
        },
        {
          "note": 42,
          "start": 236.143282,
          "duration": 0.071428,
          "velocity": 0.511811,
          "start_tick": 357049,
          "duration_ticks": 108,
          "channel": 9
        },
        {
          "note": 42,
          "start": 236.302012,
          "duration": 0.076719,
          "velocity": 0.582677,
          "start_tick": 357289,
          "duration_ticks": 116,
          "channel": 9
        },
        {
          "note": 42,
          "start": 236.461404,
          "duration": 0.080688,
          "velocity": 0.929134,
          "start_tick": 357530,
          "duration_ticks": 122,
          "channel": 9
        },
        {
          "note": 42,
          "start": 236.620134,
          "duration": 0.074735,
          "velocity": 0.598425,
          "start_tick": 357770,
          "duration_ticks": 113,
          "channel": 9
        },
        {
          "note": 36,
          "start": 236.779525,
          "duration": 0.102513,
          "velocity": 1.0,
          "start_tick": 358011,
          "duration_ticks": 155,
          "channel": 9
        },
        {
          "note": 40,
          "start": 236.779525,
          "duration": 0.079365,
          "velocity": 1.0,
          "start_tick": 358011,
          "duration_ticks": 120,
          "channel": 9
        },
        {
          "note": 42,
          "start": 236.779525,
          "duration": 0.085979,
          "velocity": 0.464567,
          "start_tick": 358011,
          "duration_ticks": 130,
          "channel": 9
        },
        {
          "note": 49,
          "start": 236.779525,
          "duration": 0.079365,
          "velocity": 0.629921,
          "start_tick": 358011,
          "duration_ticks": 120,
          "channel": 9
        },
        {
          "note": 42,
          "start": 236.938255,
          "duration": 0.06746,
          "velocity": 0.440945,
          "start_tick": 358251,
          "duration_ticks": 102,
          "channel": 9
        },
        {
          "note": 42,
          "start": 237.097646,
          "duration": 0.080688,
          "velocity": 0.88189,
          "start_tick": 358492,
          "duration_ticks": 122,
          "channel": 9
        },
        {
          "note": 42,
          "start": 237.256376,
          "duration": 0.088624,
          "velocity": 0.692913,
          "start_tick": 358732,
          "duration_ticks": 134,
          "channel": 9
        },
        {
          "note": 36,
          "start": 237.415768,
          "duration": 0.106481,
          "velocity": 1.0,
          "start_tick": 358973,
          "duration_ticks": 161,
          "channel": 9
        },
        {
          "note": 42,
          "start": 237.415768,
          "duration": 0.078704,
          "velocity": 0.440945,
          "start_tick": 358973,
          "duration_ticks": 119,
          "channel": 9
        },
        {
          "note": 42,
          "start": 237.574498,
          "duration": 0.080026,
          "velocity": 0.440945,
          "start_tick": 359213,
          "duration_ticks": 121,
          "channel": 9
        },
        {
          "note": 42,
          "start": 237.733228,
          "duration": 0.083333,
          "velocity": 0.88189,
          "start_tick": 359453,
          "duration_ticks": 126,
          "channel": 9
        },
        {
          "note": 42,
          "start": 237.892619,
          "duration": 0.089947,
          "velocity": 0.669291,
          "start_tick": 359694,
          "duration_ticks": 136,
          "channel": 9
        },
        {
          "note": 36,
          "start": 238.051349,
          "duration": 0.107143,
          "velocity": 1.0,
          "start_tick": 359934,
          "duration_ticks": 162,
          "channel": 9
        },
        {
          "note": 40,
          "start": 238.051349,
          "duration": 0.080026,
          "velocity": 1.0,
          "start_tick": 359934,
          "duration_ticks": 121,
          "channel": 9
        },
        {
          "note": 42,
          "start": 238.051349,
          "duration": 0.075397,
          "velocity": 0.417323,
          "start_tick": 359934,
          "duration_ticks": 114,
          "channel": 9
        },
        {
          "note": 49,
          "start": 238.051349,
          "duration": 0.080026,
          "velocity": 0.629921,
          "start_tick": 359934,
          "duration_ticks": 121,
          "channel": 9
        },
        {
          "note": 42,
          "start": 238.210741,
          "duration": 0.087963,
          "velocity": 0.354331,
          "start_tick": 360175,
          "duration_ticks": 133,
          "channel": 9
        },
        {
          "note": 42,
          "start": 238.369471,
          "duration": 0.08201,
          "velocity": 0.913386,
          "start_tick": 360415,
          "duration_ticks": 124,
          "channel": 9
        },
        {
          "note": 42,
          "start": 238.528862,
          "duration": 0.08664,
          "velocity": 0.614173,
          "start_tick": 360656,
          "duration_ticks": 131,
          "channel": 9
        },
        {
          "note": 36,
          "start": 238.687592,
          "duration": 0.104497,
          "velocity": 1.0,
          "start_tick": 360896,
          "duration_ticks": 158,
          "channel": 9
        },
        {
          "note": 42,
          "start": 238.687592,
          "duration": 0.074735,
          "velocity": 0.503937,
          "start_tick": 360896,
          "duration_ticks": 113,
          "channel": 9
        },
        {
          "note": 42,
          "start": 238.846983,
          "duration": 0.066799,
          "velocity": 0.401575,
          "start_tick": 361137,
          "duration_ticks": 101,
          "channel": 9
        },
        {
          "note": 42,
          "start": 239.005713,
          "duration": 0.083995,
          "velocity": 0.88189,
          "start_tick": 361377,
          "duration_ticks": 127,
          "channel": 9
        },
        {
          "note": 42,
          "start": 239.164443,
          "duration": 0.084656,
          "velocity": 0.480315,
          "start_tick": 361617,
          "duration_ticks": 128,
          "channel": 9
        },
        {
          "note": 36,
          "start": 239.323835,
          "duration": 0.106481,
          "velocity": 1.0,
          "start_tick": 361858,
          "duration_ticks": 161,
          "channel": 9
        },
        {
          "note": 40,
          "start": 239.323835,
          "duration": 0.079365,
          "velocity": 1.0,
          "start_tick": 361858,
          "duration_ticks": 120,
          "channel": 9
        },
        {
          "note": 42,
          "start": 239.323835,
          "duration": 0.078704,
          "velocity": 0.535433,
          "start_tick": 361858,
          "duration_ticks": 119,
          "channel": 9
        },
        {
          "note": 49,
          "start": 239.323835,
          "duration": 0.079365,
          "velocity": 0.629921,
          "start_tick": 361858,
          "duration_ticks": 120,
          "channel": 9
        },
        {
          "note": 42,
          "start": 239.482565,
          "duration": 0.065476,
          "velocity": 0.307087,
          "start_tick": 362098,
          "duration_ticks": 99,
          "channel": 9
        },
        {
          "note": 42,
          "start": 239.641956,
          "duration": 0.085317,
          "velocity": 0.929134,
          "start_tick": 362339,
          "duration_ticks": 129,
          "channel": 9
        },
        {
          "note": 42,
          "start": 239.800686,
          "duration": 0.087301,
          "velocity": 0.535433,
          "start_tick": 362579,
          "duration_ticks": 132,
          "channel": 9
        },
        {
          "note": 36,
          "start": 239.960078,
          "duration": 0.105159,
          "velocity": 1.0,
          "start_tick": 362820,
          "duration_ticks": 159,
          "channel": 9
        },
        {
          "note": 42,
          "start": 239.960078,
          "duration": 0.078704,
          "velocity": 0.464567,
          "start_tick": 362820,
          "duration_ticks": 119,
          "channel": 9
        },
        {
          "note": 42,
          "start": 240.118808,
          "duration": 0.083995,
          "velocity": 0.385827,
          "start_tick": 363060,
          "duration_ticks": 127,
          "channel": 9
        },
        {
          "note": 42,
          "start": 240.278199,
          "duration": 0.082011,
          "velocity": 0.897638,
          "start_tick": 363301,
          "duration_ticks": 124,
          "channel": 9
        },
        {
          "note": 42,
          "start": 240.436929,
          "duration": 0.08201,
          "velocity": 0.354331,
          "start_tick": 363541,
          "duration_ticks": 124,
          "channel": 9
        },
        {
          "note": 36,
          "start": 240.595659,
          "duration": 0.095899,
          "velocity": 1.0,
          "start_tick": 363781,
          "duration_ticks": 145,
          "channel": 9
        },
        {
          "note": 40,
          "start": 240.595659,
          "duration": 0.080026,
          "velocity": 1.0,
          "start_tick": 363781,
          "duration_ticks": 121,
          "channel": 9
        },
        {
          "note": 42,
          "start": 240.595659,
          "duration": 0.078042,
          "velocity": 0.527559,
          "start_tick": 363781,
          "duration_ticks": 118,
          "channel": 9
        },
        {
          "note": 49,
          "start": 240.595659,
          "duration": 0.080026,
          "velocity": 0.629921,
          "start_tick": 363781,
          "duration_ticks": 121,
          "channel": 9
        },
        {
          "note": 42,
          "start": 240.75505,
          "duration": 0.076058,
          "velocity": 0.291339,
          "start_tick": 364022,
          "duration_ticks": 115,
          "channel": 9
        },
        {
          "note": 42,
          "start": 240.91378,
          "duration": 0.082672,
          "velocity": 0.897638,
          "start_tick": 364262,
          "duration_ticks": 125,
          "channel": 9
        },
        {
          "note": 42,
          "start": 241.073172,
          "duration": 0.073413,
          "velocity": 0.637795,
          "start_tick": 364503,
          "duration_ticks": 111,
          "channel": 9
        },
        {
          "note": 36,
          "start": 241.231902,
          "duration": 0.108465,
          "velocity": 1.0,
          "start_tick": 364743,
          "duration_ticks": 164,
          "channel": 9
        },
        {
          "note": 42,
          "start": 241.231902,
          "duration": 0.071428,
          "velocity": 0.511811,
          "start_tick": 364743,
          "duration_ticks": 108,
          "channel": 9
        },
        {
          "note": 42,
          "start": 241.391293,
          "duration": 0.076058,
          "velocity": 0.582677,
          "start_tick": 364984,
          "duration_ticks": 115,
          "channel": 9
        },
        {
          "note": 42,
          "start": 241.550023,
          "duration": 0.080688,
          "velocity": 0.929134,
          "start_tick": 365224,
          "duration_ticks": 122,
          "channel": 9
        },
        {
          "note": 42,
          "start": 241.709414,
          "duration": 0.074074,
          "velocity": 0.598425,
          "start_tick": 365465,
          "duration_ticks": 112,
          "channel": 9
        },
        {
          "note": 36,
          "start": 241.868144,
          "duration": 0.102513,
          "velocity": 1.0,
          "start_tick": 365705,
          "duration_ticks": 155,
          "channel": 9
        },
        {
          "note": 40,
          "start": 241.868144,
          "duration": 0.079365,
          "velocity": 1.0,
          "start_tick": 365705,
          "duration_ticks": 120,
          "channel": 9
        },
        {
          "note": 42,
          "start": 241.868144,
          "duration": 0.085979,
          "velocity": 0.464567,
          "start_tick": 365705,
          "duration_ticks": 130,
          "channel": 9
        },
        {
          "note": 49,
          "start": 241.868144,
          "duration": 0.079365,
          "velocity": 0.629921,
          "start_tick": 365705,
          "duration_ticks": 120,
          "channel": 9
        },
        {
          "note": 42,
          "start": 242.026874,
          "duration": 0.068122,
          "velocity": 0.440945,
          "start_tick": 365945,
          "duration_ticks": 103,
          "channel": 9
        },
        {
          "note": 42,
          "start": 242.186266,
          "duration": 0.080688,
          "velocity": 0.88189,
          "start_tick": 366186,
          "duration_ticks": 122,
          "channel": 9
        },
        {
          "note": 42,
          "start": 242.344996,
          "duration": 0.089286,
          "velocity": 0.692913,
          "start_tick": 366426,
          "duration_ticks": 135,
          "channel": 9
        },
        {
          "note": 36,
          "start": 242.504387,
          "duration": 0.106481,
          "velocity": 1.0,
          "start_tick": 366667,
          "duration_ticks": 161,
          "channel": 9
        },
        {
          "note": 42,
          "start": 242.504387,
          "duration": 0.078704,
          "velocity": 0.440945,
          "start_tick": 366667,
          "duration_ticks": 119,
          "channel": 9
        },
        {
          "note": 42,
          "start": 242.663117,
          "duration": 0.080026,
          "velocity": 0.440945,
          "start_tick": 366907,
          "duration_ticks": 121,
          "channel": 9
        },
        {
          "note": 42,
          "start": 242.822508,
          "duration": 0.082672,
          "velocity": 0.88189,
          "start_tick": 367148,
          "duration_ticks": 125,
          "channel": 9
        },
        {
          "note": 42,
          "start": 242.981238,
          "duration": 0.089947,
          "velocity": 0.669291,
          "start_tick": 367388,
          "duration_ticks": 136,
          "channel": 9
        },
        {
          "note": 36,
          "start": 243.14063,
          "duration": 0.106481,
          "velocity": 1.0,
          "start_tick": 367629,
          "duration_ticks": 161,
          "channel": 9
        },
        {
          "note": 40,
          "start": 243.14063,
          "duration": 0.079365,
          "velocity": 1.0,
          "start_tick": 367629,
          "duration_ticks": 120,
          "channel": 9
        },
        {
          "note": 42,
          "start": 243.14063,
          "duration": 0.074735,
          "velocity": 0.417323,
          "start_tick": 367629,
          "duration_ticks": 113,
          "channel": 9
        },
        {
          "note": 49,
          "start": 243.14063,
          "duration": 0.079365,
          "velocity": 0.629921,
          "start_tick": 367629,
          "duration_ticks": 120,
          "channel": 9
        },
        {
          "note": 42,
          "start": 243.29936,
          "duration": 0.087963,
          "velocity": 0.354331,
          "start_tick": 367869,
          "duration_ticks": 133,
          "channel": 9
        },
        {
          "note": 42,
          "start": 243.45809,
          "duration": 0.082672,
          "velocity": 0.913386,
          "start_tick": 368109,
          "duration_ticks": 125,
          "channel": 9
        },
        {
          "note": 42,
          "start": 243.617481,
          "duration": 0.08664,
          "velocity": 0.614173,
          "start_tick": 368350,
          "duration_ticks": 131,
          "channel": 9
        },
        {
          "note": 36,
          "start": 243.776211,
          "duration": 0.105159,
          "velocity": 1.0,
          "start_tick": 368590,
          "duration_ticks": 159,
          "channel": 9
        },
        {
          "note": 42,
          "start": 243.776211,
          "duration": 0.075397,
          "velocity": 0.503937,
          "start_tick": 368590,
          "duration_ticks": 114,
          "channel": 9
        },
        {
          "note": 42,
          "start": 243.935603,
          "duration": 0.066799,
          "velocity": 0.401575,
          "start_tick": 368831,
          "duration_ticks": 101,
          "channel": 9
        },
        {
          "note": 42,
          "start": 244.094333,
          "duration": 0.084656,
          "velocity": 0.88189,
          "start_tick": 369071,
          "duration_ticks": 128,
          "channel": 9
        },
        {
          "note": 42,
          "start": 244.253724,
          "duration": 0.083995,
          "velocity": 0.480315,
          "start_tick": 369312,
          "duration_ticks": 127,
          "channel": 9
        },
        {
          "note": 36,
          "start": 244.412454,
          "duration": 0.106481,
          "velocity": 1.0,
          "start_tick": 369552,
          "duration_ticks": 161,
          "channel": 9
        },
        {
          "note": 40,
          "start": 244.412454,
          "duration": 0.079365,
          "velocity": 1.0,
          "start_tick": 369552,
          "duration_ticks": 120,
          "channel": 9
        },
        {
          "note": 42,
          "start": 244.412454,
          "duration": 0.078704,
          "velocity": 0.535433,
          "start_tick": 369552,
          "duration_ticks": 119,
          "channel": 9
        },
        {
          "note": 49,
          "start": 244.412454,
          "duration": 0.079365,
          "velocity": 0.629921,
          "start_tick": 369552,
          "duration_ticks": 120,
          "channel": 9
        },
        {
          "note": 42,
          "start": 244.571845,
          "duration": 0.064815,
          "velocity": 0.307087,
          "start_tick": 369793,
          "duration_ticks": 98,
          "channel": 9
        },
        {
          "note": 42,
          "start": 244.730575,
          "duration": 0.085317,
          "velocity": 0.929134,
          "start_tick": 370033,
          "duration_ticks": 129,
          "channel": 9
        },
        {
          "note": 42,
          "start": 244.889305,
          "duration": 0.087301,
          "velocity": 0.535433,
          "start_tick": 370273,
          "duration_ticks": 132,
          "channel": 9
        },
        {
          "note": 36,
          "start": 245.048697,
          "duration": 0.104497,
          "velocity": 1.0,
          "start_tick": 370514,
          "duration_ticks": 158,
          "channel": 9
        },
        {
          "note": 42,
          "start": 245.048697,
          "duration": 0.078042,
          "velocity": 0.464567,
          "start_tick": 370514,
          "duration_ticks": 118,
          "channel": 9
        },
        {
          "note": 42,
          "start": 245.206765,
          "duration": 0.083995,
          "velocity": 0.385827,
          "start_tick": 370753,
          "duration_ticks": 127,
          "channel": 9
        },
        {
          "note": 42,
          "start": 245.365495,
          "duration": 0.08201,
          "velocity": 0.897638,
          "start_tick": 370993,
          "duration_ticks": 124,
          "channel": 9
        },
        {
          "note": 42,
          "start": 245.524225,
          "duration": 0.082011,
          "velocity": 0.354331,
          "start_tick": 371233,
          "duration_ticks": 124,
          "channel": 9
        },
        {
          "note": 36,
          "start": 245.682294,
          "duration": 0.095238,
          "velocity": 1.0,
          "start_tick": 371472,
          "duration_ticks": 144,
          "channel": 9
        },
        {
          "note": 40,
          "start": 245.682294,
          "duration": 0.079365,
          "velocity": 1.0,
          "start_tick": 371472,
          "duration_ticks": 120,
          "channel": 9
        },
        {
          "note": 42,
          "start": 245.682294,
          "duration": 0.077381,
          "velocity": 0.527559,
          "start_tick": 371472,
          "duration_ticks": 117,
          "channel": 9
        },
        {
          "note": 49,
          "start": 245.682294,
          "duration": 0.079365,
          "velocity": 0.629921,
          "start_tick": 371472,
          "duration_ticks": 120,
          "channel": 9
        },
        {
          "note": 42,
          "start": 245.841024,
          "duration": 0.076058,
          "velocity": 0.291339,
          "start_tick": 371712,
          "duration_ticks": 115,
          "channel": 9
        },
        {
          "note": 42,
          "start": 245.999754,
          "duration": 0.08201,
          "velocity": 0.897638,
          "start_tick": 371952,
          "duration_ticks": 124,
          "channel": 9
        },
        {
          "note": 42,
          "start": 246.158484,
          "duration": 0.072751,
          "velocity": 0.637795,
          "start_tick": 372192,
          "duration_ticks": 110,
          "channel": 9
        },
        {
          "note": 36,
          "start": 246.316553,
          "duration": 0.107804,
          "velocity": 1.0,
          "start_tick": 372431,
          "duration_ticks": 163,
          "channel": 9
        },
        {
          "note": 42,
          "start": 246.316553,
          "duration": 0.071428,
          "velocity": 0.511811,
          "start_tick": 372431,
          "duration_ticks": 108,
          "channel": 9
        },
        {
          "note": 42,
          "start": 246.475283,
          "duration": 0.076058,
          "velocity": 0.582677,
          "start_tick": 372671,
          "duration_ticks": 115,
          "channel": 9
        },
        {
          "note": 42,
          "start": 246.634013,
          "duration": 0.080688,
          "velocity": 0.929134,
          "start_tick": 372911,
          "duration_ticks": 122,
          "channel": 9
        },
        {
          "note": 42,
          "start": 246.792081,
          "duration": 0.074074,
          "velocity": 0.598425,
          "start_tick": 373150,
          "duration_ticks": 112,
          "channel": 9
        },
        {
          "note": 36,
          "start": 246.950811,
          "duration": 0.102513,
          "velocity": 1.0,
          "start_tick": 373390,
          "duration_ticks": 155,
          "channel": 9
        },
        {
          "note": 40,
          "start": 246.950811,
          "duration": 0.079365,
          "velocity": 1.0,
          "start_tick": 373390,
          "duration_ticks": 120,
          "channel": 9
        },
        {
          "note": 42,
          "start": 246.950811,
          "duration": 0.085979,
          "velocity": 0.464567,
          "start_tick": 373390,
          "duration_ticks": 130,
          "channel": 9
        },
        {
          "note": 49,
          "start": 246.950811,
          "duration": 0.079365,
          "velocity": 0.629921,
          "start_tick": 373390,
          "duration_ticks": 120,
          "channel": 9
        },
        {
          "note": 42,
          "start": 247.109541,
          "duration": 0.06746,
          "velocity": 0.440945,
          "start_tick": 373630,
          "duration_ticks": 102,
          "channel": 9
        },
        {
          "note": 42,
          "start": 247.268271,
          "duration": 0.080026,
          "velocity": 0.88189,
          "start_tick": 373870,
          "duration_ticks": 121,
          "channel": 9
        },
        {
          "note": 42,
          "start": 247.42634,
          "duration": 0.088624,
          "velocity": 0.692913,
          "start_tick": 374109,
          "duration_ticks": 134,
          "channel": 9
        },
        {
          "note": 36,
          "start": 247.58507,
          "duration": 0.106481,
          "velocity": 1.0,
          "start_tick": 374349,
          "duration_ticks": 161,
          "channel": 9
        },
        {
          "note": 42,
          "start": 247.58507,
          "duration": 0.078704,
          "velocity": 0.440945,
          "start_tick": 374349,
          "duration_ticks": 119,
          "channel": 9
        },
        {
          "note": 42,
          "start": 247.7438,
          "duration": 0.080026,
          "velocity": 0.440945,
          "start_tick": 374589,
          "duration_ticks": 121,
          "channel": 9
        },
        {
          "note": 42,
          "start": 247.90253,
          "duration": 0.08201,
          "velocity": 0.88189,
          "start_tick": 374829,
          "duration_ticks": 124,
          "channel": 9
        },
        {
          "note": 42,
          "start": 248.060598,
          "duration": 0.089947,
          "velocity": 0.669291,
          "start_tick": 375068,
          "duration_ticks": 136,
          "channel": 9
        },
        {
          "note": 36,
          "start": 248.219328,
          "duration": 0.106481,
          "velocity": 1.0,
          "start_tick": 375308,
          "duration_ticks": 161,
          "channel": 9
        },
        {
          "note": 40,
          "start": 248.219328,
          "duration": 0.079365,
          "velocity": 1.0,
          "start_tick": 375308,
          "duration_ticks": 120,
          "channel": 9
        },
        {
          "note": 42,
          "start": 248.219328,
          "duration": 0.074735,
          "velocity": 0.417323,
          "start_tick": 375308,
          "duration_ticks": 113,
          "channel": 9
        },
        {
          "note": 49,
          "start": 248.219328,
          "duration": 0.079365,
          "velocity": 0.629921,
          "start_tick": 375308,
          "duration_ticks": 120,
          "channel": 9
        },
        {
          "note": 42,
          "start": 248.378059,
          "duration": 0.087963,
          "velocity": 0.354331,
          "start_tick": 375548,
          "duration_ticks": 133,
          "channel": 9
        },
        {
          "note": 42,
          "start": 248.536127,
          "duration": 0.08201,
          "velocity": 0.913386,
          "start_tick": 375787,
          "duration_ticks": 124,
          "channel": 9
        },
        {
          "note": 42,
          "start": 248.694857,
          "duration": 0.08664,
          "velocity": 0.614173,
          "start_tick": 376027,
          "duration_ticks": 131,
          "channel": 9
        },
        {
          "note": 36,
          "start": 248.853587,
          "duration": 0.104497,
          "velocity": 1.0,
          "start_tick": 376267,
          "duration_ticks": 158,
          "channel": 9
        },
        {
          "note": 42,
          "start": 248.853587,
          "duration": 0.074735,
          "velocity": 0.503937,
          "start_tick": 376267,
          "duration_ticks": 113,
          "channel": 9
        },
        {
          "note": 42,
          "start": 249.012317,
          "duration": 0.066137,
          "velocity": 0.401575,
          "start_tick": 376507,
          "duration_ticks": 100,
          "channel": 9
        },
        {
          "note": 42,
          "start": 249.170386,
          "duration": 0.083995,
          "velocity": 0.88189,
          "start_tick": 376746,
          "duration_ticks": 127,
          "channel": 9
        },
        {
          "note": 42,
          "start": 249.329116,
          "duration": 0.083995,
          "velocity": 0.480315,
          "start_tick": 376986,
          "duration_ticks": 127,
          "channel": 9
        },
        {
          "note": 36,
          "start": 249.487846,
          "duration": 0.106481,
          "velocity": 1.0,
          "start_tick": 377226,
          "duration_ticks": 161,
          "channel": 9
        },
        {
          "note": 40,
          "start": 249.487846,
          "duration": 0.079365,
          "velocity": 1.0,
          "start_tick": 377226,
          "duration_ticks": 120,
          "channel": 9
        },
        {
          "note": 42,
          "start": 249.487846,
          "duration": 0.078704,
          "velocity": 0.535433,
          "start_tick": 377226,
          "duration_ticks": 119,
          "channel": 9
        },
        {
          "note": 49,
          "start": 249.487846,
          "duration": 0.079365,
          "velocity": 0.629921,
          "start_tick": 377226,
          "duration_ticks": 120,
          "channel": 9
        },
        {
          "note": 42,
          "start": 249.645914,
          "duration": 0.064815,
          "velocity": 0.307087,
          "start_tick": 377465,
          "duration_ticks": 98,
          "channel": 9
        },
        {
          "note": 42,
          "start": 249.804644,
          "duration": 0.085317,
          "velocity": 0.929134,
          "start_tick": 377705,
          "duration_ticks": 129,
          "channel": 9
        },
        {
          "note": 42,
          "start": 249.963374,
          "duration": 0.08664,
          "velocity": 0.535433,
          "start_tick": 377945,
          "duration_ticks": 131,
          "channel": 9
        },
        {
          "note": 36,
          "start": 250.122104,
          "duration": 0.104497,
          "velocity": 1.0,
          "start_tick": 378185,
          "duration_ticks": 158,
          "channel": 9
        },
        {
          "note": 42,
          "start": 250.122104,
          "duration": 0.078042,
          "velocity": 0.464567,
          "start_tick": 378185,
          "duration_ticks": 118,
          "channel": 9
        },
        {
          "note": 42,
          "start": 250.280173,
          "duration": 0.083995,
          "velocity": 0.385827,
          "start_tick": 378424,
          "duration_ticks": 127,
          "channel": 9
        },
        {
          "note": 42,
          "start": 250.438903,
          "duration": 0.08201,
          "velocity": 0.897638,
          "start_tick": 378664,
          "duration_ticks": 124,
          "channel": 9
        },
        {
          "note": 42,
          "start": 250.597633,
          "duration": 0.08201,
          "velocity": 0.354331,
          "start_tick": 378904,
          "duration_ticks": 124,
          "channel": 9
        },
        {
          "note": 36,
          "start": 250.755702,
          "duration": 0.095238,
          "velocity": 1.0,
          "start_tick": 379143,
          "duration_ticks": 144,
          "channel": 9
        },
        {
          "note": 40,
          "start": 250.755702,
          "duration": 0.079365,
          "velocity": 1.0,
          "start_tick": 379143,
          "duration_ticks": 120,
          "channel": 9
        },
        {
          "note": 42,
          "start": 250.755702,
          "duration": 0.077381,
          "velocity": 0.527559,
          "start_tick": 379143,
          "duration_ticks": 117,
          "channel": 9
        },
        {
          "note": 49,
          "start": 250.755702,
          "duration": 0.079365,
          "velocity": 0.629921,
          "start_tick": 379143,
          "duration_ticks": 120,
          "channel": 9
        },
        {
          "note": 42,
          "start": 250.914432,
          "duration": 0.076058,
          "velocity": 0.291339,
          "start_tick": 379383,
          "duration_ticks": 115,
          "channel": 9
        },
        {
          "note": 42,
          "start": 251.073162,
          "duration": 0.08201,
          "velocity": 0.897638,
          "start_tick": 379623,
          "duration_ticks": 124,
          "channel": 9
        },
        {
          "note": 42,
          "start": 251.231892,
          "duration": 0.072751,
          "velocity": 0.637795,
          "start_tick": 379863,
          "duration_ticks": 110,
          "channel": 9
        },
        {
          "note": 36,
          "start": 251.38996,
          "duration": 0.107804,
          "velocity": 1.0,
          "start_tick": 380102,
          "duration_ticks": 163,
          "channel": 9
        },
        {
          "note": 42,
          "start": 251.38996,
          "duration": 0.071428,
          "velocity": 0.511811,
          "start_tick": 380102,
          "duration_ticks": 108,
          "channel": 9
        },
        {
          "note": 42,
          "start": 251.54869,
          "duration": 0.076058,
          "velocity": 0.582677,
          "start_tick": 380342,
          "duration_ticks": 115,
          "channel": 9
        },
        {
          "note": 42,
          "start": 251.70742,
          "duration": 0.080688,
          "velocity": 0.929134,
          "start_tick": 380582,
          "duration_ticks": 122,
          "channel": 9
        },
        {
          "note": 42,
          "start": 251.865489,
          "duration": 0.074074,
          "velocity": 0.598425,
          "start_tick": 380821,
          "duration_ticks": 112,
          "channel": 9
        },
        {
          "note": 36,
          "start": 252.024219,
          "duration": 0.102513,
          "velocity": 1.0,
          "start_tick": 381061,
          "duration_ticks": 155,
          "channel": 9
        },
        {
          "note": 40,
          "start": 252.024219,
          "duration": 0.079365,
          "velocity": 1.0,
          "start_tick": 381061,
          "duration_ticks": 120,
          "channel": 9
        },
        {
          "note": 42,
          "start": 252.024219,
          "duration": 0.085979,
          "velocity": 0.464567,
          "start_tick": 381061,
          "duration_ticks": 130,
          "channel": 9
        },
        {
          "note": 49,
          "start": 252.024219,
          "duration": 0.079365,
          "velocity": 0.629921,
          "start_tick": 381061,
          "duration_ticks": 120,
          "channel": 9
        },
        {
          "note": 42,
          "start": 252.182949,
          "duration": 0.06746,
          "velocity": 0.440945,
          "start_tick": 381301,
          "duration_ticks": 102,
          "channel": 9
        },
        {
          "note": 42,
          "start": 252.341679,
          "duration": 0.080688,
          "velocity": 0.88189,
          "start_tick": 381541,
          "duration_ticks": 122,
          "channel": 9
        },
        {
          "note": 42,
          "start": 252.499748,
          "duration": 0.088624,
          "velocity": 0.692913,
          "start_tick": 381780,
          "duration_ticks": 134,
          "channel": 9
        },
        {
          "note": 36,
          "start": 252.658478,
          "duration": 0.106481,
          "velocity": 1.0,
          "start_tick": 382020,
          "duration_ticks": 161,
          "channel": 9
        },
        {
          "note": 42,
          "start": 252.658478,
          "duration": 0.078704,
          "velocity": 0.440945,
          "start_tick": 382020,
          "duration_ticks": 119,
          "channel": 9
        },
        {
          "note": 42,
          "start": 252.817207,
          "duration": 0.080026,
          "velocity": 0.440945,
          "start_tick": 382260,
          "duration_ticks": 121,
          "channel": 9
        },
        {
          "note": 42,
          "start": 252.975937,
          "duration": 0.082011,
          "velocity": 0.88189,
          "start_tick": 382500,
          "duration_ticks": 124,
          "channel": 9
        },
        {
          "note": 42,
          "start": 253.134006,
          "duration": 0.089947,
          "velocity": 0.669291,
          "start_tick": 382739,
          "duration_ticks": 136,
          "channel": 9
        },
        {
          "note": 36,
          "start": 253.292736,
          "duration": 0.106481,
          "velocity": 1.0,
          "start_tick": 382979,
          "duration_ticks": 161,
          "channel": 9
        },
        {
          "note": 40,
          "start": 253.292736,
          "duration": 0.079365,
          "velocity": 1.0,
          "start_tick": 382979,
          "duration_ticks": 120,
          "channel": 9
        },
        {
          "note": 42,
          "start": 253.292736,
          "duration": 0.074735,
          "velocity": 0.417323,
          "start_tick": 382979,
          "duration_ticks": 113,
          "channel": 9
        },
        {
          "note": 49,
          "start": 253.292736,
          "duration": 0.079365,
          "velocity": 0.629921,
          "start_tick": 382979,
          "duration_ticks": 120,
          "channel": 9
        },
        {
          "note": 42,
          "start": 253.451466,
          "duration": 0.087963,
          "velocity": 0.354331,
          "start_tick": 383219,
          "duration_ticks": 133,
          "channel": 9
        },
        {
          "note": 42,
          "start": 253.609535,
          "duration": 0.08201,
          "velocity": 0.913386,
          "start_tick": 383458,
          "duration_ticks": 124,
          "channel": 9
        },
        {
          "note": 42,
          "start": 253.768265,
          "duration": 0.08664,
          "velocity": 0.614173,
          "start_tick": 383698,
          "duration_ticks": 131,
          "channel": 9
        },
        {
          "note": 36,
          "start": 253.926995,
          "duration": 0.104497,
          "velocity": 1.0,
          "start_tick": 383938,
          "duration_ticks": 158,
          "channel": 9
        },
        {
          "note": 42,
          "start": 253.926995,
          "duration": 0.074735,
          "velocity": 0.503937,
          "start_tick": 383938,
          "duration_ticks": 113,
          "channel": 9
        },
        {
          "note": 42,
          "start": 254.085725,
          "duration": 0.066137,
          "velocity": 0.401575,
          "start_tick": 384178,
          "duration_ticks": 100,
          "channel": 9
        },
        {
          "note": 42,
          "start": 254.243793,
          "duration": 0.083995,
          "velocity": 0.88189,
          "start_tick": 384417,
          "duration_ticks": 127,
          "channel": 9
        },
        {
          "note": 42,
          "start": 254.402523,
          "duration": 0.083995,
          "velocity": 0.480315,
          "start_tick": 384657,
          "duration_ticks": 127,
          "channel": 9
        },
        {
          "note": 36,
          "start": 254.561253,
          "duration": 0.106481,
          "velocity": 1.0,
          "start_tick": 384897,
          "duration_ticks": 161,
          "channel": 9
        },
        {
          "note": 40,
          "start": 254.561253,
          "duration": 0.079365,
          "velocity": 1.0,
          "start_tick": 384897,
          "duration_ticks": 120,
          "channel": 9
        },
        {
          "note": 42,
          "start": 254.561253,
          "duration": 0.078704,
          "velocity": 0.535433,
          "start_tick": 384897,
          "duration_ticks": 119,
          "channel": 9
        },
        {
          "note": 49,
          "start": 254.561253,
          "duration": 0.079365,
          "velocity": 0.629921,
          "start_tick": 384897,
          "duration_ticks": 120,
          "channel": 9
        },
        {
          "note": 42,
          "start": 254.719322,
          "duration": 0.064815,
          "velocity": 0.307087,
          "start_tick": 385136,
          "duration_ticks": 98,
          "channel": 9
        },
        {
          "note": 42,
          "start": 254.878052,
          "duration": 0.085317,
          "velocity": 0.929134,
          "start_tick": 385376,
          "duration_ticks": 129,
          "channel": 9
        },
        {
          "note": 42,
          "start": 255.036782,
          "duration": 0.08664,
          "velocity": 0.535433,
          "start_tick": 385616,
          "duration_ticks": 131,
          "channel": 9
        },
        {
          "note": 36,
          "start": 255.195512,
          "duration": 0.104497,
          "velocity": 1.0,
          "start_tick": 385856,
          "duration_ticks": 158,
          "channel": 9
        },
        {
          "note": 42,
          "start": 255.195512,
          "duration": 0.078042,
          "velocity": 0.464567,
          "start_tick": 385856,
          "duration_ticks": 118,
          "channel": 9
        },
        {
          "note": 42,
          "start": 255.353581,
          "duration": 0.083995,
          "velocity": 0.385827,
          "start_tick": 386095,
          "duration_ticks": 127,
          "channel": 9
        },
        {
          "note": 42,
          "start": 255.512311,
          "duration": 0.08201,
          "velocity": 0.897638,
          "start_tick": 386335,
          "duration_ticks": 124,
          "channel": 9
        },
        {
          "note": 42,
          "start": 255.671041,
          "duration": 0.082011,
          "velocity": 0.354331,
          "start_tick": 386575,
          "duration_ticks": 124,
          "channel": 9
        },
        {
          "note": 36,
          "start": 255.829109,
          "duration": 0.095238,
          "velocity": 1.0,
          "start_tick": 386814,
          "duration_ticks": 144,
          "channel": 9
        },
        {
          "note": 40,
          "start": 255.829109,
          "duration": 0.079365,
          "velocity": 1.0,
          "start_tick": 386814,
          "duration_ticks": 120,
          "channel": 9
        },
        {
          "note": 42,
          "start": 255.829109,
          "duration": 0.077381,
          "velocity": 0.527559,
          "start_tick": 386814,
          "duration_ticks": 117,
          "channel": 9
        },
        {
          "note": 49,
          "start": 255.829109,
          "duration": 0.079365,
          "velocity": 0.629921,
          "start_tick": 386814,
          "duration_ticks": 120,
          "channel": 9
        },
        {
          "note": 42,
          "start": 255.987839,
          "duration": 0.076058,
          "velocity": 0.291339,
          "start_tick": 387054,
          "duration_ticks": 115,
          "channel": 9
        },
        {
          "note": 42,
          "start": 256.146569,
          "duration": 0.08201,
          "velocity": 0.897638,
          "start_tick": 387294,
          "duration_ticks": 124,
          "channel": 9
        },
        {
          "note": 42,
          "start": 256.305299,
          "duration": 0.073413,
          "velocity": 0.637795,
          "start_tick": 387534,
          "duration_ticks": 111,
          "channel": 9
        },
        {
          "note": 36,
          "start": 256.463368,
          "duration": 0.107804,
          "velocity": 1.0,
          "start_tick": 387773,
          "duration_ticks": 163,
          "channel": 9
        },
        {
          "note": 42,
          "start": 256.463368,
          "duration": 0.071428,
          "velocity": 0.511811,
          "start_tick": 387773,
          "duration_ticks": 108,
          "channel": 9
        },
        {
          "note": 42,
          "start": 256.622098,
          "duration": 0.076058,
          "velocity": 0.582677,
          "start_tick": 388013,
          "duration_ticks": 115,
          "channel": 9
        },
        {
          "note": 42,
          "start": 256.780828,
          "duration": 0.080688,
          "velocity": 0.929134,
          "start_tick": 388253,
          "duration_ticks": 122,
          "channel": 9
        },
        {
          "note": 42,
          "start": 256.939558,
          "duration": 0.073413,
          "velocity": 0.598425,
          "start_tick": 388493,
          "duration_ticks": 111,
          "channel": 9
        },
        {
          "note": 36,
          "start": 257.097626,
          "duration": 0.102513,
          "velocity": 1.0,
          "start_tick": 388732,
          "duration_ticks": 155,
          "channel": 9
        },
        {
          "note": 40,
          "start": 257.097626,
          "duration": 0.079365,
          "velocity": 1.0,
          "start_tick": 388732,
          "duration_ticks": 120,
          "channel": 9
        },
        {
          "note": 42,
          "start": 257.097626,
          "duration": 0.085979,
          "velocity": 0.464567,
          "start_tick": 388732,
          "duration_ticks": 130,
          "channel": 9
        },
        {
          "note": 49,
          "start": 257.097626,
          "duration": 0.079365,
          "velocity": 0.629921,
          "start_tick": 388732,
          "duration_ticks": 120,
          "channel": 9
        },
        {
          "note": 42,
          "start": 257.256356,
          "duration": 0.06746,
          "velocity": 0.440945,
          "start_tick": 388972,
          "duration_ticks": 102,
          "channel": 9
        },
        {
          "note": 42,
          "start": 257.415086,
          "duration": 0.080688,
          "velocity": 0.88189,
          "start_tick": 389212,
          "duration_ticks": 122,
          "channel": 9
        },
        {
          "note": 42,
          "start": 257.573155,
          "duration": 0.088624,
          "velocity": 0.692913,
          "start_tick": 389451,
          "duration_ticks": 134,
          "channel": 9
        },
        {
          "note": 36,
          "start": 257.731885,
          "duration": 0.106481,
          "velocity": 1.0,
          "start_tick": 389691,
          "duration_ticks": 161,
          "channel": 9
        },
        {
          "note": 42,
          "start": 257.731885,
          "duration": 0.078704,
          "velocity": 0.440945,
          "start_tick": 389691,
          "duration_ticks": 119,
          "channel": 9
        },
        {
          "note": 42,
          "start": 257.890615,
          "duration": 0.080026,
          "velocity": 0.440945,
          "start_tick": 389931,
          "duration_ticks": 121,
          "channel": 9
        },
        {
          "note": 42,
          "start": 258.049345,
          "duration": 0.082011,
          "velocity": 0.88189,
          "start_tick": 390171,
          "duration_ticks": 124,
          "channel": 9
        },
        {
          "note": 42,
          "start": 258.207414,
          "duration": 0.089947,
          "velocity": 0.669291,
          "start_tick": 390410,
          "duration_ticks": 136,
          "channel": 9
        },
        {
          "note": 36,
          "start": 258.366144,
          "duration": 0.106481,
          "velocity": 1.0,
          "start_tick": 390650,
          "duration_ticks": 161,
          "channel": 9
        },
        {
          "note": 40,
          "start": 258.366144,
          "duration": 0.079365,
          "velocity": 1.0,
          "start_tick": 390650,
          "duration_ticks": 120,
          "channel": 9
        },
        {
          "note": 42,
          "start": 258.366144,
          "duration": 0.074735,
          "velocity": 0.417323,
          "start_tick": 390650,
          "duration_ticks": 113,
          "channel": 9
        },
        {
          "note": 49,
          "start": 258.366144,
          "duration": 0.079365,
          "velocity": 0.629921,
          "start_tick": 390650,
          "duration_ticks": 120,
          "channel": 9
        },
        {
          "note": 42,
          "start": 258.524874,
          "duration": 0.087963,
          "velocity": 0.354331,
          "start_tick": 390890,
          "duration_ticks": 133,
          "channel": 9
        },
        {
          "note": 42,
          "start": 258.682942,
          "duration": 0.082011,
          "velocity": 0.913386,
          "start_tick": 391129,
          "duration_ticks": 124,
          "channel": 9
        },
        {
          "note": 42,
          "start": 258.841672,
          "duration": 0.08664,
          "velocity": 0.614173,
          "start_tick": 391369,
          "duration_ticks": 131,
          "channel": 9
        },
        {
          "note": 36,
          "start": 259.000402,
          "duration": 0.104497,
          "velocity": 1.0,
          "start_tick": 391609,
          "duration_ticks": 158,
          "channel": 9
        },
        {
          "note": 42,
          "start": 259.000402,
          "duration": 0.074735,
          "velocity": 0.503937,
          "start_tick": 391609,
          "duration_ticks": 113,
          "channel": 9
        },
        {
          "note": 42,
          "start": 259.159132,
          "duration": 0.066137,
          "velocity": 0.401575,
          "start_tick": 391849,
          "duration_ticks": 100,
          "channel": 9
        },
        {
          "note": 42,
          "start": 259.317201,
          "duration": 0.083995,
          "velocity": 0.88189,
          "start_tick": 392088,
          "duration_ticks": 127,
          "channel": 9
        },
        {
          "note": 42,
          "start": 259.475931,
          "duration": 0.083995,
          "velocity": 0.480315,
          "start_tick": 392328,
          "duration_ticks": 127,
          "channel": 9
        },
        {
          "note": 36,
          "start": 259.634661,
          "duration": 0.106481,
          "velocity": 1.0,
          "start_tick": 392568,
          "duration_ticks": 161,
          "channel": 9
        },
        {
          "note": 40,
          "start": 259.634661,
          "duration": 0.079365,
          "velocity": 1.0,
          "start_tick": 392568,
          "duration_ticks": 120,
          "channel": 9
        },
        {
          "note": 42,
          "start": 259.634661,
          "duration": 0.078704,
          "velocity": 0.535433,
          "start_tick": 392568,
          "duration_ticks": 119,
          "channel": 9
        },
        {
          "note": 49,
          "start": 259.634661,
          "duration": 0.079365,
          "velocity": 0.629921,
          "start_tick": 392568,
          "duration_ticks": 120,
          "channel": 9
        },
        {
          "note": 42,
          "start": 259.79273,
          "duration": 0.064815,
          "velocity": 0.307087,
          "start_tick": 392807,
          "duration_ticks": 98,
          "channel": 9
        },
        {
          "note": 42,
          "start": 259.95146,
          "duration": 0.085317,
          "velocity": 0.929134,
          "start_tick": 393047,
          "duration_ticks": 129,
          "channel": 9
        },
        {
          "note": 42,
          "start": 260.11019,
          "duration": 0.08664,
          "velocity": 0.535433,
          "start_tick": 393287,
          "duration_ticks": 131,
          "channel": 9
        },
        {
          "note": 36,
          "start": 260.26892,
          "duration": 0.104497,
          "velocity": 1.0,
          "start_tick": 393527,
          "duration_ticks": 158,
          "channel": 9
        },
        {
          "note": 42,
          "start": 260.26892,
          "duration": 0.078042,
          "velocity": 0.464567,
          "start_tick": 393527,
          "duration_ticks": 118,
          "channel": 9
        },
        {
          "note": 42,
          "start": 260.426988,
          "duration": 0.083995,
          "velocity": 0.385827,
          "start_tick": 393766,
          "duration_ticks": 127,
          "channel": 9
        },
        {
          "note": 42,
          "start": 260.585718,
          "duration": 0.08201,
          "velocity": 0.897638,
          "start_tick": 394006,
          "duration_ticks": 124,
          "channel": 9
        },
        {
          "note": 42,
          "start": 260.744448,
          "duration": 0.08201,
          "velocity": 0.354331,
          "start_tick": 394246,
          "duration_ticks": 124,
          "channel": 9
        },
        {
          "note": 36,
          "start": 260.902517,
          "duration": 0.095238,
          "velocity": 1.0,
          "start_tick": 394485,
          "duration_ticks": 144,
          "channel": 9
        },
        {
          "note": 40,
          "start": 260.902517,
          "duration": 0.079365,
          "velocity": 1.0,
          "start_tick": 394485,
          "duration_ticks": 120,
          "channel": 9
        },
        {
          "note": 42,
          "start": 260.902517,
          "duration": 0.077381,
          "velocity": 0.527559,
          "start_tick": 394485,
          "duration_ticks": 117,
          "channel": 9
        },
        {
          "note": 49,
          "start": 260.902517,
          "duration": 0.079365,
          "velocity": 0.629921,
          "start_tick": 394485,
          "duration_ticks": 120,
          "channel": 9
        },
        {
          "note": 42,
          "start": 261.061247,
          "duration": 0.076058,
          "velocity": 0.291339,
          "start_tick": 394725,
          "duration_ticks": 115,
          "channel": 9
        },
        {
          "note": 42,
          "start": 261.219977,
          "duration": 0.082011,
          "velocity": 0.897638,
          "start_tick": 394965,
          "duration_ticks": 124,
          "channel": 9
        },
        {
          "note": 42,
          "start": 261.378707,
          "duration": 0.073413,
          "velocity": 0.637795,
          "start_tick": 395205,
          "duration_ticks": 111,
          "channel": 9
        },
        {
          "note": 36,
          "start": 261.536775,
          "duration": 0.107804,
          "velocity": 1.0,
          "start_tick": 395444,
          "duration_ticks": 163,
          "channel": 9
        },
        {
          "note": 42,
          "start": 261.536775,
          "duration": 0.071429,
          "velocity": 0.511811,
          "start_tick": 395444,
          "duration_ticks": 108,
          "channel": 9
        },
        {
          "note": 42,
          "start": 261.695506,
          "duration": 0.076058,
          "velocity": 0.582677,
          "start_tick": 395684,
          "duration_ticks": 115,
          "channel": 9
        },
        {
          "note": 42,
          "start": 261.854236,
          "duration": 0.080688,
          "velocity": 0.929134,
          "start_tick": 395924,
          "duration_ticks": 122,
          "channel": 9
        },
        {
          "note": 42,
          "start": 262.012966,
          "duration": 0.073413,
          "velocity": 0.598425,
          "start_tick": 396164,
          "duration_ticks": 111,
          "channel": 9
        },
        {
          "note": 36,
          "start": 262.171034,
          "duration": 0.102513,
          "velocity": 1.0,
          "start_tick": 396403,
          "duration_ticks": 155,
          "channel": 9
        },
        {
          "note": 40,
          "start": 262.171034,
          "duration": 0.079365,
          "velocity": 1.0,
          "start_tick": 396403,
          "duration_ticks": 120,
          "channel": 9
        },
        {
          "note": 42,
          "start": 262.171034,
          "duration": 0.085979,
          "velocity": 0.464567,
          "start_tick": 396403,
          "duration_ticks": 130,
          "channel": 9
        },
        {
          "note": 49,
          "start": 262.171034,
          "duration": 0.079365,
          "velocity": 0.629921,
          "start_tick": 396403,
          "duration_ticks": 120,
          "channel": 9
        },
        {
          "note": 42,
          "start": 262.329764,
          "duration": 0.06746,
          "velocity": 0.440945,
          "start_tick": 396643,
          "duration_ticks": 102,
          "channel": 9
        },
        {
          "note": 42,
          "start": 262.488494,
          "duration": 0.080688,
          "velocity": 0.88189,
          "start_tick": 396883,
          "duration_ticks": 122,
          "channel": 9
        },
        {
          "note": 42,
          "start": 262.646563,
          "duration": 0.088624,
          "velocity": 0.692913,
          "start_tick": 397122,
          "duration_ticks": 134,
          "channel": 9
        },
        {
          "note": 36,
          "start": 262.805293,
          "duration": 0.106481,
          "velocity": 1.0,
          "start_tick": 397362,
          "duration_ticks": 161,
          "channel": 9
        },
        {
          "note": 42,
          "start": 262.805293,
          "duration": 0.078704,
          "velocity": 0.440945,
          "start_tick": 397362,
          "duration_ticks": 119,
          "channel": 9
        },
        {
          "note": 42,
          "start": 262.964023,
          "duration": 0.080026,
          "velocity": 0.440945,
          "start_tick": 397602,
          "duration_ticks": 121,
          "channel": 9
        },
        {
          "note": 42,
          "start": 263.122753,
          "duration": 0.08201,
          "velocity": 0.88189,
          "start_tick": 397842,
          "duration_ticks": 124,
          "channel": 9
        },
        {
          "note": 42,
          "start": 263.280821,
          "duration": 0.089947,
          "velocity": 0.669291,
          "start_tick": 398081,
          "duration_ticks": 136,
          "channel": 9
        },
        {
          "note": 36,
          "start": 263.439551,
          "duration": 0.106481,
          "velocity": 1.0,
          "start_tick": 398321,
          "duration_ticks": 161,
          "channel": 9
        },
        {
          "note": 40,
          "start": 263.439551,
          "duration": 0.079365,
          "velocity": 1.0,
          "start_tick": 398321,
          "duration_ticks": 120,
          "channel": 9
        },
        {
          "note": 42,
          "start": 263.439551,
          "duration": 0.074735,
          "velocity": 0.417323,
          "start_tick": 398321,
          "duration_ticks": 113,
          "channel": 9
        },
        {
          "note": 49,
          "start": 263.439551,
          "duration": 0.079365,
          "velocity": 0.629921,
          "start_tick": 398321,
          "duration_ticks": 120,
          "channel": 9
        },
        {
          "note": 42,
          "start": 263.598281,
          "duration": 0.087963,
          "velocity": 0.354331,
          "start_tick": 398561,
          "duration_ticks": 133,
          "channel": 9
        },
        {
          "note": 42,
          "start": 263.75635,
          "duration": 0.082011,
          "velocity": 0.913386,
          "start_tick": 398800,
          "duration_ticks": 124,
          "channel": 9
        },
        {
          "note": 42,
          "start": 263.91508,
          "duration": 0.08664,
          "velocity": 0.614173,
          "start_tick": 399040,
          "duration_ticks": 131,
          "channel": 9
        },
        {
          "note": 36,
          "start": 264.07381,
          "duration": 0.104497,
          "velocity": 1.0,
          "start_tick": 399280,
          "duration_ticks": 158,
          "channel": 9
        },
        {
          "note": 42,
          "start": 264.07381,
          "duration": 0.074735,
          "velocity": 0.503937,
          "start_tick": 399280,
          "duration_ticks": 113,
          "channel": 9
        },
        {
          "note": 42,
          "start": 264.23254,
          "duration": 0.066138,
          "velocity": 0.401575,
          "start_tick": 399520,
          "duration_ticks": 100,
          "channel": 9
        },
        {
          "note": 42,
          "start": 264.390609,
          "duration": 0.083995,
          "velocity": 0.88189,
          "start_tick": 399759,
          "duration_ticks": 127,
          "channel": 9
        },
        {
          "note": 42,
          "start": 264.549339,
          "duration": 0.083995,
          "velocity": 0.480315,
          "start_tick": 399999,
          "duration_ticks": 127,
          "channel": 9
        },
        {
          "note": 36,
          "start": 264.708069,
          "duration": 0.106481,
          "velocity": 1.0,
          "start_tick": 400239,
          "duration_ticks": 161,
          "channel": 9
        },
        {
          "note": 40,
          "start": 264.708069,
          "duration": 0.079365,
          "velocity": 1.0,
          "start_tick": 400239,
          "duration_ticks": 120,
          "channel": 9
        },
        {
          "note": 42,
          "start": 264.708069,
          "duration": 0.078704,
          "velocity": 0.535433,
          "start_tick": 400239,
          "duration_ticks": 119,
          "channel": 9
        },
        {
          "note": 49,
          "start": 264.708069,
          "duration": 0.079365,
          "velocity": 0.629921,
          "start_tick": 400239,
          "duration_ticks": 120,
          "channel": 9
        },
        {
          "note": 42,
          "start": 264.866137,
          "duration": 0.064815,
          "velocity": 0.307087,
          "start_tick": 400478,
          "duration_ticks": 98,
          "channel": 9
        },
        {
          "note": 42,
          "start": 265.024867,
          "duration": 0.085317,
          "velocity": 0.929134,
          "start_tick": 400718,
          "duration_ticks": 129,
          "channel": 9
        },
        {
          "note": 42,
          "start": 265.183597,
          "duration": 0.08664,
          "velocity": 0.535433,
          "start_tick": 400958,
          "duration_ticks": 131,
          "channel": 9
        },
        {
          "note": 36,
          "start": 265.342327,
          "duration": 0.105159,
          "velocity": 1.0,
          "start_tick": 401198,
          "duration_ticks": 159,
          "channel": 9
        },
        {
          "note": 42,
          "start": 265.342327,
          "duration": 0.078704,
          "velocity": 0.464567,
          "start_tick": 401198,
          "duration_ticks": 119,
          "channel": 9
        },
        {
          "note": 42,
          "start": 265.501057,
          "duration": 0.083995,
          "velocity": 0.385827,
          "start_tick": 401438,
          "duration_ticks": 127,
          "channel": 9
        },
        {
          "note": 42,
          "start": 265.659787,
          "duration": 0.08201,
          "velocity": 0.897638,
          "start_tick": 401678,
          "duration_ticks": 124,
          "channel": 9
        },
        {
          "note": 42,
          "start": 265.818517,
          "duration": 0.08201,
          "velocity": 0.354331,
          "start_tick": 401918,
          "duration_ticks": 124,
          "channel": 9
        },
        {
          "note": 36,
          "start": 265.977247,
          "duration": 0.095238,
          "velocity": 1.0,
          "start_tick": 402158,
          "duration_ticks": 144,
          "channel": 9
        },
        {
          "note": 40,
          "start": 265.977247,
          "duration": 0.079365,
          "velocity": 1.0,
          "start_tick": 402158,
          "duration_ticks": 120,
          "channel": 9
        },
        {
          "note": 42,
          "start": 265.977247,
          "duration": 0.077381,
          "velocity": 0.527559,
          "start_tick": 402158,
          "duration_ticks": 117,
          "channel": 9
        },
        {
          "note": 49,
          "start": 265.977247,
          "duration": 0.079365,
          "velocity": 0.629921,
          "start_tick": 402158,
          "duration_ticks": 120,
          "channel": 9
        },
        {
          "note": 42,
          "start": 266.135977,
          "duration": 0.076058,
          "velocity": 0.291339,
          "start_tick": 402398,
          "duration_ticks": 115,
          "channel": 9
        },
        {
          "note": 42,
          "start": 266.294707,
          "duration": 0.082011,
          "velocity": 0.897638,
          "start_tick": 402638,
          "duration_ticks": 124,
          "channel": 9
        },
        {
          "note": 42,
          "start": 266.453437,
          "duration": 0.073413,
          "velocity": 0.637795,
          "start_tick": 402878,
          "duration_ticks": 111,
          "channel": 9
        },
        {
          "note": 36,
          "start": 266.612167,
          "duration": 0.107804,
          "velocity": 1.0,
          "start_tick": 403118,
          "duration_ticks": 163,
          "channel": 9
        },
        {
          "note": 42,
          "start": 266.612167,
          "duration": 0.071428,
          "velocity": 0.511811,
          "start_tick": 403118,
          "duration_ticks": 108,
          "channel": 9
        },
        {
          "note": 42,
          "start": 266.770897,
          "duration": 0.076058,
          "velocity": 0.582677,
          "start_tick": 403358,
          "duration_ticks": 115,
          "channel": 9
        },
        {
          "note": 42,
          "start": 266.929627,
          "duration": 0.080688,
          "velocity": 0.929134,
          "start_tick": 403598,
          "duration_ticks": 122,
          "channel": 9
        },
        {
          "note": 42,
          "start": 267.088357,
          "duration": 0.074074,
          "velocity": 0.598425,
          "start_tick": 403838,
          "duration_ticks": 112,
          "channel": 9
        },
        {
          "note": 36,
          "start": 267.247087,
          "duration": 0.102513,
          "velocity": 1.0,
          "start_tick": 404078,
          "duration_ticks": 155,
          "channel": 9
        },
        {
          "note": 40,
          "start": 267.247087,
          "duration": 0.079365,
          "velocity": 1.0,
          "start_tick": 404078,
          "duration_ticks": 120,
          "channel": 9
        },
        {
          "note": 42,
          "start": 267.247087,
          "duration": 0.085979,
          "velocity": 0.464567,
          "start_tick": 404078,
          "duration_ticks": 130,
          "channel": 9
        },
        {
          "note": 49,
          "start": 267.247087,
          "duration": 0.079365,
          "velocity": 0.629921,
          "start_tick": 404078,
          "duration_ticks": 120,
          "channel": 9
        },
        {
          "note": 42,
          "start": 267.405817,
          "duration": 0.06746,
          "velocity": 0.440945,
          "start_tick": 404318,
          "duration_ticks": 102,
          "channel": 9
        },
        {
          "note": 42,
          "start": 267.564547,
          "duration": 0.080688,
          "velocity": 0.88189,
          "start_tick": 404558,
          "duration_ticks": 122,
          "channel": 9
        },
        {
          "note": 42,
          "start": 267.723277,
          "duration": 0.088624,
          "velocity": 0.692913,
          "start_tick": 404798,
          "duration_ticks": 134,
          "channel": 9
        },
        {
          "note": 36,
          "start": 267.882007,
          "duration": 0.106481,
          "velocity": 1.0,
          "start_tick": 405038,
          "duration_ticks": 161,
          "channel": 9
        },
        {
          "note": 42,
          "start": 267.882007,
          "duration": 0.078704,
          "velocity": 0.440945,
          "start_tick": 405038,
          "duration_ticks": 119,
          "channel": 9
        },
        {
          "note": 42,
          "start": 268.040737,
          "duration": 0.080026,
          "velocity": 0.440945,
          "start_tick": 405278,
          "duration_ticks": 121,
          "channel": 9
        },
        {
          "note": 42,
          "start": 268.199467,
          "duration": 0.082672,
          "velocity": 0.88189,
          "start_tick": 405518,
          "duration_ticks": 125,
          "channel": 9
        },
        {
          "note": 42,
          "start": 268.358197,
          "duration": 0.089947,
          "velocity": 0.669291,
          "start_tick": 405758,
          "duration_ticks": 136,
          "channel": 9
        },
        {
          "note": 36,
          "start": 268.516927,
          "duration": 0.106481,
          "velocity": 1.0,
          "start_tick": 405998,
          "duration_ticks": 161,
          "channel": 9
        },
        {
          "note": 40,
          "start": 268.516927,
          "duration": 0.079365,
          "velocity": 1.0,
          "start_tick": 405998,
          "duration_ticks": 120,
          "channel": 9
        },
        {
          "note": 42,
          "start": 268.516927,
          "duration": 0.074735,
          "velocity": 0.417323,
          "start_tick": 405998,
          "duration_ticks": 113,
          "channel": 9
        },
        {
          "note": 49,
          "start": 268.516927,
          "duration": 0.079365,
          "velocity": 0.629921,
          "start_tick": 405998,
          "duration_ticks": 120,
          "channel": 9
        },
        {
          "note": 42,
          "start": 268.675657,
          "duration": 0.087963,
          "velocity": 0.354331,
          "start_tick": 406238,
          "duration_ticks": 133,
          "channel": 9
        },
        {
          "note": 42,
          "start": 268.834387,
          "duration": 0.08201,
          "velocity": 0.913386,
          "start_tick": 406478,
          "duration_ticks": 124,
          "channel": 9
        },
        {
          "note": 42,
          "start": 268.993117,
          "duration": 0.08664,
          "velocity": 0.614173,
          "start_tick": 406718,
          "duration_ticks": 131,
          "channel": 9
        },
        {
          "note": 36,
          "start": 269.151847,
          "duration": 0.104497,
          "velocity": 1.0,
          "start_tick": 406958,
          "duration_ticks": 158,
          "channel": 9
        },
        {
          "note": 42,
          "start": 269.151847,
          "duration": 0.074735,
          "velocity": 0.503937,
          "start_tick": 406958,
          "duration_ticks": 113,
          "channel": 9
        },
        {
          "note": 42,
          "start": 269.310577,
          "duration": 0.066799,
          "velocity": 0.401575,
          "start_tick": 407198,
          "duration_ticks": 101,
          "channel": 9
        },
        {
          "note": 42,
          "start": 269.469307,
          "duration": 0.083995,
          "velocity": 0.88189,
          "start_tick": 407438,
          "duration_ticks": 127,
          "channel": 9
        },
        {
          "note": 42,
          "start": 269.628037,
          "duration": 0.083995,
          "velocity": 0.480315,
          "start_tick": 407678,
          "duration_ticks": 127,
          "channel": 9
        },
        {
          "note": 36,
          "start": 269.786767,
          "duration": 0.106481,
          "velocity": 1.0,
          "start_tick": 407918,
          "duration_ticks": 161,
          "channel": 9
        },
        {
          "note": 40,
          "start": 269.786767,
          "duration": 0.079365,
          "velocity": 1.0,
          "start_tick": 407918,
          "duration_ticks": 120,
          "channel": 9
        },
        {
          "note": 42,
          "start": 269.786767,
          "duration": 0.078704,
          "velocity": 0.535433,
          "start_tick": 407918,
          "duration_ticks": 119,
          "channel": 9
        },
        {
          "note": 49,
          "start": 269.786767,
          "duration": 0.079365,
          "velocity": 0.629921,
          "start_tick": 407918,
          "duration_ticks": 120,
          "channel": 9
        },
        {
          "note": 42,
          "start": 269.945497,
          "duration": 0.064815,
          "velocity": 0.307087,
          "start_tick": 408158,
          "duration_ticks": 98,
          "channel": 9
        },
        {
          "note": 42,
          "start": 270.104227,
          "duration": 0.085317,
          "velocity": 0.929134,
          "start_tick": 408398,
          "duration_ticks": 129,
          "channel": 9
        },
        {
          "note": 42,
          "start": 270.262957,
          "duration": 0.08664,
          "velocity": 0.535433,
          "start_tick": 408638,
          "duration_ticks": 131,
          "channel": 9
        },
        {
          "note": 36,
          "start": 270.421687,
          "duration": 0.105159,
          "velocity": 1.0,
          "start_tick": 408878,
          "duration_ticks": 159,
          "channel": 9
        },
        {
          "note": 42,
          "start": 270.421687,
          "duration": 0.078704,
          "velocity": 0.464567,
          "start_tick": 408878,
          "duration_ticks": 119,
          "channel": 9
        },
        {
          "note": 42,
          "start": 270.580417,
          "duration": 0.083995,
          "velocity": 0.385827,
          "start_tick": 409118,
          "duration_ticks": 127,
          "channel": 9
        },
        {
          "note": 42,
          "start": 270.739147,
          "duration": 0.082011,
          "velocity": 0.897638,
          "start_tick": 409358,
          "duration_ticks": 124,
          "channel": 9
        },
        {
          "note": 42,
          "start": 270.897877,
          "duration": 0.08201,
          "velocity": 0.354331,
          "start_tick": 409598,
          "duration_ticks": 124,
          "channel": 9
        },
        {
          "note": 36,
          "start": 271.056607,
          "duration": 0.095238,
          "velocity": 1.0,
          "start_tick": 409838,
          "duration_ticks": 144,
          "channel": 9
        },
        {
          "note": 40,
          "start": 271.056607,
          "duration": 0.079365,
          "velocity": 1.0,
          "start_tick": 409838,
          "duration_ticks": 120,
          "channel": 9
        },
        {
          "note": 42,
          "start": 271.056607,
          "duration": 0.077381,
          "velocity": 0.527559,
          "start_tick": 409838,
          "duration_ticks": 117,
          "channel": 9
        },
        {
          "note": 49,
          "start": 271.056607,
          "duration": 0.079365,
          "velocity": 0.629921,
          "start_tick": 409838,
          "duration_ticks": 120,
          "channel": 9
        },
        {
          "note": 42,
          "start": 271.215337,
          "duration": 0.076058,
          "velocity": 0.291339,
          "start_tick": 410078,
          "duration_ticks": 115,
          "channel": 9
        },
        {
          "note": 42,
          "start": 271.374067,
          "duration": 0.082011,
          "velocity": 0.897638,
          "start_tick": 410318,
          "duration_ticks": 124,
          "channel": 9
        },
        {
          "note": 42,
          "start": 271.532797,
          "duration": 0.073413,
          "velocity": 0.637795,
          "start_tick": 410558,
          "duration_ticks": 111,
          "channel": 9
        },
        {
          "note": 36,
          "start": 271.691527,
          "duration": 0.107804,
          "velocity": 1.0,
          "start_tick": 410798,
          "duration_ticks": 163,
          "channel": 9
        },
        {
          "note": 42,
          "start": 271.691527,
          "duration": 0.071429,
          "velocity": 0.511811,
          "start_tick": 410798,
          "duration_ticks": 108,
          "channel": 9
        },
        {
          "note": 49,
          "start": 271.691527,
          "duration": 0.079365,
          "velocity": 0.629921,
          "start_tick": 410798,
          "duration_ticks": 120,
          "channel": 9
        }
      ]
    }
  ],
  "ownership": {
    "arrangement_workflow": [
      "tracks[].notes",
      "tracks[].role",
      "tracks[].time_range",
      "tempo",
      "meter"
    ],
    "patch_workflow": [
      "tracks[].instrument",
      "tracks[].effects",
      "tracks[].modulation",
      "returns",
      "master"
    ],
    "patch_workflow_may_change_notes": false
  }
}
